# MagicaVoxel @ Ephtracy

# group
g Cabinet01

# material
mtllib Cabinet01.mtl
usemtl palette

# normals
vn -1 0 0
vn 1 0 0
vn 0 0 1
vn 0 0 -1
vn 0 -1 0
vn 0 1 0

# texcoords
vt 0.970703 0.5
vt 0.974609 0.5
vt 0.982422 0.5
vt 0.994141 0.5

# verts
v -10.5 0 7.5
v -10.5 0 6.5
v -10.5 0 -6.5
v -10.5 0 -7.5
v -10.5 1 7.5
v -10.5 1 6.5
v -10.5 1 -6.5
v -10.5 1 -7.5
v -10.5 24 7.5
v -10.5 24 6.5
v -10.5 24 -6.5
v -10.5 24 -7.5
v -10.5 25 7.5
v -10.5 25 6.5
v -10.5 25 -6.5
v -10.5 25 -7.5
v 9.5 0 7.5
v 9.5 0 6.5
v 9.5 0 -6.5
v 9.5 0 -7.5
v 9.5 1 7.5
v 9.5 1 6.5
v 9.5 1 -6.5
v 9.5 1 -7.5
v 9.5 8 2.5
v 9.5 8 -2.5
v 9.5 9 2.5
v 9.5 9 -2.5
v 9.5 12 6.5
v 9.5 12 -6.5
v 9.5 13 6.5
v 9.5 13 -6.5
v 9.5 20 2.5
v 9.5 20 -2.5
v 9.5 21 2.5
v 9.5 21 -2.5
v 9.5 24 7.5
v 9.5 24 6.5
v 9.5 24 -6.5
v 9.5 24 -7.5
v 9.5 25 7.5
v 9.5 25 6.5
v 9.5 25 -6.5
v 9.5 25 -7.5
v 10.5 8 2.5
v 10.5 8 -2.5
v 10.5 9 2.5
v 10.5 9 -2.5
v 10.5 20 2.5
v 10.5 20 -2.5
v 10.5 21 2.5
v 10.5 21 -2.5
v -10.5 0 7.5
v -10.5 1 7.5
v -10.5 24 7.5
v -10.5 25 7.5
v -9.5 0 7.5
v -9.5 1 7.5
v -9.5 24 7.5
v -9.5 25 7.5
v 8.5 0 7.5
v 8.5 1 7.5
v 8.5 24 7.5
v 8.5 25 7.5
v 9.5 0 7.5
v 9.5 1 7.5
v 9.5 24 7.5
v 9.5 25 7.5
v 9.5 8 2.5
v 9.5 9 2.5
v 9.5 20 2.5
v 9.5 21 2.5
v 10.5 8 2.5
v 10.5 9 2.5
v 10.5 20 2.5
v 10.5 21 2.5
v 9.5 8 -2.5
v 9.5 9 -2.5
v 9.5 20 -2.5
v 9.5 21 -2.5
v 10.5 8 -2.5
v 10.5 9 -2.5
v 10.5 20 -2.5
v 10.5 21 -2.5
v -10.5 0 -7.5
v -10.5 1 -7.5
v -10.5 24 -7.5
v -10.5 25 -7.5
v -9.5 0 -7.5
v -9.5 1 -7.5
v -9.5 24 -7.5
v -9.5 25 -7.5
v 8.5 0 -7.5
v 8.5 1 -7.5
v 8.5 24 -7.5
v 8.5 25 -7.5
v 9.5 0 -7.5
v 9.5 1 -7.5
v 9.5 24 -7.5
v 9.5 25 -7.5
v -10.5 0 7.5
v -9.5 0 7.5
v 8.5 0 7.5
v 9.5 0 7.5
v -10.5 0 6.5
v -9.5 0 6.5
v 8.5 0 6.5
v 9.5 0 6.5
v -10.5 0 -6.5
v -9.5 0 -6.5
v 8.5 0 -6.5
v 9.5 0 -6.5
v -10.5 0 -7.5
v -9.5 0 -7.5
v 8.5 0 -7.5
v 9.5 0 -7.5
v 9.5 8 2.5
v 10.5 8 2.5
v 9.5 8 -2.5
v 10.5 8 -2.5
v 9.5 20 2.5
v 10.5 20 2.5
v 9.5 20 -2.5
v 10.5 20 -2.5
v 9.5 9 2.5
v 10.5 9 2.5
v 9.5 9 -2.5
v 10.5 9 -2.5
v 9.5 21 2.5
v 10.5 21 2.5
v 9.5 21 -2.5
v 10.5 21 -2.5
v -10.5 25 7.5
v -9.5 25 7.5
v 8.5 25 7.5
v 9.5 25 7.5
v -10.5 25 6.5
v -9.5 25 6.5
v 8.5 25 6.5
v 9.5 25 6.5
v -10.5 25 -6.5
v -9.5 25 -6.5
v 8.5 25 -6.5
v 9.5 25 -6.5
v -10.5 25 -7.5
v -9.5 25 -7.5
v 8.5 25 -7.5
v 9.5 25 -7.5

# faces
f 5/4/1 2/4/1 1/4/1
f 6/1/1 3/1/1 2/1/1
f 6/4/1 2/4/1 5/4/1
f 7/4/1 4/4/1 3/4/1
f 7/1/1 3/1/1 6/1/1
f 8/4/1 4/4/1 7/4/1
f 9/1/1 6/1/1 5/1/1
f 9/1/1 7/1/1 6/1/1
f 9/1/1 8/1/1 7/1/1
f 10/1/1 8/1/1 9/1/1
f 11/1/1 8/1/1 10/1/1
f 12/1/1 8/1/1 11/1/1
f 13/4/1 10/4/1 9/4/1
f 14/1/1 11/1/1 10/1/1
f 14/4/1 10/4/1 13/4/1
f 15/4/1 12/4/1 11/4/1
f 15/1/1 11/1/1 14/1/1
f 16/4/1 12/4/1 15/4/1
f 17/4/2 18/4/2 21/4/2
f 18/1/2 19/1/2 22/1/2
f 21/4/2 18/4/2 22/4/2
f 19/4/2 20/4/2 23/4/2
f 22/1/2 19/1/2 23/1/2
f 23/4/2 20/4/2 24/4/2
f 22/2/2 23/2/2 25/2/2
f 25/2/2 23/2/2 26/2/2
f 22/2/2 25/2/2 27/2/2
f 26/2/2 23/2/2 28/2/2
f 21/1/2 22/1/2 29/1/2
f 27/2/2 28/2/2 29/2/2
f 22/2/2 27/2/2 29/2/2
f 28/2/2 23/2/2 30/2/2
f 29/2/2 28/2/2 30/2/2
f 23/1/2 24/1/2 30/1/2
f 21/1/2 29/1/2 31/1/2
f 29/1/2 30/1/2 31/1/2
f 30/1/2 24/1/2 32/1/2
f 31/1/2 30/1/2 32/1/2
f 31/2/2 32/2/2 33/2/2
f 33/2/2 32/2/2 34/2/2
f 31/2/2 33/2/2 35/2/2
f 34/2/2 32/2/2 36/2/2
f 21/1/2 31/1/2 37/1/2
f 35/2/2 36/2/2 38/2/2
f 37/1/2 31/1/2 38/1/2
f 31/2/2 35/2/2 38/2/2
f 32/1/2 24/1/2 39/1/2
f 38/2/2 36/2/2 39/2/2
f 36/2/2 32/2/2 39/2/2
f 39/1/2 24/1/2 40/1/2
f 37/4/2 38/4/2 41/4/2
f 38/1/2 39/1/2 42/1/2
f 41/4/2 38/4/2 42/4/2
f 39/4/2 40/4/2 43/4/2
f 42/1/2 39/1/2 43/1/2
f 43/4/2 40/4/2 44/4/2
f 45/3/2 46/3/2 47/3/2
f 47/3/2 46/3/2 48/3/2
f 49/3/2 50/3/2 51/3/2
f 51/3/2 50/3/2 52/3/2
f 57/4/3 54/4/3 53/4/3
f 58/1/3 55/1/3 54/1/3
f 58/4/3 54/4/3 57/4/3
f 59/4/3 56/4/3 55/4/3
f 59/1/3 55/1/3 58/1/3
f 60/4/3 56/4/3 59/4/3
f 61/1/3 58/1/3 57/1/3
f 61/1/3 59/1/3 58/1/3
f 61/1/3 60/1/3 59/1/3
f 62/1/3 60/1/3 61/1/3
f 63/1/3 60/1/3 62/1/3
f 64/1/3 60/1/3 63/1/3
f 65/4/3 62/4/3 61/4/3
f 66/1/3 63/1/3 62/1/3
f 66/4/3 62/4/3 65/4/3
f 67/4/3 64/4/3 63/4/3
f 67/1/3 63/1/3 66/1/3
f 68/4/3 64/4/3 67/4/3
f 73/3/3 70/3/3 69/3/3
f 74/3/3 70/3/3 73/3/3
f 75/3/3 72/3/3 71/3/3
f 76/3/3 72/3/3 75/3/3
f 77/3/4 78/3/4 81/3/4
f 81/3/4 78/3/4 82/3/4
f 79/3/4 80/3/4 83/3/4
f 83/3/4 80/3/4 84/3/4
f 85/4/4 86/4/4 89/4/4
f 86/1/4 87/1/4 90/1/4
f 89/4/4 86/4/4 90/4/4
f 87/4/4 88/4/4 91/4/4
f 90/1/4 87/1/4 91/1/4
f 91/4/4 88/4/4 92/4/4
f 89/1/4 90/1/4 93/1/4
f 90/1/4 91/1/4 93/1/4
f 91/1/4 92/1/4 93/1/4
f 93/1/4 92/1/4 94/1/4
f 94/1/4 92/1/4 95/1/4
f 95/1/4 92/1/4 96/1/4
f 93/4/4 94/4/4 97/4/4
f 94/1/4 95/1/4 98/1/4
f 97/4/4 94/4/4 98/4/4
f 95/4/4 96/4/4 99/4/4
f 98/1/4 95/1/4 99/1/4
f 99/4/4 96/4/4 100/4/4
f 105/4/5 102/4/5 101/4/5
f 106/1/5 103/1/5 102/1/5
f 106/4/5 102/4/5 105/4/5
f 107/4/5 104/4/5 103/4/5
f 107/1/5 103/1/5 106/1/5
f 108/4/5 104/4/5 107/4/5
f 109/1/5 106/1/5 105/1/5
f 109/1/5 107/1/5 106/1/5
f 109/1/5 108/1/5 107/1/5
f 110/1/5 108/1/5 109/1/5
f 111/1/5 108/1/5 110/1/5
f 112/1/5 108/1/5 111/1/5
f 113/4/5 110/4/5 109/4/5
f 114/1/5 111/1/5 110/1/5
f 114/4/5 110/4/5 113/4/5
f 115/4/5 112/4/5 111/4/5
f 115/1/5 111/1/5 114/1/5
f 116/4/5 112/4/5 115/4/5
f 119/3/5 118/3/5 117/3/5
f 120/3/5 118/3/5 119/3/5
f 123/3/5 122/3/5 121/3/5
f 124/3/5 122/3/5 123/3/5
f 125/3/6 126/3/6 127/3/6
f 127/3/6 126/3/6 128/3/6
f 129/3/6 130/3/6 131/3/6
f 131/3/6 130/3/6 132/3/6
f 133/4/6 134/4/6 137/4/6
f 134/1/6 135/1/6 138/1/6
f 137/4/6 134/4/6 138/4/6
f 135/4/6 136/4/6 139/4/6
f 138/1/6 135/1/6 139/1/6
f 139/4/6 136/4/6 140/4/6
f 137/1/6 138/1/6 141/1/6
f 138/1/6 139/1/6 141/1/6
f 139/1/6 140/1/6 141/1/6
f 141/1/6 140/1/6 142/1/6
f 142/1/6 140/1/6 143/1/6
f 143/1/6 140/1/6 144/1/6
f 141/4/6 142/4/6 145/4/6
f 142/1/6 143/1/6 146/1/6
f 145/4/6 142/4/6 146/4/6
f 143/4/6 144/4/6 147/4/6
f 146/1/6 143/1/6 147/1/6
f 147/4/6 144/4/6 148/4/6
