# MagicaVoxel @ Ephtracy

# group
g Cabinet03

# material
mtllib Cabinet03.mtl
usemtl palette

# normals
vn -1 0 0
vn 1 0 0
vn 0 0 1
vn 0 0 -1
vn 0 -1 0
vn 0 1 0

# texcoords
vt 0.970703 0.5
vt 0.974609 0.5
vt 0.978516 0.5

# verts
v -9.5 0 4
v -9.5 0 -5
v -9.5 19 4
v -9.5 19 -5
v -1.5 2 5
v -1.5 2 4
v -1.5 3 5
v -1.5 3 4
v -1.5 8 5
v -1.5 8 4
v -1.5 9 5
v -1.5 9 4
v -1.5 14 5
v -1.5 14 4
v -1.5 15 5
v -1.5 15 4
v 1.5 2 5
v 1.5 2 4
v 1.5 3 5
v 1.5 3 4
v 1.5 8 5
v 1.5 8 4
v 1.5 9 5
v 1.5 9 4
v 1.5 14 5
v 1.5 14 4
v 1.5 15 5
v 1.5 15 4
v 9.5 0 4
v 9.5 0 -5
v 9.5 19 4
v 9.5 19 -5
v -1.5 2 5
v -1.5 3 5
v -1.5 8 5
v -1.5 9 5
v -1.5 14 5
v -1.5 15 5
v 1.5 2 5
v 1.5 3 5
v 1.5 8 5
v 1.5 9 5
v 1.5 14 5
v 1.5 15 5
v -9.5 0 4
v -9.5 19 4
v -8.5 1 4
v -8.5 6 4
v -8.5 7 4
v -8.5 12 4
v -8.5 13 4
v -8.5 18 4
v -1.5 2 4
v -1.5 3 4
v -1.5 8 4
v -1.5 9 4
v -1.5 14 4
v -1.5 15 4
v 1.5 2 4
v 1.5 3 4
v 1.5 8 4
v 1.5 9 4
v 1.5 14 4
v 1.5 15 4
v 8.5 1 4
v 8.5 6 4
v 8.5 7 4
v 8.5 12 4
v 8.5 13 4
v 8.5 18 4
v 9.5 0 4
v 9.5 19 4
v -9.5 0 -5
v -9.5 19 -5
v 9.5 0 -5
v 9.5 19 -5
v -9.5 0 4
v 9.5 0 4
v -9.5 0 -5
v 9.5 0 -5
v -1.5 2 5
v 1.5 2 5
v -1.5 2 4
v 1.5 2 4
v -1.5 8 5
v 1.5 8 5
v -1.5 8 4
v 1.5 8 4
v -1.5 14 5
v 1.5 14 5
v -1.5 14 4
v 1.5 14 4
v -1.5 3 5
v 1.5 3 5
v -1.5 3 4
v 1.5 3 4
v -1.5 9 5
v 1.5 9 5
v -1.5 9 4
v 1.5 9 4
v -1.5 15 5
v 1.5 15 5
v -1.5 15 4
v 1.5 15 4
v -9.5 19 4
v 9.5 19 4
v -9.5 19 -5
v 9.5 19 -5

# faces
f 3/1/1 2/1/1 1/1/1
f 4/1/1 2/1/1 3/1/1
f 7/3/1 6/3/1 5/3/1
f 8/3/1 6/3/1 7/3/1
f 11/3/1 10/3/1 9/3/1
f 12/3/1 10/3/1 11/3/1
f 15/3/1 14/3/1 13/3/1
f 16/3/1 14/3/1 15/3/1
f 17/3/2 18/3/2 19/3/2
f 19/3/2 18/3/2 20/3/2
f 21/3/2 22/3/2 23/3/2
f 23/3/2 22/3/2 24/3/2
f 25/3/2 26/3/2 27/3/2
f 27/3/2 26/3/2 28/3/2
f 29/1/2 30/1/2 31/1/2
f 31/1/2 30/1/2 32/1/2
f 39/3/3 34/3/3 33/3/3
f 40/3/3 34/3/3 39/3/3
f 41/3/3 36/3/3 35/3/3
f 42/3/3 36/3/3 41/3/3
f 43/3/3 38/3/3 37/3/3
f 44/3/3 38/3/3 43/3/3
f 47/1/3 46/1/3 45/1/3
f 48/1/3 46/1/3 47/1/3
f 49/1/3 46/1/3 48/1/3
f 50/1/3 46/1/3 49/1/3
f 51/1/3 46/1/3 50/1/3
f 52/1/3 46/1/3 51/1/3
f 53/2/3 48/2/3 47/2/3
f 54/2/3 48/2/3 53/2/3
f 55/2/3 50/2/3 49/2/3
f 56/2/3 50/2/3 55/2/3
f 57/2/3 52/2/3 51/2/3
f 58/2/3 52/2/3 57/2/3
f 59/2/3 53/2/3 47/2/3
f 60/2/3 48/2/3 54/2/3
f 61/2/3 55/2/3 49/2/3
f 62/2/3 50/2/3 56/2/3
f 63/2/3 57/2/3 51/2/3
f 64/2/3 52/2/3 58/2/3
f 65/1/3 47/1/3 45/1/3
f 65/2/3 59/2/3 47/2/3
f 65/2/3 60/2/3 59/2/3
f 66/1/3 49/1/3 48/1/3
f 66/2/3 60/2/3 65/2/3
f 66/2/3 48/2/3 60/2/3
f 67/2/3 61/2/3 49/2/3
f 67/1/3 49/1/3 66/1/3
f 67/2/3 62/2/3 61/2/3
f 68/1/3 51/1/3 50/1/3
f 68/2/3 62/2/3 67/2/3
f 68/2/3 50/2/3 62/2/3
f 69/2/3 64/2/3 63/2/3
f 69/1/3 51/1/3 68/1/3
f 69/2/3 63/2/3 51/2/3
f 70/1/3 46/1/3 52/1/3
f 70/2/3 64/2/3 69/2/3
f 70/2/3 52/2/3 64/2/3
f 71/1/3 68/1/3 67/1/3
f 71/1/3 69/1/3 68/1/3
f 71/1/3 70/1/3 69/1/3
f 71/1/3 65/1/3 45/1/3
f 71/1/3 67/1/3 66/1/3
f 71/1/3 66/1/3 65/1/3
f 72/1/3 46/1/3 70/1/3
f 72/1/3 70/1/3 71/1/3
f 73/1/4 74/1/4 75/1/4
f 75/1/4 74/1/4 76/1/4
f 79/1/5 78/1/5 77/1/5
f 80/1/5 78/1/5 79/1/5
f 83/3/5 82/3/5 81/3/5
f 84/3/5 82/3/5 83/3/5
f 87/3/5 86/3/5 85/3/5
f 88/3/5 86/3/5 87/3/5
f 91/3/5 90/3/5 89/3/5
f 92/3/5 90/3/5 91/3/5
f 93/3/6 94/3/6 95/3/6
f 95/3/6 94/3/6 96/3/6
f 97/3/6 98/3/6 99/3/6
f 99/3/6 98/3/6 100/3/6
f 101/3/6 102/3/6 103/3/6
f 103/3/6 102/3/6 104/3/6
f 105/1/6 106/1/6 107/1/6
f 107/1/6 106/1/6 108/1/6
