# MagicaVoxel @ Ephtracy

# group
g Cabinet02

# material
mtllib Cabinet02.mtl
usemtl palette

# normals
vn -1 0 0
vn 1 0 0
vn 0 0 1
vn 0 0 -1
vn 0 -1 0
vn 0 1 0

# texcoords
vt 0.970703 0.5
vt 0.974609 0.5
vt 0.978516 0.5
vt 0.986328 0.5

# verts
v -9.5 0 5.5
v -9.5 0 3.5
v -9.5 0 -2.5
v -9.5 0 -4.5
v -9.5 1 3.5
v -9.5 1 -2.5
v -9.5 18 5.5
v -9.5 18 -4.5
v -5.5 4 6.5
v -5.5 4 5.5
v -5.5 5 6.5
v -5.5 5 5.5
v -5.5 12 6.5
v -5.5 12 5.5
v -5.5 13 6.5
v -5.5 13 5.5
v 3.5 4 6.5
v 3.5 4 5.5
v 3.5 5 6.5
v 3.5 5 5.5
v 3.5 12 6.5
v 3.5 12 5.5
v 3.5 13 6.5
v 3.5 13 5.5
v 7.5 0 5.5
v 7.5 0 3.5
v 7.5 0 -2.5
v 7.5 0 -4.5
v 7.5 1 5.5
v 7.5 1 3.5
v 7.5 1 -2.5
v 7.5 1 -4.5
v -7.5 0 5.5
v -7.5 0 3.5
v -7.5 0 -2.5
v -7.5 0 -4.5
v -7.5 1 5.5
v -7.5 1 3.5
v -7.5 1 -2.5
v -7.5 1 -4.5
v -3.5 4 6.5
v -3.5 4 5.5
v -3.5 5 6.5
v -3.5 5 5.5
v -3.5 12 6.5
v -3.5 12 5.5
v -3.5 13 6.5
v -3.5 13 5.5
v 5.5 4 6.5
v 5.5 4 5.5
v 5.5 5 6.5
v 5.5 5 5.5
v 5.5 12 6.5
v 5.5 12 5.5
v 5.5 13 6.5
v 5.5 13 5.5
v 9.5 0 5.5
v 9.5 0 3.5
v 9.5 0 -2.5
v 9.5 0 -4.5
v 9.5 1 3.5
v 9.5 1 -2.5
v 9.5 18 5.5
v 9.5 18 -4.5
v -5.5 4 6.5
v -5.5 5 6.5
v -5.5 12 6.5
v -5.5 13 6.5
v -3.5 4 6.5
v -3.5 5 6.5
v -3.5 12 6.5
v -3.5 13 6.5
v 3.5 4 6.5
v 3.5 5 6.5
v 3.5 12 6.5
v 3.5 13 6.5
v 5.5 4 6.5
v 5.5 5 6.5
v 5.5 12 6.5
v 5.5 13 6.5
v -9.5 0 5.5
v -9.5 18 5.5
v -8.5 2 5.5
v -8.5 9 5.5
v -8.5 10 5.5
v -8.5 17 5.5
v -7.5 0 5.5
v -7.5 1 5.5
v -6.5 6 5.5
v -6.5 8 5.5
v -6.5 14 5.5
v -6.5 16 5.5
v -5.5 4 5.5
v -5.5 5 5.5
v -5.5 12 5.5
v -5.5 13 5.5
v -3.5 4 5.5
v -3.5 5 5.5
v -3.5 12 5.5
v -3.5 13 5.5
v -2.5 6 5.5
v -2.5 8 5.5
v -2.5 14 5.5
v -2.5 16 5.5
v -0.5 2 5.5
v -0.5 9 5.5
v -0.5 10 5.5
v -0.5 17 5.5
v 0.5 2 5.5
v 0.5 9 5.5
v 0.5 10 5.5
v 0.5 17 5.5
v 2.5 6 5.5
v 2.5 8 5.5
v 2.5 14 5.5
v 2.5 16 5.5
v 3.5 4 5.5
v 3.5 5 5.5
v 3.5 12 5.5
v 3.5 13 5.5
v 5.5 4 5.5
v 5.5 5 5.5
v 5.5 12 5.5
v 5.5 13 5.5
v 6.5 6 5.5
v 6.5 8 5.5
v 6.5 14 5.5
v 6.5 16 5.5
v 7.5 0 5.5
v 7.5 1 5.5
v 8.5 2 5.5
v 8.5 9 5.5
v 8.5 10 5.5
v 8.5 17 5.5
v 9.5 0 5.5
v 9.5 18 5.5
v -9.5 0 -2.5
v -9.5 1 -2.5
v -7.5 0 -2.5
v -7.5 1 -2.5
v 7.5 0 -2.5
v 7.5 1 -2.5
v 9.5 0 -2.5
v 9.5 1 -2.5
v -9.5 0 3.5
v -9.5 1 3.5
v -7.5 0 3.5
v -7.5 1 3.5
v 7.5 0 3.5
v 7.5 1 3.5
v 9.5 0 3.5
v 9.5 1 3.5
v -9.5 0 -4.5
v -9.5 18 -4.5
v -7.5 0 -4.5
v -7.5 1 -4.5
v 7.5 0 -4.5
v 7.5 1 -4.5
v 9.5 0 -4.5
v 9.5 18 -4.5
v -9.5 0 5.5
v -7.5 0 5.5
v 7.5 0 5.5
v 9.5 0 5.5
v -9.5 0 3.5
v -7.5 0 3.5
v 7.5 0 3.5
v 9.5 0 3.5
v -9.5 0 -2.5
v -7.5 0 -2.5
v 7.5 0 -2.5
v 9.5 0 -2.5
v -9.5 0 -4.5
v -7.5 0 -4.5
v 7.5 0 -4.5
v 9.5 0 -4.5
v -7.5 1 5.5
v 7.5 1 5.5
v -9.5 1 3.5
v -7.5 1 3.5
v 7.5 1 3.5
v 9.5 1 3.5
v -9.5 1 -2.5
v -7.5 1 -2.5
v 7.5 1 -2.5
v 9.5 1 -2.5
v -7.5 1 -4.5
v 7.5 1 -4.5
v -5.5 4 6.5
v -3.5 4 6.5
v 3.5 4 6.5
v 5.5 4 6.5
v -5.5 4 5.5
v -3.5 4 5.5
v 3.5 4 5.5
v 5.5 4 5.5
v -5.5 12 6.5
v -3.5 12 6.5
v 3.5 12 6.5
v 5.5 12 6.5
v -5.5 12 5.5
v -3.5 12 5.5
v 3.5 12 5.5
v 5.5 12 5.5
v -5.5 5 6.5
v -3.5 5 6.5
v 3.5 5 6.5
v 5.5 5 6.5
v -5.5 5 5.5
v -3.5 5 5.5
v 3.5 5 5.5
v 5.5 5 5.5
v -5.5 13 6.5
v -3.5 13 6.5
v 3.5 13 6.5
v 5.5 13 6.5
v -5.5 13 5.5
v -3.5 13 5.5
v 3.5 13 5.5
v 5.5 13 5.5
v -9.5 18 5.5
v 9.5 18 5.5
v -9.5 18 -4.5
v 9.5 18 -4.5

# faces
f 5/1/1 2/1/1 1/1/1
f 6/1/1 4/1/1 3/1/1
f 7/1/1 5/1/1 1/1/1
f 7/1/1 6/1/1 5/1/1
f 8/1/1 4/1/1 6/1/1
f 8/1/1 6/1/1 7/1/1
f 11/3/1 10/3/1 9/3/1
f 12/3/1 10/3/1 11/3/1
f 15/3/1 14/3/1 13/3/1
f 16/3/1 14/3/1 15/3/1
f 19/3/1 18/3/1 17/3/1
f 20/3/1 18/3/1 19/3/1
f 23/3/1 22/3/1 21/3/1
f 24/3/1 22/3/1 23/3/1
f 29/1/1 26/1/1 25/1/1
f 30/1/1 26/1/1 29/1/1
f 31/1/1 28/1/1 27/1/1
f 32/1/1 28/1/1 31/1/1
f 33/1/2 34/1/2 37/1/2
f 37/1/2 34/1/2 38/1/2
f 35/1/2 36/1/2 39/1/2
f 39/1/2 36/1/2 40/1/2
f 41/3/2 42/3/2 43/3/2
f 43/3/2 42/3/2 44/3/2
f 45/3/2 46/3/2 47/3/2
f 47/3/2 46/3/2 48/3/2
f 49/3/2 50/3/2 51/3/2
f 51/3/2 50/3/2 52/3/2
f 53/3/2 54/3/2 55/3/2
f 55/3/2 54/3/2 56/3/2
f 57/1/2 58/1/2 61/1/2
f 59/1/2 60/1/2 62/1/2
f 57/1/2 61/1/2 63/1/2
f 61/1/2 62/1/2 63/1/2
f 62/1/2 60/1/2 64/1/2
f 63/1/2 62/1/2 64/1/2
f 69/3/3 66/3/3 65/3/3
f 70/3/3 66/3/3 69/3/3
f 71/3/3 68/3/3 67/3/3
f 72/3/3 68/3/3 71/3/3
f 77/3/3 74/3/3 73/3/3
f 78/3/3 74/3/3 77/3/3
f 79/3/3 76/3/3 75/3/3
f 80/3/3 76/3/3 79/3/3
f 83/1/3 82/1/3 81/1/3
f 84/1/3 82/1/3 83/1/3
f 85/1/3 82/1/3 84/1/3
f 86/1/3 82/1/3 85/1/3
f 87/1/3 83/1/3 81/1/3
f 88/1/3 83/1/3 87/1/3
f 89/2/3 84/2/3 83/2/3
f 90/2/3 84/2/3 89/2/3
f 91/2/3 86/2/3 85/2/3
f 92/2/3 86/2/3 91/2/3
f 93/2/3 89/2/3 83/2/3
f 94/2/3 89/2/3 93/2/3
f 95/2/3 91/2/3 85/2/3
f 96/2/3 91/2/3 95/2/3
f 97/2/3 93/2/3 83/2/3
f 98/2/3 89/2/3 94/2/3
f 99/2/3 95/2/3 85/2/3
f 100/2/3 91/2/3 96/2/3
f 101/4/3 90/4/3 89/4/3
f 101/2/3 98/2/3 97/2/3
f 101/2/3 89/2/3 98/2/3
f 102/2/3 84/2/3 90/2/3
f 102/4/3 90/4/3 101/4/3
f 103/2/3 100/2/3 99/2/3
f 103/4/3 92/4/3 91/4/3
f 103/2/3 91/2/3 100/2/3
f 104/2/3 86/2/3 92/2/3
f 104/4/3 92/4/3 103/4/3
f 105/1/3 83/1/3 88/1/3
f 105/2/3 101/2/3 97/2/3
f 105/2/3 97/2/3 83/2/3
f 105/2/3 102/2/3 101/2/3
f 106/1/3 85/1/3 84/1/3
f 106/2/3 102/2/3 105/2/3
f 106/2/3 84/2/3 102/2/3
f 107/2/3 104/2/3 103/2/3
f 107/1/3 85/1/3 106/1/3
f 107/2/3 103/2/3 99/2/3
f 107/2/3 99/2/3 85/2/3
f 108/1/3 82/1/3 86/1/3
f 108/2/3 104/2/3 107/2/3
f 108/2/3 86/2/3 104/2/3
f 109/1/3 107/1/3 106/1/3
f 109/1/3 105/1/3 88/1/3
f 109/1/3 108/1/3 107/1/3
f 109/1/3 106/1/3 105/1/3
f 110/1/3 108/1/3 109/1/3
f 111/1/3 108/1/3 110/1/3
f 112/1/3 82/1/3 108/1/3
f 112/1/3 108/1/3 111/1/3
f 113/2/3 110/2/3 109/2/3
f 114/2/3 110/2/3 113/2/3
f 115/2/3 112/2/3 111/2/3
f 116/2/3 112/2/3 115/2/3
f 117/2/3 113/2/3 109/2/3
f 118/2/3 113/2/3 117/2/3
f 119/2/3 115/2/3 111/2/3
f 120/2/3 115/2/3 119/2/3
f 121/2/3 117/2/3 109/2/3
f 122/2/3 113/2/3 118/2/3
f 123/2/3 119/2/3 111/2/3
f 124/2/3 115/2/3 120/2/3
f 125/4/3 114/4/3 113/4/3
f 125/2/3 122/2/3 121/2/3
f 125/2/3 113/2/3 122/2/3
f 126/2/3 110/2/3 114/2/3
f 126/4/3 114/4/3 125/4/3
f 127/2/3 124/2/3 123/2/3
f 127/4/3 116/4/3 115/4/3
f 127/2/3 115/2/3 124/2/3
f 128/2/3 112/2/3 116/2/3
f 128/4/3 116/4/3 127/4/3
f 130/1/3 109/1/3 88/1/3
f 131/2/3 125/2/3 121/2/3
f 131/1/3 130/1/3 129/1/3
f 131/1/3 109/1/3 130/1/3
f 131/2/3 121/2/3 109/2/3
f 131/2/3 126/2/3 125/2/3
f 132/1/3 111/1/3 110/1/3
f 132/2/3 126/2/3 131/2/3
f 132/2/3 110/2/3 126/2/3
f 133/2/3 127/2/3 123/2/3
f 133/1/3 111/1/3 132/1/3
f 133/2/3 128/2/3 127/2/3
f 133/2/3 123/2/3 111/2/3
f 134/2/3 112/2/3 128/2/3
f 134/2/3 128/2/3 133/2/3
f 134/1/3 82/1/3 112/1/3
f 135/1/3 131/1/3 129/1/3
f 135/1/3 133/1/3 132/1/3
f 135/1/3 134/1/3 133/1/3
f 135/1/3 132/1/3 131/1/3
f 136/1/3 82/1/3 134/1/3
f 136/1/3 134/1/3 135/1/3
f 139/1/3 138/1/3 137/1/3
f 140/1/3 138/1/3 139/1/3
f 143/1/3 142/1/3 141/1/3
f 144/1/3 142/1/3 143/1/3
f 145/1/4 146/1/4 147/1/4
f 147/1/4 146/1/4 148/1/4
f 149/1/4 150/1/4 151/1/4
f 151/1/4 150/1/4 152/1/4
f 153/1/4 154/1/4 155/1/4
f 155/1/4 154/1/4 156/1/4
f 156/1/4 154/1/4 158/1/4
f 157/1/4 158/1/4 159/1/4
f 158/1/4 154/1/4 160/1/4
f 159/1/4 158/1/4 160/1/4
f 165/1/5 162/1/5 161/1/5
f 166/1/5 162/1/5 165/1/5
f 167/1/5 164/1/5 163/1/5
f 168/1/5 164/1/5 167/1/5
f 173/1/5 170/1/5 169/1/5
f 174/1/5 170/1/5 173/1/5
f 175/1/5 172/1/5 171/1/5
f 176/1/5 172/1/5 175/1/5
f 180/1/5 178/1/5 177/1/5
f 181/1/5 178/1/5 180/1/5
f 183/1/5 180/1/5 179/1/5
f 183/1/5 182/1/5 181/1/5
f 183/1/5 181/1/5 180/1/5
f 184/1/5 182/1/5 183/1/5
f 185/1/5 182/1/5 184/1/5
f 186/1/5 182/1/5 185/1/5
f 187/1/5 185/1/5 184/1/5
f 188/1/5 185/1/5 187/1/5
f 193/3/5 190/3/5 189/3/5
f 194/3/5 190/3/5 193/3/5
f 195/3/5 192/3/5 191/3/5
f 196/3/5 192/3/5 195/3/5
f 201/3/5 198/3/5 197/3/5
f 202/3/5 198/3/5 201/3/5
f 203/3/5 200/3/5 199/3/5
f 204/3/5 200/3/5 203/3/5
f 205/3/6 206/3/6 209/3/6
f 209/3/6 206/3/6 210/3/6
f 207/3/6 208/3/6 211/3/6
f 211/3/6 208/3/6 212/3/6
f 213/3/6 214/3/6 217/3/6
f 217/3/6 214/3/6 218/3/6
f 215/3/6 216/3/6 219/3/6
f 219/3/6 216/3/6 220/3/6
f 221/1/6 222/1/6 223/1/6
f 223/1/6 222/1/6 224/1/6
