# MagicaVoxel @ Ephtracy

# group
g BarsEntranceLarge

# material
mtllib BarsEntranceLarge.mtl
usemtl palette

# normals
vn -1 0 0
vn 1 0 0
vn 0 0 1
vn 0 0 -1
vn 0 -1 0
vn 0 1 0

# texcoords
vt 0.974609 0.5
vt 0.978516 0.5

# verts
v -33 0 4
v -33 0 -1
v -33 1 4
v -33 1 3
v -33 1 2
v -33 1 1
v -33 1 -0
v -33 1 -1
v -33 2 3
v -33 2 2
v -33 41 3
v -33 41 1
v -33 41 -0
v -33 41 -1
v -33 43 3
v -33 43 2
v -33 43 -0
v -33 43 -1
v -33 55 4
v -33 55 2
v -33 55 -0
v -33 55 -1
v -33 64 4
v -33 64 -1
v -28 43 2
v -28 43 -0
v -28 55 2
v -28 55 -0
v -24 43 2
v -24 43 -0
v -24 55 2
v -24 55 -0
v -20 43 2
v -20 43 -0
v -20 55 2
v -20 55 -0
v -16 43 2
v -16 43 -0
v -16 55 2
v -16 55 -0
v -12 43 2
v -12 43 -0
v -12 55 2
v -12 55 -0
v -8 43 2
v -8 43 -0
v -8 55 2
v -8 55 -0
v -4 43 2
v -4 43 -0
v -4 55 2
v -4 55 -0
v 7 43 2
v 7 43 -0
v 7 55 2
v 7 55 -0
v 11 43 2
v 11 43 -0
v 11 55 2
v 11 55 -0
v 15 43 2
v 15 43 -0
v 15 55 2
v 15 55 -0
v 19 43 2
v 19 43 -0
v 19 55 2
v 19 55 -0
v 23 43 2
v 23 43 -0
v 23 55 2
v 23 55 -0
v 27 43 2
v 27 43 -0
v 27 55 2
v 27 55 -0
v 31 2 1
v 31 2 -0
v 31 41 1
v 31 41 -0
v 31 43 2
v 31 43 -0
v 31 55 2
v 31 55 -0
v -31 2 1
v -31 2 -0
v -31 41 1
v -31 41 -0
v -31 43 2
v -31 43 -0
v -31 55 2
v -31 55 -0
v -27 43 2
v -27 43 -0
v -27 55 2
v -27 55 -0
v -23 43 2
v -23 43 -0
v -23 55 2
v -23 55 -0
v -19 43 2
v -19 43 -0
v -19 55 2
v -19 55 -0
v -15 43 2
v -15 43 -0
v -15 55 2
v -15 55 -0
v -11 43 2
v -11 43 -0
v -11 55 2
v -11 55 -0
v -7 43 2
v -7 43 -0
v -7 55 2
v -7 55 -0
v 4 43 2
v 4 43 -0
v 4 55 2
v 4 55 -0
v 8 43 2
v 8 43 -0
v 8 55 2
v 8 55 -0
v 12 43 2
v 12 43 -0
v 12 55 2
v 12 55 -0
v 16 43 2
v 16 43 -0
v 16 55 2
v 16 55 -0
v 20 43 2
v 20 43 -0
v 20 55 2
v 20 55 -0
v 24 43 2
v 24 43 -0
v 24 55 2
v 24 55 -0
v 28 43 2
v 28 43 -0
v 28 55 2
v 28 55 -0
v 33 0 4
v 33 0 -1
v 33 1 4
v 33 1 3
v 33 1 2
v 33 1 1
v 33 1 -0
v 33 1 -1
v 33 2 3
v 33 2 2
v 33 41 3
v 33 41 1
v 33 41 -0
v 33 41 -1
v 33 43 3
v 33 43 2
v 33 43 -0
v 33 43 -1
v 33 55 4
v 33 55 2
v 33 55 -0
v 33 55 -1
v 33 64 4
v 33 64 -1
v -33 0 4
v -33 1 4
v -33 55 4
v -33 64 4
v 33 0 4
v 33 1 4
v 33 55 4
v 33 64 4
v -33 1 3
v -33 2 3
v -33 41 3
v -33 43 3
v 33 1 3
v 33 2 3
v 33 41 3
v 33 43 3
v -33 43 2
v -33 55 2
v -31 43 2
v -31 55 2
v -28 43 2
v -28 55 2
v -27 43 2
v -27 55 2
v -24 43 2
v -24 55 2
v -23 43 2
v -23 55 2
v -20 43 2
v -20 55 2
v -19 43 2
v -19 55 2
v -16 43 2
v -16 55 2
v -15 43 2
v -15 55 2
v -12 43 2
v -12 55 2
v -11 43 2
v -11 55 2
v -8 43 2
v -8 55 2
v -7 43 2
v -7 55 2
v -4 43 2
v -4 55 2
v 4 43 2
v 4 55 2
v 7 43 2
v 7 55 2
v 8 43 2
v 8 55 2
v 11 43 2
v 11 55 2
v 12 43 2
v 12 55 2
v 15 43 2
v 15 55 2
v 16 43 2
v 16 55 2
v 19 43 2
v 19 55 2
v 20 43 2
v 20 55 2
v 23 43 2
v 23 55 2
v 24 43 2
v 24 55 2
v 27 43 2
v 27 55 2
v 28 43 2
v 28 55 2
v 31 43 2
v 31 55 2
v 33 43 2
v 33 55 2
v -33 1 1
v -33 41 1
v -31 2 1
v -31 41 1
v 31 2 1
v 31 41 1
v 33 1 1
v 33 41 1
v -33 1 2
v -33 2 2
v 33 1 2
v 33 2 2
v -33 1 -0
v -33 41 -0
v -33 43 -0
v -33 55 -0
v -31 2 -0
v -31 41 -0
v -31 43 -0
v -31 55 -0
v -28 43 -0
v -28 55 -0
v -27 43 -0
v -27 55 -0
v -24 43 -0
v -24 55 -0
v -23 43 -0
v -23 55 -0
v -20 43 -0
v -20 55 -0
v -19 43 -0
v -19 55 -0
v -16 43 -0
v -16 55 -0
v -15 43 -0
v -15 55 -0
v -12 43 -0
v -12 55 -0
v -11 43 -0
v -11 55 -0
v -8 43 -0
v -8 55 -0
v -7 43 -0
v -7 55 -0
v -4 43 -0
v -4 55 -0
v 4 43 -0
v 4 55 -0
v 7 43 -0
v 7 55 -0
v 8 43 -0
v 8 55 -0
v 11 43 -0
v 11 55 -0
v 12 43 -0
v 12 55 -0
v 15 43 -0
v 15 55 -0
v 16 43 -0
v 16 55 -0
v 19 43 -0
v 19 55 -0
v 20 43 -0
v 20 55 -0
v 23 43 -0
v 23 55 -0
v 24 43 -0
v 24 55 -0
v 27 43 -0
v 27 55 -0
v 28 43 -0
v 28 55 -0
v 31 2 -0
v 31 41 -0
v 31 43 -0
v 31 55 -0
v 33 1 -0
v 33 41 -0
v 33 43 -0
v 33 55 -0
v -33 0 -1
v -33 1 -1
v -33 41 -1
v -33 43 -1
v -33 55 -1
v -33 64 -1
v 33 0 -1
v 33 1 -1
v 33 41 -1
v 33 43 -1
v 33 55 -1
v 33 64 -1
v -33 0 4
v 33 0 4
v -33 0 -1
v 33 0 -1
v -33 41 3
v 33 41 3
v -33 41 1
v -31 41 1
v 31 41 1
v 33 41 1
v -33 41 -0
v -31 41 -0
v 31 41 -0
v 33 41 -0
v -33 41 -1
v 33 41 -1
v -33 55 4
v 33 55 4
v -33 55 2
v -31 55 2
v -28 55 2
v -27 55 2
v -24 55 2
v -23 55 2
v -20 55 2
v -19 55 2
v -16 55 2
v -15 55 2
v -12 55 2
v -11 55 2
v -8 55 2
v -7 55 2
v -4 55 2
v 4 55 2
v 7 55 2
v 8 55 2
v 11 55 2
v 12 55 2
v 15 55 2
v 16 55 2
v 19 55 2
v 20 55 2
v 23 55 2
v 24 55 2
v 27 55 2
v 28 55 2
v 31 55 2
v 33 55 2
v -33 55 -0
v -31 55 -0
v -28 55 -0
v -27 55 -0
v -24 55 -0
v -23 55 -0
v -20 55 -0
v -19 55 -0
v -16 55 -0
v -15 55 -0
v -12 55 -0
v -11 55 -0
v -8 55 -0
v -7 55 -0
v -4 55 -0
v 4 55 -0
v 7 55 -0
v 8 55 -0
v 11 55 -0
v 12 55 -0
v 15 55 -0
v 16 55 -0
v 19 55 -0
v 20 55 -0
v 23 55 -0
v 24 55 -0
v 27 55 -0
v 28 55 -0
v 31 55 -0
v 33 55 -0
v -33 55 -1
v 33 55 -1
v -33 1 4
v 33 1 4
v -33 1 3
v 33 1 3
v -33 1 2
v 33 1 2
v -33 1 1
v 33 1 1
v -33 1 -0
v 33 1 -0
v -33 1 -1
v 33 1 -1
v -33 2 3
v 33 2 3
v -33 2 2
v 33 2 2
v -31 2 1
v 31 2 1
v -31 2 -0
v 31 2 -0
v -33 43 3
v 33 43 3
v -33 43 2
v -31 43 2
v -28 43 2
v -27 43 2
v -24 43 2
v -23 43 2
v -20 43 2
v -19 43 2
v -16 43 2
v -15 43 2
v -12 43 2
v -11 43 2
v -8 43 2
v -7 43 2
v -4 43 2
v 4 43 2
v 7 43 2
v 8 43 2
v 11 43 2
v 12 43 2
v 15 43 2
v 16 43 2
v 19 43 2
v 20 43 2
v 23 43 2
v 24 43 2
v 27 43 2
v 28 43 2
v 31 43 2
v 33 43 2
v -33 43 -0
v -31 43 -0
v -28 43 -0
v -27 43 -0
v -24 43 -0
v -23 43 -0
v -20 43 -0
v -19 43 -0
v -16 43 -0
v -15 43 -0
v -12 43 -0
v -11 43 -0
v -8 43 -0
v -7 43 -0
v -4 43 -0
v 4 43 -0
v 7 43 -0
v 8 43 -0
v 11 43 -0
v 12 43 -0
v 15 43 -0
v 16 43 -0
v 19 43 -0
v 20 43 -0
v 23 43 -0
v 24 43 -0
v 27 43 -0
v 28 43 -0
v 31 43 -0
v 33 43 -0
v -33 43 -1
v 33 43 -1
v -33 64 4
v 33 64 4
v -33 64 -1
v 33 64 -1

# faces
f 3/2/1 2/2/1 1/2/1
f 4/2/1 2/2/1 3/2/1
f 5/2/1 2/2/1 4/2/1
f 6/2/1 2/2/1 5/2/1
f 7/2/1 2/2/1 6/2/1
f 8/2/1 2/2/1 7/2/1
f 9/1/1 5/1/1 4/1/1
f 10/1/1 5/1/1 9/1/1
f 12/1/1 7/1/1 6/1/1
f 13/1/1 7/1/1 12/1/1
f 15/2/1 12/2/1 11/2/1
f 15/2/1 14/2/1 13/2/1
f 15/2/1 13/2/1 12/2/1
f 16/2/1 14/2/1 15/2/1
f 17/2/1 14/2/1 16/2/1
f 18/2/1 14/2/1 17/2/1
f 20/1/1 17/1/1 16/1/1
f 21/1/1 17/1/1 20/1/1
f 23/2/1 20/2/1 19/2/1
f 23/2/1 22/2/1 21/2/1
f 23/2/1 21/2/1 20/2/1
f 24/2/1 22/2/1 23/2/1
f 27/1/1 26/1/1 25/1/1
f 28/1/1 26/1/1 27/1/1
f 31/1/1 30/1/1 29/1/1
f 32/1/1 30/1/1 31/1/1
f 35/1/1 34/1/1 33/1/1
f 36/1/1 34/1/1 35/1/1
f 39/1/1 38/1/1 37/1/1
f 40/1/1 38/1/1 39/1/1
f 43/1/1 42/1/1 41/1/1
f 44/1/1 42/1/1 43/1/1
f 47/1/1 46/1/1 45/1/1
f 48/1/1 46/1/1 47/1/1
f 51/1/1 50/1/1 49/1/1
f 52/1/1 50/1/1 51/1/1
f 55/1/1 54/1/1 53/1/1
f 56/1/1 54/1/1 55/1/1
f 59/1/1 58/1/1 57/1/1
f 60/1/1 58/1/1 59/1/1
f 63/1/1 62/1/1 61/1/1
f 64/1/1 62/1/1 63/1/1
f 67/1/1 66/1/1 65/1/1
f 68/1/1 66/1/1 67/1/1
f 71/1/1 70/1/1 69/1/1
f 72/1/1 70/1/1 71/1/1
f 75/1/1 74/1/1 73/1/1
f 76/1/1 74/1/1 75/1/1
f 79/1/1 78/1/1 77/1/1
f 80/1/1 78/1/1 79/1/1
f 83/1/1 82/1/1 81/1/1
f 84/1/1 82/1/1 83/1/1
f 85/1/2 86/1/2 87/1/2
f 87/1/2 86/1/2 88/1/2
f 89/1/2 90/1/2 91/1/2
f 91/1/2 90/1/2 92/1/2
f 93/1/2 94/1/2 95/1/2
f 95/1/2 94/1/2 96/1/2
f 97/1/2 98/1/2 99/1/2
f 99/1/2 98/1/2 100/1/2
f 101/1/2 102/1/2 103/1/2
f 103/1/2 102/1/2 104/1/2
f 105/1/2 106/1/2 107/1/2
f 107/1/2 106/1/2 108/1/2
f 109/1/2 110/1/2 111/1/2
f 111/1/2 110/1/2 112/1/2
f 113/1/2 114/1/2 115/1/2
f 115/1/2 114/1/2 116/1/2
f 117/1/2 118/1/2 119/1/2
f 119/1/2 118/1/2 120/1/2
f 121/1/2 122/1/2 123/1/2
f 123/1/2 122/1/2 124/1/2
f 125/1/2 126/1/2 127/1/2
f 127/1/2 126/1/2 128/1/2
f 129/1/2 130/1/2 131/1/2
f 131/1/2 130/1/2 132/1/2
f 133/1/2 134/1/2 135/1/2
f 135/1/2 134/1/2 136/1/2
f 137/1/2 138/1/2 139/1/2
f 139/1/2 138/1/2 140/1/2
f 141/1/2 142/1/2 143/1/2
f 143/1/2 142/1/2 144/1/2
f 145/2/2 146/2/2 147/2/2
f 147/2/2 146/2/2 148/2/2
f 148/2/2 146/2/2 149/2/2
f 149/2/2 146/2/2 150/2/2
f 150/2/2 146/2/2 151/2/2
f 151/2/2 146/2/2 152/2/2
f 148/1/2 149/1/2 153/1/2
f 153/1/2 149/1/2 154/1/2
f 150/1/2 151/1/2 156/1/2
f 156/1/2 151/1/2 157/1/2
f 155/2/2 156/2/2 159/2/2
f 157/2/2 158/2/2 159/2/2
f 156/2/2 157/2/2 159/2/2
f 159/2/2 158/2/2 160/2/2
f 160/2/2 158/2/2 161/2/2
f 161/2/2 158/2/2 162/2/2
f 160/1/2 161/1/2 164/1/2
f 164/1/2 161/1/2 165/1/2
f 163/2/2 164/2/2 167/2/2
f 165/2/2 166/2/2 167/2/2
f 164/2/2 165/2/2 167/2/2
f 167/2/2 166/2/2 168/2/2
f 173/2/3 170/2/3 169/2/3
f 174/2/3 170/2/3 173/2/3
f 175/2/3 172/2/3 171/2/3
f 176/2/3 172/2/3 175/2/3
f 181/1/3 178/1/3 177/1/3
f 182/1/3 178/1/3 181/1/3
f 183/2/3 180/2/3 179/2/3
f 184/2/3 180/2/3 183/2/3
f 187/1/3 186/1/3 185/1/3
f 188/1/3 186/1/3 187/1/3
f 191/1/3 190/1/3 189/1/3
f 192/1/3 190/1/3 191/1/3
f 195/1/3 194/1/3 193/1/3
f 196/1/3 194/1/3 195/1/3
f 199/1/3 198/1/3 197/1/3
f 200/1/3 198/1/3 199/1/3
f 203/1/3 202/1/3 201/1/3
f 204/1/3 202/1/3 203/1/3
f 207/1/3 206/1/3 205/1/3
f 208/1/3 206/1/3 207/1/3
f 211/1/3 210/1/3 209/1/3
f 212/1/3 210/1/3 211/1/3
f 215/1/3 214/1/3 213/1/3
f 216/1/3 214/1/3 215/1/3
f 219/1/3 218/1/3 217/1/3
f 220/1/3 218/1/3 219/1/3
f 223/1/3 222/1/3 221/1/3
f 224/1/3 222/1/3 223/1/3
f 227/1/3 226/1/3 225/1/3
f 228/1/3 226/1/3 227/1/3
f 231/1/3 230/1/3 229/1/3
f 232/1/3 230/1/3 231/1/3
f 235/1/3 234/1/3 233/1/3
f 236/1/3 234/1/3 235/1/3
f 239/1/3 238/1/3 237/1/3
f 240/1/3 238/1/3 239/1/3
f 243/1/3 242/1/3 241/1/3
f 244/1/3 242/1/3 243/1/3
f 247/1/3 246/1/3 245/1/3
f 248/1/3 246/1/3 247/1/3
f 249/1/3 247/1/3 245/1/3
f 251/1/3 249/1/3 245/1/3
f 251/1/3 250/1/3 249/1/3
f 252/1/3 250/1/3 251/1/3
f 253/1/4 254/1/4 255/1/4
f 255/1/4 254/1/4 256/1/4
f 257/1/4 258/1/4 261/1/4
f 261/1/4 258/1/4 262/1/4
f 259/1/4 260/1/4 263/1/4
f 263/1/4 260/1/4 264/1/4
f 265/1/4 266/1/4 267/1/4
f 267/1/4 266/1/4 268/1/4
f 269/1/4 270/1/4 271/1/4
f 271/1/4 270/1/4 272/1/4
f 273/1/4 274/1/4 275/1/4
f 275/1/4 274/1/4 276/1/4
f 277/1/4 278/1/4 279/1/4
f 279/1/4 278/1/4 280/1/4
f 281/1/4 282/1/4 283/1/4
f 283/1/4 282/1/4 284/1/4
f 285/1/4 286/1/4 287/1/4
f 287/1/4 286/1/4 288/1/4
f 289/1/4 290/1/4 291/1/4
f 291/1/4 290/1/4 292/1/4
f 293/1/4 294/1/4 295/1/4
f 295/1/4 294/1/4 296/1/4
f 297/1/4 298/1/4 299/1/4
f 299/1/4 298/1/4 300/1/4
f 301/1/4 302/1/4 303/1/4
f 303/1/4 302/1/4 304/1/4
f 305/1/4 306/1/4 307/1/4
f 307/1/4 306/1/4 308/1/4
f 309/1/4 310/1/4 311/1/4
f 311/1/4 310/1/4 312/1/4
f 313/1/4 314/1/4 315/1/4
f 315/1/4 314/1/4 316/1/4
f 257/1/4 261/1/4 317/1/4
f 257/1/4 317/1/4 321/1/4
f 317/1/4 318/1/4 321/1/4
f 321/1/4 318/1/4 322/1/4
f 319/1/4 320/1/4 323/1/4
f 323/1/4 320/1/4 324/1/4
f 325/2/4 326/2/4 331/2/4
f 331/2/4 326/2/4 332/2/4
f 327/2/4 328/2/4 333/2/4
f 333/2/4 328/2/4 334/2/4
f 329/2/4 330/2/4 335/2/4
f 335/2/4 330/2/4 336/2/4
f 339/2/5 338/2/5 337/2/5
f 340/2/5 338/2/5 339/2/5
f 343/2/5 342/2/5 341/2/5
f 344/2/5 342/2/5 343/2/5
f 345/2/5 342/2/5 344/2/5
f 346/2/5 342/2/5 345/2/5
f 348/2/5 345/2/5 344/2/5
f 349/2/5 345/2/5 348/2/5
f 351/2/5 348/2/5 347/2/5
f 351/2/5 350/2/5 349/2/5
f 351/2/5 349/2/5 348/2/5
f 352/2/5 350/2/5 351/2/5
f 355/2/5 354/2/5 353/2/5
f 356/2/5 354/2/5 355/2/5
f 357/2/5 354/2/5 356/2/5
f 358/2/5 354/2/5 357/2/5
f 359/2/5 354/2/5 358/2/5
f 360/2/5 354/2/5 359/2/5
f 361/2/5 354/2/5 360/2/5
f 362/2/5 354/2/5 361/2/5
f 363/2/5 354/2/5 362/2/5
f 364/2/5 354/2/5 363/2/5
f 365/2/5 354/2/5 364/2/5
f 366/2/5 354/2/5 365/2/5
f 367/2/5 354/2/5 366/2/5
f 368/2/5 354/2/5 367/2/5
f 369/2/5 354/2/5 368/2/5
f 370/2/5 354/2/5 369/2/5
f 371/2/5 354/2/5 370/2/5
f 372/2/5 354/2/5 371/2/5
f 373/2/5 354/2/5 372/2/5
f 374/2/5 354/2/5 373/2/5
f 375/2/5 354/2/5 374/2/5
f 376/2/5 354/2/5 375/2/5
f 377/2/5 354/2/5 376/2/5
f 378/2/5 354/2/5 377/2/5
f 379/2/5 354/2/5 378/2/5
f 380/2/5 354/2/5 379/2/5
f 381/2/5 354/2/5 380/2/5
f 382/2/5 354/2/5 381/2/5
f 383/2/5 354/2/5 382/2/5
f 384/2/5 354/2/5 383/2/5
f 386/2/5 357/2/5 356/2/5
f 387/2/5 357/2/5 386/2/5
f 388/2/5 359/2/5 358/2/5
f 389/2/5 359/2/5 388/2/5
f 390/2/5 361/2/5 360/2/5
f 391/2/5 361/2/5 390/2/5
f 392/2/5 363/2/5 362/2/5
f 393/2/5 363/2/5 392/2/5
f 394/2/5 365/2/5 364/2/5
f 395/2/5 365/2/5 394/2/5
f 396/2/5 367/2/5 366/2/5
f 397/2/5 367/2/5 396/2/5
f 398/2/5 369/2/5 368/2/5
f 399/2/5 369/2/5 398/2/5
f 400/2/5 371/2/5 370/2/5
f 401/2/5 371/2/5 400/2/5
f 402/2/5 373/2/5 372/2/5
f 403/2/5 373/2/5 402/2/5
f 404/2/5 375/2/5 374/2/5
f 405/2/5 375/2/5 404/2/5
f 406/2/5 377/2/5 376/2/5
f 407/2/5 377/2/5 406/2/5
f 408/2/5 379/2/5 378/2/5
f 409/2/5 379/2/5 408/2/5
f 410/2/5 381/2/5 380/2/5
f 411/2/5 381/2/5 410/2/5
f 412/2/5 383/2/5 382/2/5
f 413/2/5 383/2/5 412/2/5
f 415/2/5 399/2/5 398/2/5
f 415/2/5 414/2/5 413/2/5
f 415/2/5 413/2/5 412/2/5
f 415/2/5 412/2/5 411/2/5
f 415/2/5 411/2/5 410/2/5
f 415/2/5 410/2/5 409/2/5
f 415/2/5 387/2/5 386/2/5
f 415/2/5 408/2/5 407/2/5
f 415/2/5 409/2/5 408/2/5
f 415/2/5 406/2/5 405/2/5
f 415/2/5 389/2/5 388/2/5
f 415/2/5 404/2/5 403/2/5
f 415/2/5 407/2/5 406/2/5
f 415/2/5 402/2/5 401/2/5
f 415/2/5 391/2/5 390/2/5
f 415/2/5 400/2/5 399/2/5
f 415/2/5 405/2/5 404/2/5
f 415/2/5 398/2/5 397/2/5
f 415/2/5 393/2/5 392/2/5
f 415/2/5 396/2/5 395/2/5
f 415/2/5 403/2/5 402/2/5
f 415/2/5 394/2/5 393/2/5
f 415/2/5 395/2/5 394/2/5
f 415/2/5 392/2/5 391/2/5
f 415/2/5 401/2/5 400/2/5
f 415/2/5 390/2/5 389/2/5
f 415/2/5 397/2/5 396/2/5
f 415/2/5 388/2/5 387/2/5
f 415/2/5 386/2/5 385/2/5
f 416/2/5 414/2/5 415/2/5
f 417/2/6 418/2/6 419/2/6
f 419/2/6 418/2/6 420/2/6
f 421/2/6 422/2/6 423/2/6
f 423/2/6 422/2/6 424/2/6
f 425/2/6 426/2/6 427/2/6
f 427/2/6 426/2/6 428/2/6
f 429/1/6 430/1/6 431/1/6
f 431/1/6 430/1/6 432/1/6
f 433/1/6 434/1/6 435/1/6
f 435/1/6 434/1/6 436/1/6
f 437/2/6 438/2/6 439/2/6
f 439/2/6 438/2/6 440/2/6
f 440/2/6 438/2/6 441/2/6
f 441/2/6 438/2/6 442/2/6
f 442/2/6 438/2/6 443/2/6
f 443/2/6 438/2/6 444/2/6
f 444/2/6 438/2/6 445/2/6
f 445/2/6 438/2/6 446/2/6
f 446/2/6 438/2/6 447/2/6
f 447/2/6 438/2/6 448/2/6
f 448/2/6 438/2/6 449/2/6
f 449/2/6 438/2/6 450/2/6
f 450/2/6 438/2/6 451/2/6
f 451/2/6 438/2/6 452/2/6
f 452/2/6 438/2/6 453/2/6
f 453/2/6 438/2/6 454/2/6
f 454/2/6 438/2/6 455/2/6
f 455/2/6 438/2/6 456/2/6
f 456/2/6 438/2/6 457/2/6
f 457/2/6 438/2/6 458/2/6
f 458/2/6 438/2/6 459/2/6
f 459/2/6 438/2/6 460/2/6
f 460/2/6 438/2/6 461/2/6
f 461/2/6 438/2/6 462/2/6
f 462/2/6 438/2/6 463/2/6
f 463/2/6 438/2/6 464/2/6
f 464/2/6 438/2/6 465/2/6
f 465/2/6 438/2/6 466/2/6
f 466/2/6 438/2/6 467/2/6
f 467/2/6 438/2/6 468/2/6
f 440/2/6 441/2/6 470/2/6
f 470/2/6 441/2/6 471/2/6
f 442/2/6 443/2/6 472/2/6
f 472/2/6 443/2/6 473/2/6
f 444/2/6 445/2/6 474/2/6
f 474/2/6 445/2/6 475/2/6
f 446/2/6 447/2/6 476/2/6
f 476/2/6 447/2/6 477/2/6
f 448/2/6 449/2/6 478/2/6
f 478/2/6 449/2/6 479/2/6
f 450/2/6 451/2/6 480/2/6
f 480/2/6 451/2/6 481/2/6
f 452/2/6 453/2/6 482/2/6
f 482/2/6 453/2/6 483/2/6
f 454/2/6 455/2/6 484/2/6
f 484/2/6 455/2/6 485/2/6
f 456/2/6 457/2/6 486/2/6
f 486/2/6 457/2/6 487/2/6
f 458/2/6 459/2/6 488/2/6
f 488/2/6 459/2/6 489/2/6
f 460/2/6 461/2/6 490/2/6
f 490/2/6 461/2/6 491/2/6
f 462/2/6 463/2/6 492/2/6
f 492/2/6 463/2/6 493/2/6
f 464/2/6 465/2/6 494/2/6
f 494/2/6 465/2/6 495/2/6
f 466/2/6 467/2/6 496/2/6
f 496/2/6 467/2/6 497/2/6
f 482/2/6 483/2/6 499/2/6
f 497/2/6 498/2/6 499/2/6
f 496/2/6 497/2/6 499/2/6
f 495/2/6 496/2/6 499/2/6
f 494/2/6 495/2/6 499/2/6
f 493/2/6 494/2/6 499/2/6
f 470/2/6 471/2/6 499/2/6
f 491/2/6 492/2/6 499/2/6
f 492/2/6 493/2/6 499/2/6
f 489/2/6 490/2/6 499/2/6
f 472/2/6 473/2/6 499/2/6
f 487/2/6 488/2/6 499/2/6
f 490/2/6 491/2/6 499/2/6
f 485/2/6 486/2/6 499/2/6
f 474/2/6 475/2/6 499/2/6
f 483/2/6 484/2/6 499/2/6
f 488/2/6 489/2/6 499/2/6
f 481/2/6 482/2/6 499/2/6
f 476/2/6 477/2/6 499/2/6
f 479/2/6 480/2/6 499/2/6
f 486/2/6 487/2/6 499/2/6
f 477/2/6 478/2/6 499/2/6
f 478/2/6 479/2/6 499/2/6
f 475/2/6 476/2/6 499/2/6
f 484/2/6 485/2/6 499/2/6
f 473/2/6 474/2/6 499/2/6
f 480/2/6 481/2/6 499/2/6
f 471/2/6 472/2/6 499/2/6
f 469/2/6 470/2/6 499/2/6
f 499/2/6 498/2/6 500/2/6
f 501/2/6 502/2/6 503/2/6
f 503/2/6 502/2/6 504/2/6
