# MagicaVoxel @ Ephtracy

# group
g WallHole2_Nick

# material
mtllib WallHole2_Nick.mtl
usemtl palette

# normals
vn -1 0 0
vn 1 0 0
vn 0 0 1
vn 0 0 -1
vn 0 -1 0
vn 0 1 0

# texcoords
vt 0.376953 0.5
vt 0.380859 0.5
vt 0.384766 0.5
vt 0.388672 0.5

# verts
v -32 0 4
v -32 0 -4
v -32 1 4
v -32 1 3
v -32 2 4
v -32 2 3
v -32 2 -3
v -32 2 -4
v -32 4 -3
v -32 4 -4
v -32 7 4
v -32 7 3
v -32 8 4
v -32 8 3
v -32 17 4
v -32 17 3
v -32 18 4
v -32 18 3
v -32 23 4
v -32 23 3
v -32 24 4
v -32 24 3
v -32 33 4
v -32 33 3
v -32 34 4
v -32 34 3
v -32 39 4
v -32 39 3
v -32 40 4
v -32 40 3
v -32 48 4
v -32 48 -4
v 16 0 4
v 16 0 -4
v 16 1 4
v 16 1 3
v 16 2 4
v 16 2 3
v 16 2 -3
v 16 2 -4
v 16 4 -3
v 16 4 -4
v 16 7 4
v 16 7 3
v 16 8 4
v 16 8 3
v 16 17 4
v 16 17 3
v 16 18 4
v 16 18 3
v 16 23 4
v 16 23 3
v 16 24 4
v 16 24 3
v 16 33 4
v 16 33 3
v 16 34 4
v 16 34 3
v 16 39 4
v 16 39 3
v 16 40 4
v 16 40 3
v 16 40 -4
v -16 0 4
v -16 0 -4
v -16 1 4
v -16 1 3
v -16 2 -3
v -16 2 -4
v -16 4 -3
v -16 4 -4
v -16 7 4
v -16 7 3
v -16 8 4
v -16 8 3
v -16 9 4
v -16 9 3
v -16 13 4
v -16 13 3
v -16 16 4
v -16 16 3
v -16 17 4
v -16 17 3
v -16 23 4
v -16 23 3
v -16 24 4
v -16 24 3
v -16 25 4
v -16 25 3
v -16 29 4
v -16 29 3
v -16 32 4
v -16 32 3
v -16 33 4
v -16 33 3
v -16 39 4
v -16 39 3
v -16 40 4
v -16 40 3
v -16 40 -4
v 32 0 4
v 32 0 -4
v 32 1 4
v 32 1 3
v 32 2 -3
v 32 2 -4
v 32 4 -3
v 32 4 -4
v 32 7 4
v 32 7 3
v 32 8 4
v 32 8 3
v 32 9 4
v 32 9 3
v 32 13 4
v 32 13 3
v 32 16 4
v 32 16 3
v 32 17 4
v 32 17 3
v 32 23 4
v 32 23 3
v 32 24 4
v 32 24 3
v 32 25 4
v 32 25 3
v 32 29 4
v 32 29 3
v 32 32 4
v 32 32 3
v 32 33 4
v 32 33 3
v 32 39 4
v 32 39 3
v 32 40 4
v 32 40 3
v 32 41 4
v 32 41 3
v 32 45 4
v 32 45 3
v 32 48 4
v 32 48 3
v 32 48 -4
v -32 0 4
v -32 1 4
v -32 2 4
v -32 7 4
v -32 8 4
v -32 17 4
v -32 18 4
v -32 23 4
v -32 24 4
v -32 33 4
v -32 34 4
v -32 39 4
v -32 40 4
v -32 48 4
v -31 7 4
v -31 8 4
v -31 9 4
v -31 12 4
v -31 16 4
v -31 23 4
v -31 24 4
v -31 25 4
v -31 28 4
v -31 32 4
v -31 39 4
v -31 40 4
v -31 41 4
v -31 44 4
v -31 48 4
v -30 12 4
v -30 15 4
v -30 28 4
v -30 31 4
v -30 44 4
v -30 47 4
v -25 2 4
v -25 5 4
v -25 18 4
v -25 21 4
v -25 34 4
v -25 37 4
v -24 1 4
v -24 5 4
v -24 8 4
v -24 9 4
v -24 10 4
v -24 17 4
v -24 21 4
v -24 24 4
v -24 25 4
v -24 26 4
v -24 33 4
v -24 37 4
v -24 40 4
v -24 41 4
v -24 42 4
v -23 1 4
v -23 4 4
v -23 8 4
v -23 15 4
v -23 16 4
v -23 17 4
v -23 20 4
v -23 24 4
v -23 31 4
v -23 32 4
v -23 33 4
v -23 36 4
v -23 40 4
v -23 47 4
v -23 48 4
v -22 4 4
v -22 7 4
v -22 20 4
v -22 23 4
v -22 36 4
v -22 39 4
v -17 10 4
v -17 13 4
v -17 26 4
v -17 29 4
v -17 42 4
v -17 45 4
v -16 0 4
v -16 1 4
v -16 7 4
v -16 8 4
v -16 9 4
v -16 13 4
v -16 16 4
v -16 17 4
v -16 23 4
v -16 24 4
v -16 25 4
v -16 29 4
v -16 32 4
v -16 33 4
v -16 39 4
v -16 40 4
v -16 41 4
v -16 45 4
v -16 48 4
v -15 41 4
v -15 44 4
v -15 48 4
v -14 44 4
v -14 47 4
v -8 41 4
v -8 42 4
v -7 47 4
v -7 48 4
v -1 42 4
v -1 45 4
v 0 41 4
v 0 45 4
v 0 48 4
v 1 41 4
v 1 44 4
v 1 48 4
v 2 44 4
v 2 47 4
v 8 41 4
v 8 42 4
v 9 47 4
v 9 48 4
v 15 42 4
v 15 45 4
v 16 0 4
v 16 1 4
v 16 2 4
v 16 7 4
v 16 8 4
v 16 17 4
v 16 18 4
v 16 23 4
v 16 24 4
v 16 33 4
v 16 34 4
v 16 39 4
v 16 40 4
v 16 41 4
v 16 45 4
v 16 48 4
v 17 7 4
v 17 8 4
v 17 9 4
v 17 12 4
v 17 16 4
v 17 23 4
v 17 24 4
v 17 25 4
v 17 28 4
v 17 32 4
v 17 39 4
v 17 40 4
v 17 41 4
v 17 44 4
v 17 48 4
v 18 12 4
v 18 15 4
v 18 28 4
v 18 31 4
v 18 44 4
v 18 47 4
v 23 2 4
v 23 5 4
v 23 18 4
v 23 21 4
v 23 34 4
v 23 37 4
v 24 1 4
v 24 5 4
v 24 8 4
v 24 9 4
v 24 10 4
v 24 17 4
v 24 21 4
v 24 24 4
v 24 25 4
v 24 26 4
v 24 33 4
v 24 37 4
v 24 40 4
v 24 41 4
v 24 42 4
v 25 1 4
v 25 4 4
v 25 8 4
v 25 15 4
v 25 16 4
v 25 17 4
v 25 20 4
v 25 24 4
v 25 31 4
v 25 32 4
v 25 33 4
v 25 36 4
v 25 40 4
v 25 47 4
v 25 48 4
v 26 4 4
v 26 7 4
v 26 20 4
v 26 23 4
v 26 36 4
v 26 39 4
v 31 10 4
v 31 13 4
v 31 26 4
v 31 29 4
v 31 42 4
v 31 45 4
v 32 0 4
v 32 1 4
v 32 7 4
v 32 8 4
v 32 9 4
v 32 13 4
v 32 16 4
v 32 17 4
v 32 23 4
v 32 24 4
v 32 25 4
v 32 29 4
v 32 32 4
v 32 33 4
v 32 39 4
v 32 40 4
v 32 41 4
v 32 45 4
v 32 48 4
v -32 0 -4
v -32 2 -4
v -32 4 -4
v -32 48 -4
v -25 2 -4
v -25 4 -4
v -23 2 -4
v -23 4 -4
v -17 2 -4
v -17 4 -4
v -16 0 -4
v -16 2 -4
v -16 4 -4
v -16 40 -4
v 16 0 -4
v 16 2 -4
v 16 4 -4
v 16 40 -4
v 23 2 -4
v 23 4 -4
v 25 2 -4
v 25 4 -4
v 31 2 -4
v 31 4 -4
v 32 0 -4
v 32 2 -4
v 32 4 -4
v 32 48 -4
v -32 0 4
v -16 0 4
v 16 0 4
v 32 0 4
v -32 0 -4
v -16 0 -4
v 16 0 -4
v 32 0 -4
v -16 40 4
v 16 40 4
v -16 40 3
v 16 40 3
v -16 40 -4
v 16 40 -4
v -32 48 4
v -31 48 4
v -23 48 4
v -16 48 4
v -15 48 4
v -7 48 4
v 0 48 4
v 1 48 4
v 9 48 4
v 16 48 4
v 17 48 4
v 25 48 4
v 32 48 4
v -31 48 3
v -23 48 3
v -16 48 3
v -15 48 3
v -7 48 3
v 0 48 3
v 1 48 3
v 9 48 3
v 16 48 3
v 17 48 3
v 25 48 3
v 32 48 3
v -32 48 -4
v 32 48 -4

# faces
f 3/2/1 2/2/1 1/2/1
f 4/2/1 2/2/1 3/2/1
f 5/4/1 4/4/1 3/4/1
f 6/2/1 2/2/1 4/2/1
f 6/4/1 4/4/1 5/4/1
f 7/2/1 2/2/1 6/2/1
f 8/2/1 2/2/1 7/2/1
f 9/2/1 7/2/1 6/2/1
f 9/4/1 8/4/1 7/4/1
f 10/4/1 8/4/1 9/4/1
f 11/3/1 6/3/1 5/3/1
f 12/2/1 9/2/1 6/2/1
f 12/3/1 6/3/1 11/3/1
f 12/2/1 10/2/1 9/2/1
f 13/1/1 12/1/1 11/1/1
f 14/2/1 10/2/1 12/2/1
f 14/1/1 12/1/1 13/1/1
f 15/2/1 14/2/1 13/2/1
f 16/2/1 10/2/1 14/2/1
f 16/2/1 14/2/1 15/2/1
f 17/4/1 16/4/1 15/4/1
f 18/2/1 10/2/1 16/2/1
f 18/4/1 16/4/1 17/4/1
f 19/3/1 18/3/1 17/3/1
f 20/2/1 10/2/1 18/2/1
f 20/3/1 18/3/1 19/3/1
f 21/1/1 20/1/1 19/1/1
f 22/2/1 10/2/1 20/2/1
f 22/1/1 20/1/1 21/1/1
f 23/2/1 22/2/1 21/2/1
f 24/2/1 10/2/1 22/2/1
f 24/2/1 22/2/1 23/2/1
f 25/4/1 24/4/1 23/4/1
f 26/2/1 10/2/1 24/2/1
f 26/4/1 24/4/1 25/4/1
f 27/3/1 26/3/1 25/3/1
f 28/2/1 10/2/1 26/2/1
f 28/3/1 26/3/1 27/3/1
f 29/1/1 28/1/1 27/1/1
f 30/2/1 10/2/1 28/2/1
f 30/1/1 28/1/1 29/1/1
f 31/2/1 30/2/1 29/2/1
f 32/2/1 10/2/1 30/2/1
f 32/2/1 30/2/1 31/2/1
f 35/2/1 34/2/1 33/2/1
f 36/2/1 34/2/1 35/2/1
f 37/4/1 36/4/1 35/4/1
f 38/2/1 34/2/1 36/2/1
f 38/4/1 36/4/1 37/4/1
f 39/2/1 34/2/1 38/2/1
f 40/2/1 34/2/1 39/2/1
f 41/2/1 39/2/1 38/2/1
f 41/4/1 40/4/1 39/4/1
f 42/4/1 40/4/1 41/4/1
f 43/3/1 38/3/1 37/3/1
f 44/2/1 41/2/1 38/2/1
f 44/3/1 38/3/1 43/3/1
f 44/2/1 42/2/1 41/2/1
f 45/1/1 44/1/1 43/1/1
f 46/2/1 42/2/1 44/2/1
f 46/1/1 44/1/1 45/1/1
f 47/2/1 46/2/1 45/2/1
f 48/2/1 42/2/1 46/2/1
f 48/2/1 46/2/1 47/2/1
f 49/4/1 48/4/1 47/4/1
f 50/2/1 42/2/1 48/2/1
f 50/4/1 48/4/1 49/4/1
f 51/3/1 50/3/1 49/3/1
f 52/2/1 42/2/1 50/2/1
f 52/3/1 50/3/1 51/3/1
f 53/1/1 52/1/1 51/1/1
f 54/2/1 42/2/1 52/2/1
f 54/1/1 52/1/1 53/1/1
f 55/2/1 54/2/1 53/2/1
f 56/2/1 42/2/1 54/2/1
f 56/2/1 54/2/1 55/2/1
f 57/4/1 56/4/1 55/4/1
f 58/2/1 42/2/1 56/2/1
f 58/4/1 56/4/1 57/4/1
f 59/3/1 58/3/1 57/3/1
f 60/2/1 42/2/1 58/2/1
f 60/3/1 58/3/1 59/3/1
f 61/1/1 60/1/1 59/1/1
f 62/2/1 42/2/1 60/2/1
f 62/1/1 60/1/1 61/1/1
f 63/2/1 42/2/1 62/2/1
f 64/2/2 65/2/2 66/2/2
f 66/2/2 65/2/2 67/2/2
f 67/2/2 65/2/2 68/2/2
f 68/2/2 65/2/2 69/2/2
f 67/2/2 68/2/2 70/2/2
f 68/4/2 69/4/2 70/4/2
f 70/4/2 69/4/2 71/4/2
f 66/3/2 67/3/2 72/3/2
f 67/2/2 70/2/2 73/2/2
f 72/3/2 67/3/2 73/3/2
f 70/2/2 71/2/2 73/2/2
f 72/1/2 73/1/2 74/1/2
f 73/2/2 71/2/2 75/2/2
f 74/1/2 73/1/2 75/1/2
f 74/2/2 75/2/2 76/2/2
f 75/2/2 71/2/2 77/2/2
f 76/2/2 75/2/2 77/2/2
f 76/4/2 77/4/2 78/4/2
f 77/2/2 71/2/2 79/2/2
f 78/4/2 77/4/2 79/4/2
f 78/3/2 79/3/2 80/3/2
f 79/2/2 71/2/2 81/2/2
f 80/3/2 79/3/2 81/3/2
f 80/2/2 81/2/2 82/2/2
f 81/2/2 71/2/2 83/2/2
f 82/2/2 81/2/2 83/2/2
f 82/3/2 83/3/2 84/3/2
f 83/2/2 71/2/2 85/2/2
f 84/3/2 83/3/2 85/3/2
f 84/1/2 85/1/2 86/1/2
f 85/2/2 71/2/2 87/2/2
f 86/1/2 85/1/2 87/1/2
f 86/2/2 87/2/2 88/2/2
f 87/2/2 71/2/2 89/2/2
f 88/2/2 87/2/2 89/2/2
f 88/4/2 89/4/2 90/4/2
f 89/2/2 71/2/2 91/2/2
f 90/4/2 89/4/2 91/4/2
f 90/3/2 91/3/2 92/3/2
f 91/2/2 71/2/2 93/2/2
f 92/3/2 91/3/2 93/3/2
f 92/2/2 93/2/2 94/2/2
f 93/2/2 71/2/2 95/2/2
f 94/2/2 93/2/2 95/2/2
f 94/3/2 95/3/2 96/3/2
f 95/2/2 71/2/2 97/2/2
f 96/3/2 95/3/2 97/3/2
f 96/1/2 97/1/2 98/1/2
f 97/2/2 71/2/2 99/2/2
f 98/1/2 97/1/2 99/1/2
f 99/2/2 71/2/2 100/2/2
f 101/2/2 102/2/2 103/2/2
f 103/2/2 102/2/2 104/2/2
f 104/2/2 102/2/2 105/2/2
f 105/2/2 102/2/2 106/2/2
f 104/2/2 105/2/2 107/2/2
f 105/4/2 106/4/2 107/4/2
f 107/4/2 106/4/2 108/4/2
f 103/3/2 104/3/2 109/3/2
f 104/2/2 107/2/2 110/2/2
f 109/3/2 104/3/2 110/3/2
f 107/2/2 108/2/2 110/2/2
f 109/1/2 110/1/2 111/1/2
f 110/2/2 108/2/2 112/2/2
f 111/1/2 110/1/2 112/1/2
f 111/2/2 112/2/2 113/2/2
f 112/2/2 108/2/2 114/2/2
f 113/2/2 112/2/2 114/2/2
f 113/4/2 114/4/2 115/4/2
f 114/2/2 108/2/2 116/2/2
f 115/4/2 114/4/2 116/4/2
f 115/3/2 116/3/2 117/3/2
f 116/2/2 108/2/2 118/2/2
f 117/3/2 116/3/2 118/3/2
f 117/2/2 118/2/2 119/2/2
f 118/2/2 108/2/2 120/2/2
f 119/2/2 118/2/2 120/2/2
f 119/3/2 120/3/2 121/3/2
f 120/2/2 108/2/2 122/2/2
f 121/3/2 120/3/2 122/3/2
f 121/1/2 122/1/2 123/1/2
f 122/2/2 108/2/2 124/2/2
f 123/1/2 122/1/2 124/1/2
f 123/2/2 124/2/2 125/2/2
f 124/2/2 108/2/2 126/2/2
f 125/2/2 124/2/2 126/2/2
f 125/4/2 126/4/2 127/4/2
f 126/2/2 108/2/2 128/2/2
f 127/4/2 126/4/2 128/4/2
f 127/3/2 128/3/2 129/3/2
f 128/2/2 108/2/2 130/2/2
f 129/3/2 128/3/2 130/3/2
f 129/2/2 130/2/2 131/2/2
f 130/2/2 108/2/2 132/2/2
f 131/2/2 130/2/2 132/2/2
f 131/3/2 132/3/2 133/3/2
f 132/2/2 108/2/2 134/2/2
f 133/3/2 132/3/2 134/3/2
f 133/1/2 134/1/2 135/1/2
f 134/2/2 108/2/2 136/2/2
f 135/1/2 134/1/2 136/1/2
f 135/2/2 136/2/2 137/2/2
f 136/2/2 108/2/2 138/2/2
f 137/2/2 136/2/2 138/2/2
f 137/4/2 138/4/2 139/4/2
f 138/2/2 108/2/2 140/2/2
f 139/4/2 138/4/2 140/4/2
f 139/3/2 140/3/2 141/3/2
f 140/2/2 108/2/2 142/2/2
f 141/3/2 140/3/2 142/3/2
f 142/2/2 108/2/2 143/2/2
f 158/3/3 147/3/3 146/3/3
f 158/1/3 148/1/3 147/1/3
f 159/2/3 149/2/3 148/2/3
f 159/1/3 148/1/3 158/1/3
f 160/2/3 149/2/3 159/2/3
f 161/2/3 149/2/3 160/2/3
f 162/2/3 149/2/3 161/2/3
f 163/3/3 151/3/3 150/3/3
f 163/1/3 152/1/3 151/1/3
f 164/2/3 153/2/3 152/2/3
f 164/1/3 152/1/3 163/1/3
f 165/2/3 153/2/3 164/2/3
f 166/2/3 153/2/3 165/2/3
f 167/2/3 153/2/3 166/2/3
f 168/1/3 156/1/3 155/1/3
f 168/3/3 155/3/3 154/3/3
f 169/2/3 157/2/3 156/2/3
f 169/1/3 156/1/3 168/1/3
f 170/2/3 157/2/3 169/2/3
f 171/2/3 157/2/3 170/2/3
f 172/2/3 157/2/3 171/2/3
f 173/1/3 162/1/3 161/1/3
f 173/3/3 161/3/3 160/3/3
f 174/1/3 162/1/3 173/1/3
f 175/1/3 167/1/3 166/1/3
f 175/3/3 166/3/3 165/3/3
f 176/1/3 167/1/3 175/1/3
f 177/1/3 172/1/3 171/1/3
f 177/3/3 171/3/3 170/3/3
f 178/1/3 172/1/3 177/1/3
f 179/4/3 146/4/3 145/4/3
f 179/3/3 158/3/3 146/3/3
f 179/3/3 159/3/3 158/3/3
f 180/3/3 159/3/3 179/3/3
f 181/4/3 150/4/3 149/4/3
f 181/3/3 163/3/3 150/3/3
f 181/3/3 164/3/3 163/3/3
f 182/3/3 164/3/3 181/3/3
f 183/3/3 168/3/3 154/3/3
f 183/4/3 154/4/3 153/4/3
f 183/3/3 169/3/3 168/3/3
f 184/3/3 169/3/3 183/3/3
f 185/2/3 145/2/3 144/2/3
f 185/4/3 180/4/3 179/4/3
f 185/4/3 179/4/3 145/4/3
f 186/3/3 159/3/3 180/3/3
f 186/4/3 180/4/3 185/4/3
f 187/2/3 160/2/3 159/2/3
f 187/3/3 159/3/3 186/3/3
f 188/3/3 174/3/3 173/3/3
f 188/2/3 160/2/3 187/2/3
f 188/3/3 173/3/3 160/3/3
f 189/3/3 174/3/3 188/3/3
f 190/2/3 149/2/3 162/2/3
f 190/4/3 182/4/3 181/4/3
f 190/4/3 181/4/3 149/4/3
f 191/3/3 164/3/3 182/3/3
f 191/4/3 182/4/3 190/4/3
f 192/2/3 165/2/3 164/2/3
f 192/3/3 164/3/3 191/3/3
f 193/3/3 176/3/3 175/3/3
f 193/2/3 165/2/3 192/2/3
f 193/3/3 175/3/3 165/3/3
f 194/3/3 176/3/3 193/3/3
f 195/2/3 153/2/3 167/2/3
f 195/4/3 184/4/3 183/4/3
f 195/4/3 183/4/3 153/4/3
f 196/3/3 169/3/3 184/3/3
f 196/4/3 184/4/3 195/4/3
f 197/2/3 170/2/3 169/2/3
f 197/3/3 169/3/3 196/3/3
f 198/3/3 178/3/3 177/3/3
f 198/2/3 170/2/3 197/2/3
f 198/3/3 177/3/3 170/3/3
f 199/3/3 178/3/3 198/3/3
f 200/2/3 185/2/3 144/2/3
f 200/2/3 186/2/3 185/2/3
f 200/2/3 187/2/3 186/2/3
f 200/2/3 188/2/3 187/2/3
f 201/2/3 188/2/3 200/2/3
f 202/2/3 188/2/3 201/2/3
f 203/3/3 174/3/3 189/3/3
f 203/1/3 162/1/3 174/1/3
f 204/2/3 190/2/3 162/2/3
f 204/1/3 162/1/3 203/1/3
f 204/2/3 192/2/3 191/2/3
f 204/2/3 193/2/3 192/2/3
f 204/2/3 191/2/3 190/2/3
f 205/2/3 193/2/3 204/2/3
f 206/2/3 193/2/3 205/2/3
f 207/2/3 193/2/3 206/2/3
f 208/3/3 176/3/3 194/3/3
f 208/1/3 167/1/3 176/1/3
f 209/2/3 195/2/3 167/2/3
f 209/1/3 167/1/3 208/1/3
f 209/2/3 197/2/3 196/2/3
f 209/2/3 196/2/3 195/2/3
f 209/2/3 198/2/3 197/2/3
f 210/2/3 198/2/3 209/2/3
f 211/2/3 198/2/3 210/2/3
f 212/2/3 198/2/3 211/2/3
f 213/1/3 172/1/3 178/1/3
f 213/3/3 178/3/3 199/3/3
f 214/1/3 172/1/3 213/1/3
f 215/1/3 202/1/3 201/1/3
f 215/3/3 201/3/3 200/3/3
f 216/1/3 202/1/3 215/1/3
f 217/3/3 206/3/3 205/3/3
f 217/1/3 207/1/3 206/1/3
f 218/1/3 207/1/3 217/1/3
f 219/1/3 212/1/3 211/1/3
f 219/3/3 211/3/3 210/3/3
f 220/1/3 212/1/3 219/1/3
f 221/3/3 203/3/3 189/3/3
f 221/4/3 189/4/3 188/4/3
f 221/3/3 204/3/3 203/3/3
f 222/3/3 204/3/3 221/3/3
f 223/3/3 208/3/3 194/3/3
f 223/4/3 194/4/3 193/4/3
f 223/3/3 209/3/3 208/3/3
f 224/3/3 209/3/3 223/3/3
f 225/3/3 214/3/3 213/3/3
f 225/4/3 199/4/3 198/4/3
f 225/3/3 213/3/3 199/3/3
f 226/3/3 214/3/3 225/3/3
f 227/2/3 200/2/3 144/2/3
f 228/3/3 216/3/3 215/3/3
f 228/2/3 200/2/3 227/2/3
f 228/3/3 215/3/3 200/3/3
f 229/1/3 202/1/3 216/1/3
f 229/3/3 216/3/3 228/3/3
f 230/2/3 188/2/3 202/2/3
f 230/1/3 202/1/3 229/1/3
f 231/4/3 222/4/3 221/4/3
f 231/2/3 188/2/3 230/2/3
f 231/4/3 221/4/3 188/4/3
f 232/3/3 204/3/3 222/3/3
f 232/4/3 222/4/3 231/4/3
f 233/2/3 205/2/3 204/2/3
f 233/3/3 204/3/3 232/3/3
f 234/3/3 218/3/3 217/3/3
f 234/2/3 205/2/3 233/2/3
f 234/3/3 217/3/3 205/3/3
f 235/1/3 207/1/3 218/1/3
f 235/3/3 218/3/3 234/3/3
f 236/2/3 193/2/3 207/2/3
f 236/1/3 207/1/3 235/1/3
f 237/4/3 224/4/3 223/4/3
f 237/2/3 193/2/3 236/2/3
f 237/4/3 223/4/3 193/4/3
f 238/3/3 209/3/3 224/3/3
f 238/4/3 224/4/3 237/4/3
f 239/2/3 210/2/3 209/2/3
f 239/3/3 209/3/3 238/3/3
f 240/3/3 220/3/3 219/3/3
f 240/2/3 210/2/3 239/2/3
f 240/3/3 219/3/3 210/3/3
f 241/1/3 212/1/3 220/1/3
f 241/3/3 220/3/3 240/3/3
f 242/2/3 198/2/3 212/2/3
f 242/1/3 212/1/3 241/1/3
f 243/4/3 226/4/3 225/4/3
f 243/2/3 198/2/3 242/2/3
f 243/4/3 225/4/3 198/4/3
f 244/3/3 214/3/3 226/3/3
f 244/4/3 226/4/3 243/4/3
f 245/3/3 214/3/3 244/3/3
f 246/2/3 245/2/3 244/2/3
f 246/2/3 244/2/3 243/2/3
f 246/2/3 243/2/3 242/2/3
f 247/2/3 245/2/3 246/2/3
f 248/2/3 245/2/3 247/2/3
f 249/3/3 247/3/3 246/3/3
f 249/1/3 248/1/3 247/1/3
f 250/1/3 248/1/3 249/1/3
f 251/2/3 246/2/3 242/2/3
f 251/3/3 249/3/3 246/3/3
f 251/3/3 250/3/3 249/3/3
f 252/3/3 250/3/3 251/3/3
f 253/1/3 248/1/3 250/1/3
f 253/3/3 250/3/3 252/3/3
f 254/1/3 248/1/3 253/1/3
f 255/4/3 252/4/3 251/4/3
f 255/3/3 253/3/3 252/3/3
f 255/3/3 254/3/3 253/3/3
f 256/3/3 254/3/3 255/3/3
f 257/2/3 251/2/3 242/2/3
f 257/4/3 255/4/3 251/4/3
f 257/4/3 256/4/3 255/4/3
f 258/3/3 254/3/3 256/3/3
f 258/4/3 256/4/3 257/4/3
f 259/3/3 254/3/3 258/3/3
f 260/2/3 257/2/3 242/2/3
f 260/2/3 258/2/3 257/2/3
f 260/2/3 259/2/3 258/2/3
f 261/2/3 259/2/3 260/2/3
f 262/2/3 259/2/3 261/2/3
f 263/3/3 261/3/3 260/3/3
f 263/1/3 262/1/3 261/1/3
f 264/1/3 262/1/3 263/1/3
f 265/2/3 260/2/3 242/2/3
f 265/3/3 263/3/3 260/3/3
f 265/3/3 264/3/3 263/3/3
f 266/3/3 264/3/3 265/3/3
f 267/1/3 262/1/3 264/1/3
f 267/3/3 264/3/3 266/3/3
f 268/1/3 262/1/3 267/1/3
f 269/4/3 266/4/3 265/4/3
f 269/3/3 267/3/3 266/3/3
f 269/3/3 268/3/3 267/3/3
f 270/3/3 268/3/3 269/3/3
f 283/2/3 265/2/3 242/2/3
f 284/4/3 269/4/3 265/4/3
f 284/4/3 270/4/3 269/4/3
f 284/2/3 265/2/3 283/2/3
f 285/3/3 268/3/3 270/3/3
f 285/4/3 270/4/3 284/4/3
f 286/3/3 268/3/3 285/3/3
f 287/3/3 274/3/3 273/3/3
f 287/1/3 275/1/3 274/1/3
f 288/2/3 276/2/3 275/2/3
f 288/1/3 275/1/3 287/1/3
f 289/2/3 276/2/3 288/2/3
f 290/2/3 276/2/3 289/2/3
f 291/2/3 276/2/3 290/2/3
f 292/3/3 278/3/3 277/3/3
f 292/1/3 279/1/3 278/1/3
f 293/2/3 280/2/3 279/2/3
f 293/1/3 279/1/3 292/1/3
f 294/2/3 280/2/3 293/2/3
f 295/2/3 280/2/3 294/2/3
f 296/2/3 280/2/3 295/2/3
f 297/3/3 282/3/3 281/3/3
f 297/1/3 283/1/3 282/1/3
f 298/2/3 284/2/3 283/2/3
f 298/1/3 283/1/3 297/1/3
f 298/2/3 286/2/3 285/2/3
f 298/2/3 285/2/3 284/2/3
f 299/2/3 286/2/3 298/2/3
f 300/2/3 286/2/3 299/2/3
f 301/2/3 286/2/3 300/2/3
f 302/1/3 291/1/3 290/1/3
f 302/3/3 290/3/3 289/3/3
f 303/1/3 291/1/3 302/1/3
f 304/1/3 296/1/3 295/1/3
f 304/3/3 295/3/3 294/3/3
f 305/1/3 296/1/3 304/1/3
f 306/1/3 301/1/3 300/1/3
f 306/3/3 300/3/3 299/3/3
f 307/1/3 301/1/3 306/1/3
f 308/4/3 273/4/3 272/4/3
f 308/3/3 287/3/3 273/3/3
f 308/3/3 288/3/3 287/3/3
f 309/3/3 288/3/3 308/3/3
f 310/4/3 277/4/3 276/4/3
f 310/3/3 292/3/3 277/3/3
f 310/3/3 293/3/3 292/3/3
f 311/3/3 293/3/3 310/3/3
f 312/3/3 297/3/3 281/3/3
f 312/4/3 281/4/3 280/4/3
f 312/3/3 298/3/3 297/3/3
f 313/3/3 298/3/3 312/3/3
f 314/2/3 272/2/3 271/2/3
f 314/4/3 309/4/3 308/4/3
f 314/4/3 308/4/3 272/4/3
f 315/3/3 288/3/3 309/3/3
f 315/4/3 309/4/3 314/4/3
f 316/2/3 289/2/3 288/2/3
f 316/3/3 288/3/3 315/3/3
f 317/3/3 303/3/3 302/3/3
f 317/2/3 289/2/3 316/2/3
f 317/3/3 302/3/3 289/3/3
f 318/3/3 303/3/3 317/3/3
f 319/2/3 276/2/3 291/2/3
f 319/4/3 311/4/3 310/4/3
f 319/4/3 310/4/3 276/4/3
f 320/3/3 293/3/3 311/3/3
f 320/4/3 311/4/3 319/4/3
f 321/2/3 294/2/3 293/2/3
f 321/3/3 293/3/3 320/3/3
f 322/3/3 305/3/3 304/3/3
f 322/2/3 294/2/3 321/2/3
f 322/3/3 304/3/3 294/3/3
f 323/3/3 305/3/3 322/3/3
f 324/2/3 280/2/3 296/2/3
f 324/4/3 313/4/3 312/4/3
f 324/4/3 312/4/3 280/4/3
f 325/3/3 298/3/3 313/3/3
f 325/4/3 313/4/3 324/4/3
f 326/2/3 299/2/3 298/2/3
f 326/3/3 298/3/3 325/3/3
f 327/3/3 307/3/3 306/3/3
f 327/2/3 299/2/3 326/2/3
f 327/3/3 306/3/3 299/3/3
f 328/3/3 307/3/3 327/3/3
f 329/2/3 316/2/3 315/2/3
f 329/2/3 314/2/3 271/2/3
f 329/2/3 315/2/3 314/2/3
f 329/2/3 317/2/3 316/2/3
f 330/2/3 317/2/3 329/2/3
f 331/2/3 317/2/3 330/2/3
f 332/1/3 291/1/3 303/1/3
f 332/3/3 303/3/3 318/3/3
f 333/2/3 319/2/3 291/2/3
f 333/1/3 291/1/3 332/1/3
f 333/2/3 320/2/3 319/2/3
f 333/2/3 321/2/3 320/2/3
f 333/2/3 322/2/3 321/2/3
f 334/2/3 322/2/3 333/2/3
f 335/2/3 322/2/3 334/2/3
f 336/2/3 322/2/3 335/2/3
f 337/3/3 305/3/3 323/3/3
f 337/1/3 296/1/3 305/1/3
f 338/2/3 324/2/3 296/2/3
f 338/1/3 296/1/3 337/1/3
f 338/2/3 326/2/3 325/2/3
f 338/2/3 327/2/3 326/2/3
f 338/2/3 325/2/3 324/2/3
f 339/2/3 327/2/3 338/2/3
f 340/2/3 327/2/3 339/2/3
f 341/2/3 327/2/3 340/2/3
f 342/1/3 301/1/3 307/1/3
f 342/3/3 307/3/3 328/3/3
f 343/1/3 301/1/3 342/1/3
f 344/1/3 331/1/3 330/1/3
f 344/3/3 330/3/3 329/3/3
f 345/1/3 331/1/3 344/1/3
f 346/3/3 335/3/3 334/3/3
f 346/1/3 336/1/3 335/1/3
f 347/1/3 336/1/3 346/1/3
f 348/1/3 341/1/3 340/1/3
f 348/3/3 340/3/3 339/3/3
f 349/1/3 341/1/3 348/1/3
f 350/3/3 332/3/3 318/3/3
f 350/4/3 318/4/3 317/4/3
f 350/3/3 333/3/3 332/3/3
f 351/3/3 333/3/3 350/3/3
f 352/3/3 337/3/3 323/3/3
f 352/4/3 323/4/3 322/4/3
f 352/3/3 338/3/3 337/3/3
f 353/3/3 338/3/3 352/3/3
f 354/4/3 328/4/3 327/4/3
f 354/3/3 343/3/3 342/3/3
f 354/3/3 342/3/3 328/3/3
f 355/3/3 343/3/3 354/3/3
f 356/2/3 329/2/3 271/2/3
f 357/3/3 345/3/3 344/3/3
f 357/2/3 329/2/3 356/2/3
f 357/3/3 344/3/3 329/3/3
f 358/1/3 331/1/3 345/1/3
f 358/3/3 345/3/3 357/3/3
f 359/2/3 317/2/3 331/2/3
f 359/1/3 331/1/3 358/1/3
f 360/4/3 351/4/3 350/4/3
f 360/2/3 317/2/3 359/2/3
f 360/4/3 350/4/3 317/4/3
f 361/3/3 333/3/3 351/3/3
f 361/4/3 351/4/3 360/4/3
f 362/2/3 334/2/3 333/2/3
f 362/3/3 333/3/3 361/3/3
f 363/3/3 347/3/3 346/3/3
f 363/2/3 334/2/3 362/2/3
f 363/3/3 346/3/3 334/3/3
f 364/1/3 336/1/3 347/1/3
f 364/3/3 347/3/3 363/3/3
f 365/2/3 322/2/3 336/2/3
f 365/1/3 336/1/3 364/1/3
f 366/4/3 353/4/3 352/4/3
f 366/2/3 322/2/3 365/2/3
f 366/4/3 352/4/3 322/4/3
f 367/3/3 338/3/3 353/3/3
f 367/4/3 353/4/3 366/4/3
f 368/2/3 339/2/3 338/2/3
f 368/3/3 338/3/3 367/3/3
f 369/3/3 349/3/3 348/3/3
f 369/2/3 339/2/3 368/2/3
f 369/3/3 348/3/3 339/3/3
f 370/1/3 341/1/3 349/1/3
f 370/3/3 349/3/3 369/3/3
f 371/2/3 327/2/3 341/2/3
f 371/1/3 341/1/3 370/1/3
f 372/4/3 355/4/3 354/4/3
f 372/2/3 327/2/3 371/2/3
f 372/4/3 354/4/3 327/4/3
f 373/3/3 343/3/3 355/3/3
f 373/4/3 355/4/3 372/4/3
f 374/3/3 343/3/3 373/3/3
f 375/2/4 376/2/4 379/2/4
f 376/4/4 377/4/4 379/4/4
f 377/2/4 378/2/4 380/2/4
f 379/4/4 377/4/4 380/4/4
f 375/2/4 379/2/4 381/2/4
f 379/2/4 380/2/4 381/2/4
f 380/2/4 378/2/4 382/2/4
f 381/2/4 380/2/4 382/2/4
f 375/2/4 381/2/4 383/2/4
f 381/3/4 382/3/4 383/3/4
f 382/2/4 378/2/4 384/2/4
f 383/3/4 382/3/4 384/3/4
f 375/2/4 383/2/4 385/2/4
f 383/4/4 384/4/4 386/4/4
f 385/2/4 383/2/4 386/2/4
f 384/2/4 378/2/4 387/2/4
f 386/4/4 384/4/4 387/4/4
f 387/2/4 378/2/4 388/2/4
f 388/2/4 378/2/4 392/2/4
f 390/4/4 391/4/4 393/4/4
f 389/2/4 390/2/4 393/2/4
f 391/2/4 392/2/4 394/2/4
f 393/4/4 391/4/4 394/4/4
f 389/2/4 393/2/4 395/2/4
f 393/2/4 394/2/4 395/2/4
f 394/2/4 392/2/4 396/2/4
f 395/2/4 394/2/4 396/2/4
f 389/2/4 395/2/4 397/2/4
f 395/3/4 396/3/4 397/3/4
f 396/2/4 392/2/4 398/2/4
f 397/3/4 396/3/4 398/3/4
f 389/2/4 397/2/4 399/2/4
f 397/4/4 398/4/4 400/4/4
f 399/2/4 397/2/4 400/2/4
f 398/2/4 392/2/4 401/2/4
f 400/4/4 398/4/4 401/4/4
f 392/2/4 378/2/4 402/2/4
f 401/2/4 392/2/4 402/2/4
f 407/2/5 404/2/5 403/2/5
f 408/2/5 404/2/5 407/2/5
f 409/2/5 406/2/5 405/2/5
f 410/2/5 406/2/5 409/2/5
f 413/2/5 412/2/5 411/2/5
f 414/2/5 412/2/5 413/2/5
f 415/2/5 414/2/5 413/2/5
f 416/2/5 414/2/5 415/2/5
f 417/2/6 418/2/6 430/2/6
f 418/1/6 419/1/6 430/1/6
f 419/3/6 420/3/6 431/3/6
f 430/1/6 419/1/6 431/1/6
f 420/2/6 421/2/6 432/2/6
f 431/3/6 420/3/6 432/3/6
f 421/1/6 422/1/6 433/1/6
f 432/2/6 421/2/6 433/2/6
f 422/3/6 423/3/6 434/3/6
f 433/1/6 422/1/6 434/1/6
f 423/2/6 424/2/6 435/2/6
f 434/3/6 423/3/6 435/3/6
f 424/1/6 425/1/6 436/1/6
f 435/2/6 424/2/6 436/2/6
f 425/3/6 426/3/6 437/3/6
f 436/1/6 425/1/6 437/1/6
f 426/2/6 427/2/6 438/2/6
f 437/3/6 426/3/6 438/3/6
f 427/1/6 428/1/6 439/1/6
f 438/2/6 427/2/6 439/2/6
f 428/3/6 429/3/6 440/3/6
f 439/1/6 428/1/6 440/1/6
f 440/3/6 429/3/6 441/3/6
f 438/2/6 439/2/6 442/2/6
f 437/2/6 438/2/6 442/2/6
f 440/2/6 441/2/6 442/2/6
f 439/2/6 440/2/6 442/2/6
f 436/2/6 437/2/6 442/2/6
f 435/2/6 436/2/6 442/2/6
f 434/2/6 435/2/6 442/2/6
f 433/2/6 434/2/6 442/2/6
f 432/2/6 433/2/6 442/2/6
f 431/2/6 432/2/6 442/2/6
f 430/2/6 431/2/6 442/2/6
f 417/2/6 430/2/6 442/2/6
f 442/2/6 441/2/6 443/2/6
