# MagicaVoxel @ Ephtracy

# group
g woodWallHalfDoorFrame

# material
mtllib woodWallHalfDoorFrame.mtl
usemtl palette

# normals
vn -1 0 0
vn 1 0 0
vn 0 0 1
vn 0 0 -1
vn 0 -1 0
vn 0 1 0

# texcoords
vt 0.224609 0.5
vt 0.228516 0.5
vt 0.232422 0.5
vt 0.978516 0.5

# verts
v -16 0 2
v -16 0 -2
v -16 1 2
v -16 1 1
v -16 1 -1
v -16 1 -2
v -16 2 2
v -16 2 1
v -16 2 -1
v -16 2 -2
v -16 14 2
v -16 14 1
v -16 14 -1
v -16 14 -2
v -16 15 2
v -16 15 1
v -16 15 -1
v -16 15 -2
v -16 16 2
v -16 16 1
v -16 16 -1
v -16 16 -2
v -16 17 2
v -16 17 1
v -16 17 -1
v -16 17 -2
v -16 30 2
v -16 30 1
v -16 30 -1
v -16 30 -2
v -16 31 2
v -16 31 1
v -16 31 -1
v -16 31 -2
v -16 32 2
v -16 32 1
v -16 32 -1
v -16 32 -2
v -16 33 2
v -16 33 1
v -16 33 -1
v -16 33 -2
v -16 46 2
v -16 46 1
v -16 46 -1
v -16 46 -2
v -16 47 2
v -16 47 1
v -16 47 -1
v -16 47 -2
v -16 48 2
v -16 48 1
v -16 48 -1
v -16 48 -2
v -16 49 2
v -16 49 1
v -16 49 -1
v -16 49 -2
v -16 63 2
v -16 63 1
v -16 63 -1
v -16 63 -2
v -16 64 2
v -16 64 1
v -16 64 -1
v -16 64 -2
v 10 0 2
v 10 0 -2
v 10 38 2
v 10 38 -2
v -10 0 2
v -10 0 -2
v -10 38 2
v -10 38 -2
v 16 0 2
v 16 0 1
v 16 0 -1
v 16 0 -2
v 16 63 1
v 16 63 -1
v 16 64 2
v 16 64 -2
v -16 0 2
v -16 1 2
v -16 2 2
v -16 14 2
v -16 15 2
v -16 16 2
v -16 17 2
v -16 30 2
v -16 31 2
v -16 32 2
v -16 33 2
v -16 46 2
v -16 47 2
v -16 48 2
v -16 49 2
v -16 63 2
v -16 64 2
v -11 1 2
v -11 2 2
v -11 14 2
v -11 15 2
v -11 16 2
v -11 17 2
v -11 30 2
v -11 31 2
v -11 32 2
v -11 33 2
v -11 40 2
v -10 0 2
v -10 38 2
v 10 0 2
v 10 38 2
v 11 1 2
v 11 2 2
v 11 14 2
v 11 15 2
v 11 16 2
v 11 17 2
v 11 30 2
v 11 31 2
v 11 32 2
v 11 33 2
v 11 40 2
v 15 1 2
v 15 2 2
v 15 14 2
v 15 15 2
v 15 16 2
v 15 17 2
v 15 30 2
v 15 31 2
v 15 32 2
v 15 33 2
v 15 46 2
v 15 47 2
v 15 48 2
v 15 49 2
v 15 63 2
v 15 64 2
v 16 0 2
v 16 64 2
v -16 0 -2
v -16 1 -2
v -16 2 -2
v -16 14 -2
v -16 15 -2
v -16 16 -2
v -16 17 -2
v -16 30 -2
v -16 31 -2
v -16 32 -2
v -16 33 -2
v -16 46 -2
v -16 47 -2
v -16 48 -2
v -16 49 -2
v -16 63 -2
v -16 64 -2
v -11 1 -2
v -11 2 -2
v -11 14 -2
v -11 15 -2
v -11 16 -2
v -11 17 -2
v -11 30 -2
v -11 31 -2
v -11 32 -2
v -11 33 -2
v -11 40 -2
v -10 0 -2
v -10 38 -2
v 10 0 -2
v 10 38 -2
v 11 1 -2
v 11 2 -2
v 11 14 -2
v 11 15 -2
v 11 16 -2
v 11 17 -2
v 11 30 -2
v 11 31 -2
v 11 32 -2
v 11 33 -2
v 11 40 -2
v 15 1 -2
v 15 2 -2
v 15 14 -2
v 15 15 -2
v 15 16 -2
v 15 17 -2
v 15 30 -2
v 15 31 -2
v 15 32 -2
v 15 33 -2
v 15 46 -2
v 15 47 -2
v 15 48 -2
v 15 49 -2
v 15 63 -2
v 15 64 -2
v 16 0 -2
v 16 64 -2
v -16 0 2
v -10 0 2
v 10 0 2
v 16 0 2
v -15 0 1
v -11 0 1
v 11 0 1
v 16 0 1
v -15 0 -1
v -11 0 -1
v 11 0 -1
v 16 0 -1
v -16 0 -2
v -10 0 -2
v 10 0 -2
v 16 0 -2
v -10 38 2
v 10 38 2
v -10 38 -2
v 10 38 -2
v -16 64 2
v 15 64 2
v 16 64 2
v -16 64 1
v 15 64 1
v -16 64 -1
v 15 64 -1
v -16 64 -2
v 15 64 -2
v 16 64 -2

# faces
f 3/4/1 2/4/1 1/4/1
f 4/4/1 2/4/1 3/4/1
f 5/4/1 2/4/1 4/4/1
f 6/4/1 2/4/1 5/4/1
f 7/3/1 4/3/1 3/3/1
f 8/1/1 5/1/1 4/1/1
f 8/3/1 4/3/1 7/3/1
f 9/3/1 6/3/1 5/3/1
f 9/1/1 5/1/1 8/1/1
f 10/3/1 6/3/1 9/3/1
f 11/1/1 8/1/1 7/1/1
f 11/1/1 9/1/1 8/1/1
f 11/1/1 10/1/1 9/1/1
f 12/1/1 10/1/1 11/1/1
f 13/1/1 10/1/1 12/1/1
f 14/1/1 10/1/1 13/1/1
f 15/2/1 12/2/1 11/2/1
f 16/1/1 13/1/1 12/1/1
f 16/2/1 12/2/1 15/2/1
f 17/2/1 14/2/1 13/2/1
f 17/1/1 13/1/1 16/1/1
f 18/2/1 14/2/1 17/2/1
f 19/4/1 16/4/1 15/4/1
f 19/4/1 17/4/1 16/4/1
f 19/4/1 18/4/1 17/4/1
f 20/4/1 18/4/1 19/4/1
f 21/4/1 18/4/1 20/4/1
f 22/4/1 18/4/1 21/4/1
f 23/3/1 20/3/1 19/3/1
f 24/1/1 21/1/1 20/1/1
f 24/3/1 20/3/1 23/3/1
f 25/3/1 22/3/1 21/3/1
f 25/1/1 21/1/1 24/1/1
f 26/3/1 22/3/1 25/3/1
f 27/1/1 24/1/1 23/1/1
f 27/1/1 25/1/1 24/1/1
f 27/1/1 26/1/1 25/1/1
f 28/1/1 26/1/1 27/1/1
f 29/1/1 26/1/1 28/1/1
f 30/1/1 26/1/1 29/1/1
f 31/2/1 28/2/1 27/2/1
f 32/1/1 29/1/1 28/1/1
f 32/2/1 28/2/1 31/2/1
f 33/2/1 30/2/1 29/2/1
f 33/1/1 29/1/1 32/1/1
f 34/2/1 30/2/1 33/2/1
f 35/4/1 32/4/1 31/4/1
f 35/4/1 33/4/1 32/4/1
f 35/4/1 34/4/1 33/4/1
f 36/4/1 34/4/1 35/4/1
f 37/4/1 34/4/1 36/4/1
f 38/4/1 34/4/1 37/4/1
f 39/3/1 36/3/1 35/3/1
f 40/1/1 37/1/1 36/1/1
f 40/3/1 36/3/1 39/3/1
f 41/3/1 38/3/1 37/3/1
f 41/1/1 37/1/1 40/1/1
f 42/3/1 38/3/1 41/3/1
f 43/1/1 40/1/1 39/1/1
f 43/1/1 41/1/1 40/1/1
f 43/1/1 42/1/1 41/1/1
f 44/1/1 42/1/1 43/1/1
f 45/1/1 42/1/1 44/1/1
f 46/1/1 42/1/1 45/1/1
f 47/2/1 44/2/1 43/2/1
f 48/1/1 45/1/1 44/1/1
f 48/2/1 44/2/1 47/2/1
f 49/2/1 46/2/1 45/2/1
f 49/1/1 45/1/1 48/1/1
f 50/2/1 46/2/1 49/2/1
f 51/4/1 48/4/1 47/4/1
f 51/4/1 49/4/1 48/4/1
f 51/4/1 50/4/1 49/4/1
f 52/4/1 50/4/1 51/4/1
f 53/4/1 50/4/1 52/4/1
f 54/4/1 50/4/1 53/4/1
f 55/3/1 52/3/1 51/3/1
f 56/1/1 53/1/1 52/1/1
f 56/3/1 52/3/1 55/3/1
f 57/3/1 54/3/1 53/3/1
f 57/1/1 53/1/1 56/1/1
f 58/3/1 54/3/1 57/3/1
f 59/1/1 56/1/1 55/1/1
f 59/1/1 57/1/1 56/1/1
f 59/1/1 58/1/1 57/1/1
f 60/1/1 58/1/1 59/1/1
f 61/1/1 58/1/1 60/1/1
f 62/1/1 58/1/1 61/1/1
f 63/2/1 60/2/1 59/2/1
f 64/1/1 61/1/1 60/1/1
f 64/2/1 60/2/1 63/2/1
f 65/2/1 62/2/1 61/2/1
f 65/1/1 61/1/1 64/1/1
f 66/2/1 62/2/1 65/2/1
f 69/4/1 68/4/1 67/4/1
f 70/4/1 68/4/1 69/4/1
f 71/4/2 72/4/2 73/4/2
f 73/4/2 72/4/2 74/4/2
f 75/4/2 76/4/2 79/4/2
f 76/1/2 77/1/2 79/1/2
f 77/4/2 78/4/2 80/4/2
f 79/1/2 77/1/2 80/1/2
f 75/4/2 79/4/2 81/4/2
f 79/4/2 80/4/2 81/4/2
f 80/4/2 78/4/2 82/4/2
f 81/4/2 80/4/2 82/4/2
f 100/4/3 84/4/3 83/4/3
f 100/3/3 85/3/3 84/3/3
f 101/1/3 86/1/3 85/1/3
f 101/3/3 85/3/3 100/3/3
f 102/2/3 87/2/3 86/2/3
f 102/1/3 86/1/3 101/1/3
f 103/4/3 88/4/3 87/4/3
f 103/2/3 87/2/3 102/2/3
f 104/3/3 89/3/3 88/3/3
f 104/4/3 88/4/3 103/4/3
f 105/1/3 90/1/3 89/1/3
f 105/3/3 89/3/3 104/3/3
f 106/2/3 91/2/3 90/2/3
f 106/1/3 90/1/3 105/1/3
f 107/4/3 92/4/3 91/4/3
f 107/2/3 91/2/3 106/2/3
f 108/3/3 93/3/3 92/3/3
f 108/4/3 92/4/3 107/4/3
f 109/1/3 94/1/3 93/1/3
f 109/3/3 93/3/3 108/3/3
f 110/1/3 94/1/3 109/1/3
f 111/4/3 100/4/3 83/4/3
f 111/4/3 101/4/3 100/4/3
f 111/4/3 110/4/3 109/4/3
f 111/4/3 109/4/3 108/4/3
f 111/4/3 102/4/3 101/4/3
f 111/4/3 103/4/3 102/4/3
f 111/4/3 104/4/3 103/4/3
f 111/4/3 108/4/3 107/4/3
f 111/4/3 107/4/3 106/4/3
f 111/4/3 106/4/3 105/4/3
f 111/4/3 105/4/3 104/4/3
f 112/4/3 110/4/3 111/4/3
f 114/4/3 110/4/3 112/4/3
f 115/4/3 114/4/3 113/4/3
f 116/4/3 114/4/3 115/4/3
f 117/4/3 114/4/3 116/4/3
f 118/4/3 114/4/3 117/4/3
f 119/4/3 114/4/3 118/4/3
f 120/4/3 114/4/3 119/4/3
f 121/4/3 114/4/3 120/4/3
f 122/4/3 114/4/3 121/4/3
f 123/4/3 114/4/3 122/4/3
f 124/4/3 114/4/3 123/4/3
f 125/1/3 94/1/3 110/1/3
f 125/4/3 114/4/3 124/4/3
f 125/4/3 110/4/3 114/4/3
f 126/4/3 115/4/3 113/4/3
f 126/3/3 116/3/3 115/3/3
f 127/1/3 117/1/3 116/1/3
f 127/3/3 116/3/3 126/3/3
f 128/2/3 118/2/3 117/2/3
f 128/1/3 117/1/3 127/1/3
f 129/4/3 119/4/3 118/4/3
f 129/2/3 118/2/3 128/2/3
f 130/3/3 120/3/3 119/3/3
f 130/4/3 119/4/3 129/4/3
f 131/1/3 121/1/3 120/1/3
f 131/3/3 120/3/3 130/3/3
f 132/2/3 122/2/3 121/2/3
f 132/1/3 121/1/3 131/1/3
f 133/4/3 123/4/3 122/4/3
f 133/2/3 122/2/3 132/2/3
f 134/3/3 124/3/3 123/3/3
f 134/4/3 123/4/3 133/4/3
f 135/1/3 125/1/3 124/1/3
f 135/3/3 124/3/3 134/3/3
f 136/2/3 95/2/3 94/2/3
f 136/1/3 125/1/3 135/1/3
f 136/1/3 94/1/3 125/1/3
f 137/4/3 96/4/3 95/4/3
f 137/2/3 95/2/3 136/2/3
f 138/3/3 97/3/3 96/3/3
f 138/4/3 96/4/3 137/4/3
f 139/1/3 98/1/3 97/1/3
f 139/3/3 97/3/3 138/3/3
f 140/2/3 99/2/3 98/2/3
f 140/1/3 98/1/3 139/1/3
f 141/2/3 99/2/3 140/2/3
f 142/4/3 139/4/3 138/4/3
f 142/4/3 138/4/3 137/4/3
f 142/4/3 141/4/3 140/4/3
f 142/4/3 140/4/3 139/4/3
f 142/4/3 130/4/3 129/4/3
f 142/4/3 129/4/3 128/4/3
f 142/4/3 128/4/3 127/4/3
f 142/4/3 127/4/3 126/4/3
f 142/4/3 126/4/3 113/4/3
f 142/4/3 134/4/3 133/4/3
f 142/4/3 131/4/3 130/4/3
f 142/4/3 132/4/3 131/4/3
f 142/4/3 133/4/3 132/4/3
f 142/4/3 137/4/3 136/4/3
f 142/4/3 135/4/3 134/4/3
f 142/4/3 136/4/3 135/4/3
f 143/4/3 141/4/3 142/4/3
f 144/4/4 145/4/4 161/4/4
f 145/3/4 146/3/4 161/3/4
f 146/1/4 147/1/4 162/1/4
f 161/3/4 146/3/4 162/3/4
f 147/2/4 148/2/4 163/2/4
f 162/1/4 147/1/4 163/1/4
f 148/4/4 149/4/4 164/4/4
f 163/2/4 148/2/4 164/2/4
f 149/3/4 150/3/4 165/3/4
f 164/4/4 149/4/4 165/4/4
f 150/1/4 151/1/4 166/1/4
f 165/3/4 150/3/4 166/3/4
f 151/2/4 152/2/4 167/2/4
f 166/1/4 151/1/4 167/1/4
f 152/4/4 153/4/4 168/4/4
f 167/2/4 152/2/4 168/2/4
f 153/3/4 154/3/4 169/3/4
f 168/4/4 153/4/4 169/4/4
f 154/1/4 155/1/4 170/1/4
f 169/3/4 154/3/4 170/3/4
f 170/1/4 155/1/4 171/1/4
f 144/4/4 161/4/4 172/4/4
f 161/4/4 162/4/4 172/4/4
f 170/4/4 171/4/4 172/4/4
f 169/4/4 170/4/4 172/4/4
f 162/4/4 163/4/4 172/4/4
f 163/4/4 164/4/4 172/4/4
f 164/4/4 165/4/4 172/4/4
f 168/4/4 169/4/4 172/4/4
f 167/4/4 168/4/4 172/4/4
f 166/4/4 167/4/4 172/4/4
f 165/4/4 166/4/4 172/4/4
f 172/4/4 171/4/4 173/4/4
f 173/4/4 171/4/4 175/4/4
f 174/4/4 175/4/4 176/4/4
f 176/4/4 175/4/4 177/4/4
f 177/4/4 175/4/4 178/4/4
f 178/4/4 175/4/4 179/4/4
f 179/4/4 175/4/4 180/4/4
f 180/4/4 175/4/4 181/4/4
f 181/4/4 175/4/4 182/4/4
f 182/4/4 175/4/4 183/4/4
f 183/4/4 175/4/4 184/4/4
f 184/4/4 175/4/4 185/4/4
f 171/1/4 155/1/4 186/1/4
f 185/4/4 175/4/4 186/4/4
f 175/4/4 171/4/4 186/4/4
f 174/4/4 176/4/4 187/4/4
f 176/3/4 177/3/4 187/3/4
f 177/1/4 178/1/4 188/1/4
f 187/3/4 177/3/4 188/3/4
f 178/2/4 179/2/4 189/2/4
f 188/1/4 178/1/4 189/1/4
f 179/4/4 180/4/4 190/4/4
f 189/2/4 179/2/4 190/2/4
f 180/3/4 181/3/4 191/3/4
f 190/4/4 180/4/4 191/4/4
f 181/1/4 182/1/4 192/1/4
f 191/3/4 181/3/4 192/3/4
f 182/2/4 183/2/4 193/2/4
f 192/1/4 182/1/4 193/1/4
f 183/4/4 184/4/4 194/4/4
f 193/2/4 183/2/4 194/2/4
f 184/3/4 185/3/4 195/3/4
f 194/4/4 184/4/4 195/4/4
f 185/1/4 186/1/4 196/1/4
f 195/3/4 185/3/4 196/3/4
f 155/2/4 156/2/4 197/2/4
f 196/1/4 186/1/4 197/1/4
f 186/1/4 155/1/4 197/1/4
f 156/4/4 157/4/4 198/4/4
f 197/2/4 156/2/4 198/2/4
f 157/3/4 158/3/4 199/3/4
f 198/4/4 157/4/4 199/4/4
f 158/1/4 159/1/4 200/1/4
f 199/3/4 158/3/4 200/3/4
f 159/2/4 160/2/4 201/2/4
f 200/1/4 159/1/4 201/1/4
f 201/2/4 160/2/4 202/2/4
f 199/4/4 200/4/4 203/4/4
f 198/4/4 199/4/4 203/4/4
f 201/4/4 202/4/4 203/4/4
f 200/4/4 201/4/4 203/4/4
f 190/4/4 191/4/4 203/4/4
f 189/4/4 190/4/4 203/4/4
f 188/4/4 189/4/4 203/4/4
f 187/4/4 188/4/4 203/4/4
f 174/4/4 187/4/4 203/4/4
f 194/4/4 195/4/4 203/4/4
f 191/4/4 192/4/4 203/4/4
f 192/4/4 193/4/4 203/4/4
f 193/4/4 194/4/4 203/4/4
f 197/4/4 198/4/4 203/4/4
f 195/4/4 196/4/4 203/4/4
f 196/4/4 197/4/4 203/4/4
f 203/4/4 202/4/4 204/4/4
f 209/4/5 206/4/5 205/4/5
f 210/4/5 206/4/5 209/4/5
f 211/4/5 208/4/5 207/4/5
f 212/4/5 208/4/5 211/4/5
f 213/4/5 209/4/5 205/4/5
f 213/1/5 210/1/5 209/1/5
f 214/4/5 206/4/5 210/4/5
f 214/1/5 210/1/5 213/1/5
f 215/1/5 212/1/5 211/1/5
f 215/4/5 211/4/5 207/4/5
f 216/1/5 212/1/5 215/1/5
f 217/4/5 213/4/5 205/4/5
f 217/4/5 214/4/5 213/4/5
f 218/4/5 206/4/5 214/4/5
f 218/4/5 214/4/5 217/4/5
f 219/4/5 216/4/5 215/4/5
f 219/4/5 215/4/5 207/4/5
f 220/4/5 216/4/5 219/4/5
f 223/4/5 222/4/5 221/4/5
f 224/4/5 222/4/5 223/4/5
f 225/2/6 226/2/6 228/2/6
f 226/4/6 227/4/6 229/4/6
f 228/2/6 226/2/6 229/2/6
f 228/1/6 229/1/6 230/1/6
f 229/4/6 227/4/6 231/4/6
f 230/1/6 229/1/6 231/1/6
f 230/2/6 231/2/6 232/2/6
f 231/4/6 227/4/6 233/4/6
f 232/2/6 231/2/6 233/2/6
f 233/4/6 227/4/6 234/4/6
