# 3ds Max Wavefront OBJ Exporter v0.97b - (c)2007 guruware
# File Created: 11.02.2019 15:27:25

mtllib Alt_Door.mtl

#
# object Alt_Door
#

v  6.6749 2.0000 3.9340
v  6.6749 0.0000 -15.0660
v  6.6749 0.0000 3.9340
v  6.6749 2.0000 -15.0660
v  6.6749 11.0000 -10.0660
v  6.6749 11.0000 -13.0660
v  6.6749 23.0000 -3.0660
v  6.6749 23.0000 -8.0660
v  6.6749 24.0000 -4.0660
v  6.6749 24.0000 -7.0660
v  6.6749 24.0000 -10.0660
v  6.6749 24.0000 -13.0660
v  6.6749 25.0000 -4.0660
v  6.6749 25.0000 -5.0660
v  6.6749 25.0000 -6.0660
v  6.6749 25.0000 -7.0660
v  6.6749 26.0000 -4.0660
v  6.6749 26.0000 -5.0660
v  6.6749 26.0000 -6.0660
v  6.6749 26.0000 -7.0660
v  6.6749 27.0000 -4.0660
v  6.6749 27.0000 -5.0660
v  6.6749 27.0000 -6.0660
v  6.6749 27.0000 -7.0660
v  6.6749 28.0000 -5.0660
v  6.6749 28.0000 -6.0660
v  6.6749 29.0000 -3.0660
v  6.6749 29.0000 -8.0660
v  6.6749 33.0000 3.9340
v  6.6749 33.0000 -15.0660
v  8.6749 0.0000 3.9340
v  8.6749 0.0000 -15.0660
v  8.6749 2.0000 3.9340
v  8.6749 2.0000 -15.0660
v  8.6749 11.0000 -10.0660
v  8.6749 11.0000 -13.0660
v  8.6749 23.0000 -3.0660
v  8.6749 23.0000 -8.0660
v  8.6749 24.0000 -4.0660
v  8.6749 24.0000 -7.0660
v  8.6749 24.0000 -10.0660
v  8.6749 24.0000 -13.0660
v  8.6749 25.0000 -4.0660
v  8.6749 25.0000 -5.0660
v  8.6749 25.0000 -6.0660
v  8.6749 25.0000 -7.0660
v  8.6749 26.0000 -4.0660
v  8.6749 26.0000 -5.0660
v  8.6749 26.0000 -6.0660
v  8.6749 26.0000 -7.0660
v  8.6749 27.0000 -4.0660
v  8.6749 27.0000 -5.0660
v  8.6749 27.0000 -6.0660
v  8.6749 27.0000 -7.0660
v  8.6749 28.0000 -5.0660
v  8.6749 28.0000 -6.0660
v  8.6749 29.0000 -3.0660
v  8.6749 29.0000 -8.0660
v  8.6749 33.0000 3.9340
v  8.6749 33.0000 -15.0660
# 60 vertices

vn -1.0000 0.0000 -0.0000
vn 1.0000 0.0000 -0.0000
vn 0.0000 0.0000 1.0000
vn 0.0000 0.0000 -1.0000
vn 0.0000 -1.0000 -0.0000
vn 0.0000 1.0000 -0.0000
# 6 vertex normals

vt 0.9668 0.5000 0.0000
vt 0.7910 0.5000 0.0000
vt 0.9590 0.5000 0.0000
vt 0.9941 0.5000 0.0000
# 4 texture coords

o Alt_Door
g Alt_Door
usemtl Alt_Door_palette
s 1
f 1/1/1 2/1/1 3/1/1 
f 4/1/1 2/1/1 1/1/1 
f 5/2/1 4/2/1 1/2/1 
f 6/2/1 4/2/1 5/2/1 
f 7/2/1 5/2/1 1/2/1 
f 8/2/1 5/2/1 7/2/1 
f 9/3/1 8/3/1 7/3/1 
f 10/3/1 8/3/1 9/3/1 
f 11/1/1 6/1/1 5/1/1 
f 11/2/1 5/2/1 8/2/1 
f 12/2/1 4/2/1 6/2/1 
f 12/1/1 6/1/1 11/1/1 
f 13/4/1 10/4/1 9/4/1 
f 13/3/1 9/3/1 7/3/1 
f 14/4/1 10/4/1 13/4/1 
f 15/4/1 10/4/1 14/4/1 
f 16/3/1 8/3/1 10/3/1 
f 16/4/1 10/4/1 15/4/1 
f 17/3/1 13/3/1 7/3/1 
f 17/3/1 14/3/1 13/3/1 
f 18/4/1 15/4/1 14/4/1 
f 18/3/1 14/3/1 17/3/1 
f 19/3/1 16/3/1 15/3/1 
f 19/4/1 15/4/1 18/4/1 
f 20/3/1 8/3/1 16/3/1 
f 20/3/1 16/3/1 19/3/1 
f 21/3/1 17/3/1 7/3/1 
f 21/4/1 19/4/1 18/4/1 
f 21/4/1 20/4/1 19/4/1 
f 21/4/1 18/4/1 17/4/1 
f 22/4/1 20/4/1 21/4/1 
f 23/4/1 20/4/1 22/4/1 
f 24/3/1 8/3/1 20/3/1 
f 24/4/1 20/4/1 23/4/1 
f 25/4/1 23/4/1 22/4/1 
f 25/3/1 22/3/1 21/3/1 
f 26/3/1 24/3/1 23/3/1 
f 26/4/1 23/4/1 25/4/1 
f 27/2/1 7/2/1 1/2/1 
f 27/3/1 21/3/1 7/3/1 
f 27/3/1 26/3/1 25/3/1 
f 27/3/1 25/3/1 21/3/1 
f 28/2/1 11/2/1 8/2/1 
f 28/3/1 26/3/1 27/3/1 
f 28/3/1 8/3/1 24/3/1 
f 28/2/1 12/2/1 11/2/1 
f 28/3/1 24/3/1 26/3/1 
f 29/2/1 27/2/1 1/2/1 
f 29/2/1 28/2/1 27/2/1 
f 30/2/1 12/2/1 28/2/1 
f 30/2/1 28/2/1 29/2/1 
f 30/2/1 4/2/1 12/2/1 
f 31/1/2 32/1/2 33/1/2 
f 33/1/2 32/1/2 34/1/2 
f 33/2/2 34/2/2 35/2/2 
f 35/2/2 34/2/2 36/2/2 
f 33/2/2 35/2/2 37/2/2 
f 37/2/2 35/2/2 38/2/2 
f 37/3/2 38/3/2 39/3/2 
f 39/3/2 38/3/2 40/3/2 
f 35/1/2 36/1/2 41/1/2 
f 38/2/2 35/2/2 41/2/2 
f 36/2/2 34/2/2 42/2/2 
f 41/1/2 36/1/2 42/1/2 
f 39/4/2 40/4/2 43/4/2 
f 37/3/2 39/3/2 43/3/2 
f 43/4/2 40/4/2 44/4/2 
f 44/4/2 40/4/2 45/4/2 
f 40/3/2 38/3/2 46/3/2 
f 45/4/2 40/4/2 46/4/2 
f 37/3/2 43/3/2 47/3/2 
f 43/3/2 44/3/2 47/3/2 
f 44/4/2 45/4/2 48/4/2 
f 47/3/2 44/3/2 48/3/2 
f 45/3/2 46/3/2 49/3/2 
f 48/4/2 45/4/2 49/4/2 
f 46/3/2 38/3/2 50/3/2 
f 49/3/2 46/3/2 50/3/2 
f 37/3/2 47/3/2 51/3/2 
f 48/4/2 49/4/2 51/4/2 
f 49/4/2 50/4/2 51/4/2 
f 47/4/2 48/4/2 51/4/2 
f 51/4/2 50/4/2 52/4/2 
f 52/4/2 50/4/2 53/4/2 
f 50/3/2 38/3/2 54/3/2 
f 53/4/2 50/4/2 54/4/2 
f 52/4/2 53/4/2 55/4/2 
f 51/3/2 52/3/2 55/3/2 
f 53/3/2 54/3/2 56/3/2 
f 55/4/2 53/4/2 56/4/2 
f 33/2/2 37/2/2 57/2/2 
f 37/3/2 51/3/2 57/3/2 
f 55/3/2 56/3/2 57/3/2 
f 51/3/2 55/3/2 57/3/2 
f 38/2/2 41/2/2 58/2/2 
f 57/3/2 56/3/2 58/3/2 
f 54/3/2 38/3/2 58/3/2 
f 41/2/2 42/2/2 58/2/2 
f 56/3/2 54/3/2 58/3/2 
f 33/2/2 57/2/2 59/2/2 
f 57/2/2 58/2/2 59/2/2 
f 58/2/2 42/2/2 60/2/2 
f 59/2/2 58/2/2 60/2/2 
f 42/2/2 34/2/2 60/2/2 
f 31/1/3 1/1/3 3/1/3 
f 33/2/3 29/2/3 1/2/3 
f 33/1/3 1/1/3 31/1/3 
f 59/2/3 29/2/3 33/2/3 
f 2/1/4 4/1/4 32/1/4 
f 4/2/4 30/2/4 34/2/4 
f 32/1/4 4/1/4 34/1/4 
f 34/2/4 30/2/4 60/2/4 
f 2/1/5 31/1/5 3/1/5 
f 32/1/5 31/1/5 2/1/5 
f 29/2/6 59/2/6 30/2/6 
f 30/2/6 59/2/6 60/2/6 
# 0 polygons - 116 triangles

