# MagicaVoxel @ Ephtracy

# group
g Alt_Door

# material
mtllib Alt_Door.mtl
usemtl palette

# normals
vn -1 0 0
vn 1 0 0
vn 0 0 1
vn 0 0 -1
vn 0 -1 0
vn 0 1 0

# texcoords
vt 0.791016 0.5
vt 0.958984 0.5
vt 0.966797 0.5
vt 0.994141 0.5

# verts
v -1 0 9
v -1 0 -10
v -1 2 9
v -1 2 -10
v -1 11 -5
v -1 11 -8
v -1 23 2
v -1 23 -3
v -1 24 1
v -1 24 -2
v -1 24 -5
v -1 24 -8
v -1 25 1
v -1 25 -0
v -1 25 -1
v -1 25 -2
v -1 26 1
v -1 26 -0
v -1 26 -1
v -1 26 -2
v -1 27 1
v -1 27 -0
v -1 27 -1
v -1 27 -2
v -1 28 -0
v -1 28 -1
v -1 29 2
v -1 29 -3
v -1 33 9
v -1 33 -10
v 1 0 9
v 1 0 -10
v 1 2 9
v 1 2 -10
v 1 11 -5
v 1 11 -8
v 1 23 2
v 1 23 -3
v 1 24 1
v 1 24 -2
v 1 24 -5
v 1 24 -8
v 1 25 1
v 1 25 -0
v 1 25 -1
v 1 25 -2
v 1 26 1
v 1 26 -0
v 1 26 -1
v 1 26 -2
v 1 27 1
v 1 27 -0
v 1 27 -1
v 1 27 -2
v 1 28 -0
v 1 28 -1
v 1 29 2
v 1 29 -3
v 1 33 9
v 1 33 -10
v -1 0 9
v -1 2 9
v -1 33 9
v 1 0 9
v 1 2 9
v 1 33 9
v -1 0 -10
v -1 2 -10
v -1 33 -10
v 1 0 -10
v 1 2 -10
v 1 33 -10
v -1 0 9
v 1 0 9
v -1 0 -10
v 1 0 -10
v -1 33 9
v 1 33 9
v -1 33 -10
v 1 33 -10

# faces
f 3/3/1 2/3/1 1/3/1
f 4/3/1 2/3/1 3/3/1
f 5/1/1 4/1/1 3/1/1
f 6/1/1 4/1/1 5/1/1
f 7/1/1 5/1/1 3/1/1
f 8/1/1 5/1/1 7/1/1
f 9/2/1 8/2/1 7/2/1
f 10/2/1 8/2/1 9/2/1
f 11/3/1 6/3/1 5/3/1
f 11/1/1 5/1/1 8/1/1
f 12/1/1 4/1/1 6/1/1
f 12/3/1 6/3/1 11/3/1
f 13/4/1 10/4/1 9/4/1
f 13/2/1 9/2/1 7/2/1
f 14/4/1 10/4/1 13/4/1
f 15/4/1 10/4/1 14/4/1
f 16/2/1 8/2/1 10/2/1
f 16/4/1 10/4/1 15/4/1
f 17/2/1 13/2/1 7/2/1
f 17/2/1 14/2/1 13/2/1
f 18/4/1 15/4/1 14/4/1
f 18/2/1 14/2/1 17/2/1
f 19/2/1 16/2/1 15/2/1
f 19/4/1 15/4/1 18/4/1
f 20/2/1 8/2/1 16/2/1
f 20/2/1 16/2/1 19/2/1
f 21/2/1 17/2/1 7/2/1
f 21/4/1 19/4/1 18/4/1
f 21/4/1 20/4/1 19/4/1
f 21/4/1 18/4/1 17/4/1
f 22/4/1 20/4/1 21/4/1
f 23/4/1 20/4/1 22/4/1
f 24/2/1 8/2/1 20/2/1
f 24/4/1 20/4/1 23/4/1
f 25/4/1 23/4/1 22/4/1
f 25/2/1 22/2/1 21/2/1
f 26/2/1 24/2/1 23/2/1
f 26/4/1 23/4/1 25/4/1
f 27/1/1 7/1/1 3/1/1
f 27/2/1 21/2/1 7/2/1
f 27/2/1 26/2/1 25/2/1
f 27/2/1 25/2/1 21/2/1
f 28/1/1 11/1/1 8/1/1
f 28/2/1 26/2/1 27/2/1
f 28/2/1 8/2/1 24/2/1
f 28/1/1 12/1/1 11/1/1
f 28/2/1 24/2/1 26/2/1
f 29/1/1 27/1/1 3/1/1
f 29/1/1 28/1/1 27/1/1
f 30/1/1 12/1/1 28/1/1
f 30/1/1 28/1/1 29/1/1
f 30/1/1 4/1/1 12/1/1
f 31/3/2 32/3/2 33/3/2
f 33/3/2 32/3/2 34/3/2
f 33/1/2 34/1/2 35/1/2
f 35/1/2 34/1/2 36/1/2
f 33/1/2 35/1/2 37/1/2
f 37/1/2 35/1/2 38/1/2
f 37/2/2 38/2/2 39/2/2
f 39/2/2 38/2/2 40/2/2
f 35/3/2 36/3/2 41/3/2
f 38/1/2 35/1/2 41/1/2
f 36/1/2 34/1/2 42/1/2
f 41/3/2 36/3/2 42/3/2
f 39/4/2 40/4/2 43/4/2
f 37/2/2 39/2/2 43/2/2
f 43/4/2 40/4/2 44/4/2
f 44/4/2 40/4/2 45/4/2
f 40/2/2 38/2/2 46/2/2
f 45/4/2 40/4/2 46/4/2
f 37/2/2 43/2/2 47/2/2
f 43/2/2 44/2/2 47/2/2
f 44/4/2 45/4/2 48/4/2
f 47/2/2 44/2/2 48/2/2
f 45/2/2 46/2/2 49/2/2
f 48/4/2 45/4/2 49/4/2
f 46/2/2 38/2/2 50/2/2
f 49/2/2 46/2/2 50/2/2
f 37/2/2 47/2/2 51/2/2
f 48/4/2 49/4/2 51/4/2
f 49/4/2 50/4/2 51/4/2
f 47/4/2 48/4/2 51/4/2
f 51/4/2 50/4/2 52/4/2
f 52/4/2 50/4/2 53/4/2
f 50/2/2 38/2/2 54/2/2
f 53/4/2 50/4/2 54/4/2
f 52/4/2 53/4/2 55/4/2
f 51/2/2 52/2/2 55/2/2
f 53/2/2 54/2/2 56/2/2
f 55/4/2 53/4/2 56/4/2
f 33/1/2 37/1/2 57/1/2
f 37/2/2 51/2/2 57/2/2
f 55/2/2 56/2/2 57/2/2
f 51/2/2 55/2/2 57/2/2
f 38/1/2 41/1/2 58/1/2
f 57/2/2 56/2/2 58/2/2
f 54/2/2 38/2/2 58/2/2
f 41/1/2 42/1/2 58/1/2
f 56/2/2 54/2/2 58/2/2
f 33/1/2 57/1/2 59/1/2
f 57/1/2 58/1/2 59/1/2
f 58/1/2 42/1/2 60/1/2
f 59/1/2 58/1/2 60/1/2
f 42/1/2 34/1/2 60/1/2
f 64/3/3 62/3/3 61/3/3
f 65/1/3 63/1/3 62/1/3
f 65/3/3 62/3/3 64/3/3
f 66/1/3 63/1/3 65/1/3
f 67/3/4 68/3/4 70/3/4
f 68/1/4 69/1/4 71/1/4
f 70/3/4 68/3/4 71/3/4
f 71/1/4 69/1/4 72/1/4
f 75/3/5 74/3/5 73/3/5
f 76/3/5 74/3/5 75/3/5
f 77/1/6 78/1/6 79/1/6
f 79/1/6 78/1/6 80/1/6
