# MagicaVoxel @ Ephtracy

# group
g DoorFrame01

# material
mtllib DoorFrame01.mtl
usemtl palette

# normals
vn -1 0 0
vn 1 0 0
vn 0 0 1
vn 0 0 -1
vn 0 -1 0
vn 0 1 0

# texcoords
vt 0.970703 0.5
vt 0.974609 0.5
vt 0.986328 0.5
vt 0.994141 0.5

# verts
v -4 0 11
v -4 0 9
v -4 0 -10
v -4 0 -12
v -4 33 9
v -4 33 -10
v -4 35 11
v -4 35 -12
v -3 0 16
v -3 0 12
v -3 0 11
v -3 0 -12
v -3 0 -15
v -3 0 -16
v -3 1 15
v -3 1 14
v -3 1 -13
v -3 1 -15
v -3 2 15
v -3 2 14
v -3 3 15
v -3 3 14
v -3 4 15
v -3 4 14
v -3 10 -15
v -3 10 -16
v -3 11 15
v -3 11 14
v -3 11 -14
v -3 11 -15
v -3 11 -16
v -3 12 15
v -3 12 14
v -3 12 -14
v -3 12 -15
v -3 14 -13
v -3 14 -14
v -3 15 -13
v -3 15 -14
v -3 18 14
v -3 18 13
v -3 19 15
v -3 19 14
v -3 19 13
v -3 20 15
v -3 20 14
v -3 20 13
v -3 21 14
v -3 21 13
v -3 29 -14
v -3 29 -15
v -3 30 -14
v -3 30 -15
v -3 31 -14
v -3 31 -16
v -3 32 14
v -3 32 13
v -3 32 -14
v -3 32 -15
v -3 33 14
v -3 33 13
v -3 33 12
v -3 34 13
v -3 34 12
v -3 35 11
v -3 35 -12
v -3 36 12
v -3 36 -13
v -3 36 -15
v -3 36 -16
v -3 37 -0
v -3 37 -1
v -3 38 16
v -3 38 15
v -3 38 6
v -3 38 5
v -3 38 -0
v -3 38 -1
v -3 38 -5
v -3 38 -6
v -3 38 -7
v -3 38 -8
v -3 39 6
v -3 39 5
v -3 39 -5
v -3 39 -6
v -3 39 -7
v -3 39 -8
v -3 39 -15
v -3 39 -16
v -3 40 16
v -3 40 15
v -3 40 -6
v -3 40 -7
v -3 40 -15
v -3 40 -16
v 1 16 -10
v 1 16 -11
v 1 18 -10
v 1 18 -11
v -1 16 -10
v -1 16 -11
v -1 18 -10
v -1 18 -11
v 2 0 16
v 2 0 12
v 2 0 11
v 2 0 -12
v 2 0 -13
v 2 0 -14
v 2 0 -16
v 2 1 -14
v 2 1 -15
v 2 2 -15
v 2 2 -16
v 2 4 16
v 2 4 15
v 2 5 16
v 2 5 15
v 2 5 14
v 2 6 15
v 2 6 14
v 2 6 13
v 2 9 14
v 2 9 13
v 2 12 -14
v 2 12 -15
v 2 16 -14
v 2 16 -15
v 2 21 15
v 2 21 14
v 2 22 15
v 2 22 14
v 2 22 13
v 2 23 14
v 2 23 13
v 2 25 -14
v 2 25 -15
v 2 26 -14
v 2 26 -15
v 2 35 11
v 2 35 -12
v 2 36 12
v 2 36 -13
v 2 36 -15
v 2 36 -16
v 2 37 6
v 2 37 5
v 2 37 -15
v 2 37 -16
v 2 38 16
v 2 38 15
v 2 38 7
v 2 38 6
v 2 38 5
v 2 38 -5
v 2 38 -6
v 2 38 -7
v 2 38 -8
v 2 39 7
v 2 39 6
v 2 39 -5
v 2 39 -6
v 2 39 -7
v 2 39 -8
v 2 40 16
v 2 40 15
v 2 40 -6
v 2 40 -7
v 2 40 -16
v 3 0 11
v 3 0 9
v 3 0 -10
v 3 0 -12
v 3 33 9
v 3 33 -10
v 3 35 11
v 3 35 -12
v -3 0 16
v -3 38 16
v -3 40 16
v -2 38 16
v -2 40 16
v 1 4 16
v 1 5 16
v 1 38 16
v 1 40 16
v 2 0 16
v 2 4 16
v 2 5 16
v 2 38 16
v 2 40 16
v -4 0 11
v -4 35 11
v -3 0 11
v -3 35 11
v 2 0 11
v 2 35 11
v 3 0 11
v 3 35 11
v -4 0 -10
v -4 33 -10
v -1 16 -10
v -1 18 -10
v 1 16 -10
v 1 18 -10
v 3 0 -10
v 3 33 -10
v -1 16 -11
v -1 18 -11
v 1 16 -11
v 1 18 -11
v -4 0 9
v -4 33 9
v 3 0 9
v 3 33 9
v -4 0 -12
v -4 35 -12
v -3 0 -12
v -3 35 -12
v 2 0 -12
v 2 35 -12
v 3 0 -12
v 3 35 -12
v -3 0 -16
v -3 10 -16
v -3 11 -16
v -3 31 -16
v -3 36 -16
v -3 39 -16
v -3 40 -16
v -2 10 -16
v -2 11 -16
v -2 31 -16
v -2 36 -16
v -2 39 -16
v -2 40 -16
v 1 0 -16
v 1 2 -16
v 1 36 -16
v 1 37 -16
v 2 0 -16
v 2 2 -16
v 2 36 -16
v 2 37 -16
v 2 40 -16
v -3 0 16
v 2 0 16
v -3 0 12
v -2 0 12
v 1 0 12
v 2 0 12
v -4 0 11
v -3 0 11
v -2 0 11
v 1 0 11
v 2 0 11
v 3 0 11
v -3 0 10
v 2 0 10
v -4 0 9
v 3 0 9
v -4 0 -10
v 3 0 -10
v -3 0 -11
v 2 0 -11
v -4 0 -12
v -3 0 -12
v -2 0 -12
v 1 0 -12
v 2 0 -12
v 3 0 -12
v 1 0 -13
v 2 0 -13
v 1 0 -14
v 2 0 -14
v -3 0 -15
v -2 0 -15
v -3 0 -16
v 1 0 -16
v 2 0 -16
v -1 18 -10
v 1 18 -10
v -1 18 -11
v 1 18 -11
v -4 33 9
v 3 33 9
v -4 33 -10
v 3 33 -10
v -1 16 -10
v 1 16 -10
v -1 16 -11
v 1 16 -11
v -4 35 11
v -3 35 11
v 2 35 11
v 3 35 11
v -4 35 -12
v -3 35 -12
v 2 35 -12
v 3 35 -12
v -3 40 16
v -2 40 16
v 1 40 16
v 2 40 16
v -3 40 15
v -2 40 15
v 1 40 15
v 2 40 15
v -3 40 -6
v -2 40 -6
v 1 40 -6
v 2 40 -6
v -3 40 -7
v -2 40 -7
v 1 40 -7
v 2 40 -7
v -3 40 -15
v -2 40 -15
v -3 40 -16
v -2 40 -16
v 2 40 -16

# faces
f 5/4/1 2/4/1 1/4/1
f 6/4/1 4/4/1 3/4/1
f 7/4/1 5/4/1 1/4/1
f 7/4/1 6/4/1 5/4/1
f 8/4/1 4/4/1 6/4/1
f 8/4/1 6/4/1 7/4/1
f 15/1/1 10/1/1 9/1/1
f 16/1/1 10/1/1 15/1/1
f 17/2/1 13/2/1 12/2/1
f 18/1/1 14/1/1 13/1/1
f 18/2/1 13/2/1 17/2/1
f 19/1/1 15/1/1 9/1/1
f 19/2/1 16/2/1 15/2/1
f 20/1/1 10/1/1 16/1/1
f 20/2/1 16/2/1 19/2/1
f 21/1/1 19/1/1 9/1/1
f 21/1/1 20/1/1 19/1/1
f 22/1/1 10/1/1 20/1/1
f 22/1/1 20/1/1 21/1/1
f 23/1/1 21/1/1 9/1/1
f 23/2/1 22/2/1 21/2/1
f 24/1/1 10/1/1 22/1/1
f 24/2/1 22/2/1 23/2/1
f 25/1/1 14/1/1 18/1/1
f 25/1/1 18/1/1 17/1/1
f 26/1/1 14/1/1 25/1/1
f 27/1/1 23/1/1 9/1/1
f 27/1/1 24/1/1 23/1/1
f 28/1/1 10/1/1 24/1/1
f 28/1/1 24/1/1 27/1/1
f 29/1/1 25/1/1 17/1/1
f 30/2/1 26/2/1 25/2/1
f 30/1/1 25/1/1 29/1/1
f 31/2/1 26/2/1 30/2/1
f 32/1/1 27/1/1 9/1/1
f 32/2/1 28/2/1 27/2/1
f 33/1/1 10/1/1 28/1/1
f 33/2/1 28/2/1 32/2/1
f 34/1/1 29/1/1 17/1/1
f 34/2/1 30/2/1 29/2/1
f 35/1/1 31/1/1 30/1/1
f 35/2/1 30/2/1 34/2/1
f 36/2/1 17/2/1 12/2/1
f 36/1/1 34/1/1 17/1/1
f 36/1/1 35/1/1 34/1/1
f 37/1/1 35/1/1 36/1/1
f 38/2/1 36/2/1 12/2/1
f 38/2/1 37/2/1 36/2/1
f 39/1/1 35/1/1 37/1/1
f 39/2/1 37/2/1 38/2/1
f 40/1/1 10/1/1 33/1/1
f 40/1/1 33/1/1 32/1/1
f 41/1/1 10/1/1 40/1/1
f 42/1/1 32/1/1 9/1/1
f 42/1/1 40/1/1 32/1/1
f 43/2/1 41/2/1 40/2/1
f 43/1/1 40/1/1 42/1/1
f 44/1/1 10/1/1 41/1/1
f 44/2/1 41/2/1 43/2/1
f 45/2/1 43/2/1 42/2/1
f 45/1/1 42/1/1 9/1/1
f 46/1/1 44/1/1 43/1/1
f 46/2/1 43/2/1 45/2/1
f 47/1/1 10/1/1 44/1/1
f 47/1/1 44/1/1 46/1/1
f 48/1/1 46/1/1 45/1/1
f 48/2/1 47/2/1 46/2/1
f 49/1/1 10/1/1 47/1/1
f 49/2/1 47/2/1 48/2/1
f 50/1/1 35/1/1 39/1/1
f 50/1/1 39/1/1 38/1/1
f 51/1/1 31/1/1 35/1/1
f 51/1/1 35/1/1 50/1/1
f 52/1/1 50/1/1 38/1/1
f 52/2/1 51/2/1 50/2/1
f 53/1/1 31/1/1 51/1/1
f 53/2/1 51/2/1 52/2/1
f 54/1/1 52/1/1 38/1/1
f 54/1/1 53/1/1 52/1/1
f 55/1/1 31/1/1 53/1/1
f 55/1/1 53/1/1 54/1/1
f 56/1/1 48/1/1 45/1/1
f 56/1/1 49/1/1 48/1/1
f 57/1/1 10/1/1 49/1/1
f 57/1/1 49/1/1 56/1/1
f 58/1/1 54/1/1 38/1/1
f 58/2/1 55/2/1 54/2/1
f 59/2/1 55/2/1 58/2/1
f 60/1/1 56/1/1 45/1/1
f 60/2/1 57/2/1 56/2/1
f 61/1/1 10/1/1 57/1/1
f 61/2/1 57/2/1 60/2/1
f 62/2/1 11/2/1 10/2/1
f 62/1/1 10/1/1 61/1/1
f 63/1/1 61/1/1 60/1/1
f 63/2/1 62/2/1 61/2/1
f 64/2/1 11/2/1 62/2/1
f 64/2/1 62/2/1 63/2/1
f 65/2/1 11/2/1 64/2/1
f 66/2/1 38/2/1 12/2/1
f 67/2/1 65/2/1 64/2/1
f 67/2/1 66/2/1 65/2/1
f 67/1/1 64/1/1 63/1/1
f 68/1/1 59/1/1 58/1/1
f 68/2/1 66/2/1 67/2/1
f 68/2/1 38/2/1 66/2/1
f 68/1/1 58/1/1 38/1/1
f 69/2/1 55/2/1 59/2/1
f 69/1/1 59/1/1 68/1/1
f 70/2/1 55/2/1 69/2/1
f 71/1/1 68/1/1 67/1/1
f 71/1/1 69/1/1 68/1/1
f 71/1/1 70/1/1 69/1/1
f 72/1/1 70/1/1 71/1/1
f 73/1/1 60/1/1 45/1/1
f 73/1/1 63/1/1 60/1/1
f 73/1/1 67/1/1 63/1/1
f 73/1/1 71/1/1 67/1/1
f 73/1/1 45/1/1 9/1/1
f 74/1/1 71/1/1 73/1/1
f 75/1/1 71/1/1 74/1/1
f 76/1/1 71/1/1 75/1/1
f 77/2/1 72/2/1 71/2/1
f 77/1/1 71/1/1 76/1/1
f 78/1/1 70/1/1 72/1/1
f 78/2/1 72/2/1 77/2/1
f 79/1/1 70/1/1 78/1/1
f 80/1/1 70/1/1 79/1/1
f 81/1/1 70/1/1 80/1/1
f 82/1/1 70/1/1 81/1/1
f 83/2/1 76/2/1 75/2/1
f 83/1/1 75/1/1 74/1/1
f 84/1/1 77/1/1 76/1/1
f 84/2/1 76/2/1 83/2/1
f 84/1/1 78/1/1 77/1/1
f 84/1/1 79/1/1 78/1/1
f 85/2/1 80/2/1 79/2/1
f 85/1/1 79/1/1 84/1/1
f 86/1/1 81/1/1 80/1/1
f 86/2/1 80/2/1 85/2/1
f 87/2/1 82/2/1 81/2/1
f 87/1/1 81/1/1 86/1/1
f 88/1/1 70/1/1 82/1/1
f 88/2/1 82/2/1 87/2/1
f 89/1/1 70/1/1 88/1/1
f 90/1/1 70/1/1 89/1/1
f 91/2/1 74/2/1 73/2/1
f 92/1/1 83/1/1 74/1/1
f 92/2/1 74/2/1 91/2/1
f 92/1/1 86/1/1 85/1/1
f 92/1/1 85/1/1 84/1/1
f 92/1/1 84/1/1 83/1/1
f 93/2/1 87/2/1 86/2/1
f 93/1/1 86/1/1 92/1/1
f 94/1/1 89/1/1 88/1/1
f 94/2/1 87/2/1 93/2/1
f 94/1/1 88/1/1 87/1/1
f 95/2/1 90/2/1 89/2/1
f 95/1/1 89/1/1 94/1/1
f 96/2/1 90/2/1 95/2/1
f 99/4/1 98/4/1 97/4/1
f 100/4/1 98/4/1 99/4/1
f 101/4/2 102/4/2 103/4/2
f 103/4/2 102/4/2 104/4/2
f 109/1/2 110/1/2 112/1/2
f 110/2/2 111/2/2 112/2/2
f 112/2/2 111/2/2 113/2/2
f 112/1/2 113/1/2 114/1/2
f 113/2/2 111/2/2 114/2/2
f 114/2/2 111/2/2 115/2/2
f 105/1/2 106/1/2 116/1/2
f 116/1/2 106/1/2 117/1/2
f 116/2/2 117/2/2 118/2/2
f 117/1/2 106/1/2 119/1/2
f 118/2/2 117/2/2 119/2/2
f 119/1/2 106/1/2 120/1/2
f 118/1/2 119/1/2 121/1/2
f 119/2/2 120/2/2 121/2/2
f 120/1/2 106/1/2 122/1/2
f 121/2/2 120/2/2 122/2/2
f 122/1/2 106/1/2 123/1/2
f 121/1/2 122/1/2 124/1/2
f 122/2/2 123/2/2 124/2/2
f 123/1/2 106/1/2 125/1/2
f 124/2/2 123/2/2 125/2/2
f 109/1/2 112/1/2 126/1/2
f 112/1/2 114/1/2 126/1/2
f 114/1/2 115/1/2 126/1/2
f 126/1/2 115/1/2 127/1/2
f 109/1/2 126/1/2 128/1/2
f 126/2/2 127/2/2 128/2/2
f 127/1/2 115/1/2 129/1/2
f 128/2/2 127/2/2 129/2/2
f 124/1/2 125/1/2 130/1/2
f 121/1/2 124/1/2 130/1/2
f 118/1/2 121/1/2 130/1/2
f 130/1/2 125/1/2 131/1/2
f 118/1/2 130/1/2 132/1/2
f 130/2/2 131/2/2 132/2/2
f 131/1/2 125/1/2 133/1/2
f 132/2/2 131/2/2 133/2/2
f 125/1/2 106/1/2 134/1/2
f 133/1/2 125/1/2 134/1/2
f 132/1/2 133/1/2 135/1/2
f 133/2/2 134/2/2 135/2/2
f 134/1/2 106/1/2 136/1/2
f 135/2/2 134/2/2 136/2/2
f 128/1/2 129/1/2 137/1/2
f 109/1/2 128/1/2 137/1/2
f 129/1/2 115/1/2 138/1/2
f 137/1/2 129/1/2 138/1/2
f 109/1/2 137/1/2 139/1/2
f 137/2/2 138/2/2 139/2/2
f 138/1/2 115/1/2 140/1/2
f 139/2/2 138/2/2 140/2/2
f 106/2/2 107/2/2 141/2/2
f 108/2/2 109/2/2 142/2/2
f 106/2/2 141/2/2 143/2/2
f 141/2/2 142/2/2 143/2/2
f 136/1/2 106/1/2 143/1/2
f 135/1/2 136/1/2 143/1/2
f 142/2/2 109/2/2 144/2/2
f 143/2/2 142/2/2 144/2/2
f 109/1/2 139/1/2 144/1/2
f 139/1/2 140/1/2 144/1/2
f 140/1/2 115/1/2 145/1/2
f 144/1/2 140/1/2 145/1/2
f 145/1/2 115/1/2 146/1/2
f 143/1/2 144/1/2 147/1/2
f 144/1/2 145/1/2 147/1/2
f 147/1/2 145/1/2 148/1/2
f 145/2/2 146/2/2 149/2/2
f 148/1/2 145/1/2 149/1/2
f 149/2/2 146/2/2 150/2/2
f 135/1/2 143/1/2 151/1/2
f 132/1/2 135/1/2 151/1/2
f 118/1/2 132/1/2 151/1/2
f 143/1/2 147/1/2 151/1/2
f 151/1/2 147/1/2 152/1/2
f 152/1/2 147/1/2 153/1/2
f 147/2/2 148/2/2 154/2/2
f 153/1/2 147/1/2 154/1/2
f 149/1/2 150/1/2 155/1/2
f 154/2/2 148/2/2 155/2/2
f 148/1/2 149/1/2 155/1/2
f 155/1/2 150/1/2 156/1/2
f 156/1/2 150/1/2 157/1/2
f 157/1/2 150/1/2 158/1/2
f 158/1/2 150/1/2 159/1/2
f 153/2/2 154/2/2 160/2/2
f 152/1/2 153/1/2 160/1/2
f 154/1/2 155/1/2 161/1/2
f 160/2/2 154/2/2 161/2/2
f 155/1/2 156/1/2 161/1/2
f 156/2/2 157/2/2 162/2/2
f 161/1/2 156/1/2 162/1/2
f 157/1/2 158/1/2 163/1/2
f 162/2/2 157/2/2 163/2/2
f 158/2/2 159/2/2 164/2/2
f 163/1/2 158/1/2 164/1/2
f 159/1/2 150/1/2 165/1/2
f 164/2/2 159/2/2 165/2/2
f 151/2/2 152/2/2 166/2/2
f 162/1/2 163/1/2 167/1/2
f 166/2/2 152/2/2 167/2/2
f 152/1/2 160/1/2 167/1/2
f 161/1/2 162/1/2 167/1/2
f 160/1/2 161/1/2 167/1/2
f 163/2/2 164/2/2 168/2/2
f 167/1/2 163/1/2 168/1/2
f 164/1/2 165/1/2 169/1/2
f 168/2/2 164/2/2 169/2/2
f 165/1/2 150/1/2 170/1/2
f 169/1/2 165/1/2 170/1/2
f 171/4/2 172/4/2 175/4/2
f 173/4/2 174/4/2 176/4/2
f 171/4/2 175/4/2 177/4/2
f 175/4/2 176/4/2 177/4/2
f 176/4/2 174/4/2 178/4/2
f 177/4/2 176/4/2 178/4/2
f 182/1/3 180/1/3 179/1/3
f 182/2/3 181/2/3 180/2/3
f 183/2/3 181/2/3 182/2/3
f 184/1/3 182/1/3 179/1/3
f 184/1/3 183/1/3 182/1/3
f 185/1/3 183/1/3 184/1/3
f 186/1/3 183/1/3 185/1/3
f 187/1/3 183/1/3 186/1/3
f 188/1/3 184/1/3 179/1/3
f 189/2/3 185/2/3 184/2/3
f 189/1/3 184/1/3 188/1/3
f 190/1/3 186/1/3 185/1/3
f 190/2/3 185/2/3 189/2/3
f 191/2/3 187/2/3 186/2/3
f 191/1/3 186/1/3 190/1/3
f 192/2/3 187/2/3 191/2/3
f 195/4/3 194/4/3 193/4/3
f 196/4/3 194/4/3 195/4/3
f 199/4/3 198/4/3 197/4/3
f 200/4/3 198/4/3 199/4/3
f 203/4/3 202/4/3 201/4/3
f 204/4/3 202/4/3 203/4/3
f 205/4/3 203/4/3 201/4/3
f 206/4/3 202/4/3 204/4/3
f 207/4/3 205/4/3 201/4/3
f 207/4/3 206/4/3 205/4/3
f 208/4/3 202/4/3 206/4/3
f 208/4/3 206/4/3 207/4/3
f 211/3/3 210/3/3 209/3/3
f 212/3/3 210/3/3 211/3/3
f 213/4/4 214/4/4 215/4/4
f 215/4/4 214/4/4 216/4/4
f 217/4/4 218/4/4 219/4/4
f 219/4/4 218/4/4 220/4/4
f 221/4/4 222/4/4 223/4/4
f 223/4/4 222/4/4 224/4/4
f 225/1/4 226/1/4 232/1/4
f 226/2/4 227/2/4 232/2/4
f 227/1/4 228/1/4 233/1/4
f 232/2/4 227/2/4 233/2/4
f 228/2/4 229/2/4 234/2/4
f 233/1/4 228/1/4 234/1/4
f 229/1/4 230/1/4 235/1/4
f 234/2/4 229/2/4 235/2/4
f 230/2/4 231/2/4 236/2/4
f 235/1/4 230/1/4 236/1/4
f 236/2/4 231/2/4 237/2/4
f 234/1/4 235/1/4 238/1/4
f 233/1/4 234/1/4 238/1/4
f 236/1/4 237/1/4 238/1/4
f 235/1/4 236/1/4 238/1/4
f 232/1/4 233/1/4 238/1/4
f 225/1/4 232/1/4 238/1/4
f 238/1/4 237/1/4 239/1/4
f 239/1/4 237/1/4 240/1/4
f 240/1/4 237/1/4 241/1/4
f 238/2/4 239/2/4 242/2/4
f 239/1/4 240/1/4 243/1/4
f 242/2/4 239/2/4 243/2/4
f 240/2/4 241/2/4 244/2/4
f 243/1/4 240/1/4 244/1/4
f 241/1/4 237/1/4 245/1/4
f 244/2/4 241/2/4 245/2/4
f 245/1/4 237/1/4 246/1/4
f 249/1/5 248/1/5 247/1/5
f 250/1/5 248/1/5 249/1/5
f 251/1/5 248/1/5 250/1/5
f 252/1/5 248/1/5 251/1/5
f 254/2/5 250/2/5 249/2/5
f 255/1/5 251/1/5 250/1/5
f 255/2/5 250/2/5 254/2/5
f 256/2/5 252/2/5 251/2/5
f 256/1/5 251/1/5 255/1/5
f 257/2/5 252/2/5 256/2/5
f 259/1/5 257/1/5 256/1/5
f 259/4/5 254/4/5 253/4/5
f 259/1/5 256/1/5 255/1/5
f 259/1/5 255/1/5 254/1/5
f 260/4/5 258/4/5 257/4/5
f 260/1/5 257/1/5 259/1/5
f 261/4/5 259/4/5 253/4/5
f 261/4/5 260/4/5 259/4/5
f 262/4/5 258/4/5 260/4/5
f 262/4/5 260/4/5 261/4/5
f 265/4/5 264/4/5 263/4/5
f 266/4/5 264/4/5 265/4/5
f 267/4/5 265/4/5 263/4/5
f 268/1/5 266/1/5 265/1/5
f 268/4/5 265/4/5 267/4/5
f 269/1/5 266/1/5 268/1/5
f 270/1/5 266/1/5 269/1/5
f 271/4/5 264/4/5 266/4/5
f 271/1/5 266/1/5 270/1/5
f 272/4/5 264/4/5 271/4/5
f 273/1/5 270/1/5 269/1/5
f 273/2/5 271/2/5 270/2/5
f 274/2/5 271/2/5 273/2/5
f 275/1/5 273/1/5 269/1/5
f 275/1/5 274/1/5 273/1/5
f 276/1/5 274/1/5 275/1/5
f 277/2/5 269/2/5 268/2/5
f 278/1/5 275/1/5 269/1/5
f 278/2/5 269/2/5 277/2/5
f 279/1/5 278/1/5 277/1/5
f 280/2/5 276/2/5 275/2/5
f 280/1/5 278/1/5 279/1/5
f 280/1/5 275/1/5 278/1/5
f 281/2/5 276/2/5 280/2/5
f 284/4/5 283/4/5 282/4/5
f 285/4/5 283/4/5 284/4/5
f 288/4/5 287/4/5 286/4/5
f 289/4/5 287/4/5 288/4/5
f 290/4/6 291/4/6 292/4/6
f 292/4/6 291/4/6 293/4/6
f 294/4/6 295/4/6 298/4/6
f 298/4/6 295/4/6 299/4/6
f 296/4/6 297/4/6 300/4/6
f 300/4/6 297/4/6 301/4/6
f 302/2/6 303/2/6 306/2/6
f 303/1/6 304/1/6 307/1/6
f 306/2/6 303/2/6 307/2/6
f 304/2/6 305/2/6 308/2/6
f 307/1/6 304/1/6 308/1/6
f 308/2/6 305/2/6 309/2/6
f 306/1/6 307/1/6 310/1/6
f 307/1/6 308/1/6 310/1/6
f 308/1/6 309/1/6 310/1/6
f 310/1/6 309/1/6 311/1/6
f 311/1/6 309/1/6 312/1/6
f 312/1/6 309/1/6 313/1/6
f 310/2/6 311/2/6 314/2/6
f 311/1/6 312/1/6 315/1/6
f 314/2/6 311/2/6 315/2/6
f 312/2/6 313/2/6 316/2/6
f 315/1/6 312/1/6 316/1/6
f 316/2/6 313/2/6 317/2/6
f 314/1/6 315/1/6 318/1/6
f 315/1/6 316/1/6 318/1/6
f 316/1/6 317/1/6 318/1/6
f 318/1/6 317/1/6 319/1/6
f 318/2/6 319/2/6 320/2/6
f 319/1/6 317/1/6 321/1/6
f 320/2/6 319/2/6 321/2/6
f 321/1/6 317/1/6 322/1/6
