# MagicaVoxel @ Ephtracy

# group
g DoubleDoor

# material
mtllib DoubleDoor.mtl
usemtl palette

# normals
vn -1 0 0
vn 1 0 0
vn 0 0 1
vn 0 0 -1
vn 0 -1 0
vn 0 1 0

# texcoords
vt 0.458984 0.5
vt 0.462891 0.5
vt 0.736328 0.5
vt 0.912109 0.5
vt 0.982422 0.5
vt 0.986328 0.5

# verts
v -2 0 12
v -2 0 11
v -2 0 1
v -2 0 -0
v -2 4 10
v -2 4 7
v -2 4 6
v -2 4 3
v -2 10 10
v -2 10 7
v -2 10 6
v -2 10 3
v -2 11 10
v -2 11 7
v -2 11 6
v -2 11 3
v -2 13 3
v -2 13 1
v -2 17 10
v -2 17 7
v -2 17 6
v -2 17 3
v -2 18 10
v -2 18 7
v -2 18 6
v -2 18 3
v -2 20 3
v -2 20 1
v -2 24 10
v -2 24 7
v -2 24 6
v -2 24 3
v -2 25 10
v -2 25 7
v -2 25 6
v -2 25 3
v -2 31 10
v -2 31 7
v -2 31 6
v -2 31 3
v -2 34 11
v -2 34 1
v -2 35 12
v -2 35 -0
v -1 4 10
v -1 4 7
v -1 4 6
v -1 4 3
v -1 9 6
v -1 9 3
v -1 10 10
v -1 10 7
v -1 11 10
v -1 11 7
v -1 11 6
v -1 11 3
v -1 13 3
v -1 17 10
v -1 17 7
v -1 17 6
v -1 17 3
v -1 18 10
v -1 18 7
v -1 18 6
v -1 18 3
v -1 20 3
v -1 24 10
v -1 24 7
v -1 24 6
v -1 24 3
v -1 25 10
v -1 25 7
v -1 25 6
v -1 25 3
v -1 31 10
v -1 31 7
v -1 31 6
v -1 31 3
v 1 4 10
v 1 4 7
v 1 4 6
v 1 4 3
v 1 9 6
v 1 9 3
v 1 10 10
v 1 10 7
v 1 11 10
v 1 11 7
v 1 11 6
v 1 11 3
v 1 13 3
v 1 17 10
v 1 17 7
v 1 17 6
v 1 17 3
v 1 18 10
v 1 18 7
v 1 18 6
v 1 18 3
v 1 20 3
v 1 24 10
v 1 24 7
v 1 24 6
v 1 24 3
v 1 25 10
v 1 25 7
v 1 25 6
v 1 25 3
v 1 31 10
v 1 31 7
v 1 31 6
v 1 31 3
v 2 0 12
v 2 0 -0
v 2 4 10
v 2 4 7
v 2 4 6
v 2 4 3
v 2 10 10
v 2 10 7
v 2 10 6
v 2 10 3
v 2 11 10
v 2 11 7
v 2 11 6
v 2 11 3
v 2 13 3
v 2 13 1
v 2 17 10
v 2 17 7
v 2 17 6
v 2 17 3
v 2 18 10
v 2 18 7
v 2 18 6
v 2 18 3
v 2 20 3
v 2 20 1
v 2 24 10
v 2 24 7
v 2 24 6
v 2 24 3
v 2 25 10
v 2 25 7
v 2 25 6
v 2 25 3
v 2 31 10
v 2 31 7
v 2 31 6
v 2 31 3
v 2 35 12
v 2 35 -0
v -2 0 12
v -2 35 12
v 2 0 12
v 2 35 12
v -2 4 7
v -2 10 7
v -2 11 7
v -2 17 7
v -2 18 7
v -2 24 7
v -2 25 7
v -2 31 7
v -1 4 7
v -1 10 7
v -1 11 7
v -1 17 7
v -1 18 7
v -1 24 7
v -1 25 7
v -1 31 7
v 1 4 7
v 1 10 7
v 1 11 7
v 1 17 7
v 1 18 7
v 1 24 7
v 1 25 7
v 1 31 7
v 2 4 7
v 2 10 7
v 2 11 7
v 2 17 7
v 2 18 7
v 2 24 7
v 2 25 7
v 2 31 7
v -2 4 3
v -2 10 3
v -2 11 3
v -2 13 3
v -2 17 3
v -2 18 3
v -2 20 3
v -2 24 3
v -2 25 3
v -2 31 3
v -1 4 3
v -1 9 3
v -1 10 3
v -1 11 3
v -1 13 3
v -1 17 3
v -1 18 3
v -1 20 3
v -1 24 3
v -1 25 3
v -1 31 3
v 1 4 3
v 1 9 3
v 1 10 3
v 1 11 3
v 1 13 3
v 1 17 3
v 1 18 3
v 1 20 3
v 1 24 3
v 1 25 3
v 1 31 3
v 2 4 3
v 2 10 3
v 2 11 3
v 2 13 3
v 2 17 3
v 2 18 3
v 2 20 3
v 2 24 3
v 2 25 3
v 2 31 3
v -2 4 10
v -2 10 10
v -2 11 10
v -2 17 10
v -2 18 10
v -2 24 10
v -2 25 10
v -2 31 10
v -1 4 10
v -1 10 10
v -1 11 10
v -1 17 10
v -1 18 10
v -1 24 10
v -1 25 10
v -1 31 10
v 1 4 10
v 1 10 10
v 1 11 10
v 1 17 10
v 1 18 10
v 1 24 10
v 1 25 10
v 1 31 10
v 2 4 10
v 2 10 10
v 2 11 10
v 2 17 10
v 2 18 10
v 2 24 10
v 2 25 10
v 2 31 10
v -2 4 6
v -2 10 6
v -2 11 6
v -2 17 6
v -2 18 6
v -2 24 6
v -2 25 6
v -2 31 6
v -1 4 6
v -1 9 6
v -1 10 6
v -1 11 6
v -1 17 6
v -1 18 6
v -1 24 6
v -1 25 6
v -1 31 6
v 1 4 6
v 1 9 6
v 1 10 6
v 1 11 6
v 1 17 6
v 1 18 6
v 1 24 6
v 1 25 6
v 1 31 6
v 2 4 6
v 2 10 6
v 2 11 6
v 2 17 6
v 2 18 6
v 2 24 6
v 2 25 6
v 2 31 6
v -2 0 -0
v -2 35 -0
v 2 0 -0
v 2 35 -0
v -2 0 12
v 2 0 12
v -2 0 11
v -1 0 11
v -2 0 1
v -1 0 1
v -2 0 -0
v 2 0 -0
v -2 10 10
v -1 10 10
v 1 10 10
v 2 10 10
v -2 10 7
v -1 10 7
v 1 10 7
v 2 10 7
v -2 10 6
v -1 10 6
v 1 10 6
v 2 10 6
v -2 10 3
v -1 10 3
v 1 10 3
v 2 10 3
v -2 17 10
v -1 17 10
v 1 17 10
v 2 17 10
v -2 17 7
v -1 17 7
v 1 17 7
v 2 17 7
v -2 17 6
v -1 17 6
v 1 17 6
v 2 17 6
v -2 17 3
v -1 17 3
v 1 17 3
v 2 17 3
v -2 24 10
v -1 24 10
v 1 24 10
v 2 24 10
v -2 24 7
v -1 24 7
v 1 24 7
v 2 24 7
v -2 24 6
v -1 24 6
v 1 24 6
v 2 24 6
v -2 24 3
v -1 24 3
v 1 24 3
v 2 24 3
v -2 31 10
v -1 31 10
v 1 31 10
v 2 31 10
v -2 31 7
v -1 31 7
v 1 31 7
v 2 31 7
v -2 31 6
v -1 31 6
v 1 31 6
v 2 31 6
v -2 31 3
v -1 31 3
v 1 31 3
v 2 31 3
v -2 4 10
v -1 4 10
v 1 4 10
v 2 4 10
v -2 4 7
v -1 4 7
v 1 4 7
v 2 4 7
v -2 4 6
v -1 4 6
v 1 4 6
v 2 4 6
v -2 4 3
v -1 4 3
v 1 4 3
v 2 4 3
v -1 9 6
v 1 9 6
v -1 9 3
v 1 9 3
v -2 11 10
v -1 11 10
v 1 11 10
v 2 11 10
v -2 11 7
v -1 11 7
v 1 11 7
v 2 11 7
v -2 11 6
v -1 11 6
v 1 11 6
v 2 11 6
v -2 11 3
v -1 11 3
v 1 11 3
v 2 11 3
v -2 18 10
v -1 18 10
v 1 18 10
v 2 18 10
v -2 18 7
v -1 18 7
v 1 18 7
v 2 18 7
v -2 18 6
v -1 18 6
v 1 18 6
v 2 18 6
v -2 18 3
v -1 18 3
v 1 18 3
v 2 18 3
v -2 25 10
v -1 25 10
v 1 25 10
v 2 25 10
v -2 25 7
v -1 25 7
v 1 25 7
v 2 25 7
v -2 25 6
v -1 25 6
v 1 25 6
v 2 25 6
v -2 25 3
v -1 25 3
v 1 25 3
v 2 25 3
v -2 35 12
v 2 35 12
v -2 35 -0
v 2 35 -0

# faces
f 5/5/1 3/5/1 2/5/1
f 6/5/1 3/5/1 5/5/1
f 7/5/1 3/5/1 6/5/1
f 8/5/1 3/5/1 7/5/1
f 9/5/1 5/5/1 2/5/1
f 10/5/1 7/5/1 6/5/1
f 11/5/1 7/5/1 10/5/1
f 12/5/1 3/5/1 8/5/1
f 13/5/1 11/5/1 10/5/1
f 13/5/1 12/5/1 11/5/1
f 13/5/1 9/5/1 2/5/1
f 13/5/1 10/5/1 9/5/1
f 14/5/1 12/5/1 13/5/1
f 15/5/1 12/5/1 14/5/1
f 16/5/1 3/5/1 12/5/1
f 16/5/1 12/5/1 15/5/1
f 17/5/1 3/5/1 16/5/1
f 18/6/1 4/6/1 3/6/1
f 18/5/1 3/5/1 17/5/1
f 19/5/1 13/5/1 2/5/1
f 20/5/1 15/5/1 14/5/1
f 21/5/1 15/5/1 20/5/1
f 22/1/1 18/1/1 17/1/1
f 23/5/1 19/5/1 2/5/1
f 23/5/1 22/5/1 21/5/1
f 23/5/1 21/5/1 20/5/1
f 23/5/1 20/5/1 19/5/1
f 24/5/1 22/5/1 23/5/1
f 25/5/1 22/5/1 24/5/1
f 26/1/1 18/1/1 22/1/1
f 26/5/1 22/5/1 25/5/1
f 27/1/1 18/1/1 26/1/1
f 28/6/1 4/6/1 18/6/1
f 28/1/1 18/1/1 27/1/1
f 29/5/1 23/5/1 2/5/1
f 30/5/1 25/5/1 24/5/1
f 31/5/1 25/5/1 30/5/1
f 32/5/1 28/5/1 27/5/1
f 33/5/1 29/5/1 2/5/1
f 33/5/1 32/5/1 31/5/1
f 33/5/1 31/5/1 30/5/1
f 33/5/1 30/5/1 29/5/1
f 34/5/1 32/5/1 33/5/1
f 35/5/1 32/5/1 34/5/1
f 36/5/1 28/5/1 32/5/1
f 36/5/1 32/5/1 35/5/1
f 37/5/1 33/5/1 2/5/1
f 38/5/1 35/5/1 34/5/1
f 39/5/1 35/5/1 38/5/1
f 40/5/1 28/5/1 36/5/1
f 41/6/1 2/6/1 1/6/1
f 41/5/1 40/5/1 39/5/1
f 41/5/1 37/5/1 2/5/1
f 41/5/1 39/5/1 38/5/1
f 41/5/1 38/5/1 37/5/1
f 42/5/1 28/5/1 40/5/1
f 42/5/1 40/5/1 41/5/1
f 42/6/1 4/6/1 28/6/1
f 43/6/1 41/6/1 1/6/1
f 43/6/1 42/6/1 41/6/1
f 44/6/1 4/6/1 42/6/1
f 44/6/1 42/6/1 43/6/1
f 49/3/1 48/3/1 47/3/1
f 50/3/1 48/3/1 49/3/1
f 51/3/1 46/3/1 45/3/1
f 52/3/1 46/3/1 51/3/1
f 57/3/1 56/3/1 55/3/1
f 58/3/1 54/3/1 53/3/1
f 59/3/1 54/3/1 58/3/1
f 60/3/1 57/3/1 55/3/1
f 61/3/1 57/3/1 60/3/1
f 66/3/1 65/3/1 64/3/1
f 67/3/1 63/3/1 62/3/1
f 68/3/1 63/3/1 67/3/1
f 69/3/1 66/3/1 64/3/1
f 70/3/1 66/3/1 69/3/1
f 75/3/1 72/3/1 71/3/1
f 76/3/1 72/3/1 75/3/1
f 77/3/1 74/3/1 73/3/1
f 78/3/1 74/3/1 77/3/1
f 81/3/2 82/3/2 83/3/2
f 83/3/2 82/3/2 84/3/2
f 79/3/2 80/3/2 85/3/2
f 85/3/2 80/3/2 86/3/2
f 89/3/2 90/3/2 91/3/2
f 87/3/2 88/3/2 92/3/2
f 92/3/2 88/3/2 93/3/2
f 89/3/2 91/3/2 94/3/2
f 94/3/2 91/3/2 95/3/2
f 98/3/2 99/3/2 100/3/2
f 96/3/2 97/3/2 101/3/2
f 101/3/2 97/3/2 102/3/2
f 98/3/2 100/3/2 103/3/2
f 103/3/2 100/3/2 104/3/2
f 105/3/2 106/3/2 109/3/2
f 109/3/2 106/3/2 110/3/2
f 107/3/2 108/3/2 111/3/2
f 111/3/2 108/3/2 112/3/2
f 113/6/2 114/6/2 115/6/2
f 115/6/2 114/6/2 116/6/2
f 116/6/2 114/6/2 117/6/2
f 117/6/2 114/6/2 118/6/2
f 113/6/2 115/6/2 119/6/2
f 116/6/2 117/6/2 120/6/2
f 120/6/2 117/6/2 121/6/2
f 118/6/2 114/6/2 122/6/2
f 120/6/2 121/6/2 123/6/2
f 121/6/2 122/6/2 123/6/2
f 113/6/2 119/6/2 123/6/2
f 119/6/2 120/6/2 123/6/2
f 123/6/2 122/6/2 124/6/2
f 124/6/2 122/6/2 125/6/2
f 122/6/2 114/6/2 126/6/2
f 125/6/2 122/6/2 126/6/2
f 126/6/2 114/6/2 127/6/2
f 127/6/2 114/6/2 128/6/2
f 113/6/2 123/6/2 129/6/2
f 124/6/2 125/6/2 130/6/2
f 130/6/2 125/6/2 131/6/2
f 127/2/2 128/2/2 132/2/2
f 113/6/2 129/6/2 133/6/2
f 131/6/2 132/6/2 133/6/2
f 130/6/2 131/6/2 133/6/2
f 129/6/2 130/6/2 133/6/2
f 133/6/2 132/6/2 134/6/2
f 134/6/2 132/6/2 135/6/2
f 132/2/2 128/2/2 136/2/2
f 135/6/2 132/6/2 136/6/2
f 136/2/2 128/2/2 137/2/2
f 128/6/2 114/6/2 138/6/2
f 137/2/2 128/2/2 138/2/2
f 113/6/2 133/6/2 139/6/2
f 134/6/2 135/6/2 140/6/2
f 140/6/2 135/6/2 141/6/2
f 137/6/2 138/6/2 142/6/2
f 113/6/2 139/6/2 143/6/2
f 141/6/2 142/6/2 143/6/2
f 140/6/2 141/6/2 143/6/2
f 139/6/2 140/6/2 143/6/2
f 143/6/2 142/6/2 144/6/2
f 144/6/2 142/6/2 145/6/2
f 142/6/2 138/6/2 146/6/2
f 145/6/2 142/6/2 146/6/2
f 113/6/2 143/6/2 147/6/2
f 144/6/2 145/6/2 148/6/2
f 148/6/2 145/6/2 149/6/2
f 146/6/2 138/6/2 150/6/2
f 113/6/2 147/6/2 151/6/2
f 149/6/2 150/6/2 151/6/2
f 148/6/2 149/6/2 151/6/2
f 147/6/2 148/6/2 151/6/2
f 150/6/2 138/6/2 152/6/2
f 151/6/2 150/6/2 152/6/2
f 138/6/2 114/6/2 152/6/2
f 155/6/3 154/6/3 153/6/3
f 156/6/3 154/6/3 155/6/3
f 165/5/3 158/5/3 157/5/3
f 166/5/3 158/5/3 165/5/3
f 167/5/3 160/5/3 159/5/3
f 168/5/3 160/5/3 167/5/3
f 169/5/3 162/5/3 161/5/3
f 170/5/3 162/5/3 169/5/3
f 171/5/3 164/5/3 163/5/3
f 172/5/3 164/5/3 171/5/3
f 181/6/3 174/6/3 173/6/3
f 182/6/3 174/6/3 181/6/3
f 183/6/3 176/6/3 175/6/3
f 184/6/3 176/6/3 183/6/3
f 185/6/3 178/6/3 177/6/3
f 186/6/3 178/6/3 185/6/3
f 187/6/3 180/6/3 179/6/3
f 188/6/3 180/6/3 187/6/3
f 199/5/3 190/5/3 189/5/3
f 200/5/3 190/5/3 199/5/3
f 201/5/3 190/5/3 200/5/3
f 202/5/3 192/5/3 191/5/3
f 203/1/3 193/1/3 192/1/3
f 203/5/3 192/5/3 202/5/3
f 204/1/3 193/1/3 203/1/3
f 205/1/3 195/1/3 194/1/3
f 206/5/3 196/5/3 195/5/3
f 206/1/3 195/1/3 205/1/3
f 207/5/3 196/5/3 206/5/3
f 208/5/3 198/5/3 197/5/3
f 209/5/3 198/5/3 208/5/3
f 211/4/3 201/4/3 200/4/3
f 212/4/3 201/4/3 211/4/3
f 221/6/3 211/6/3 210/6/3
f 221/6/3 212/6/3 211/6/3
f 222/6/3 212/6/3 221/6/3
f 223/6/3 214/6/3 213/6/3
f 224/2/3 215/2/3 214/2/3
f 224/6/3 214/6/3 223/6/3
f 225/2/3 215/2/3 224/2/3
f 226/2/3 217/2/3 216/2/3
f 227/6/3 218/6/3 217/6/3
f 227/2/3 217/2/3 226/2/3
f 228/6/3 218/6/3 227/6/3
f 229/6/3 220/6/3 219/6/3
f 230/6/3 220/6/3 229/6/3
f 231/5/4 232/5/4 239/5/4
f 239/5/4 232/5/4 240/5/4
f 233/5/4 234/5/4 241/5/4
f 241/5/4 234/5/4 242/5/4
f 235/5/4 236/5/4 243/5/4
f 243/5/4 236/5/4 244/5/4
f 237/5/4 238/5/4 245/5/4
f 245/5/4 238/5/4 246/5/4
f 247/6/4 248/6/4 255/6/4
f 255/6/4 248/6/4 256/6/4
f 249/6/4 250/6/4 257/6/4
f 257/6/4 250/6/4 258/6/4
f 251/6/4 252/6/4 259/6/4
f 259/6/4 252/6/4 260/6/4
f 253/6/4 254/6/4 261/6/4
f 261/6/4 254/6/4 262/6/4
f 263/5/4 264/5/4 271/5/4
f 271/5/4 264/5/4 272/5/4
f 272/5/4 264/5/4 273/5/4
f 265/5/4 266/5/4 274/5/4
f 274/5/4 266/5/4 275/5/4
f 267/5/4 268/5/4 276/5/4
f 276/5/4 268/5/4 277/5/4
f 269/5/4 270/5/4 278/5/4
f 278/5/4 270/5/4 279/5/4
f 272/4/4 273/4/4 281/4/4
f 281/4/4 273/4/4 282/4/4
f 280/6/4 281/6/4 289/6/4
f 281/6/4 282/6/4 289/6/4
f 289/6/4 282/6/4 290/6/4
f 283/6/4 284/6/4 291/6/4
f 291/6/4 284/6/4 292/6/4
f 285/6/4 286/6/4 293/6/4
f 293/6/4 286/6/4 294/6/4
f 287/6/4 288/6/4 295/6/4
f 295/6/4 288/6/4 296/6/4
f 297/6/4 298/6/4 299/6/4
f 299/6/4 298/6/4 300/6/4
f 303/6/5 302/6/5 301/6/5
f 304/6/5 302/6/5 303/6/5
f 305/5/5 304/5/5 303/5/5
f 306/6/5 302/6/5 304/6/5
f 306/5/5 304/5/5 305/5/5
f 307/6/5 306/6/5 305/6/5
f 308/6/5 302/6/5 306/6/5
f 308/6/5 306/6/5 307/6/5
f 313/5/5 310/5/5 309/5/5
f 314/5/5 310/5/5 313/5/5
f 315/6/5 312/6/5 311/6/5
f 316/6/5 312/6/5 315/6/5
f 321/5/5 318/5/5 317/5/5
f 322/4/5 319/4/5 318/4/5
f 322/5/5 318/5/5 321/5/5
f 323/6/5 320/6/5 319/6/5
f 323/4/5 319/4/5 322/4/5
f 324/6/5 320/6/5 323/6/5
f 329/5/5 326/5/5 325/5/5
f 330/5/5 326/5/5 329/5/5
f 331/6/5 328/6/5 327/6/5
f 332/6/5 328/6/5 331/6/5
f 337/5/5 334/5/5 333/5/5
f 338/5/5 334/5/5 337/5/5
f 339/6/5 336/6/5 335/6/5
f 340/6/5 336/6/5 339/6/5
f 345/5/5 342/5/5 341/5/5
f 346/5/5 342/5/5 345/5/5
f 347/6/5 344/6/5 343/6/5
f 348/6/5 344/6/5 347/6/5
f 353/5/5 350/5/5 349/5/5
f 354/5/5 350/5/5 353/5/5
f 355/6/5 352/6/5 351/6/5
f 356/6/5 352/6/5 355/6/5
f 361/5/5 358/5/5 357/5/5
f 362/5/5 358/5/5 361/5/5
f 363/6/5 360/6/5 359/6/5
f 364/6/5 360/6/5 363/6/5
f 369/5/5 366/5/5 365/5/5
f 370/5/5 366/5/5 369/5/5
f 371/6/5 368/6/5 367/6/5
f 372/6/5 368/6/5 371/6/5
f 373/5/6 374/5/6 377/5/6
f 377/5/6 374/5/6 378/5/6
f 375/6/6 376/6/6 379/6/6
f 379/6/6 376/6/6 380/6/6
f 381/5/6 382/5/6 385/5/6
f 385/5/6 382/5/6 386/5/6
f 383/6/6 384/6/6 387/6/6
f 387/6/6 384/6/6 388/6/6
f 389/3/6 390/3/6 391/3/6
f 391/3/6 390/3/6 392/3/6
f 393/5/6 394/5/6 397/5/6
f 397/5/6 394/5/6 398/5/6
f 395/6/6 396/6/6 399/6/6
f 399/6/6 396/6/6 400/6/6
f 401/5/6 402/5/6 405/5/6
f 405/5/6 402/5/6 406/5/6
f 403/6/6 404/6/6 407/6/6
f 407/6/6 404/6/6 408/6/6
f 409/5/6 410/5/6 413/5/6
f 413/5/6 410/5/6 414/5/6
f 411/6/6 412/6/6 415/6/6
f 415/6/6 412/6/6 416/6/6
f 417/5/6 418/5/6 421/5/6
f 421/5/6 418/5/6 422/5/6
f 419/6/6 420/6/6 423/6/6
f 423/6/6 420/6/6 424/6/6
f 425/5/6 426/5/6 429/5/6
f 429/5/6 426/5/6 430/5/6
f 427/6/6 428/6/6 431/6/6
f 431/6/6 428/6/6 432/6/6
f 433/5/6 434/5/6 437/5/6
f 437/5/6 434/5/6 438/5/6
f 435/6/6 436/6/6 439/6/6
f 439/6/6 436/6/6 440/6/6
f 441/6/6 442/6/6 443/6/6
f 443/6/6 442/6/6 444/6/6
