# MagicaVoxel @ Ephtracy

# group
g DoubleMetalDoor

# material
mtllib DoubleMetalDoor.mtl
usemtl palette

# normals
vn -1 0 0
vn 1 0 0
vn 0 0 1
vn 0 0 -1
vn 0 -1 0
vn 0 1 0

# texcoords
vt 0.458984 0.5
vt 0.462891 0.5
vt 0.927734 0.5
vt 0.935547 0.5
vt 0.966797 0.5
vt 0.970703 0.5

# verts
v -2 13 -1
v -2 13 -3
v -2 20 -1
v -2 20 -3
v -1 0 -0
v -1 0 -12
v -1 2 -0
v -1 2 -1
v -1 2 -11
v -1 2 -12
v -1 13 -1
v -1 13 -3
v -1 20 -1
v -1 20 -3
v -1 34 -1
v -1 34 -11
v -1 35 -0
v -1 35 -12
v 1 0 -0
v 1 0 -12
v 1 2 -0
v 1 2 -1
v 1 2 -11
v 1 2 -12
v 1 13 -1
v 1 13 -3
v 1 20 -1
v 1 20 -3
v 1 34 -1
v 1 34 -11
v 1 35 -0
v 1 35 -12
v 2 13 -1
v 2 13 -3
v 2 20 -1
v 2 20 -3
v -1 0 -0
v -1 2 -0
v -1 35 -0
v 0 0 -0
v 0 2 -0
v 1 0 -0
v 1 2 -0
v 1 35 -0
v -2 13 -1
v -2 20 -1
v -1 13 -1
v -1 20 -1
v 1 13 -1
v 1 20 -1
v 2 13 -1
v 2 20 -1
v -2 13 -3
v -2 20 -3
v -1 13 -3
v -1 20 -3
v 1 13 -3
v 1 20 -3
v 2 13 -3
v 2 20 -3
v -1 0 -12
v -1 2 -12
v -1 35 -12
v 0 0 -12
v 0 2 -12
v 1 0 -12
v 1 2 -12
v 1 35 -12
v -1 0 -0
v 0 0 -0
v 1 0 -0
v -1 0 -12
v 0 0 -12
v 1 0 -12
v -2 13 -1
v -1 13 -1
v 1 13 -1
v 2 13 -1
v -2 13 -3
v -1 13 -3
v 1 13 -3
v 2 13 -3
v -2 20 -1
v -1 20 -1
v 1 20 -1
v 2 20 -1
v -2 20 -3
v -1 20 -3
v 1 20 -3
v 2 20 -3
v -1 35 -0
v 1 35 -0
v -1 35 -12
v 1 35 -12

# faces
f 3/1/1 2/1/1 1/1/1
f 4/1/1 2/1/1 3/1/1
f 7/5/1 6/5/1 5/5/1
f 8/5/1 6/5/1 7/5/1
f 9/5/1 6/5/1 8/5/1
f 10/5/1 6/5/1 9/5/1
f 11/4/1 8/4/1 7/4/1
f 11/3/1 9/3/1 8/3/1
f 12/3/1 9/3/1 11/3/1
f 13/4/1 11/4/1 7/4/1
f 14/3/1 9/3/1 12/3/1
f 15/4/1 13/4/1 7/4/1
f 15/3/1 14/3/1 13/3/1
f 16/4/1 10/4/1 9/4/1
f 16/3/1 14/3/1 15/3/1
f 16/3/1 9/3/1 14/3/1
f 17/4/1 15/4/1 7/4/1
f 17/4/1 16/4/1 15/4/1
f 18/4/1 10/4/1 16/4/1
f 18/4/1 16/4/1 17/4/1
f 19/6/2 20/6/2 21/6/2
f 21/6/2 20/6/2 22/6/2
f 22/6/2 20/6/2 23/6/2
f 23/6/2 20/6/2 24/6/2
f 21/4/2 22/4/2 25/4/2
f 22/3/2 23/3/2 25/3/2
f 25/3/2 23/3/2 26/3/2
f 21/4/2 25/4/2 27/4/2
f 26/3/2 23/3/2 28/3/2
f 21/4/2 27/4/2 29/4/2
f 27/3/2 28/3/2 29/3/2
f 23/4/2 24/4/2 30/4/2
f 29/3/2 28/3/2 30/3/2
f 28/3/2 23/3/2 30/3/2
f 21/4/2 29/4/2 31/4/2
f 29/4/2 30/4/2 31/4/2
f 30/4/2 24/4/2 32/4/2
f 31/4/2 30/4/2 32/4/2
f 33/2/2 34/2/2 35/2/2
f 35/2/2 34/2/2 36/2/2
f 40/5/3 38/5/3 37/5/3
f 41/4/3 39/4/3 38/4/3
f 41/5/3 38/5/3 40/5/3
f 42/6/3 41/6/3 40/6/3
f 43/4/3 39/4/3 41/4/3
f 43/6/3 41/6/3 42/6/3
f 44/4/3 39/4/3 43/4/3
f 47/1/3 46/1/3 45/1/3
f 48/1/3 46/1/3 47/1/3
f 51/2/3 50/2/3 49/2/3
f 52/2/3 50/2/3 51/2/3
f 53/1/4 54/1/4 55/1/4
f 55/1/4 54/1/4 56/1/4
f 57/2/4 58/2/4 59/2/4
f 59/2/4 58/2/4 60/2/4
f 61/5/4 62/5/4 64/5/4
f 62/4/4 63/4/4 65/4/4
f 64/5/4 62/5/4 65/5/4
f 64/6/4 65/6/4 66/6/4
f 65/4/4 63/4/4 67/4/4
f 66/6/4 65/6/4 67/6/4
f 67/4/4 63/4/4 68/4/4
f 72/5/5 70/5/5 69/5/5
f 73/6/5 71/6/5 70/6/5
f 73/5/5 70/5/5 72/5/5
f 74/6/5 71/6/5 73/6/5
f 79/1/5 76/1/5 75/1/5
f 80/1/5 76/1/5 79/1/5
f 81/2/5 78/2/5 77/2/5
f 82/2/5 78/2/5 81/2/5
f 83/1/6 84/1/6 87/1/6
f 87/1/6 84/1/6 88/1/6
f 85/2/6 86/2/6 89/2/6
f 89/2/6 86/2/6 90/2/6
f 91/4/6 92/4/6 93/4/6
f 93/4/6 92/4/6 94/4/6
