# MagicaVoxel @ Ephtracy

# group
g DoubleDoor02

# material
mtllib DoubleDoor02.mtl
usemtl palette

# normals
vn -1 0 0
vn 1 0 0
vn 0 0 1
vn 0 0 -1
vn 0 -1 0
vn 0 1 0

# texcoords
vt 0.462891 0.5
vt 0.736328 0.5
vt 0.994141 0.5

# verts
v -3 12 -1
v -3 12 -3
v -3 18 -1
v -3 18 -3
v -2 0 1
v -2 0 -9
v -2 1 -8
v -2 1 -9
v -2 3 -1
v -2 3 -7
v -2 3 -8
v -2 3 -9
v -2 12 -1
v -2 16 -8
v -2 16 -9
v -2 18 -1
v -2 18 -8
v -2 18 -9
v -2 31 -1
v -2 31 -7
v -2 31 -8
v -2 31 -9
v -2 33 1
v -2 33 -8
v -2 33 -9
v -1 3 -1
v -1 3 -7
v -1 12 -1
v -1 12 -2
v -1 18 -1
v -1 18 -2
v -1 31 -1
v -1 31 -7
v 2 12 -2
v 2 12 -3
v 2 18 -2
v 2 18 -3
v -2 12 -2
v -2 12 -3
v -2 18 -2
v -2 18 -3
v 1 3 -1
v 1 3 -7
v 1 12 -1
v 1 12 -2
v 1 18 -1
v 1 18 -2
v 1 31 -1
v 1 31 -7
v 2 0 1
v 2 0 -9
v 2 1 -8
v 2 1 -9
v 2 3 -1
v 2 3 -7
v 2 3 -8
v 2 3 -9
v 2 12 -1
v 2 16 -8
v 2 16 -9
v 2 18 -1
v 2 18 -8
v 2 18 -9
v 2 31 -1
v 2 31 -7
v 2 31 -8
v 2 31 -9
v 2 33 1
v 2 33 -8
v 2 33 -9
v 3 12 -1
v 3 12 -3
v 3 18 -1
v 3 18 -3
v -2 0 1
v -2 33 1
v 2 0 1
v 2 33 1
v -3 12 -1
v -3 18 -1
v -2 12 -1
v -2 18 -1
v 2 12 -1
v 2 18 -1
v 3 12 -1
v 3 18 -1
v -2 3 -7
v -2 31 -7
v -1 3 -7
v -1 31 -7
v 1 3 -7
v 1 31 -7
v 2 3 -7
v 2 31 -7
v -2 3 -1
v -2 12 -1
v -2 18 -1
v -2 31 -1
v -1 3 -1
v -1 12 -1
v -1 18 -1
v -1 31 -1
v 1 3 -1
v 1 12 -1
v 1 18 -1
v 1 31 -1
v 2 3 -1
v 2 12 -1
v 2 18 -1
v 2 31 -1
v -2 12 -2
v -2 18 -2
v -1 12 -2
v -1 18 -2
v 1 12 -2
v 1 18 -2
v 2 12 -2
v 2 18 -2
v -3 12 -3
v -3 18 -3
v -2 12 -3
v -2 18 -3
v 2 12 -3
v 2 18 -3
v 3 12 -3
v 3 18 -3
v -2 0 -9
v -2 1 -9
v -2 3 -9
v -2 16 -9
v -2 18 -9
v -2 31 -9
v -2 33 -9
v 2 0 -9
v 2 1 -9
v 2 3 -9
v 2 16 -9
v 2 18 -9
v 2 31 -9
v 2 33 -9
v -2 0 1
v 2 0 1
v -2 0 -9
v 2 0 -9
v -3 12 -1
v -2 12 -1
v -1 12 -1
v 1 12 -1
v 2 12 -1
v 3 12 -1
v -2 12 -2
v -1 12 -2
v 1 12 -2
v 2 12 -2
v -3 12 -3
v -2 12 -3
v 2 12 -3
v 3 12 -3
v -2 31 -1
v -1 31 -1
v 1 31 -1
v 2 31 -1
v -2 31 -7
v -1 31 -7
v 1 31 -7
v 2 31 -7
v -2 3 -1
v -1 3 -1
v 1 3 -1
v 2 3 -1
v -2 3 -7
v -1 3 -7
v 1 3 -7
v 2 3 -7
v -3 18 -1
v -2 18 -1
v -1 18 -1
v 1 18 -1
v 2 18 -1
v 3 18 -1
v -2 18 -2
v -1 18 -2
v 1 18 -2
v 2 18 -2
v -3 18 -3
v -2 18 -3
v 2 18 -3
v 3 18 -3
v -2 33 1
v 2 33 1
v -2 33 -8
v 2 33 -8
v -2 33 -9
v 2 33 -9

# faces
f 3/1/1 2/1/1 1/1/1
f 4/1/1 2/1/1 3/1/1
f 7/3/1 6/3/1 5/3/1
f 8/3/1 6/3/1 7/3/1
f 9/3/1 7/3/1 5/3/1
f 10/3/1 7/3/1 9/3/1
f 11/1/1 8/1/1 7/1/1
f 11/3/1 7/3/1 10/3/1
f 12/1/1 8/1/1 11/1/1
f 13/3/1 9/3/1 5/3/1
f 14/3/1 12/3/1 11/3/1
f 14/3/1 11/3/1 10/3/1
f 15/3/1 12/3/1 14/3/1
f 16/3/1 13/3/1 5/3/1
f 17/3/1 14/3/1 10/3/1
f 17/1/1 15/1/1 14/1/1
f 18/1/1 15/1/1 17/1/1
f 19/3/1 16/3/1 5/3/1
f 20/3/1 17/3/1 10/3/1
f 20/3/1 18/3/1 17/3/1
f 21/3/1 18/3/1 20/3/1
f 22/3/1 18/3/1 21/3/1
f 23/3/1 19/3/1 5/3/1
f 23/3/1 20/3/1 19/3/1
f 23/3/1 21/3/1 20/3/1
f 24/1/1 22/1/1 21/1/1
f 24/3/1 21/3/1 23/3/1
f 25/1/1 22/1/1 24/1/1
f 28/2/1 27/2/1 26/2/1
f 29/2/1 27/2/1 28/2/1
f 31/2/1 27/2/1 29/2/1
f 32/2/1 31/2/1 30/2/1
f 33/2/1 27/2/1 31/2/1
f 33/2/1 31/2/1 32/2/1
f 36/1/1 35/1/1 34/1/1
f 37/1/1 35/1/1 36/1/1
f 38/1/2 39/1/2 40/1/2
f 40/1/2 39/1/2 41/1/2
f 42/2/2 43/2/2 44/2/2
f 44/2/2 43/2/2 45/2/2
f 45/2/2 43/2/2 47/2/2
f 46/2/2 47/2/2 48/2/2
f 47/2/2 43/2/2 49/2/2
f 48/2/2 47/2/2 49/2/2
f 50/3/2 51/3/2 52/3/2
f 52/3/2 51/3/2 53/3/2
f 50/3/2 52/3/2 54/3/2
f 54/3/2 52/3/2 55/3/2
f 52/1/2 53/1/2 56/1/2
f 55/3/2 52/3/2 56/3/2
f 56/1/2 53/1/2 57/1/2
f 50/3/2 54/3/2 58/3/2
f 56/3/2 57/3/2 59/3/2
f 55/3/2 56/3/2 59/3/2
f 59/3/2 57/3/2 60/3/2
f 50/3/2 58/3/2 61/3/2
f 55/3/2 59/3/2 62/3/2
f 59/1/2 60/1/2 62/1/2
f 62/1/2 60/1/2 63/1/2
f 50/3/2 61/3/2 64/3/2
f 55/3/2 62/3/2 65/3/2
f 62/3/2 63/3/2 65/3/2
f 65/3/2 63/3/2 66/3/2
f 66/3/2 63/3/2 67/3/2
f 50/3/2 64/3/2 68/3/2
f 64/3/2 65/3/2 68/3/2
f 65/3/2 66/3/2 68/3/2
f 66/1/2 67/1/2 69/1/2
f 68/3/2 66/3/2 69/3/2
f 69/1/2 67/1/2 70/1/2
f 71/1/2 72/1/2 73/1/2
f 73/1/2 72/1/2 74/1/2
f 77/3/3 76/3/3 75/3/3
f 78/3/3 76/3/3 77/3/3
f 81/1/3 80/1/3 79/1/3
f 82/1/3 80/1/3 81/1/3
f 85/1/3 84/1/3 83/1/3
f 86/1/3 84/1/3 85/1/3
f 89/3/3 88/3/3 87/3/3
f 90/3/3 88/3/3 89/3/3
f 93/3/3 92/3/3 91/3/3
f 94/3/3 92/3/3 93/3/3
f 95/3/4 96/3/4 99/3/4
f 99/3/4 96/3/4 100/3/4
f 97/3/4 98/3/4 101/3/4
f 101/3/4 98/3/4 102/3/4
f 103/3/4 104/3/4 107/3/4
f 107/3/4 104/3/4 108/3/4
f 105/3/4 106/3/4 109/3/4
f 109/3/4 106/3/4 110/3/4
f 111/3/4 112/3/4 113/3/4
f 113/3/4 112/3/4 114/3/4
f 115/3/4 116/3/4 117/3/4
f 117/3/4 116/3/4 118/3/4
f 119/1/4 120/1/4 121/1/4
f 121/1/4 120/1/4 122/1/4
f 123/1/4 124/1/4 125/1/4
f 125/1/4 124/1/4 126/1/4
f 127/3/4 128/3/4 134/3/4
f 128/1/4 129/1/4 135/1/4
f 134/3/4 128/3/4 135/3/4
f 129/3/4 130/3/4 136/3/4
f 135/1/4 129/1/4 136/1/4
f 130/1/4 131/1/4 137/1/4
f 136/3/4 130/3/4 137/3/4
f 131/3/4 132/3/4 138/3/4
f 137/1/4 131/1/4 138/1/4
f 132/1/4 133/1/4 139/1/4
f 138/3/4 132/3/4 139/3/4
f 139/1/4 133/1/4 140/1/4
f 143/3/5 142/3/5 141/3/5
f 144/3/5 142/3/5 143/3/5
f 151/1/5 146/1/5 145/1/5
f 151/3/5 147/3/5 146/3/5
f 152/3/5 147/3/5 151/3/5
f 153/3/5 149/3/5 148/3/5
f 154/1/5 150/1/5 149/1/5
f 154/3/5 149/3/5 153/3/5
f 155/1/5 151/1/5 145/1/5
f 156/1/5 151/1/5 155/1/5
f 157/1/5 150/1/5 154/1/5
f 158/1/5 150/1/5 157/1/5
f 163/3/5 160/3/5 159/3/5
f 164/3/5 160/3/5 163/3/5
f 165/3/5 162/3/5 161/3/5
f 166/3/5 162/3/5 165/3/5
f 167/3/6 168/3/6 171/3/6
f 171/3/6 168/3/6 172/3/6
f 169/3/6 170/3/6 173/3/6
f 173/3/6 170/3/6 174/3/6
f 175/1/6 176/1/6 181/1/6
f 176/3/6 177/3/6 181/3/6
f 181/3/6 177/3/6 182/3/6
f 178/3/6 179/3/6 183/3/6
f 179/1/6 180/1/6 184/1/6
f 183/3/6 179/3/6 184/3/6
f 175/1/6 181/1/6 185/1/6
f 185/1/6 181/1/6 186/1/6
f 184/1/6 180/1/6 187/1/6
f 187/1/6 180/1/6 188/1/6
f 189/3/6 190/3/6 191/3/6
f 191/3/6 190/3/6 192/3/6
f 191/1/6 192/1/6 193/1/6
f 193/1/6 192/1/6 194/1/6
