# MagicaVoxel @ Ephtracy

# group
g e-door

# material
mtllib e-door.mtl
usemtl palette

# normals
vn -1 0 0
vn 1 0 0
vn 0 0 1
vn 0 0 -1
vn 0 -1 0
vn 0 1 0

# texcoords
vt 0.115234 0.5
vt 0.583984 0.5
vt 0.751953 0.5
vt 0.978516 0.5
vt 0.982422 0.5
vt 0.986328 0.5

# verts
v -10 0 1
v -10 0 -1
v -10 17 2
v -10 17 1
v -10 22 2
v -10 22 1
v -10 28 1
v -10 28 -0
v -10 35 1
v -10 35 -0
v -10 38 1
v -10 38 -1
v -9 17 -1
v -9 17 -2
v -9 18 3
v -9 18 2
v -9 21 3
v -9 21 2
v -9 22 -1
v -9 22 -2
v -6 17 2
v -6 17 1
v -6 17 -1
v -6 17 -2
v -6 18 2
v -6 18 1
v -6 21 2
v -6 21 1
v -6 22 2
v -6 22 1
v -6 22 -1
v -6 22 -2
v 3 18 3
v 3 18 2
v 3 21 3
v 3 21 2
v 10 0 1
v 10 0 -1
v 10 6 1
v 10 6 -1
v 10 9 1
v 10 9 -1
v 10 18 2
v 10 18 1
v 10 18 -1
v 10 21 2
v 10 21 1
v 10 21 -1
v 10 30 1
v 10 30 -1
v 10 33 1
v 10 33 -1
v 10 38 1
v 10 38 -1
v -9 18 3
v -9 21 3
v 3 18 3
v 3 21 3
v -10 17 2
v -10 22 2
v -9 18 2
v -9 21 2
v -6 17 2
v -6 18 2
v -6 21 2
v -6 22 2
v 3 18 2
v 3 21 2
v 10 18 2
v 10 21 2
v -10 0 1
v -10 17 1
v -10 22 1
v -10 28 1
v -10 35 1
v -10 38 1
v -8 29 1
v -8 34 1
v -7 30 1
v -7 31 1
v -7 32 1
v -7 33 1
v -6 17 1
v -6 18 1
v -6 21 1
v -6 22 1
v -6 31 1
v -6 32 1
v -5 29 1
v -5 30 1
v -5 33 1
v -5 34 1
v -4 29 1
v -4 31 1
v -4 32 1
v -4 34 1
v -3 29 1
v -3 31 1
v -3 32 1
v -3 34 1
v -2 29 1
v -2 31 1
v -2 32 1
v -2 34 1
v -1 29 1
v -1 31 1
v -1 32 1
v -1 34 1
v 0 29 1
v 0 30 1
v 0 33 1
v 0 34 1
v 1 30 1
v 1 33 1
v 2 30 1
v 2 33 1
v 3 29 1
v 3 30 1
v 3 33 1
v 3 34 1
v 4 33 1
v 4 34 1
v 5 29 1
v 5 33 1
v 6 29 1
v 6 33 1
v 7 33 1
v 7 34 1
v 9 6 1
v 9 9 1
v 9 28 1
v 9 30 1
v 9 33 1
v 9 35 1
v 10 0 1
v 10 6 1
v 10 9 1
v 10 18 1
v 10 21 1
v 10 30 1
v 10 33 1
v 10 38 1
v -10 0 -1
v -10 38 -1
v -9 17 -1
v -9 22 -1
v -6 17 -1
v -6 22 -1
v 9 6 -1
v 9 9 -1
v 9 18 -1
v 9 21 -1
v 9 30 -1
v 9 33 -1
v 10 0 -1
v 10 6 -1
v 10 9 -1
v 10 18 -1
v 10 21 -1
v 10 30 -1
v 10 33 -1
v 10 38 -1
v -9 17 -2
v -9 22 -2
v -8 19 -2
v -8 21 -2
v -7 19 -2
v -7 21 -2
v -6 17 -2
v -6 22 -2
v -10 0 1
v 10 0 1
v -10 0 -1
v 10 0 -1
v -10 17 2
v -6 17 2
v -10 17 1
v -6 17 1
v -9 17 -1
v -6 17 -1
v -9 17 -2
v -6 17 -2
v -9 18 3
v 3 18 3
v -9 18 2
v -6 18 2
v 3 18 2
v 10 18 2
v -6 18 1
v 10 18 1
v -9 21 3
v 3 21 3
v -9 21 2
v -6 21 2
v 3 21 2
v 10 21 2
v -6 21 1
v 10 21 1
v -10 22 2
v -6 22 2
v -10 22 1
v -6 22 1
v -9 22 -1
v -6 22 -1
v -9 22 -2
v -6 22 -2
v -10 38 1
v 10 38 1
v -10 38 -1
v 10 38 -1

# faces
f 4/1/1 2/1/1 1/1/1
f 5/6/1 4/6/1 3/6/1
f 6/1/1 2/1/1 4/1/1
f 6/6/1 4/6/1 5/6/1
f 7/1/1 2/1/1 6/1/1
f 8/1/1 2/1/1 7/1/1
f 9/3/1 8/3/1 7/3/1
f 10/1/1 2/1/1 8/1/1
f 10/3/1 8/3/1 9/3/1
f 11/1/1 10/1/1 9/1/1
f 12/1/1 2/1/1 10/1/1
f 12/1/1 10/1/1 11/1/1
f 17/4/1 16/4/1 15/4/1
f 18/4/1 16/4/1 17/4/1
f 19/4/1 14/4/1 13/4/1
f 20/4/1 14/4/1 19/4/1
f 21/6/2 22/6/2 25/6/2
f 25/6/2 22/6/2 26/6/2
f 27/6/2 28/6/2 29/6/2
f 29/6/2 28/6/2 30/6/2
f 23/4/2 24/4/2 31/4/2
f 31/4/2 24/4/2 32/4/2
f 33/4/2 34/4/2 35/4/2
f 35/4/2 34/4/2 36/4/2
f 37/1/2 38/1/2 39/1/2
f 39/1/2 38/1/2 40/1/2
f 39/6/2 40/6/2 41/6/2
f 41/6/2 40/6/2 42/6/2
f 41/1/2 42/1/2 44/1/2
f 44/1/2 42/1/2 45/1/2
f 43/6/2 44/6/2 46/6/2
f 44/6/2 45/6/2 46/6/2
f 46/6/2 45/6/2 47/6/2
f 47/6/2 45/6/2 48/6/2
f 47/1/2 48/1/2 49/1/2
f 49/1/2 48/1/2 50/1/2
f 49/6/2 50/6/2 51/6/2
f 51/6/2 50/6/2 52/6/2
f 51/1/2 52/1/2 53/1/2
f 53/1/2 52/1/2 54/1/2
f 57/4/3 56/4/3 55/4/3
f 58/4/3 56/4/3 57/4/3
f 61/6/3 60/6/3 59/6/3
f 62/6/3 60/6/3 61/6/3
f 63/6/3 61/6/3 59/6/3
f 64/6/3 61/6/3 63/6/3
f 65/6/3 60/6/3 62/6/3
f 66/6/3 60/6/3 65/6/3
f 69/6/3 68/6/3 67/6/3
f 70/6/3 68/6/3 69/6/3
f 77/3/3 75/3/3 74/3/3
f 78/3/3 75/3/3 77/3/3
f 79/2/3 78/2/3 77/2/3
f 80/2/3 78/2/3 79/2/3
f 81/2/3 78/2/3 80/2/3
f 82/2/3 78/2/3 81/2/3
f 83/1/3 72/1/3 71/1/3
f 86/1/3 74/1/3 73/1/3
f 87/3/3 80/3/3 79/3/3
f 87/2/3 81/2/3 80/2/3
f 88/3/3 82/3/3 81/3/3
f 88/2/3 81/2/3 87/2/3
f 89/3/3 77/3/3 74/3/3
f 89/2/3 79/2/3 77/2/3
f 90/3/3 88/3/3 87/3/3
f 90/2/3 79/2/3 89/2/3
f 90/3/3 87/3/3 79/3/3
f 91/2/3 78/2/3 82/2/3
f 91/3/3 88/3/3 90/3/3
f 91/3/3 82/3/3 88/3/3
f 92/3/3 75/3/3 78/3/3
f 92/2/3 78/2/3 91/2/3
f 93/3/3 90/3/3 89/3/3
f 93/3/3 91/3/3 90/3/3
f 93/3/3 92/3/3 91/3/3
f 93/3/3 89/3/3 74/3/3
f 94/3/3 92/3/3 93/3/3
f 95/3/3 92/3/3 94/3/3
f 96/3/3 75/3/3 92/3/3
f 96/3/3 92/3/3 95/3/3
f 97/3/3 93/3/3 74/3/3
f 97/2/3 94/2/3 93/2/3
f 98/3/3 95/3/3 94/3/3
f 98/2/3 94/2/3 97/2/3
f 99/2/3 96/2/3 95/2/3
f 99/3/3 95/3/3 98/3/3
f 100/3/3 75/3/3 96/3/3
f 100/2/3 96/2/3 99/2/3
f 101/3/3 97/3/3 74/3/3
f 101/3/3 98/3/3 97/3/3
f 102/2/3 99/2/3 98/2/3
f 102/3/3 98/3/3 101/3/3
f 103/3/3 100/3/3 99/3/3
f 103/2/3 99/2/3 102/2/3
f 104/3/3 75/3/3 100/3/3
f 104/3/3 100/3/3 103/3/3
f 105/3/3 101/3/3 74/3/3
f 105/2/3 102/2/3 101/2/3
f 106/3/3 103/3/3 102/3/3
f 106/2/3 102/2/3 105/2/3
f 107/2/3 104/2/3 103/2/3
f 107/3/3 103/3/3 106/3/3
f 108/3/3 75/3/3 104/3/3
f 108/2/3 104/2/3 107/2/3
f 109/3/3 105/3/3 74/3/3
f 109/3/3 107/3/3 106/3/3
f 109/3/3 108/3/3 107/3/3
f 109/3/3 106/3/3 105/3/3
f 110/3/3 108/3/3 109/3/3
f 111/3/3 108/3/3 110/3/3
f 112/3/3 75/3/3 108/3/3
f 112/3/3 108/3/3 111/3/3
f 113/3/3 111/3/3 110/3/3
f 113/2/3 110/2/3 109/2/3
f 114/2/3 112/2/3 111/2/3
f 114/3/3 111/3/3 113/3/3
f 115/2/3 113/2/3 109/2/3
f 115/2/3 114/2/3 113/2/3
f 116/2/3 112/2/3 114/2/3
f 116/2/3 114/2/3 115/2/3
f 117/3/3 109/3/3 74/3/3
f 117/2/3 115/2/3 109/2/3
f 118/3/3 116/3/3 115/3/3
f 118/2/3 115/2/3 117/2/3
f 119/2/3 112/2/3 116/2/3
f 119/3/3 116/3/3 118/3/3
f 120/3/3 75/3/3 112/3/3
f 120/2/3 112/2/3 119/2/3
f 121/3/3 119/3/3 118/3/3
f 121/3/3 118/3/3 117/3/3
f 121/3/3 120/3/3 119/3/3
f 122/3/3 75/3/3 120/3/3
f 122/3/3 120/3/3 121/3/3
f 123/3/3 121/3/3 117/3/3
f 123/3/3 117/3/3 74/3/3
f 124/2/3 122/2/3 121/2/3
f 124/3/3 121/3/3 123/3/3
f 125/3/3 123/3/3 74/3/3
f 125/2/3 124/2/3 123/2/3
f 126/2/3 122/2/3 124/2/3
f 126/2/3 124/2/3 125/2/3
f 127/3/3 126/3/3 125/3/3
f 127/2/3 122/2/3 126/2/3
f 128/3/3 75/3/3 122/3/3
f 128/2/3 122/2/3 127/2/3
f 129/1/3 84/1/3 83/1/3
f 129/1/3 83/1/3 71/1/3
f 130/1/3 84/1/3 129/1/3
f 131/3/3 127/3/3 125/3/3
f 131/3/3 128/3/3 127/3/3
f 131/1/3 74/1/3 86/1/3
f 131/1/3 86/1/3 85/1/3
f 131/3/3 125/3/3 74/3/3
f 132/3/3 128/3/3 131/3/3
f 133/3/3 128/3/3 132/3/3
f 134/3/3 75/3/3 128/3/3
f 134/3/3 128/3/3 133/3/3
f 134/1/3 76/1/3 75/1/3
f 135/1/3 129/1/3 71/1/3
f 136/6/3 130/6/3 129/6/3
f 136/1/3 129/1/3 135/1/3
f 137/1/3 84/1/3 130/1/3
f 137/6/3 130/6/3 136/6/3
f 138/1/3 84/1/3 137/1/3
f 139/1/3 132/1/3 131/1/3
f 139/1/3 131/1/3 85/1/3
f 140/6/3 133/6/3 132/6/3
f 140/1/3 132/1/3 139/1/3
f 141/1/3 134/1/3 133/1/3
f 141/6/3 133/6/3 140/6/3
f 142/1/3 76/1/3 134/1/3
f 142/1/3 134/1/3 141/1/3
f 143/1/4 144/1/4 145/1/4
f 145/1/4 144/1/4 146/1/4
f 143/1/4 145/1/4 147/1/4
f 146/1/4 144/1/4 148/1/4
f 143/1/4 147/1/4 149/1/4
f 147/1/4 148/1/4 149/1/4
f 149/1/4 148/1/4 150/1/4
f 150/1/4 148/1/4 151/1/4
f 151/1/4 148/1/4 152/1/4
f 148/1/4 144/1/4 153/1/4
f 152/1/4 148/1/4 153/1/4
f 153/1/4 144/1/4 154/1/4
f 143/1/4 149/1/4 155/1/4
f 149/6/4 150/6/4 156/6/4
f 155/1/4 149/1/4 156/1/4
f 150/1/4 151/1/4 157/1/4
f 156/6/4 150/6/4 157/6/4
f 151/6/4 152/6/4 158/6/4
f 157/1/4 151/1/4 158/1/4
f 152/1/4 153/1/4 159/1/4
f 158/6/4 152/6/4 159/6/4
f 153/6/4 154/6/4 160/6/4
f 159/1/4 153/1/4 160/1/4
f 154/1/4 144/1/4 161/1/4
f 160/6/4 154/6/4 161/6/4
f 161/1/4 144/1/4 162/1/4
f 163/4/4 164/4/4 165/4/4
f 165/4/4 164/4/4 166/4/4
f 163/4/4 165/4/4 167/4/4
f 165/5/4 166/5/4 167/5/4
f 166/4/4 164/4/4 168/4/4
f 167/5/4 166/5/4 168/5/4
f 163/4/4 167/4/4 169/4/4
f 167/4/4 168/4/4 169/4/4
f 168/4/4 164/4/4 170/4/4
f 169/4/4 168/4/4 170/4/4
f 173/1/5 172/1/5 171/1/5
f 174/1/5 172/1/5 173/1/5
f 177/6/5 176/6/5 175/6/5
f 178/6/5 176/6/5 177/6/5
f 181/4/5 180/4/5 179/4/5
f 182/4/5 180/4/5 181/4/5
f 185/4/5 184/4/5 183/4/5
f 186/4/5 184/4/5 185/4/5
f 187/4/5 184/4/5 186/4/5
f 189/6/5 188/6/5 187/6/5
f 189/6/5 187/6/5 186/6/5
f 190/6/5 188/6/5 189/6/5
f 191/4/6 192/4/6 193/4/6
f 193/4/6 192/4/6 194/4/6
f 194/4/6 192/4/6 195/4/6
f 195/6/6 196/6/6 197/6/6
f 194/6/6 195/6/6 197/6/6
f 197/6/6 196/6/6 198/6/6
f 199/6/6 200/6/6 201/6/6
f 201/6/6 200/6/6 202/6/6
f 203/4/6 204/4/6 205/4/6
f 205/4/6 204/4/6 206/4/6
f 207/1/6 208/1/6 209/1/6
f 209/1/6 208/1/6 210/1/6
