# MagicaVoxel @ Ephtracy

# group
g Plant01

# material
mtllib Plant01.mtl
usemtl palette

# normals
vn -1 0 0
vn 1 0 0
vn 0 0 1
vn 0 0 -1
vn 0 -1 0
vn 0 1 0

# texcoords
vt 0.583984 0.5
vt 0.595703 0.5
vt 0.751953 0.5

# verts
v -2 1 1
v -2 1 -1
v -2 4 1
v -2 4 -1
v -1 0 1
v -1 0 -1
v -1 1 2
v -1 1 1
v -1 1 -1
v -1 1 -2
v -1 4 2
v -1 4 1
v -1 4 -0
v -1 4 -1
v -1 4 -2
v -1 8 1
v -1 8 -0
v -1 8 -1
v -1 12 -0
v -1 12 -1
v 0 4 1
v 0 4 -0
v 0 8 1
v 0 8 -0
v 0 10 -0
v 0 10 -1
v 0 12 -0
v 0 12 -1
v 1 0 1
v 1 0 -1
v 1 1 2
v 1 1 1
v 1 1 -1
v 1 1 -2
v 1 4 2
v 1 4 1
v 1 4 -0
v 1 4 -1
v 1 4 -2
v 1 10 -0
v 1 10 -1
v 2 1 1
v 2 1 -1
v 2 4 1
v 2 4 -1
v -1 1 2
v -1 4 2
v 1 1 2
v 1 4 2
v -2 1 1
v -2 4 1
v -1 0 1
v -1 1 1
v -1 4 1
v -1 8 1
v 0 4 1
v 0 8 1
v 1 0 1
v 1 1 1
v 1 4 1
v 2 1 1
v 2 4 1
v -1 8 -0
v -1 12 -0
v 0 4 -0
v 0 8 -0
v 0 10 -0
v 0 12 -0
v 1 4 -0
v 1 10 -0
v -2 1 -1
v -2 4 -1
v -1 0 -1
v -1 1 -1
v -1 4 -1
v -1 8 -1
v -1 12 -1
v 0 4 -1
v 0 8 -1
v 0 10 -1
v 0 12 -1
v 1 0 -1
v 1 1 -1
v 1 4 -1
v 1 10 -1
v 2 1 -1
v 2 4 -1
v -1 1 -2
v -1 4 -2
v 1 1 -2
v 1 4 -2
v -1 0 1
v 1 0 1
v -1 0 -1
v 1 0 -1
v -1 1 2
v 1 1 2
v -2 1 1
v -1 1 1
v 1 1 1
v 2 1 1
v -2 1 -1
v -1 1 -1
v 1 1 -1
v 2 1 -1
v -1 1 -2
v 1 1 -2
v -1 4 2
v 1 4 2
v -2 4 1
v -1 4 1
v 0 4 1
v 1 4 1
v 2 4 1
v -1 4 -0
v 0 4 -0
v 1 4 -0
v -2 4 -1
v -1 4 -1
v 0 4 -1
v 1 4 -1
v 2 4 -1
v -1 4 -2
v 1 4 -2
v -1 8 1
v 0 8 1
v -1 8 -0
v 0 8 -0
v 0 10 -0
v 1 10 -0
v 0 10 -1
v 1 10 -1
v -1 12 -0
v 0 12 -0
v -1 12 -1
v 0 12 -1

# faces
f 3/3/1 2/3/1 1/3/1
f 4/3/1 2/3/1 3/3/1
f 8/3/1 6/3/1 5/3/1
f 9/3/1 6/3/1 8/3/1
f 11/3/1 8/3/1 7/3/1
f 12/3/1 8/3/1 11/3/1
f 14/3/1 10/3/1 9/3/1
f 15/3/1 10/3/1 14/3/1
f 16/1/1 13/1/1 12/1/1
f 17/2/1 14/2/1 13/2/1
f 17/1/1 13/1/1 16/1/1
f 18/2/1 14/2/1 17/2/1
f 19/1/1 18/1/1 17/1/1
f 20/1/1 18/1/1 19/1/1
f 21/1/2 22/1/2 23/1/2
f 23/1/2 22/1/2 24/1/2
f 25/1/2 26/1/2 27/1/2
f 27/1/2 26/1/2 28/1/2
f 29/3/2 30/3/2 32/3/2
f 32/3/2 30/3/2 33/3/2
f 31/3/2 32/3/2 35/3/2
f 35/3/2 32/3/2 36/3/2
f 33/3/2 34/3/2 38/3/2
f 38/3/2 34/3/2 39/3/2
f 37/1/2 38/1/2 40/1/2
f 40/1/2 38/1/2 41/1/2
f 42/3/2 43/3/2 44/3/2
f 44/3/2 43/3/2 45/3/2
f 48/3/3 47/3/3 46/3/3
f 49/3/3 47/3/3 48/3/3
f 53/3/3 51/3/3 50/3/3
f 54/3/3 51/3/3 53/3/3
f 56/1/3 55/1/3 54/1/3
f 57/1/3 55/1/3 56/1/3
f 58/3/3 53/3/3 52/3/3
f 59/3/3 53/3/3 58/3/3
f 61/3/3 60/3/3 59/3/3
f 62/3/3 60/3/3 61/3/3
f 66/1/3 64/1/3 63/1/3
f 67/1/3 64/1/3 66/1/3
f 68/1/3 64/1/3 67/1/3
f 69/1/3 66/1/3 65/1/3
f 69/1/3 67/1/3 66/1/3
f 70/1/3 67/1/3 69/1/3
f 71/3/4 72/3/4 74/3/4
f 74/3/4 72/3/4 75/3/4
f 75/2/4 76/2/4 78/2/4
f 76/1/4 77/1/4 79/1/4
f 78/2/4 76/2/4 79/2/4
f 79/1/4 77/1/4 80/1/4
f 80/1/4 77/1/4 81/1/4
f 73/3/4 74/3/4 82/3/4
f 82/3/4 74/3/4 83/3/4
f 78/1/4 79/1/4 84/1/4
f 79/1/4 80/1/4 84/1/4
f 84/1/4 80/1/4 85/1/4
f 83/3/4 84/3/4 86/3/4
f 86/3/4 84/3/4 87/3/4
f 88/3/4 89/3/4 90/3/4
f 90/3/4 89/3/4 91/3/4
f 94/3/5 93/3/5 92/3/5
f 95/3/5 93/3/5 94/3/5
f 99/3/5 97/3/5 96/3/5
f 100/3/5 97/3/5 99/3/5
f 102/3/5 99/3/5 98/3/5
f 103/3/5 99/3/5 102/3/5
f 104/3/5 101/3/5 100/3/5
f 105/3/5 101/3/5 104/3/5
f 106/3/5 104/3/5 103/3/5
f 107/3/5 104/3/5 106/3/5
f 108/3/6 109/3/6 111/3/6
f 111/3/6 109/3/6 112/3/6
f 112/3/6 109/3/6 113/3/6
f 110/3/6 111/3/6 115/3/6
f 113/3/6 114/3/6 116/3/6
f 112/3/6 113/3/6 116/3/6
f 116/3/6 114/3/6 117/3/6
f 110/3/6 115/3/6 118/3/6
f 118/3/6 115/3/6 119/3/6
f 117/3/6 114/3/6 121/3/6
f 121/3/6 114/3/6 122/3/6
f 119/3/6 120/3/6 123/3/6
f 120/3/6 121/3/6 123/3/6
f 123/3/6 121/3/6 124/3/6
f 125/1/6 126/1/6 127/1/6
f 127/1/6 126/1/6 128/1/6
f 129/1/6 130/1/6 131/1/6
f 131/1/6 130/1/6 132/1/6
f 133/1/6 134/1/6 135/1/6
f 135/1/6 134/1/6 136/1/6
