# MagicaVoxel @ Ephtracy

# group
g ATM

# material
mtllib ATM.mtl
usemtl palette

# normals
vn -1 0 0
vn 1 0 0
vn 0 0 1
vn 0 0 -1
vn 0 -1 0
vn 0 1 0

# texcoords
vt 0.146484 0.5
vt 0.150391 0.5
vt 0.349609 0.5
vt 0.412109 0.5
vt 0.689453 0.5
vt 0.748047 0.5
vt 0.919922 0.5
vt 0.923828 0.5
vt 0.970703 0.5
vt 0.978516 0.5

# verts
v -4 0 5
v -4 0 -4
v -4 1 3
v -4 1 -2
v -4 2 3
v -4 2 1
v -4 2 -0
v -4 2 -1
v -4 3 3
v -4 3 1
v -4 3 -0
v -4 3 -1
v -4 4 3
v -4 4 -2
v -4 5 -1
v -4 5 -2
v -4 6 3
v -4 6 -1
v -4 7 3
v -4 7 -1
v -4 8 -1
v -4 8 -2
v -4 9 3
v -4 9 -2
v -4 10 3
v -4 10 -1
v -4 11 3
v -4 11 -1
v -4 12 3
v -4 12 -1
v -4 13 3
v -4 13 -1
v -4 14 3
v -4 14 -2
v -4 17 5
v -4 17 -0
v -4 28 -0
v -4 28 -4
v 4 0 5
v 4 0 -4
v 4 1 3
v 4 1 -2
v 4 2 3
v 4 2 -1
v 4 3 3
v 4 3 -1
v 4 4 3
v 4 4 -1
v 4 5 3
v 4 5 -1
v 4 6 3
v 4 6 -2
v 4 7 -1
v 4 7 -2
v 4 8 3
v 4 8 -1
v 4 9 3
v 4 9 -1
v 4 10 -1
v 4 10 -2
v 4 11 3
v 4 11 -2
v 4 12 3
v 4 12 1
v 4 12 -0
v 4 12 -1
v 4 13 3
v 4 13 1
v 4 13 -0
v 4 13 -1
v 4 14 3
v 4 14 -2
v 4 17 5
v 4 17 -0
v 4 28 -0
v 4 28 -4
v -4 0 5
v -4 17 5
v -3 1 5
v -3 14 5
v 1 7 5
v 1 8 5
v 1 15 5
v 1 16 5
v 2 7 5
v 2 8 5
v 3 1 5
v 3 14 5
v 3 15 5
v 3 16 5
v 4 0 5
v 4 17 5
v -4 17 -0
v -4 28 -0
v -3 18 -0
v -3 19 -0
v -3 20 -0
v -3 22 -0
v -3 23 -0
v -3 24 -0
v -3 27 -0
v -2 19 -0
v -2 20 -0
v -2 21 -0
v -2 22 -0
v -2 23 -0
v -2 24 -0
v -1 20 -0
v -1 21 -0
v -1 22 -0
v -1 23 -0
v -1 24 -0
v 0 20 -0
v 0 21 -0
v 0 22 -0
v 1 18 -0
v 1 19 -0
v 1 20 -0
v 1 21 -0
v 1 22 -0
v 2 18 -0
v 2 19 -0
v 2 20 -0
v 2 21 -0
v 2 22 -0
v 2 23 -0
v 3 18 -0
v 3 19 -0
v 3 20 -0
v 3 22 -0
v 3 23 -0
v 3 24 -0
v 3 27 -0
v 4 17 -0
v 4 28 -0
v -4 0 -4
v -4 28 -4
v 4 0 -4
v 4 28 -4
v -4 0 5
v 4 0 5
v -4 0 -4
v 4 0 -4
v -4 17 5
v 4 17 5
v -3 17 4
v -2 17 4
v -1 17 4
v 0 17 4
v 1 17 4
v 2 17 4
v 3 17 4
v -3 17 3
v -2 17 3
v -1 17 3
v 0 17 3
v 1 17 3
v 2 17 3
v 3 17 3
v -3 17 2
v -2 17 2
v -1 17 2
v 0 17 2
v 1 17 2
v 2 17 2
v 3 17 2
v -3 17 1
v -2 17 1
v -1 17 1
v 0 17 1
v -4 17 -0
v 4 17 -0
v -4 28 -0
v 4 28 -0
v -4 28 -4
v 4 28 -4

# faces
f 3/8/1 2/8/1 1/8/1
f 4/8/1 2/8/1 3/8/1
f 5/8/1 3/8/1 1/8/1
f 5/1/1 4/1/1 3/1/1
f 6/1/1 4/1/1 5/1/1
f 7/1/1 4/1/1 6/1/1
f 8/1/1 4/1/1 7/1/1
f 9/8/1 5/8/1 1/8/1
f 9/7/1 6/7/1 5/7/1
f 10/1/1 7/1/1 6/1/1
f 10/7/1 6/7/1 9/7/1
f 11/7/1 8/7/1 7/7/1
f 11/1/1 7/1/1 10/1/1
f 12/1/1 4/1/1 8/1/1
f 12/7/1 8/7/1 11/7/1
f 13/1/1 11/1/1 10/1/1
f 13/1/1 10/1/1 9/1/1
f 13/1/1 12/1/1 11/1/1
f 13/8/1 9/8/1 1/8/1
f 14/8/1 2/8/1 4/8/1
f 14/1/1 12/1/1 13/1/1
f 14/1/1 4/1/1 12/1/1
f 15/7/1 14/7/1 13/7/1
f 16/8/1 2/8/1 14/8/1
f 16/7/1 14/7/1 15/7/1
f 17/8/1 13/8/1 1/8/1
f 17/7/1 15/7/1 13/7/1
f 18/1/1 16/1/1 15/1/1
f 18/7/1 15/7/1 17/7/1
f 19/8/1 17/8/1 1/8/1
f 19/1/1 18/1/1 17/1/1
f 20/1/1 16/1/1 18/1/1
f 20/1/1 18/1/1 19/1/1
f 21/7/1 20/7/1 19/7/1
f 21/1/1 16/1/1 20/1/1
f 22/8/1 2/8/1 16/8/1
f 22/1/1 16/1/1 21/1/1
f 23/7/1 21/7/1 19/7/1
f 23/8/1 19/8/1 1/8/1
f 23/7/1 22/7/1 21/7/1
f 24/8/1 2/8/1 22/8/1
f 24/7/1 22/7/1 23/7/1
f 25/8/1 23/8/1 1/8/1
f 25/1/1 24/1/1 23/1/1
f 26/1/1 24/1/1 25/1/1
f 27/8/1 25/8/1 1/8/1
f 27/7/1 26/7/1 25/7/1
f 28/1/1 24/1/1 26/1/1
f 28/7/1 26/7/1 27/7/1
f 29/8/1 27/8/1 1/8/1
f 29/1/1 28/1/1 27/1/1
f 30/1/1 24/1/1 28/1/1
f 30/1/1 28/1/1 29/1/1
f 31/8/1 29/8/1 1/8/1
f 31/7/1 30/7/1 29/7/1
f 32/1/1 24/1/1 30/1/1
f 32/7/1 30/7/1 31/7/1
f 33/8/1 31/8/1 1/8/1
f 33/1/1 32/1/1 31/1/1
f 34/8/1 2/8/1 24/8/1
f 34/1/1 32/1/1 33/1/1
f 34/1/1 24/1/1 32/1/1
f 35/8/1 33/8/1 1/8/1
f 35/8/1 34/8/1 33/8/1
f 36/8/1 34/8/1 35/8/1
f 37/8/1 34/8/1 36/8/1
f 38/8/1 2/8/1 34/8/1
f 38/8/1 34/8/1 37/8/1
f 39/8/2 40/8/2 41/8/2
f 41/8/2 40/8/2 42/8/2
f 39/8/2 41/8/2 43/8/2
f 41/1/2 42/1/2 43/1/2
f 43/1/2 42/1/2 44/1/2
f 39/8/2 43/8/2 45/8/2
f 43/7/2 44/7/2 45/7/2
f 44/1/2 42/1/2 46/1/2
f 45/7/2 44/7/2 46/7/2
f 39/8/2 45/8/2 47/8/2
f 45/1/2 46/1/2 47/1/2
f 46/1/2 42/1/2 48/1/2
f 47/1/2 46/1/2 48/1/2
f 39/8/2 47/8/2 49/8/2
f 47/7/2 48/7/2 49/7/2
f 48/1/2 42/1/2 50/1/2
f 49/7/2 48/7/2 50/7/2
f 39/8/2 49/8/2 51/8/2
f 49/1/2 50/1/2 51/1/2
f 42/8/2 40/8/2 52/8/2
f 51/1/2 50/1/2 52/1/2
f 50/1/2 42/1/2 52/1/2
f 51/7/2 52/7/2 53/7/2
f 52/8/2 40/8/2 54/8/2
f 53/7/2 52/7/2 54/7/2
f 39/8/2 51/8/2 55/8/2
f 51/7/2 53/7/2 55/7/2
f 53/1/2 54/1/2 56/1/2
f 55/7/2 53/7/2 56/7/2
f 39/8/2 55/8/2 57/8/2
f 55/1/2 56/1/2 57/1/2
f 56/1/2 54/1/2 58/1/2
f 57/1/2 56/1/2 58/1/2
f 57/7/2 58/7/2 59/7/2
f 58/1/2 54/1/2 59/1/2
f 54/8/2 40/8/2 60/8/2
f 59/1/2 54/1/2 60/1/2
f 57/7/2 59/7/2 61/7/2
f 39/8/2 57/8/2 61/8/2
f 59/7/2 60/7/2 61/7/2
f 60/8/2 40/8/2 62/8/2
f 61/7/2 60/7/2 62/7/2
f 39/8/2 61/8/2 63/8/2
f 61/1/2 62/1/2 63/1/2
f 63/1/2 62/1/2 64/1/2
f 64/1/2 62/1/2 65/1/2
f 65/1/2 62/1/2 66/1/2
f 39/8/2 63/8/2 67/8/2
f 63/7/2 64/7/2 67/7/2
f 64/1/2 65/1/2 68/1/2
f 67/7/2 64/7/2 68/7/2
f 65/7/2 66/7/2 69/7/2
f 68/1/2 65/1/2 69/1/2
f 66/1/2 62/1/2 70/1/2
f 69/7/2 66/7/2 70/7/2
f 68/1/2 69/1/2 71/1/2
f 67/1/2 68/1/2 71/1/2
f 69/1/2 70/1/2 71/1/2
f 39/8/2 67/8/2 71/8/2
f 62/8/2 40/8/2 72/8/2
f 71/1/2 70/1/2 72/1/2
f 70/1/2 62/1/2 72/1/2
f 39/8/2 71/8/2 73/8/2
f 71/8/2 72/8/2 73/8/2
f 73/8/2 72/8/2 74/8/2
f 74/8/2 72/8/2 75/8/2
f 72/8/2 40/8/2 76/8/2
f 75/8/2 72/8/2 76/8/2
f 79/8/3 78/8/3 77/8/3
f 80/8/3 78/8/3 79/8/3
f 81/9/3 80/9/3 79/9/3
f 82/9/3 80/9/3 81/9/3
f 83/8/3 78/8/3 80/8/3
f 84/8/3 78/8/3 83/8/3
f 85/9/3 81/9/3 79/9/3
f 85/10/3 82/10/3 81/10/3
f 86/9/3 80/9/3 82/9/3
f 86/10/3 82/10/3 85/10/3
f 87/8/3 79/8/3 77/8/3
f 87/9/3 85/9/3 79/9/3
f 87/9/3 86/9/3 85/9/3
f 88/9/3 80/9/3 86/9/3
f 88/9/3 86/9/3 87/9/3
f 88/8/3 83/8/3 80/8/3
f 89/10/3 84/10/3 83/10/3
f 89/8/3 83/8/3 88/8/3
f 90/8/3 78/8/3 84/8/3
f 90/10/3 84/10/3 89/10/3
f 91/8/3 87/8/3 77/8/3
f 91/8/3 88/8/3 87/8/3
f 91/8/3 90/8/3 89/8/3
f 91/8/3 89/8/3 88/8/3
f 92/8/3 78/8/3 90/8/3
f 92/8/3 90/8/3 91/8/3
f 95/8/3 94/8/3 93/8/3
f 96/8/3 94/8/3 95/8/3
f 97/8/3 94/8/3 96/8/3
f 98/8/3 94/8/3 97/8/3
f 99/8/3 94/8/3 98/8/3
f 100/8/3 94/8/3 99/8/3
f 101/8/3 94/8/3 100/8/3
f 102/6/3 96/6/3 95/6/3
f 102/5/3 97/5/3 96/5/3
f 103/6/3 98/6/3 97/6/3
f 103/5/3 97/5/3 102/5/3
f 104/6/3 98/6/3 103/6/3
f 105/5/3 99/5/3 98/5/3
f 105/6/3 98/6/3 104/6/3
f 106/6/3 100/6/3 99/6/3
f 106/5/3 99/5/3 105/5/3
f 107/2/3 101/2/3 100/2/3
f 107/6/3 100/6/3 106/6/3
f 108/5/3 104/5/3 103/5/3
f 108/6/3 103/6/3 102/6/3
f 109/6/3 106/6/3 105/6/3
f 109/5/3 104/5/3 108/5/3
f 109/6/3 105/6/3 104/6/3
f 110/6/3 106/6/3 109/6/3
f 111/5/3 107/5/3 106/5/3
f 111/6/3 106/6/3 110/6/3
f 112/2/3 101/2/3 107/2/3
f 112/5/3 107/5/3 111/5/3
f 113/6/3 108/6/3 102/6/3
f 113/6/3 109/6/3 108/6/3
f 114/5/3 110/5/3 109/5/3
f 114/6/3 109/6/3 113/6/3
f 115/6/3 111/6/3 110/6/3
f 115/5/3 110/5/3 114/5/3
f 115/6/3 112/6/3 111/6/3
f 116/8/3 95/8/3 93/8/3
f 116/6/3 102/6/3 95/6/3
f 116/6/3 113/6/3 102/6/3
f 117/6/3 113/6/3 116/6/3
f 118/5/3 114/5/3 113/5/3
f 118/6/3 113/6/3 117/6/3
f 119/6/3 115/6/3 114/6/3
f 119/5/3 114/5/3 118/5/3
f 120/6/3 112/6/3 115/6/3
f 120/6/3 115/6/3 119/6/3
f 121/5/3 117/5/3 116/5/3
f 121/8/3 116/8/3 93/8/3
f 122/6/3 119/6/3 118/6/3
f 122/5/3 117/5/3 121/5/3
f 122/6/3 118/6/3 117/6/3
f 123/6/3 119/6/3 122/6/3
f 124/5/3 120/5/3 119/5/3
f 124/6/3 119/6/3 123/6/3
f 125/6/3 112/6/3 120/6/3
f 125/5/3 120/5/3 124/5/3
f 126/6/3 112/6/3 125/6/3
f 127/8/3 121/8/3 93/8/3
f 127/6/3 122/6/3 121/6/3
f 128/5/3 123/5/3 122/5/3
f 128/6/3 122/6/3 127/6/3
f 129/6/3 124/6/3 123/6/3
f 129/5/3 123/5/3 128/5/3
f 129/6/3 125/6/3 124/6/3
f 130/5/3 126/5/3 125/5/3
f 130/6/3 125/6/3 129/6/3
f 131/6/3 112/6/3 126/6/3
f 131/5/3 126/5/3 130/5/3
f 132/2/3 101/2/3 112/2/3
f 132/6/3 112/6/3 131/6/3
f 133/8/3 94/8/3 101/8/3
f 133/2/3 101/2/3 132/2/3
f 134/8/3 130/8/3 129/8/3
f 134/8/3 132/8/3 131/8/3
f 134/8/3 133/8/3 132/8/3
f 134/8/3 129/8/3 128/8/3
f 134/8/3 128/8/3 127/8/3
f 134/8/3 127/8/3 93/8/3
f 134/8/3 131/8/3 130/8/3
f 135/8/3 94/8/3 133/8/3
f 135/8/3 133/8/3 134/8/3
f 136/8/4 137/8/4 138/8/4
f 138/8/4 137/8/4 139/8/4
f 142/8/5 141/8/5 140/8/5
f 143/8/5 141/8/5 142/8/5
f 144/8/6 145/8/6 146/8/6
f 146/8/6 145/8/6 147/8/6
f 147/8/6 145/8/6 148/8/6
f 148/8/6 145/8/6 149/8/6
f 149/8/6 145/8/6 150/8/6
f 150/8/6 145/8/6 151/8/6
f 151/8/6 145/8/6 152/8/6
f 144/8/6 146/8/6 153/8/6
f 146/3/6 147/3/6 153/3/6
f 147/4/6 148/4/6 154/4/6
f 153/3/6 147/3/6 154/3/6
f 148/3/6 149/3/6 155/3/6
f 154/4/6 148/4/6 155/4/6
f 149/8/6 150/8/6 156/8/6
f 155/3/6 149/3/6 156/3/6
f 150/4/6 151/4/6 157/4/6
f 156/8/6 150/8/6 157/8/6
f 151/3/6 152/3/6 158/3/6
f 157/4/6 151/4/6 158/4/6
f 152/8/6 145/8/6 159/8/6
f 158/3/6 152/3/6 159/3/6
f 144/8/6 153/8/6 160/8/6
f 153/4/6 154/4/6 160/4/6
f 154/3/6 155/3/6 161/3/6
f 160/4/6 154/4/6 161/4/6
f 155/4/6 156/4/6 162/4/6
f 161/3/6 155/3/6 162/3/6
f 156/8/6 157/8/6 163/8/6
f 162/4/6 156/4/6 163/4/6
f 157/3/6 158/3/6 164/3/6
f 163/8/6 157/8/6 164/8/6
f 158/4/6 159/4/6 165/4/6
f 164/3/6 158/3/6 165/3/6
f 159/8/6 145/8/6 166/8/6
f 165/4/6 159/4/6 166/4/6
f 144/8/6 160/8/6 167/8/6
f 160/3/6 161/3/6 167/3/6
f 161/4/6 162/4/6 168/4/6
f 167/3/6 161/3/6 168/3/6
f 162/3/6 163/3/6 169/3/6
f 168/4/6 162/4/6 169/4/6
f 164/8/6 165/8/6 170/8/6
f 169/3/6 163/3/6 170/3/6
f 163/8/6 164/8/6 170/8/6
f 165/8/6 166/8/6 170/8/6
f 167/8/6 168/8/6 171/8/6
f 144/8/6 167/8/6 171/8/6
f 169/8/6 170/8/6 171/8/6
f 168/8/6 169/8/6 171/8/6
f 170/8/6 166/8/6 172/8/6
f 171/8/6 170/8/6 172/8/6
f 166/8/6 145/8/6 172/8/6
f 173/8/6 174/8/6 175/8/6
f 175/8/6 174/8/6 176/8/6
