# MagicaVoxel @ Ephtracy

# group
g Seven_Bulletin

# material
mtllib Seven_Bulletin.mtl
usemtl palette

# normals
vn -1 0 0
vn 1 0 0
vn 0 0 1
vn 0 0 -1
vn 0 -1 0
vn 0 1 0

# texcoords
vt 0.0488281 0.5
vt 0.0839844 0.5
vt 0.146484 0.5
vt 0.208984 0.5
vt 0.212891 0.5
vt 0.294922 0.5
vt 0.310547 0.5
vt 0.412109 0.5
vt 0.423828 0.5
vt 0.427734 0.5
vt 0.478516 0.5
vt 0.623047 0.5
vt 0.677734 0.5
vt 0.748047 0.5
vt 0.771484 0.5
vt 0.775391 0.5
vt 0.810547 0.5
vt 0.830078 0.5
vt 0.916016 0.5
vt 0.919922 0.5
vt 0.958984 0.5
vt 0.962891 0.5
vt 0.966797 0.5

# verts
v -20 0 -0
v -20 0 -1
v -20 24 -0
v -20 24 -1
v 20 0 -0
v 20 0 -1
v 20 24 -0
v 20 24 -1
v -20 0 -0
v -20 24 -0
v -19 1 -0
v -19 23 -0
v -18 8 -0
v -18 10 -0
v -18 17 -0
v -18 19 -0
v -18 20 -0
v -18 22 -0
v -17 3 -0
v -17 7 -0
v -16 17 -0
v -16 19 -0
v -16 20 -0
v -16 22 -0
v -15 8 -0
v -15 10 -0
v -15 12 -0
v -15 16 -0
v -15 20 -0
v -15 22 -0
v -14 3 -0
v -14 7 -0
v -13 3 -0
v -13 6 -0
v -13 7 -0
v -13 9 -0
v -13 12 -0
v -13 13 -0
v -13 20 -0
v -13 22 -0
v -12 13 -0
v -12 16 -0
v -10 3 -0
v -10 6 -0
v -10 7 -0
v -10 9 -0
v -10 13 -0
v -10 15 -0
v -10 17 -0
v -10 18 -0
v -10 21 -0
v -9 19 -0
v -9 20 -0
v -8 10 -0
v -8 11 -0
v -8 13 -0
v -8 14 -0
v -8 15 -0
v -8 17 -0
v -7 3 -0
v -7 7 -0
v -7 19 -0
v -7 20 -0
v -6 18 -0
v -6 21 -0
v -5 6 -0
v -5 7 -0
v -5 9 -0
v -5 10 -0
v -5 11 -0
v -5 13 -0
v -5 14 -0
v -5 18 -0
v -5 21 -0
v -5 22 -0
v -4 3 -0
v -4 6 -0
v -4 15 -0
v -4 16 -0
v -3 2 -0
v -3 4 -0
v -3 6 -0
v -3 9 -0
v -3 11 -0
v -3 14 -0
v -2 15 -0
v -2 16 -0
v -2 18 -0
v -2 21 -0
v -2 22 -0
v -1 8 -0
v -1 10 -0
v 0 16 -0
v 0 18 -0
v 1 8 -0
v 1 10 -0
v 1 11 -0
v 1 14 -0
v 1 18 -0
v 1 23 -0
v 2 10 -0
v 2 14 -0
v 2 16 -0
v 2 17 -0
v 2 18 -0
v 2 19 -0
v 2 22 -0
v 3 2 -0
v 3 4 -0
v 4 1 -0
v 4 9 -0
v 5 3 -0
v 5 4 -0
v 5 5 -0
v 5 6 -0
v 5 7 -0
v 5 8 -0
v 5 10 -0
v 5 14 -0
v 5 19 -0
v 5 22 -0
v 6 17 -0
v 6 23 -0
v 8 12 -0
v 8 14 -0
v 8 18 -0
v 8 22 -0
v 9 3 -0
v 9 4 -0
v 9 5 -0
v 9 6 -0
v 9 7 -0
v 9 8 -0
v 10 1 -0
v 10 9 -0
v 10 14 -0
v 10 15 -0
v 10 17 -0
v 10 20 -0
v 10 22 -0
v 11 12 -0
v 11 13 -0
v 11 14 -0
v 11 18 -0
v 11 20 -0
v 12 5 -0
v 12 8 -0
v 12 9 -0
v 13 13 -0
v 13 15 -0
v 13 17 -0
v 13 20 -0
v 13 22 -0
v 14 12 -0
v 14 16 -0
v 14 19 -0
v 14 22 -0
v 15 5 -0
v 15 8 -0
v 15 9 -0
v 16 1 -0
v 16 3 -0
v 16 7 -0
v 16 10 -0
v 17 12 -0
v 17 16 -0
v 18 7 -0
v 18 10 -0
v 18 19 -0
v 18 22 -0
v 19 1 -0
v 19 3 -0
v 19 23 -0
v 20 0 -0
v 20 24 -0
v -20 0 -1
v -20 24 -1
v -19 1 -1
v -19 23 -1
v -18 8 -1
v -18 10 -1
v -18 17 -1
v -18 19 -1
v -18 20 -1
v -18 22 -1
v -17 3 -1
v -17 7 -1
v -16 17 -1
v -16 19 -1
v -16 20 -1
v -16 22 -1
v -15 8 -1
v -15 10 -1
v -15 12 -1
v -15 16 -1
v -15 20 -1
v -15 22 -1
v -14 3 -1
v -14 7 -1
v -13 3 -1
v -13 6 -1
v -13 7 -1
v -13 9 -1
v -13 12 -1
v -13 13 -1
v -13 20 -1
v -13 22 -1
v -12 13 -1
v -12 16 -1
v -10 3 -1
v -10 6 -1
v -10 7 -1
v -10 9 -1
v -10 13 -1
v -10 15 -1
v -10 17 -1
v -10 18 -1
v -10 21 -1
v -9 19 -1
v -9 20 -1
v -8 10 -1
v -8 11 -1
v -8 13 -1
v -8 14 -1
v -8 15 -1
v -8 17 -1
v -7 3 -1
v -7 7 -1
v -7 19 -1
v -7 20 -1
v -6 18 -1
v -6 21 -1
v -5 6 -1
v -5 7 -1
v -5 9 -1
v -5 10 -1
v -5 11 -1
v -5 13 -1
v -5 14 -1
v -5 18 -1
v -5 21 -1
v -5 22 -1
v -4 3 -1
v -4 6 -1
v -4 15 -1
v -4 16 -1
v -3 2 -1
v -3 4 -1
v -3 6 -1
v -3 9 -1
v -3 11 -1
v -3 14 -1
v -2 15 -1
v -2 16 -1
v -2 18 -1
v -2 21 -1
v -2 22 -1
v -1 8 -1
v -1 10 -1
v 0 16 -1
v 0 18 -1
v 1 8 -1
v 1 10 -1
v 1 11 -1
v 1 14 -1
v 1 18 -1
v 1 23 -1
v 2 10 -1
v 2 14 -1
v 2 16 -1
v 2 17 -1
v 2 18 -1
v 2 19 -1
v 2 22 -1
v 3 2 -1
v 3 4 -1
v 4 1 -1
v 4 9 -1
v 5 3 -1
v 5 4 -1
v 5 5 -1
v 5 6 -1
v 5 7 -1
v 5 8 -1
v 5 10 -1
v 5 14 -1
v 5 19 -1
v 5 22 -1
v 6 17 -1
v 6 23 -1
v 8 12 -1
v 8 14 -1
v 8 18 -1
v 8 22 -1
v 9 3 -1
v 9 4 -1
v 9 5 -1
v 9 6 -1
v 9 7 -1
v 9 8 -1
v 10 1 -1
v 10 9 -1
v 10 14 -1
v 10 15 -1
v 10 17 -1
v 10 20 -1
v 10 22 -1
v 11 12 -1
v 11 13 -1
v 11 14 -1
v 11 18 -1
v 11 20 -1
v 12 5 -1
v 12 8 -1
v 12 9 -1
v 13 13 -1
v 13 15 -1
v 13 17 -1
v 13 20 -1
v 13 22 -1
v 14 12 -1
v 14 16 -1
v 14 19 -1
v 14 22 -1
v 15 5 -1
v 15 8 -1
v 15 9 -1
v 16 1 -1
v 16 3 -1
v 16 7 -1
v 16 10 -1
v 17 12 -1
v 17 16 -1
v 18 7 -1
v 18 10 -1
v 18 19 -1
v 18 22 -1
v 19 1 -1
v 19 3 -1
v 19 23 -1
v 20 0 -1
v 20 24 -1
v -20 0 -0
v 20 0 -0
v -20 0 -1
v 20 0 -1
v -20 24 -0
v 20 24 -0
v -20 24 -1
v 20 24 -1

# faces
f 3/7/1 2/7/1 1/7/1
f 4/7/1 2/7/1 3/7/1
f 5/7/2 6/7/2 7/7/2
f 7/7/2 6/7/2 8/7/2
f 11/7/3 10/7/3 9/7/3
f 12/7/3 10/7/3 11/7/3
f 13/6/3 12/6/3 11/6/3
f 14/6/3 12/6/3 13/6/3
f 15/6/3 12/6/3 14/6/3
f 16/6/3 12/6/3 15/6/3
f 17/6/3 12/6/3 16/6/3
f 18/6/3 12/6/3 17/6/3
f 19/6/3 13/6/3 11/6/3
f 20/6/3 13/6/3 19/6/3
f 21/6/3 15/6/3 14/6/3
f 21/9/3 16/9/3 15/9/3
f 22/6/3 17/6/3 16/6/3
f 22/9/3 16/9/3 21/9/3
f 23/9/3 18/9/3 17/9/3
f 23/6/3 17/6/3 22/6/3
f 24/6/3 12/6/3 18/6/3
f 24/9/3 18/9/3 23/9/3
f 25/4/3 14/4/3 13/4/3
f 25/6/3 13/6/3 20/6/3
f 26/6/3 23/6/3 22/6/3
f 26/4/3 14/4/3 25/4/3
f 26/6/3 24/6/3 23/6/3
f 26/6/3 21/6/3 14/6/3
f 26/6/3 22/6/3 21/6/3
f 27/6/3 24/6/3 26/6/3
f 28/6/3 24/6/3 27/6/3
f 29/6/3 24/6/3 28/6/3
f 30/6/3 12/6/3 24/6/3
f 30/6/3 24/6/3 29/6/3
f 31/6/3 19/6/3 11/6/3
f 31/19/3 20/19/3 19/19/3
f 32/6/3 25/6/3 20/6/3
f 32/19/3 20/19/3 31/19/3
f 32/6/3 26/6/3 25/6/3
f 32/6/3 27/6/3 26/6/3
f 33/6/3 31/6/3 11/6/3
f 33/6/3 32/6/3 31/6/3
f 34/6/3 32/6/3 33/6/3
f 35/6/3 27/6/3 32/6/3
f 35/6/3 32/6/3 34/6/3
f 36/6/3 27/6/3 35/6/3
f 37/21/3 28/21/3 27/21/3
f 37/6/3 27/6/3 36/6/3
f 38/21/3 28/21/3 37/21/3
f 39/6/3 29/6/3 28/6/3
f 39/9/3 30/9/3 29/9/3
f 40/6/3 12/6/3 30/6/3
f 40/9/3 30/9/3 39/9/3
f 41/21/3 28/21/3 38/21/3
f 41/22/3 38/22/3 37/22/3
f 41/22/3 37/22/3 36/22/3
f 42/6/3 39/6/3 28/6/3
f 42/21/3 28/21/3 41/21/3
f 42/6/3 40/6/3 39/6/3
f 43/19/3 34/19/3 33/19/3
f 43/6/3 33/6/3 11/6/3
f 44/10/3 35/10/3 34/10/3
f 44/19/3 34/19/3 43/19/3
f 45/6/3 36/6/3 35/6/3
f 45/10/3 35/10/3 44/10/3
f 46/22/3 41/22/3 36/22/3
f 46/6/3 36/6/3 45/6/3
f 47/6/3 42/6/3 41/6/3
f 47/22/3 41/22/3 46/22/3
f 48/6/3 42/6/3 47/6/3
f 49/6/3 40/6/3 42/6/3
f 49/6/3 42/6/3 48/6/3
f 50/6/3 40/6/3 49/6/3
f 51/6/3 40/6/3 50/6/3
f 52/14/3 51/14/3 50/14/3
f 53/14/3 51/14/3 52/14/3
f 54/6/3 48/6/3 47/6/3
f 54/6/3 45/6/3 44/6/3
f 54/6/3 44/6/3 43/6/3
f 54/6/3 46/6/3 45/6/3
f 54/6/3 47/6/3 46/6/3
f 55/6/3 48/6/3 54/6/3
f 56/6/3 48/6/3 55/6/3
f 57/6/3 48/6/3 56/6/3
f 58/13/3 49/13/3 48/13/3
f 58/6/3 48/6/3 57/6/3
f 59/6/3 50/6/3 49/6/3
f 59/13/3 49/13/3 58/13/3
f 60/6/3 43/6/3 11/6/3
f 60/6/3 54/6/3 43/6/3
f 61/6/3 54/6/3 60/6/3
f 62/13/3 53/13/3 52/13/3
f 62/14/3 52/14/3 50/14/3
f 63/14/3 51/14/3 53/14/3
f 63/13/3 53/13/3 62/13/3
f 64/14/3 62/14/3 50/14/3
f 64/6/3 50/6/3 59/6/3
f 64/14/3 63/14/3 62/14/3
f 64/6/3 58/6/3 57/6/3
f 64/6/3 59/6/3 58/6/3
f 65/14/3 51/14/3 63/14/3
f 65/14/3 63/14/3 64/14/3
f 65/6/3 40/6/3 51/6/3
f 66/13/3 61/13/3 60/13/3
f 67/6/3 54/6/3 61/6/3
f 67/13/3 61/13/3 66/13/3
f 68/6/3 54/6/3 67/6/3
f 69/5/3 55/5/3 54/5/3
f 69/6/3 54/6/3 68/6/3
f 70/12/3 56/12/3 55/12/3
f 70/5/3 55/5/3 69/5/3
f 71/5/3 57/5/3 56/5/3
f 71/12/3 56/12/3 70/12/3
f 72/6/3 64/6/3 57/6/3
f 72/5/3 57/5/3 71/5/3
f 72/6/3 65/6/3 64/6/3
f 73/6/3 65/6/3 72/6/3
f 74/6/3 40/6/3 65/6/3
f 74/6/3 65/6/3 73/6/3
f 75/6/3 12/6/3 40/6/3
f 75/6/3 40/6/3 74/6/3
f 76/13/3 66/13/3 60/13/3
f 76/6/3 60/6/3 11/6/3
f 77/19/3 68/19/3 67/19/3
f 77/13/3 66/13/3 76/13/3
f 77/19/3 67/19/3 66/19/3
f 78/6/3 71/6/3 70/6/3
f 78/6/3 73/6/3 72/6/3
f 78/6/3 69/6/3 68/6/3
f 78/6/3 72/6/3 71/6/3
f 78/6/3 70/6/3 69/6/3
f 79/6/3 73/6/3 78/6/3
f 80/6/3 77/6/3 76/6/3
f 80/6/3 76/6/3 11/6/3
f 81/6/3 77/6/3 80/6/3
f 82/19/3 68/19/3 77/19/3
f 82/6/3 77/6/3 81/6/3
f 83/6/3 78/6/3 68/6/3
f 83/19/3 68/19/3 82/19/3
f 84/6/3 78/6/3 83/6/3
f 85/6/3 78/6/3 84/6/3
f 86/17/3 79/17/3 78/17/3
f 86/6/3 78/6/3 85/6/3
f 87/6/3 73/6/3 79/6/3
f 87/17/3 79/17/3 86/17/3
f 88/19/3 74/19/3 73/19/3
f 88/6/3 73/6/3 87/6/3
f 89/3/3 75/3/3 74/3/3
f 89/19/3 74/19/3 88/19/3
f 90/6/3 12/6/3 75/6/3
f 90/3/3 75/3/3 89/3/3
f 91/6/3 82/6/3 81/6/3
f 91/6/3 83/6/3 82/6/3
f 91/6/3 84/6/3 83/6/3
f 92/6/3 84/6/3 91/6/3
f 93/6/3 87/6/3 86/6/3
f 93/6/3 89/6/3 88/6/3
f 93/6/3 88/6/3 87/6/3
f 93/6/3 90/6/3 89/6/3
f 94/6/3 90/6/3 93/6/3
f 95/2/3 92/2/3 91/2/3
f 95/6/3 91/6/3 81/6/3
f 96/6/3 84/6/3 92/6/3
f 96/2/3 92/2/3 95/2/3
f 97/23/3 85/23/3 84/23/3
f 97/6/3 84/6/3 96/6/3
f 98/6/3 86/6/3 85/6/3
f 98/23/3 85/23/3 97/23/3
f 98/6/3 93/6/3 86/6/3
f 99/6/3 90/6/3 94/6/3
f 99/2/3 94/2/3 93/2/3
f 100/7/3 10/7/3 12/7/3
f 100/6/3 90/6/3 99/6/3
f 100/6/3 12/6/3 90/6/3
f 101/6/3 98/6/3 97/6/3
f 101/6/3 97/6/3 96/6/3
f 101/6/3 96/6/3 95/6/3
f 102/6/3 93/6/3 98/6/3
f 102/6/3 98/6/3 101/6/3
f 103/2/3 99/2/3 93/2/3
f 103/6/3 93/6/3 102/6/3
f 104/2/3 99/2/3 103/2/3
f 105/3/3 100/3/3 99/3/3
f 105/2/3 99/2/3 104/2/3
f 106/3/3 100/3/3 105/3/3
f 107/3/3 100/3/3 106/3/3
f 108/16/3 81/16/3 80/16/3
f 108/6/3 80/6/3 11/6/3
f 109/6/3 95/6/3 81/6/3
f 109/16/3 81/16/3 108/16/3
f 109/6/3 101/6/3 95/6/3
f 110/7/3 11/7/3 9/7/3
f 110/6/3 108/6/3 11/6/3
f 110/6/3 109/6/3 108/6/3
f 111/6/3 101/6/3 109/6/3
f 111/6/3 109/6/3 110/6/3
f 112/15/3 111/15/3 110/15/3
f 113/15/3 111/15/3 112/15/3
f 114/15/3 111/15/3 113/15/3
f 115/15/3 111/15/3 114/15/3
f 116/15/3 111/15/3 115/15/3
f 117/15/3 111/15/3 116/15/3
f 118/19/3 102/19/3 101/19/3
f 118/6/3 101/6/3 111/6/3
f 119/6/3 104/6/3 103/6/3
f 119/19/3 102/19/3 118/19/3
f 119/6/3 103/6/3 102/6/3
f 120/3/3 105/3/3 104/3/3
f 120/3/3 106/3/3 105/3/3
f 120/21/3 107/21/3 106/21/3
f 121/3/3 100/3/3 107/3/3
f 121/21/3 107/21/3 120/21/3
f 122/3/3 120/3/3 104/3/3
f 122/6/3 104/6/3 119/6/3
f 122/3/3 121/3/3 120/3/3
f 122/6/3 119/6/3 118/6/3
f 123/3/3 100/3/3 121/3/3
f 123/3/3 121/3/3 122/3/3
f 123/7/3 10/7/3 100/7/3
f 124/6/3 122/6/3 118/6/3
f 124/6/3 123/6/3 122/6/3
f 125/6/3 123/6/3 124/6/3
f 126/6/3 123/6/3 125/6/3
f 127/6/3 123/6/3 126/6/3
f 128/11/3 113/11/3 112/11/3
f 128/15/3 112/15/3 110/15/3
f 129/15/3 114/15/3 113/15/3
f 129/11/3 113/11/3 128/11/3
f 130/11/3 115/11/3 114/11/3
f 130/15/3 114/15/3 129/15/3
f 131/15/3 116/15/3 115/15/3
f 131/11/3 115/11/3 130/11/3
f 132/11/3 117/11/3 116/11/3
f 132/15/3 116/15/3 131/15/3
f 133/15/3 111/15/3 117/15/3
f 133/11/3 117/11/3 132/11/3
f 134/7/3 110/7/3 9/7/3
f 134/15/3 132/15/3 131/15/3
f 134/15/3 133/15/3 132/15/3
f 134/15/3 128/15/3 110/15/3
f 134/15/3 129/15/3 128/15/3
f 134/15/3 130/15/3 129/15/3
f 134/15/3 131/15/3 130/15/3
f 135/15/3 111/15/3 133/15/3
f 135/15/3 133/15/3 134/15/3
f 135/6/3 118/6/3 111/6/3
f 135/6/3 124/6/3 118/6/3
f 136/6/3 126/6/3 125/6/3
f 136/15/3 125/15/3 124/15/3
f 137/6/3 126/6/3 136/6/3
f 138/6/3 126/6/3 137/6/3
f 139/18/3 127/18/3 126/18/3
f 140/6/3 123/6/3 127/6/3
f 140/18/3 127/18/3 139/18/3
f 141/6/3 124/6/3 135/6/3
f 141/6/3 135/6/3 134/6/3
f 141/15/3 136/15/3 124/15/3
f 142/15/3 136/15/3 141/15/3
f 143/19/3 137/19/3 136/19/3
f 143/15/3 136/15/3 142/15/3
f 144/18/3 139/18/3 126/18/3
f 144/6/3 126/6/3 138/6/3
f 145/1/3 140/1/3 139/1/3
f 145/18/3 139/18/3 144/18/3
f 146/6/3 142/6/3 141/6/3
f 146/6/3 141/6/3 134/6/3
f 147/6/3 142/6/3 146/6/3
f 148/6/3 142/6/3 147/6/3
f 149/19/3 143/19/3 142/19/3
f 149/6/3 142/6/3 148/6/3
f 150/19/3 137/19/3 143/19/3
f 150/19/3 143/19/3 149/19/3
f 150/4/3 138/4/3 137/4/3
f 151/6/3 144/6/3 138/6/3
f 151/4/3 138/4/3 150/4/3
f 151/6/3 145/6/3 144/6/3
f 152/1/3 140/1/3 145/1/3
f 152/6/3 145/6/3 151/6/3
f 153/6/3 123/6/3 140/6/3
f 153/1/3 140/1/3 152/1/3
f 154/6/3 152/6/3 151/6/3
f 154/6/3 150/6/3 149/6/3
f 154/6/3 153/6/3 152/6/3
f 154/6/3 149/6/3 148/6/3
f 154/6/3 151/6/3 150/6/3
f 155/6/3 153/6/3 154/6/3
f 156/6/3 153/6/3 155/6/3
f 157/6/3 123/6/3 153/6/3
f 157/6/3 153/6/3 156/6/3
f 158/6/3 146/6/3 134/6/3
f 158/21/3 147/21/3 146/21/3
f 159/3/3 148/3/3 147/3/3
f 159/21/3 147/21/3 158/21/3
f 160/6/3 154/6/3 148/6/3
f 160/3/3 148/3/3 159/3/3
f 161/7/3 134/7/3 9/7/3
f 161/6/3 158/6/3 134/6/3
f 161/6/3 160/6/3 159/6/3
f 161/6/3 159/6/3 158/6/3
f 162/6/3 160/6/3 161/6/3
f 163/6/3 160/6/3 162/6/3
f 164/6/3 154/6/3 160/6/3
f 164/6/3 160/6/3 163/6/3
f 165/20/3 155/20/3 154/20/3
f 165/6/3 154/6/3 164/6/3
f 166/6/3 156/6/3 155/6/3
f 166/20/3 155/20/3 165/20/3
f 167/6/3 163/6/3 162/6/3
f 167/21/3 164/21/3 163/21/3
f 168/6/3 165/6/3 164/6/3
f 168/21/3 164/21/3 167/21/3
f 168/6/3 166/6/3 165/6/3
f 169/6/3 156/6/3 166/6/3
f 169/6/3 166/6/3 168/6/3
f 169/8/3 157/8/3 156/8/3
f 170/6/3 123/6/3 157/6/3
f 170/8/3 157/8/3 169/8/3
f 171/7/3 161/7/3 9/7/3
f 171/9/3 162/9/3 161/9/3
f 172/6/3 168/6/3 167/6/3
f 172/9/3 162/9/3 171/9/3
f 172/6/3 167/6/3 162/6/3
f 172/6/3 170/6/3 169/6/3
f 172/6/3 169/6/3 168/6/3
f 173/6/3 123/6/3 170/6/3
f 173/6/3 170/6/3 172/6/3
f 173/7/3 10/7/3 123/7/3
f 174/7/3 171/7/3 9/7/3
f 174/7/3 172/7/3 171/7/3
f 174/7/3 173/7/3 172/7/3
f 175/7/3 10/7/3 173/7/3
f 175/7/3 173/7/3 174/7/3
f 176/7/4 177/7/4 178/7/4
f 178/7/4 177/7/4 179/7/4
f 178/6/4 179/6/4 180/6/4
f 180/6/4 179/6/4 181/6/4
f 181/6/4 179/6/4 182/6/4
f 182/6/4 179/6/4 183/6/4
f 183/6/4 179/6/4 184/6/4
f 184/6/4 179/6/4 185/6/4
f 178/6/4 180/6/4 186/6/4
f 186/6/4 180/6/4 187/6/4
f 181/6/4 182/6/4 188/6/4
f 182/9/4 183/9/4 188/9/4
f 183/6/4 184/6/4 189/6/4
f 188/9/4 183/9/4 189/9/4
f 184/9/4 185/9/4 190/9/4
f 189/6/4 184/6/4 190/6/4
f 185/6/4 179/6/4 191/6/4
f 190/9/4 185/9/4 191/9/4
f 180/4/4 181/4/4 192/4/4
f 187/6/4 180/6/4 192/6/4
f 189/6/4 190/6/4 193/6/4
f 192/4/4 181/4/4 193/4/4
f 190/6/4 191/6/4 193/6/4
f 181/6/4 188/6/4 193/6/4
f 188/6/4 189/6/4 193/6/4
f 193/6/4 191/6/4 194/6/4
f 194/6/4 191/6/4 195/6/4
f 195/6/4 191/6/4 196/6/4
f 191/6/4 179/6/4 197/6/4
f 196/6/4 191/6/4 197/6/4
f 178/6/4 186/6/4 198/6/4
f 186/19/4 187/19/4 198/19/4
f 187/6/4 192/6/4 199/6/4
f 198/19/4 187/19/4 199/19/4
f 192/6/4 193/6/4 199/6/4
f 193/6/4 194/6/4 199/6/4
f 178/6/4 198/6/4 200/6/4
f 198/6/4 199/6/4 200/6/4
f 200/6/4 199/6/4 201/6/4
f 199/6/4 194/6/4 202/6/4
f 201/6/4 199/6/4 202/6/4
f 202/6/4 194/6/4 203/6/4
f 194/21/4 195/21/4 204/21/4
f 203/6/4 194/6/4 204/6/4
f 204/21/4 195/21/4 205/21/4
f 195/6/4 196/6/4 206/6/4
f 196/9/4 197/9/4 206/9/4
f 197/6/4 179/6/4 207/6/4
f 206/9/4 197/9/4 207/9/4
f 205/21/4 195/21/4 208/21/4
f 204/22/4 205/22/4 208/22/4
f 203/22/4 204/22/4 208/22/4
f 195/6/4 206/6/4 209/6/4
f 208/21/4 195/21/4 209/21/4
f 206/6/4 207/6/4 209/6/4
f 200/19/4 201/19/4 210/19/4
f 178/6/4 200/6/4 210/6/4
f 201/10/4 202/10/4 211/10/4
f 210/19/4 201/19/4 211/19/4
f 202/6/4 203/6/4 212/6/4
f 211/10/4 202/10/4 212/10/4
f 203/22/4 208/22/4 213/22/4
f 212/6/4 203/6/4 213/6/4
f 208/6/4 209/6/4 214/6/4
f 213/22/4 208/22/4 214/22/4
f 214/6/4 209/6/4 215/6/4
f 209/6/4 207/6/4 216/6/4
f 215/6/4 209/6/4 216/6/4
f 216/6/4 207/6/4 217/6/4
f 217/6/4 207/6/4 218/6/4
f 217/14/4 218/14/4 219/14/4
f 219/14/4 218/14/4 220/14/4
f 214/6/4 215/6/4 221/6/4
f 211/6/4 212/6/4 221/6/4
f 210/6/4 211/6/4 221/6/4
f 212/6/4 213/6/4 221/6/4
f 213/6/4 214/6/4 221/6/4
f 221/6/4 215/6/4 222/6/4
f 222/6/4 215/6/4 223/6/4
f 223/6/4 215/6/4 224/6/4
f 215/13/4 216/13/4 225/13/4
f 224/6/4 215/6/4 225/6/4
f 216/6/4 217/6/4 226/6/4
f 225/13/4 216/13/4 226/13/4
f 178/6/4 210/6/4 227/6/4
f 210/6/4 221/6/4 227/6/4
f 227/6/4 221/6/4 228/6/4
f 219/13/4 220/13/4 229/13/4
f 217/14/4 219/14/4 229/14/4
f 220/14/4 218/14/4 230/14/4
f 229/13/4 220/13/4 230/13/4
f 217/14/4 229/14/4 231/14/4
f 226/6/4 217/6/4 231/6/4
f 229/14/4 230/14/4 231/14/4
f 224/6/4 225/6/4 231/6/4
f 225/6/4 226/6/4 231/6/4
f 230/14/4 218/14/4 232/14/4
f 231/14/4 230/14/4 232/14/4
f 218/6/4 207/6/4 232/6/4
f 227/13/4 228/13/4 233/13/4
f 228/6/4 221/6/4 234/6/4
f 233/13/4 228/13/4 234/13/4
f 234/6/4 221/6/4 235/6/4
f 221/5/4 222/5/4 236/5/4
f 235/6/4 221/6/4 236/6/4
f 222/12/4 223/12/4 237/12/4
f 236/5/4 222/5/4 237/5/4
f 223/5/4 224/5/4 238/5/4
f 237/12/4 223/12/4 238/12/4
f 224/6/4 231/6/4 239/6/4
f 238/5/4 224/5/4 239/5/4
f 231/6/4 232/6/4 239/6/4
f 239/6/4 232/6/4 240/6/4
f 232/6/4 207/6/4 241/6/4
f 240/6/4 232/6/4 241/6/4
f 207/6/4 179/6/4 242/6/4
f 241/6/4 207/6/4 242/6/4
f 227/13/4 233/13/4 243/13/4
f 178/6/4 227/6/4 243/6/4
f 234/19/4 235/19/4 244/19/4
f 243/13/4 233/13/4 244/13/4
f 233/19/4 234/19/4 244/19/4
f 237/6/4 238/6/4 245/6/4
f 239/6/4 240/6/4 245/6/4
f 235/6/4 236/6/4 245/6/4
f 238/6/4 239/6/4 245/6/4
f 236/6/4 237/6/4 245/6/4
f 245/6/4 240/6/4 246/6/4
f 243/6/4 244/6/4 247/6/4
f 178/6/4 243/6/4 247/6/4
f 247/6/4 244/6/4 248/6/4
f 244/19/4 235/19/4 249/19/4
f 248/6/4 244/6/4 249/6/4
f 235/6/4 245/6/4 250/6/4
f 249/19/4 235/19/4 250/19/4
f 250/6/4 245/6/4 251/6/4
f 251/6/4 245/6/4 252/6/4
f 245/17/4 246/17/4 253/17/4
f 252/6/4 245/6/4 253/6/4
f 246/6/4 240/6/4 254/6/4
f 253/17/4 246/17/4 254/17/4
f 240/19/4 241/19/4 255/19/4
f 254/6/4 240/6/4 255/6/4
f 241/3/4 242/3/4 256/3/4
f 255/19/4 241/19/4 256/19/4
f 242/6/4 179/6/4 257/6/4
f 256/3/4 242/3/4 257/3/4
f 248/6/4 249/6/4 258/6/4
f 249/6/4 250/6/4 258/6/4
f 250/6/4 251/6/4 258/6/4
f 258/6/4 251/6/4 259/6/4
f 253/6/4 254/6/4 260/6/4
f 255/6/4 256/6/4 260/6/4
f 254/6/4 255/6/4 260/6/4
f 256/6/4 257/6/4 260/6/4
f 260/6/4 257/6/4 261/6/4
f 258/2/4 259/2/4 262/2/4
f 248/6/4 258/6/4 262/6/4
f 259/6/4 251/6/4 263/6/4
f 262/2/4 259/2/4 263/2/4
f 251/23/4 252/23/4 264/23/4
f 263/6/4 251/6/4 264/6/4
f 252/6/4 253/6/4 265/6/4
f 264/23/4 252/23/4 265/23/4
f 253/6/4 260/6/4 265/6/4
f 261/6/4 257/6/4 266/6/4
f 260/2/4 261/2/4 266/2/4
f 179/7/4 177/7/4 267/7/4
f 266/6/4 257/6/4 267/6/4
f 257/6/4 179/6/4 267/6/4
f 264/6/4 265/6/4 268/6/4
f 263/6/4 264/6/4 268/6/4
f 262/6/4 263/6/4 268/6/4
f 265/6/4 260/6/4 269/6/4
f 268/6/4 265/6/4 269/6/4
f 260/2/4 266/2/4 270/2/4
f 269/6/4 260/6/4 270/6/4
f 270/2/4 266/2/4 271/2/4
f 266/3/4 267/3/4 272/3/4
f 271/2/4 266/2/4 272/2/4
f 272/3/4 267/3/4 273/3/4
f 273/3/4 267/3/4 274/3/4
f 247/16/4 248/16/4 275/16/4
f 178/6/4 247/6/4 275/6/4
f 248/6/4 262/6/4 276/6/4
f 275/16/4 248/16/4 276/16/4
f 262/6/4 268/6/4 276/6/4
f 176/7/4 178/7/4 277/7/4
f 178/6/4 275/6/4 277/6/4
f 275/6/4 276/6/4 277/6/4
f 276/6/4 268/6/4 278/6/4
f 277/6/4 276/6/4 278/6/4
f 277/15/4 278/15/4 279/15/4
f 279/15/4 278/15/4 280/15/4
f 280/15/4 278/15/4 281/15/4
f 281/15/4 278/15/4 282/15/4
f 282/15/4 278/15/4 283/15/4
f 283/15/4 278/15/4 284/15/4
f 268/19/4 269/19/4 285/19/4
f 278/6/4 268/6/4 285/6/4
f 270/6/4 271/6/4 286/6/4
f 285/19/4 269/19/4 286/19/4
f 269/6/4 270/6/4 286/6/4
f 271/3/4 272/3/4 287/3/4
f 272/3/4 273/3/4 287/3/4
f 273/21/4 274/21/4 287/21/4
f 274/3/4 267/3/4 288/3/4
f 287/21/4 274/21/4 288/21/4
f 271/3/4 287/3/4 289/3/4
f 286/6/4 271/6/4 289/6/4
f 287/3/4 288/3/4 289/3/4
f 285/6/4 286/6/4 289/6/4
f 288/3/4 267/3/4 290/3/4
f 289/3/4 288/3/4 290/3/4
f 267/7/4 177/7/4 290/7/4
f 285/6/4 289/6/4 291/6/4
f 289/6/4 290/6/4 291/6/4
f 291/6/4 290/6/4 292/6/4
f 292/6/4 290/6/4 293/6/4
f 293/6/4 290/6/4 294/6/4
f 279/11/4 280/11/4 295/11/4
f 277/15/4 279/15/4 295/15/4
f 280/15/4 281/15/4 296/15/4
f 295/11/4 280/11/4 296/11/4
f 281/11/4 282/11/4 297/11/4
f 296/15/4 281/15/4 297/15/4
f 282/15/4 283/15/4 298/15/4
f 297/11/4 282/11/4 298/11/4
f 283/11/4 284/11/4 299/11/4
f 298/15/4 283/15/4 299/15/4
f 284/15/4 278/15/4 300/15/4
f 299/11/4 284/11/4 300/11/4
f 176/7/4 277/7/4 301/7/4
f 298/15/4 299/15/4 301/15/4
f 299/15/4 300/15/4 301/15/4
f 277/15/4 295/15/4 301/15/4
f 295/15/4 296/15/4 301/15/4
f 296/15/4 297/15/4 301/15/4
f 297/15/4 298/15/4 301/15/4
f 300/15/4 278/15/4 302/15/4
f 301/15/4 300/15/4 302/15/4
f 278/6/4 285/6/4 302/6/4
f 285/6/4 291/6/4 302/6/4
f 292/6/4 293/6/4 303/6/4
f 291/15/4 292/15/4 303/15/4
f 303/6/4 293/6/4 304/6/4
f 304/6/4 293/6/4 305/6/4
f 293/18/4 294/18/4 306/18/4
f 294/6/4 290/6/4 307/6/4
f 306/18/4 294/18/4 307/18/4
f 302/6/4 291/6/4 308/6/4
f 301/6/4 302/6/4 308/6/4
f 291/15/4 303/15/4 308/15/4
f 308/15/4 303/15/4 309/15/4
f 303/19/4 304/19/4 310/19/4
f 309/15/4 303/15/4 310/15/4
f 293/18/4 306/18/4 311/18/4
f 305/6/4 293/6/4 311/6/4
f 306/1/4 307/1/4 312/1/4
f 311/18/4 306/18/4 312/18/4
f 308/6/4 309/6/4 313/6/4
f 301/6/4 308/6/4 313/6/4
f 313/6/4 309/6/4 314/6/4
f 314/6/4 309/6/4 315/6/4
f 309/19/4 310/19/4 316/19/4
f 315/6/4 309/6/4 316/6/4
f 310/19/4 304/19/4 317/19/4
f 316/19/4 310/19/4 317/19/4
f 304/4/4 305/4/4 317/4/4
f 305/6/4 311/6/4 318/6/4
f 317/4/4 305/4/4 318/4/4
f 311/6/4 312/6/4 318/6/4
f 312/1/4 307/1/4 319/1/4
f 318/6/4 312/6/4 319/6/4
f 307/6/4 290/6/4 320/6/4
f 319/1/4 307/1/4 320/1/4
f 318/6/4 319/6/4 321/6/4
f 316/6/4 317/6/4 321/6/4
f 319/6/4 320/6/4 321/6/4
f 315/6/4 316/6/4 321/6/4
f 317/6/4 318/6/4 321/6/4
f 321/6/4 320/6/4 322/6/4
f 322/6/4 320/6/4 323/6/4
f 320/6/4 290/6/4 324/6/4
f 323/6/4 320/6/4 324/6/4
f 301/6/4 313/6/4 325/6/4
f 313/21/4 314/21/4 325/21/4
f 314/3/4 315/3/4 326/3/4
f 325/21/4 314/21/4 326/21/4
f 315/6/4 321/6/4 327/6/4
f 326/3/4 315/3/4 327/3/4
f 176/7/4 301/7/4 328/7/4
f 301/6/4 325/6/4 328/6/4
f 326/6/4 327/6/4 328/6/4
f 325/6/4 326/6/4 328/6/4
f 328/6/4 327/6/4 329/6/4
f 329/6/4 327/6/4 330/6/4
f 327/6/4 321/6/4 331/6/4
f 330/6/4 327/6/4 331/6/4
f 321/20/4 322/20/4 332/20/4
f 331/6/4 321/6/4 332/6/4
f 322/6/4 323/6/4 333/6/4
f 332/20/4 322/20/4 333/20/4
f 329/6/4 330/6/4 334/6/4
f 330/21/4 331/21/4 334/21/4
f 331/6/4 332/6/4 335/6/4
f 334/21/4 331/21/4 335/21/4
f 332/6/4 333/6/4 335/6/4
f 333/6/4 323/6/4 336/6/4
f 335/6/4 333/6/4 336/6/4
f 323/8/4 324/8/4 336/8/4
f 324/6/4 290/6/4 337/6/4
f 336/8/4 324/8/4 337/8/4
f 176/7/4 328/7/4 338/7/4
f 328/9/4 329/9/4 338/9/4
f 334/6/4 335/6/4 339/6/4
f 338/9/4 329/9/4 339/9/4
f 329/6/4 334/6/4 339/6/4
f 336/6/4 337/6/4 339/6/4
f 335/6/4 336/6/4 339/6/4
f 337/6/4 290/6/4 340/6/4
f 339/6/4 337/6/4 340/6/4
f 290/7/4 177/7/4 340/7/4
f 176/7/4 338/7/4 341/7/4
f 338/7/4 339/7/4 341/7/4
f 339/7/4 340/7/4 341/7/4
f 340/7/4 177/7/4 342/7/4
f 341/7/4 340/7/4 342/7/4
f 345/7/5 344/7/5 343/7/5
f 346/7/5 344/7/5 345/7/5
f 347/7/6 348/7/6 349/7/6
f 349/7/6 348/7/6 350/7/6
