# MagicaVoxel @ Ephtracy

# group
g Steven_WallDecor06

# material
mtllib Steven_WallDecor06.mtl
usemtl palette

# normals
vn -1 0 0
vn 1 0 0
vn 0 0 1
vn 0 0 -1
vn 0 -1 0
vn 0 1 0

# texcoords
vt 0.427734 0.5
vt 0.775391 0.5
vt 0.802734 0.5
vt 0.806641 0.5
vt 0.810547 0.5
vt 0.837891 0.5

# verts
v -6 0 0.5
v -6 0 -0.5
v -6 12 0.5
v -6 12 -0.5
v 6 0 0.5
v 6 0 -0.5
v 6 12 0.5
v 6 12 -0.5
v -6 0 0.5
v -6 12 0.5
v -5 1 0.5
v -5 2 0.5
v -5 3 0.5
v -5 4 0.5
v -5 5 0.5
v -5 6 0.5
v -5 7 0.5
v -5 8 0.5
v -5 9 0.5
v -5 10 0.5
v -5 11 0.5
v -4 1 0.5
v -4 2 0.5
v -4 10 0.5
v -4 11 0.5
v -3 1 0.5
v -3 3 0.5
v -3 9 0.5
v -3 11 0.5
v -2 1 0.5
v -2 4 0.5
v -2 8 0.5
v -2 11 0.5
v -1 1 0.5
v -1 5 0.5
v -1 7 0.5
v -1 11 0.5
v 0 1 0.5
v 0 6 0.5
v 0 11 0.5
v 1 1 0.5
v 1 5 0.5
v 1 7 0.5
v 1 11 0.5
v 2 1 0.5
v 2 4 0.5
v 2 8 0.5
v 2 11 0.5
v 3 1 0.5
v 3 3 0.5
v 3 9 0.5
v 3 11 0.5
v 4 1 0.5
v 4 2 0.5
v 4 10 0.5
v 4 11 0.5
v 5 1 0.5
v 5 2 0.5
v 5 3 0.5
v 5 4 0.5
v 5 5 0.5
v 5 6 0.5
v 5 7 0.5
v 5 8 0.5
v 5 9 0.5
v 5 10 0.5
v 5 11 0.5
v 6 0 0.5
v 6 12 0.5
v -6 0 -0.5
v -6 12 -0.5
v -5 1 -0.5
v -5 2 -0.5
v -5 3 -0.5
v -5 4 -0.5
v -5 5 -0.5
v -5 6 -0.5
v -5 7 -0.5
v -5 8 -0.5
v -5 9 -0.5
v -5 10 -0.5
v -5 11 -0.5
v -4 1 -0.5
v -4 2 -0.5
v -4 10 -0.5
v -4 11 -0.5
v -3 1 -0.5
v -3 3 -0.5
v -3 9 -0.5
v -3 11 -0.5
v -2 1 -0.5
v -2 4 -0.5
v -2 8 -0.5
v -2 11 -0.5
v -1 1 -0.5
v -1 5 -0.5
v -1 7 -0.5
v -1 11 -0.5
v 0 1 -0.5
v 0 6 -0.5
v 0 11 -0.5
v 1 1 -0.5
v 1 5 -0.5
v 1 7 -0.5
v 1 11 -0.5
v 2 1 -0.5
v 2 4 -0.5
v 2 8 -0.5
v 2 11 -0.5
v 3 1 -0.5
v 3 3 -0.5
v 3 9 -0.5
v 3 11 -0.5
v 4 1 -0.5
v 4 2 -0.5
v 4 10 -0.5
v 4 11 -0.5
v 5 1 -0.5
v 5 2 -0.5
v 5 3 -0.5
v 5 4 -0.5
v 5 5 -0.5
v 5 6 -0.5
v 5 7 -0.5
v 5 8 -0.5
v 5 9 -0.5
v 5 10 -0.5
v 5 11 -0.5
v 6 0 -0.5
v 6 12 -0.5
v -6 0 0.5
v 6 0 0.5
v -6 0 -0.5
v 6 0 -0.5
v -6 12 0.5
v 6 12 0.5
v -6 12 -0.5
v 6 12 -0.5

# faces
f 3/1/1 2/1/1 1/1/1
f 4/1/1 2/1/1 3/1/1
f 5/1/2 6/1/2 7/1/2
f 7/1/2 6/1/2 8/1/2
f 11/1/3 10/1/3 9/1/3
f 12/1/3 10/1/3 11/1/3
f 13/1/3 10/1/3 12/1/3
f 14/1/3 10/1/3 13/1/3
f 15/1/3 10/1/3 14/1/3
f 16/1/3 10/1/3 15/1/3
f 17/1/3 10/1/3 16/1/3
f 18/1/3 10/1/3 17/1/3
f 19/1/3 10/1/3 18/1/3
f 20/1/3 10/1/3 19/1/3
f 21/1/3 10/1/3 20/1/3
f 22/1/3 11/1/3 9/1/3
f 22/2/3 12/2/3 11/2/3
f 23/6/3 13/6/3 12/6/3
f 23/2/3 12/2/3 22/2/3
f 24/5/3 21/5/3 20/5/3
f 24/3/3 20/3/3 19/3/3
f 25/1/3 10/1/3 21/1/3
f 25/5/3 21/5/3 24/5/3
f 26/1/3 22/1/3 9/1/3
f 26/6/3 23/6/3 22/6/3
f 27/6/3 13/6/3 23/6/3
f 27/6/3 23/6/3 26/6/3
f 27/4/3 14/4/3 13/4/3
f 28/3/3 24/3/3 19/3/3
f 28/3/3 25/3/3 24/3/3
f 28/4/3 19/4/3 18/4/3
f 29/1/3 10/1/3 25/1/3
f 29/3/3 25/3/3 28/3/3
f 30/1/3 26/1/3 9/1/3
f 30/4/3 27/4/3 26/4/3
f 31/4/3 14/4/3 27/4/3
f 31/4/3 27/4/3 30/4/3
f 31/3/3 15/3/3 14/3/3
f 32/4/3 28/4/3 18/4/3
f 32/4/3 29/4/3 28/4/3
f 32/6/3 18/6/3 17/6/3
f 33/1/3 10/1/3 29/1/3
f 33/4/3 29/4/3 32/4/3
f 34/1/3 30/1/3 9/1/3
f 34/3/3 31/3/3 30/3/3
f 35/3/3 15/3/3 31/3/3
f 35/3/3 31/3/3 34/3/3
f 35/5/3 16/5/3 15/5/3
f 36/6/3 32/6/3 17/6/3
f 36/6/3 33/6/3 32/6/3
f 36/2/3 17/2/3 16/2/3
f 37/1/3 10/1/3 33/1/3
f 37/6/3 33/6/3 36/6/3
f 38/1/3 34/1/3 9/1/3
f 38/5/3 35/5/3 34/5/3
f 39/2/3 36/2/3 16/2/3
f 39/5/3 35/5/3 38/5/3
f 39/5/3 16/5/3 35/5/3
f 39/2/3 37/2/3 36/2/3
f 40/1/3 10/1/3 37/1/3
f 40/2/3 37/2/3 39/2/3
f 41/1/3 38/1/3 9/1/3
f 41/2/3 39/2/3 38/2/3
f 42/2/3 39/2/3 41/2/3
f 43/5/3 40/5/3 39/5/3
f 44/1/3 10/1/3 40/1/3
f 44/5/3 40/5/3 43/5/3
f 45/1/3 41/1/3 9/1/3
f 45/6/3 42/6/3 41/6/3
f 46/6/3 42/6/3 45/6/3
f 47/3/3 44/3/3 43/3/3
f 48/1/3 10/1/3 44/1/3
f 48/3/3 44/3/3 47/3/3
f 49/1/3 45/1/3 9/1/3
f 49/4/3 46/4/3 45/4/3
f 50/4/3 46/4/3 49/4/3
f 51/4/3 48/4/3 47/4/3
f 52/1/3 10/1/3 48/1/3
f 52/4/3 48/4/3 51/4/3
f 53/1/3 49/1/3 9/1/3
f 53/3/3 50/3/3 49/3/3
f 54/3/3 50/3/3 53/3/3
f 55/6/3 52/6/3 51/6/3
f 56/1/3 10/1/3 52/1/3
f 56/6/3 52/6/3 55/6/3
f 57/1/3 53/1/3 9/1/3
f 57/5/3 54/5/3 53/5/3
f 58/3/3 50/3/3 54/3/3
f 58/5/3 54/5/3 57/5/3
f 59/4/3 46/4/3 50/4/3
f 59/3/3 50/3/3 58/3/3
f 60/6/3 42/6/3 46/6/3
f 60/4/3 46/4/3 59/4/3
f 61/2/3 39/2/3 42/2/3
f 61/6/3 42/6/3 60/6/3
f 62/5/3 43/5/3 39/5/3
f 62/2/3 39/2/3 61/2/3
f 63/3/3 47/3/3 43/3/3
f 63/5/3 43/5/3 62/5/3
f 64/4/3 51/4/3 47/4/3
f 64/3/3 47/3/3 63/3/3
f 65/6/3 55/6/3 51/6/3
f 65/4/3 51/4/3 64/4/3
f 66/2/3 56/2/3 55/2/3
f 66/6/3 55/6/3 65/6/3
f 67/1/3 10/1/3 56/1/3
f 67/2/3 56/2/3 66/2/3
f 68/1/3 61/1/3 60/1/3
f 68/1/3 60/1/3 59/1/3
f 68/1/3 67/1/3 66/1/3
f 68/1/3 65/1/3 64/1/3
f 68/1/3 66/1/3 65/1/3
f 68/1/3 57/1/3 9/1/3
f 68/1/3 64/1/3 63/1/3
f 68/1/3 58/1/3 57/1/3
f 68/1/3 63/1/3 62/1/3
f 68/1/3 59/1/3 58/1/3
f 68/1/3 62/1/3 61/1/3
f 69/1/3 10/1/3 67/1/3
f 69/1/3 67/1/3 68/1/3
f 70/1/4 71/1/4 72/1/4
f 72/1/4 71/1/4 73/1/4
f 73/1/4 71/1/4 74/1/4
f 74/1/4 71/1/4 75/1/4
f 75/1/4 71/1/4 76/1/4
f 76/1/4 71/1/4 77/1/4
f 77/1/4 71/1/4 78/1/4
f 78/1/4 71/1/4 79/1/4
f 79/1/4 71/1/4 80/1/4
f 80/1/4 71/1/4 81/1/4
f 81/1/4 71/1/4 82/1/4
f 70/1/4 72/1/4 83/1/4
f 72/2/4 73/2/4 83/2/4
f 73/6/4 74/6/4 84/6/4
f 83/2/4 73/2/4 84/2/4
f 81/5/4 82/5/4 85/5/4
f 80/3/4 81/3/4 85/3/4
f 82/1/4 71/1/4 86/1/4
f 85/5/4 82/5/4 86/5/4
f 70/1/4 83/1/4 87/1/4
f 83/6/4 84/6/4 87/6/4
f 84/6/4 74/6/4 88/6/4
f 87/6/4 84/6/4 88/6/4
f 74/4/4 75/4/4 88/4/4
f 80/3/4 85/3/4 89/3/4
f 85/3/4 86/3/4 89/3/4
f 79/4/4 80/4/4 89/4/4
f 86/1/4 71/1/4 90/1/4
f 89/3/4 86/3/4 90/3/4
f 70/1/4 87/1/4 91/1/4
f 87/4/4 88/4/4 91/4/4
f 88/4/4 75/4/4 92/4/4
f 91/4/4 88/4/4 92/4/4
f 75/3/4 76/3/4 92/3/4
f 79/4/4 89/4/4 93/4/4
f 89/4/4 90/4/4 93/4/4
f 78/6/4 79/6/4 93/6/4
f 90/1/4 71/1/4 94/1/4
f 93/4/4 90/4/4 94/4/4
f 70/1/4 91/1/4 95/1/4
f 91/3/4 92/3/4 95/3/4
f 92/3/4 76/3/4 96/3/4
f 95/3/4 92/3/4 96/3/4
f 76/5/4 77/5/4 96/5/4
f 78/6/4 93/6/4 97/6/4
f 93/6/4 94/6/4 97/6/4
f 77/2/4 78/2/4 97/2/4
f 94/1/4 71/1/4 98/1/4
f 97/6/4 94/6/4 98/6/4
f 70/1/4 95/1/4 99/1/4
f 95/5/4 96/5/4 99/5/4
f 77/2/4 97/2/4 100/2/4
f 99/5/4 96/5/4 100/5/4
f 96/5/4 77/5/4 100/5/4
f 97/2/4 98/2/4 100/2/4
f 98/1/4 71/1/4 101/1/4
f 100/2/4 98/2/4 101/2/4
f 70/1/4 99/1/4 102/1/4
f 99/2/4 100/2/4 102/2/4
f 102/2/4 100/2/4 103/2/4
f 100/5/4 101/5/4 104/5/4
f 101/1/4 71/1/4 105/1/4
f 104/5/4 101/5/4 105/5/4
f 70/1/4 102/1/4 106/1/4
f 102/6/4 103/6/4 106/6/4
f 106/6/4 103/6/4 107/6/4
f 104/3/4 105/3/4 108/3/4
f 105/1/4 71/1/4 109/1/4
f 108/3/4 105/3/4 109/3/4
f 70/1/4 106/1/4 110/1/4
f 106/4/4 107/4/4 110/4/4
f 110/4/4 107/4/4 111/4/4
f 108/4/4 109/4/4 112/4/4
f 109/1/4 71/1/4 113/1/4
f 112/4/4 109/4/4 113/4/4
f 70/1/4 110/1/4 114/1/4
f 110/3/4 111/3/4 114/3/4
f 114/3/4 111/3/4 115/3/4
f 112/6/4 113/6/4 116/6/4
f 113/1/4 71/1/4 117/1/4
f 116/6/4 113/6/4 117/6/4
f 70/1/4 114/1/4 118/1/4
f 114/5/4 115/5/4 118/5/4
f 115/3/4 111/3/4 119/3/4
f 118/5/4 115/5/4 119/5/4
f 111/4/4 107/4/4 120/4/4
f 119/3/4 111/3/4 120/3/4
f 107/6/4 103/6/4 121/6/4
f 120/4/4 107/4/4 121/4/4
f 103/2/4 100/2/4 122/2/4
f 121/6/4 103/6/4 122/6/4
f 100/5/4 104/5/4 123/5/4
f 122/2/4 100/2/4 123/2/4
f 104/3/4 108/3/4 124/3/4
f 123/5/4 104/5/4 124/5/4
f 108/4/4 112/4/4 125/4/4
f 124/3/4 108/3/4 125/3/4
f 112/6/4 116/6/4 126/6/4
f 125/4/4 112/4/4 126/4/4
f 116/2/4 117/2/4 127/2/4
f 126/6/4 116/6/4 127/6/4
f 117/1/4 71/1/4 128/1/4
f 127/2/4 117/2/4 128/2/4
f 121/1/4 122/1/4 129/1/4
f 120/1/4 121/1/4 129/1/4
f 127/1/4 128/1/4 129/1/4
f 125/1/4 126/1/4 129/1/4
f 126/1/4 127/1/4 129/1/4
f 70/1/4 118/1/4 129/1/4
f 124/1/4 125/1/4 129/1/4
f 118/1/4 119/1/4 129/1/4
f 123/1/4 124/1/4 129/1/4
f 119/1/4 120/1/4 129/1/4
f 122/1/4 123/1/4 129/1/4
f 128/1/4 71/1/4 130/1/4
f 129/1/4 128/1/4 130/1/4
f 133/1/5 132/1/5 131/1/5
f 134/1/5 132/1/5 133/1/5
f 135/1/6 136/1/6 137/1/6
f 137/1/6 136/1/6 138/1/6
