# MagicaVoxel @ Ephtracy

# group
g Steven_WallDecor03

# material
mtllib Steven_WallDecor03.mtl
usemtl palette

# normals
vn -1 0 0
vn 1 0 0
vn 0 0 1
vn 0 0 -1
vn 0 -1 0
vn 0 1 0

# texcoords
vt 0.130859 0.5
vt 0.427734 0.5
vt 0.478516 0.5

# verts
v -4.5 0 0.5
v -4.5 0 -0.5
v -4.5 1 0.5
v -4.5 1 -0.5
v -4.5 20 0.5
v -4.5 20 -0.5
v -4.5 21 0.5
v -4.5 21 -0.5
v -3.5 1 0.5
v -3.5 1 -0.5
v -3.5 20 0.5
v -3.5 20 -0.5
v 3.5 1 0.5
v 3.5 1 -0.5
v 3.5 20 0.5
v 3.5 20 -0.5
v 4.5 0 0.5
v 4.5 0 -0.5
v 4.5 1 0.5
v 4.5 1 -0.5
v 4.5 20 0.5
v 4.5 20 -0.5
v 4.5 21 0.5
v 4.5 21 -0.5
v -4.5 0 0.5
v -4.5 1 0.5
v -4.5 20 0.5
v -4.5 21 0.5
v -3.5 1 0.5
v -3.5 20 0.5
v -2.5 2 0.5
v -2.5 7 0.5
v -2.5 8 0.5
v -2.5 12 0.5
v -2.5 15 0.5
v -2.5 18 0.5
v -1.5 3 0.5
v -1.5 4 0.5
v -1.5 5 0.5
v -1.5 6 0.5
v -1.5 8 0.5
v -1.5 12 0.5
v -1.5 13 0.5
v -1.5 14 0.5
v -1.5 15 0.5
v -1.5 18 0.5
v -1.5 19 0.5
v -0.5 9 0.5
v -0.5 12 0.5
v -0.5 13 0.5
v 0.5 8 0.5
v 0.5 9 0.5
v 0.5 12 0.5
v 1.5 2 0.5
v 1.5 3 0.5
v 1.5 4 0.5
v 1.5 5 0.5
v 1.5 6 0.5
v 1.5 7 0.5
v 1.5 8 0.5
v 1.5 9 0.5
v 1.5 13 0.5
v 2.5 3 0.5
v 2.5 4 0.5
v 2.5 5 0.5
v 2.5 6 0.5
v 2.5 9 0.5
v 2.5 13 0.5
v 2.5 14 0.5
v 2.5 15 0.5
v 2.5 18 0.5
v 2.5 19 0.5
v 3.5 1 0.5
v 3.5 20 0.5
v 4.5 0 0.5
v 4.5 1 0.5
v 4.5 20 0.5
v 4.5 21 0.5
v -4.5 0 -0.5
v -4.5 1 -0.5
v -4.5 20 -0.5
v -4.5 21 -0.5
v -3.5 1 -0.5
v -3.5 20 -0.5
v -2.5 2 -0.5
v -2.5 7 -0.5
v -2.5 8 -0.5
v -2.5 12 -0.5
v -2.5 15 -0.5
v -2.5 18 -0.5
v -1.5 3 -0.5
v -1.5 4 -0.5
v -1.5 5 -0.5
v -1.5 6 -0.5
v -1.5 8 -0.5
v -1.5 12 -0.5
v -1.5 13 -0.5
v -1.5 14 -0.5
v -1.5 15 -0.5
v -1.5 18 -0.5
v -1.5 19 -0.5
v -0.5 9 -0.5
v -0.5 12 -0.5
v -0.5 13 -0.5
v 0.5 8 -0.5
v 0.5 9 -0.5
v 0.5 12 -0.5
v 1.5 2 -0.5
v 1.5 3 -0.5
v 1.5 4 -0.5
v 1.5 5 -0.5
v 1.5 6 -0.5
v 1.5 7 -0.5
v 1.5 8 -0.5
v 1.5 9 -0.5
v 1.5 13 -0.5
v 2.5 3 -0.5
v 2.5 4 -0.5
v 2.5 5 -0.5
v 2.5 6 -0.5
v 2.5 9 -0.5
v 2.5 13 -0.5
v 2.5 14 -0.5
v 2.5 15 -0.5
v 2.5 18 -0.5
v 2.5 19 -0.5
v 3.5 1 -0.5
v 3.5 20 -0.5
v 4.5 0 -0.5
v 4.5 1 -0.5
v 4.5 20 -0.5
v 4.5 21 -0.5
v -4.5 0 0.5
v 4.5 0 0.5
v -4.5 0 -0.5
v 4.5 0 -0.5
v -4.5 20 0.5
v -3.5 20 0.5
v 3.5 20 0.5
v 4.5 20 0.5
v -4.5 20 -0.5
v -3.5 20 -0.5
v 3.5 20 -0.5
v 4.5 20 -0.5
v -4.5 1 0.5
v -3.5 1 0.5
v 3.5 1 0.5
v 4.5 1 0.5
v -4.5 1 -0.5
v -3.5 1 -0.5
v 3.5 1 -0.5
v 4.5 1 -0.5
v -4.5 21 0.5
v 4.5 21 0.5
v -4.5 21 -0.5
v 4.5 21 -0.5

# faces
f 3/2/1 2/2/1 1/2/1
f 4/2/1 2/2/1 3/2/1
f 7/2/1 6/2/1 5/2/1
f 8/2/1 6/2/1 7/2/1
f 11/1/1 10/1/1 9/1/1
f 12/1/1 10/1/1 11/1/1
f 13/1/2 14/1/2 15/1/2
f 15/1/2 14/1/2 16/1/2
f 17/2/2 18/2/2 19/2/2
f 19/2/2 18/2/2 20/2/2
f 21/2/2 22/2/2 23/2/2
f 23/2/2 22/2/2 24/2/2
f 29/2/3 26/2/3 25/2/3
f 30/2/3 28/2/3 27/2/3
f 31/1/3 30/1/3 29/1/3
f 32/1/3 30/1/3 31/1/3
f 33/1/3 30/1/3 32/1/3
f 34/1/3 30/1/3 33/1/3
f 35/1/3 30/1/3 34/1/3
f 36/1/3 30/1/3 35/1/3
f 37/3/3 32/3/3 31/3/3
f 38/3/3 32/3/3 37/3/3
f 39/3/3 32/3/3 38/3/3
f 40/3/3 32/3/3 39/3/3
f 41/1/3 33/1/3 32/1/3
f 41/3/3 34/3/3 33/3/3
f 42/1/3 35/1/3 34/1/3
f 42/3/3 34/3/3 41/3/3
f 43/1/3 35/1/3 42/1/3
f 44/1/3 35/1/3 43/1/3
f 45/3/3 36/3/3 35/3/3
f 45/1/3 35/1/3 44/1/3
f 46/1/3 30/1/3 36/1/3
f 46/3/3 36/3/3 45/3/3
f 47/1/3 30/1/3 46/1/3
f 48/1/3 42/1/3 41/1/3
f 49/3/3 43/3/3 42/3/3
f 49/1/3 42/1/3 48/1/3
f 50/1/3 44/1/3 43/1/3
f 50/3/3 43/3/3 49/3/3
f 51/1/3 41/1/3 32/1/3
f 51/1/3 48/1/3 41/1/3
f 52/3/3 49/3/3 48/3/3
f 52/1/3 48/1/3 51/1/3
f 53/1/3 50/1/3 49/1/3
f 53/3/3 49/3/3 52/3/3
f 54/1/3 31/1/3 29/1/3
f 54/3/3 37/3/3 31/3/3
f 55/1/3 38/1/3 37/1/3
f 55/3/3 37/3/3 54/3/3
f 56/3/3 39/3/3 38/3/3
f 56/1/3 38/1/3 55/1/3
f 57/1/3 40/1/3 39/1/3
f 57/3/3 39/3/3 56/3/3
f 58/3/3 32/3/3 40/3/3
f 58/1/3 40/1/3 57/1/3
f 59/1/3 51/1/3 32/1/3
f 59/3/3 32/3/3 58/3/3
f 60/3/3 52/3/3 51/3/3
f 60/1/3 51/1/3 59/1/3
f 61/1/3 53/1/3 52/1/3
f 61/3/3 52/3/3 60/3/3
f 62/1/3 50/1/3 53/1/3
f 62/1/3 53/1/3 61/1/3
f 62/1/3 44/1/3 50/1/3
f 63/3/3 56/3/3 55/3/3
f 63/1/3 55/1/3 54/1/3
f 64/1/3 57/1/3 56/1/3
f 64/3/3 56/3/3 63/3/3
f 65/3/3 58/3/3 57/3/3
f 65/1/3 57/1/3 64/1/3
f 66/1/3 61/1/3 60/1/3
f 66/3/3 58/3/3 65/3/3
f 66/1/3 60/1/3 59/1/3
f 66/1/3 59/1/3 58/1/3
f 67/3/3 62/3/3 61/3/3
f 67/1/3 61/1/3 66/1/3
f 68/1/3 44/1/3 62/1/3
f 68/3/3 62/3/3 67/3/3
f 69/3/3 45/3/3 44/3/3
f 69/1/3 44/1/3 68/1/3
f 70/1/3 46/1/3 45/1/3
f 70/3/3 45/3/3 69/3/3
f 71/3/3 47/3/3 46/3/3
f 71/1/3 46/1/3 70/1/3
f 72/1/3 30/1/3 47/1/3
f 72/3/3 47/3/3 71/3/3
f 73/2/3 29/2/3 25/2/3
f 73/1/3 65/1/3 64/1/3
f 73/1/3 72/1/3 71/1/3
f 73/1/3 71/1/3 70/1/3
f 73/1/3 66/1/3 65/1/3
f 73/1/3 54/1/3 29/1/3
f 73/1/3 69/1/3 68/1/3
f 73/1/3 64/1/3 63/1/3
f 73/1/3 70/1/3 69/1/3
f 73/1/3 67/1/3 66/1/3
f 73/1/3 63/1/3 54/1/3
f 73/1/3 68/1/3 67/1/3
f 74/1/3 30/1/3 72/1/3
f 74/1/3 72/1/3 73/1/3
f 74/2/3 28/2/3 30/2/3
f 75/2/3 73/2/3 25/2/3
f 76/2/3 73/2/3 75/2/3
f 77/2/3 28/2/3 74/2/3
f 78/2/3 28/2/3 77/2/3
f 79/2/4 80/2/4 83/2/4
f 81/2/4 82/2/4 84/2/4
f 83/1/4 84/1/4 85/1/4
f 85/1/4 84/1/4 86/1/4
f 86/1/4 84/1/4 87/1/4
f 87/1/4 84/1/4 88/1/4
f 88/1/4 84/1/4 89/1/4
f 89/1/4 84/1/4 90/1/4
f 85/3/4 86/3/4 91/3/4
f 91/3/4 86/3/4 92/3/4
f 92/3/4 86/3/4 93/3/4
f 93/3/4 86/3/4 94/3/4
f 86/1/4 87/1/4 95/1/4
f 87/3/4 88/3/4 95/3/4
f 88/1/4 89/1/4 96/1/4
f 95/3/4 88/3/4 96/3/4
f 96/1/4 89/1/4 97/1/4
f 97/1/4 89/1/4 98/1/4
f 89/3/4 90/3/4 99/3/4
f 98/1/4 89/1/4 99/1/4
f 90/1/4 84/1/4 100/1/4
f 99/3/4 90/3/4 100/3/4
f 100/1/4 84/1/4 101/1/4
f 95/1/4 96/1/4 102/1/4
f 96/3/4 97/3/4 103/3/4
f 102/1/4 96/1/4 103/1/4
f 97/1/4 98/1/4 104/1/4
f 103/3/4 97/3/4 104/3/4
f 86/1/4 95/1/4 105/1/4
f 95/1/4 102/1/4 105/1/4
f 102/3/4 103/3/4 106/3/4
f 105/1/4 102/1/4 106/1/4
f 103/1/4 104/1/4 107/1/4
f 106/3/4 103/3/4 107/3/4
f 83/1/4 85/1/4 108/1/4
f 85/3/4 91/3/4 108/3/4
f 91/1/4 92/1/4 109/1/4
f 108/3/4 91/3/4 109/3/4
f 92/3/4 93/3/4 110/3/4
f 109/1/4 92/1/4 110/1/4
f 93/1/4 94/1/4 111/1/4
f 110/3/4 93/3/4 111/3/4
f 94/3/4 86/3/4 112/3/4
f 111/1/4 94/1/4 112/1/4
f 86/1/4 105/1/4 113/1/4
f 112/3/4 86/3/4 113/3/4
f 105/3/4 106/3/4 114/3/4
f 113/1/4 105/1/4 114/1/4
f 106/1/4 107/1/4 115/1/4
f 114/3/4 106/3/4 115/3/4
f 107/1/4 104/1/4 116/1/4
f 115/1/4 107/1/4 116/1/4
f 104/1/4 98/1/4 116/1/4
f 109/3/4 110/3/4 117/3/4
f 108/1/4 109/1/4 117/1/4
f 110/1/4 111/1/4 118/1/4
f 117/3/4 110/3/4 118/3/4
f 111/3/4 112/3/4 119/3/4
f 118/1/4 111/1/4 119/1/4
f 114/1/4 115/1/4 120/1/4
f 119/3/4 112/3/4 120/3/4
f 113/1/4 114/1/4 120/1/4
f 112/1/4 113/1/4 120/1/4
f 115/3/4 116/3/4 121/3/4
f 120/1/4 115/1/4 121/1/4
f 116/1/4 98/1/4 122/1/4
f 121/3/4 116/3/4 122/3/4
f 98/3/4 99/3/4 123/3/4
f 122/1/4 98/1/4 123/1/4
f 99/1/4 100/1/4 124/1/4
f 123/3/4 99/3/4 124/3/4
f 100/3/4 101/3/4 125/3/4
f 124/1/4 100/1/4 125/1/4
f 101/1/4 84/1/4 126/1/4
f 125/3/4 101/3/4 126/3/4
f 79/2/4 83/2/4 127/2/4
f 118/1/4 119/1/4 127/1/4
f 125/1/4 126/1/4 127/1/4
f 124/1/4 125/1/4 127/1/4
f 119/1/4 120/1/4 127/1/4
f 83/1/4 108/1/4 127/1/4
f 122/1/4 123/1/4 127/1/4
f 117/1/4 118/1/4 127/1/4
f 123/1/4 124/1/4 127/1/4
f 120/1/4 121/1/4 127/1/4
f 108/1/4 117/1/4 127/1/4
f 121/1/4 122/1/4 127/1/4
f 126/1/4 84/1/4 128/1/4
f 127/1/4 126/1/4 128/1/4
f 84/2/4 82/2/4 128/2/4
f 79/2/4 127/2/4 129/2/4
f 129/2/4 127/2/4 130/2/4
f 128/2/4 82/2/4 131/2/4
f 131/2/4 82/2/4 132/2/4
f 135/2/5 134/2/5 133/2/5
f 136/2/5 134/2/5 135/2/5
f 141/2/5 138/2/5 137/2/5
f 142/2/5 138/2/5 141/2/5
f 143/2/5 140/2/5 139/2/5
f 144/2/5 140/2/5 143/2/5
f 145/2/6 146/2/6 149/2/6
f 149/2/6 146/2/6 150/2/6
f 147/2/6 148/2/6 151/2/6
f 151/2/6 148/2/6 152/2/6
f 153/2/6 154/2/6 155/2/6
f 155/2/6 154/2/6 156/2/6
