# MagicaVoxel @ Ephtracy

# group
g Kitchen-4

# material
mtllib Kitchen-4.mtl
usemtl palette

# normals
vn -1 0 0
vn 1 0 0
vn 0 0 1
vn 0 0 -1
vn 0 -1 0
vn 0 1 0

# texcoords
vt 0.107422 0.5
vt 0.462891 0.5
vt 0.763672 0.5
vt 0.771484 0.5
vt 0.986328 0.5
vt 0.990234 0.5
vt 0.994141 0.5

# verts
v -7.5 0 7.5
v -7.5 0 -7.5
v -7.5 12 7.5
v -7.5 12 -7.5
v -7.5 13 7.5
v -7.5 13 -7.5
v -2.5 13 3.5
v -2.5 13 -1.5
v -2.5 14 3.5
v -2.5 14 2.5
v -2.5 14 -0.5
v -2.5 14 -1.5
v -2.5 15 2.5
v -2.5 15 -0.5
v -1.5 14 3.5
v -1.5 14 2.5
v -1.5 14 -0.5
v -1.5 14 -1.5
v -1.5 15 3.5
v -1.5 15 2.5
v -1.5 15 -0.5
v -1.5 15 -1.5
v -1.5 20 2.5
v -1.5 20 -0.5
v -1.5 21 2.5
v -1.5 21 -0.5
v -1.5 22 2.5
v -1.5 22 1.5
v -1.5 22 0.5
v -1.5 22 -0.5
v -1.5 23 1.5
v -1.5 23 0.5
v 0.5 22 1.5
v 0.5 22 0.5
v 0.5 23 1.5
v 0.5 23 0.5
v 1.5 14 3.5
v 1.5 14 2.5
v 1.5 14 -0.5
v 1.5 14 -1.5
v 1.5 15 3.5
v 1.5 15 2.5
v 1.5 15 -0.5
v 1.5 15 -1.5
v 1.5 18 2.5
v 1.5 18 -0.5
v 1.5 19 2.5
v 1.5 19 1.5
v 1.5 20 2.5
v 1.5 20 1.5
v 1.5 20 -0.5
v 1.5 21 2.5
v 1.5 21 -0.5
v 1.5 22 2.5
v 1.5 22 -0.5
v 2.5 13 3.5
v 2.5 13 2.5
v 2.5 13 -0.5
v 2.5 13 -1.5
v 2.5 14 3.5
v 2.5 14 2.5
v 2.5 14 -0.5
v 2.5 14 -1.5
v 2.5 15 2.5
v 2.5 15 -0.5
v 2.5 18 2.5
v 2.5 18 -0.5
v 6.5 0 7.5
v 6.5 0 -7.5
v 6.5 12 7.5
v 6.5 12 -7.5
v 7.5 12 7.5
v 7.5 12 -7.5
v 7.5 13 7.5
v 7.5 13 -7.5
v -7.5 0 7.5
v -7.5 12 7.5
v -7.5 13 7.5
v 6.5 0 7.5
v 6.5 12 7.5
v 7.5 12 7.5
v 7.5 13 7.5
v -2.5 13 3.5
v -2.5 14 3.5
v -1.5 14 3.5
v -1.5 15 3.5
v 1.5 13 3.5
v 1.5 14 3.5
v 1.5 15 3.5
v 2.5 13 3.5
v 2.5 14 3.5
v -2.5 14 2.5
v -2.5 15 2.5
v -1.5 14 2.5
v -1.5 15 2.5
v -1.5 20 2.5
v -1.5 21 2.5
v -1.5 22 2.5
v -0.5 15 2.5
v -0.5 18 2.5
v 0.5 19 2.5
v 0.5 20 2.5
v 1.5 14 2.5
v 1.5 15 2.5
v 1.5 18 2.5
v 1.5 19 2.5
v 1.5 20 2.5
v 1.5 21 2.5
v 1.5 22 2.5
v 2.5 14 2.5
v 2.5 15 2.5
v 2.5 18 2.5
v -1.5 22 1.5
v -1.5 23 1.5
v 0.5 22 1.5
v 0.5 23 1.5
v -1.5 22 0.5
v -1.5 23 0.5
v 0.5 22 0.5
v 0.5 23 0.5
v -2.5 14 -0.5
v -2.5 15 -0.5
v -1.5 14 -0.5
v -1.5 15 -0.5
v -1.5 20 -0.5
v -1.5 21 -0.5
v -1.5 22 -0.5
v -0.5 15 -0.5
v -0.5 18 -0.5
v 1.5 14 -0.5
v 1.5 15 -0.5
v 1.5 18 -0.5
v 1.5 20 -0.5
v 1.5 21 -0.5
v 1.5 22 -0.5
v 2.5 14 -0.5
v 2.5 15 -0.5
v 2.5 18 -0.5
v -2.5 13 -1.5
v -2.5 14 -1.5
v -1.5 14 -1.5
v -1.5 15 -1.5
v 1.5 13 -1.5
v 1.5 14 -1.5
v 1.5 15 -1.5
v 2.5 13 -1.5
v 2.5 14 -1.5
v -7.5 0 -7.5
v -7.5 12 -7.5
v -7.5 13 -7.5
v 6.5 0 -7.5
v 6.5 12 -7.5
v 7.5 12 -7.5
v 7.5 13 -7.5
v -7.5 0 7.5
v 6.5 0 7.5
v -7.5 0 -7.5
v 6.5 0 -7.5
v 6.5 12 7.5
v 7.5 12 7.5
v 6.5 12 -7.5
v 7.5 12 -7.5
v -7.5 13 7.5
v 7.5 13 7.5
v -2.5 13 3.5
v 1.5 13 3.5
v 2.5 13 3.5
v 2.5 13 2.5
v 2.5 13 -0.5
v -2.5 13 -1.5
v 1.5 13 -1.5
v 2.5 13 -1.5
v -7.5 13 -7.5
v 7.5 13 -7.5
v -2.5 14 3.5
v -1.5 14 3.5
v 1.5 14 3.5
v 2.5 14 3.5
v -2.5 14 2.5
v -1.5 14 2.5
v 1.5 14 2.5
v 2.5 14 2.5
v -2.5 14 -0.5
v -1.5 14 -0.5
v 1.5 14 -0.5
v 2.5 14 -0.5
v -2.5 14 -1.5
v -1.5 14 -1.5
v 1.5 14 -1.5
v 2.5 14 -1.5
v -1.5 15 3.5
v 1.5 15 3.5
v -2.5 15 2.5
v -1.5 15 2.5
v -0.5 15 2.5
v 1.5 15 2.5
v -2.5 15 -0.5
v -1.5 15 -0.5
v -0.5 15 -0.5
v 1.5 15 -0.5
v -1.5 15 -1.5
v 1.5 15 -1.5
v 1.5 18 2.5
v 2.5 18 2.5
v 1.5 18 -0.5
v 2.5 18 -0.5
v -1.5 22 2.5
v 1.5 22 2.5
v -1.5 22 1.5
v 0.5 22 1.5
v -1.5 22 0.5
v 0.5 22 0.5
v -1.5 22 -0.5
v 1.5 22 -0.5
v -1.5 23 1.5
v 0.5 23 1.5
v -1.5 23 0.5
v 0.5 23 0.5

# faces
f 3/3/1 2/3/1 1/3/1
f 4/3/1 2/3/1 3/3/1
f 5/6/1 4/6/1 3/6/1
f 6/6/1 4/6/1 5/6/1
f 9/2/1 8/2/1 7/2/1
f 10/2/1 8/2/1 9/2/1
f 11/2/1 8/2/1 10/2/1
f 12/2/1 8/2/1 11/2/1
f 13/2/1 11/2/1 10/2/1
f 14/2/1 11/2/1 13/2/1
f 19/2/1 16/2/1 15/2/1
f 20/2/1 16/2/1 19/2/1
f 21/2/1 18/2/1 17/2/1
f 22/2/1 18/2/1 21/2/1
f 23/2/1 21/2/1 20/2/1
f 24/2/1 21/2/1 23/2/1
f 25/1/1 24/1/1 23/1/1
f 26/1/1 24/1/1 25/1/1
f 27/5/1 26/5/1 25/5/1
f 28/5/1 26/5/1 27/5/1
f 29/5/1 26/5/1 28/5/1
f 30/5/1 26/5/1 29/5/1
f 31/5/1 29/5/1 28/5/1
f 32/5/1 29/5/1 31/5/1
f 33/5/2 34/5/2 35/5/2
f 35/5/2 34/5/2 36/5/2
f 37/2/2 38/2/2 41/2/2
f 41/2/2 38/2/2 42/2/2
f 39/2/2 40/2/2 43/2/2
f 43/2/2 40/2/2 44/2/2
f 45/2/2 46/2/2 47/2/2
f 47/2/2 46/2/2 48/2/2
f 47/4/2 48/4/2 49/4/2
f 48/2/2 46/2/2 50/2/2
f 49/4/2 48/4/2 50/4/2
f 50/2/2 46/2/2 51/2/2
f 49/1/2 50/1/2 52/1/2
f 50/1/2 51/1/2 52/1/2
f 52/1/2 51/1/2 53/1/2
f 52/5/2 53/5/2 54/5/2
f 54/5/2 53/5/2 55/5/2
f 56/7/2 57/7/2 60/7/2
f 57/2/2 58/2/2 61/2/2
f 60/7/2 57/7/2 61/7/2
f 58/7/2 59/7/2 62/7/2
f 61/2/2 58/2/2 62/2/2
f 62/7/2 59/7/2 63/7/2
f 61/2/2 62/2/2 64/2/2
f 64/2/2 62/2/2 65/2/2
f 64/7/2 65/7/2 66/7/2
f 66/7/2 65/7/2 67/7/2
f 68/3/2 69/3/2 70/3/2
f 70/3/2 69/3/2 71/3/2
f 72/6/2 73/6/2 74/6/2
f 74/6/2 73/6/2 75/6/2
f 79/3/3 77/3/3 76/3/3
f 80/6/3 78/6/3 77/6/3
f 80/3/3 77/3/3 79/3/3
f 81/6/3 78/6/3 80/6/3
f 82/6/3 78/6/3 81/6/3
f 85/2/3 84/2/3 83/2/3
f 87/2/3 85/2/3 83/2/3
f 87/2/3 86/2/3 85/2/3
f 88/2/3 86/2/3 87/2/3
f 89/2/3 86/2/3 88/2/3
f 90/7/3 88/7/3 87/7/3
f 91/7/3 88/7/3 90/7/3
f 94/2/3 93/2/3 92/2/3
f 95/2/3 93/2/3 94/2/3
f 99/2/3 96/2/3 95/2/3
f 100/2/3 96/2/3 99/2/3
f 101/2/3 96/2/3 100/2/3
f 102/1/3 97/1/3 96/1/3
f 102/2/3 96/2/3 101/2/3
f 104/7/3 100/7/3 99/7/3
f 105/2/3 101/2/3 100/2/3
f 105/7/3 100/7/3 104/7/3
f 106/4/3 102/4/3 101/4/3
f 106/2/3 101/2/3 105/2/3
f 107/1/3 97/1/3 102/1/3
f 107/4/3 102/4/3 106/4/3
f 108/5/3 98/5/3 97/5/3
f 108/1/3 97/1/3 107/1/3
f 109/5/3 98/5/3 108/5/3
f 110/2/3 104/2/3 103/2/3
f 111/7/3 105/7/3 104/7/3
f 111/2/3 104/2/3 110/2/3
f 112/7/3 105/7/3 111/7/3
f 115/5/3 114/5/3 113/5/3
f 116/5/3 114/5/3 115/5/3
f 117/5/4 118/5/4 119/5/4
f 119/5/4 118/5/4 120/5/4
f 121/2/4 122/2/4 123/2/4
f 123/2/4 122/2/4 124/2/4
f 124/2/4 125/2/4 128/2/4
f 128/2/4 125/2/4 129/2/4
f 128/7/4 129/7/4 131/7/4
f 129/2/4 125/2/4 132/2/4
f 131/7/4 129/7/4 132/7/4
f 125/1/4 126/1/4 133/1/4
f 132/2/4 125/2/4 133/2/4
f 126/5/4 127/5/4 134/5/4
f 133/1/4 126/1/4 134/1/4
f 134/5/4 127/5/4 135/5/4
f 130/2/4 131/2/4 136/2/4
f 131/7/4 132/7/4 137/7/4
f 136/2/4 131/2/4 137/2/4
f 137/7/4 132/7/4 138/7/4
f 139/2/4 140/2/4 141/2/4
f 139/2/4 141/2/4 143/2/4
f 141/2/4 142/2/4 143/2/4
f 143/2/4 142/2/4 144/2/4
f 144/2/4 142/2/4 145/2/4
f 143/7/4 144/7/4 146/7/4
f 146/7/4 144/7/4 147/7/4
f 148/3/4 149/3/4 151/3/4
f 149/6/4 150/6/4 152/6/4
f 151/3/4 149/3/4 152/3/4
f 152/6/4 150/6/4 153/6/4
f 153/6/4 150/6/4 154/6/4
f 157/3/5 156/3/5 155/3/5
f 158/3/5 156/3/5 157/3/5
f 161/6/5 160/6/5 159/6/5
f 162/6/5 160/6/5 161/6/5
f 163/6/6 164/6/6 165/6/6
f 165/6/6 164/6/6 166/6/6
f 166/6/6 164/6/6 167/6/6
f 167/6/6 164/6/6 168/6/6
f 168/6/6 164/6/6 169/6/6
f 163/6/6 165/6/6 170/6/6
f 169/6/6 164/6/6 172/6/6
f 170/6/6 171/6/6 173/6/6
f 171/6/6 172/6/6 173/6/6
f 163/6/6 170/6/6 173/6/6
f 172/6/6 164/6/6 174/6/6
f 173/6/6 172/6/6 174/6/6
f 175/2/6 176/2/6 179/2/6
f 179/2/6 176/2/6 180/2/6
f 177/7/6 178/7/6 181/7/6
f 181/7/6 178/7/6 182/7/6
f 183/2/6 184/2/6 187/2/6
f 187/2/6 184/2/6 188/2/6
f 185/7/6 186/7/6 189/7/6
f 189/7/6 186/7/6 190/7/6
f 191/2/6 192/2/6 194/2/6
f 194/2/6 192/2/6 195/2/6
f 195/2/6 192/2/6 196/2/6
f 193/2/6 194/2/6 197/2/6
f 197/2/6 194/2/6 198/2/6
f 199/2/6 200/2/6 201/2/6
f 198/2/6 199/2/6 201/2/6
f 201/2/6 200/2/6 202/2/6
f 203/7/6 204/7/6 205/7/6
f 205/7/6 204/7/6 206/7/6
f 207/5/6 208/5/6 209/5/6
f 209/5/6 208/5/6 210/5/6
f 210/5/6 208/5/6 212/5/6
f 211/5/6 212/5/6 213/5/6
f 212/5/6 208/5/6 214/5/6
f 213/5/6 212/5/6 214/5/6
f 215/5/6 216/5/6 217/5/6
f 217/5/6 216/5/6 218/5/6
