# MagicaVoxel @ Ephtracy

# group
g Kitchen-8

# material
mtllib Kitchen-8.mtl
usemtl palette

# normals
vn -1 0 0
vn 1 0 0
vn 0 0 1
vn 0 0 -1
vn 0 -1 0
vn 0 1 0

# texcoords
vt 0.763672 0.5
vt 0.990234 0.5
vt 0.994141 0.5

# verts
v -7.5 0 7.5
v -7.5 0 -7.5
v -7.5 12 7.5
v -7.5 12 -7.5
v -7.5 13 7.5
v -7.5 13 -7.5
v 6.5 0 7.5
v 6.5 0 -7.5
v 6.5 1 6.5
v 6.5 1 -6.5
v 6.5 2 5.5
v 6.5 2 0.5
v 6.5 2 -0.5
v 6.5 2 -5.5
v 6.5 4 2.5
v 6.5 4 1.5
v 6.5 4 -1.5
v 6.5 4 -2.5
v 6.5 8 2.5
v 6.5 8 1.5
v 6.5 8 -1.5
v 6.5 8 -2.5
v 6.5 10 5.5
v 6.5 10 0.5
v 6.5 10 -0.5
v 6.5 10 -5.5
v 6.5 11 6.5
v 6.5 11 -6.5
v 6.5 12 7.5
v 6.5 12 -7.5
v 7.5 4 2.5
v 7.5 4 1.5
v 7.5 4 -1.5
v 7.5 4 -2.5
v 7.5 8 2.5
v 7.5 8 1.5
v 7.5 8 -1.5
v 7.5 8 -2.5
v 7.5 12 7.5
v 7.5 12 -7.5
v 7.5 13 7.5
v 7.5 13 -7.5
v -7.5 0 7.5
v -7.5 12 7.5
v -7.5 13 7.5
v 6.5 0 7.5
v 6.5 12 7.5
v 7.5 12 7.5
v 7.5 13 7.5
v 6.5 4 2.5
v 6.5 8 2.5
v 7.5 4 2.5
v 7.5 8 2.5
v 6.5 4 -1.5
v 6.5 8 -1.5
v 7.5 4 -1.5
v 7.5 8 -1.5
v 6.5 4 1.5
v 6.5 8 1.5
v 7.5 4 1.5
v 7.5 8 1.5
v 6.5 4 -2.5
v 6.5 8 -2.5
v 7.5 4 -2.5
v 7.5 8 -2.5
v -7.5 0 -7.5
v -7.5 12 -7.5
v -7.5 13 -7.5
v 6.5 0 -7.5
v 6.5 12 -7.5
v 7.5 12 -7.5
v 7.5 13 -7.5
v -7.5 0 7.5
v 6.5 0 7.5
v -7.5 0 -7.5
v 6.5 0 -7.5
v 6.5 4 2.5
v 7.5 4 2.5
v 6.5 4 1.5
v 7.5 4 1.5
v 6.5 4 -1.5
v 7.5 4 -1.5
v 6.5 4 -2.5
v 7.5 4 -2.5
v 6.5 12 7.5
v 7.5 12 7.5
v 6.5 12 -7.5
v 7.5 12 -7.5
v 6.5 8 2.5
v 7.5 8 2.5
v 6.5 8 1.5
v 7.5 8 1.5
v 6.5 8 -1.5
v 7.5 8 -1.5
v 6.5 8 -2.5
v 7.5 8 -2.5
v -7.5 13 7.5
v 7.5 13 7.5
v -7.5 13 -7.5
v 7.5 13 -7.5

# faces
f 3/1/1 2/1/1 1/1/1
f 4/1/1 2/1/1 3/1/1
f 5/2/1 4/2/1 3/2/1
f 6/2/1 4/2/1 5/2/1
f 7/1/2 8/1/2 9/1/2
f 9/1/2 8/1/2 10/1/2
f 9/3/2 10/3/2 11/3/2
f 11/3/2 10/3/2 12/3/2
f 12/3/2 10/3/2 13/3/2
f 13/3/2 10/3/2 14/3/2
f 11/1/2 12/1/2 15/1/2
f 15/1/2 12/1/2 16/1/2
f 13/1/2 14/1/2 17/1/2
f 17/1/2 14/1/2 18/1/2
f 11/1/2 15/1/2 19/1/2
f 16/1/2 12/1/2 20/1/2
f 13/1/2 17/1/2 21/1/2
f 18/1/2 14/1/2 22/1/2
f 9/3/2 11/3/2 23/3/2
f 11/1/2 19/1/2 23/1/2
f 19/1/2 20/1/2 23/1/2
f 12/3/2 13/3/2 24/3/2
f 23/1/2 20/1/2 24/1/2
f 20/1/2 12/1/2 24/1/2
f 21/1/2 22/1/2 25/1/2
f 24/3/2 13/3/2 25/3/2
f 13/1/2 21/1/2 25/1/2
f 14/3/2 10/3/2 26/3/2
f 25/1/2 22/1/2 26/1/2
f 22/1/2 14/1/2 26/1/2
f 7/1/2 9/1/2 27/1/2
f 23/3/2 24/3/2 27/3/2
f 25/3/2 26/3/2 27/3/2
f 24/3/2 25/3/2 27/3/2
f 9/3/2 23/3/2 27/3/2
f 26/3/2 10/3/2 28/3/2
f 27/3/2 26/3/2 28/3/2
f 10/1/2 8/1/2 28/1/2
f 7/1/2 27/1/2 29/1/2
f 27/1/2 28/1/2 29/1/2
f 28/1/2 8/1/2 30/1/2
f 29/1/2 28/1/2 30/1/2
f 31/3/2 32/3/2 35/3/2
f 35/3/2 32/3/2 36/3/2
f 33/3/2 34/3/2 37/3/2
f 37/3/2 34/3/2 38/3/2
f 39/2/2 40/2/2 41/2/2
f 41/2/2 40/2/2 42/2/2
f 46/1/3 44/1/3 43/1/3
f 47/2/3 45/2/3 44/2/3
f 47/1/3 44/1/3 46/1/3
f 48/2/3 45/2/3 47/2/3
f 49/2/3 45/2/3 48/2/3
f 52/3/3 51/3/3 50/3/3
f 53/3/3 51/3/3 52/3/3
f 56/3/3 55/3/3 54/3/3
f 57/3/3 55/3/3 56/3/3
f 58/3/4 59/3/4 60/3/4
f 60/3/4 59/3/4 61/3/4
f 62/3/4 63/3/4 64/3/4
f 64/3/4 63/3/4 65/3/4
f 66/1/4 67/1/4 69/1/4
f 67/2/4 68/2/4 70/2/4
f 69/1/4 67/1/4 70/1/4
f 70/2/4 68/2/4 71/2/4
f 71/2/4 68/2/4 72/2/4
f 75/1/5 74/1/5 73/1/5
f 76/1/5 74/1/5 75/1/5
f 79/3/5 78/3/5 77/3/5
f 80/3/5 78/3/5 79/3/5
f 83/3/5 82/3/5 81/3/5
f 84/3/5 82/3/5 83/3/5
f 87/2/5 86/2/5 85/2/5
f 88/2/5 86/2/5 87/2/5
f 89/3/6 90/3/6 91/3/6
f 91/3/6 90/3/6 92/3/6
f 93/3/6 94/3/6 95/3/6
f 95/3/6 94/3/6 96/3/6
f 97/2/6 98/2/6 99/2/6
f 99/2/6 98/2/6 100/2/6
