# MagicaVoxel @ Ephtracy

# group
g Kitchen-9

# material
mtllib Kitchen-9.mtl
usemtl palette

# normals
vn -1 0 0
vn 1 0 0
vn 0 0 1
vn 0 0 -1
vn 0 -1 0
vn 0 1 0

# texcoords
vt 0.763672 0.5
vt 0.923828 0.5
vt 0.978516 0.5
vt 0.986328 0.5
vt 0.990234 0.5
vt 0.994141 0.5

# verts
v -7.5 0 7.5
v -7.5 0 -7.5
v -7.5 15 5.5
v -7.5 15 4.5
v -7.5 15 -4.5
v -7.5 15 -5.5
v -7.5 16 7.5
v -7.5 16 5.5
v -7.5 16 4.5
v -7.5 16 -4.5
v -7.5 16 -5.5
v -7.5 16 -7.5
v -6.5 15 7.5
v -6.5 15 6.5
v -6.5 15 5.5
v -6.5 15 4.5
v -6.5 15 3.5
v -6.5 15 1.5
v -6.5 15 -1.5
v -6.5 15 -3.5
v -6.5 15 -4.5
v -6.5 15 -5.5
v -6.5 15 -6.5
v -6.5 15 -7.5
v -6.5 16 7.5
v -6.5 16 5.5
v -6.5 16 4.5
v -6.5 16 -4.5
v -6.5 16 -5.5
v -6.5 16 -7.5
v -5.5 13 7.5
v -5.5 13 5.5
v -5.5 13 4.5
v -5.5 13 -4.5
v -5.5 13 -5.5
v -5.5 13 -7.5
v -5.5 14 6.5
v -5.5 14 5.5
v -5.5 14 4.5
v -5.5 14 3.5
v -5.5 14 1.5
v -5.5 14 -1.5
v -5.5 14 -3.5
v -5.5 14 -4.5
v -5.5 14 -5.5
v -5.5 14 -6.5
v -5.5 15 7.5
v -5.5 15 6.5
v -5.5 15 5.5
v -5.5 15 4.5
v -5.5 15 3.5
v -5.5 15 1.5
v -5.5 15 -1.5
v -5.5 15 -3.5
v -5.5 15 -4.5
v -5.5 15 -5.5
v -5.5 15 -6.5
v -5.5 15 -7.5
v 6.5 0 7.5
v 6.5 0 -7.5
v 6.5 2 6.5
v 6.5 2 -6.5
v 6.5 4 4.5
v 6.5 4 -4.5
v 6.5 9 4.5
v 6.5 9 -4.5
v 6.5 10 4.5
v 6.5 10 -4.5
v 6.5 11 4.5
v 6.5 11 -4.5
v 6.5 12 6.5
v 6.5 12 -6.5
v 6.5 13 7.5
v 6.5 13 -7.5
v 7.5 10 4.5
v 7.5 10 -4.5
v 7.5 11 4.5
v 7.5 11 -4.5
v -7.5 0 7.5
v -7.5 16 7.5
v -6.5 15 7.5
v -6.5 16 7.5
v -5.5 13 7.5
v -5.5 15 7.5
v 6.5 0 7.5
v 6.5 13 7.5
v 6.5 10 4.5
v 6.5 11 4.5
v 7.5 10 4.5
v 7.5 11 4.5
v 6.5 10 -4.5
v 6.5 11 -4.5
v 7.5 10 -4.5
v 7.5 11 -4.5
v -7.5 0 -7.5
v -7.5 16 -7.5
v -6.5 15 -7.5
v -6.5 16 -7.5
v -5.5 13 -7.5
v -5.5 15 -7.5
v 6.5 0 -7.5
v 6.5 13 -7.5
v -7.5 0 7.5
v 6.5 0 7.5
v -7.5 0 -7.5
v 6.5 0 -7.5
v 6.5 10 4.5
v 7.5 10 4.5
v 6.5 10 -4.5
v 7.5 10 -4.5
v 6.5 11 4.5
v 7.5 11 4.5
v 6.5 11 -4.5
v 7.5 11 -4.5
v -5.5 13 7.5
v 6.5 13 7.5
v -4.5 13 6.5
v -0.5 13 6.5
v 1.5 13 6.5
v 5.5 13 6.5
v -5.5 13 5.5
v -5.5 13 4.5
v -4.5 13 1.5
v -0.5 13 1.5
v 1.5 13 1.5
v 5.5 13 1.5
v -4.5 13 -1.5
v -0.5 13 -1.5
v 1.5 13 -1.5
v 5.5 13 -1.5
v -5.5 13 -4.5
v -5.5 13 -5.5
v -4.5 13 -6.5
v -0.5 13 -6.5
v 1.5 13 -6.5
v 5.5 13 -6.5
v -5.5 13 -7.5
v 6.5 13 -7.5
v -6.5 15 7.5
v -5.5 15 7.5
v -6.5 15 6.5
v -5.5 15 6.5
v -6.5 15 5.5
v -5.5 15 5.5
v -6.5 15 4.5
v -5.5 15 4.5
v -6.5 15 3.5
v -5.5 15 3.5
v -6.5 15 1.5
v -5.5 15 1.5
v -6.5 15 -1.5
v -5.5 15 -1.5
v -6.5 15 -3.5
v -5.5 15 -3.5
v -6.5 15 -4.5
v -5.5 15 -4.5
v -6.5 15 -5.5
v -5.5 15 -5.5
v -6.5 15 -6.5
v -5.5 15 -6.5
v -6.5 15 -7.5
v -5.5 15 -7.5
v -7.5 16 7.5
v -6.5 16 7.5
v -7.5 16 5.5
v -6.5 16 5.5
v -7.5 16 4.5
v -6.5 16 4.5
v -7.5 16 -4.5
v -6.5 16 -4.5
v -7.5 16 -5.5
v -6.5 16 -5.5
v -7.5 16 -7.5
v -6.5 16 -7.5

# faces
f 3/3/1 2/3/1 1/3/1
f 4/3/1 2/3/1 3/3/1
f 5/3/1 2/3/1 4/3/1
f 6/3/1 2/3/1 5/3/1
f 7/3/1 3/3/1 1/3/1
f 8/6/1 4/6/1 3/6/1
f 8/3/1 3/3/1 7/3/1
f 9/3/1 5/3/1 4/3/1
f 9/6/1 4/6/1 8/6/1
f 10/6/1 6/6/1 5/6/1
f 10/3/1 5/3/1 9/3/1
f 11/3/1 2/3/1 6/3/1
f 11/6/1 6/6/1 10/6/1
f 12/3/1 2/3/1 11/3/1
f 13/3/2 14/3/2 25/3/2
f 14/3/2 15/3/2 25/3/2
f 15/6/2 16/6/2 26/6/2
f 25/3/2 15/3/2 26/3/2
f 16/3/2 17/3/2 27/3/2
f 26/6/2 16/6/2 27/6/2
f 17/3/2 18/3/2 27/3/2
f 18/3/2 19/3/2 27/3/2
f 20/3/2 21/3/2 27/3/2
f 19/3/2 20/3/2 27/3/2
f 21/6/2 22/6/2 28/6/2
f 27/3/2 21/3/2 28/3/2
f 23/3/2 24/3/2 29/3/2
f 28/6/2 22/6/2 29/6/2
f 22/3/2 23/3/2 29/3/2
f 29/3/2 24/3/2 30/3/2
f 31/3/2 32/3/2 37/3/2
f 32/6/2 33/6/2 38/6/2
f 37/3/2 32/3/2 38/3/2
f 33/3/2 34/3/2 39/3/2
f 38/6/2 33/6/2 39/6/2
f 39/3/2 34/3/2 40/3/2
f 40/3/2 34/3/2 41/3/2
f 41/3/2 34/3/2 42/3/2
f 42/3/2 34/3/2 43/3/2
f 34/6/2 35/6/2 44/6/2
f 43/3/2 34/3/2 44/3/2
f 35/3/2 36/3/2 45/3/2
f 44/6/2 35/6/2 45/6/2
f 45/3/2 36/3/2 46/3/2
f 31/3/2 37/3/2 47/3/2
f 37/6/2 38/6/2 48/6/2
f 47/3/2 37/3/2 48/3/2
f 38/3/2 39/3/2 49/3/2
f 48/6/2 38/6/2 49/6/2
f 39/6/2 40/6/2 50/6/2
f 49/3/2 39/3/2 50/3/2
f 40/3/2 41/3/2 51/3/2
f 50/6/2 40/6/2 51/6/2
f 41/2/2 42/2/2 52/2/2
f 51/3/2 41/3/2 52/3/2
f 42/3/2 43/3/2 53/3/2
f 52/2/2 42/2/2 53/2/2
f 43/6/2 44/6/2 54/6/2
f 53/3/2 43/3/2 54/3/2
f 44/3/2 45/3/2 55/3/2
f 54/6/2 44/6/2 55/6/2
f 45/6/2 46/6/2 56/6/2
f 55/3/2 45/3/2 56/3/2
f 46/3/2 36/3/2 57/3/2
f 56/6/2 46/6/2 57/6/2
f 57/3/2 36/3/2 58/3/2
f 59/3/2 60/3/2 61/3/2
f 61/3/2 60/3/2 62/3/2
f 61/4/2 62/4/2 63/4/2
f 63/4/2 62/4/2 64/4/2
f 61/4/2 63/4/2 65/4/2
f 63/2/2 64/2/2 65/2/2
f 64/4/2 62/4/2 66/4/2
f 65/2/2 64/2/2 66/2/2
f 61/4/2 65/4/2 67/4/2
f 65/4/2 66/4/2 67/4/2
f 66/4/2 62/4/2 68/4/2
f 67/4/2 66/4/2 68/4/2
f 61/4/2 67/4/2 69/4/2
f 68/4/2 62/4/2 70/4/2
f 59/3/2 61/3/2 71/3/2
f 69/4/2 70/4/2 71/4/2
f 61/4/2 69/4/2 71/4/2
f 70/4/2 62/4/2 72/4/2
f 71/4/2 70/4/2 72/4/2
f 62/3/2 60/3/2 72/3/2
f 59/3/2 71/3/2 73/3/2
f 71/3/2 72/3/2 73/3/2
f 72/3/2 60/3/2 74/3/2
f 73/3/2 72/3/2 74/3/2
f 75/6/2 76/6/2 77/6/2
f 77/6/2 76/6/2 78/6/2
f 81/3/3 80/3/3 79/3/3
f 82/3/3 80/3/3 81/3/3
f 83/3/3 81/3/3 79/3/3
f 84/3/3 81/3/3 83/3/3
f 85/3/3 83/3/3 79/3/3
f 86/3/3 83/3/3 85/3/3
f 89/6/3 88/6/3 87/6/3
f 90/6/3 88/6/3 89/6/3
f 91/6/4 92/6/4 93/6/4
f 93/6/4 92/6/4 94/6/4
f 95/3/4 96/3/4 97/3/4
f 97/3/4 96/3/4 98/3/4
f 95/3/4 97/3/4 99/3/4
f 99/3/4 97/3/4 100/3/4
f 95/3/4 99/3/4 101/3/4
f 101/3/4 99/3/4 102/3/4
f 105/3/5 104/3/5 103/3/5
f 106/3/5 104/3/5 105/3/5
f 109/6/5 108/6/5 107/6/5
f 110/6/5 108/6/5 109/6/5
f 111/6/6 112/6/6 113/6/6
f 113/6/6 112/6/6 114/6/6
f 115/3/6 116/3/6 117/3/6
f 117/3/6 116/3/6 118/3/6
f 118/3/6 116/3/6 119/3/6
f 119/3/6 116/3/6 120/3/6
f 115/3/6 117/3/6 121/3/6
f 121/3/6 117/3/6 122/3/6
f 117/5/6 118/5/6 123/5/6
f 122/3/6 117/3/6 123/3/6
f 118/3/6 119/3/6 124/3/6
f 123/5/6 118/5/6 124/5/6
f 119/5/6 120/5/6 125/5/6
f 124/3/6 119/3/6 125/3/6
f 120/3/6 116/3/6 126/3/6
f 125/5/6 120/5/6 126/5/6
f 124/3/6 125/3/6 127/3/6
f 122/3/6 123/3/6 127/3/6
f 125/3/6 126/3/6 127/3/6
f 123/3/6 124/3/6 127/3/6
f 127/3/6 126/3/6 128/3/6
f 128/3/6 126/3/6 129/3/6
f 126/3/6 116/3/6 130/3/6
f 129/3/6 126/3/6 130/3/6
f 122/3/6 127/3/6 131/3/6
f 131/3/6 127/3/6 132/3/6
f 127/5/6 128/5/6 133/5/6
f 132/3/6 127/3/6 133/3/6
f 128/3/6 129/3/6 134/3/6
f 133/5/6 128/5/6 134/5/6
f 129/5/6 130/5/6 135/5/6
f 134/3/6 129/3/6 135/3/6
f 130/3/6 116/3/6 136/3/6
f 135/5/6 130/5/6 136/5/6
f 132/3/6 133/3/6 137/3/6
f 134/3/6 135/3/6 137/3/6
f 135/3/6 136/3/6 137/3/6
f 133/3/6 134/3/6 137/3/6
f 136/3/6 116/3/6 138/3/6
f 137/3/6 136/3/6 138/3/6
f 139/3/6 140/3/6 141/3/6
f 141/3/6 140/3/6 142/3/6
f 141/6/6 142/6/6 143/6/6
f 143/6/6 142/6/6 144/6/6
f 143/3/6 144/3/6 145/3/6
f 145/3/6 144/3/6 146/3/6
f 145/6/6 146/6/6 147/6/6
f 147/6/6 146/6/6 148/6/6
f 147/3/6 148/3/6 149/3/6
f 149/3/6 148/3/6 150/3/6
f 149/2/6 150/2/6 151/2/6
f 151/2/6 150/2/6 152/2/6
f 151/3/6 152/3/6 153/3/6
f 153/3/6 152/3/6 154/3/6
f 153/6/6 154/6/6 155/6/6
f 155/6/6 154/6/6 156/6/6
f 155/3/6 156/3/6 157/3/6
f 157/3/6 156/3/6 158/3/6
f 157/6/6 158/6/6 159/6/6
f 159/6/6 158/6/6 160/6/6
f 159/3/6 160/3/6 161/3/6
f 161/3/6 160/3/6 162/3/6
f 163/3/6 164/3/6 165/3/6
f 165/3/6 164/3/6 166/3/6
f 165/6/6 166/6/6 167/6/6
f 167/6/6 166/6/6 168/6/6
f 167/3/6 168/3/6 169/3/6
f 169/3/6 168/3/6 170/3/6
f 169/6/6 170/6/6 171/6/6
f 171/6/6 170/6/6 172/6/6
f 171/3/6 172/3/6 173/3/6
f 173/3/6 172/3/6 174/3/6
