# MagicaVoxel @ Ephtracy

# group
g Kitchen-6

# material
mtllib Kitchen-6.mtl
usemtl palette

# normals
vn -1 0 0
vn 1 0 0
vn 0 0 1
vn 0 0 -1
vn 0 -1 0
vn 0 1 0

# texcoords
vt 0.748047 0.5
vt 0.923828 0.5
vt 0.982422 0.5
vt 0.990234 0.5

# verts
v -7.5 0 7
v -7.5 0 -7
v -7.5 12 7
v -7.5 12 -7
v -7.5 13 7
v -7.5 13 -7
v 2.5 10 4
v 2.5 10 -2
v 2.5 11 4
v 2.5 11 -2
v 4.5 10 -2
v 4.5 10 -4
v 4.5 11 -2
v 4.5 11 -3
v 4.5 12 -3
v 4.5 12 -4
v -1.5 10 4
v -1.5 10 -4
v -1.5 11 4
v -1.5 11 -4
v 2.5 11 -3
v 2.5 11 -4
v 2.5 12 -3
v 2.5 12 -4
v 6.5 0 7
v 6.5 0 -7
v 6.5 1 7
v 6.5 1 6
v 6.5 1 -6
v 6.5 1 -7
v 6.5 11 7
v 6.5 11 6
v 6.5 11 -6
v 6.5 11 -7
v 6.5 12 7
v 6.5 12 -7
v 7.5 12 7
v 7.5 12 -7
v 7.5 13 7
v 7.5 13 -7
v -7.5 0 7
v -7.5 12 7
v -7.5 13 7
v 4.5 1 7
v 4.5 11 7
v 6.5 0 7
v 6.5 1 7
v 6.5 11 7
v 6.5 12 7
v 7.5 12 7
v 7.5 13 7
v -1.5 10 -4
v -1.5 11 -4
v 2.5 11 -4
v 2.5 12 -4
v 4.5 10 -4
v 4.5 12 -4
v -1.5 10 4
v -1.5 11 4
v 2.5 10 4
v 2.5 11 4
v 2.5 10 -2
v 2.5 11 -2
v 4.5 10 -2
v 4.5 11 -2
v 2.5 11 -3
v 2.5 12 -3
v 4.5 11 -3
v 4.5 12 -3
v -7.5 0 -7
v -7.5 12 -7
v -7.5 13 -7
v 5.5 1 -7
v 5.5 11 -7
v 6.5 0 -7
v 6.5 1 -7
v 6.5 11 -7
v 6.5 12 -7
v 7.5 12 -7
v 7.5 13 -7
v -7.5 0 7
v 6.5 0 7
v -7.5 0 -7
v 6.5 0 -7
v -1.5 11 4
v 2.5 11 4
v 2.5 11 -2
v 4.5 11 -2
v 2.5 11 -3
v 4.5 11 -3
v -1.5 11 -4
v 2.5 11 -4
v 6.5 12 7
v 7.5 12 7
v 2.5 12 -3
v 4.5 12 -3
v 2.5 12 -4
v 4.5 12 -4
v 6.5 12 -7
v 7.5 12 -7
v -1.5 10 4
v 2.5 10 4
v 2.5 10 -2
v 4.5 10 -2
v -1.5 10 -4
v 4.5 10 -4
v -7.5 13 7
v 7.5 13 7
v -7.5 13 -7
v 7.5 13 -7

# faces
f 3/2/1 2/2/1 1/2/1
f 4/2/1 2/2/1 3/2/1
f 5/4/1 4/4/1 3/4/1
f 6/4/1 4/4/1 5/4/1
f 9/4/1 8/4/1 7/4/1
f 10/4/1 8/4/1 9/4/1
f 13/3/1 12/3/1 11/3/1
f 14/3/1 12/3/1 13/3/1
f 15/3/1 12/3/1 14/3/1
f 16/3/1 12/3/1 15/3/1
f 17/3/2 18/3/2 19/3/2
f 19/3/2 18/3/2 20/3/2
f 21/4/2 22/4/2 23/4/2
f 23/4/2 22/4/2 24/4/2
f 25/2/2 26/2/2 27/2/2
f 27/2/2 26/2/2 28/2/2
f 28/2/2 26/2/2 29/2/2
f 29/2/2 26/2/2 30/2/2
f 27/4/2 28/4/2 31/4/2
f 28/2/2 29/2/2 32/2/2
f 31/4/2 28/4/2 32/4/2
f 29/4/2 30/4/2 33/4/2
f 32/2/2 29/2/2 33/2/2
f 33/4/2 30/4/2 34/4/2
f 31/2/2 32/2/2 35/2/2
f 32/2/2 33/2/2 35/2/2
f 33/2/2 34/2/2 35/2/2
f 35/2/2 34/2/2 36/2/2
f 37/4/2 38/4/2 39/4/2
f 39/4/2 38/4/2 40/4/2
f 44/2/3 42/2/3 41/2/3
f 45/2/3 42/2/3 44/2/3
f 46/2/3 44/2/3 41/2/3
f 47/4/3 45/4/3 44/4/3
f 47/2/3 44/2/3 46/2/3
f 48/2/3 42/2/3 45/2/3
f 48/4/3 45/4/3 47/4/3
f 49/4/3 43/4/3 42/4/3
f 49/2/3 42/2/3 48/2/3
f 50/4/3 43/4/3 49/4/3
f 51/4/3 43/4/3 50/4/3
f 54/3/3 53/3/3 52/3/3
f 56/3/3 54/3/3 52/3/3
f 56/3/3 55/3/3 54/3/3
f 57/3/3 55/3/3 56/3/3
f 58/3/4 59/3/4 60/3/4
f 60/3/4 59/3/4 61/3/4
f 62/4/4 63/4/4 64/4/4
f 64/4/4 63/4/4 65/4/4
f 66/4/4 67/4/4 68/4/4
f 68/4/4 67/4/4 69/4/4
f 70/2/4 71/2/4 73/2/4
f 73/2/4 71/2/4 74/2/4
f 70/2/4 73/2/4 75/2/4
f 73/4/4 74/4/4 76/4/4
f 75/2/4 73/2/4 76/2/4
f 74/2/4 71/2/4 77/2/4
f 76/4/4 74/4/4 77/4/4
f 71/4/4 72/4/4 78/4/4
f 77/2/4 71/2/4 78/2/4
f 78/4/4 72/4/4 79/4/4
f 79/4/4 72/4/4 80/4/4
f 83/2/5 82/2/5 81/2/5
f 84/2/5 82/2/5 83/2/5
f 87/4/5 86/4/5 85/4/5
f 89/4/5 87/4/5 85/4/5
f 89/4/5 88/4/5 87/4/5
f 90/4/5 88/4/5 89/4/5
f 91/4/5 89/4/5 85/4/5
f 92/4/5 89/4/5 91/4/5
f 97/4/5 96/4/5 95/4/5
f 98/4/5 96/4/5 97/4/5
f 99/4/5 94/4/5 93/4/5
f 100/4/5 94/4/5 99/4/5
f 101/1/6 102/1/6 103/1/6
f 101/1/6 103/1/6 105/1/6
f 103/1/6 104/1/6 105/1/6
f 105/1/6 104/1/6 106/1/6
f 107/4/6 108/4/6 109/4/6
f 109/4/6 108/4/6 110/4/6
