# MagicaVoxel @ Ephtracy

# group
g Kitchen-7

# material
mtllib Kitchen-7.mtl
usemtl palette

# normals
vn -1 0 0
vn 1 0 0
vn 0 0 1
vn 0 0 -1
vn 0 -1 0
vn 0 1 0

# texcoords
vt 0.748047 0.5
vt 0.923828 0.5
vt 0.982422 0.5
vt 0.990234 0.5

# verts
v -7.5 0 7
v -7.5 0 -7
v -7.5 12 7
v -7.5 12 -7
v -7.5 13 7
v -7.5 13 -7
v -4.5 13 3
v -4.5 13 2
v -4.5 13 1
v -4.5 13 -1
v -4.5 13 -2
v -4.5 13 -3
v -4.5 14 3
v -4.5 14 2
v -4.5 14 -2
v -4.5 14 -3
v -4.5 15 1
v -4.5 15 -1
v 4.5 10 4
v 4.5 10 -4
v 4.5 13 4
v 4.5 13 -4
v -3.5 13 3
v -3.5 13 2
v -3.5 13 -2
v -3.5 13 -3
v -3.5 14 3
v -3.5 14 2
v -3.5 14 -2
v -3.5 14 -3
v -2.5 13 1
v -2.5 13 -1
v -2.5 14 1
v -2.5 14 -1
v -1.5 10 4
v -1.5 10 -4
v -1.5 13 4
v -1.5 13 -4
v 0.5 14 1
v 0.5 14 -1
v 0.5 15 1
v 0.5 15 -1
v 6.5 0 7
v 6.5 0 -7
v 6.5 12 7
v 6.5 12 -7
v 7.5 12 7
v 7.5 12 -7
v 7.5 13 7
v 7.5 13 -7
v -7.5 0 7
v -7.5 12 7
v -7.5 13 7
v 6.5 0 7
v 6.5 12 7
v 7.5 12 7
v 7.5 13 7
v -4.5 13 3
v -4.5 14 3
v -3.5 13 3
v -3.5 14 3
v -4.5 13 1
v -4.5 15 1
v -2.5 13 1
v -2.5 14 1
v 0.5 14 1
v 0.5 15 1
v -4.5 13 -2
v -4.5 14 -2
v -3.5 13 -2
v -3.5 14 -2
v -1.5 10 -4
v -1.5 13 -4
v 4.5 10 -4
v 4.5 13 -4
v -1.5 10 4
v -1.5 13 4
v 4.5 10 4
v 4.5 13 4
v -4.5 13 2
v -4.5 14 2
v -3.5 13 2
v -3.5 14 2
v -4.5 13 -1
v -4.5 15 -1
v -2.5 13 -1
v -2.5 14 -1
v 0.5 14 -1
v 0.5 15 -1
v -4.5 13 -3
v -4.5 14 -3
v -3.5 13 -3
v -3.5 14 -3
v -7.5 0 -7
v -7.5 12 -7
v -7.5 13 -7
v 6.5 0 -7
v 6.5 12 -7
v 7.5 12 -7
v 7.5 13 -7
v -7.5 0 7
v 6.5 0 7
v -7.5 0 -7
v 6.5 0 -7
v 6.5 12 7
v 7.5 12 7
v 6.5 12 -7
v 7.5 12 -7
v -2.5 14 1
v 0.5 14 1
v -2.5 14 -1
v 0.5 14 -1
v -1.5 10 4
v 4.5 10 4
v -1.5 10 -4
v 4.5 10 -4
v -7.5 13 7
v 7.5 13 7
v -2.5 13 5
v 5.5 13 5
v -1.5 13 4
v 4.5 13 4
v -4.5 13 3
v -3.5 13 3
v -4.5 13 2
v -3.5 13 2
v -4.5 13 1
v -2.5 13 1
v -4.5 13 -1
v -2.5 13 -1
v -4.5 13 -2
v -3.5 13 -2
v -4.5 13 -3
v -3.5 13 -3
v -1.5 13 -4
v 4.5 13 -4
v -2.5 13 -5
v 5.5 13 -5
v -7.5 13 -7
v 7.5 13 -7
v -4.5 14 3
v -3.5 14 3
v -4.5 14 2
v -3.5 14 2
v -4.5 14 -2
v -3.5 14 -2
v -4.5 14 -3
v -3.5 14 -3
v -4.5 15 1
v 0.5 15 1
v -4.5 15 -1
v 0.5 15 -1

# faces
f 3/2/1 2/2/1 1/2/1
f 4/2/1 2/2/1 3/2/1
f 5/4/1 4/4/1 3/4/1
f 6/4/1 4/4/1 5/4/1
f 13/3/1 8/3/1 7/3/1
f 14/3/1 8/3/1 13/3/1
f 15/3/1 12/3/1 11/3/1
f 16/3/1 12/3/1 15/3/1
f 17/3/1 10/3/1 9/3/1
f 18/3/1 10/3/1 17/3/1
f 21/3/1 20/3/1 19/3/1
f 22/3/1 20/3/1 21/3/1
f 23/3/2 24/3/2 27/3/2
f 27/3/2 24/3/2 28/3/2
f 25/3/2 26/3/2 29/3/2
f 29/3/2 26/3/2 30/3/2
f 31/3/2 32/3/2 33/3/2
f 33/3/2 32/3/2 34/3/2
f 35/3/2 36/3/2 37/3/2
f 37/3/2 36/3/2 38/3/2
f 39/3/2 40/3/2 41/3/2
f 41/3/2 40/3/2 42/3/2
f 43/2/2 44/2/2 45/2/2
f 45/2/2 44/2/2 46/2/2
f 47/4/2 48/4/2 49/4/2
f 49/4/2 48/4/2 50/4/2
f 54/2/3 52/2/3 51/2/3
f 55/4/3 53/4/3 52/4/3
f 55/2/3 52/2/3 54/2/3
f 56/4/3 53/4/3 55/4/3
f 57/4/3 53/4/3 56/4/3
f 60/3/3 59/3/3 58/3/3
f 61/3/3 59/3/3 60/3/3
f 64/3/3 63/3/3 62/3/3
f 65/3/3 63/3/3 64/3/3
f 66/3/3 63/3/3 65/3/3
f 67/3/3 63/3/3 66/3/3
f 70/3/3 69/3/3 68/3/3
f 71/3/3 69/3/3 70/3/3
f 74/3/3 73/3/3 72/3/3
f 75/3/3 73/3/3 74/3/3
f 76/3/4 77/3/4 78/3/4
f 78/3/4 77/3/4 79/3/4
f 80/3/4 81/3/4 82/3/4
f 82/3/4 81/3/4 83/3/4
f 84/3/4 85/3/4 86/3/4
f 86/3/4 85/3/4 87/3/4
f 87/3/4 85/3/4 88/3/4
f 88/3/4 85/3/4 89/3/4
f 90/3/4 91/3/4 92/3/4
f 92/3/4 91/3/4 93/3/4
f 94/2/4 95/2/4 97/2/4
f 95/4/4 96/4/4 98/4/4
f 97/2/4 95/2/4 98/2/4
f 98/4/4 96/4/4 99/4/4
f 99/4/4 96/4/4 100/4/4
f 103/2/5 102/2/5 101/2/5
f 104/2/5 102/2/5 103/2/5
f 107/4/5 106/4/5 105/4/5
f 108/4/5 106/4/5 107/4/5
f 111/3/5 110/3/5 109/3/5
f 112/3/5 110/3/5 111/3/5
f 113/1/6 114/1/6 115/1/6
f 115/1/6 114/1/6 116/1/6
f 117/4/6 118/4/6 119/4/6
f 119/4/6 118/4/6 120/4/6
f 119/3/6 120/3/6 121/3/6
f 121/3/6 120/3/6 122/3/6
f 117/4/6 119/4/6 123/4/6
f 123/4/6 119/4/6 124/4/6
f 117/4/6 123/4/6 125/4/6
f 124/4/6 119/4/6 126/4/6
f 117/4/6 125/4/6 127/4/6
f 125/4/6 126/4/6 127/4/6
f 119/3/6 121/3/6 128/3/6
f 127/4/6 126/4/6 128/4/6
f 126/4/6 119/4/6 128/4/6
f 117/4/6 127/4/6 129/4/6
f 128/3/6 121/3/6 130/3/6
f 117/4/6 129/4/6 131/4/6
f 129/4/6 130/4/6 131/4/6
f 131/4/6 130/4/6 132/4/6
f 117/4/6 131/4/6 133/4/6
f 132/4/6 130/4/6 134/4/6
f 130/3/6 121/3/6 135/3/6
f 122/3/6 120/3/6 136/3/6
f 130/3/6 135/3/6 137/3/6
f 135/3/6 136/3/6 137/3/6
f 133/4/6 134/4/6 137/4/6
f 134/4/6 130/4/6 137/4/6
f 136/3/6 120/3/6 138/3/6
f 137/3/6 136/3/6 138/3/6
f 120/4/6 118/4/6 138/4/6
f 133/4/6 137/4/6 139/4/6
f 117/4/6 133/4/6 139/4/6
f 137/4/6 138/4/6 139/4/6
f 138/4/6 118/4/6 140/4/6
f 139/4/6 138/4/6 140/4/6
f 141/3/6 142/3/6 143/3/6
f 143/3/6 142/3/6 144/3/6
f 145/3/6 146/3/6 147/3/6
f 147/3/6 146/3/6 148/3/6
f 149/3/6 150/3/6 151/3/6
f 151/3/6 150/3/6 152/3/6
