# MagicaVoxel @ Ephtracy

# group
g Things-4

# material
mtllib Things-4.mtl
usemtl palette

# normals
vn -1 0 0
vn 1 0 0
vn 0 0 1
vn 0 0 -1
vn 0 -1 0
vn 0 1 0

# texcoords
vt 0.107422 0.5
vt 0.462891 0.5
vt 0.771484 0.5
vt 0.986328 0.5
vt 0.994141 0.5

# verts
v -2.5 13 3.5
v -2.5 13 -1.5
v -2.5 14 3.5
v -2.5 14 2.5
v -2.5 14 -0.5
v -2.5 14 -1.5
v -2.5 15 2.5
v -2.5 15 -0.5
v -1.5 14 3.5
v -1.5 14 2.5
v -1.5 14 -0.5
v -1.5 14 -1.5
v -1.5 15 3.5
v -1.5 15 2.5
v -1.5 15 -0.5
v -1.5 15 -1.5
v -1.5 20 2.5
v -1.5 20 -0.5
v -1.5 21 2.5
v -1.5 21 -0.5
v -1.5 22 2.5
v -1.5 22 1.5
v -1.5 22 0.5
v -1.5 22 -0.5
v -1.5 23 1.5
v -1.5 23 0.5
v 0.5 22 1.5
v 0.5 22 0.5
v 0.5 23 1.5
v 0.5 23 0.5
v 1.5 14 3.5
v 1.5 14 2.5
v 1.5 14 -0.5
v 1.5 14 -1.5
v 1.5 15 3.5
v 1.5 15 2.5
v 1.5 15 -0.5
v 1.5 15 -1.5
v 1.5 18 2.5
v 1.5 18 -0.5
v 1.5 19 2.5
v 1.5 19 1.5
v 1.5 20 2.5
v 1.5 20 1.5
v 1.5 20 -0.5
v 1.5 21 2.5
v 1.5 21 -0.5
v 1.5 22 2.5
v 1.5 22 -0.5
v 2.5 13 3.5
v 2.5 13 2.5
v 2.5 13 -0.5
v 2.5 13 -1.5
v 2.5 14 3.5
v 2.5 14 2.5
v 2.5 14 -0.5
v 2.5 14 -1.5
v 2.5 15 2.5
v 2.5 15 -0.5
v 2.5 18 2.5
v 2.5 18 -0.5
v -2.5 13 3.5
v -2.5 14 3.5
v -1.5 14 3.5
v -1.5 15 3.5
v 1.5 13 3.5
v 1.5 14 3.5
v 1.5 15 3.5
v 2.5 13 3.5
v 2.5 14 3.5
v -2.5 14 2.5
v -2.5 15 2.5
v -1.5 14 2.5
v -1.5 15 2.5
v -1.5 20 2.5
v -1.5 21 2.5
v -1.5 22 2.5
v -0.5 15 2.5
v -0.5 18 2.5
v 0.5 19 2.5
v 0.5 20 2.5
v 1.5 14 2.5
v 1.5 15 2.5
v 1.5 18 2.5
v 1.5 19 2.5
v 1.5 20 2.5
v 1.5 21 2.5
v 1.5 22 2.5
v 2.5 14 2.5
v 2.5 15 2.5
v 2.5 18 2.5
v -1.5 22 1.5
v -1.5 23 1.5
v 0.5 22 1.5
v 0.5 23 1.5
v -1.5 22 0.5
v -1.5 23 0.5
v 0.5 22 0.5
v 0.5 23 0.5
v -2.5 14 -0.5
v -2.5 15 -0.5
v -1.5 14 -0.5
v -1.5 15 -0.5
v -1.5 20 -0.5
v -1.5 21 -0.5
v -1.5 22 -0.5
v -0.5 15 -0.5
v -0.5 18 -0.5
v 1.5 14 -0.5
v 1.5 15 -0.5
v 1.5 18 -0.5
v 1.5 20 -0.5
v 1.5 21 -0.5
v 1.5 22 -0.5
v 2.5 14 -0.5
v 2.5 15 -0.5
v 2.5 18 -0.5
v -2.5 13 -1.5
v -2.5 14 -1.5
v -1.5 14 -1.5
v -1.5 15 -1.5
v 1.5 13 -1.5
v 1.5 14 -1.5
v 1.5 15 -1.5
v 2.5 13 -1.5
v 2.5 14 -1.5
v -2.5 13 3.5
v 1.5 13 3.5
v 2.5 13 3.5
v 1.5 13 2.5
v 2.5 13 2.5
v 1.5 13 -0.5
v 2.5 13 -0.5
v -2.5 13 -1.5
v 1.5 13 -1.5
v 2.5 13 -1.5
v -2.5 14 3.5
v -1.5 14 3.5
v 1.5 14 3.5
v 2.5 14 3.5
v -2.5 14 2.5
v -1.5 14 2.5
v 1.5 14 2.5
v 2.5 14 2.5
v -2.5 14 -0.5
v -1.5 14 -0.5
v 1.5 14 -0.5
v 2.5 14 -0.5
v -2.5 14 -1.5
v -1.5 14 -1.5
v 1.5 14 -1.5
v 2.5 14 -1.5
v -1.5 15 3.5
v 1.5 15 3.5
v -2.5 15 2.5
v -1.5 15 2.5
v -0.5 15 2.5
v 1.5 15 2.5
v -2.5 15 -0.5
v -1.5 15 -0.5
v -0.5 15 -0.5
v 1.5 15 -0.5
v -1.5 15 -1.5
v 1.5 15 -1.5
v 1.5 18 2.5
v 2.5 18 2.5
v 1.5 18 -0.5
v 2.5 18 -0.5
v -1.5 22 2.5
v 1.5 22 2.5
v -1.5 22 1.5
v 0.5 22 1.5
v -1.5 22 0.5
v 0.5 22 0.5
v -1.5 22 -0.5
v 1.5 22 -0.5
v -1.5 23 1.5
v 0.5 23 1.5
v -1.5 23 0.5
v 0.5 23 0.5

# faces
f 3/2/1 2/2/1 1/2/1
f 4/2/1 2/2/1 3/2/1
f 5/2/1 2/2/1 4/2/1
f 6/2/1 2/2/1 5/2/1
f 7/2/1 5/2/1 4/2/1
f 8/2/1 5/2/1 7/2/1
f 13/2/1 10/2/1 9/2/1
f 14/2/1 10/2/1 13/2/1
f 15/2/1 12/2/1 11/2/1
f 16/2/1 12/2/1 15/2/1
f 17/2/1 15/2/1 14/2/1
f 18/2/1 15/2/1 17/2/1
f 19/1/1 18/1/1 17/1/1
f 20/1/1 18/1/1 19/1/1
f 21/4/1 20/4/1 19/4/1
f 22/4/1 20/4/1 21/4/1
f 23/4/1 20/4/1 22/4/1
f 24/4/1 20/4/1 23/4/1
f 25/4/1 23/4/1 22/4/1
f 26/4/1 23/4/1 25/4/1
f 27/4/2 28/4/2 29/4/2
f 29/4/2 28/4/2 30/4/2
f 31/2/2 32/2/2 35/2/2
f 35/2/2 32/2/2 36/2/2
f 33/2/2 34/2/2 37/2/2
f 37/2/2 34/2/2 38/2/2
f 39/2/2 40/2/2 41/2/2
f 41/2/2 40/2/2 42/2/2
f 41/3/2 42/3/2 43/3/2
f 42/2/2 40/2/2 44/2/2
f 43/3/2 42/3/2 44/3/2
f 44/2/2 40/2/2 45/2/2
f 43/1/2 44/1/2 46/1/2
f 44/1/2 45/1/2 46/1/2
f 46/1/2 45/1/2 47/1/2
f 46/4/2 47/4/2 48/4/2
f 48/4/2 47/4/2 49/4/2
f 50/5/2 51/5/2 54/5/2
f 51/2/2 52/2/2 55/2/2
f 54/5/2 51/5/2 55/5/2
f 52/5/2 53/5/2 56/5/2
f 55/2/2 52/2/2 56/2/2
f 56/5/2 53/5/2 57/5/2
f 55/2/2 56/2/2 58/2/2
f 58/2/2 56/2/2 59/2/2
f 58/5/2 59/5/2 60/5/2
f 60/5/2 59/5/2 61/5/2
f 64/2/3 63/2/3 62/2/3
f 66/2/3 64/2/3 62/2/3
f 66/2/3 65/2/3 64/2/3
f 67/2/3 65/2/3 66/2/3
f 68/2/3 65/2/3 67/2/3
f 69/5/3 67/5/3 66/5/3
f 70/5/3 67/5/3 69/5/3
f 73/2/3 72/2/3 71/2/3
f 74/2/3 72/2/3 73/2/3
f 78/2/3 75/2/3 74/2/3
f 79/2/3 75/2/3 78/2/3
f 80/2/3 75/2/3 79/2/3
f 81/1/3 76/1/3 75/1/3
f 81/2/3 75/2/3 80/2/3
f 83/5/3 79/5/3 78/5/3
f 84/2/3 80/2/3 79/2/3
f 84/5/3 79/5/3 83/5/3
f 85/3/3 81/3/3 80/3/3
f 85/2/3 80/2/3 84/2/3
f 86/1/3 76/1/3 81/1/3
f 86/3/3 81/3/3 85/3/3
f 87/4/3 77/4/3 76/4/3
f 87/1/3 76/1/3 86/1/3
f 88/4/3 77/4/3 87/4/3
f 89/2/3 83/2/3 82/2/3
f 90/5/3 84/5/3 83/5/3
f 90/2/3 83/2/3 89/2/3
f 91/5/3 84/5/3 90/5/3
f 94/4/3 93/4/3 92/4/3
f 95/4/3 93/4/3 94/4/3
f 96/4/4 97/4/4 98/4/4
f 98/4/4 97/4/4 99/4/4
f 100/2/4 101/2/4 102/2/4
f 102/2/4 101/2/4 103/2/4
f 103/2/4 104/2/4 107/2/4
f 107/2/4 104/2/4 108/2/4
f 107/5/4 108/5/4 110/5/4
f 108/2/4 104/2/4 111/2/4
f 110/5/4 108/5/4 111/5/4
f 104/1/4 105/1/4 112/1/4
f 111/2/4 104/2/4 112/2/4
f 105/4/4 106/4/4 113/4/4
f 112/1/4 105/1/4 113/1/4
f 113/4/4 106/4/4 114/4/4
f 109/2/4 110/2/4 115/2/4
f 110/5/4 111/5/4 116/5/4
f 115/2/4 110/2/4 116/2/4
f 116/5/4 111/5/4 117/5/4
f 118/2/4 119/2/4 120/2/4
f 118/2/4 120/2/4 122/2/4
f 120/2/4 121/2/4 122/2/4
f 122/2/4 121/2/4 123/2/4
f 123/2/4 121/2/4 124/2/4
f 122/5/4 123/5/4 125/5/4
f 125/5/4 123/5/4 126/5/4
f 130/2/5 128/2/5 127/2/5
f 130/5/5 129/5/5 128/5/5
f 131/5/5 129/5/5 130/5/5
f 132/2/5 130/2/5 127/2/5
f 132/2/5 131/2/5 130/2/5
f 133/2/5 131/2/5 132/2/5
f 134/2/5 132/2/5 127/2/5
f 135/5/5 133/5/5 132/5/5
f 135/2/5 132/2/5 134/2/5
f 136/5/5 133/5/5 135/5/5
f 137/2/6 138/2/6 141/2/6
f 141/2/6 138/2/6 142/2/6
f 139/5/6 140/5/6 143/5/6
f 143/5/6 140/5/6 144/5/6
f 145/2/6 146/2/6 149/2/6
f 149/2/6 146/2/6 150/2/6
f 147/5/6 148/5/6 151/5/6
f 151/5/6 148/5/6 152/5/6
f 153/2/6 154/2/6 156/2/6
f 156/2/6 154/2/6 157/2/6
f 157/2/6 154/2/6 158/2/6
f 155/2/6 156/2/6 159/2/6
f 159/2/6 156/2/6 160/2/6
f 161/2/6 162/2/6 163/2/6
f 160/2/6 161/2/6 163/2/6
f 163/2/6 162/2/6 164/2/6
f 165/5/6 166/5/6 167/5/6
f 167/5/6 166/5/6 168/5/6
f 169/4/6 170/4/6 171/4/6
f 171/4/6 170/4/6 172/4/6
f 172/4/6 170/4/6 174/4/6
f 173/4/6 174/4/6 175/4/6
f 174/4/6 170/4/6 176/4/6
f 175/4/6 174/4/6 176/4/6
f 177/4/6 178/4/6 179/4/6
f 179/4/6 178/4/6 180/4/6
