# MagicaVoxel @ Ephtracy

# group
g Things-6

# material
mtllib Things-6.mtl
usemtl palette

# normals
vn -1 0 0
vn 1 0 0
vn 0 0 1
vn 0 0 -1
vn 0 -1 0
vn 0 1 0

# texcoords
vt 0.763672 0.5
vt 0.990234 0.5
vt 0.994141 0.5

# verts
v -7.5 0 7.5
v -7.5 0 -7.5
v -7.5 12 7.5
v -7.5 12 -7.5
v -7.5 13 7.5
v -7.5 13 -7.5
v 6.5 0 7.5
v 6.5 0 -7.5
v 6.5 2 4.5
v 6.5 2 -4.5
v 6.5 3 3.5
v 6.5 3 -3.5
v 6.5 4 1.5
v 6.5 4 -1.5
v 6.5 5 3.5
v 6.5 5 1.5
v 6.5 5 -1.5
v 6.5 5 -3.5
v 6.5 6 4.5
v 6.5 6 -4.5
v 6.5 7 4.5
v 6.5 7 -4.5
v 6.5 8 3.5
v 6.5 8 -3.5
v 6.5 9 1.5
v 6.5 9 -1.5
v 6.5 10 3.5
v 6.5 10 1.5
v 6.5 10 -1.5
v 6.5 10 -3.5
v 6.5 11 4.5
v 6.5 11 -4.5
v 6.5 12 7.5
v 6.5 12 -7.5
v 7.5 12 7.5
v 7.5 12 -7.5
v 7.5 13 7.5
v 7.5 13 -7.5
v -7.5 0 7.5
v -7.5 12 7.5
v -7.5 13 7.5
v 6.5 0 7.5
v 6.5 12 7.5
v 7.5 12 7.5
v 7.5 13 7.5
v -7.5 0 -7.5
v -7.5 12 -7.5
v -7.5 13 -7.5
v 6.5 0 -7.5
v 6.5 12 -7.5
v 7.5 12 -7.5
v 7.5 13 -7.5
v -7.5 0 7.5
v 6.5 0 7.5
v -7.5 0 -7.5
v 6.5 0 -7.5
v 6.5 12 7.5
v 7.5 12 7.5
v 6.5 12 -7.5
v 7.5 12 -7.5
v -7.5 13 7.5
v 7.5 13 7.5
v -7.5 13 -7.5
v 7.5 13 -7.5

# faces
f 3/1/1 2/1/1 1/1/1
f 4/1/1 2/1/1 3/1/1
f 5/2/1 4/2/1 3/2/1
f 6/2/1 4/2/1 5/2/1
f 7/1/2 8/1/2 9/1/2
f 9/1/2 8/1/2 10/1/2
f 9/3/2 10/3/2 11/3/2
f 11/3/2 10/3/2 12/3/2
f 11/1/2 12/1/2 13/1/2
f 13/1/2 12/1/2 14/1/2
f 9/3/2 11/3/2 15/3/2
f 11/1/2 13/1/2 15/1/2
f 13/3/2 14/3/2 16/3/2
f 15/1/2 13/1/2 16/1/2
f 14/1/2 12/1/2 17/1/2
f 16/3/2 14/3/2 17/3/2
f 12/3/2 10/3/2 18/3/2
f 17/1/2 12/1/2 18/1/2
f 7/1/2 9/1/2 19/1/2
f 15/3/2 16/3/2 19/3/2
f 17/3/2 18/3/2 19/3/2
f 9/3/2 15/3/2 19/3/2
f 16/3/2 17/3/2 19/3/2
f 18/3/2 10/3/2 20/3/2
f 19/3/2 18/3/2 20/3/2
f 10/1/2 8/1/2 20/1/2
f 7/1/2 19/1/2 21/1/2
f 19/1/2 20/1/2 21/1/2
f 20/1/2 8/1/2 22/1/2
f 21/1/2 20/1/2 22/1/2
f 21/3/2 22/3/2 23/3/2
f 23/3/2 22/3/2 24/3/2
f 23/1/2 24/1/2 25/1/2
f 25/1/2 24/1/2 26/1/2
f 21/3/2 23/3/2 27/3/2
f 23/1/2 25/1/2 27/1/2
f 25/3/2 26/3/2 28/3/2
f 27/1/2 25/1/2 28/1/2
f 26/1/2 24/1/2 29/1/2
f 28/3/2 26/3/2 29/3/2
f 24/3/2 22/3/2 30/3/2
f 29/1/2 24/1/2 30/1/2
f 7/1/2 21/1/2 31/1/2
f 27/3/2 28/3/2 31/3/2
f 29/3/2 30/3/2 31/3/2
f 21/3/2 27/3/2 31/3/2
f 28/3/2 29/3/2 31/3/2
f 30/3/2 22/3/2 32/3/2
f 31/3/2 30/3/2 32/3/2
f 22/1/2 8/1/2 32/1/2
f 7/1/2 31/1/2 33/1/2
f 31/1/2 32/1/2 33/1/2
f 32/1/2 8/1/2 34/1/2
f 33/1/2 32/1/2 34/1/2
f 35/2/2 36/2/2 37/2/2
f 37/2/2 36/2/2 38/2/2
f 42/1/3 40/1/3 39/1/3
f 43/2/3 41/2/3 40/2/3
f 43/1/3 40/1/3 42/1/3
f 44/2/3 41/2/3 43/2/3
f 45/2/3 41/2/3 44/2/3
f 46/1/4 47/1/4 49/1/4
f 47/2/4 48/2/4 50/2/4
f 49/1/4 47/1/4 50/1/4
f 50/2/4 48/2/4 51/2/4
f 51/2/4 48/2/4 52/2/4
f 55/1/5 54/1/5 53/1/5
f 56/1/5 54/1/5 55/1/5
f 59/2/5 58/2/5 57/2/5
f 60/2/5 58/2/5 59/2/5
f 61/2/6 62/2/6 63/2/6
f 63/2/6 62/2/6 64/2/6
