# MagicaVoxel @ Ephtracy

# group
g Menu Scene 03-26

# material
mtllib Menu Scene 03-26.mtl
usemtl palette

# normals
vn -1 0 0
vn 1 0 0
vn 0 0 1
vn 0 0 -1
vn 0 -1 0
vn 0 1 0

# texcoords
vt 0.146484 0.5
vt 0.978516 0.5
vt 0.986328 0.5
vt 0.994141 0.5

# verts
v -3 0 7
v -3 0 6
v -3 0 5
v -3 0 -7
v -3 10 7
v -3 10 6
v -3 10 5
v -3 10 -7
v 3 0 7
v 3 0 6
v 3 0 5
v 3 0 -7
v 3 10 7
v 3 10 6
v 3 10 5
v 3 10 -7
v -3 0 7
v -3 10 7
v -2 2 7
v -2 3 7
v -2 4 7
v -2 6 7
v -2 8 7
v -2 9 7
v 1 8 7
v 1 9 7
v 2 2 7
v 2 3 7
v 2 4 7
v 2 6 7
v 2 8 7
v 2 9 7
v 3 0 7
v 3 10 7
v -3 0 -7
v -3 10 -7
v -2 0 -7
v -2 9 -7
v 2 0 -7
v 2 9 -7
v 3 0 -7
v 3 10 -7
v -3 0 7
v 3 0 7
v -3 0 6
v 3 0 6
v -3 0 5
v 3 0 5
v -2 0 -6
v 2 0 -6
v -3 0 -7
v -2 0 -7
v 2 0 -7
v 3 0 -7
v -3 10 7
v 3 10 7
v -3 10 6
v 3 10 6
v -3 10 5
v 3 10 5
v -3 10 -7
v 3 10 -7

# faces
f 5/4/1 2/4/1 1/4/1
f 6/3/1 3/3/1 2/3/1
f 6/4/1 2/4/1 5/4/1
f 7/4/1 4/4/1 3/4/1
f 7/3/1 3/3/1 6/3/1
f 8/4/1 4/4/1 7/4/1
f 9/4/2 10/4/2 13/4/2
f 10/3/2 11/3/2 14/3/2
f 13/4/2 10/4/2 14/4/2
f 11/4/2 12/4/2 15/4/2
f 14/3/2 11/3/2 15/3/2
f 15/4/2 12/4/2 16/4/2
f 19/4/3 18/4/3 17/4/3
f 20/4/3 18/4/3 19/4/3
f 21/4/3 18/4/3 20/4/3
f 22/4/3 18/4/3 21/4/3
f 23/4/3 18/4/3 22/4/3
f 24/4/3 18/4/3 23/4/3
f 25/4/3 23/4/3 22/4/3
f 25/3/3 24/3/3 23/3/3
f 26/4/3 18/4/3 24/4/3
f 26/3/3 24/3/3 25/3/3
f 27/4/3 19/4/3 17/4/3
f 27/2/3 20/2/3 19/2/3
f 28/4/3 21/4/3 20/4/3
f 28/2/3 20/2/3 27/2/3
f 29/3/3 22/3/3 21/3/3
f 29/4/3 21/4/3 28/4/3
f 30/4/3 25/4/3 22/4/3
f 30/3/3 22/3/3 29/3/3
f 31/1/3 26/1/3 25/1/3
f 31/4/3 25/4/3 30/4/3
f 32/4/3 18/4/3 26/4/3
f 32/1/3 26/1/3 31/1/3
f 33/4/3 31/4/3 30/4/3
f 33/4/3 30/4/3 29/4/3
f 33/4/3 32/4/3 31/4/3
f 33/4/3 29/4/3 28/4/3
f 33/4/3 28/4/3 27/4/3
f 33/4/3 27/4/3 17/4/3
f 34/4/3 18/4/3 32/4/3
f 34/4/3 32/4/3 33/4/3
f 35/4/4 36/4/4 37/4/4
f 37/4/4 36/4/4 38/4/4
f 37/3/4 38/3/4 39/3/4
f 38/4/4 36/4/4 40/4/4
f 39/3/4 38/3/4 40/3/4
f 39/4/4 40/4/4 41/4/4
f 40/4/4 36/4/4 42/4/4
f 41/4/4 40/4/4 42/4/4
f 45/4/5 44/4/5 43/4/5
f 46/4/5 44/4/5 45/4/5
f 47/3/5 46/3/5 45/3/5
f 48/3/5 46/3/5 47/3/5
f 49/4/5 48/4/5 47/4/5
f 50/4/5 48/4/5 49/4/5
f 51/4/5 49/4/5 47/4/5
f 52/3/5 50/3/5 49/3/5
f 52/4/5 49/4/5 51/4/5
f 53/4/5 48/4/5 50/4/5
f 53/3/5 50/3/5 52/3/5
f 54/4/5 48/4/5 53/4/5
f 55/4/6 56/4/6 57/4/6
f 57/4/6 56/4/6 58/4/6
f 57/3/6 58/3/6 59/3/6
f 59/3/6 58/3/6 60/3/6
f 59/4/6 60/4/6 61/4/6
f 61/4/6 60/4/6 62/4/6
