# MagicaVoxel @ Ephtracy

# group
g Menu Scene 03-42

# material
mtllib Menu Scene 03-42.mtl
usemtl palette

# normals
vn -1 0 0
vn 1 0 0
vn 0 0 1
vn 0 0 -1
vn 0 -1 0
vn 0 1 0

# texcoords
vt 0.353516 0.5
vt 0.748047 0.5
vt 0.986328 0.5
vt 0.994141 0.5

# verts
v -2 15 -6
v -2 15 -8
v -2 17 -6
v -2 17 -8
v -1 0 8
v -1 0 -9
v -1 3 3
v -1 3 -2
v -1 5 8
v -1 5 7
v -1 7 8
v -1 7 7
v -1 15 -6
v -1 15 -8
v -1 17 -6
v -1 17 -8
v -1 26 8
v -1 26 7
v -1 28 8
v -1 28 7
v -1 30 3
v -1 30 -2
v -1 33 8
v -1 33 -9
v 1 0 8
v 1 0 -9
v 1 3 3
v 1 3 -2
v 1 5 8
v 1 5 7
v 1 7 8
v 1 7 7
v 1 15 -6
v 1 15 -8
v 1 17 -6
v 1 17 -8
v 1 26 8
v 1 26 7
v 1 28 8
v 1 28 7
v 1 30 3
v 1 30 -2
v 1 33 8
v 1 33 -9
v 2 15 -6
v 2 15 -8
v 2 17 -6
v 2 17 -8
v -1 0 8
v -1 5 8
v -1 7 8
v -1 26 8
v -1 28 8
v -1 33 8
v 1 0 8
v 1 5 8
v 1 7 8
v 1 26 8
v 1 28 8
v 1 33 8
v -2 15 -6
v -2 17 -6
v -1 15 -6
v -1 17 -6
v 1 15 -6
v 1 17 -6
v 2 15 -6
v 2 17 -6
v -2 15 -8
v -2 17 -8
v -1 15 -8
v -1 17 -8
v 1 15 -8
v 1 17 -8
v 2 15 -8
v 2 17 -8
v -1 0 -9
v -1 33 -9
v 1 0 -9
v 1 33 -9
v -1 0 8
v 1 0 8
v -1 0 -9
v 1 0 -9
v -2 15 -6
v -1 15 -6
v 1 15 -6
v 2 15 -6
v -2 15 -8
v -1 15 -8
v 1 15 -8
v 2 15 -8
v -2 17 -6
v -1 17 -6
v 1 17 -6
v 2 17 -6
v -2 17 -8
v -1 17 -8
v 1 17 -8
v 2 17 -8
v -1 33 8
v 1 33 8
v -1 33 -9
v 1 33 -9

# faces
f 3/4/1 2/4/1 1/4/1
f 4/4/1 2/4/1 3/4/1
f 7/1/1 6/1/1 5/1/1
f 8/1/1 6/1/1 7/1/1
f 9/1/1 7/1/1 5/1/1
f 10/1/1 7/1/1 9/1/1
f 11/3/1 10/3/1 9/3/1
f 12/1/1 7/1/1 10/1/1
f 12/3/1 10/3/1 11/3/1
f 13/1/1 6/1/1 8/1/1
f 14/1/1 6/1/1 13/1/1
f 15/1/1 13/1/1 8/1/1
f 16/1/1 6/1/1 14/1/1
f 17/1/1 12/1/1 11/1/1
f 18/1/1 7/1/1 12/1/1
f 18/1/1 12/1/1 17/1/1
f 19/3/1 18/3/1 17/3/1
f 20/1/1 7/1/1 18/1/1
f 20/3/1 18/3/1 19/3/1
f 21/2/1 8/2/1 7/2/1
f 21/1/1 7/1/1 20/1/1
f 21/1/1 20/1/1 19/1/1
f 22/1/1 16/1/1 15/1/1
f 22/2/1 8/2/1 21/2/1
f 22/1/1 15/1/1 8/1/1
f 23/1/1 21/1/1 19/1/1
f 23/1/1 22/1/1 21/1/1
f 24/1/1 16/1/1 22/1/1
f 24/1/1 22/1/1 23/1/1
f 24/1/1 6/1/1 16/1/1
f 25/1/2 26/1/2 27/1/2
f 27/1/2 26/1/2 28/1/2
f 25/1/2 27/1/2 29/1/2
f 29/1/2 27/1/2 30/1/2
f 29/3/2 30/3/2 31/3/2
f 30/1/2 27/1/2 32/1/2
f 31/3/2 30/3/2 32/3/2
f 28/1/2 26/1/2 33/1/2
f 33/1/2 26/1/2 34/1/2
f 28/1/2 33/1/2 35/1/2
f 34/1/2 26/1/2 36/1/2
f 31/1/2 32/1/2 37/1/2
f 32/1/2 27/1/2 38/1/2
f 37/1/2 32/1/2 38/1/2
f 37/3/2 38/3/2 39/3/2
f 38/1/2 27/1/2 40/1/2
f 39/3/2 38/3/2 40/3/2
f 27/2/2 28/2/2 41/2/2
f 40/1/2 27/1/2 41/1/2
f 39/1/2 40/1/2 41/1/2
f 35/1/2 36/1/2 42/1/2
f 41/2/2 28/2/2 42/2/2
f 28/1/2 35/1/2 42/1/2
f 39/1/2 41/1/2 43/1/2
f 41/1/2 42/1/2 43/1/2
f 42/1/2 36/1/2 44/1/2
f 43/1/2 42/1/2 44/1/2
f 36/1/2 26/1/2 44/1/2
f 45/4/2 46/4/2 47/4/2
f 47/4/2 46/4/2 48/4/2
f 55/1/3 50/1/3 49/1/3
f 56/3/3 51/3/3 50/3/3
f 56/1/3 50/1/3 55/1/3
f 57/1/3 52/1/3 51/1/3
f 57/3/3 51/3/3 56/3/3
f 58/3/3 53/3/3 52/3/3
f 58/1/3 52/1/3 57/1/3
f 59/1/3 54/1/3 53/1/3
f 59/3/3 53/3/3 58/3/3
f 60/1/3 54/1/3 59/1/3
f 63/4/3 62/4/3 61/4/3
f 64/4/3 62/4/3 63/4/3
f 67/4/3 66/4/3 65/4/3
f 68/4/3 66/4/3 67/4/3
f 69/4/4 70/4/4 71/4/4
f 71/4/4 70/4/4 72/4/4
f 73/4/4 74/4/4 75/4/4
f 75/4/4 74/4/4 76/4/4
f 77/1/4 78/1/4 79/1/4
f 79/1/4 78/1/4 80/1/4
f 83/1/5 82/1/5 81/1/5
f 84/1/5 82/1/5 83/1/5
f 89/4/5 86/4/5 85/4/5
f 90/4/5 86/4/5 89/4/5
f 91/4/5 88/4/5 87/4/5
f 92/4/5 88/4/5 91/4/5
f 93/4/6 94/4/6 97/4/6
f 97/4/6 94/4/6 98/4/6
f 95/4/6 96/4/6 99/4/6
f 99/4/6 96/4/6 100/4/6
f 101/1/6 102/1/6 103/1/6
f 103/1/6 102/1/6 104/1/6
