# MagicaVoxel @ Ephtracy

# group
g Menu Scene 03-16

# material
mtllib Menu Scene 03-16.mtl
usemtl palette

# normals
vn -1 0 0
vn 1 0 0
vn 0 0 1
vn 0 0 -1
vn 0 -1 0
vn 0 1 0

# texcoords
vt 0.978516 0.5
vt 0.986328 0.5

# verts
v -8 0 15.5
v -8 0 14.5
v -8 0 -13.5
v -8 0 -15.5
v -8 2 15.5
v -8 2 14.5
v -8 2 -13.5
v -8 2 -14.5
v -8 2 -15.5
v -8 4 14.5
v -8 4 -14.5
v -8 5 14.5
v -8 5 -14.5
v -8 13 14.5
v -8 13 -14.5
v -8 14 14.5
v -8 14 -14.5
v -8 22 14.5
v -8 22 -14.5
v -8 23 14.5
v -8 23 -14.5
v -8 31 14.5
v -8 31 -14.5
v -8 32 14.5
v -8 32 -14.5
v -8 35 15.5
v -8 35 14.5
v -8 35 -14.5
v -8 35 -15.5
v 7 0 15.5
v 7 0 13.5
v 7 0 -13.5
v 7 0 -15.5
v 7 2 15.5
v 7 2 14.5
v 7 2 13.5
v 7 2 -13.5
v 7 2 -14.5
v 7 2 -15.5
v 7 4 15.5
v 7 4 14.5
v 7 4 -14.5
v 7 4 -15.5
v 7 5 15.5
v 7 5 14.5
v 7 5 -14.5
v 7 5 -15.5
v 7 13 15.5
v 7 13 14.5
v 7 13 -14.5
v 7 13 -15.5
v 7 14 15.5
v 7 14 14.5
v 7 14 -14.5
v 7 14 -15.5
v 7 22 15.5
v 7 22 14.5
v 7 22 -14.5
v 7 22 -15.5
v 7 23 15.5
v 7 23 14.5
v 7 23 -14.5
v 7 23 -15.5
v 7 31 15.5
v 7 31 14.5
v 7 31 -14.5
v 7 31 -15.5
v 7 32 15.5
v 7 32 14.5
v 7 32 -14.5
v 7 32 -15.5
v 7 35 15.5
v 7 35 14.5
v 7 35 -14.5
v 7 35 -15.5
v -7 0 15.5
v -7 0 14.5
v -7 0 -13.5
v -7 0 -15.5
v -7 2 15.5
v -7 2 14.5
v -7 2 -13.5
v -7 2 -14.5
v -7 2 -15.5
v -7 4 15.5
v -7 4 14.5
v -7 4 -14.5
v -7 4 -15.5
v -7 5 15.5
v -7 5 14.5
v -7 5 -14.5
v -7 5 -15.5
v -7 13 15.5
v -7 13 14.5
v -7 13 -14.5
v -7 13 -15.5
v -7 14 15.5
v -7 14 14.5
v -7 14 -14.5
v -7 14 -15.5
v -7 22 15.5
v -7 22 14.5
v -7 22 -14.5
v -7 22 -15.5
v -7 23 15.5
v -7 23 14.5
v -7 23 -14.5
v -7 23 -15.5
v -7 31 15.5
v -7 31 14.5
v -7 31 -14.5
v -7 31 -15.5
v -7 32 15.5
v -7 32 14.5
v -7 32 -14.5
v -7 32 -15.5
v -7 35 15.5
v -7 35 14.5
v -7 35 -14.5
v -7 35 -15.5
v 8 0 15.5
v 8 0 13.5
v 8 0 -13.5
v 8 0 -15.5
v 8 2 15.5
v 8 2 14.5
v 8 2 13.5
v 8 2 -13.5
v 8 2 -14.5
v 8 2 -15.5
v 8 4 14.5
v 8 4 -14.5
v 8 5 14.5
v 8 5 -14.5
v 8 13 14.5
v 8 13 -14.5
v 8 14 14.5
v 8 14 -14.5
v 8 22 14.5
v 8 22 -14.5
v 8 23 14.5
v 8 23 -14.5
v 8 31 14.5
v 8 31 -14.5
v 8 32 14.5
v 8 32 -14.5
v 8 35 15.5
v 8 35 14.5
v 8 35 -14.5
v 8 35 -15.5
v -8 0 15.5
v -8 2 15.5
v -8 35 15.5
v -7 0 15.5
v -7 2 15.5
v -7 4 15.5
v -7 5 15.5
v -7 13 15.5
v -7 14 15.5
v -7 22 15.5
v -7 23 15.5
v -7 31 15.5
v -7 32 15.5
v -7 35 15.5
v 7 0 15.5
v 7 2 15.5
v 7 4 15.5
v 7 5 15.5
v 7 13 15.5
v 7 14 15.5
v 7 22 15.5
v 7 23 15.5
v 7 31 15.5
v 7 32 15.5
v 7 35 15.5
v 8 0 15.5
v 8 2 15.5
v 8 35 15.5
v -8 0 -13.5
v -8 2 -13.5
v -7 0 -13.5
v -7 2 -13.5
v 7 0 -13.5
v 7 2 -13.5
v 8 0 -13.5
v 8 2 -13.5
v -8 2 -14.5
v -8 4 -14.5
v -8 5 -14.5
v -8 13 -14.5
v -8 14 -14.5
v -8 22 -14.5
v -8 23 -14.5
v -8 31 -14.5
v -8 32 -14.5
v -8 35 -14.5
v -7 2 -14.5
v -7 4 -14.5
v -7 5 -14.5
v -7 13 -14.5
v -7 14 -14.5
v -7 22 -14.5
v -7 23 -14.5
v -7 31 -14.5
v -7 32 -14.5
v -7 35 -14.5
v 7 2 -14.5
v 7 4 -14.5
v 7 5 -14.5
v 7 13 -14.5
v 7 14 -14.5
v 7 22 -14.5
v 7 23 -14.5
v 7 31 -14.5
v 7 32 -14.5
v 7 35 -14.5
v 8 2 -14.5
v 8 4 -14.5
v 8 5 -14.5
v 8 13 -14.5
v 8 14 -14.5
v 8 22 -14.5
v 8 23 -14.5
v 8 31 -14.5
v 8 32 -14.5
v 8 35 -14.5
v -8 0 14.5
v -8 2 14.5
v -8 4 14.5
v -8 5 14.5
v -8 13 14.5
v -8 14 14.5
v -8 22 14.5
v -8 23 14.5
v -8 31 14.5
v -8 32 14.5
v -8 35 14.5
v -7 0 14.5
v -7 2 14.5
v -7 4 14.5
v -7 5 14.5
v -7 13 14.5
v -7 14 14.5
v -7 22 14.5
v -7 23 14.5
v -7 31 14.5
v -7 32 14.5
v -7 35 14.5
v 7 2 14.5
v 7 4 14.5
v 7 5 14.5
v 7 13 14.5
v 7 14 14.5
v 7 22 14.5
v 7 23 14.5
v 7 31 14.5
v 7 32 14.5
v 7 35 14.5
v 8 2 14.5
v 8 4 14.5
v 8 5 14.5
v 8 13 14.5
v 8 14 14.5
v 8 22 14.5
v 8 23 14.5
v 8 31 14.5
v 8 32 14.5
v 8 35 14.5
v 7 0 13.5
v 7 2 13.5
v 8 0 13.5
v 8 2 13.5
v -8 0 -15.5
v -8 2 -15.5
v -8 35 -15.5
v -7 0 -15.5
v -7 2 -15.5
v -7 4 -15.5
v -7 5 -15.5
v -7 13 -15.5
v -7 14 -15.5
v -7 22 -15.5
v -7 23 -15.5
v -7 31 -15.5
v -7 32 -15.5
v -7 35 -15.5
v 7 0 -15.5
v 7 2 -15.5
v 7 4 -15.5
v 7 5 -15.5
v 7 13 -15.5
v 7 14 -15.5
v 7 22 -15.5
v 7 23 -15.5
v 7 31 -15.5
v 7 32 -15.5
v 7 35 -15.5
v 8 0 -15.5
v 8 2 -15.5
v 8 35 -15.5
v -8 0 15.5
v -7 0 15.5
v 7 0 15.5
v 8 0 15.5
v -8 0 14.5
v -7 0 14.5
v 7 0 13.5
v 8 0 13.5
v -8 0 -13.5
v -7 0 -13.5
v 7 0 -13.5
v 8 0 -13.5
v -8 0 -15.5
v -7 0 -15.5
v 7 0 -15.5
v 8 0 -15.5
v -7 4 15.5
v 7 4 15.5
v -8 4 14.5
v -7 4 14.5
v 7 4 14.5
v 8 4 14.5
v -8 4 -14.5
v -7 4 -14.5
v 7 4 -14.5
v 8 4 -14.5
v -7 4 -15.5
v 7 4 -15.5
v -7 13 15.5
v 7 13 15.5
v -8 13 14.5
v -7 13 14.5
v 7 13 14.5
v 8 13 14.5
v -8 13 -14.5
v -7 13 -14.5
v 7 13 -14.5
v 8 13 -14.5
v -7 13 -15.5
v 7 13 -15.5
v -7 22 15.5
v 7 22 15.5
v -8 22 14.5
v -7 22 14.5
v 7 22 14.5
v 8 22 14.5
v -8 22 -14.5
v -7 22 -14.5
v 7 22 -14.5
v 8 22 -14.5
v -7 22 -15.5
v 7 22 -15.5
v -7 31 15.5
v 7 31 15.5
v -8 31 14.5
v -7 31 14.5
v 7 31 14.5
v 8 31 14.5
v -8 31 -14.5
v -7 31 -14.5
v 7 31 -14.5
v 8 31 -14.5
v -7 31 -15.5
v 7 31 -15.5
v 7 2 14.5
v 8 2 14.5
v 7 2 13.5
v 8 2 13.5
v -8 2 -13.5
v -7 2 -13.5
v 7 2 -13.5
v 8 2 -13.5
v -8 2 -14.5
v -7 2 -14.5
v 7 2 -14.5
v 8 2 -14.5
v -7 5 15.5
v 7 5 15.5
v -8 5 14.5
v -7 5 14.5
v 7 5 14.5
v 8 5 14.5
v -8 5 -14.5
v -7 5 -14.5
v 7 5 -14.5
v 8 5 -14.5
v -7 5 -15.5
v 7 5 -15.5
v -7 14 15.5
v 7 14 15.5
v -8 14 14.5
v -7 14 14.5
v 7 14 14.5
v 8 14 14.5
v -8 14 -14.5
v -7 14 -14.5
v 7 14 -14.5
v 8 14 -14.5
v -7 14 -15.5
v 7 14 -15.5
v -7 23 15.5
v 7 23 15.5
v -8 23 14.5
v -7 23 14.5
v 7 23 14.5
v 8 23 14.5
v -8 23 -14.5
v -7 23 -14.5
v 7 23 -14.5
v 8 23 -14.5
v -7 23 -15.5
v 7 23 -15.5
v -7 32 15.5
v 7 32 15.5
v -8 32 14.5
v -7 32 14.5
v 7 32 14.5
v 8 32 14.5
v -8 32 -14.5
v -7 32 -14.5
v 7 32 -14.5
v 8 32 -14.5
v -7 32 -15.5
v 7 32 -15.5
v -8 35 15.5
v -7 35 15.5
v 7 35 15.5
v 8 35 15.5
v -8 35 14.5
v -7 35 14.5
v 7 35 14.5
v 8 35 14.5
v -8 35 -14.5
v -7 35 -14.5
v 7 35 -14.5
v 8 35 -14.5
v -8 35 -15.5
v -7 35 -15.5
v 7 35 -15.5
v 8 35 -15.5

# faces
f 5/2/1 2/2/1 1/2/1
f 6/2/1 2/2/1 5/2/1
f 7/2/1 4/2/1 3/2/1
f 8/2/1 4/2/1 7/2/1
f 9/2/1 4/2/1 8/2/1
f 10/1/1 6/1/1 5/1/1
f 11/1/1 9/1/1 8/1/1
f 12/1/1 10/1/1 5/1/1
f 12/1/1 11/1/1 10/1/1
f 13/1/1 9/1/1 11/1/1
f 13/1/1 11/1/1 12/1/1
f 14/1/1 12/1/1 5/1/1
f 15/1/1 9/1/1 13/1/1
f 16/1/1 14/1/1 5/1/1
f 16/1/1 15/1/1 14/1/1
f 17/1/1 9/1/1 15/1/1
f 17/1/1 15/1/1 16/1/1
f 18/1/1 16/1/1 5/1/1
f 19/1/1 9/1/1 17/1/1
f 20/1/1 18/1/1 5/1/1
f 20/1/1 19/1/1 18/1/1
f 21/1/1 9/1/1 19/1/1
f 21/1/1 19/1/1 20/1/1
f 22/1/1 20/1/1 5/1/1
f 23/1/1 9/1/1 21/1/1
f 24/1/1 22/1/1 5/1/1
f 24/1/1 23/1/1 22/1/1
f 25/1/1 9/1/1 23/1/1
f 25/1/1 23/1/1 24/1/1
f 26/1/1 24/1/1 5/1/1
f 27/1/1 24/1/1 26/1/1
f 28/1/1 9/1/1 25/1/1
f 29/1/1 9/1/1 28/1/1
f 34/2/1 31/2/1 30/2/1
f 35/2/1 31/2/1 34/2/1
f 36/2/1 31/2/1 35/2/1
f 37/2/1 33/2/1 32/2/1
f 38/2/1 33/2/1 37/2/1
f 39/2/1 33/2/1 38/2/1
f 40/1/1 35/1/1 34/1/1
f 41/1/1 35/1/1 40/1/1
f 42/1/1 39/1/1 38/1/1
f 43/1/1 39/1/1 42/1/1
f 48/1/1 45/1/1 44/1/1
f 49/1/1 45/1/1 48/1/1
f 50/1/1 47/1/1 46/1/1
f 51/1/1 47/1/1 50/1/1
f 56/1/1 53/1/1 52/1/1
f 57/1/1 53/1/1 56/1/1
f 58/1/1 55/1/1 54/1/1
f 59/1/1 55/1/1 58/1/1
f 64/1/1 61/1/1 60/1/1
f 65/1/1 61/1/1 64/1/1
f 66/1/1 63/1/1 62/1/1
f 67/1/1 63/1/1 66/1/1
f 72/1/1 69/1/1 68/1/1
f 73/1/1 69/1/1 72/1/1
f 74/1/1 71/1/1 70/1/1
f 75/1/1 71/1/1 74/1/1
f 76/2/2 77/2/2 80/2/2
f 80/2/2 77/2/2 81/2/2
f 78/2/2 79/2/2 82/2/2
f 82/2/2 79/2/2 83/2/2
f 83/2/2 79/2/2 84/2/2
f 80/1/2 81/1/2 85/1/2
f 85/1/2 81/1/2 86/1/2
f 83/1/2 84/1/2 87/1/2
f 87/1/2 84/1/2 88/1/2
f 89/1/2 90/1/2 93/1/2
f 93/1/2 90/1/2 94/1/2
f 91/1/2 92/1/2 95/1/2
f 95/1/2 92/1/2 96/1/2
f 97/1/2 98/1/2 101/1/2
f 101/1/2 98/1/2 102/1/2
f 99/1/2 100/1/2 103/1/2
f 103/1/2 100/1/2 104/1/2
f 105/1/2 106/1/2 109/1/2
f 109/1/2 106/1/2 110/1/2
f 107/1/2 108/1/2 111/1/2
f 111/1/2 108/1/2 112/1/2
f 113/1/2 114/1/2 117/1/2
f 117/1/2 114/1/2 118/1/2
f 115/1/2 116/1/2 119/1/2
f 119/1/2 116/1/2 120/1/2
f 121/2/2 122/2/2 125/2/2
f 125/2/2 122/2/2 126/2/2
f 126/2/2 122/2/2 127/2/2
f 123/2/2 124/2/2 128/2/2
f 128/2/2 124/2/2 129/2/2
f 129/2/2 124/2/2 130/2/2
f 125/1/2 126/1/2 131/1/2
f 129/1/2 130/1/2 132/1/2
f 125/1/2 131/1/2 133/1/2
f 131/1/2 132/1/2 133/1/2
f 132/1/2 130/1/2 134/1/2
f 133/1/2 132/1/2 134/1/2
f 125/1/2 133/1/2 135/1/2
f 134/1/2 130/1/2 136/1/2
f 125/1/2 135/1/2 137/1/2
f 135/1/2 136/1/2 137/1/2
f 136/1/2 130/1/2 138/1/2
f 137/1/2 136/1/2 138/1/2
f 125/1/2 137/1/2 139/1/2
f 138/1/2 130/1/2 140/1/2
f 125/1/2 139/1/2 141/1/2
f 139/1/2 140/1/2 141/1/2
f 140/1/2 130/1/2 142/1/2
f 141/1/2 140/1/2 142/1/2
f 125/1/2 141/1/2 143/1/2
f 142/1/2 130/1/2 144/1/2
f 125/1/2 143/1/2 145/1/2
f 143/1/2 144/1/2 145/1/2
f 144/1/2 130/1/2 146/1/2
f 145/1/2 144/1/2 146/1/2
f 125/1/2 145/1/2 147/1/2
f 147/1/2 145/1/2 148/1/2
f 146/1/2 130/1/2 149/1/2
f 149/1/2 130/1/2 150/1/2
f 154/2/3 152/2/3 151/2/3
f 155/1/3 153/1/3 152/1/3
f 155/2/3 152/2/3 154/2/3
f 156/1/3 153/1/3 155/1/3
f 157/1/3 153/1/3 156/1/3
f 158/1/3 153/1/3 157/1/3
f 159/1/3 153/1/3 158/1/3
f 160/1/3 153/1/3 159/1/3
f 161/1/3 153/1/3 160/1/3
f 162/1/3 153/1/3 161/1/3
f 163/1/3 153/1/3 162/1/3
f 164/1/3 153/1/3 163/1/3
f 167/1/3 157/1/3 156/1/3
f 168/1/3 157/1/3 167/1/3
f 169/1/3 159/1/3 158/1/3
f 170/1/3 159/1/3 169/1/3
f 171/1/3 161/1/3 160/1/3
f 172/1/3 161/1/3 171/1/3
f 173/1/3 163/1/3 162/1/3
f 174/1/3 163/1/3 173/1/3
f 176/2/3 166/2/3 165/2/3
f 177/1/3 172/1/3 171/1/3
f 177/2/3 166/2/3 176/2/3
f 177/1/3 175/1/3 174/1/3
f 177/1/3 174/1/3 173/1/3
f 177/1/3 173/1/3 172/1/3
f 177/1/3 170/1/3 169/1/3
f 177/1/3 171/1/3 170/1/3
f 177/1/3 168/1/3 167/1/3
f 177/1/3 169/1/3 168/1/3
f 177/1/3 167/1/3 166/1/3
f 178/1/3 175/1/3 177/1/3
f 181/2/3 180/2/3 179/2/3
f 182/2/3 180/2/3 181/2/3
f 185/2/3 184/2/3 183/2/3
f 186/2/3 184/2/3 185/2/3
f 197/1/3 188/1/3 187/1/3
f 198/1/3 188/1/3 197/1/3
f 199/1/3 190/1/3 189/1/3
f 200/1/3 190/1/3 199/1/3
f 201/1/3 192/1/3 191/1/3
f 202/1/3 192/1/3 201/1/3
f 203/1/3 194/1/3 193/1/3
f 204/1/3 194/1/3 203/1/3
f 205/1/3 196/1/3 195/1/3
f 206/1/3 196/1/3 205/1/3
f 217/1/3 208/1/3 207/1/3
f 218/1/3 208/1/3 217/1/3
f 219/1/3 210/1/3 209/1/3
f 220/1/3 210/1/3 219/1/3
f 221/1/3 212/1/3 211/1/3
f 222/1/3 212/1/3 221/1/3
f 223/1/3 214/1/3 213/1/3
f 224/1/3 214/1/3 223/1/3
f 225/1/3 216/1/3 215/1/3
f 226/1/3 216/1/3 225/1/3
f 227/2/4 228/2/4 238/2/4
f 228/1/4 229/1/4 239/1/4
f 238/2/4 228/2/4 239/2/4
f 239/1/4 229/1/4 240/1/4
f 230/1/4 231/1/4 241/1/4
f 241/1/4 231/1/4 242/1/4
f 232/1/4 233/1/4 243/1/4
f 243/1/4 233/1/4 244/1/4
f 234/1/4 235/1/4 245/1/4
f 245/1/4 235/1/4 246/1/4
f 236/1/4 237/1/4 247/1/4
f 247/1/4 237/1/4 248/1/4
f 249/1/4 250/1/4 259/1/4
f 259/1/4 250/1/4 260/1/4
f 251/1/4 252/1/4 261/1/4
f 261/1/4 252/1/4 262/1/4
f 253/1/4 254/1/4 263/1/4
f 263/1/4 254/1/4 264/1/4
f 255/1/4 256/1/4 265/1/4
f 265/1/4 256/1/4 266/1/4
f 257/1/4 258/1/4 267/1/4
f 267/1/4 258/1/4 268/1/4
f 269/2/4 270/2/4 271/2/4
f 271/2/4 270/2/4 272/2/4
f 273/2/4 274/2/4 276/2/4
f 274/1/4 275/1/4 277/1/4
f 276/2/4 274/2/4 277/2/4
f 277/1/4 275/1/4 278/1/4
f 278/1/4 275/1/4 279/1/4
f 279/1/4 275/1/4 280/1/4
f 280/1/4 275/1/4 281/1/4
f 281/1/4 275/1/4 282/1/4
f 282/1/4 275/1/4 283/1/4
f 283/1/4 275/1/4 284/1/4
f 284/1/4 275/1/4 285/1/4
f 285/1/4 275/1/4 286/1/4
f 278/1/4 279/1/4 289/1/4
f 289/1/4 279/1/4 290/1/4
f 280/1/4 281/1/4 291/1/4
f 291/1/4 281/1/4 292/1/4
f 282/1/4 283/1/4 293/1/4
f 293/1/4 283/1/4 294/1/4
f 284/1/4 285/1/4 295/1/4
f 295/1/4 285/1/4 296/1/4
f 287/2/4 288/2/4 298/2/4
f 293/1/4 294/1/4 299/1/4
f 298/2/4 288/2/4 299/2/4
f 296/1/4 297/1/4 299/1/4
f 295/1/4 296/1/4 299/1/4
f 294/1/4 295/1/4 299/1/4
f 291/1/4 292/1/4 299/1/4
f 292/1/4 293/1/4 299/1/4
f 289/1/4 290/1/4 299/1/4
f 290/1/4 291/1/4 299/1/4
f 288/1/4 289/1/4 299/1/4
f 299/1/4 297/1/4 300/1/4
f 305/2/5 302/2/5 301/2/5
f 306/2/5 302/2/5 305/2/5
f 307/2/5 304/2/5 303/2/5
f 308/2/5 304/2/5 307/2/5
f 313/2/5 310/2/5 309/2/5
f 314/2/5 310/2/5 313/2/5
f 315/2/5 312/2/5 311/2/5
f 316/2/5 312/2/5 315/2/5
f 320/1/5 318/1/5 317/1/5
f 321/1/5 318/1/5 320/1/5
f 323/1/5 320/1/5 319/1/5
f 323/1/5 322/1/5 321/1/5
f 323/1/5 321/1/5 320/1/5
f 324/1/5 322/1/5 323/1/5
f 325/1/5 322/1/5 324/1/5
f 326/1/5 322/1/5 325/1/5
f 327/1/5 325/1/5 324/1/5
f 328/1/5 325/1/5 327/1/5
f 332/1/5 330/1/5 329/1/5
f 333/1/5 330/1/5 332/1/5
f 335/1/5 332/1/5 331/1/5
f 335/1/5 334/1/5 333/1/5
f 335/1/5 333/1/5 332/1/5
f 336/1/5 334/1/5 335/1/5
f 337/1/5 334/1/5 336/1/5
f 338/1/5 334/1/5 337/1/5
f 339/1/5 337/1/5 336/1/5
f 340/1/5 337/1/5 339/1/5
f 344/1/5 342/1/5 341/1/5
f 345/1/5 342/1/5 344/1/5
f 347/1/5 344/1/5 343/1/5
f 347/1/5 346/1/5 345/1/5
f 347/1/5 345/1/5 344/1/5
f 348/1/5 346/1/5 347/1/5
f 349/1/5 346/1/5 348/1/5
f 350/1/5 346/1/5 349/1/5
f 351/1/5 349/1/5 348/1/5
f 352/1/5 349/1/5 351/1/5
f 356/1/5 354/1/5 353/1/5
f 357/1/5 354/1/5 356/1/5
f 359/1/5 356/1/5 355/1/5
f 359/1/5 358/1/5 357/1/5
f 359/1/5 357/1/5 356/1/5
f 360/1/5 358/1/5 359/1/5
f 361/1/5 358/1/5 360/1/5
f 362/1/5 358/1/5 361/1/5
f 363/1/5 361/1/5 360/1/5
f 364/1/5 361/1/5 363/1/5
f 365/2/6 366/2/6 367/2/6
f 367/2/6 366/2/6 368/2/6
f 369/2/6 370/2/6 373/2/6
f 373/2/6 370/2/6 374/2/6
f 371/2/6 372/2/6 375/2/6
f 375/2/6 372/2/6 376/2/6
f 377/1/6 378/1/6 380/1/6
f 380/1/6 378/1/6 381/1/6
f 379/1/6 380/1/6 383/1/6
f 381/1/6 382/1/6 383/1/6
f 380/1/6 381/1/6 383/1/6
f 383/1/6 382/1/6 384/1/6
f 384/1/6 382/1/6 385/1/6
f 385/1/6 382/1/6 386/1/6
f 384/1/6 385/1/6 387/1/6
f 387/1/6 385/1/6 388/1/6
f 389/1/6 390/1/6 392/1/6
f 392/1/6 390/1/6 393/1/6
f 391/1/6 392/1/6 395/1/6
f 393/1/6 394/1/6 395/1/6
f 392/1/6 393/1/6 395/1/6
f 395/1/6 394/1/6 396/1/6
f 396/1/6 394/1/6 397/1/6
f 397/1/6 394/1/6 398/1/6
f 396/1/6 397/1/6 399/1/6
f 399/1/6 397/1/6 400/1/6
f 401/1/6 402/1/6 404/1/6
f 404/1/6 402/1/6 405/1/6
f 403/1/6 404/1/6 407/1/6
f 405/1/6 406/1/6 407/1/6
f 404/1/6 405/1/6 407/1/6
f 407/1/6 406/1/6 408/1/6
f 408/1/6 406/1/6 409/1/6
f 409/1/6 406/1/6 410/1/6
f 408/1/6 409/1/6 411/1/6
f 411/1/6 409/1/6 412/1/6
f 413/1/6 414/1/6 416/1/6
f 416/1/6 414/1/6 417/1/6
f 415/1/6 416/1/6 419/1/6
f 417/1/6 418/1/6 419/1/6
f 416/1/6 417/1/6 419/1/6
f 419/1/6 418/1/6 420/1/6
f 420/1/6 418/1/6 421/1/6
f 421/1/6 418/1/6 422/1/6
f 420/1/6 421/1/6 423/1/6
f 423/1/6 421/1/6 424/1/6
f 425/1/6 426/1/6 429/1/6
f 429/1/6 426/1/6 430/1/6
f 427/1/6 428/1/6 431/1/6
f 431/1/6 428/1/6 432/1/6
f 433/1/6 434/1/6 437/1/6
f 437/1/6 434/1/6 438/1/6
f 435/1/6 436/1/6 439/1/6
f 439/1/6 436/1/6 440/1/6
