# MagicaVoxel @ Ephtracy

# group
g Menu Scene 03-29

# material
mtllib Menu Scene 03-29.mtl
usemtl palette

# normals
vn -1 0 0
vn 1 0 0
vn 0 0 1
vn 0 0 -1
vn 0 -1 0
vn 0 1 0

# texcoords
vt 0.974609 0.5
vt 0.978516 0.5

# verts
v -7.5 0 32
v -7.5 0 -32
v -7.5 2 32
v -7.5 2 -32
v -7.5 62 32
v -7.5 62 -32
v -7.5 64 32
v -7.5 64 -32
v -6.5 2 32
v -6.5 2 31
v -6.5 2 -31
v -6.5 2 -32
v -6.5 17 31
v -6.5 17 -31
v -6.5 18 31
v -6.5 18 -31
v -6.5 33 31
v -6.5 33 -31
v -6.5 34 31
v -6.5 34 -31
v -6.5 49 31
v -6.5 49 -31
v -6.5 50 31
v -6.5 50 -31
v -6.5 62 32
v -6.5 62 31
v -6.5 62 -31
v -6.5 62 -32
v 5.5 2 31
v 5.5 2 -31
v 5.5 17 31
v 5.5 17 -31
v 5.5 18 31
v 5.5 18 -31
v 5.5 33 31
v 5.5 33 -31
v 5.5 34 31
v 5.5 34 -31
v 5.5 49 31
v 5.5 49 -31
v 5.5 50 31
v 5.5 50 -31
v 5.5 62 31
v 5.5 62 -31
v 7.5 0 32
v 7.5 0 -32
v 7.5 64 32
v 7.5 64 -32
v -7.5 0 32
v -7.5 2 32
v -7.5 62 32
v -7.5 64 32
v -6.5 2 32
v -6.5 62 32
v -5.5 0 32
v -5.5 63 32
v -4.5 0 32
v -4.5 63 32
v 7.5 0 32
v 7.5 64 32
v -6.5 2 -31
v -6.5 17 -31
v -6.5 18 -31
v -6.5 33 -31
v -6.5 34 -31
v -6.5 49 -31
v -6.5 50 -31
v -6.5 62 -31
v -5.5 2 -31
v -5.5 17 -31
v -5.5 18 -31
v -5.5 33 -31
v -5.5 34 -31
v -5.5 49 -31
v -5.5 50 -31
v -5.5 62 -31
v -4.5 2 -31
v -4.5 17 -31
v -4.5 18 -31
v -4.5 33 -31
v -4.5 34 -31
v -4.5 49 -31
v -4.5 50 -31
v -4.5 62 -31
v 5.5 2 -31
v 5.5 17 -31
v 5.5 18 -31
v 5.5 33 -31
v 5.5 34 -31
v 5.5 49 -31
v 5.5 50 -31
v 5.5 62 -31
v -6.5 2 31
v -6.5 17 31
v -6.5 18 31
v -6.5 33 31
v -6.5 34 31
v -6.5 49 31
v -6.5 50 31
v -6.5 62 31
v -5.5 2 31
v -5.5 17 31
v -5.5 18 31
v -5.5 33 31
v -5.5 34 31
v -5.5 49 31
v -5.5 50 31
v -5.5 62 31
v -4.5 2 31
v -4.5 17 31
v -4.5 18 31
v -4.5 33 31
v -4.5 34 31
v -4.5 49 31
v -4.5 50 31
v -4.5 62 31
v 5.5 2 31
v 5.5 17 31
v 5.5 18 31
v 5.5 33 31
v 5.5 34 31
v 5.5 49 31
v 5.5 50 31
v 5.5 62 31
v -7.5 0 -32
v -7.5 2 -32
v -7.5 62 -32
v -7.5 64 -32
v -6.5 2 -32
v -6.5 62 -32
v -5.5 0 -32
v -5.5 63 -32
v -4.5 0 -32
v -4.5 63 -32
v 7.5 0 -32
v 7.5 64 -32
v -7.5 0 32
v -5.5 0 32
v -4.5 0 32
v 7.5 0 32
v -7.5 0 -32
v -5.5 0 -32
v -4.5 0 -32
v 7.5 0 -32
v -6.5 17 31
v -5.5 17 31
v -4.5 17 31
v 5.5 17 31
v -6.5 17 -31
v -5.5 17 -31
v -4.5 17 -31
v 5.5 17 -31
v -6.5 33 31
v -5.5 33 31
v -4.5 33 31
v 5.5 33 31
v -6.5 33 -31
v -5.5 33 -31
v -4.5 33 -31
v 5.5 33 -31
v -6.5 49 31
v -5.5 49 31
v -4.5 49 31
v 5.5 49 31
v -6.5 49 -31
v -5.5 49 -31
v -4.5 49 -31
v 5.5 49 -31
v -7.5 62 32
v -6.5 62 32
v -6.5 62 31
v -5.5 62 31
v -4.5 62 31
v 5.5 62 31
v -6.5 62 -31
v -5.5 62 -31
v -4.5 62 -31
v 5.5 62 -31
v -7.5 62 -32
v -6.5 62 -32
v -7.5 2 32
v -6.5 2 32
v -6.5 2 31
v -5.5 2 31
v -4.5 2 31
v 5.5 2 31
v -6.5 2 -31
v -5.5 2 -31
v -4.5 2 -31
v 5.5 2 -31
v -7.5 2 -32
v -6.5 2 -32
v -6.5 18 31
v -5.5 18 31
v -4.5 18 31
v 5.5 18 31
v -6.5 18 -31
v -5.5 18 -31
v -4.5 18 -31
v 5.5 18 -31
v -6.5 34 31
v -5.5 34 31
v -4.5 34 31
v 5.5 34 31
v -6.5 34 -31
v -5.5 34 -31
v -4.5 34 -31
v 5.5 34 -31
v -6.5 50 31
v -5.5 50 31
v -4.5 50 31
v 5.5 50 31
v -6.5 50 -31
v -5.5 50 -31
v -4.5 50 -31
v 5.5 50 -31
v -7.5 64 32
v 7.5 64 32
v -7.5 64 -32
v 7.5 64 -32

# faces
f 3/2/1 2/2/1 1/2/1
f 4/2/1 2/2/1 3/2/1
f 7/2/1 6/2/1 5/2/1
f 8/2/1 6/2/1 7/2/1
f 13/2/1 10/2/1 9/2/1
f 14/2/1 12/2/1 11/2/1
f 15/2/1 13/2/1 9/2/1
f 15/2/1 14/2/1 13/2/1
f 16/2/1 12/2/1 14/2/1
f 16/2/1 14/2/1 15/2/1
f 17/2/1 15/2/1 9/2/1
f 18/2/1 12/2/1 16/2/1
f 19/2/1 17/2/1 9/2/1
f 19/2/1 18/2/1 17/2/1
f 20/2/1 12/2/1 18/2/1
f 20/2/1 18/2/1 19/2/1
f 21/2/1 19/2/1 9/2/1
f 22/2/1 12/2/1 20/2/1
f 23/2/1 21/2/1 9/2/1
f 23/2/1 22/2/1 21/2/1
f 24/2/1 12/2/1 22/2/1
f 24/2/1 22/2/1 23/2/1
f 25/2/1 23/2/1 9/2/1
f 26/2/1 23/2/1 25/2/1
f 27/2/1 12/2/1 24/2/1
f 28/2/1 12/2/1 27/2/1
f 31/2/1 30/2/1 29/2/1
f 32/2/1 30/2/1 31/2/1
f 35/2/1 34/2/1 33/2/1
f 36/2/1 34/2/1 35/2/1
f 39/2/1 38/2/1 37/2/1
f 40/2/1 38/2/1 39/2/1
f 43/2/1 42/2/1 41/2/1
f 44/2/1 42/2/1 43/2/1
f 45/2/2 46/2/2 47/2/2
f 47/2/2 46/2/2 48/2/2
f 53/2/3 50/2/3 49/2/3
f 54/2/3 52/2/3 51/2/3
f 55/2/3 53/2/3 49/2/3
f 55/2/3 54/2/3 53/2/3
f 56/2/3 52/2/3 54/2/3
f 56/2/3 54/2/3 55/2/3
f 57/1/3 56/1/3 55/1/3
f 58/2/3 52/2/3 56/2/3
f 58/1/3 56/1/3 57/1/3
f 59/2/3 58/2/3 57/2/3
f 60/2/3 52/2/3 58/2/3
f 60/2/3 58/2/3 59/2/3
f 69/2/3 62/2/3 61/2/3
f 70/2/3 62/2/3 69/2/3
f 71/2/3 64/2/3 63/2/3
f 72/2/3 64/2/3 71/2/3
f 73/2/3 66/2/3 65/2/3
f 74/2/3 66/2/3 73/2/3
f 75/2/3 68/2/3 67/2/3
f 76/2/3 68/2/3 75/2/3
f 77/1/3 70/1/3 69/1/3
f 78/1/3 70/1/3 77/1/3
f 79/1/3 72/1/3 71/1/3
f 80/1/3 72/1/3 79/1/3
f 81/1/3 74/1/3 73/1/3
f 82/1/3 74/1/3 81/1/3
f 83/1/3 76/1/3 75/1/3
f 84/1/3 76/1/3 83/1/3
f 85/2/3 78/2/3 77/2/3
f 86/2/3 78/2/3 85/2/3
f 87/2/3 80/2/3 79/2/3
f 88/2/3 80/2/3 87/2/3
f 89/2/3 82/2/3 81/2/3
f 90/2/3 82/2/3 89/2/3
f 91/2/3 84/2/3 83/2/3
f 92/2/3 84/2/3 91/2/3
f 93/2/4 94/2/4 101/2/4
f 101/2/4 94/2/4 102/2/4
f 95/2/4 96/2/4 103/2/4
f 103/2/4 96/2/4 104/2/4
f 97/2/4 98/2/4 105/2/4
f 105/2/4 98/2/4 106/2/4
f 99/2/4 100/2/4 107/2/4
f 107/2/4 100/2/4 108/2/4
f 101/1/4 102/1/4 109/1/4
f 109/1/4 102/1/4 110/1/4
f 103/1/4 104/1/4 111/1/4
f 111/1/4 104/1/4 112/1/4
f 105/1/4 106/1/4 113/1/4
f 113/1/4 106/1/4 114/1/4
f 107/1/4 108/1/4 115/1/4
f 115/1/4 108/1/4 116/1/4
f 109/2/4 110/2/4 117/2/4
f 117/2/4 110/2/4 118/2/4
f 111/2/4 112/2/4 119/2/4
f 119/2/4 112/2/4 120/2/4
f 113/2/4 114/2/4 121/2/4
f 121/2/4 114/2/4 122/2/4
f 115/2/4 116/2/4 123/2/4
f 123/2/4 116/2/4 124/2/4
f 125/2/4 126/2/4 129/2/4
f 127/2/4 128/2/4 130/2/4
f 125/2/4 129/2/4 131/2/4
f 129/2/4 130/2/4 131/2/4
f 130/2/4 128/2/4 132/2/4
f 131/2/4 130/2/4 132/2/4
f 131/1/4 132/1/4 133/1/4
f 132/2/4 128/2/4 134/2/4
f 133/1/4 132/1/4 134/1/4
f 133/2/4 134/2/4 135/2/4
f 134/2/4 128/2/4 136/2/4
f 135/2/4 134/2/4 136/2/4
f 141/2/5 138/2/5 137/2/5
f 142/1/5 139/1/5 138/1/5
f 142/2/5 138/2/5 141/2/5
f 143/2/5 140/2/5 139/2/5
f 143/1/5 139/1/5 142/1/5
f 144/2/5 140/2/5 143/2/5
f 149/2/5 146/2/5 145/2/5
f 150/1/5 147/1/5 146/1/5
f 150/2/5 146/2/5 149/2/5
f 151/2/5 148/2/5 147/2/5
f 151/1/5 147/1/5 150/1/5
f 152/2/5 148/2/5 151/2/5
f 157/2/5 154/2/5 153/2/5
f 158/1/5 155/1/5 154/1/5
f 158/2/5 154/2/5 157/2/5
f 159/2/5 156/2/5 155/2/5
f 159/1/5 155/1/5 158/1/5
f 160/2/5 156/2/5 159/2/5
f 165/2/5 162/2/5 161/2/5
f 166/1/5 163/1/5 162/1/5
f 166/2/5 162/2/5 165/2/5
f 167/2/5 164/2/5 163/2/5
f 167/1/5 163/1/5 166/1/5
f 168/2/5 164/2/5 167/2/5
f 171/2/5 170/2/5 169/2/5
f 175/2/5 171/2/5 169/2/5
f 175/2/5 172/2/5 171/2/5
f 176/1/5 173/1/5 172/1/5
f 176/2/5 172/2/5 175/2/5
f 177/2/5 174/2/5 173/2/5
f 177/1/5 173/1/5 176/1/5
f 178/2/5 174/2/5 177/2/5
f 179/2/5 175/2/5 169/2/5
f 180/2/5 175/2/5 179/2/5
f 181/2/6 182/2/6 183/2/6
f 181/2/6 183/2/6 187/2/6
f 183/2/6 184/2/6 187/2/6
f 184/1/6 185/1/6 188/1/6
f 187/2/6 184/2/6 188/2/6
f 185/2/6 186/2/6 189/2/6
f 188/1/6 185/1/6 189/1/6
f 189/2/6 186/2/6 190/2/6
f 181/2/6 187/2/6 191/2/6
f 191/2/6 187/2/6 192/2/6
f 193/2/6 194/2/6 197/2/6
f 194/1/6 195/1/6 198/1/6
f 197/2/6 194/2/6 198/2/6
f 195/2/6 196/2/6 199/2/6
f 198/1/6 195/1/6 199/1/6
f 199/2/6 196/2/6 200/2/6
f 201/2/6 202/2/6 205/2/6
f 202/1/6 203/1/6 206/1/6
f 205/2/6 202/2/6 206/2/6
f 203/2/6 204/2/6 207/2/6
f 206/1/6 203/1/6 207/1/6
f 207/2/6 204/2/6 208/2/6
f 209/2/6 210/2/6 213/2/6
f 210/1/6 211/1/6 214/1/6
f 213/2/6 210/2/6 214/2/6
f 211/2/6 212/2/6 215/2/6
f 214/1/6 211/1/6 215/1/6
f 215/2/6 212/2/6 216/2/6
f 217/2/6 218/2/6 219/2/6
f 219/2/6 218/2/6 220/2/6
