# MagicaVoxel @ Ephtracy

# group
g Menu Scene 03-38

# material
mtllib Menu Scene 03-38.mtl
usemtl palette

# normals
vn -1 0 0
vn 1 0 0
vn 0 0 1
vn 0 0 -1
vn 0 -1 0
vn 0 1 0

# texcoords
vt 0.146484 0.5
vt 0.310547 0.5
vt 0.373047 0.5
vt 0.994141 0.5

# verts
v -12 0 5
v -12 0 3
v -12 0 -3
v -12 0 -5
v -12 2 6
v -12 2 5
v -12 2 3
v -12 2 -3
v -12 2 -5
v -12 2 -6
v -12 5 4
v -12 5 2
v -12 5 -2
v -12 5 -4
v -12 6 5
v -12 6 4
v -12 6 2
v -12 6 1
v -12 6 -1
v -12 6 -2
v -12 6 -4
v -12 6 -5
v -12 7 2
v -12 7 1
v -12 8 5
v -12 8 4
v -12 8 3
v -12 9 5
v -12 9 4
v -12 9 3
v -12 9 2
v -12 9 1
v -12 10 5
v -12 10 4
v -12 10 2
v -12 10 1
v -12 10 -1
v -12 10 -2
v -12 10 -4
v -12 10 -5
v -12 11 4
v -12 11 2
v -12 11 -2
v -12 11 -4
v -12 14 6
v -12 14 -6
v 0 10 -1
v 0 10 -5
v 0 12 -1
v 0 12 -2
v 0 12 -4
v 0 12 -5
v 0 13 -2
v 0 13 -4
v 1 3 5
v 1 3 1
v 1 3 -1
v 1 3 -5
v 1 5 5
v 1 5 4
v 1 5 2
v 1 5 1
v 1 5 -1
v 1 5 -2
v 1 5 -4
v 1 5 -5
v 1 6 4
v 1 6 2
v 1 6 -2
v 1 6 -4
v 10 0 5
v 10 0 3
v 10 0 -3
v 10 0 -5
v 10 2 5
v 10 2 3
v 10 2 -3
v 10 2 -5
v 11 3 6
v 11 3 5
v 11 3 1
v 11 3 -1
v 11 3 -5
v 11 3 -6
v 11 5 5
v 11 5 4
v 11 5 2
v 11 5 1
v 11 5 -1
v 11 5 -2
v 11 5 -4
v 11 5 -5
v 11 6 5
v 11 6 4
v 11 6 2
v 11 6 1
v 11 6 -1
v 11 6 -2
v 11 6 -4
v 11 6 -5
v 11 7 -1
v 11 7 -2
v 11 8 -3
v 11 8 -4
v 11 8 -5
v 11 9 6
v 11 9 5
v 11 9 4
v 11 9 2
v 11 9 1
v 11 9 -3
v 11 9 -4
v 11 9 -6
v 11 10 6
v 11 10 4
v 11 10 2
v 11 10 -1
v 11 10 -5
v 11 10 -6
v 11 11 4
v 11 11 2
v 11 12 -1
v 11 12 -2
v 11 12 -4
v 11 12 -5
v 11 13 -2
v 11 13 -4
v 11 14 6
v 11 14 -6
v -11 3 6
v -11 3 5
v -11 3 1
v -11 3 -1
v -11 3 -5
v -11 3 -6
v -11 5 5
v -11 5 4
v -11 5 2
v -11 5 1
v -11 5 -1
v -11 5 -2
v -11 5 -4
v -11 5 -5
v -11 6 5
v -11 6 4
v -11 6 2
v -11 6 1
v -11 6 -1
v -11 6 -2
v -11 6 -4
v -11 6 -5
v -11 7 2
v -11 7 1
v -11 8 5
v -11 8 4
v -11 8 3
v -11 9 6
v -11 9 4
v -11 9 3
v -11 9 -1
v -11 9 -2
v -11 9 -4
v -11 9 -5
v -11 9 -6
v -11 10 6
v -11 10 4
v -11 10 2
v -11 10 -2
v -11 10 -4
v -11 10 -6
v -11 11 4
v -11 11 2
v -11 11 -2
v -11 11 -4
v -11 14 6
v -11 14 -6
v -10 0 5
v -10 0 3
v -10 0 -3
v -10 0 -5
v -10 2 5
v -10 2 3
v -10 2 -3
v -10 2 -5
v -1 3 5
v -1 3 1
v -1 3 -1
v -1 3 -5
v -1 5 5
v -1 5 4
v -1 5 2
v -1 5 1
v -1 5 -1
v -1 5 -2
v -1 5 -4
v -1 5 -5
v -1 6 4
v -1 6 2
v -1 6 -2
v -1 6 -4
v 12 0 5
v 12 0 3
v 12 0 -3
v 12 0 -5
v 12 2 6
v 12 2 5
v 12 2 3
v 12 2 -3
v 12 2 -5
v 12 2 -6
v 12 5 4
v 12 5 2
v 12 5 -2
v 12 5 -4
v 12 6 5
v 12 6 4
v 12 6 2
v 12 6 1
v 12 6 -1
v 12 6 -2
v 12 6 -4
v 12 6 -5
v 12 7 -1
v 12 7 -2
v 12 8 -3
v 12 8 -4
v 12 8 -5
v 12 9 -1
v 12 9 -2
v 12 9 -3
v 12 9 -4
v 12 9 -5
v 12 10 5
v 12 10 4
v 12 10 2
v 12 10 1
v 12 10 -1
v 12 10 -2
v 12 10 -4
v 12 10 -5
v 12 11 4
v 12 11 2
v 12 11 -2
v 12 11 -4
v 12 14 6
v 12 14 -6
v -12 2 6
v -12 14 6
v -11 3 6
v -11 9 6
v -11 10 6
v -11 14 6
v 11 3 6
v 11 9 6
v 11 10 6
v 11 14 6
v 12 2 6
v 12 14 6
v -12 0 5
v -12 2 5
v -11 3 5
v -11 5 5
v -10 0 5
v -10 2 5
v -1 3 5
v -1 5 5
v 1 3 5
v 1 5 5
v 10 0 5
v 10 2 5
v 11 3 5
v 11 5 5
v 12 0 5
v 12 2 5
v -11 5 4
v -11 6 4
v -1 5 4
v -1 6 4
v 1 5 4
v 1 6 4
v 11 5 4
v 11 6 4
v -11 3 -1
v -11 5 -1
v -1 3 -1
v -1 5 -1
v 0 10 -1
v 0 12 -1
v 1 3 -1
v 1 5 -1
v 11 3 -1
v 11 5 -1
v 11 10 -1
v 11 12 -1
v -11 5 -2
v -11 6 -2
v -1 5 -2
v -1 6 -2
v 0 12 -2
v 0 13 -2
v 1 5 -2
v 1 6 -2
v 11 5 -2
v 11 6 -2
v 11 12 -2
v 11 13 -2
v -12 0 -3
v -12 2 -3
v -10 0 -3
v -10 2 -3
v 10 0 -3
v 10 2 -3
v 12 0 -3
v 12 2 -3
v -12 0 3
v -12 2 3
v -10 0 3
v -10 2 3
v 10 0 3
v 10 2 3
v 12 0 3
v 12 2 3
v -11 5 2
v -11 6 2
v -1 5 2
v -1 6 2
v 1 5 2
v 1 6 2
v 11 5 2
v 11 6 2
v -11 3 1
v -11 5 1
v -1 3 1
v -1 5 1
v 1 3 1
v 1 5 1
v 11 3 1
v 11 5 1
v -11 5 -4
v -11 6 -4
v -1 5 -4
v -1 6 -4
v 0 12 -4
v 0 13 -4
v 1 5 -4
v 1 6 -4
v 11 5 -4
v 11 6 -4
v 11 12 -4
v 11 13 -4
v -12 0 -5
v -12 2 -5
v -11 3 -5
v -11 5 -5
v -10 0 -5
v -10 2 -5
v -1 3 -5
v -1 5 -5
v 0 10 -5
v 0 12 -5
v 1 3 -5
v 1 5 -5
v 10 0 -5
v 10 2 -5
v 11 3 -5
v 11 5 -5
v 11 10 -5
v 11 12 -5
v 12 0 -5
v 12 2 -5
v -12 2 -6
v -12 14 -6
v -11 3 -6
v -11 9 -6
v -11 10 -6
v -11 14 -6
v 11 3 -6
v 11 9 -6
v 11 10 -6
v 11 14 -6
v 12 2 -6
v 12 14 -6
v -12 0 5
v -10 0 5
v 10 0 5
v 12 0 5
v -12 0 3
v -10 0 3
v 10 0 3
v 12 0 3
v -12 0 -3
v -10 0 -3
v 10 0 -3
v 12 0 -3
v -12 0 -5
v -10 0 -5
v 10 0 -5
v 12 0 -5
v -12 2 6
v 12 2 6
v -12 2 5
v -10 2 5
v 10 2 5
v 12 2 5
v -12 2 3
v -10 2 3
v 10 2 3
v 12 2 3
v -12 2 -3
v -10 2 -3
v 10 2 -3
v 12 2 -3
v -12 2 -5
v -10 2 -5
v 10 2 -5
v 12 2 -5
v -12 2 -6
v 12 2 -6
v -11 9 6
v 11 9 6
v 11 9 5
v -11 9 4
v 11 9 4
v -11 9 3
v 11 9 2
v 11 9 1
v -11 9 -1
v -11 9 -2
v 11 9 -3
v -11 9 -4
v 11 9 -4
v -11 9 -5
v -11 9 -6
v 11 9 -6
v -11 3 6
v 11 3 6
v -11 3 5
v -1 3 5
v 1 3 5
v 11 3 5
v -11 3 1
v -1 3 1
v 1 3 1
v 11 3 1
v -11 3 -1
v -1 3 -1
v 1 3 -1
v 11 3 -1
v -11 3 -5
v -1 3 -5
v 1 3 -5
v 11 3 -5
v -11 3 -6
v 11 3 -6
v -11 5 5
v -1 5 5
v 1 5 5
v 11 5 5
v -11 5 4
v -1 5 4
v 1 5 4
v 11 5 4
v -11 5 2
v -1 5 2
v 1 5 2
v 11 5 2
v -11 5 1
v -1 5 1
v 1 5 1
v 11 5 1
v -11 5 -1
v -1 5 -1
v 1 5 -1
v 11 5 -1
v -11 5 -2
v -1 5 -2
v 1 5 -2
v 11 5 -2
v -11 5 -4
v -1 5 -4
v 1 5 -4
v 11 5 -4
v -11 5 -5
v -1 5 -5
v 1 5 -5
v 11 5 -5
v -11 6 4
v -1 6 4
v 1 6 4
v 11 6 4
v -11 6 2
v -1 6 2
v 1 6 2
v 11 6 2
v -11 6 -2
v -1 6 -2
v 1 6 -2
v 11 6 -2
v -11 6 -4
v -1 6 -4
v 1 6 -4
v 11 6 -4
v -11 10 6
v 11 10 6
v -11 10 4
v 11 10 4
v -11 10 2
v 11 10 2
v 0 10 -1
v 11 10 -1
v -11 10 -2
v -11 10 -4
v 0 10 -5
v 11 10 -5
v -11 10 -6
v 11 10 -6
v 0 12 -1
v 11 12 -1
v 0 12 -2
v 11 12 -2
v 0 12 -4
v 11 12 -4
v 0 12 -5
v 11 12 -5
v 0 13 -2
v 11 13 -2
v 0 13 -4
v 11 13 -4
v -12 14 6
v -11 14 6
v 11 14 6
v 12 14 6
v -12 14 -6
v -11 14 -6
v 11 14 -6
v 12 14 -6

# faces
f 6/4/1 2/4/1 1/4/1
f 7/4/1 2/4/1 6/4/1
f 8/4/1 4/4/1 3/4/1
f 9/4/1 4/4/1 8/4/1
f 11/2/1 7/2/1 6/2/1
f 11/2/1 10/2/1 9/2/1
f 11/2/1 9/2/1 8/2/1
f 11/2/1 8/2/1 7/2/1
f 11/2/1 6/2/1 5/2/1
f 12/2/1 10/2/1 11/2/1
f 13/2/1 10/2/1 12/2/1
f 14/2/1 10/2/1 13/2/1
f 15/2/1 11/2/1 5/2/1
f 16/1/1 12/1/1 11/1/1
f 16/2/1 11/2/1 15/2/1
f 17/2/1 13/2/1 12/2/1
f 17/1/1 12/1/1 16/1/1
f 18/2/1 13/2/1 17/2/1
f 19/2/1 13/2/1 18/2/1
f 20/1/1 14/1/1 13/1/1
f 20/2/1 13/2/1 19/2/1
f 21/2/1 10/2/1 14/2/1
f 21/1/1 14/1/1 20/1/1
f 22/2/1 10/2/1 21/2/1
f 23/2/1 17/2/1 16/2/1
f 23/1/1 18/1/1 17/1/1
f 24/2/1 19/2/1 18/2/1
f 24/1/1 18/1/1 23/1/1
f 25/2/1 15/2/1 5/2/1
f 25/1/1 16/1/1 15/1/1
f 26/2/1 24/2/1 23/2/1
f 26/1/1 16/1/1 25/1/1
f 26/2/1 23/2/1 16/2/1
f 27/2/1 24/2/1 26/2/1
f 28/2/1 25/2/1 5/2/1
f 28/2/1 26/2/1 25/2/1
f 29/1/1 27/1/1 26/1/1
f 29/2/1 26/2/1 28/2/1
f 30/2/1 24/2/1 27/2/1
f 30/1/1 27/1/1 29/1/1
f 31/2/1 24/2/1 30/2/1
f 32/2/1 19/2/1 24/2/1
f 32/2/1 24/2/1 31/2/1
f 33/1/1 29/1/1 28/1/1
f 33/2/1 28/2/1 5/2/1
f 34/2/1 31/2/1 30/2/1
f 34/1/1 29/1/1 33/1/1
f 34/2/1 30/2/1 29/2/1
f 35/1/1 32/1/1 31/1/1
f 35/2/1 31/2/1 34/2/1
f 36/2/1 19/2/1 32/2/1
f 36/1/1 32/1/1 35/1/1
f 37/1/1 20/1/1 19/1/1
f 37/2/1 19/2/1 36/2/1
f 38/2/1 21/2/1 20/2/1
f 38/1/1 20/1/1 37/1/1
f 39/1/1 22/1/1 21/1/1
f 39/2/1 21/2/1 38/2/1
f 40/2/1 10/2/1 22/2/1
f 40/1/1 22/1/1 39/1/1
f 41/1/1 35/1/1 34/1/1
f 41/2/1 34/2/1 33/2/1
f 42/2/1 36/2/1 35/2/1
f 42/1/1 35/1/1 41/1/1
f 42/2/1 37/2/1 36/2/1
f 42/2/1 38/2/1 37/2/1
f 43/1/1 39/1/1 38/1/1
f 43/2/1 38/2/1 42/2/1
f 44/2/1 40/2/1 39/2/1
f 44/1/1 39/1/1 43/1/1
f 45/2/1 41/2/1 33/2/1
f 45/2/1 33/2/1 5/2/1
f 45/2/1 44/2/1 43/2/1
f 45/2/1 42/2/1 41/2/1
f 45/2/1 43/2/1 42/2/1
f 46/2/1 40/2/1 44/2/1
f 46/2/1 44/2/1 45/2/1
f 46/2/1 10/2/1 40/2/1
f 49/3/1 48/3/1 47/3/1
f 50/3/1 48/3/1 49/3/1
f 51/3/1 48/3/1 50/3/1
f 52/3/1 48/3/1 51/3/1
f 53/3/1 51/3/1 50/3/1
f 54/3/1 51/3/1 53/3/1
f 59/3/1 56/3/1 55/3/1
f 60/3/1 56/3/1 59/3/1
f 61/3/1 56/3/1 60/3/1
f 62/3/1 56/3/1 61/3/1
f 63/3/1 58/3/1 57/3/1
f 64/3/1 58/3/1 63/3/1
f 65/3/1 58/3/1 64/3/1
f 66/3/1 58/3/1 65/3/1
f 67/3/1 61/3/1 60/3/1
f 68/3/1 61/3/1 67/3/1
f 69/3/1 65/3/1 64/3/1
f 70/3/1 65/3/1 69/3/1
f 75/4/1 72/4/1 71/4/1
f 76/4/1 72/4/1 75/4/1
f 77/4/1 74/4/1 73/4/1
f 78/4/1 74/4/1 77/4/1
f 85/2/1 80/2/1 79/2/1
f 88/2/1 82/2/1 81/2/1
f 89/2/1 82/2/1 88/2/1
f 92/2/1 84/2/1 83/2/1
f 93/2/1 86/2/1 85/2/1
f 93/2/1 85/2/1 79/2/1
f 94/2/1 86/2/1 93/2/1
f 95/2/1 90/2/1 89/2/1
f 95/2/1 88/2/1 87/2/1
f 95/2/1 89/2/1 88/2/1
f 96/2/1 90/2/1 95/2/1
f 97/2/1 90/2/1 96/2/1
f 98/2/1 90/2/1 97/2/1
f 99/2/1 92/2/1 91/2/1
f 100/2/1 84/2/1 92/2/1
f 100/2/1 92/2/1 99/2/1
f 101/1/1 98/1/1 97/1/1
f 101/2/1 97/2/1 96/2/1
f 102/2/1 99/2/1 98/2/1
f 102/1/1 98/1/1 101/1/1
f 103/2/1 102/2/1 101/2/1
f 103/2/1 99/2/1 102/2/1
f 104/1/1 100/1/1 99/1/1
f 104/2/1 99/2/1 103/2/1
f 105/2/1 84/2/1 100/2/1
f 105/1/1 100/1/1 104/1/1
f 106/2/1 93/2/1 79/2/1
f 107/1/1 94/1/1 93/1/1
f 107/2/1 93/2/1 106/2/1
f 108/2/1 95/2/1 94/2/1
f 108/1/1 94/1/1 107/1/1
f 109/1/1 96/1/1 95/1/1
f 109/2/1 95/2/1 108/2/1
f 110/2/1 101/2/1 96/2/1
f 110/1/1 96/1/1 109/1/1
f 110/2/1 103/2/1 101/2/1
f 111/1/1 104/1/1 103/1/1
f 111/2/1 103/2/1 110/2/1
f 112/2/1 105/2/1 104/2/1
f 112/1/1 104/1/1 111/1/1
f 113/2/1 84/2/1 105/2/1
f 113/2/1 105/2/1 112/2/1
f 120/2/1 115/2/1 114/2/1
f 120/1/1 116/1/1 115/1/1
f 121/2/1 117/2/1 116/2/1
f 121/1/1 116/1/1 120/1/1
f 122/2/1 121/2/1 120/2/1
f 122/2/1 117/2/1 121/2/1
f 125/2/1 119/2/1 118/2/1
f 126/2/1 123/2/1 122/2/1
f 127/2/1 125/2/1 124/2/1
f 128/2/1 126/2/1 122/2/1
f 128/2/1 127/2/1 126/2/1
f 128/2/1 120/2/1 114/2/1
f 128/2/1 122/2/1 120/2/1
f 129/2/1 125/2/1 127/2/1
f 129/2/1 127/2/1 128/2/1
f 129/2/1 119/2/1 125/2/1
f 130/2/2 131/2/2 136/2/2
f 132/2/2 133/2/2 139/2/2
f 139/2/2 133/2/2 140/2/2
f 134/2/2 135/2/2 143/2/2
f 136/2/2 137/2/2 144/2/2
f 130/2/2 136/2/2 144/2/2
f 144/2/2 137/2/2 145/2/2
f 140/2/2 141/2/2 146/2/2
f 138/2/2 139/2/2 146/2/2
f 139/2/2 140/2/2 146/2/2
f 146/2/2 141/2/2 147/2/2
f 147/2/2 141/2/2 148/2/2
f 148/2/2 141/2/2 149/2/2
f 142/2/2 143/2/2 150/2/2
f 143/2/2 135/2/2 151/2/2
f 150/2/2 143/2/2 151/2/2
f 145/2/2 146/2/2 152/2/2
f 146/1/2 147/1/2 152/1/2
f 147/2/2 148/2/2 153/2/2
f 152/1/2 147/1/2 153/1/2
f 144/1/2 145/1/2 154/1/2
f 130/2/2 144/2/2 154/2/2
f 152/2/2 153/2/2 155/2/2
f 154/1/2 145/1/2 155/1/2
f 145/2/2 152/2/2 155/2/2
f 155/2/2 153/2/2 156/2/2
f 130/2/2 154/2/2 157/2/2
f 154/2/2 155/2/2 157/2/2
f 155/1/2 156/1/2 158/1/2
f 157/2/2 155/2/2 158/2/2
f 156/2/2 153/2/2 159/2/2
f 158/1/2 156/1/2 159/1/2
f 153/2/2 148/2/2 160/2/2
f 159/2/2 153/2/2 160/2/2
f 148/1/2 149/1/2 160/1/2
f 149/2/2 150/2/2 161/2/2
f 160/1/2 149/1/2 161/1/2
f 150/1/2 151/1/2 162/1/2
f 161/2/2 150/2/2 162/2/2
f 151/2/2 135/2/2 163/2/2
f 162/1/2 151/1/2 163/1/2
f 163/2/2 135/2/2 164/2/2
f 165/2/2 166/2/2 171/2/2
f 166/1/2 167/1/2 171/1/2
f 167/2/2 168/2/2 172/2/2
f 171/1/2 167/1/2 172/1/2
f 168/1/2 169/1/2 173/1/2
f 172/2/2 168/2/2 173/2/2
f 169/2/2 170/2/2 174/2/2
f 173/1/2 169/1/2 174/1/2
f 172/2/2 173/2/2 175/2/2
f 171/2/2 172/2/2 175/2/2
f 173/2/2 174/2/2 175/2/2
f 165/2/2 171/2/2 175/2/2
f 174/2/2 170/2/2 176/2/2
f 175/2/2 174/2/2 176/2/2
f 177/4/2 178/4/2 181/4/2
f 181/4/2 178/4/2 182/4/2
f 179/4/2 180/4/2 183/4/2
f 183/4/2 180/4/2 184/4/2
f 185/3/2 186/3/2 189/3/2
f 189/3/2 186/3/2 190/3/2
f 190/3/2 186/3/2 191/3/2
f 191/3/2 186/3/2 192/3/2
f 187/3/2 188/3/2 193/3/2
f 193/3/2 188/3/2 194/3/2
f 194/3/2 188/3/2 195/3/2
f 195/3/2 188/3/2 196/3/2
f 190/3/2 191/3/2 197/3/2
f 197/3/2 191/3/2 198/3/2
f 194/3/2 195/3/2 199/3/2
f 199/3/2 195/3/2 200/3/2
f 201/4/2 202/4/2 206/4/2
f 206/4/2 202/4/2 207/4/2
f 203/4/2 204/4/2 208/4/2
f 208/4/2 204/4/2 209/4/2
f 206/2/2 207/2/2 211/2/2
f 209/2/2 210/2/2 211/2/2
f 208/2/2 209/2/2 211/2/2
f 207/2/2 208/2/2 211/2/2
f 205/2/2 206/2/2 211/2/2
f 211/2/2 210/2/2 212/2/2
f 212/2/2 210/2/2 213/2/2
f 213/2/2 210/2/2 214/2/2
f 205/2/2 211/2/2 215/2/2
f 211/1/2 212/1/2 216/1/2
f 215/2/2 211/2/2 216/2/2
f 212/2/2 213/2/2 217/2/2
f 216/1/2 212/1/2 217/1/2
f 217/2/2 213/2/2 218/2/2
f 218/2/2 213/2/2 219/2/2
f 213/1/2 214/1/2 220/1/2
f 219/2/2 213/2/2 220/2/2
f 214/2/2 210/2/2 221/2/2
f 220/1/2 214/1/2 221/1/2
f 221/2/2 210/2/2 222/2/2
f 219/1/2 220/1/2 223/1/2
f 218/2/2 219/2/2 223/2/2
f 220/2/2 221/2/2 224/2/2
f 223/1/2 220/1/2 224/1/2
f 223/2/2 224/2/2 225/2/2
f 224/2/2 221/2/2 225/2/2
f 221/1/2 222/1/2 226/1/2
f 225/2/2 221/2/2 226/2/2
f 222/2/2 210/2/2 227/2/2
f 226/1/2 222/1/2 227/1/2
f 223/2/2 225/2/2 228/2/2
f 218/2/2 223/2/2 228/2/2
f 228/2/2 225/2/2 229/2/2
f 225/1/2 226/1/2 230/1/2
f 229/2/2 225/2/2 230/2/2
f 226/2/2 227/2/2 231/2/2
f 230/1/2 226/1/2 231/1/2
f 227/2/2 210/2/2 232/2/2
f 231/2/2 227/2/2 232/2/2
f 205/2/2 215/2/2 233/2/2
f 215/1/2 216/1/2 233/1/2
f 216/2/2 217/2/2 234/2/2
f 233/1/2 216/1/2 234/1/2
f 217/1/2 218/1/2 235/1/2
f 234/2/2 217/2/2 235/2/2
f 218/2/2 228/2/2 236/2/2
f 235/1/2 218/1/2 236/1/2
f 228/1/2 229/1/2 237/1/2
f 236/2/2 228/2/2 237/2/2
f 230/2/2 231/2/2 238/2/2
f 237/1/2 229/1/2 238/1/2
f 229/2/2 230/2/2 238/2/2
f 231/1/2 232/1/2 239/1/2
f 238/2/2 231/2/2 239/2/2
f 232/2/2 210/2/2 240/2/2
f 239/1/2 232/1/2 240/1/2
f 233/2/2 234/2/2 241/2/2
f 234/1/2 235/1/2 241/1/2
f 235/2/2 236/2/2 242/2/2
f 241/1/2 235/1/2 242/1/2
f 237/2/2 238/2/2 242/2/2
f 236/2/2 237/2/2 242/2/2
f 238/1/2 239/1/2 243/1/2
f 242/2/2 238/2/2 243/2/2
f 239/2/2 240/2/2 244/2/2
f 243/1/2 239/1/2 244/1/2
f 233/2/2 241/2/2 245/2/2
f 241/2/2 242/2/2 245/2/2
f 243/2/2 244/2/2 245/2/2
f 205/2/2 233/2/2 245/2/2
f 242/2/2 243/2/2 245/2/2
f 244/2/2 240/2/2 246/2/2
f 245/2/2 244/2/2 246/2/2
f 240/2/2 210/2/2 246/2/2
f 249/2/3 248/2/3 247/2/3
f 250/2/3 248/2/3 249/2/3
f 251/2/3 248/2/3 250/2/3
f 252/2/3 248/2/3 251/2/3
f 253/2/3 249/2/3 247/2/3
f 254/2/3 251/2/3 250/2/3
f 255/2/3 251/2/3 254/2/3
f 257/2/3 253/2/3 247/2/3
f 257/2/3 256/2/3 255/2/3
f 257/2/3 255/2/3 254/2/3
f 257/2/3 254/2/3 253/2/3
f 258/2/3 256/2/3 257/2/3
f 263/4/3 260/4/3 259/4/3
f 264/4/3 260/4/3 263/4/3
f 265/3/3 262/3/3 261/3/3
f 266/3/3 262/3/3 265/3/3
f 271/3/3 268/3/3 267/3/3
f 272/3/3 268/3/3 271/3/3
f 273/4/3 270/4/3 269/4/3
f 274/4/3 270/4/3 273/4/3
f 277/3/3 276/3/3 275/3/3
f 278/3/3 276/3/3 277/3/3
f 281/3/3 280/3/3 279/3/3
f 282/3/3 280/3/3 281/3/3
f 285/3/3 284/3/3 283/3/3
f 286/3/3 284/3/3 285/3/3
f 291/3/3 290/3/3 289/3/3
f 292/3/3 290/3/3 291/3/3
f 293/3/3 288/3/3 287/3/3
f 294/3/3 288/3/3 293/3/3
f 297/3/3 296/3/3 295/3/3
f 298/3/3 296/3/3 297/3/3
f 303/3/3 302/3/3 301/3/3
f 304/3/3 302/3/3 303/3/3
f 305/3/3 300/3/3 299/3/3
f 306/3/3 300/3/3 305/3/3
f 309/4/3 308/4/3 307/4/3
f 310/4/3 308/4/3 309/4/3
f 313/4/3 312/4/3 311/4/3
f 314/4/3 312/4/3 313/4/3
f 315/4/4 316/4/4 317/4/4
f 317/4/4 316/4/4 318/4/4
f 319/4/4 320/4/4 321/4/4
f 321/4/4 320/4/4 322/4/4
f 323/3/4 324/3/4 325/3/4
f 325/3/4 324/3/4 326/3/4
f 327/3/4 328/3/4 329/3/4
f 329/3/4 328/3/4 330/3/4
f 331/3/4 332/3/4 333/3/4
f 333/3/4 332/3/4 334/3/4
f 335/3/4 336/3/4 337/3/4
f 337/3/4 336/3/4 338/3/4
f 339/3/4 340/3/4 341/3/4
f 341/3/4 340/3/4 342/3/4
f 345/3/4 346/3/4 347/3/4
f 347/3/4 346/3/4 348/3/4
f 343/3/4 344/3/4 349/3/4
f 349/3/4 344/3/4 350/3/4
f 351/4/4 352/4/4 355/4/4
f 355/4/4 352/4/4 356/4/4
f 353/3/4 354/3/4 357/3/4
f 357/3/4 354/3/4 358/3/4
f 361/3/4 362/3/4 365/3/4
f 365/3/4 362/3/4 366/3/4
f 359/3/4 360/3/4 367/3/4
f 367/3/4 360/3/4 368/3/4
f 363/4/4 364/4/4 369/4/4
f 369/4/4 364/4/4 370/4/4
f 371/2/4 372/2/4 373/2/4
f 373/2/4 372/2/4 374/2/4
f 374/2/4 372/2/4 375/2/4
f 375/2/4 372/2/4 376/2/4
f 371/2/4 373/2/4 377/2/4
f 374/2/4 375/2/4 378/2/4
f 378/2/4 375/2/4 379/2/4
f 371/2/4 377/2/4 381/2/4
f 379/2/4 380/2/4 381/2/4
f 378/2/4 379/2/4 381/2/4
f 377/2/4 378/2/4 381/2/4
f 381/2/4 380/2/4 382/2/4
f 387/4/5 384/4/5 383/4/5
f 388/4/5 384/4/5 387/4/5
f 389/4/5 386/4/5 385/4/5
f 390/4/5 386/4/5 389/4/5
f 395/4/5 392/4/5 391/4/5
f 396/4/5 392/4/5 395/4/5
f 397/4/5 394/4/5 393/4/5
f 398/4/5 394/4/5 397/4/5
f 401/2/5 400/2/5 399/2/5
f 402/2/5 400/2/5 401/2/5
f 403/2/5 400/2/5 402/2/5
f 404/2/5 400/2/5 403/2/5
f 406/2/5 403/2/5 402/2/5
f 407/2/5 403/2/5 406/2/5
f 409/2/5 406/2/5 405/2/5
f 409/2/5 408/2/5 407/2/5
f 409/2/5 407/2/5 406/2/5
f 410/2/5 408/2/5 409/2/5
f 411/2/5 408/2/5 410/2/5
f 412/2/5 408/2/5 411/2/5
f 414/2/5 411/2/5 410/2/5
f 415/2/5 411/2/5 414/2/5
f 417/2/5 414/2/5 413/2/5
f 417/2/5 416/2/5 415/2/5
f 417/2/5 415/2/5 414/2/5
f 418/2/5 416/2/5 417/2/5
f 421/2/5 420/2/5 419/2/5
f 422/2/5 421/2/5 419/2/5
f 423/2/5 421/2/5 422/2/5
f 424/2/5 423/2/5 422/2/5
f 425/2/5 423/2/5 424/2/5
f 426/2/5 425/2/5 424/2/5
f 427/2/5 426/2/5 424/2/5
f 428/2/5 426/2/5 427/2/5
f 429/2/5 426/2/5 428/2/5
f 430/2/5 429/2/5 428/2/5
f 431/2/5 429/2/5 430/2/5
f 432/2/5 431/2/5 430/2/5
f 433/2/5 431/2/5 432/2/5
f 434/2/5 431/2/5 433/2/5
f 435/2/6 436/2/6 437/2/6
f 437/2/6 436/2/6 438/2/6
f 438/2/6 436/2/6 439/2/6
f 439/2/6 436/2/6 440/2/6
f 438/2/6 439/2/6 442/2/6
f 442/2/6 439/2/6 443/2/6
f 441/2/6 442/2/6 445/2/6
f 443/2/6 444/2/6 445/2/6
f 442/2/6 443/2/6 445/2/6
f 445/2/6 444/2/6 446/2/6
f 446/2/6 444/2/6 447/2/6
f 447/2/6 444/2/6 448/2/6
f 446/2/6 447/2/6 450/2/6
f 450/2/6 447/2/6 451/2/6
f 449/2/6 450/2/6 453/2/6
f 451/2/6 452/2/6 453/2/6
f 450/2/6 451/2/6 453/2/6
f 453/2/6 452/2/6 454/2/6
f 455/3/6 456/3/6 459/3/6
f 459/3/6 456/3/6 460/3/6
f 457/3/6 458/3/6 461/3/6
f 461/3/6 458/3/6 462/3/6
f 463/3/6 464/3/6 467/3/6
f 467/3/6 464/3/6 468/3/6
f 465/3/6 466/3/6 469/3/6
f 469/3/6 466/3/6 470/3/6
f 471/3/6 472/3/6 475/3/6
f 475/3/6 472/3/6 476/3/6
f 473/3/6 474/3/6 477/3/6
f 477/3/6 474/3/6 478/3/6
f 479/3/6 480/3/6 483/3/6
f 483/3/6 480/3/6 484/3/6
f 481/3/6 482/3/6 485/3/6
f 485/3/6 482/3/6 486/3/6
f 487/3/6 488/3/6 491/3/6
f 491/3/6 488/3/6 492/3/6
f 489/3/6 490/3/6 493/3/6
f 493/3/6 490/3/6 494/3/6
f 495/3/6 496/3/6 499/3/6
f 499/3/6 496/3/6 500/3/6
f 497/3/6 498/3/6 501/3/6
f 501/3/6 498/3/6 502/3/6
f 503/2/6 504/2/6 505/2/6
f 505/2/6 504/2/6 506/2/6
f 505/2/6 506/2/6 507/2/6
f 507/2/6 506/2/6 508/2/6
f 507/2/6 508/2/6 509/2/6
f 509/2/6 508/2/6 510/2/6
f 507/2/6 509/2/6 511/2/6
f 511/2/6 509/2/6 512/2/6
f 512/2/6 509/2/6 513/2/6
f 512/2/6 513/2/6 515/2/6
f 513/2/6 514/2/6 515/2/6
f 515/2/6 514/2/6 516/2/6
f 517/3/6 518/3/6 519/3/6
f 519/3/6 518/3/6 520/3/6
f 521/3/6 522/3/6 523/3/6
f 523/3/6 522/3/6 524/3/6
f 525/3/6 526/3/6 527/3/6
f 527/3/6 526/3/6 528/3/6
f 529/2/6 530/2/6 533/2/6
f 533/2/6 530/2/6 534/2/6
f 531/2/6 532/2/6 535/2/6
f 535/2/6 532/2/6 536/2/6
