# MagicaVoxel @ Ephtracy

# group
g Menu Scene 03-15

# material
mtllib Menu Scene 03-15.mtl
usemtl palette

# normals
vn -1 0 0
vn 1 0 0
vn 0 0 1
vn 0 0 -1
vn 0 -1 0
vn 0 1 0

# texcoords
vt 0.974609 0.5
vt 0.978516 0.5

# verts
v -32 0 -17
v -32 0 -32
v -32 2 -17
v -32 2 -18
v -32 2 -19
v -32 2 -20
v -32 56 -19
v -32 56 -20
v -32 62 -17
v -32 62 -18
v -32 64 -17
v -32 64 -32
v -24 5 -18
v -24 5 -19
v -24 8 -18
v -24 8 -19
v -24 9 -18
v -24 9 -19
v -24 12 -18
v -24 12 -19
v -24 13 -18
v -24 13 -19
v -24 16 -18
v -24 16 -19
v -24 17 -18
v -24 17 -19
v -24 20 -18
v -24 20 -19
v -24 21 -18
v -24 21 -19
v -24 24 -18
v -24 24 -19
v -24 25 -18
v -24 25 -19
v -24 28 -18
v -24 28 -19
v -24 29 -18
v -24 29 -19
v -24 32 -18
v -24 32 -19
v -24 33 -18
v -24 33 -19
v -24 36 -18
v -24 36 -19
v -24 37 -18
v -24 37 -19
v -24 40 -18
v -24 40 -19
v -24 41 -18
v -24 41 -19
v -24 44 -18
v -24 44 -19
v -24 45 -18
v -24 45 -19
v -24 48 -18
v -24 48 -19
v -24 49 -18
v -24 49 -19
v -24 52 -18
v -24 52 -19
v -24 53 -18
v -24 53 -19
v -24 56 -18
v -24 56 -19
v -16 2 -17
v -16 2 -18
v -16 5 -18
v -16 5 -19
v -16 8 -18
v -16 8 -19
v -16 9 -18
v -16 9 -19
v -16 12 -18
v -16 12 -19
v -16 13 -18
v -16 13 -19
v -16 16 -18
v -16 16 -19
v -16 17 -18
v -16 17 -19
v -16 20 -18
v -16 20 -19
v -16 21 -18
v -16 21 -19
v -16 24 -18
v -16 24 -19
v -16 25 -18
v -16 25 -19
v -16 28 -18
v -16 28 -19
v -16 29 -18
v -16 29 -19
v -16 32 -18
v -16 32 -19
v -16 33 -18
v -16 33 -19
v -16 36 -18
v -16 36 -19
v -16 37 -18
v -16 37 -19
v -16 40 -18
v -16 40 -19
v -16 41 -18
v -16 41 -19
v -16 44 -18
v -16 44 -19
v -16 45 -18
v -16 45 -19
v -16 48 -18
v -16 48 -19
v -16 49 -18
v -16 49 -19
v -16 52 -18
v -16 52 -19
v -16 53 -18
v -16 53 -19
v -16 56 -18
v -16 56 -19
v -16 62 -17
v -16 62 -18
v -31 5 -18
v -31 5 -19
v -31 8 -18
v -31 8 -19
v -31 9 -18
v -31 9 -19
v -31 12 -18
v -31 12 -19
v -31 13 -18
v -31 13 -19
v -31 16 -18
v -31 16 -19
v -31 17 -18
v -31 17 -19
v -31 20 -18
v -31 20 -19
v -31 21 -18
v -31 21 -19
v -31 24 -18
v -31 24 -19
v -31 25 -18
v -31 25 -19
v -31 28 -18
v -31 28 -19
v -31 29 -18
v -31 29 -19
v -31 32 -18
v -31 32 -19
v -31 33 -18
v -31 33 -19
v -31 36 -18
v -31 36 -19
v -31 37 -18
v -31 37 -19
v -31 40 -18
v -31 40 -19
v -31 41 -18
v -31 41 -19
v -31 44 -18
v -31 44 -19
v -31 45 -18
v -31 45 -19
v -31 48 -18
v -31 48 -19
v -31 49 -18
v -31 49 -19
v -31 52 -18
v -31 52 -19
v -31 53 -18
v -31 53 -19
v -31 56 -18
v -31 56 -19
v -23 5 -18
v -23 5 -19
v -23 8 -18
v -23 8 -19
v -23 9 -18
v -23 9 -19
v -23 12 -18
v -23 12 -19
v -23 13 -18
v -23 13 -19
v -23 16 -18
v -23 16 -19
v -23 17 -18
v -23 17 -19
v -23 20 -18
v -23 20 -19
v -23 21 -18
v -23 21 -19
v -23 24 -18
v -23 24 -19
v -23 25 -18
v -23 25 -19
v -23 28 -18
v -23 28 -19
v -23 29 -18
v -23 29 -19
v -23 32 -18
v -23 32 -19
v -23 33 -18
v -23 33 -19
v -23 36 -18
v -23 36 -19
v -23 37 -18
v -23 37 -19
v -23 40 -18
v -23 40 -19
v -23 41 -18
v -23 41 -19
v -23 44 -18
v -23 44 -19
v -23 45 -18
v -23 45 -19
v -23 48 -18
v -23 48 -19
v -23 49 -18
v -23 49 -19
v -23 52 -18
v -23 52 -19
v -23 53 -18
v -23 53 -19
v -23 56 -18
v -23 56 -19
v -14 0 -17
v -14 0 -32
v -14 64 -17
v -14 64 -32
v -32 0 -17
v -32 2 -17
v -32 62 -17
v -32 64 -17
v -16 2 -17
v -16 62 -17
v -14 0 -17
v -14 64 -17
v -32 2 -18
v -32 62 -18
v -31 5 -18
v -31 8 -18
v -31 9 -18
v -31 12 -18
v -31 13 -18
v -31 16 -18
v -31 17 -18
v -31 20 -18
v -31 21 -18
v -31 24 -18
v -31 25 -18
v -31 28 -18
v -31 29 -18
v -31 32 -18
v -31 33 -18
v -31 36 -18
v -31 37 -18
v -31 40 -18
v -31 41 -18
v -31 44 -18
v -31 45 -18
v -31 48 -18
v -31 49 -18
v -31 52 -18
v -31 53 -18
v -31 56 -18
v -24 5 -18
v -24 8 -18
v -24 9 -18
v -24 12 -18
v -24 13 -18
v -24 16 -18
v -24 17 -18
v -24 20 -18
v -24 21 -18
v -24 24 -18
v -24 25 -18
v -24 28 -18
v -24 29 -18
v -24 32 -18
v -24 33 -18
v -24 36 -18
v -24 37 -18
v -24 40 -18
v -24 41 -18
v -24 44 -18
v -24 45 -18
v -24 48 -18
v -24 49 -18
v -24 52 -18
v -24 53 -18
v -24 56 -18
v -23 5 -18
v -23 8 -18
v -23 9 -18
v -23 12 -18
v -23 13 -18
v -23 16 -18
v -23 17 -18
v -23 20 -18
v -23 21 -18
v -23 24 -18
v -23 25 -18
v -23 28 -18
v -23 29 -18
v -23 32 -18
v -23 33 -18
v -23 36 -18
v -23 37 -18
v -23 40 -18
v -23 41 -18
v -23 44 -18
v -23 45 -18
v -23 48 -18
v -23 49 -18
v -23 52 -18
v -23 53 -18
v -23 56 -18
v -16 2 -18
v -16 5 -18
v -16 8 -18
v -16 9 -18
v -16 12 -18
v -16 13 -18
v -16 16 -18
v -16 17 -18
v -16 20 -18
v -16 21 -18
v -16 24 -18
v -16 25 -18
v -16 28 -18
v -16 29 -18
v -16 32 -18
v -16 33 -18
v -16 36 -18
v -16 37 -18
v -16 40 -18
v -16 41 -18
v -16 44 -18
v -16 45 -18
v -16 48 -18
v -16 49 -18
v -16 52 -18
v -16 53 -18
v -16 56 -18
v -16 62 -18
v -31 5 -19
v -31 8 -19
v -31 9 -19
v -31 12 -19
v -31 13 -19
v -31 16 -19
v -31 17 -19
v -31 20 -19
v -31 21 -19
v -31 24 -19
v -31 25 -19
v -31 28 -19
v -31 29 -19
v -31 32 -19
v -31 33 -19
v -31 36 -19
v -31 37 -19
v -31 40 -19
v -31 41 -19
v -31 44 -19
v -31 45 -19
v -31 48 -19
v -31 49 -19
v -31 52 -19
v -31 53 -19
v -31 56 -19
v -24 5 -19
v -24 8 -19
v -24 9 -19
v -24 12 -19
v -24 13 -19
v -24 16 -19
v -24 17 -19
v -24 20 -19
v -24 21 -19
v -24 24 -19
v -24 25 -19
v -24 28 -19
v -24 29 -19
v -24 32 -19
v -24 33 -19
v -24 36 -19
v -24 37 -19
v -24 40 -19
v -24 41 -19
v -24 44 -19
v -24 45 -19
v -24 48 -19
v -24 49 -19
v -24 52 -19
v -24 53 -19
v -24 56 -19
v -23 5 -19
v -23 8 -19
v -23 9 -19
v -23 12 -19
v -23 13 -19
v -23 16 -19
v -23 17 -19
v -23 20 -19
v -23 21 -19
v -23 24 -19
v -23 25 -19
v -23 28 -19
v -23 29 -19
v -23 32 -19
v -23 33 -19
v -23 36 -19
v -23 37 -19
v -23 40 -19
v -23 41 -19
v -23 44 -19
v -23 45 -19
v -23 48 -19
v -23 49 -19
v -23 52 -19
v -23 53 -19
v -23 56 -19
v -16 5 -19
v -16 8 -19
v -16 9 -19
v -16 12 -19
v -16 13 -19
v -16 16 -19
v -16 17 -19
v -16 20 -19
v -16 21 -19
v -16 24 -19
v -16 25 -19
v -16 28 -19
v -16 29 -19
v -16 32 -19
v -16 33 -19
v -16 36 -19
v -16 37 -19
v -16 40 -19
v -16 41 -19
v -16 44 -19
v -16 45 -19
v -16 48 -19
v -16 49 -19
v -16 52 -19
v -16 53 -19
v -16 56 -19
v -32 0 -32
v -32 64 -32
v -14 0 -32
v -14 64 -32
v -32 0 -17
v -14 0 -17
v -32 0 -32
v -14 0 -32
v -31 8 -18
v -24 8 -18
v -23 8 -18
v -16 8 -18
v -31 8 -19
v -24 8 -19
v -23 8 -19
v -16 8 -19
v -31 12 -18
v -24 12 -18
v -23 12 -18
v -16 12 -18
v -31 12 -19
v -24 12 -19
v -23 12 -19
v -16 12 -19
v -31 16 -18
v -24 16 -18
v -23 16 -18
v -16 16 -18
v -31 16 -19
v -24 16 -19
v -23 16 -19
v -16 16 -19
v -31 20 -18
v -24 20 -18
v -23 20 -18
v -16 20 -18
v -31 20 -19
v -24 20 -19
v -23 20 -19
v -16 20 -19
v -31 24 -18
v -24 24 -18
v -23 24 -18
v -16 24 -18
v -31 24 -19
v -24 24 -19
v -23 24 -19
v -16 24 -19
v -31 28 -18
v -24 28 -18
v -23 28 -18
v -16 28 -18
v -31 28 -19
v -24 28 -19
v -23 28 -19
v -16 28 -19
v -31 32 -18
v -24 32 -18
v -23 32 -18
v -16 32 -18
v -31 32 -19
v -24 32 -19
v -23 32 -19
v -16 32 -19
v -31 36 -18
v -24 36 -18
v -23 36 -18
v -16 36 -18
v -31 36 -19
v -24 36 -19
v -23 36 -19
v -16 36 -19
v -31 40 -18
v -24 40 -18
v -23 40 -18
v -16 40 -18
v -31 40 -19
v -24 40 -19
v -23 40 -19
v -16 40 -19
v -31 44 -18
v -24 44 -18
v -23 44 -18
v -16 44 -18
v -31 44 -19
v -24 44 -19
v -23 44 -19
v -16 44 -19
v -31 48 -18
v -24 48 -18
v -23 48 -18
v -16 48 -18
v -31 48 -19
v -24 48 -19
v -23 48 -19
v -16 48 -19
v -31 52 -18
v -24 52 -18
v -23 52 -18
v -16 52 -18
v -31 52 -19
v -24 52 -19
v -23 52 -19
v -16 52 -19
v -31 56 -18
v -24 56 -18
v -23 56 -18
v -16 56 -18
v -31 56 -19
v -24 56 -19
v -23 56 -19
v -16 56 -19
v -32 62 -17
v -16 62 -17
v -32 62 -18
v -16 62 -18
v -32 2 -17
v -16 2 -17
v -32 2 -18
v -16 2 -18
v -31 5 -18
v -24 5 -18
v -23 5 -18
v -16 5 -18
v -31 5 -19
v -24 5 -19
v -23 5 -19
v -16 5 -19
v -31 9 -18
v -24 9 -18
v -23 9 -18
v -16 9 -18
v -31 9 -19
v -24 9 -19
v -23 9 -19
v -16 9 -19
v -31 13 -18
v -24 13 -18
v -23 13 -18
v -16 13 -18
v -31 13 -19
v -24 13 -19
v -23 13 -19
v -16 13 -19
v -31 17 -18
v -24 17 -18
v -23 17 -18
v -16 17 -18
v -31 17 -19
v -24 17 -19
v -23 17 -19
v -16 17 -19
v -31 21 -18
v -24 21 -18
v -23 21 -18
v -16 21 -18
v -31 21 -19
v -24 21 -19
v -23 21 -19
v -16 21 -19
v -31 25 -18
v -24 25 -18
v -23 25 -18
v -16 25 -18
v -31 25 -19
v -24 25 -19
v -23 25 -19
v -16 25 -19
v -31 29 -18
v -24 29 -18
v -23 29 -18
v -16 29 -18
v -31 29 -19
v -24 29 -19
v -23 29 -19
v -16 29 -19
v -31 33 -18
v -24 33 -18
v -23 33 -18
v -16 33 -18
v -31 33 -19
v -24 33 -19
v -23 33 -19
v -16 33 -19
v -31 37 -18
v -24 37 -18
v -23 37 -18
v -16 37 -18
v -31 37 -19
v -24 37 -19
v -23 37 -19
v -16 37 -19
v -31 41 -18
v -24 41 -18
v -23 41 -18
v -16 41 -18
v -31 41 -19
v -24 41 -19
v -23 41 -19
v -16 41 -19
v -31 45 -18
v -24 45 -18
v -23 45 -18
v -16 45 -18
v -31 45 -19
v -24 45 -19
v -23 45 -19
v -16 45 -19
v -31 49 -18
v -24 49 -18
v -23 49 -18
v -16 49 -18
v -31 49 -19
v -24 49 -19
v -23 49 -19
v -16 49 -19
v -31 53 -18
v -24 53 -18
v -23 53 -18
v -16 53 -18
v -31 53 -19
v -24 53 -19
v -23 53 -19
v -16 53 -19
v -32 64 -17
v -14 64 -17
v -32 64 -32
v -14 64 -32

# faces
f 3/2/1 2/2/1 1/2/1
f 4/2/1 2/2/1 3/2/1
f 5/2/1 2/2/1 4/2/1
f 6/2/1 2/2/1 5/2/1
f 7/2/1 5/2/1 4/2/1
f 7/1/1 6/1/1 5/1/1
f 8/2/1 2/2/1 6/2/1
f 8/1/1 6/1/1 7/1/1
f 10/2/1 7/2/1 4/2/1
f 10/2/1 8/2/1 7/2/1
f 11/2/1 10/2/1 9/2/1
f 12/2/1 2/2/1 8/2/1
f 12/2/1 10/2/1 11/2/1
f 12/2/1 8/2/1 10/2/1
f 15/2/1 14/2/1 13/2/1
f 16/2/1 14/2/1 15/2/1
f 19/2/1 18/2/1 17/2/1
f 20/2/1 18/2/1 19/2/1
f 23/2/1 22/2/1 21/2/1
f 24/2/1 22/2/1 23/2/1
f 27/2/1 26/2/1 25/2/1
f 28/2/1 26/2/1 27/2/1
f 31/2/1 30/2/1 29/2/1
f 32/2/1 30/2/1 31/2/1
f 35/2/1 34/2/1 33/2/1
f 36/2/1 34/2/1 35/2/1
f 39/2/1 38/2/1 37/2/1
f 40/2/1 38/2/1 39/2/1
f 43/2/1 42/2/1 41/2/1
f 44/2/1 42/2/1 43/2/1
f 47/2/1 46/2/1 45/2/1
f 48/2/1 46/2/1 47/2/1
f 51/2/1 50/2/1 49/2/1
f 52/2/1 50/2/1 51/2/1
f 55/2/1 54/2/1 53/2/1
f 56/2/1 54/2/1 55/2/1
f 59/2/1 58/2/1 57/2/1
f 60/2/1 58/2/1 59/2/1
f 63/2/1 62/2/1 61/2/1
f 64/2/1 62/2/1 63/2/1
f 67/2/1 66/2/1 65/2/1
f 69/2/1 67/2/1 65/2/1
f 69/2/1 68/2/1 67/2/1
f 70/2/1 68/2/1 69/2/1
f 71/2/1 69/2/1 65/2/1
f 73/2/1 71/2/1 65/2/1
f 73/2/1 72/2/1 71/2/1
f 74/2/1 72/2/1 73/2/1
f 75/2/1 73/2/1 65/2/1
f 77/2/1 75/2/1 65/2/1
f 77/2/1 76/2/1 75/2/1
f 78/2/1 76/2/1 77/2/1
f 79/2/1 77/2/1 65/2/1
f 81/2/1 79/2/1 65/2/1
f 81/2/1 80/2/1 79/2/1
f 82/2/1 80/2/1 81/2/1
f 83/2/1 81/2/1 65/2/1
f 85/2/1 83/2/1 65/2/1
f 85/2/1 84/2/1 83/2/1
f 86/2/1 84/2/1 85/2/1
f 87/2/1 85/2/1 65/2/1
f 89/2/1 87/2/1 65/2/1
f 89/2/1 88/2/1 87/2/1
f 90/2/1 88/2/1 89/2/1
f 91/2/1 89/2/1 65/2/1
f 93/2/1 91/2/1 65/2/1
f 93/2/1 92/2/1 91/2/1
f 94/2/1 92/2/1 93/2/1
f 95/2/1 93/2/1 65/2/1
f 97/2/1 95/2/1 65/2/1
f 97/2/1 96/2/1 95/2/1
f 98/2/1 96/2/1 97/2/1
f 99/2/1 97/2/1 65/2/1
f 101/2/1 99/2/1 65/2/1
f 101/2/1 100/2/1 99/2/1
f 102/2/1 100/2/1 101/2/1
f 103/2/1 101/2/1 65/2/1
f 105/2/1 103/2/1 65/2/1
f 105/2/1 104/2/1 103/2/1
f 106/2/1 104/2/1 105/2/1
f 107/2/1 105/2/1 65/2/1
f 109/2/1 107/2/1 65/2/1
f 109/2/1 108/2/1 107/2/1
f 110/2/1 108/2/1 109/2/1
f 111/2/1 109/2/1 65/2/1
f 113/2/1 111/2/1 65/2/1
f 113/2/1 112/2/1 111/2/1
f 114/2/1 112/2/1 113/2/1
f 115/2/1 113/2/1 65/2/1
f 117/2/1 115/2/1 65/2/1
f 117/2/1 116/2/1 115/2/1
f 118/2/1 116/2/1 117/2/1
f 119/2/1 117/2/1 65/2/1
f 120/2/1 117/2/1 119/2/1
f 121/2/2 122/2/2 123/2/2
f 123/2/2 122/2/2 124/2/2
f 125/2/2 126/2/2 127/2/2
f 127/2/2 126/2/2 128/2/2
f 129/2/2 130/2/2 131/2/2
f 131/2/2 130/2/2 132/2/2
f 133/2/2 134/2/2 135/2/2
f 135/2/2 134/2/2 136/2/2
f 137/2/2 138/2/2 139/2/2
f 139/2/2 138/2/2 140/2/2
f 141/2/2 142/2/2 143/2/2
f 143/2/2 142/2/2 144/2/2
f 145/2/2 146/2/2 147/2/2
f 147/2/2 146/2/2 148/2/2
f 149/2/2 150/2/2 151/2/2
f 151/2/2 150/2/2 152/2/2
f 153/2/2 154/2/2 155/2/2
f 155/2/2 154/2/2 156/2/2
f 157/2/2 158/2/2 159/2/2
f 159/2/2 158/2/2 160/2/2
f 161/2/2 162/2/2 163/2/2
f 163/2/2 162/2/2 164/2/2
f 165/2/2 166/2/2 167/2/2
f 167/2/2 166/2/2 168/2/2
f 169/2/2 170/2/2 171/2/2
f 171/2/2 170/2/2 172/2/2
f 173/2/2 174/2/2 175/2/2
f 175/2/2 174/2/2 176/2/2
f 177/2/2 178/2/2 179/2/2
f 179/2/2 178/2/2 180/2/2
f 181/2/2 182/2/2 183/2/2
f 183/2/2 182/2/2 184/2/2
f 185/2/2 186/2/2 187/2/2
f 187/2/2 186/2/2 188/2/2
f 189/2/2 190/2/2 191/2/2
f 191/2/2 190/2/2 192/2/2
f 193/2/2 194/2/2 195/2/2
f 195/2/2 194/2/2 196/2/2
f 197/2/2 198/2/2 199/2/2
f 199/2/2 198/2/2 200/2/2
f 201/2/2 202/2/2 203/2/2
f 203/2/2 202/2/2 204/2/2
f 205/2/2 206/2/2 207/2/2
f 207/2/2 206/2/2 208/2/2
f 209/2/2 210/2/2 211/2/2
f 211/2/2 210/2/2 212/2/2
f 213/2/2 214/2/2 215/2/2
f 215/2/2 214/2/2 216/2/2
f 217/2/2 218/2/2 219/2/2
f 219/2/2 218/2/2 220/2/2
f 221/2/2 222/2/2 223/2/2
f 223/2/2 222/2/2 224/2/2
f 225/2/2 226/2/2 227/2/2
f 227/2/2 226/2/2 228/2/2
f 233/2/3 230/2/3 229/2/3
f 234/2/3 232/2/3 231/2/3
f 235/2/3 233/2/3 229/2/3
f 235/2/3 234/2/3 233/2/3
f 236/2/3 232/2/3 234/2/3
f 236/2/3 234/2/3 235/2/3
f 239/2/3 238/2/3 237/2/3
f 240/2/3 238/2/3 239/2/3
f 241/2/3 238/2/3 240/2/3
f 242/2/3 238/2/3 241/2/3
f 243/2/3 238/2/3 242/2/3
f 244/2/3 238/2/3 243/2/3
f 245/2/3 238/2/3 244/2/3
f 246/2/3 238/2/3 245/2/3
f 247/2/3 238/2/3 246/2/3
f 248/2/3 238/2/3 247/2/3
f 249/2/3 238/2/3 248/2/3
f 250/2/3 238/2/3 249/2/3
f 251/2/3 238/2/3 250/2/3
f 252/2/3 238/2/3 251/2/3
f 253/2/3 238/2/3 252/2/3
f 254/2/3 238/2/3 253/2/3
f 255/2/3 238/2/3 254/2/3
f 256/2/3 238/2/3 255/2/3
f 257/2/3 238/2/3 256/2/3
f 258/2/3 238/2/3 257/2/3
f 259/2/3 238/2/3 258/2/3
f 260/2/3 238/2/3 259/2/3
f 261/2/3 238/2/3 260/2/3
f 262/2/3 238/2/3 261/2/3
f 263/2/3 238/2/3 262/2/3
f 264/2/3 238/2/3 263/2/3
f 265/2/3 239/2/3 237/2/3
f 266/2/3 241/2/3 240/2/3
f 267/2/3 241/2/3 266/2/3
f 268/2/3 243/2/3 242/2/3
f 269/2/3 243/2/3 268/2/3
f 270/2/3 245/2/3 244/2/3
f 271/2/3 245/2/3 270/2/3
f 272/2/3 247/2/3 246/2/3
f 273/2/3 247/2/3 272/2/3
f 274/2/3 249/2/3 248/2/3
f 275/2/3 249/2/3 274/2/3
f 276/2/3 251/2/3 250/2/3
f 277/2/3 251/2/3 276/2/3
f 278/2/3 253/2/3 252/2/3
f 279/2/3 253/2/3 278/2/3
f 280/2/3 255/2/3 254/2/3
f 281/2/3 255/2/3 280/2/3
f 282/2/3 257/2/3 256/2/3
f 283/2/3 257/2/3 282/2/3
f 284/2/3 259/2/3 258/2/3
f 285/2/3 259/2/3 284/2/3
f 286/2/3 261/2/3 260/2/3
f 287/2/3 261/2/3 286/2/3
f 288/2/3 263/2/3 262/2/3
f 289/2/3 263/2/3 288/2/3
f 290/2/3 238/2/3 264/2/3
f 291/2/3 289/2/3 288/2/3
f 291/2/3 290/2/3 289/2/3
f 291/2/3 287/2/3 286/2/3
f 291/2/3 265/2/3 237/2/3
f 291/2/3 288/2/3 287/2/3
f 291/2/3 285/2/3 284/2/3
f 291/2/3 286/2/3 285/2/3
f 291/2/3 267/2/3 266/2/3
f 291/2/3 284/2/3 283/2/3
f 291/2/3 283/2/3 282/2/3
f 291/2/3 282/2/3 281/2/3
f 291/2/3 269/2/3 268/2/3
f 291/2/3 280/2/3 279/2/3
f 291/2/3 281/2/3 280/2/3
f 291/2/3 278/2/3 277/2/3
f 291/2/3 271/2/3 270/2/3
f 291/2/3 276/2/3 275/2/3
f 291/2/3 279/2/3 278/2/3
f 291/2/3 274/2/3 273/2/3
f 291/2/3 273/2/3 272/2/3
f 291/2/3 272/2/3 271/2/3
f 291/2/3 277/2/3 276/2/3
f 291/2/3 270/2/3 269/2/3
f 291/2/3 275/2/3 274/2/3
f 291/2/3 268/2/3 267/2/3
f 291/2/3 266/2/3 265/2/3
f 292/2/3 290/2/3 291/2/3
f 293/2/3 290/2/3 292/2/3
f 294/2/3 290/2/3 293/2/3
f 295/2/3 290/2/3 294/2/3
f 296/2/3 290/2/3 295/2/3
f 297/2/3 290/2/3 296/2/3
f 298/2/3 290/2/3 297/2/3
f 299/2/3 290/2/3 298/2/3
f 300/2/3 290/2/3 299/2/3
f 301/2/3 290/2/3 300/2/3
f 302/2/3 290/2/3 301/2/3
f 303/2/3 290/2/3 302/2/3
f 304/2/3 290/2/3 303/2/3
f 305/2/3 290/2/3 304/2/3
f 306/2/3 290/2/3 305/2/3
f 307/2/3 290/2/3 306/2/3
f 308/2/3 290/2/3 307/2/3
f 309/2/3 290/2/3 308/2/3
f 310/2/3 290/2/3 309/2/3
f 311/2/3 290/2/3 310/2/3
f 312/2/3 290/2/3 311/2/3
f 313/2/3 290/2/3 312/2/3
f 314/2/3 290/2/3 313/2/3
f 315/2/3 290/2/3 314/2/3
f 316/2/3 238/2/3 290/2/3
f 316/2/3 290/2/3 315/2/3
f 317/2/3 291/2/3 237/2/3
f 318/2/3 291/2/3 317/2/3
f 319/2/3 293/2/3 292/2/3
f 320/2/3 293/2/3 319/2/3
f 321/2/3 295/2/3 294/2/3
f 322/2/3 295/2/3 321/2/3
f 323/2/3 297/2/3 296/2/3
f 324/2/3 297/2/3 323/2/3
f 325/2/3 299/2/3 298/2/3
f 326/2/3 299/2/3 325/2/3
f 327/2/3 301/2/3 300/2/3
f 328/2/3 301/2/3 327/2/3
f 329/2/3 303/2/3 302/2/3
f 330/2/3 303/2/3 329/2/3
f 331/2/3 305/2/3 304/2/3
f 332/2/3 305/2/3 331/2/3
f 333/2/3 307/2/3 306/2/3
f 334/2/3 307/2/3 333/2/3
f 335/2/3 309/2/3 308/2/3
f 336/2/3 309/2/3 335/2/3
f 337/2/3 311/2/3 310/2/3
f 338/2/3 311/2/3 337/2/3
f 339/2/3 313/2/3 312/2/3
f 340/2/3 313/2/3 339/2/3
f 341/2/3 315/2/3 314/2/3
f 342/2/3 315/2/3 341/2/3
f 343/2/3 238/2/3 316/2/3
f 344/2/3 238/2/3 343/2/3
f 371/1/3 346/1/3 345/1/3
f 372/1/3 346/1/3 371/1/3
f 373/1/3 348/1/3 347/1/3
f 374/1/3 348/1/3 373/1/3
f 375/1/3 350/1/3 349/1/3
f 376/1/3 350/1/3 375/1/3
f 377/1/3 352/1/3 351/1/3
f 378/1/3 352/1/3 377/1/3
f 379/1/3 354/1/3 353/1/3
f 380/1/3 354/1/3 379/1/3
f 381/1/3 356/1/3 355/1/3
f 382/1/3 356/1/3 381/1/3
f 383/1/3 358/1/3 357/1/3
f 384/1/3 358/1/3 383/1/3
f 385/1/3 360/1/3 359/1/3
f 386/1/3 360/1/3 385/1/3
f 387/1/3 362/1/3 361/1/3
f 388/1/3 362/1/3 387/1/3
f 389/1/3 364/1/3 363/1/3
f 390/1/3 364/1/3 389/1/3
f 391/1/3 366/1/3 365/1/3
f 392/1/3 366/1/3 391/1/3
f 393/1/3 368/1/3 367/1/3
f 394/1/3 368/1/3 393/1/3
f 395/1/3 370/1/3 369/1/3
f 396/1/3 370/1/3 395/1/3
f 423/1/3 398/1/3 397/1/3
f 424/1/3 398/1/3 423/1/3
f 425/1/3 400/1/3 399/1/3
f 426/1/3 400/1/3 425/1/3
f 427/1/3 402/1/3 401/1/3
f 428/1/3 402/1/3 427/1/3
f 429/1/3 404/1/3 403/1/3
f 430/1/3 404/1/3 429/1/3
f 431/1/3 406/1/3 405/1/3
f 432/1/3 406/1/3 431/1/3
f 433/1/3 408/1/3 407/1/3
f 434/1/3 408/1/3 433/1/3
f 435/1/3 410/1/3 409/1/3
f 436/1/3 410/1/3 435/1/3
f 437/1/3 412/1/3 411/1/3
f 438/1/3 412/1/3 437/1/3
f 439/1/3 414/1/3 413/1/3
f 440/1/3 414/1/3 439/1/3
f 441/1/3 416/1/3 415/1/3
f 442/1/3 416/1/3 441/1/3
f 443/1/3 418/1/3 417/1/3
f 444/1/3 418/1/3 443/1/3
f 445/1/3 420/1/3 419/1/3
f 446/1/3 420/1/3 445/1/3
f 447/1/3 422/1/3 421/1/3
f 448/1/3 422/1/3 447/1/3
f 449/2/4 450/2/4 451/2/4
f 451/2/4 450/2/4 452/2/4
f 455/2/5 454/2/5 453/2/5
f 456/2/5 454/2/5 455/2/5
f 461/2/5 458/2/5 457/2/5
f 462/2/5 458/2/5 461/2/5
f 463/2/5 460/2/5 459/2/5
f 464/2/5 460/2/5 463/2/5
f 469/2/5 466/2/5 465/2/5
f 470/2/5 466/2/5 469/2/5
f 471/2/5 468/2/5 467/2/5
f 472/2/5 468/2/5 471/2/5
f 477/2/5 474/2/5 473/2/5
f 478/2/5 474/2/5 477/2/5
f 479/2/5 476/2/5 475/2/5
f 480/2/5 476/2/5 479/2/5
f 485/2/5 482/2/5 481/2/5
f 486/2/5 482/2/5 485/2/5
f 487/2/5 484/2/5 483/2/5
f 488/2/5 484/2/5 487/2/5
f 493/2/5 490/2/5 489/2/5
f 494/2/5 490/2/5 493/2/5
f 495/2/5 492/2/5 491/2/5
f 496/2/5 492/2/5 495/2/5
f 501/2/5 498/2/5 497/2/5
f 502/2/5 498/2/5 501/2/5
f 503/2/5 500/2/5 499/2/5
f 504/2/5 500/2/5 503/2/5
f 509/2/5 506/2/5 505/2/5
f 510/2/5 506/2/5 509/2/5
f 511/2/5 508/2/5 507/2/5
f 512/2/5 508/2/5 511/2/5
f 517/2/5 514/2/5 513/2/5
f 518/2/5 514/2/5 517/2/5
f 519/2/5 516/2/5 515/2/5
f 520/2/5 516/2/5 519/2/5
f 525/2/5 522/2/5 521/2/5
f 526/2/5 522/2/5 525/2/5
f 527/2/5 524/2/5 523/2/5
f 528/2/5 524/2/5 527/2/5
f 533/2/5 530/2/5 529/2/5
f 534/2/5 530/2/5 533/2/5
f 535/2/5 532/2/5 531/2/5
f 536/2/5 532/2/5 535/2/5
f 541/2/5 538/2/5 537/2/5
f 542/2/5 538/2/5 541/2/5
f 543/2/5 540/2/5 539/2/5
f 544/2/5 540/2/5 543/2/5
f 549/2/5 546/2/5 545/2/5
f 550/2/5 546/2/5 549/2/5
f 551/2/5 548/2/5 547/2/5
f 552/2/5 548/2/5 551/2/5
f 557/2/5 554/2/5 553/2/5
f 558/2/5 554/2/5 557/2/5
f 559/2/5 556/2/5 555/2/5
f 560/2/5 556/2/5 559/2/5
f 563/2/5 562/2/5 561/2/5
f 564/2/5 562/2/5 563/2/5
f 565/2/6 566/2/6 567/2/6
f 567/2/6 566/2/6 568/2/6
f 569/2/6 570/2/6 573/2/6
f 573/2/6 570/2/6 574/2/6
f 571/2/6 572/2/6 575/2/6
f 575/2/6 572/2/6 576/2/6
f 577/2/6 578/2/6 581/2/6
f 581/2/6 578/2/6 582/2/6
f 579/2/6 580/2/6 583/2/6
f 583/2/6 580/2/6 584/2/6
f 585/2/6 586/2/6 589/2/6
f 589/2/6 586/2/6 590/2/6
f 587/2/6 588/2/6 591/2/6
f 591/2/6 588/2/6 592/2/6
f 593/2/6 594/2/6 597/2/6
f 597/2/6 594/2/6 598/2/6
f 595/2/6 596/2/6 599/2/6
f 599/2/6 596/2/6 600/2/6
f 601/2/6 602/2/6 605/2/6
f 605/2/6 602/2/6 606/2/6
f 603/2/6 604/2/6 607/2/6
f 607/2/6 604/2/6 608/2/6
f 609/2/6 610/2/6 613/2/6
f 613/2/6 610/2/6 614/2/6
f 611/2/6 612/2/6 615/2/6
f 615/2/6 612/2/6 616/2/6
f 617/2/6 618/2/6 621/2/6
f 621/2/6 618/2/6 622/2/6
f 619/2/6 620/2/6 623/2/6
f 623/2/6 620/2/6 624/2/6
f 625/2/6 626/2/6 629/2/6
f 629/2/6 626/2/6 630/2/6
f 627/2/6 628/2/6 631/2/6
f 631/2/6 628/2/6 632/2/6
f 633/2/6 634/2/6 637/2/6
f 637/2/6 634/2/6 638/2/6
f 635/2/6 636/2/6 639/2/6
f 639/2/6 636/2/6 640/2/6
f 641/2/6 642/2/6 645/2/6
f 645/2/6 642/2/6 646/2/6
f 643/2/6 644/2/6 647/2/6
f 647/2/6 644/2/6 648/2/6
f 649/2/6 650/2/6 653/2/6
f 653/2/6 650/2/6 654/2/6
f 651/2/6 652/2/6 655/2/6
f 655/2/6 652/2/6 656/2/6
f 657/2/6 658/2/6 661/2/6
f 661/2/6 658/2/6 662/2/6
f 659/2/6 660/2/6 663/2/6
f 663/2/6 660/2/6 664/2/6
f 665/2/6 666/2/6 669/2/6
f 669/2/6 666/2/6 670/2/6
f 667/2/6 668/2/6 671/2/6
f 671/2/6 668/2/6 672/2/6
f 673/2/6 674/2/6 675/2/6
f 675/2/6 674/2/6 676/2/6
