# MagicaVoxel @ Ephtracy

# group
g Menu Scene 03-36

# material
mtllib Menu Scene 03-36.mtl
usemtl palette

# normals
vn -1 0 0
vn 1 0 0
vn 0 0 1
vn 0 0 -1
vn 0 -1 0
vn 0 1 0

# texcoords
vt 0.310547 0.5
vt 0.373047 0.5

# verts
v -5.5 1 5.5
v -5.5 1 -4.5
v -5.5 2 5.5
v -5.5 2 -4.5
v -4.5 0 4.5
v -4.5 0 -5.5
v -4.5 1 4.5
v -4.5 1 -4.5
v -4.5 1 -5.5
v -4.5 2 4.5
v -4.5 2 -4.5
v -4.5 2 -5.5
v -4.5 3 4.5
v -4.5 3 -5.5
v -1.5 3 5.5
v -1.5 3 4.5
v -1.5 3 -4.5
v -1.5 5 5.5
v -1.5 5 -4.5
v -0.5 5 5.5
v -0.5 5 -4.5
v -0.5 6 5.5
v -0.5 6 -4.5
v 1.5 5 5.5
v 1.5 5 -4.5
v 1.5 6 5.5
v 1.5 6 -4.5
v 2.5 3 5.5
v 2.5 3 4.5
v 2.5 3 -4.5
v 2.5 5 5.5
v 2.5 5 -4.5
v 4.5 1 5.5
v 4.5 1 4.5
v 4.5 1 -4.5
v 4.5 2 5.5
v 4.5 2 4.5
v 4.5 2 -4.5
v 5.5 0 4.5
v 5.5 0 -5.5
v 5.5 1 4.5
v 5.5 1 -5.5
v 5.5 2 4.5
v 5.5 2 -5.5
v 5.5 3 4.5
v 5.5 3 -5.5
v -5.5 1 5.5
v -5.5 2 5.5
v -1.5 3 5.5
v -1.5 5 5.5
v -0.5 5 5.5
v -0.5 6 5.5
v 1.5 5 5.5
v 1.5 6 5.5
v 2.5 3 5.5
v 2.5 5 5.5
v 4.5 1 5.5
v 4.5 2 5.5
v -4.5 0 4.5
v -4.5 1 4.5
v -4.5 2 4.5
v -4.5 3 4.5
v -1.5 3 4.5
v 2.5 3 4.5
v 4.5 1 4.5
v 4.5 2 4.5
v 5.5 0 4.5
v 5.5 1 4.5
v 5.5 2 4.5
v 5.5 3 4.5
v -5.5 1 -4.5
v -5.5 2 -4.5
v -4.5 1 -4.5
v -4.5 2 -4.5
v -1.5 3 -4.5
v -1.5 5 -4.5
v -0.5 5 -4.5
v -0.5 6 -4.5
v 1.5 5 -4.5
v 1.5 6 -4.5
v 2.5 3 -4.5
v 2.5 5 -4.5
v 4.5 1 -4.5
v 4.5 2 -4.5
v -4.5 0 -5.5
v -4.5 1 -5.5
v -4.5 2 -5.5
v -4.5 3 -5.5
v 5.5 0 -5.5
v 5.5 1 -5.5
v 5.5 2 -5.5
v 5.5 3 -5.5
v -4.5 0 4.5
v 5.5 0 4.5
v -4.5 0 -5.5
v 5.5 0 -5.5
v -5.5 1 5.5
v 4.5 1 5.5
v -4.5 1 4.5
v 4.5 1 4.5
v -5.5 1 -4.5
v -4.5 1 -4.5
v 4.5 2 4.5
v 5.5 2 4.5
v -4.5 2 -4.5
v 4.5 2 -4.5
v -4.5 2 -5.5
v 5.5 2 -5.5
v -1.5 3 5.5
v 2.5 3 5.5
v -1.5 3 4.5
v 2.5 3 4.5
v 4.5 1 4.5
v 5.5 1 4.5
v -4.5 1 -4.5
v 4.5 1 -4.5
v -4.5 1 -5.5
v 5.5 1 -5.5
v -5.5 2 5.5
v 4.5 2 5.5
v -4.5 2 4.5
v 4.5 2 4.5
v -5.5 2 -4.5
v -4.5 2 -4.5
v -4.5 3 4.5
v -1.5 3 4.5
v 2.5 3 4.5
v 5.5 3 4.5
v -1.5 3 -4.5
v 2.5 3 -4.5
v -4.5 3 -5.5
v 5.5 3 -5.5
v -1.5 5 5.5
v -0.5 5 5.5
v 1.5 5 5.5
v 2.5 5 5.5
v -1.5 5 -4.5
v -0.5 5 -4.5
v 1.5 5 -4.5
v 2.5 5 -4.5
v -0.5 6 5.5
v 1.5 6 5.5
v -0.5 6 -4.5
v 1.5 6 -4.5

# faces
f 3/1/1 2/1/1 1/1/1
f 4/1/1 2/1/1 3/1/1
f 7/1/1 6/1/1 5/1/1
f 8/1/1 6/1/1 7/1/1
f 9/1/1 6/1/1 8/1/1
f 13/1/1 11/1/1 10/1/1
f 13/1/1 12/1/1 11/1/1
f 14/1/1 12/1/1 13/1/1
f 18/2/1 16/2/1 15/2/1
f 18/2/1 17/2/1 16/2/1
f 19/2/1 17/2/1 18/2/1
f 22/2/1 21/2/1 20/2/1
f 23/2/1 21/2/1 22/2/1
f 24/2/2 25/2/2 26/2/2
f 26/2/2 25/2/2 27/2/2
f 28/2/2 29/2/2 31/2/2
f 29/2/2 30/2/2 31/2/2
f 31/2/2 30/2/2 32/2/2
f 33/1/2 34/1/2 36/1/2
f 34/1/2 35/1/2 36/1/2
f 36/1/2 35/1/2 37/1/2
f 37/1/2 35/1/2 38/1/2
f 39/1/2 40/1/2 41/1/2
f 41/1/2 40/1/2 42/1/2
f 43/1/2 44/1/2 45/1/2
f 45/1/2 44/1/2 46/1/2
f 51/2/3 50/2/3 49/2/3
f 53/2/3 51/2/3 49/2/3
f 53/2/3 52/2/3 51/2/3
f 54/2/3 52/2/3 53/2/3
f 55/2/3 53/2/3 49/2/3
f 56/2/3 53/2/3 55/2/3
f 57/1/3 48/1/3 47/1/3
f 58/1/3 48/1/3 57/1/3
f 63/1/3 62/1/3 61/1/3
f 64/1/3 63/1/3 61/1/3
f 65/1/3 60/1/3 59/1/3
f 66/1/3 64/1/3 61/1/3
f 67/1/3 65/1/3 59/1/3
f 68/1/3 65/1/3 67/1/3
f 69/1/3 64/1/3 66/1/3
f 70/1/3 64/1/3 69/1/3
f 71/1/4 72/1/4 73/1/4
f 73/1/4 72/1/4 74/1/4
f 75/2/4 76/2/4 77/2/4
f 75/2/4 77/2/4 79/2/4
f 77/2/4 78/2/4 79/2/4
f 79/2/4 78/2/4 80/2/4
f 75/2/4 79/2/4 81/2/4
f 81/2/4 79/2/4 82/2/4
f 73/1/4 74/1/4 83/1/4
f 83/1/4 74/1/4 84/1/4
f 85/1/4 86/1/4 89/1/4
f 89/1/4 86/1/4 90/1/4
f 87/1/4 88/1/4 91/1/4
f 91/1/4 88/1/4 92/1/4
f 95/1/5 94/1/5 93/1/5
f 96/1/5 94/1/5 95/1/5
f 99/1/5 98/1/5 97/1/5
f 100/1/5 98/1/5 99/1/5
f 101/1/5 99/1/5 97/1/5
f 102/1/5 99/1/5 101/1/5
f 106/1/5 104/1/5 103/1/5
f 107/1/5 106/1/5 105/1/5
f 108/1/5 104/1/5 106/1/5
f 108/1/5 106/1/5 107/1/5
f 111/2/5 110/2/5 109/2/5
f 112/2/5 110/2/5 111/2/5
f 113/1/6 114/1/6 116/1/6
f 115/1/6 116/1/6 117/1/6
f 116/1/6 114/1/6 118/1/6
f 117/1/6 116/1/6 118/1/6
f 119/1/6 120/1/6 121/1/6
f 121/1/6 120/1/6 122/1/6
f 119/1/6 121/1/6 123/1/6
f 123/1/6 121/1/6 124/1/6
f 125/1/6 126/1/6 129/1/6
f 127/1/6 128/1/6 130/1/6
f 125/1/6 129/1/6 131/1/6
f 129/1/6 130/1/6 131/1/6
f 130/1/6 128/1/6 132/1/6
f 131/1/6 130/1/6 132/1/6
f 133/2/6 134/2/6 137/2/6
f 137/2/6 134/2/6 138/2/6
f 135/2/6 136/2/6 139/2/6
f 139/2/6 136/2/6 140/2/6
f 141/2/6 142/2/6 143/2/6
f 143/2/6 142/2/6 144/2/6
