# MagicaVoxel @ Ephtracy

# group
g Computers-2

# material
mtllib Computers-2.mtl
usemtl palette

# normals
vn -1 0 0
vn 1 0 0
vn 0 0 1
vn 0 0 -1
vn 0 -1 0
vn 0 1 0

# texcoords
vt 0.759766 0.5
vt 0.958984 0.5
vt 0.978516 0.5

# verts
v -3 0 3
v -3 0 -5
v -3 1 3
v -3 1 -5
v -2 1 2
v -2 1 -0
v -2 1 -2
v -2 1 -4
v -2 2 10
v -2 2 2
v -2 2 -0
v -2 2 -2
v -2 2 -4
v -2 2 -12
v -2 7 2
v -2 7 -4
v -2 13 10
v -2 13 -12
v -1 1 2
v -1 1 -0
v -1 1 -2
v -1 1 -4
v -1 2 2
v -1 2 -0
v -1 2 -2
v -1 2 -4
v 0 2 10
v 0 2 -12
v 0 3 9
v 0 3 -11
v 0 12 9
v 0 12 -11
v 0 13 10
v 0 13 -12
v 1 0 3
v 1 0 -5
v 1 1 3
v 1 1 -5
v -2 2 10
v -2 13 10
v -1 2 10
v -1 13 10
v 0 2 10
v 0 13 10
v -3 0 3
v -3 1 3
v 1 0 3
v 1 1 3
v -2 1 2
v -2 2 2
v -1 1 2
v -1 2 2
v -2 1 -2
v -2 2 -2
v -1 1 -2
v -1 2 -2
v -2 1 -0
v -2 2 -0
v -1 1 -0
v -1 2 -0
v -2 1 -4
v -2 2 -4
v -1 1 -4
v -1 2 -4
v -3 0 -5
v -3 1 -5
v 1 0 -5
v 1 1 -5
v -2 2 -12
v -2 13 -12
v -1 2 -12
v -1 13 -12
v 0 2 -12
v 0 13 -12
v -3 0 3
v 1 0 3
v -3 0 -5
v 1 0 -5
v -2 2 10
v -1 2 10
v 0 2 10
v -2 2 2
v -1 2 2
v -2 2 -0
v -1 2 -0
v -2 2 -2
v -1 2 -2
v -2 2 -4
v -1 2 -4
v -2 2 -12
v -1 2 -12
v 0 2 -12
v -3 1 3
v 1 1 3
v -2 1 2
v -1 1 2
v -2 1 -0
v -1 1 -0
v -2 1 -2
v -1 1 -2
v -2 1 -4
v -1 1 -4
v -3 1 -5
v 1 1 -5
v -2 13 10
v -1 13 10
v 0 13 10
v -2 13 -12
v -1 13 -12
v 0 13 -12

# faces
f 3/3/1 2/3/1 1/3/1
f 4/3/1 2/3/1 3/3/1
f 10/3/1 6/3/1 5/3/1
f 11/3/1 6/3/1 10/3/1
f 12/3/1 8/3/1 7/3/1
f 13/3/1 8/3/1 12/3/1
f 15/3/1 11/3/1 10/3/1
f 15/2/1 10/2/1 9/2/1
f 15/3/1 13/3/1 12/3/1
f 15/3/1 12/3/1 11/3/1
f 16/2/1 14/2/1 13/2/1
f 16/3/1 13/3/1 15/3/1
f 17/2/1 15/2/1 9/2/1
f 17/2/1 16/2/1 15/2/1
f 18/2/1 14/2/1 16/2/1
f 18/2/1 16/2/1 17/2/1
f 19/3/2 20/3/2 23/3/2
f 23/3/2 20/3/2 24/3/2
f 21/3/2 22/3/2 25/3/2
f 25/3/2 22/3/2 26/3/2
f 27/3/2 28/3/2 29/3/2
f 29/3/2 28/3/2 30/3/2
f 27/3/2 29/3/2 31/3/2
f 29/1/2 30/1/2 31/1/2
f 30/3/2 28/3/2 32/3/2
f 31/1/2 30/1/2 32/1/2
f 27/3/2 31/3/2 33/3/2
f 31/3/2 32/3/2 33/3/2
f 32/3/2 28/3/2 34/3/2
f 33/3/2 32/3/2 34/3/2
f 35/3/2 36/3/2 37/3/2
f 37/3/2 36/3/2 38/3/2
f 41/2/3 40/2/3 39/2/3
f 42/2/3 40/2/3 41/2/3
f 43/3/3 42/3/3 41/3/3
f 44/3/3 42/3/3 43/3/3
f 47/3/3 46/3/3 45/3/3
f 48/3/3 46/3/3 47/3/3
f 51/3/3 50/3/3 49/3/3
f 52/3/3 50/3/3 51/3/3
f 55/3/3 54/3/3 53/3/3
f 56/3/3 54/3/3 55/3/3
f 57/3/4 58/3/4 59/3/4
f 59/3/4 58/3/4 60/3/4
f 61/3/4 62/3/4 63/3/4
f 63/3/4 62/3/4 64/3/4
f 65/3/4 66/3/4 67/3/4
f 67/3/4 66/3/4 68/3/4
f 69/2/4 70/2/4 71/2/4
f 71/2/4 70/2/4 72/2/4
f 71/3/4 72/3/4 73/3/4
f 73/3/4 72/3/4 74/3/4
f 77/3/5 76/3/5 75/3/5
f 78/3/5 76/3/5 77/3/5
f 82/2/5 80/2/5 79/2/5
f 83/3/5 81/3/5 80/3/5
f 83/2/5 80/2/5 82/2/5
f 85/3/5 81/3/5 83/3/5
f 86/3/5 85/3/5 84/3/5
f 87/3/5 81/3/5 85/3/5
f 87/3/5 85/3/5 86/3/5
f 89/3/5 81/3/5 87/3/5
f 90/2/5 89/2/5 88/2/5
f 91/3/5 81/3/5 89/3/5
f 91/2/5 89/2/5 90/2/5
f 92/3/5 81/3/5 91/3/5
f 93/3/6 94/3/6 95/3/6
f 95/3/6 94/3/6 96/3/6
f 93/3/6 95/3/6 97/3/6
f 96/3/6 94/3/6 98/3/6
f 93/3/6 97/3/6 99/3/6
f 97/3/6 98/3/6 99/3/6
f 98/3/6 94/3/6 100/3/6
f 99/3/6 98/3/6 100/3/6
f 93/3/6 99/3/6 101/3/6
f 100/3/6 94/3/6 102/3/6
f 93/3/6 101/3/6 103/3/6
f 101/3/6 102/3/6 103/3/6
f 102/3/6 94/3/6 104/3/6
f 103/3/6 102/3/6 104/3/6
f 105/2/6 106/2/6 108/2/6
f 106/3/6 107/3/6 109/3/6
f 108/2/6 106/2/6 109/2/6
f 109/3/6 107/3/6 110/3/6
