# MagicaVoxel @ Ephtracy

# group
g Menu Obs-4

# material
mtllib Menu Obs-4.mtl
usemtl palette

# normals
vn -1 0 0
vn 1 0 0
vn 0 0 1
vn 0 0 -1
vn 0 -1 0
vn 0 1 0

# texcoords
vt 0.427734 0.5
vt 0.978516 0.5

# verts
v -32 0 32
v -32 0 -32
v -32 8 32
v -32 8 -32
v -31 21 23
v -31 21 -13
v -31 22 23
v -31 22 -13
v -29 8 21
v -29 8 20
v -29 8 -10
v -29 8 -11
v -29 10 20
v -29 10 -10
v -29 11 20
v -29 11 -10
v -29 21 21
v -29 21 20
v -29 21 -10
v -29 21 -11
v -14 8 21
v -14 8 20
v -14 8 -10
v -14 8 -11
v -14 10 21
v -14 10 20
v -14 10 -10
v -14 10 -11
v -14 11 21
v -14 11 20
v -14 11 -10
v -14 11 -11
v -14 21 21
v -14 21 20
v -14 21 -10
v -14 21 -11
v -28 8 21
v -28 8 20
v -28 8 -10
v -28 8 -11
v -28 10 21
v -28 10 20
v -28 10 -10
v -28 10 -11
v -28 11 21
v -28 11 20
v -28 11 -10
v -28 11 -11
v -28 21 21
v -28 21 20
v -28 21 -10
v -28 21 -11
v -13 8 21
v -13 8 20
v -13 8 -10
v -13 8 -11
v -13 10 20
v -13 10 -10
v -13 11 20
v -13 11 -10
v -13 21 21
v -13 21 20
v -13 21 -10
v -13 21 -11
v -11 21 23
v -11 21 -13
v -11 22 23
v -11 22 -13
v 32 0 32
v 32 0 -32
v 32 8 32
v 32 8 -32
v -32 0 32
v -32 8 32
v 32 0 32
v 32 8 32
v -31 21 23
v -31 22 23
v -11 21 23
v -11 22 23
v -29 8 21
v -29 21 21
v -28 8 21
v -28 10 21
v -28 11 21
v -28 21 21
v -14 8 21
v -14 10 21
v -14 11 21
v -14 21 21
v -13 8 21
v -13 21 21
v -29 8 -10
v -29 10 -10
v -29 11 -10
v -29 21 -10
v -28 8 -10
v -28 10 -10
v -28 11 -10
v -28 21 -10
v -14 8 -10
v -14 10 -10
v -14 11 -10
v -14 21 -10
v -13 8 -10
v -13 10 -10
v -13 11 -10
v -13 21 -10
v -29 8 20
v -29 10 20
v -29 11 20
v -29 21 20
v -28 8 20
v -28 10 20
v -28 11 20
v -28 21 20
v -14 8 20
v -14 10 20
v -14 11 20
v -14 21 20
v -13 8 20
v -13 10 20
v -13 11 20
v -13 21 20
v -29 8 -11
v -29 21 -11
v -28 8 -11
v -28 10 -11
v -28 11 -11
v -28 21 -11
v -14 8 -11
v -14 10 -11
v -14 11 -11
v -14 21 -11
v -13 8 -11
v -13 21 -11
v -31 21 -13
v -31 22 -13
v -11 21 -13
v -11 22 -13
v -32 0 -32
v -32 8 -32
v 32 0 -32
v 32 8 -32
v -32 0 32
v 32 0 32
v -32 0 -32
v 32 0 -32
v -28 10 21
v -14 10 21
v -29 10 20
v -28 10 20
v -14 10 20
v -13 10 20
v -29 10 -10
v -28 10 -10
v -14 10 -10
v -13 10 -10
v -28 10 -11
v -14 10 -11
v -31 21 23
v -11 21 23
v -29 21 21
v -28 21 21
v -14 21 21
v -13 21 21
v -29 21 20
v -28 21 20
v -14 21 20
v -13 21 20
v -29 21 -10
v -28 21 -10
v -14 21 -10
v -13 21 -10
v -29 21 -11
v -28 21 -11
v -14 21 -11
v -13 21 -11
v -31 21 -13
v -11 21 -13
v -32 8 32
v 32 8 32
v -29 8 21
v -28 8 21
v -14 8 21
v -13 8 21
v -29 8 20
v -28 8 20
v -14 8 20
v -13 8 20
v -29 8 -10
v -28 8 -10
v -14 8 -10
v -13 8 -10
v -29 8 -11
v -28 8 -11
v -14 8 -11
v -13 8 -11
v -32 8 -32
v 32 8 -32
v -28 11 21
v -14 11 21
v -29 11 20
v -28 11 20
v -14 11 20
v -13 11 20
v -29 11 -10
v -28 11 -10
v -14 11 -10
v -13 11 -10
v -28 11 -11
v -14 11 -11
v -31 22 23
v -11 22 23
v -31 22 -13
v -11 22 -13

# faces
f 3/1/1 2/1/1 1/1/1
f 4/1/1 2/1/1 3/1/1
f 7/2/1 6/2/1 5/2/1
f 8/2/1 6/2/1 7/2/1
f 13/2/1 10/2/1 9/2/1
f 14/2/1 12/2/1 11/2/1
f 15/2/1 13/2/1 9/2/1
f 15/2/1 14/2/1 13/2/1
f 16/2/1 12/2/1 14/2/1
f 16/2/1 14/2/1 15/2/1
f 17/2/1 15/2/1 9/2/1
f 18/2/1 15/2/1 17/2/1
f 19/2/1 12/2/1 16/2/1
f 20/2/1 12/2/1 19/2/1
f 25/2/1 22/2/1 21/2/1
f 26/2/1 22/2/1 25/2/1
f 27/2/1 24/2/1 23/2/1
f 28/2/1 24/2/1 27/2/1
f 33/2/1 30/2/1 29/2/1
f 34/2/1 30/2/1 33/2/1
f 35/2/1 32/2/1 31/2/1
f 36/2/1 32/2/1 35/2/1
f 37/2/2 38/2/2 41/2/2
f 41/2/2 38/2/2 42/2/2
f 39/2/2 40/2/2 43/2/2
f 43/2/2 40/2/2 44/2/2
f 45/2/2 46/2/2 49/2/2
f 49/2/2 46/2/2 50/2/2
f 47/2/2 48/2/2 51/2/2
f 51/2/2 48/2/2 52/2/2
f 53/2/2 54/2/2 57/2/2
f 55/2/2 56/2/2 58/2/2
f 53/2/2 57/2/2 59/2/2
f 57/2/2 58/2/2 59/2/2
f 58/2/2 56/2/2 60/2/2
f 59/2/2 58/2/2 60/2/2
f 53/2/2 59/2/2 61/2/2
f 61/2/2 59/2/2 62/2/2
f 60/2/2 56/2/2 63/2/2
f 63/2/2 56/2/2 64/2/2
f 65/2/2 66/2/2 67/2/2
f 67/2/2 66/2/2 68/2/2
f 69/1/2 70/1/2 71/1/2
f 71/1/2 70/1/2 72/1/2
f 75/1/3 74/1/3 73/1/3
f 76/1/3 74/1/3 75/1/3
f 79/2/3 78/2/3 77/2/3
f 80/2/3 78/2/3 79/2/3
f 83/2/3 82/2/3 81/2/3
f 84/2/3 82/2/3 83/2/3
f 85/2/3 82/2/3 84/2/3
f 86/2/3 82/2/3 85/2/3
f 88/2/3 85/2/3 84/2/3
f 89/2/3 85/2/3 88/2/3
f 91/2/3 88/2/3 87/2/3
f 91/2/3 90/2/3 89/2/3
f 91/2/3 89/2/3 88/2/3
f 92/2/3 90/2/3 91/2/3
f 97/2/3 94/2/3 93/2/3
f 98/2/3 94/2/3 97/2/3
f 99/2/3 96/2/3 95/2/3
f 100/2/3 96/2/3 99/2/3
f 105/2/3 102/2/3 101/2/3
f 106/2/3 102/2/3 105/2/3
f 107/2/3 104/2/3 103/2/3
f 108/2/3 104/2/3 107/2/3
f 109/2/4 110/2/4 113/2/4
f 113/2/4 110/2/4 114/2/4
f 111/2/4 112/2/4 115/2/4
f 115/2/4 112/2/4 116/2/4
f 117/2/4 118/2/4 121/2/4
f 121/2/4 118/2/4 122/2/4
f 119/2/4 120/2/4 123/2/4
f 123/2/4 120/2/4 124/2/4
f 125/2/4 126/2/4 127/2/4
f 127/2/4 126/2/4 128/2/4
f 128/2/4 126/2/4 129/2/4
f 129/2/4 126/2/4 130/2/4
f 128/2/4 129/2/4 132/2/4
f 132/2/4 129/2/4 133/2/4
f 131/2/4 132/2/4 135/2/4
f 133/2/4 134/2/4 135/2/4
f 132/2/4 133/2/4 135/2/4
f 135/2/4 134/2/4 136/2/4
f 137/2/4 138/2/4 139/2/4
f 139/2/4 138/2/4 140/2/4
f 141/1/4 142/1/4 143/1/4
f 143/1/4 142/1/4 144/1/4
f 147/1/5 146/1/5 145/1/5
f 148/1/5 146/1/5 147/1/5
f 152/2/5 150/2/5 149/2/5
f 153/2/5 150/2/5 152/2/5
f 155/2/5 152/2/5 151/2/5
f 155/2/5 154/2/5 153/2/5
f 155/2/5 153/2/5 152/2/5
f 156/2/5 154/2/5 155/2/5
f 157/2/5 154/2/5 156/2/5
f 158/2/5 154/2/5 157/2/5
f 159/2/5 157/2/5 156/2/5
f 160/2/5 157/2/5 159/2/5
f 163/2/5 162/2/5 161/2/5
f 164/2/5 162/2/5 163/2/5
f 165/2/5 162/2/5 164/2/5
f 166/2/5 162/2/5 165/2/5
f 167/2/5 163/2/5 161/2/5
f 168/2/5 165/2/5 164/2/5
f 169/2/5 165/2/5 168/2/5
f 170/2/5 162/2/5 166/2/5
f 171/2/5 169/2/5 168/2/5
f 171/2/5 170/2/5 169/2/5
f 171/2/5 167/2/5 161/2/5
f 171/2/5 168/2/5 167/2/5
f 172/2/5 170/2/5 171/2/5
f 173/2/5 170/2/5 172/2/5
f 174/2/5 162/2/5 170/2/5
f 174/2/5 170/2/5 173/2/5
f 175/2/5 171/2/5 161/2/5
f 176/2/5 173/2/5 172/2/5
f 177/2/5 173/2/5 176/2/5
f 178/2/5 162/2/5 174/2/5
f 179/2/5 175/2/5 161/2/5
f 179/2/5 178/2/5 177/2/5
f 179/2/5 177/2/5 176/2/5
f 179/2/5 176/2/5 175/2/5
f 180/2/5 162/2/5 178/2/5
f 180/2/5 178/2/5 179/2/5
f 181/1/6 182/1/6 183/1/6
f 183/1/6 182/1/6 184/1/6
f 184/1/6 182/1/6 185/1/6
f 185/1/6 182/1/6 186/1/6
f 181/1/6 183/1/6 187/1/6
f 184/1/6 185/1/6 188/1/6
f 188/1/6 185/1/6 189/1/6
f 186/1/6 182/1/6 190/1/6
f 188/1/6 189/1/6 191/1/6
f 189/1/6 190/1/6 191/1/6
f 181/1/6 187/1/6 191/1/6
f 187/1/6 188/1/6 191/1/6
f 191/1/6 190/1/6 192/1/6
f 192/1/6 190/1/6 193/1/6
f 190/1/6 182/1/6 194/1/6
f 193/1/6 190/1/6 194/1/6
f 181/1/6 191/1/6 195/1/6
f 192/1/6 193/1/6 196/1/6
f 196/1/6 193/1/6 197/1/6
f 194/1/6 182/1/6 198/1/6
f 181/1/6 195/1/6 199/1/6
f 197/1/6 198/1/6 199/1/6
f 196/1/6 197/1/6 199/1/6
f 195/1/6 196/1/6 199/1/6
f 198/1/6 182/1/6 200/1/6
f 199/1/6 198/1/6 200/1/6
f 201/2/6 202/2/6 204/2/6
f 204/2/6 202/2/6 205/2/6
f 203/2/6 204/2/6 207/2/6
f 205/2/6 206/2/6 207/2/6
f 204/2/6 205/2/6 207/2/6
f 207/2/6 206/2/6 208/2/6
f 208/2/6 206/2/6 209/2/6
f 209/2/6 206/2/6 210/2/6
f 208/2/6 209/2/6 211/2/6
f 211/2/6 209/2/6 212/2/6
f 213/2/6 214/2/6 215/2/6
f 215/2/6 214/2/6 216/2/6
