# MagicaVoxel @ Ephtracy

# group
g HarrisL_FrontLobbyV2_Heist-2

# material
mtllib HarrisL_FrontLobbyV2_Heist-2.mtl
usemtl palette

# normals
vn -1 0 0
vn 1 0 0
vn 0 0 1
vn 0 0 -1
vn 0 -1 0
vn 0 1 0

# texcoords
vt 0.412109 0.5
vt 0.416016 0.5

# verts
v -7 0 7
v -7 0 -7
v -7 1 6
v -7 1 -6
v -7 3 6
v -7 3 -6
v -7 4 7
v -7 4 -7
v -7 60 7
v -7 60 -7
v -7 61 6
v -7 61 -6
v -7 63 6
v -7 63 -6
v -7 64 7
v -7 64 -7
v -6 4 6
v -6 4 -6
v -6 5 6
v -6 5 2
v -6 5 -2
v -6 5 -6
v -6 6 2
v -6 6 -2
v -6 58 2
v -6 58 -2
v -6 59 6
v -6 59 2
v -6 59 -2
v -6 59 -6
v -6 60 6
v -6 60 -6
v -5 5 4
v -5 5 2
v -5 5 -2
v -5 5 -4
v -5 6 4
v -5 6 2
v -5 6 1
v -5 6 -1
v -5 6 -2
v -5 6 -4
v -5 58 4
v -5 58 2
v -5 58 1
v -5 58 -1
v -5 58 -2
v -5 58 -4
v -5 59 4
v -5 59 2
v -5 59 -2
v -5 59 -4
v -4 5 5
v -4 5 4
v -4 5 -4
v -4 5 -5
v -4 6 5
v -4 6 4
v -4 6 3
v -4 6 2
v -4 6 -2
v -4 6 -3
v -4 6 -4
v -4 6 -5
v -4 58 5
v -4 58 4
v -4 58 3
v -4 58 2
v -4 58 -2
v -4 58 -3
v -4 58 -4
v -4 58 -5
v -4 59 5
v -4 59 4
v -4 59 -4
v -4 59 -5
v -2 5 6
v -2 5 5
v -2 5 -5
v -2 5 -6
v -2 6 6
v -2 6 5
v -2 6 4
v -2 6 -4
v -2 6 -5
v -2 6 -6
v -2 58 6
v -2 58 5
v -2 58 4
v -2 58 -4
v -2 58 -5
v -2 58 -6
v -2 59 6
v -2 59 5
v -2 59 -5
v -2 59 -6
v 2 5 6
v 2 5 5
v 2 5 -5
v 2 5 -6
v 2 6 6
v 2 6 5
v 2 6 4
v 2 6 -4
v 2 6 -5
v 2 6 -6
v 2 58 6
v 2 58 5
v 2 58 4
v 2 58 -4
v 2 58 -5
v 2 58 -6
v 2 59 6
v 2 59 5
v 2 59 -5
v 2 59 -6
v 4 5 5
v 4 5 4
v 4 5 -4
v 4 5 -5
v 4 6 5
v 4 6 4
v 4 6 3
v 4 6 2
v 4 6 -2
v 4 6 -3
v 4 6 -4
v 4 6 -5
v 4 58 5
v 4 58 4
v 4 58 3
v 4 58 2
v 4 58 -2
v 4 58 -3
v 4 58 -4
v 4 58 -5
v 4 59 5
v 4 59 4
v 4 59 -4
v 4 59 -5
v 5 5 4
v 5 5 2
v 5 5 -2
v 5 5 -4
v 5 6 4
v 5 6 2
v 5 6 1
v 5 6 -1
v 5 6 -2
v 5 6 -4
v 5 58 4
v 5 58 2
v 5 58 1
v 5 58 -1
v 5 58 -2
v 5 58 -4
v 5 59 4
v 5 59 2
v 5 59 -2
v 5 59 -4
v 6 4 6
v 6 4 -6
v 6 5 6
v 6 5 2
v 6 5 -2
v 6 5 -6
v 6 6 2
v 6 6 -2
v 6 58 2
v 6 58 -2
v 6 59 6
v 6 59 2
v 6 59 -2
v 6 59 -6
v 6 60 6
v 6 60 -6
v 7 0 7
v 7 0 -7
v 7 1 6
v 7 1 -6
v 7 3 6
v 7 3 -6
v 7 4 7
v 7 4 -7
v 7 60 7
v 7 60 -7
v 7 61 6
v 7 61 -6
v 7 63 6
v 7 63 -6
v 7 64 7
v 7 64 -7
v -7 0 7
v -7 4 7
v -7 60 7
v -7 64 7
v -6 1 7
v -6 3 7
v -6 61 7
v -6 63 7
v 6 1 7
v 6 3 7
v 6 61 7
v 6 63 7
v 7 0 7
v 7 4 7
v 7 60 7
v 7 64 7
v -6 4 6
v -6 5 6
v -6 59 6
v -6 60 6
v -2 5 6
v -2 6 6
v -2 58 6
v -2 59 6
v 2 5 6
v 2 6 6
v 2 58 6
v 2 59 6
v 6 4 6
v 6 5 6
v 6 59 6
v 6 60 6
v -4 5 5
v -4 6 5
v -4 58 5
v -4 59 5
v -2 5 5
v -2 6 5
v -2 58 5
v -2 59 5
v -1 6 5
v -1 58 5
v 1 6 5
v 1 58 5
v 2 5 5
v 2 6 5
v 2 58 5
v 2 59 5
v 4 5 5
v 4 6 5
v 4 58 5
v 4 59 5
v -5 5 4
v -5 6 4
v -5 58 4
v -5 59 4
v -4 5 4
v -4 6 4
v -4 58 4
v -4 59 4
v -3 6 4
v -3 58 4
v -2 6 4
v -2 58 4
v 2 6 4
v 2 58 4
v 3 6 4
v 3 58 4
v 4 5 4
v 4 6 4
v 4 58 4
v 4 59 4
v 5 5 4
v 5 6 4
v 5 58 4
v 5 59 4
v -6 5 2
v -6 6 2
v -6 58 2
v -6 59 2
v -5 5 2
v -5 6 2
v -5 58 2
v -5 59 2
v -4 6 2
v -4 58 2
v 4 6 2
v 4 58 2
v 5 5 2
v 5 6 2
v 5 58 2
v 5 59 2
v 6 5 2
v 6 6 2
v 6 58 2
v 6 59 2
v -6 5 -2
v -6 6 -2
v -6 58 -2
v -6 59 -2
v -5 5 -2
v -5 6 -2
v -5 58 -2
v -5 59 -2
v -4 6 -2
v -4 58 -2
v 4 6 -2
v 4 58 -2
v 5 5 -2
v 5 6 -2
v 5 58 -2
v 5 59 -2
v 6 5 -2
v 6 6 -2
v 6 58 -2
v 6 59 -2
v -5 5 -4
v -5 6 -4
v -5 58 -4
v -5 59 -4
v -4 5 -4
v -4 6 -4
v -4 58 -4
v -4 59 -4
v -3 6 -4
v -3 58 -4
v -2 6 -4
v -2 58 -4
v 2 6 -4
v 2 58 -4
v 3 6 -4
v 3 58 -4
v 4 5 -4
v 4 6 -4
v 4 58 -4
v 4 59 -4
v 5 5 -4
v 5 6 -4
v 5 58 -4
v 5 59 -4
v -4 5 -5
v -4 6 -5
v -4 58 -5
v -4 59 -5
v -2 5 -5
v -2 6 -5
v -2 58 -5
v -2 59 -5
v -1 6 -5
v -1 58 -5
v 1 6 -5
v 1 58 -5
v 2 5 -5
v 2 6 -5
v 2 58 -5
v 2 59 -5
v 4 5 -5
v 4 6 -5
v 4 58 -5
v 4 59 -5
v -6 4 -6
v -6 5 -6
v -6 59 -6
v -6 60 -6
v -2 5 -6
v -2 6 -6
v -2 58 -6
v -2 59 -6
v 2 5 -6
v 2 6 -6
v 2 58 -6
v 2 59 -6
v 6 4 -6
v 6 5 -6
v 6 59 -6
v 6 60 -6
v -7 0 -7
v -7 4 -7
v -7 60 -7
v -7 64 -7
v -6 1 -7
v -6 3 -7
v -6 61 -7
v -6 63 -7
v 6 1 -7
v 6 3 -7
v 6 61 -7
v 6 63 -7
v 7 0 -7
v 7 4 -7
v 7 60 -7
v 7 64 -7
v -7 0 7
v 7 0 7
v -7 0 -7
v 7 0 -7
v -2 58 6
v 2 58 6
v -4 58 5
v -2 58 5
v -1 58 5
v 1 58 5
v 2 58 5
v 4 58 5
v -5 58 4
v -4 58 4
v -3 58 4
v -2 58 4
v 2 58 4
v 3 58 4
v 4 58 4
v 5 58 4
v -4 58 3
v 4 58 3
v -6 58 2
v -5 58 2
v -4 58 2
v 4 58 2
v 5 58 2
v 6 58 2
v -5 58 1
v 5 58 1
v -5 58 -1
v 5 58 -1
v -6 58 -2
v -5 58 -2
v -4 58 -2
v 4 58 -2
v 5 58 -2
v 6 58 -2
v -4 58 -3
v 4 58 -3
v -5 58 -4
v -4 58 -4
v -3 58 -4
v -2 58 -4
v 2 58 -4
v 3 58 -4
v 4 58 -4
v 5 58 -4
v -4 58 -5
v -2 58 -5
v -1 58 -5
v 1 58 -5
v 2 58 -5
v 4 58 -5
v -2 58 -6
v 2 58 -6
v -6 59 6
v -2 59 6
v 2 59 6
v 6 59 6
v -5 59 5
v -4 59 5
v -2 59 5
v 2 59 5
v 4 59 5
v 5 59 5
v -5 59 4
v -4 59 4
v 4 59 4
v 5 59 4
v -6 59 2
v -5 59 2
v 5 59 2
v 6 59 2
v -6 59 -2
v -5 59 -2
v 5 59 -2
v 6 59 -2
v -5 59 -4
v -4 59 -4
v 4 59 -4
v 5 59 -4
v -5 59 -5
v -4 59 -5
v -2 59 -5
v 2 59 -5
v 4 59 -5
v 5 59 -5
v -6 59 -6
v -2 59 -6
v 2 59 -6
v 6 59 -6
v -7 60 7
v 7 60 7
v -6 60 6
v 6 60 6
v -6 60 -6
v 6 60 -6
v -7 60 -7
v 7 60 -7
v -7 4 7
v 7 4 7
v -6 4 6
v 6 4 6
v -6 4 -6
v 6 4 -6
v -7 4 -7
v 7 4 -7
v -6 5 6
v -2 5 6
v 2 5 6
v 6 5 6
v -5 5 5
v -4 5 5
v -2 5 5
v 2 5 5
v 4 5 5
v 5 5 5
v -5 5 4
v -4 5 4
v 4 5 4
v 5 5 4
v -6 5 2
v -5 5 2
v 5 5 2
v 6 5 2
v -6 5 -2
v -5 5 -2
v 5 5 -2
v 6 5 -2
v -5 5 -4
v -4 5 -4
v 4 5 -4
v 5 5 -4
v -5 5 -5
v -4 5 -5
v -2 5 -5
v 2 5 -5
v 4 5 -5
v 5 5 -5
v -6 5 -6
v -2 5 -6
v 2 5 -6
v 6 5 -6
v -2 6 6
v 2 6 6
v -4 6 5
v -2 6 5
v -1 6 5
v 1 6 5
v 2 6 5
v 4 6 5
v -5 6 4
v -4 6 4
v -3 6 4
v -2 6 4
v 2 6 4
v 3 6 4
v 4 6 4
v 5 6 4
v -4 6 3
v 4 6 3
v -6 6 2
v -5 6 2
v -4 6 2
v 4 6 2
v 5 6 2
v 6 6 2
v -5 6 1
v 5 6 1
v -5 6 -1
v 5 6 -1
v -6 6 -2
v -5 6 -2
v -4 6 -2
v 4 6 -2
v 5 6 -2
v 6 6 -2
v -4 6 -3
v 4 6 -3
v -5 6 -4
v -4 6 -4
v -3 6 -4
v -2 6 -4
v 2 6 -4
v 3 6 -4
v 4 6 -4
v 5 6 -4
v -4 6 -5
v -2 6 -5
v -1 6 -5
v 1 6 -5
v 2 6 -5
v 4 6 -5
v -2 6 -6
v 2 6 -6
v -7 64 7
v 7 64 7
v -7 64 -7
v 7 64 -7

# faces
f 3/1/1 2/1/1 1/1/1
f 4/1/1 2/1/1 3/1/1
f 5/1/1 3/1/1 1/1/1
f 5/2/1 4/2/1 3/2/1
f 6/1/1 2/1/1 4/1/1
f 6/2/1 4/2/1 5/2/1
f 7/1/1 5/1/1 1/1/1
f 7/1/1 6/1/1 5/1/1
f 8/1/1 2/1/1 6/1/1
f 8/1/1 6/1/1 7/1/1
f 11/1/1 10/1/1 9/1/1
f 12/1/1 10/1/1 11/1/1
f 13/1/1 11/1/1 9/1/1
f 13/2/1 12/2/1 11/2/1
f 14/1/1 10/1/1 12/1/1
f 14/2/1 12/2/1 13/2/1
f 15/1/1 13/1/1 9/1/1
f 15/1/1 14/1/1 13/1/1
f 16/1/1 10/1/1 14/1/1
f 16/1/1 14/1/1 15/1/1
f 19/2/1 18/2/1 17/2/1
f 20/2/1 18/2/1 19/2/1
f 21/2/1 18/2/1 20/2/1
f 22/2/1 18/2/1 21/2/1
f 23/2/1 21/2/1 20/2/1
f 24/2/1 21/2/1 23/2/1
f 28/2/1 26/2/1 25/2/1
f 29/2/1 26/2/1 28/2/1
f 31/2/1 29/2/1 28/2/1
f 31/2/1 30/2/1 29/2/1
f 31/2/1 28/2/1 27/2/1
f 32/2/1 30/2/1 31/2/1
f 37/1/1 34/1/1 33/1/1
f 38/1/1 34/1/1 37/1/1
f 41/1/1 36/1/1 35/1/1
f 42/1/1 36/1/1 41/1/1
f 44/2/1 39/2/1 38/2/1
f 45/1/1 40/1/1 39/1/1
f 45/2/1 39/2/1 44/2/1
f 46/2/1 41/2/1 40/2/1
f 46/1/1 40/1/1 45/1/1
f 47/2/1 41/2/1 46/2/1
f 49/1/1 44/1/1 43/1/1
f 50/1/1 44/1/1 49/1/1
f 51/1/1 48/1/1 47/1/1
f 52/1/1 48/1/1 51/1/1
f 57/1/1 54/1/1 53/1/1
f 58/1/1 54/1/1 57/1/1
f 63/1/1 56/1/1 55/1/1
f 64/1/1 56/1/1 63/1/1
f 66/2/1 59/2/1 58/2/1
f 67/1/1 60/1/1 59/1/1
f 67/2/1 59/2/1 66/2/1
f 68/1/1 60/1/1 67/1/1
f 69/1/1 62/1/1 61/1/1
f 70/2/1 63/2/1 62/2/1
f 70/1/1 62/1/1 69/1/1
f 71/2/1 63/2/1 70/2/1
f 73/1/1 66/1/1 65/1/1
f 74/1/1 66/1/1 73/1/1
f 75/1/1 72/1/1 71/1/1
f 76/1/1 72/1/1 75/1/1
f 81/2/1 78/2/1 77/2/1
f 82/2/1 78/2/1 81/2/1
f 85/2/1 80/2/1 79/2/1
f 86/2/1 80/2/1 85/2/1
f 88/2/1 83/2/1 82/2/1
f 89/2/1 83/2/1 88/2/1
f 90/2/1 85/2/1 84/2/1
f 91/2/1 85/2/1 90/2/1
f 93/2/1 88/2/1 87/2/1
f 94/2/1 88/2/1 93/2/1
f 95/2/1 92/2/1 91/2/1
f 96/2/1 92/2/1 95/2/1
f 97/2/2 98/2/2 101/2/2
f 101/2/2 98/2/2 102/2/2
f 99/2/2 100/2/2 105/2/2
f 105/2/2 100/2/2 106/2/2
f 102/2/2 103/2/2 108/2/2
f 108/2/2 103/2/2 109/2/2
f 104/2/2 105/2/2 110/2/2
f 110/2/2 105/2/2 111/2/2
f 107/2/2 108/2/2 113/2/2
f 113/2/2 108/2/2 114/2/2
f 111/2/2 112/2/2 115/2/2
f 115/2/2 112/2/2 116/2/2
f 117/1/2 118/1/2 121/1/2
f 121/1/2 118/1/2 122/1/2
f 119/1/2 120/1/2 127/1/2
f 127/1/2 120/1/2 128/1/2
f 122/2/2 123/2/2 130/2/2
f 123/1/2 124/1/2 131/1/2
f 130/2/2 123/2/2 131/2/2
f 131/1/2 124/1/2 132/1/2
f 125/1/2 126/1/2 133/1/2
f 126/2/2 127/2/2 134/2/2
f 133/1/2 126/1/2 134/1/2
f 134/2/2 127/2/2 135/2/2
f 129/1/2 130/1/2 137/1/2
f 137/1/2 130/1/2 138/1/2
f 135/1/2 136/1/2 139/1/2
f 139/1/2 136/1/2 140/1/2
f 141/1/2 142/1/2 145/1/2
f 145/1/2 142/1/2 146/1/2
f 143/1/2 144/1/2 149/1/2
f 149/1/2 144/1/2 150/1/2
f 146/2/2 147/2/2 152/2/2
f 147/1/2 148/1/2 153/1/2
f 152/2/2 147/2/2 153/2/2
f 148/2/2 149/2/2 154/2/2
f 153/1/2 148/1/2 154/1/2
f 154/2/2 149/2/2 155/2/2
f 151/1/2 152/1/2 157/1/2
f 157/1/2 152/1/2 158/1/2
f 155/1/2 156/1/2 159/1/2
f 159/1/2 156/1/2 160/1/2
f 161/2/2 162/2/2 163/2/2
f 163/2/2 162/2/2 164/2/2
f 164/2/2 162/2/2 165/2/2
f 165/2/2 162/2/2 166/2/2
f 164/2/2 165/2/2 167/2/2
f 167/2/2 165/2/2 168/2/2
f 169/2/2 170/2/2 172/2/2
f 172/2/2 170/2/2 173/2/2
f 172/2/2 173/2/2 175/2/2
f 173/2/2 174/2/2 175/2/2
f 171/2/2 172/2/2 175/2/2
f 175/2/2 174/2/2 176/2/2
f 177/1/2 178/1/2 179/1/2
f 179/1/2 178/1/2 180/1/2
f 177/1/2 179/1/2 181/1/2
f 179/2/2 180/2/2 181/2/2
f 180/1/2 178/1/2 182/1/2
f 181/2/2 180/2/2 182/2/2
f 177/1/2 181/1/2 183/1/2
f 181/1/2 182/1/2 183/1/2
f 182/1/2 178/1/2 184/1/2
f 183/1/2 182/1/2 184/1/2
f 185/1/2 186/1/2 187/1/2
f 187/1/2 186/1/2 188/1/2
f 185/1/2 187/1/2 189/1/2
f 187/2/2 188/2/2 189/2/2
f 188/1/2 186/1/2 190/1/2
f 189/2/2 188/2/2 190/2/2
f 185/1/2 189/1/2 191/1/2
f 189/1/2 190/1/2 191/1/2
f 190/1/2 186/1/2 192/1/2
f 191/1/2 190/1/2 192/1/2
f 197/1/3 194/1/3 193/1/3
f 198/1/3 194/1/3 197/1/3
f 199/1/3 196/1/3 195/1/3
f 200/1/3 196/1/3 199/1/3
f 201/1/3 197/1/3 193/1/3
f 201/2/3 198/2/3 197/2/3
f 202/1/3 194/1/3 198/1/3
f 202/2/3 198/2/3 201/2/3
f 203/2/3 200/2/3 199/2/3
f 203/1/3 199/1/3 195/1/3
f 204/1/3 196/1/3 200/1/3
f 204/2/3 200/2/3 203/2/3
f 205/1/3 201/1/3 193/1/3
f 205/1/3 202/1/3 201/1/3
f 206/1/3 194/1/3 202/1/3
f 206/1/3 202/1/3 205/1/3
f 207/1/3 203/1/3 195/1/3
f 207/1/3 204/1/3 203/1/3
f 208/1/3 196/1/3 204/1/3
f 208/1/3 204/1/3 207/1/3
f 213/2/3 210/2/3 209/2/3
f 216/2/3 212/2/3 211/2/3
f 217/2/3 214/2/3 213/2/3
f 217/2/3 213/2/3 209/2/3
f 218/2/3 214/2/3 217/2/3
f 219/2/3 216/2/3 215/2/3
f 220/2/3 212/2/3 216/2/3
f 220/2/3 216/2/3 219/2/3
f 221/2/3 217/2/3 209/2/3
f 222/2/3 217/2/3 221/2/3
f 223/2/3 212/2/3 220/2/3
f 224/2/3 212/2/3 223/2/3
f 229/1/3 226/1/3 225/1/3
f 230/1/3 226/1/3 229/1/3
f 231/1/3 228/1/3 227/1/3
f 232/1/3 228/1/3 231/1/3
f 233/2/3 231/2/3 230/2/3
f 234/2/3 231/2/3 233/2/3
f 235/1/3 234/1/3 233/1/3
f 236/1/3 234/1/3 235/1/3
f 238/2/3 236/2/3 235/2/3
f 239/2/3 236/2/3 238/2/3
f 241/1/3 238/1/3 237/1/3
f 242/1/3 238/1/3 241/1/3
f 243/1/3 240/1/3 239/1/3
f 244/1/3 240/1/3 243/1/3
f 249/1/3 246/1/3 245/1/3
f 250/1/3 246/1/3 249/1/3
f 251/1/3 248/1/3 247/1/3
f 252/1/3 248/1/3 251/1/3
f 253/2/3 251/2/3 250/2/3
f 254/2/3 251/2/3 253/2/3
f 255/1/3 254/1/3 253/1/3
f 256/1/3 254/1/3 255/1/3
f 259/1/3 258/1/3 257/1/3
f 260/1/3 258/1/3 259/1/3
f 262/2/3 260/2/3 259/2/3
f 263/2/3 260/2/3 262/2/3
f 265/1/3 262/1/3 261/1/3
f 266/1/3 262/1/3 265/1/3
f 267/1/3 264/1/3 263/1/3
f 268/1/3 264/1/3 267/1/3
f 273/2/3 270/2/3 269/2/3
f 274/2/3 270/2/3 273/2/3
f 275/2/3 272/2/3 271/2/3
f 276/2/3 272/2/3 275/2/3
f 277/2/3 275/2/3 274/2/3
f 278/2/3 275/2/3 277/2/3
f 282/2/3 280/2/3 279/2/3
f 283/2/3 280/2/3 282/2/3
f 285/2/3 282/2/3 281/2/3
f 286/2/3 282/2/3 285/2/3
f 287/2/3 284/2/3 283/2/3
f 288/2/3 284/2/3 287/2/3
f 289/2/4 290/2/4 293/2/4
f 293/2/4 290/2/4 294/2/4
f 291/2/4 292/2/4 295/2/4
f 295/2/4 292/2/4 296/2/4
f 294/2/4 295/2/4 297/2/4
f 297/2/4 295/2/4 298/2/4
f 299/2/4 300/2/4 302/2/4
f 302/2/4 300/2/4 303/2/4
f 301/2/4 302/2/4 305/2/4
f 305/2/4 302/2/4 306/2/4
f 303/2/4 304/2/4 307/2/4
f 307/2/4 304/2/4 308/2/4
f 309/1/4 310/1/4 313/1/4
f 313/1/4 310/1/4 314/1/4
f 311/1/4 312/1/4 315/1/4
f 315/1/4 312/1/4 316/1/4
f 314/2/4 315/2/4 317/2/4
f 317/2/4 315/2/4 318/2/4
f 317/1/4 318/1/4 319/1/4
f 319/1/4 318/1/4 320/1/4
f 321/1/4 322/1/4 323/1/4
f 323/1/4 322/1/4 324/1/4
f 323/2/4 324/2/4 326/2/4
f 326/2/4 324/2/4 327/2/4
f 325/1/4 326/1/4 329/1/4
f 329/1/4 326/1/4 330/1/4
f 327/1/4 328/1/4 331/1/4
f 331/1/4 328/1/4 332/1/4
f 333/1/4 334/1/4 337/1/4
f 337/1/4 334/1/4 338/1/4
f 335/1/4 336/1/4 339/1/4
f 339/1/4 336/1/4 340/1/4
f 338/2/4 339/2/4 341/2/4
f 341/2/4 339/2/4 342/2/4
f 341/1/4 342/1/4 343/1/4
f 343/1/4 342/1/4 344/1/4
f 343/2/4 344/2/4 346/2/4
f 346/2/4 344/2/4 347/2/4
f 345/1/4 346/1/4 349/1/4
f 349/1/4 346/1/4 350/1/4
f 347/1/4 348/1/4 351/1/4
f 351/1/4 348/1/4 352/1/4
f 353/2/4 354/2/4 357/2/4
f 355/2/4 356/2/4 360/2/4
f 357/2/4 358/2/4 361/2/4
f 353/2/4 357/2/4 361/2/4
f 361/2/4 358/2/4 362/2/4
f 359/2/4 360/2/4 363/2/4
f 360/2/4 356/2/4 364/2/4
f 363/2/4 360/2/4 364/2/4
f 353/2/4 361/2/4 365/2/4
f 365/2/4 361/2/4 366/2/4
f 364/2/4 356/2/4 367/2/4
f 367/2/4 356/2/4 368/2/4
f 369/1/4 370/1/4 373/1/4
f 373/1/4 370/1/4 374/1/4
f 371/1/4 372/1/4 375/1/4
f 375/1/4 372/1/4 376/1/4
f 369/1/4 373/1/4 377/1/4
f 373/2/4 374/2/4 377/2/4
f 374/1/4 370/1/4 378/1/4
f 377/2/4 374/2/4 378/2/4
f 375/2/4 376/2/4 379/2/4
f 371/1/4 375/1/4 379/1/4
f 376/1/4 372/1/4 380/1/4
f 379/2/4 376/2/4 380/2/4
f 369/1/4 377/1/4 381/1/4
f 377/1/4 378/1/4 381/1/4
f 378/1/4 370/1/4 382/1/4
f 381/1/4 378/1/4 382/1/4
f 371/1/4 379/1/4 383/1/4
f 379/1/4 380/1/4 383/1/4
f 380/1/4 372/1/4 384/1/4
f 383/1/4 380/1/4 384/1/4
f 387/1/5 386/1/5 385/1/5
f 388/1/5 386/1/5 387/1/5
f 392/2/5 390/2/5 389/2/5
f 393/2/5 390/2/5 392/2/5
f 394/2/5 390/2/5 393/2/5
f 395/2/5 390/2/5 394/2/5
f 398/1/5 392/1/5 391/1/5
f 399/1/5 392/1/5 398/1/5
f 400/1/5 392/1/5 399/1/5
f 401/1/5 396/1/5 395/1/5
f 402/1/5 396/1/5 401/1/5
f 403/1/5 396/1/5 402/1/5
f 405/1/5 398/1/5 397/1/5
f 406/1/5 404/1/5 403/1/5
f 408/1/5 405/1/5 397/1/5
f 409/1/5 405/1/5 408/1/5
f 410/1/5 404/1/5 406/1/5
f 411/1/5 404/1/5 410/1/5
f 413/2/5 408/2/5 407/2/5
f 414/2/5 412/2/5 411/2/5
f 415/2/5 413/2/5 407/2/5
f 416/2/5 412/2/5 414/2/5
f 417/2/5 415/2/5 407/2/5
f 418/2/5 415/2/5 417/2/5
f 421/2/5 412/2/5 416/2/5
f 422/2/5 412/2/5 421/2/5
f 423/1/5 419/1/5 418/1/5
f 424/1/5 421/1/5 420/1/5
f 425/1/5 423/1/5 418/1/5
f 426/1/5 423/1/5 425/1/5
f 431/1/5 421/1/5 424/1/5
f 432/1/5 421/1/5 431/1/5
f 433/1/5 427/1/5 426/1/5
f 433/1/5 428/1/5 427/1/5
f 434/1/5 428/1/5 433/1/5
f 437/1/5 430/1/5 429/1/5
f 437/1/5 431/1/5 430/1/5
f 438/1/5 431/1/5 437/1/5
f 439/2/5 436/2/5 435/2/5
f 439/2/5 435/2/5 434/2/5
f 439/2/5 437/2/5 436/2/5
f 440/2/5 437/2/5 439/2/5
f 445/2/5 442/2/5 441/2/5
f 446/2/5 442/2/5 445/2/5
f 447/2/5 442/2/5 446/2/5
f 448/2/5 444/2/5 443/2/5
f 449/2/5 444/2/5 448/2/5
f 450/2/5 444/2/5 449/2/5
f 451/2/5 445/2/5 441/2/5
f 451/1/5 446/1/5 445/1/5
f 452/1/5 446/1/5 451/1/5
f 453/1/5 450/1/5 449/1/5
f 454/2/5 444/2/5 450/2/5
f 454/1/5 450/1/5 453/1/5
f 455/2/5 451/2/5 441/2/5
f 456/2/5 451/2/5 455/2/5
f 457/2/5 444/2/5 454/2/5
f 458/2/5 444/2/5 457/2/5
f 463/2/5 460/2/5 459/2/5
f 466/2/5 462/2/5 461/2/5
f 467/1/5 464/1/5 463/1/5
f 467/2/5 463/2/5 459/2/5
f 468/1/5 464/1/5 467/1/5
f 471/1/5 466/1/5 465/1/5
f 472/2/5 462/2/5 466/2/5
f 472/1/5 466/1/5 471/1/5
f 473/2/5 469/2/5 468/2/5
f 473/2/5 467/2/5 459/2/5
f 473/2/5 468/2/5 467/2/5
f 474/2/5 469/2/5 473/2/5
f 475/2/5 471/2/5 470/2/5
f 475/2/5 472/2/5 471/2/5
f 476/2/5 462/2/5 472/2/5
f 476/2/5 472/2/5 475/2/5
f 479/1/5 478/1/5 477/1/5
f 480/1/5 478/1/5 479/1/5
f 481/1/5 479/1/5 477/1/5
f 482/1/5 478/1/5 480/1/5
f 483/1/5 481/1/5 477/1/5
f 483/1/5 482/1/5 481/1/5
f 484/1/5 478/1/5 482/1/5
f 484/1/5 482/1/5 483/1/5
f 485/1/6 486/1/6 487/1/6
f 487/1/6 486/1/6 488/1/6
f 485/1/6 487/1/6 489/1/6
f 488/1/6 486/1/6 490/1/6
f 485/1/6 489/1/6 491/1/6
f 489/1/6 490/1/6 491/1/6
f 490/1/6 486/1/6 492/1/6
f 491/1/6 490/1/6 492/1/6
f 493/2/6 494/2/6 497/2/6
f 497/2/6 494/2/6 498/2/6
f 498/2/6 494/2/6 499/2/6
f 495/2/6 496/2/6 500/2/6
f 500/2/6 496/2/6 501/2/6
f 501/2/6 496/2/6 502/2/6
f 493/2/6 497/2/6 503/2/6
f 497/1/6 498/1/6 503/1/6
f 503/1/6 498/1/6 504/1/6
f 501/1/6 502/1/6 505/1/6
f 502/2/6 496/2/6 506/2/6
f 505/1/6 502/1/6 506/1/6
f 493/2/6 503/2/6 507/2/6
f 507/2/6 503/2/6 508/2/6
f 506/2/6 496/2/6 509/2/6
f 509/2/6 496/2/6 510/2/6
f 511/2/6 512/2/6 515/2/6
f 513/2/6 514/2/6 518/2/6
f 515/1/6 516/1/6 519/1/6
f 511/2/6 515/2/6 519/2/6
f 519/1/6 516/1/6 520/1/6
f 517/1/6 518/1/6 523/1/6
f 518/2/6 514/2/6 524/2/6
f 523/1/6 518/1/6 524/1/6
f 520/2/6 521/2/6 525/2/6
f 511/2/6 519/2/6 525/2/6
f 519/2/6 520/2/6 525/2/6
f 525/2/6 521/2/6 526/2/6
f 522/2/6 523/2/6 527/2/6
f 523/2/6 524/2/6 527/2/6
f 524/2/6 514/2/6 528/2/6
f 527/2/6 524/2/6 528/2/6
f 529/2/6 530/2/6 532/2/6
f 532/2/6 530/2/6 533/2/6
f 533/2/6 530/2/6 534/2/6
f 534/2/6 530/2/6 535/2/6
f 531/1/6 532/1/6 538/1/6
f 538/1/6 532/1/6 539/1/6
f 539/1/6 532/1/6 540/1/6
f 535/1/6 536/1/6 541/1/6
f 541/1/6 536/1/6 542/1/6
f 542/1/6 536/1/6 543/1/6
f 537/1/6 538/1/6 545/1/6
f 543/1/6 544/1/6 546/1/6
f 537/1/6 545/1/6 548/1/6
f 548/1/6 545/1/6 549/1/6
f 546/1/6 544/1/6 550/1/6
f 550/1/6 544/1/6 551/1/6
f 547/2/6 548/2/6 553/2/6
f 551/2/6 552/2/6 554/2/6
f 547/2/6 553/2/6 555/2/6
f 554/2/6 552/2/6 556/2/6
f 547/2/6 555/2/6 557/2/6
f 557/2/6 555/2/6 558/2/6
f 556/2/6 552/2/6 561/2/6
f 561/2/6 552/2/6 562/2/6
f 558/1/6 559/1/6 563/1/6
f 560/1/6 561/1/6 564/1/6
f 558/1/6 563/1/6 565/1/6
f 565/1/6 563/1/6 566/1/6
f 564/1/6 561/1/6 571/1/6
f 571/1/6 561/1/6 572/1/6
f 566/1/6 567/1/6 573/1/6
f 567/1/6 568/1/6 573/1/6
f 573/1/6 568/1/6 574/1/6
f 569/1/6 570/1/6 577/1/6
f 570/1/6 571/1/6 577/1/6
f 577/1/6 571/1/6 578/1/6
f 575/2/6 576/2/6 579/2/6
f 574/2/6 575/2/6 579/2/6
f 576/2/6 577/2/6 579/2/6
f 579/2/6 577/2/6 580/2/6
f 581/1/6 582/1/6 583/1/6
f 583/1/6 582/1/6 584/1/6
