# MagicaVoxel @ Ephtracy

# group
g pillar2

# material
mtllib pillar2.mtl
usemtl palette

# normals
vn -1 0 0
vn 1 0 0
vn 0 0 1
vn 0 0 -1
vn 0 -1 0
vn 0 1 0

# texcoords
vt 0.408203 0.5
vt 0.412109 0.5
vt 0.416016 0.5
vt 0.419922 0.5
vt 0.564453 0.5
vt 0.572266 0.5
vt 0.576172 0.5
vt 0.580078 0.5
vt 0.591797 0.5

# verts
v -6 0 6
v -6 0 -6
v -6 1 6
v -6 1 5
v -6 1 4
v -6 1 2
v -6 1 1
v -6 1 -3
v -6 1 -4
v -6 1 -6
v -6 3 6
v -6 3 5
v -6 3 4
v -6 3 -2
v -6 3 -3
v -6 3 -4
v -6 3 -5
v -6 3 -6
v -6 4 6
v -6 4 5
v -6 4 2
v -6 4 1
v -6 4 -2
v -6 4 -3
v -6 4 -5
v -6 4 -6
v -6 5 6
v -6 5 -6
v -6 6 6
v -6 6 -6
v -5 6 5
v -5 6 4
v -5 6 3
v -5 6 -3
v -5 6 -4
v -5 6 -5
v -5 7 4
v -5 7 3
v -5 7 -0
v -5 7 -3
v -5 8 4
v -5 8 -0
v -5 8 -4
v -5 9 5
v -5 9 -5
v -4 9 4
v -4 9 3
v -4 9 1
v -4 9 -1
v -4 9 -3
v -4 9 -4
v -4 64 4
v -4 64 3
v -4 64 1
v -4 64 -1
v -4 64 -3
v -4 64 -4
v 4 9 4
v 4 9 3
v 4 9 1
v 4 9 -1
v 4 9 -3
v 4 9 -4
v 4 64 4
v 4 64 3
v 4 64 1
v 4 64 -1
v 4 64 -3
v 4 64 -4
v 5 6 5
v 5 6 4
v 5 6 3
v 5 6 -3
v 5 6 -4
v 5 6 -5
v 5 7 3
v 5 7 -0
v 5 7 -3
v 5 7 -4
v 5 8 4
v 5 8 -0
v 5 8 -4
v 5 9 5
v 5 9 -5
v 6 0 6
v 6 0 -6
v 6 1 6
v 6 1 5
v 6 1 4
v 6 1 2
v 6 1 1
v 6 1 -3
v 6 1 -4
v 6 1 -6
v 6 3 6
v 6 3 5
v 6 3 4
v 6 3 -2
v 6 3 -3
v 6 3 -4
v 6 3 -5
v 6 3 -6
v 6 4 6
v 6 4 5
v 6 4 2
v 6 4 1
v 6 4 -2
v 6 4 -3
v 6 4 -5
v 6 4 -6
v 6 5 6
v 6 5 -6
v 6 6 6
v 6 6 -6
v -6 0 6
v -6 1 6
v -6 3 6
v -6 4 6
v -6 5 6
v -6 6 6
v -5 1 6
v -5 3 6
v -5 4 6
v -4 1 6
v -4 3 6
v -2 1 6
v -2 4 6
v -1 1 6
v -1 4 6
v 2 3 6
v 2 4 6
v 3 1 6
v 3 3 6
v 3 4 6
v 4 1 6
v 4 3 6
v 5 3 6
v 5 4 6
v 6 0 6
v 6 1 6
v 6 3 6
v 6 4 6
v 6 5 6
v 6 6 6
v -5 6 5
v -5 9 5
v -4 6 5
v -4 8 5
v -3 6 5
v -3 7 5
v 0 7 5
v 0 8 5
v 3 6 5
v 3 7 5
v 4 6 5
v 4 7 5
v 4 8 5
v 5 6 5
v 5 9 5
v -4 9 4
v -4 64 4
v -3 9 4
v -3 64 4
v -1 9 4
v -1 64 4
v 1 9 4
v 1 64 4
v 3 9 4
v 3 64 4
v 4 9 4
v 4 64 4
v -4 9 -4
v -4 64 -4
v -3 9 -4
v -3 64 -4
v -1 9 -4
v -1 64 -4
v 1 9 -4
v 1 64 -4
v 3 9 -4
v 3 64 -4
v 4 9 -4
v 4 64 -4
v -5 6 -5
v -5 9 -5
v -4 6 -5
v -4 7 -5
v -4 8 -5
v -3 6 -5
v -3 7 -5
v 0 7 -5
v 0 8 -5
v 3 6 -5
v 3 7 -5
v 4 6 -5
v 4 8 -5
v 5 6 -5
v 5 9 -5
v -6 0 -6
v -6 1 -6
v -6 3 -6
v -6 4 -6
v -6 5 -6
v -6 6 -6
v -5 1 -6
v -5 3 -6
v -5 4 -6
v -4 1 -6
v -4 3 -6
v -2 1 -6
v -2 4 -6
v -1 1 -6
v -1 4 -6
v 2 3 -6
v 2 4 -6
v 3 1 -6
v 3 3 -6
v 3 4 -6
v 4 1 -6
v 4 3 -6
v 5 3 -6
v 5 4 -6
v 6 0 -6
v 6 1 -6
v 6 3 -6
v 6 4 -6
v 6 5 -6
v 6 6 -6
v -6 0 6
v 6 0 6
v -5 0 5
v 5 0 5
v -5 0 -5
v 5 0 -5
v -6 0 -6
v 6 0 -6
v -6 6 6
v 6 6 6
v -5 6 5
v -4 6 5
v -3 6 5
v 3 6 5
v 4 6 5
v 5 6 5
v -5 6 4
v 5 6 4
v -5 6 3
v 5 6 3
v -5 6 -3
v 5 6 -3
v -5 6 -4
v 5 6 -4
v -5 6 -5
v -4 6 -5
v -3 6 -5
v 3 6 -5
v 4 6 -5
v 5 6 -5
v -6 6 -6
v 6 6 -6
v -5 9 5
v 5 9 5
v -4 9 4
v -3 9 4
v -1 9 4
v 1 9 4
v 3 9 4
v 4 9 4
v -4 9 3
v 4 9 3
v -4 9 1
v 4 9 1
v -4 9 -1
v 4 9 -1
v -4 9 -3
v 4 9 -3
v -4 9 -4
v -3 9 -4
v -1 9 -4
v 1 9 -4
v 3 9 -4
v 4 9 -4
v -5 9 -5
v 5 9 -5
v -4 64 4
v -3 64 4
v -1 64 4
v 1 64 4
v 3 64 4
v 4 64 4
v -4 64 3
v -3 64 3
v -1 64 3
v 1 64 3
v 3 64 3
v 4 64 3
v -4 64 1
v -3 64 1
v 3 64 1
v 4 64 1
v -4 64 -1
v -3 64 -1
v 3 64 -1
v 4 64 -1
v -4 64 -3
v -3 64 -3
v -1 64 -3
v 1 64 -3
v 3 64 -3
v 4 64 -3
v -4 64 -4
v -3 64 -4
v -1 64 -4
v 1 64 -4
v 3 64 -4
v 4 64 -4

# faces
f 3/6/1 2/6/1 1/6/1
f 4/6/1 2/6/1 3/6/1
f 5/6/1 2/6/1 4/6/1
f 6/6/1 2/6/1 5/6/1
f 7/6/1 2/6/1 6/6/1
f 8/6/1 2/6/1 7/6/1
f 9/6/1 2/6/1 8/6/1
f 10/6/1 2/6/1 9/6/1
f 11/5/1 4/5/1 3/5/1
f 12/7/1 5/7/1 4/7/1
f 12/5/1 4/5/1 11/5/1
f 13/5/1 6/5/1 5/5/1
f 13/7/1 5/7/1 12/7/1
f 14/5/1 8/5/1 7/5/1
f 15/7/1 9/7/1 8/7/1
f 15/5/1 8/5/1 14/5/1
f 16/5/1 10/5/1 9/5/1
f 16/7/1 9/7/1 15/7/1
f 17/5/1 10/5/1 16/5/1
f 18/5/1 10/5/1 17/5/1
f 19/7/1 12/7/1 11/7/1
f 20/5/1 13/5/1 12/5/1
f 20/7/1 12/7/1 19/7/1
f 21/7/1 7/7/1 6/7/1
f 21/5/1 13/5/1 20/5/1
f 21/5/1 6/5/1 13/5/1
f 22/5/1 14/5/1 7/5/1
f 22/7/1 7/7/1 21/7/1
f 23/7/1 15/7/1 14/7/1
f 23/5/1 14/5/1 22/5/1
f 24/5/1 16/5/1 15/5/1
f 24/7/1 15/7/1 23/7/1
f 24/5/1 17/5/1 16/5/1
f 25/7/1 18/7/1 17/7/1
f 25/5/1 17/5/1 24/5/1
f 26/7/1 18/7/1 25/7/1
f 27/9/1 20/9/1 19/9/1
f 27/9/1 24/9/1 23/9/1
f 27/9/1 26/9/1 25/9/1
f 27/9/1 25/9/1 24/9/1
f 27/9/1 23/9/1 22/9/1
f 27/9/1 21/9/1 20/9/1
f 27/9/1 22/9/1 21/9/1
f 28/9/1 26/9/1 27/9/1
f 29/8/1 28/8/1 27/8/1
f 30/8/1 28/8/1 29/8/1
f 37/2/1 32/2/1 31/2/1
f 37/4/1 33/4/1 32/4/1
f 38/3/1 34/3/1 33/3/1
f 38/4/1 33/4/1 37/4/1
f 39/3/1 34/3/1 38/3/1
f 40/1/1 35/1/1 34/1/1
f 40/3/1 34/3/1 39/3/1
f 41/3/1 39/3/1 38/3/1
f 41/2/1 37/2/1 31/2/1
f 41/3/1 38/3/1 37/3/1
f 42/1/1 40/1/1 39/1/1
f 42/3/1 39/3/1 41/3/1
f 43/2/1 36/2/1 35/2/1
f 43/1/1 40/1/1 42/1/1
f 43/1/1 35/1/1 40/1/1
f 44/2/1 42/2/1 41/2/1
f 44/2/1 41/2/1 31/2/1
f 44/2/1 43/2/1 42/2/1
f 45/2/1 36/2/1 43/2/1
f 45/2/1 43/2/1 44/2/1
f 52/2/1 47/2/1 46/2/1
f 53/3/1 48/3/1 47/3/1
f 53/2/1 47/2/1 52/2/1
f 54/1/1 49/1/1 48/1/1
f 54/3/1 48/3/1 53/3/1
f 55/3/1 50/3/1 49/3/1
f 55/1/1 49/1/1 54/1/1
f 56/2/1 51/2/1 50/2/1
f 56/3/1 50/3/1 55/3/1
f 57/2/1 51/2/1 56/2/1
f 58/2/2 59/2/2 64/2/2
f 59/3/2 60/3/2 65/3/2
f 64/2/2 59/2/2 65/2/2
f 60/1/2 61/1/2 66/1/2
f 65/3/2 60/3/2 66/3/2
f 61/3/2 62/3/2 67/3/2
f 66/1/2 61/1/2 67/1/2
f 62/2/2 63/2/2 68/2/2
f 67/3/2 62/3/2 68/3/2
f 68/2/2 63/2/2 69/2/2
f 71/1/2 72/1/2 76/1/2
f 72/3/2 73/3/2 76/3/2
f 76/3/2 73/3/2 77/3/2
f 73/4/2 74/4/2 78/4/2
f 77/3/2 73/3/2 78/3/2
f 74/2/2 75/2/2 79/2/2
f 78/4/2 74/4/2 79/4/2
f 70/2/2 71/2/2 80/2/2
f 76/1/2 77/1/2 80/1/2
f 71/1/2 76/1/2 80/1/2
f 77/3/2 78/3/2 81/3/2
f 80/1/2 77/1/2 81/1/2
f 78/3/2 79/3/2 81/3/2
f 79/2/2 75/2/2 82/2/2
f 81/3/2 79/3/2 82/3/2
f 80/2/2 81/2/2 83/2/2
f 70/2/2 80/2/2 83/2/2
f 81/2/2 82/2/2 83/2/2
f 82/2/2 75/2/2 84/2/2
f 83/2/2 82/2/2 84/2/2
f 85/6/2 86/6/2 87/6/2
f 87/6/2 86/6/2 88/6/2
f 88/6/2 86/6/2 89/6/2
f 89/6/2 86/6/2 90/6/2
f 90/6/2 86/6/2 91/6/2
f 91/6/2 86/6/2 92/6/2
f 92/6/2 86/6/2 93/6/2
f 93/6/2 86/6/2 94/6/2
f 87/5/2 88/5/2 95/5/2
f 88/7/2 89/7/2 96/7/2
f 95/5/2 88/5/2 96/5/2
f 89/5/2 90/5/2 97/5/2
f 96/7/2 89/7/2 97/7/2
f 91/5/2 92/5/2 98/5/2
f 92/7/2 93/7/2 99/7/2
f 98/5/2 92/5/2 99/5/2
f 93/5/2 94/5/2 100/5/2
f 99/7/2 93/7/2 100/7/2
f 100/5/2 94/5/2 101/5/2
f 101/5/2 94/5/2 102/5/2
f 95/7/2 96/7/2 103/7/2
f 96/5/2 97/5/2 104/5/2
f 103/7/2 96/7/2 104/7/2
f 90/7/2 91/7/2 105/7/2
f 104/5/2 97/5/2 105/5/2
f 97/5/2 90/5/2 105/5/2
f 91/5/2 98/5/2 106/5/2
f 105/7/2 91/7/2 106/7/2
f 98/7/2 99/7/2 107/7/2
f 106/5/2 98/5/2 107/5/2
f 99/5/2 100/5/2 108/5/2
f 107/7/2 99/7/2 108/7/2
f 100/5/2 101/5/2 108/5/2
f 101/7/2 102/7/2 109/7/2
f 108/5/2 101/5/2 109/5/2
f 109/7/2 102/7/2 110/7/2
f 103/9/2 104/9/2 111/9/2
f 107/9/2 108/9/2 111/9/2
f 109/9/2 110/9/2 111/9/2
f 108/9/2 109/9/2 111/9/2
f 106/9/2 107/9/2 111/9/2
f 104/9/2 105/9/2 111/9/2
f 105/9/2 106/9/2 111/9/2
f 111/9/2 110/9/2 112/9/2
f 111/8/2 112/8/2 113/8/2
f 113/8/2 112/8/2 114/8/2
f 121/6/3 116/6/3 115/6/3
f 121/5/3 117/5/3 116/5/3
f 122/7/3 118/7/3 117/7/3
f 122/5/3 117/5/3 121/5/3
f 123/9/3 119/9/3 118/9/3
f 123/7/3 118/7/3 122/7/3
f 124/7/3 122/7/3 121/7/3
f 124/6/3 121/6/3 115/6/3
f 125/5/3 123/5/3 122/5/3
f 125/7/3 122/7/3 124/7/3
f 126/6/3 124/6/3 115/6/3
f 126/5/3 125/5/3 124/5/3
f 127/9/3 119/9/3 123/9/3
f 127/5/3 125/5/3 126/5/3
f 127/5/3 123/5/3 125/5/3
f 128/6/3 126/6/3 115/6/3
f 128/7/3 127/7/3 126/7/3
f 129/9/3 119/9/3 127/9/3
f 129/7/3 127/7/3 128/7/3
f 130/5/3 129/5/3 128/5/3
f 131/9/3 119/9/3 129/9/3
f 131/5/3 129/5/3 130/5/3
f 132/6/3 128/6/3 115/6/3
f 132/5/3 130/5/3 128/5/3
f 133/7/3 131/7/3 130/7/3
f 133/5/3 130/5/3 132/5/3
f 134/9/3 119/9/3 131/9/3
f 134/7/3 131/7/3 133/7/3
f 135/7/3 133/7/3 132/7/3
f 135/6/3 132/6/3 115/6/3
f 136/5/3 134/5/3 133/5/3
f 136/7/3 133/7/3 135/7/3
f 137/5/3 136/5/3 135/5/3
f 137/5/3 134/5/3 136/5/3
f 138/9/3 119/9/3 134/9/3
f 138/5/3 134/5/3 137/5/3
f 139/6/3 135/6/3 115/6/3
f 140/5/3 137/5/3 135/5/3
f 140/6/3 135/6/3 139/6/3
f 141/7/3 138/7/3 137/7/3
f 141/5/3 137/5/3 140/5/3
f 142/9/3 119/9/3 138/9/3
f 142/7/3 138/7/3 141/7/3
f 143/8/3 120/8/3 119/8/3
f 143/9/3 119/9/3 142/9/3
f 144/8/3 120/8/3 143/8/3
f 147/2/3 146/2/3 145/2/3
f 148/2/3 146/2/3 147/2/3
f 149/1/3 148/1/3 147/1/3
f 150/1/3 148/1/3 149/1/3
f 151/3/3 150/3/3 149/3/3
f 151/1/3 148/1/3 150/1/3
f 152/2/3 146/2/3 148/2/3
f 152/1/3 148/1/3 151/1/3
f 153/3/3 151/3/3 149/3/3
f 153/3/3 152/3/3 151/3/3
f 154/3/3 152/3/3 153/3/3
f 155/4/3 154/4/3 153/4/3
f 156/3/3 152/3/3 154/3/3
f 156/4/3 154/4/3 155/4/3
f 157/2/3 146/2/3 152/2/3
f 157/3/3 152/3/3 156/3/3
f 158/2/3 156/2/3 155/2/3
f 158/2/3 157/2/3 156/2/3
f 159/2/3 146/2/3 157/2/3
f 159/2/3 157/2/3 158/2/3
f 162/2/3 161/2/3 160/2/3
f 163/2/3 161/2/3 162/2/3
f 164/3/3 163/3/3 162/3/3
f 165/3/3 163/3/3 164/3/3
f 166/1/3 165/1/3 164/1/3
f 167/1/3 165/1/3 166/1/3
f 168/3/3 167/3/3 166/3/3
f 169/3/3 167/3/3 168/3/3
f 170/2/3 169/2/3 168/2/3
f 171/2/3 169/2/3 170/2/3
f 172/2/4 173/2/4 174/2/4
f 174/2/4 173/2/4 175/2/4
f 174/3/4 175/3/4 176/3/4
f 176/3/4 175/3/4 177/3/4
f 176/1/4 177/1/4 178/1/4
f 178/1/4 177/1/4 179/1/4
f 178/3/4 179/3/4 180/3/4
f 180/3/4 179/3/4 181/3/4
f 180/2/4 181/2/4 182/2/4
f 182/2/4 181/2/4 183/2/4
f 184/2/4 185/2/4 186/2/4
f 186/2/4 185/2/4 187/2/4
f 187/2/4 185/2/4 188/2/4
f 186/4/4 187/4/4 189/4/4
f 187/3/4 188/3/4 190/3/4
f 189/4/4 187/4/4 190/4/4
f 189/3/4 190/3/4 191/3/4
f 190/3/4 188/3/4 191/3/4
f 188/2/4 185/2/4 192/2/4
f 191/3/4 188/3/4 192/3/4
f 189/3/4 191/3/4 193/3/4
f 191/1/4 192/1/4 194/1/4
f 193/3/4 191/3/4 194/3/4
f 193/1/4 194/1/4 195/1/4
f 192/2/4 185/2/4 196/2/4
f 195/1/4 194/1/4 196/1/4
f 194/1/4 192/1/4 196/1/4
f 195/2/4 196/2/4 197/2/4
f 196/2/4 185/2/4 198/2/4
f 197/2/4 196/2/4 198/2/4
f 199/6/4 200/6/4 205/6/4
f 200/5/4 201/5/4 205/5/4
f 201/7/4 202/7/4 206/7/4
f 205/5/4 201/5/4 206/5/4
f 202/9/4 203/9/4 207/9/4
f 206/7/4 202/7/4 207/7/4
f 205/7/4 206/7/4 208/7/4
f 199/6/4 205/6/4 208/6/4
f 206/5/4 207/5/4 209/5/4
f 208/7/4 206/7/4 209/7/4
f 199/6/4 208/6/4 210/6/4
f 208/5/4 209/5/4 210/5/4
f 207/9/4 203/9/4 211/9/4
f 210/5/4 209/5/4 211/5/4
f 209/5/4 207/5/4 211/5/4
f 199/6/4 210/6/4 212/6/4
f 210/7/4 211/7/4 212/7/4
f 211/9/4 203/9/4 213/9/4
f 212/7/4 211/7/4 213/7/4
f 212/5/4 213/5/4 214/5/4
f 213/9/4 203/9/4 215/9/4
f 214/5/4 213/5/4 215/5/4
f 199/6/4 212/6/4 216/6/4
f 212/5/4 214/5/4 216/5/4
f 214/7/4 215/7/4 217/7/4
f 216/5/4 214/5/4 217/5/4
f 215/9/4 203/9/4 218/9/4
f 217/7/4 215/7/4 218/7/4
f 216/7/4 217/7/4 219/7/4
f 199/6/4 216/6/4 219/6/4
f 217/5/4 218/5/4 220/5/4
f 219/7/4 217/7/4 220/7/4
f 219/5/4 220/5/4 221/5/4
f 220/5/4 218/5/4 221/5/4
f 218/9/4 203/9/4 222/9/4
f 221/5/4 218/5/4 222/5/4
f 199/6/4 219/6/4 223/6/4
f 219/5/4 221/5/4 224/5/4
f 223/6/4 219/6/4 224/6/4
f 221/7/4 222/7/4 225/7/4
f 224/5/4 221/5/4 225/5/4
f 222/9/4 203/9/4 226/9/4
f 225/7/4 222/7/4 226/7/4
f 203/8/4 204/8/4 227/8/4
f 226/9/4 203/9/4 227/9/4
f 227/8/4 204/8/4 228/8/4
f 231/6/5 230/6/5 229/6/5
f 232/6/5 230/6/5 231/6/5
f 233/6/5 231/6/5 229/6/5
f 233/3/5 232/3/5 231/3/5
f 234/6/5 230/6/5 232/6/5
f 234/3/5 232/3/5 233/3/5
f 235/6/5 233/6/5 229/6/5
f 235/6/5 234/6/5 233/6/5
f 236/6/5 230/6/5 234/6/5
f 236/6/5 234/6/5 235/6/5
f 237/8/6 238/8/6 239/8/6
f 239/8/6 238/8/6 240/8/6
f 240/8/6 238/8/6 241/8/6
f 241/8/6 238/8/6 242/8/6
f 242/8/6 238/8/6 243/8/6
f 243/8/6 238/8/6 244/8/6
f 237/8/6 239/8/6 245/8/6
f 244/8/6 238/8/6 246/8/6
f 237/8/6 245/8/6 247/8/6
f 246/8/6 238/8/6 248/8/6
f 237/8/6 247/8/6 249/8/6
f 248/8/6 238/8/6 250/8/6
f 237/8/6 249/8/6 251/8/6
f 250/8/6 238/8/6 252/8/6
f 237/8/6 251/8/6 253/8/6
f 252/8/6 238/8/6 258/8/6
f 256/8/6 257/8/6 259/8/6
f 257/8/6 258/8/6 259/8/6
f 237/8/6 253/8/6 259/8/6
f 253/8/6 254/8/6 259/8/6
f 255/8/6 256/8/6 259/8/6
f 254/8/6 255/8/6 259/8/6
f 258/8/6 238/8/6 260/8/6
f 259/8/6 258/8/6 260/8/6
f 261/2/6 262/2/6 263/2/6
f 263/2/6 262/2/6 264/2/6
f 264/2/6 262/2/6 265/2/6
f 265/2/6 262/2/6 266/2/6
f 266/2/6 262/2/6 267/2/6
f 267/2/6 262/2/6 268/2/6
f 261/2/6 263/2/6 269/2/6
f 268/2/6 262/2/6 270/2/6
f 261/2/6 269/2/6 271/2/6
f 270/2/6 262/2/6 272/2/6
f 261/2/6 271/2/6 273/2/6
f 272/2/6 262/2/6 274/2/6
f 261/2/6 273/2/6 275/2/6
f 274/2/6 262/2/6 276/2/6
f 261/2/6 275/2/6 277/2/6
f 276/2/6 262/2/6 282/2/6
f 280/2/6 281/2/6 283/2/6
f 281/2/6 282/2/6 283/2/6
f 261/2/6 277/2/6 283/2/6
f 277/2/6 278/2/6 283/2/6
f 279/2/6 280/2/6 283/2/6
f 278/2/6 279/2/6 283/2/6
f 282/2/6 262/2/6 284/2/6
f 283/2/6 282/2/6 284/2/6
f 285/2/6 286/2/6 291/2/6
f 286/3/6 287/3/6 292/3/6
f 291/2/6 286/2/6 292/2/6
f 287/1/6 288/1/6 293/1/6
f 292/3/6 287/3/6 293/3/6
f 288/3/6 289/3/6 294/3/6
f 293/1/6 288/1/6 294/1/6
f 289/2/6 290/2/6 295/2/6
f 294/3/6 289/3/6 295/3/6
f 295/2/6 290/2/6 296/2/6
f 293/3/6 294/3/6 297/3/6
f 291/3/6 292/3/6 297/3/6
f 295/3/6 296/3/6 297/3/6
f 294/3/6 295/3/6 297/3/6
f 292/3/6 293/3/6 297/3/6
f 297/3/6 296/3/6 298/3/6
f 298/3/6 296/3/6 299/3/6
f 299/3/6 296/3/6 300/3/6
f 297/1/6 298/1/6 301/1/6
f 298/3/6 299/3/6 302/3/6
f 301/1/6 298/1/6 302/1/6
f 299/1/6 300/1/6 303/1/6
f 302/3/6 299/3/6 303/3/6
f 303/1/6 300/1/6 304/1/6
f 301/3/6 302/3/6 305/3/6
f 302/3/6 303/3/6 305/3/6
f 303/3/6 304/3/6 305/3/6
f 305/3/6 304/3/6 306/3/6
f 306/3/6 304/3/6 307/3/6
f 307/3/6 304/3/6 308/3/6
f 308/3/6 304/3/6 309/3/6
f 309/3/6 304/3/6 310/3/6
f 305/2/6 306/2/6 311/2/6
f 306/3/6 307/3/6 312/3/6
f 311/2/6 306/2/6 312/2/6
f 307/1/6 308/1/6 313/1/6
f 312/3/6 307/3/6 313/3/6
f 308/3/6 309/3/6 314/3/6
f 313/1/6 308/1/6 314/1/6
f 309/2/6 310/2/6 315/2/6
f 314/3/6 309/3/6 315/3/6
f 315/2/6 310/2/6 316/2/6
