# MagicaVoxel @ Ephtracy

# group
g Laser

# material
mtllib Laser.mtl
usemtl palette

# normals
vn -1 0 0
vn 1 0 0
vn 0 0 1
vn 0 0 -1
vn 0 -1 0
vn 0 1 0

# texcoords
vt 0.841797 0.5
vt 0.849609 0.5
vt 0.966797 0.5
vt 0.978516 0.5
vt 0.994141 0.5

# verts
v -15 0 4
v -15 0 -4
v -15 1 4
v -15 1 -4
v -15 2 4
v -15 2 -4
v -14 2 3
v -14 2 2
v -14 2 -2
v -14 2 -3
v -14 5 2
v -14 5 -2
v -14 6 3
v -14 6 -3
v -13 2 2
v -13 2 -2
v -13 5 2
v -13 5 -2
v -9 2 3
v -9 2 2
v -9 2 -2
v -9 2 -3
v -9 5 3
v -9 5 2
v -9 5 -2
v -9 5 -3
v -4 0 4
v -4 0 -4
v -4 1 4
v -4 1 -4
v -4 2 4
v -4 2 -4
v -3 2 3
v -3 2 2
v -3 2 -2
v -3 2 -3
v -3 5 2
v -3 5 -2
v -3 6 3
v -3 6 -3
v -2 2 2
v -2 2 -2
v -2 5 2
v -2 5 -2
v 2 2 3
v 2 2 2
v 2 2 -2
v 2 2 -3
v 2 5 3
v 2 5 2
v 2 5 -2
v 2 5 -3
v 7 0 4
v 7 0 -4
v 7 1 4
v 7 1 -4
v 7 2 4
v 7 2 -4
v 8 2 3
v 8 2 2
v 8 2 -2
v 8 2 -3
v 8 5 2
v 8 5 -2
v 8 6 3
v 8 6 -3
v 9 2 2
v 9 2 -2
v 9 5 2
v 9 5 -2
v 13 2 3
v 13 2 2
v 13 2 -2
v 13 2 -3
v 13 3 3
v 13 3 2
v 13 5 -2
v 13 5 -3
v -13 2 3
v -13 2 2
v -13 2 -2
v -13 2 -3
v -13 5 3
v -13 5 2
v -13 5 -2
v -13 5 -3
v -9 2 2
v -9 2 -2
v -9 5 2
v -9 5 -2
v -8 2 3
v -8 2 2
v -8 2 -2
v -8 2 -3
v -8 5 2
v -8 5 -2
v -8 6 3
v -8 6 -3
v -7 0 4
v -7 0 -4
v -7 1 4
v -7 1 -4
v -7 2 4
v -7 2 -4
v -2 2 3
v -2 2 2
v -2 2 -2
v -2 2 -3
v -2 5 3
v -2 5 2
v -2 5 -2
v -2 5 -3
v 2 2 2
v 2 2 -2
v 2 5 2
v 2 5 -2
v 3 2 3
v 3 2 2
v 3 2 -2
v 3 2 -3
v 3 5 2
v 3 5 -2
v 3 6 3
v 3 6 -3
v 4 0 4
v 4 0 -4
v 4 1 4
v 4 1 -4
v 4 2 4
v 4 2 -4
v 9 2 3
v 9 2 2
v 9 2 -2
v 9 2 -3
v 9 3 3
v 9 3 2
v 9 5 -2
v 9 5 -3
v 13 2 2
v 13 2 -2
v 13 5 2
v 13 5 -2
v 14 2 3
v 14 2 2
v 14 2 -2
v 14 2 -3
v 14 5 2
v 14 5 -2
v 14 6 3
v 14 6 -3
v 15 0 4
v 15 0 -4
v 15 1 4
v 15 1 -4
v 15 2 4
v 15 2 -4
v -15 0 4
v -15 1 4
v -15 2 4
v -7 0 4
v -7 1 4
v -7 2 4
v -4 0 4
v -4 1 4
v -4 2 4
v 4 0 4
v 4 1 4
v 4 2 4
v 7 0 4
v 7 1 4
v 7 2 4
v 15 0 4
v 15 1 4
v 15 2 4
v -14 2 3
v -14 6 3
v -13 2 3
v -13 5 3
v -9 2 3
v -9 5 3
v -8 2 3
v -8 6 3
v -3 2 3
v -3 6 3
v -2 2 3
v -2 5 3
v 2 2 3
v 2 5 3
v 3 2 3
v 3 6 3
v 8 2 3
v 8 6 3
v 9 2 3
v 9 3 3
v 13 2 3
v 13 3 3
v 14 2 3
v 14 6 3
v -13 2 2
v -13 5 2
v -9 2 2
v -9 5 2
v -2 2 2
v -2 5 2
v 2 2 2
v 2 5 2
v 9 2 2
v 9 3 2
v 13 2 2
v 13 3 2
v -14 2 -2
v -14 5 -2
v -13 2 -2
v -13 5 -2
v -9 2 -2
v -9 5 -2
v -8 2 -2
v -8 5 -2
v -3 2 -2
v -3 5 -2
v -2 2 -2
v -2 5 -2
v 2 2 -2
v 2 5 -2
v 3 2 -2
v 3 5 -2
v 8 2 -2
v 8 5 -2
v 9 2 -2
v 9 5 -2
v 13 2 -2
v 13 5 -2
v 14 2 -2
v 14 5 -2
v -14 2 2
v -14 5 2
v -13 2 2
v -13 5 2
v -9 2 2
v -9 5 2
v -8 2 2
v -8 5 2
v -3 2 2
v -3 5 2
v -2 2 2
v -2 5 2
v 2 2 2
v 2 5 2
v 3 2 2
v 3 5 2
v 8 2 2
v 8 5 2
v 9 2 2
v 9 5 2
v 13 2 2
v 13 5 2
v 14 2 2
v 14 5 2
v -13 2 -2
v -13 5 -2
v -9 2 -2
v -9 5 -2
v -2 2 -2
v -2 5 -2
v 2 2 -2
v 2 5 -2
v 9 2 -2
v 9 5 -2
v 13 2 -2
v 13 5 -2
v -14 2 -3
v -14 6 -3
v -13 2 -3
v -13 5 -3
v -9 2 -3
v -9 5 -3
v -8 2 -3
v -8 6 -3
v -3 2 -3
v -3 6 -3
v -2 2 -3
v -2 5 -3
v 2 2 -3
v 2 5 -3
v 3 2 -3
v 3 6 -3
v 8 2 -3
v 8 6 -3
v 9 2 -3
v 9 5 -3
v 13 2 -3
v 13 5 -3
v 14 2 -3
v 14 6 -3
v -15 0 -4
v -15 1 -4
v -15 2 -4
v -7 0 -4
v -7 1 -4
v -7 2 -4
v -4 0 -4
v -4 1 -4
v -4 2 -4
v 4 0 -4
v 4 1 -4
v 4 2 -4
v 7 0 -4
v 7 1 -4
v 7 2 -4
v 15 0 -4
v 15 1 -4
v 15 2 -4
v -15 0 4
v -7 0 4
v -4 0 4
v 4 0 4
v 7 0 4
v 15 0 4
v -15 0 -4
v -7 0 -4
v -4 0 -4
v 4 0 -4
v 7 0 -4
v 15 0 -4
v 9 3 3
v 13 3 3
v 9 3 2
v 13 3 2
v -13 5 3
v -9 5 3
v -2 5 3
v 2 5 3
v -14 5 2
v -13 5 2
v -9 5 2
v -8 5 2
v -3 5 2
v -2 5 2
v 2 5 2
v 3 5 2
v 8 5 2
v 9 5 2
v 13 5 2
v 14 5 2
v -14 5 -2
v -13 5 -2
v -9 5 -2
v -8 5 -2
v -3 5 -2
v -2 5 -2
v 2 5 -2
v 3 5 -2
v 8 5 -2
v 9 5 -2
v 13 5 -2
v 14 5 -2
v -13 5 -3
v -9 5 -3
v -2 5 -3
v 2 5 -3
v 9 5 -3
v 13 5 -3
v -15 2 4
v -7 2 4
v -4 2 4
v 4 2 4
v 7 2 4
v 15 2 4
v -14 2 3
v -13 2 3
v -9 2 3
v -8 2 3
v -3 2 3
v -2 2 3
v 2 2 3
v 3 2 3
v 8 2 3
v 9 2 3
v 13 2 3
v 14 2 3
v -14 2 2
v -13 2 2
v -9 2 2
v -8 2 2
v -3 2 2
v -2 2 2
v 2 2 2
v 3 2 2
v 8 2 2
v 9 2 2
v 13 2 2
v 14 2 2
v -14 2 -2
v -13 2 -2
v -9 2 -2
v -8 2 -2
v -3 2 -2
v -2 2 -2
v 2 2 -2
v 3 2 -2
v 8 2 -2
v 9 2 -2
v 13 2 -2
v 14 2 -2
v -14 2 -3
v -13 2 -3
v -9 2 -3
v -8 2 -3
v -3 2 -3
v -2 2 -3
v 2 2 -3
v 3 2 -3
v 8 2 -3
v 9 2 -3
v 13 2 -3
v 14 2 -3
v -15 2 -4
v -7 2 -4
v -4 2 -4
v 4 2 -4
v 7 2 -4
v 15 2 -4
v -14 6 3
v -8 6 3
v -3 6 3
v 3 6 3
v 8 6 3
v 14 6 3
v -12 6 1
v -10 6 1
v -1 6 1
v 1 6 1
v 10 6 1
v 12 6 1
v -12 6 -1
v -10 6 -1
v -1 6 -1
v 1 6 -1
v 10 6 -1
v 12 6 -1
v -14 6 -3
v -8 6 -3
v -3 6 -3
v 3 6 -3
v 8 6 -3
v 14 6 -3

# faces
f 3/4/1 2/4/1 1/4/1
f 4/4/1 2/4/1 3/4/1
f 5/5/1 4/5/1 3/5/1
f 6/5/1 4/5/1 5/5/1
f 11/5/1 8/5/1 7/5/1
f 12/5/1 10/5/1 9/5/1
f 13/5/1 11/5/1 7/5/1
f 13/5/1 12/5/1 11/5/1
f 14/5/1 10/5/1 12/5/1
f 14/5/1 12/5/1 13/5/1
f 17/5/1 16/5/1 15/5/1
f 18/5/1 16/5/1 17/5/1
f 23/5/1 20/5/1 19/5/1
f 24/5/1 20/5/1 23/5/1
f 25/5/1 22/5/1 21/5/1
f 26/5/1 22/5/1 25/5/1
f 29/3/1 28/3/1 27/3/1
f 30/3/1 28/3/1 29/3/1
f 31/5/1 30/5/1 29/5/1
f 32/5/1 30/5/1 31/5/1
f 37/5/1 34/5/1 33/5/1
f 38/5/1 36/5/1 35/5/1
f 39/5/1 37/5/1 33/5/1
f 39/5/1 38/5/1 37/5/1
f 40/5/1 36/5/1 38/5/1
f 40/5/1 38/5/1 39/5/1
f 43/5/1 42/5/1 41/5/1
f 44/5/1 42/5/1 43/5/1
f 49/5/1 46/5/1 45/5/1
f 50/5/1 46/5/1 49/5/1
f 51/5/1 48/5/1 47/5/1
f 52/5/1 48/5/1 51/5/1
f 55/4/1 54/4/1 53/4/1
f 56/4/1 54/4/1 55/4/1
f 57/5/1 56/5/1 55/5/1
f 58/5/1 56/5/1 57/5/1
f 63/5/1 60/5/1 59/5/1
f 64/5/1 62/5/1 61/5/1
f 65/5/1 63/5/1 59/5/1
f 65/5/1 64/5/1 63/5/1
f 66/5/1 62/5/1 64/5/1
f 66/5/1 64/5/1 65/5/1
f 69/5/1 68/5/1 67/5/1
f 70/5/1 68/5/1 69/5/1
f 75/5/1 72/5/1 71/5/1
f 76/5/1 72/5/1 75/5/1
f 77/5/1 74/5/1 73/5/1
f 78/5/1 74/5/1 77/5/1
f 79/5/2 80/5/2 83/5/2
f 83/5/2 80/5/2 84/5/2
f 81/5/2 82/5/2 85/5/2
f 85/5/2 82/5/2 86/5/2
f 87/5/2 88/5/2 89/5/2
f 89/5/2 88/5/2 90/5/2
f 91/5/2 92/5/2 95/5/2
f 93/5/2 94/5/2 96/5/2
f 91/5/2 95/5/2 97/5/2
f 95/5/2 96/5/2 97/5/2
f 96/5/2 94/5/2 98/5/2
f 97/5/2 96/5/2 98/5/2
f 99/4/2 100/4/2 101/4/2
f 101/4/2 100/4/2 102/4/2
f 101/5/2 102/5/2 103/5/2
f 103/5/2 102/5/2 104/5/2
f 105/5/2 106/5/2 109/5/2
f 109/5/2 106/5/2 110/5/2
f 107/5/2 108/5/2 111/5/2
f 111/5/2 108/5/2 112/5/2
f 113/5/2 114/5/2 115/5/2
f 115/5/2 114/5/2 116/5/2
f 117/5/2 118/5/2 121/5/2
f 119/5/2 120/5/2 122/5/2
f 117/5/2 121/5/2 123/5/2
f 121/5/2 122/5/2 123/5/2
f 122/5/2 120/5/2 124/5/2
f 123/5/2 122/5/2 124/5/2
f 125/3/2 126/3/2 127/3/2
f 127/3/2 126/3/2 128/3/2
f 127/5/2 128/5/2 129/5/2
f 129/5/2 128/5/2 130/5/2
f 131/5/2 132/5/2 135/5/2
f 135/5/2 132/5/2 136/5/2
f 133/5/2 134/5/2 137/5/2
f 137/5/2 134/5/2 138/5/2
f 139/5/2 140/5/2 141/5/2
f 141/5/2 140/5/2 142/5/2
f 143/5/2 144/5/2 147/5/2
f 145/5/2 146/5/2 148/5/2
f 143/5/2 147/5/2 149/5/2
f 147/5/2 148/5/2 149/5/2
f 148/5/2 146/5/2 150/5/2
f 149/5/2 148/5/2 150/5/2
f 151/4/2 152/4/2 153/4/2
f 153/4/2 152/4/2 154/4/2
f 153/5/2 154/5/2 155/5/2
f 155/5/2 154/5/2 156/5/2
f 160/4/3 158/4/3 157/4/3
f 161/5/3 159/5/3 158/5/3
f 161/4/3 158/4/3 160/4/3
f 162/5/3 159/5/3 161/5/3
f 166/3/3 164/3/3 163/3/3
f 167/5/3 165/5/3 164/5/3
f 167/3/3 164/3/3 166/3/3
f 168/5/3 165/5/3 167/5/3
f 172/4/3 170/4/3 169/4/3
f 173/5/3 171/5/3 170/5/3
f 173/4/3 170/4/3 172/4/3
f 174/5/3 171/5/3 173/5/3
f 177/5/3 176/5/3 175/5/3
f 178/5/3 176/5/3 177/5/3
f 180/5/3 176/5/3 178/5/3
f 181/5/3 180/5/3 179/5/3
f 182/5/3 176/5/3 180/5/3
f 182/5/3 180/5/3 181/5/3
f 185/5/3 184/5/3 183/5/3
f 186/5/3 184/5/3 185/5/3
f 188/5/3 184/5/3 186/5/3
f 189/5/3 188/5/3 187/5/3
f 190/5/3 184/5/3 188/5/3
f 190/5/3 188/5/3 189/5/3
f 193/5/3 192/5/3 191/5/3
f 194/5/3 192/5/3 193/5/3
f 196/5/3 192/5/3 194/5/3
f 197/5/3 196/5/3 195/5/3
f 198/5/3 192/5/3 196/5/3
f 198/5/3 196/5/3 197/5/3
f 201/5/3 200/5/3 199/5/3
f 202/5/3 200/5/3 201/5/3
f 205/5/3 204/5/3 203/5/3
f 206/5/3 204/5/3 205/5/3
f 209/5/3 208/5/3 207/5/3
f 210/5/3 208/5/3 209/5/3
f 213/5/3 212/5/3 211/5/3
f 214/5/3 212/5/3 213/5/3
f 217/5/3 216/5/3 215/5/3
f 218/5/3 216/5/3 217/5/3
f 221/5/3 220/5/3 219/5/3
f 222/5/3 220/5/3 221/5/3
f 225/5/3 224/5/3 223/5/3
f 226/5/3 224/5/3 225/5/3
f 229/5/3 228/5/3 227/5/3
f 230/5/3 228/5/3 229/5/3
f 233/5/3 232/5/3 231/5/3
f 234/5/3 232/5/3 233/5/3
f 235/5/4 236/5/4 237/5/4
f 237/5/4 236/5/4 238/5/4
f 239/5/4 240/5/4 241/5/4
f 241/5/4 240/5/4 242/5/4
f 243/5/4 244/5/4 245/5/4
f 245/5/4 244/5/4 246/5/4
f 247/5/4 248/5/4 249/5/4
f 249/5/4 248/5/4 250/5/4
f 251/5/4 252/5/4 253/5/4
f 253/5/4 252/5/4 254/5/4
f 255/5/4 256/5/4 257/5/4
f 257/5/4 256/5/4 258/5/4
f 259/5/4 260/5/4 261/5/4
f 261/5/4 260/5/4 262/5/4
f 263/5/4 264/5/4 265/5/4
f 265/5/4 264/5/4 266/5/4
f 267/5/4 268/5/4 269/5/4
f 269/5/4 268/5/4 270/5/4
f 271/5/4 272/5/4 273/5/4
f 273/5/4 272/5/4 274/5/4
f 274/5/4 272/5/4 276/5/4
f 275/5/4 276/5/4 277/5/4
f 276/5/4 272/5/4 278/5/4
f 277/5/4 276/5/4 278/5/4
f 279/5/4 280/5/4 281/5/4
f 281/5/4 280/5/4 282/5/4
f 282/5/4 280/5/4 284/5/4
f 283/5/4 284/5/4 285/5/4
f 284/5/4 280/5/4 286/5/4
f 285/5/4 284/5/4 286/5/4
f 287/5/4 288/5/4 289/5/4
f 289/5/4 288/5/4 290/5/4
f 290/5/4 288/5/4 292/5/4
f 291/5/4 292/5/4 293/5/4
f 292/5/4 288/5/4 294/5/4
f 293/5/4 292/5/4 294/5/4
f 295/4/4 296/4/4 298/4/4
f 296/5/4 297/5/4 299/5/4
f 298/4/4 296/4/4 299/4/4
f 299/5/4 297/5/4 300/5/4
f 301/3/4 302/3/4 304/3/4
f 302/5/4 303/5/4 305/5/4
f 304/3/4 302/3/4 305/3/4
f 305/5/4 303/5/4 306/5/4
f 307/4/4 308/4/4 310/4/4
f 308/5/4 309/5/4 311/5/4
f 310/4/4 308/4/4 311/4/4
f 311/5/4 309/5/4 312/5/4
f 319/4/5 314/4/5 313/4/5
f 320/4/5 314/4/5 319/4/5
f 321/3/5 316/3/5 315/3/5
f 322/3/5 316/3/5 321/3/5
f 323/4/5 318/4/5 317/4/5
f 324/4/5 318/4/5 323/4/5
f 327/5/5 326/5/5 325/5/5
f 328/5/5 326/5/5 327/5/5
f 334/5/5 330/5/5 329/5/5
f 335/5/5 330/5/5 334/5/5
f 338/5/5 332/5/5 331/5/5
f 339/5/5 332/5/5 338/5/5
f 345/5/5 334/5/5 333/5/5
f 346/5/5 334/5/5 345/5/5
f 347/5/5 336/5/5 335/5/5
f 348/5/5 336/5/5 347/5/5
f 349/5/5 338/5/5 337/5/5
f 350/5/5 338/5/5 349/5/5
f 351/5/5 340/5/5 339/5/5
f 352/5/5 340/5/5 351/5/5
f 353/5/5 342/5/5 341/5/5
f 354/5/5 342/5/5 353/5/5
f 355/5/5 344/5/5 343/5/5
f 356/5/5 344/5/5 355/5/5
f 357/5/5 347/5/5 346/5/5
f 358/5/5 347/5/5 357/5/5
f 359/5/5 351/5/5 350/5/5
f 360/5/5 351/5/5 359/5/5
f 361/5/5 355/5/5 354/5/5
f 362/5/5 355/5/5 361/5/5
f 363/5/6 364/5/6 369/5/6
f 369/5/6 364/5/6 370/5/6
f 370/5/6 364/5/6 371/5/6
f 371/5/6 364/5/6 372/5/6
f 365/5/6 366/5/6 373/5/6
f 373/5/6 366/5/6 374/5/6
f 374/5/6 366/5/6 375/5/6
f 375/5/6 366/5/6 376/5/6
f 367/5/6 368/5/6 377/5/6
f 377/5/6 368/5/6 378/5/6
f 378/5/6 368/5/6 379/5/6
f 379/5/6 368/5/6 380/5/6
f 363/5/6 369/5/6 381/5/6
f 370/1/6 371/1/6 382/1/6
f 382/1/6 371/1/6 383/1/6
f 372/5/6 364/5/6 384/5/6
f 365/5/6 373/5/6 385/5/6
f 374/2/6 375/2/6 386/2/6
f 386/2/6 375/2/6 387/2/6
f 376/5/6 366/5/6 388/5/6
f 367/5/6 377/5/6 389/5/6
f 378/1/6 379/1/6 390/1/6
f 390/1/6 379/1/6 391/1/6
f 380/5/6 368/5/6 392/5/6
f 363/5/6 381/5/6 393/5/6
f 381/1/6 382/1/6 393/1/6
f 393/1/6 382/1/6 394/1/6
f 383/1/6 384/1/6 395/1/6
f 384/5/6 364/5/6 396/5/6
f 395/1/6 384/1/6 396/1/6
f 365/5/6 385/5/6 397/5/6
f 385/2/6 386/2/6 397/2/6
f 397/2/6 386/2/6 398/2/6
f 387/2/6 388/2/6 399/2/6
f 388/5/6 366/5/6 400/5/6
f 399/2/6 388/2/6 400/2/6
f 367/5/6 389/5/6 401/5/6
f 389/1/6 390/1/6 401/1/6
f 401/1/6 390/1/6 402/1/6
f 391/1/6 392/1/6 403/1/6
f 392/5/6 368/5/6 404/5/6
f 403/1/6 392/1/6 404/1/6
f 363/5/6 393/5/6 405/5/6
f 394/1/6 395/1/6 406/1/6
f 406/1/6 395/1/6 407/1/6
f 396/5/6 364/5/6 408/5/6
f 365/5/6 397/5/6 409/5/6
f 398/2/6 399/2/6 410/2/6
f 410/2/6 399/2/6 411/2/6
f 400/5/6 366/5/6 412/5/6
f 367/5/6 401/5/6 413/5/6
f 402/1/6 403/1/6 414/1/6
f 414/1/6 403/1/6 415/1/6
f 404/5/6 368/5/6 416/5/6
f 406/5/6 407/5/6 417/5/6
f 363/5/6 405/5/6 417/5/6
f 407/5/6 408/5/6 417/5/6
f 405/5/6 406/5/6 417/5/6
f 408/5/6 364/5/6 418/5/6
f 417/5/6 408/5/6 418/5/6
f 410/5/6 411/5/6 419/5/6
f 411/5/6 412/5/6 419/5/6
f 365/5/6 409/5/6 419/5/6
f 409/5/6 410/5/6 419/5/6
f 412/5/6 366/5/6 420/5/6
f 419/5/6 412/5/6 420/5/6
f 414/5/6 415/5/6 421/5/6
f 367/5/6 413/5/6 421/5/6
f 415/5/6 416/5/6 421/5/6
f 413/5/6 414/5/6 421/5/6
f 416/5/6 368/5/6 422/5/6
f 421/5/6 416/5/6 422/5/6
f 423/5/6 424/5/6 429/5/6
f 429/5/6 424/5/6 430/5/6
f 425/5/6 426/5/6 431/5/6
f 431/5/6 426/5/6 432/5/6
f 427/5/6 428/5/6 433/5/6
f 433/5/6 428/5/6 434/5/6
f 423/5/6 429/5/6 435/5/6
f 429/1/6 430/1/6 435/1/6
f 430/5/6 424/5/6 436/5/6
f 435/1/6 430/1/6 436/1/6
f 425/5/6 431/5/6 437/5/6
f 431/1/6 432/1/6 437/1/6
f 432/5/6 426/5/6 438/5/6
f 437/1/6 432/1/6 438/1/6
f 433/1/6 434/1/6 439/1/6
f 427/5/6 433/5/6 439/5/6
f 434/5/6 428/5/6 440/5/6
f 439/1/6 434/1/6 440/1/6
f 423/5/6 435/5/6 441/5/6
f 435/5/6 436/5/6 441/5/6
f 436/5/6 424/5/6 442/5/6
f 441/5/6 436/5/6 442/5/6
f 425/5/6 437/5/6 443/5/6
f 437/5/6 438/5/6 443/5/6
f 438/5/6 426/5/6 444/5/6
f 443/5/6 438/5/6 444/5/6
f 427/5/6 439/5/6 445/5/6
f 439/5/6 440/5/6 445/5/6
f 440/5/6 428/5/6 446/5/6
f 445/5/6 440/5/6 446/5/6
