# MagicaVoxel @ Ephtracy

# group
g The Vault-29

# material
mtllib The Vault-29.mtl
usemtl palette

# normals
vn -1 0 0
vn 1 0 0
vn 0 0 1
vn 0 0 -1
vn 0 -1 0
vn 0 1 0

# texcoords
vt 0.00585938 0.5
vt 0.00976563 0.5
vt 0.970703 0.5

# verts
v 0 0 4
v 0 0 -4
v 0 3 4
v 0 3 -4
v 1 4 4
v 1 4 1
v 1 4 -1
v 1 4 -4
v 1 7 4
v 1 7 1
v 1 7 -1
v 1 7 -4
v 2 3 3
v 2 3 2
v 2 3 -2
v 2 3 -3
v 2 4 3
v 2 4 2
v 2 4 -2
v 2 4 -3
v 4 0 4
v 4 0 -4
v 4 3 4
v 4 3 3
v 4 3 2
v 4 3 -2
v 4 3 -3
v 4 3 -4
v 4 4 4
v 4 4 3
v 4 4 2
v 4 4 1
v 4 4 -1
v 4 4 -2
v 4 4 -3
v 4 4 -4
v 4 7 4
v 4 7 1
v 4 7 -1
v 4 7 -4
v 0 0 4
v 0 3 4
v 1 4 4
v 1 7 4
v 2 4 4
v 2 7 4
v 4 0 4
v 4 3 4
v 4 4 4
v 4 7 4
v 2 3 3
v 2 4 3
v 4 3 3
v 4 4 3
v 1 4 -1
v 1 7 -1
v 2 4 -1
v 2 7 -1
v 4 4 -1
v 4 7 -1
v 2 3 -2
v 2 4 -2
v 4 3 -2
v 4 4 -2
v 2 3 2
v 2 4 2
v 4 3 2
v 4 4 2
v 1 4 1
v 1 7 1
v 2 4 1
v 2 7 1
v 4 4 1
v 4 7 1
v 2 3 -3
v 2 4 -3
v 4 3 -3
v 4 4 -3
v 0 0 -4
v 0 3 -4
v 1 4 -4
v 1 7 -4
v 2 4 -4
v 2 7 -4
v 4 0 -4
v 4 3 -4
v 4 4 -4
v 4 7 -4
v 0 0 4
v 4 0 4
v 0 0 -4
v 4 0 -4
v 1 4 4
v 2 4 4
v 4 4 4
v 2 4 3
v 4 4 3
v 2 4 2
v 4 4 2
v 1 4 1
v 2 4 1
v 4 4 1
v 1 4 -1
v 2 4 -1
v 4 4 -1
v 2 4 -2
v 4 4 -2
v 2 4 -3
v 4 4 -3
v 1 4 -4
v 2 4 -4
v 4 4 -4
v 0 3 4
v 4 3 4
v 2 3 3
v 4 3 3
v 2 3 2
v 4 3 2
v 2 3 -2
v 4 3 -2
v 2 3 -3
v 4 3 -3
v 0 3 -4
v 4 3 -4
v 1 7 4
v 2 7 4
v 4 7 4
v 1 7 1
v 2 7 1
v 4 7 1
v 1 7 -1
v 2 7 -1
v 4 7 -1
v 1 7 -4
v 2 7 -4
v 4 7 -4

# faces
f 3/3/1 2/3/1 1/3/1
f 4/3/1 2/3/1 3/3/1
f 9/2/1 6/2/1 5/2/1
f 10/2/1 6/2/1 9/2/1
f 11/2/1 8/2/1 7/2/1
f 12/2/1 8/2/1 11/2/1
f 17/3/1 14/3/1 13/3/1
f 18/3/1 14/3/1 17/3/1
f 19/3/1 16/3/1 15/3/1
f 20/3/1 16/3/1 19/3/1
f 21/3/2 22/3/2 23/3/2
f 23/3/2 22/3/2 24/3/2
f 24/3/2 22/3/2 25/3/2
f 25/3/2 22/3/2 26/3/2
f 26/3/2 22/3/2 27/3/2
f 27/3/2 22/3/2 28/3/2
f 24/3/2 25/3/2 30/3/2
f 30/3/2 25/3/2 31/3/2
f 26/3/2 27/3/2 34/3/2
f 34/3/2 27/3/2 35/3/2
f 31/3/2 32/3/2 37/3/2
f 29/3/2 30/3/2 37/3/2
f 30/3/2 31/3/2 37/3/2
f 37/3/2 32/3/2 38/3/2
f 35/3/2 36/3/2 39/3/2
f 34/3/2 35/3/2 39/3/2
f 33/3/2 34/3/2 39/3/2
f 39/3/2 36/3/2 40/3/2
f 45/2/3 44/2/3 43/2/3
f 46/2/3 44/2/3 45/2/3
f 47/3/3 42/3/3 41/3/3
f 48/3/3 42/3/3 47/3/3
f 49/3/3 46/3/3 45/3/3
f 50/3/3 46/3/3 49/3/3
f 53/3/3 52/3/3 51/3/3
f 54/3/3 52/3/3 53/3/3
f 57/2/3 56/2/3 55/2/3
f 58/2/3 56/2/3 57/2/3
f 59/3/3 58/3/3 57/3/3
f 60/3/3 58/3/3 59/3/3
f 63/3/3 62/3/3 61/3/3
f 64/3/3 62/3/3 63/3/3
f 65/3/4 66/3/4 67/3/4
f 67/3/4 66/3/4 68/3/4
f 69/2/4 70/2/4 71/2/4
f 71/2/4 70/2/4 72/2/4
f 71/3/4 72/3/4 73/3/4
f 73/3/4 72/3/4 74/3/4
f 75/3/4 76/3/4 77/3/4
f 77/3/4 76/3/4 78/3/4
f 81/2/4 82/2/4 83/2/4
f 83/2/4 82/2/4 84/2/4
f 79/3/4 80/3/4 85/3/4
f 85/3/4 80/3/4 86/3/4
f 83/3/4 84/3/4 87/3/4
f 87/3/4 84/3/4 88/3/4
f 91/3/5 90/3/5 89/3/5
f 92/3/5 90/3/5 91/3/5
f 96/2/5 94/2/5 93/2/5
f 96/3/5 95/3/5 94/3/5
f 97/3/5 95/3/5 96/3/5
f 98/2/5 96/2/5 93/2/5
f 100/2/5 98/2/5 93/2/5
f 101/3/5 99/3/5 98/3/5
f 101/2/5 98/2/5 100/2/5
f 102/3/5 99/3/5 101/3/5
f 106/2/5 104/2/5 103/2/5
f 106/3/5 105/3/5 104/3/5
f 107/3/5 105/3/5 106/3/5
f 108/2/5 106/2/5 103/2/5
f 110/2/5 108/2/5 103/2/5
f 111/3/5 109/3/5 108/3/5
f 111/2/5 108/2/5 110/2/5
f 112/3/5 109/3/5 111/3/5
f 113/3/6 114/3/6 115/3/6
f 115/3/6 114/3/6 116/3/6
f 113/3/6 115/3/6 117/3/6
f 113/3/6 117/3/6 119/3/6
f 117/3/6 118/3/6 119/3/6
f 119/3/6 118/3/6 120/3/6
f 113/3/6 119/3/6 121/3/6
f 113/3/6 121/3/6 123/3/6
f 121/3/6 122/3/6 123/3/6
f 123/3/6 122/3/6 124/3/6
f 125/2/6 126/2/6 128/2/6
f 126/3/6 127/3/6 129/3/6
f 128/2/6 126/2/6 129/2/6
f 129/3/6 127/3/6 130/3/6
f 131/2/6 132/2/6 134/2/6
f 132/3/6 133/3/6 135/3/6
f 134/2/6 132/2/6 135/2/6
f 135/3/6 133/3/6 136/3/6
