# MagicaVoxel @ Ephtracy

# group
g SaltyThots-6

# material
mtllib SaltyThots-6.mtl
usemtl palette

# normals
vn -1 0 0
vn 1 0 0
vn 0 0 1
vn 0 0 -1
vn 0 -1 0
vn 0 1 0

# texcoords
vt 0.322266 0.5
vt 0.427734 0.5
vt 0.615234 0.5
vt 0.748047 0.5
vt 0.927734 0.5
vt 0.951172 0.5
vt 0.982422 0.5
vt 0.994141 0.5

# verts
v -7.5 0 0.5
v -7.5 0 -0.5
v -7.5 20 0.5
v -7.5 20 -0.5
v 7.5 0 0.5
v 7.5 0 -0.5
v 7.5 20 0.5
v 7.5 20 -0.5
v -7.5 0 0.5
v -7.5 20 0.5
v -6.5 1 0.5
v -6.5 6 0.5
v -6.5 8 0.5
v -6.5 19 0.5
v -5.5 8 0.5
v -5.5 9 0.5
v -5.5 11 0.5
v -5.5 15 0.5
v -4.5 1 0.5
v -4.5 5 0.5
v -4.5 7 0.5
v -4.5 9 0.5
v -4.5 11 0.5
v -4.5 15 0.5
v -4.5 17 0.5
v -3.5 1 0.5
v -3.5 5 0.5
v -3.5 6 0.5
v -3.5 7 0.5
v -3.5 11 0.5
v -3.5 15 0.5
v -3.5 16 0.5
v -3.5 17 0.5
v -3.5 18 0.5
v -2.5 11 0.5
v -2.5 15 0.5
v -2.5 16 0.5
v -2.5 17 0.5
v -1.5 6 0.5
v -1.5 7 0.5
v -1.5 9 0.5
v -1.5 11 0.5
v -1.5 15 0.5
v -1.5 16 0.5
v -0.5 8 0.5
v -0.5 9 0.5
v 0.5 8 0.5
v 0.5 9 0.5
v 1.5 6 0.5
v 1.5 7 0.5
v 1.5 8 0.5
v 1.5 9 0.5
v 1.5 11 0.5
v 1.5 15 0.5
v 1.5 16 0.5
v 2.5 7 0.5
v 2.5 8 0.5
v 2.5 11 0.5
v 2.5 15 0.5
v 2.5 16 0.5
v 2.5 17 0.5
v 3.5 1 0.5
v 3.5 5 0.5
v 3.5 11 0.5
v 3.5 15 0.5
v 3.5 16 0.5
v 3.5 17 0.5
v 3.5 18 0.5
v 4.5 1 0.5
v 4.5 5 0.5
v 4.5 7 0.5
v 4.5 9 0.5
v 4.5 11 0.5
v 4.5 15 0.5
v 4.5 17 0.5
v 5.5 8 0.5
v 5.5 9 0.5
v 5.5 11 0.5
v 5.5 15 0.5
v 6.5 1 0.5
v 6.5 6 0.5
v 6.5 8 0.5
v 6.5 19 0.5
v 7.5 0 0.5
v 7.5 20 0.5
v -7.5 0 -0.5
v -7.5 20 -0.5
v -6.5 1 -0.5
v -6.5 6 -0.5
v -6.5 8 -0.5
v -6.5 19 -0.5
v -5.5 8 -0.5
v -5.5 9 -0.5
v -5.5 11 -0.5
v -5.5 15 -0.5
v -4.5 1 -0.5
v -4.5 5 -0.5
v -4.5 7 -0.5
v -4.5 9 -0.5
v -4.5 11 -0.5
v -4.5 15 -0.5
v -4.5 17 -0.5
v -3.5 1 -0.5
v -3.5 5 -0.5
v -3.5 6 -0.5
v -3.5 7 -0.5
v -3.5 11 -0.5
v -3.5 15 -0.5
v -3.5 16 -0.5
v -3.5 17 -0.5
v -3.5 18 -0.5
v -2.5 11 -0.5
v -2.5 15 -0.5
v -2.5 16 -0.5
v -2.5 17 -0.5
v -1.5 6 -0.5
v -1.5 7 -0.5
v -1.5 9 -0.5
v -1.5 11 -0.5
v -1.5 15 -0.5
v -1.5 16 -0.5
v -0.5 8 -0.5
v -0.5 9 -0.5
v 0.5 8 -0.5
v 0.5 9 -0.5
v 1.5 6 -0.5
v 1.5 7 -0.5
v 1.5 8 -0.5
v 1.5 9 -0.5
v 1.5 11 -0.5
v 1.5 15 -0.5
v 1.5 16 -0.5
v 2.5 7 -0.5
v 2.5 8 -0.5
v 2.5 11 -0.5
v 2.5 15 -0.5
v 2.5 16 -0.5
v 2.5 17 -0.5
v 3.5 1 -0.5
v 3.5 5 -0.5
v 3.5 11 -0.5
v 3.5 15 -0.5
v 3.5 16 -0.5
v 3.5 17 -0.5
v 3.5 18 -0.5
v 4.5 1 -0.5
v 4.5 5 -0.5
v 4.5 7 -0.5
v 4.5 9 -0.5
v 4.5 11 -0.5
v 4.5 15 -0.5
v 4.5 17 -0.5
v 5.5 8 -0.5
v 5.5 9 -0.5
v 5.5 11 -0.5
v 5.5 15 -0.5
v 6.5 1 -0.5
v 6.5 6 -0.5
v 6.5 8 -0.5
v 6.5 19 -0.5
v 7.5 0 -0.5
v 7.5 20 -0.5
v -7.5 0 0.5
v 7.5 0 0.5
v -7.5 0 -0.5
v 7.5 0 -0.5
v -7.5 20 0.5
v 7.5 20 0.5
v -7.5 20 -0.5
v 7.5 20 -0.5

# faces
f 3/2/1 2/2/1 1/2/1
f 4/2/1 2/2/1 3/2/1
f 5/2/2 6/2/2 7/2/2
f 7/2/2 6/2/2 8/2/2
f 11/2/3 10/2/3 9/2/3
f 12/2/3 10/2/3 11/2/3
f 13/2/3 10/2/3 12/2/3
f 14/2/3 10/2/3 13/2/3
f 15/6/3 13/6/3 12/6/3
f 15/4/3 14/4/3 13/4/3
f 16/4/3 14/4/3 15/4/3
f 17/4/3 14/4/3 16/4/3
f 18/4/3 14/4/3 17/4/3
f 19/2/3 11/2/3 9/2/3
f 19/3/3 12/3/3 11/3/3
f 20/3/3 12/3/3 19/3/3
f 21/6/3 15/6/3 12/6/3
f 21/6/3 16/6/3 15/6/3
f 22/4/3 17/4/3 16/4/3
f 22/6/3 16/6/3 21/6/3
f 23/7/3 18/7/3 17/7/3
f 23/4/3 17/4/3 22/4/3
f 24/4/3 14/4/3 18/4/3
f 24/7/3 18/7/3 23/7/3
f 25/4/3 14/4/3 24/4/3
f 26/7/3 20/7/3 19/7/3
f 26/2/3 19/2/3 9/2/3
f 27/3/3 12/3/3 20/3/3
f 27/7/3 20/7/3 26/7/3
f 28/6/3 21/6/3 12/6/3
f 28/3/3 12/3/3 27/3/3
f 29/8/3 23/8/3 22/8/3
f 29/6/3 21/6/3 28/6/3
f 29/8/3 22/8/3 21/8/3
f 30/7/3 24/7/3 23/7/3
f 30/8/3 23/8/3 29/8/3
f 31/5/3 25/5/3 24/5/3
f 31/7/3 24/7/3 30/7/3
f 32/5/3 25/5/3 31/5/3
f 33/4/3 14/4/3 25/4/3
f 33/5/3 25/5/3 32/5/3
f 34/4/3 14/4/3 33/4/3
f 35/8/3 29/8/3 28/8/3
f 35/8/3 32/8/3 31/8/3
f 35/8/3 30/8/3 29/8/3
f 35/8/3 31/8/3 30/8/3
f 36/8/3 32/8/3 35/8/3
f 37/5/3 34/5/3 33/5/3
f 37/8/3 32/8/3 36/8/3
f 37/5/3 33/5/3 32/5/3
f 38/5/3 34/5/3 37/5/3
f 39/3/3 28/3/3 27/3/3
f 39/3/3 27/3/3 26/3/3
f 39/8/3 35/8/3 28/8/3
f 40/8/3 35/8/3 39/8/3
f 41/8/3 35/8/3 40/8/3
f 42/1/3 36/1/3 35/1/3
f 42/8/3 35/8/3 41/8/3
f 43/8/3 38/8/3 37/8/3
f 43/1/3 36/1/3 42/1/3
f 43/8/3 37/8/3 36/8/3
f 44/8/3 38/8/3 43/8/3
f 45/6/3 41/6/3 40/6/3
f 46/1/3 42/1/3 41/1/3
f 46/6/3 41/6/3 45/6/3
f 46/1/3 43/1/3 42/1/3
f 46/1/3 44/1/3 43/1/3
f 47/6/3 45/6/3 40/6/3
f 47/1/3 46/1/3 45/1/3
f 48/1/3 44/1/3 46/1/3
f 48/1/3 46/1/3 47/1/3
f 49/3/3 40/3/3 39/3/3
f 49/3/3 39/3/3 26/3/3
f 50/6/3 47/6/3 40/6/3
f 50/3/3 40/3/3 49/3/3
f 50/6/3 48/6/3 47/6/3
f 51/6/3 48/6/3 50/6/3
f 52/1/3 44/1/3 48/1/3
f 52/6/3 48/6/3 51/6/3
f 53/1/3 44/1/3 52/1/3
f 54/1/3 44/1/3 53/1/3
f 55/8/3 38/8/3 44/8/3
f 55/1/3 44/1/3 54/1/3
f 56/6/3 51/6/3 50/6/3
f 56/6/3 50/6/3 49/6/3
f 57/8/3 52/8/3 51/8/3
f 57/6/3 51/6/3 56/6/3
f 57/8/3 53/8/3 52/8/3
f 58/1/3 54/1/3 53/1/3
f 58/8/3 53/8/3 57/8/3
f 59/8/3 55/8/3 54/8/3
f 59/1/3 54/1/3 58/1/3
f 60/8/3 38/8/3 55/8/3
f 60/8/3 55/8/3 59/8/3
f 61/5/3 34/5/3 38/5/3
f 61/8/3 38/8/3 60/8/3
f 62/2/3 26/2/3 9/2/3
f 62/3/3 49/3/3 26/3/3
f 63/3/3 49/3/3 62/3/3
f 64/8/3 60/8/3 59/8/3
f 64/8/3 57/8/3 56/8/3
f 64/8/3 59/8/3 58/8/3
f 64/8/3 58/8/3 57/8/3
f 65/8/3 60/8/3 64/8/3
f 66/5/3 61/5/3 60/5/3
f 66/8/3 60/8/3 65/8/3
f 67/5/3 34/5/3 61/5/3
f 67/5/3 61/5/3 66/5/3
f 68/4/3 14/4/3 34/4/3
f 68/5/3 34/5/3 67/5/3
f 69/7/3 63/7/3 62/7/3
f 69/2/3 62/2/3 9/2/3
f 70/3/3 49/3/3 63/3/3
f 70/7/3 63/7/3 69/7/3
f 71/6/3 56/6/3 49/6/3
f 71/8/3 64/8/3 56/8/3
f 72/8/3 64/8/3 71/8/3
f 73/7/3 65/7/3 64/7/3
f 73/8/3 64/8/3 72/8/3
f 74/5/3 67/5/3 66/5/3
f 74/7/3 65/7/3 73/7/3
f 74/5/3 66/5/3 65/5/3
f 75/4/3 68/4/3 67/4/3
f 75/5/3 67/5/3 74/5/3
f 76/6/3 72/6/3 71/6/3
f 77/4/3 73/4/3 72/4/3
f 77/6/3 72/6/3 76/6/3
f 78/7/3 74/7/3 73/7/3
f 78/4/3 73/4/3 77/4/3
f 79/4/3 75/4/3 74/4/3
f 79/7/3 74/7/3 78/7/3
f 80/2/3 69/2/3 9/2/3
f 80/3/3 70/3/3 69/3/3
f 81/6/3 76/6/3 71/6/3
f 81/3/3 70/3/3 80/3/3
f 81/6/3 71/6/3 49/6/3
f 81/3/3 49/3/3 70/3/3
f 82/4/3 78/4/3 77/4/3
f 82/6/3 76/6/3 81/6/3
f 82/4/3 77/4/3 76/4/3
f 82/4/3 79/4/3 78/4/3
f 83/4/3 75/4/3 79/4/3
f 83/4/3 79/4/3 82/4/3
f 83/2/3 10/2/3 14/2/3
f 83/4/3 68/4/3 75/4/3
f 83/4/3 14/4/3 68/4/3
f 84/2/3 82/2/3 81/2/3
f 84/2/3 80/2/3 9/2/3
f 84/2/3 83/2/3 82/2/3
f 84/2/3 81/2/3 80/2/3
f 85/2/3 10/2/3 83/2/3
f 85/2/3 83/2/3 84/2/3
f 86/2/4 87/2/4 88/2/4
f 88/2/4 87/2/4 89/2/4
f 89/2/4 87/2/4 90/2/4
f 90/2/4 87/2/4 91/2/4
f 89/6/4 90/6/4 92/6/4
f 90/4/4 91/4/4 92/4/4
f 92/4/4 91/4/4 93/4/4
f 93/4/4 91/4/4 94/4/4
f 94/4/4 91/4/4 95/4/4
f 86/2/4 88/2/4 96/2/4
f 88/3/4 89/3/4 96/3/4
f 96/3/4 89/3/4 97/3/4
f 89/6/4 92/6/4 98/6/4
f 92/6/4 93/6/4 98/6/4
f 93/4/4 94/4/4 99/4/4
f 98/6/4 93/6/4 99/6/4
f 94/7/4 95/7/4 100/7/4
f 99/4/4 94/4/4 100/4/4
f 95/4/4 91/4/4 101/4/4
f 100/7/4 95/7/4 101/7/4
f 101/4/4 91/4/4 102/4/4
f 96/7/4 97/7/4 103/7/4
f 86/2/4 96/2/4 103/2/4
f 97/3/4 89/3/4 104/3/4
f 103/7/4 97/7/4 104/7/4
f 89/6/4 98/6/4 105/6/4
f 104/3/4 89/3/4 105/3/4
f 99/8/4 100/8/4 106/8/4
f 105/6/4 98/6/4 106/6/4
f 98/8/4 99/8/4 106/8/4
f 100/7/4 101/7/4 107/7/4
f 106/8/4 100/8/4 107/8/4
f 101/5/4 102/5/4 108/5/4
f 107/7/4 101/7/4 108/7/4
f 108/5/4 102/5/4 109/5/4
f 102/4/4 91/4/4 110/4/4
f 109/5/4 102/5/4 110/5/4
f 110/4/4 91/4/4 111/4/4
f 105/8/4 106/8/4 112/8/4
f 108/8/4 109/8/4 112/8/4
f 106/8/4 107/8/4 112/8/4
f 107/8/4 108/8/4 112/8/4
f 112/8/4 109/8/4 113/8/4
f 110/5/4 111/5/4 114/5/4
f 113/8/4 109/8/4 114/8/4
f 109/5/4 110/5/4 114/5/4
f 114/5/4 111/5/4 115/5/4
f 104/3/4 105/3/4 116/3/4
f 103/3/4 104/3/4 116/3/4
f 105/8/4 112/8/4 116/8/4
f 116/8/4 112/8/4 117/8/4
f 117/8/4 112/8/4 118/8/4
f 112/1/4 113/1/4 119/1/4
f 118/8/4 112/8/4 119/8/4
f 114/8/4 115/8/4 120/8/4
f 119/1/4 113/1/4 120/1/4
f 113/8/4 114/8/4 120/8/4
f 120/8/4 115/8/4 121/8/4
f 117/6/4 118/6/4 122/6/4
f 118/1/4 119/1/4 123/1/4
f 122/6/4 118/6/4 123/6/4
f 119/1/4 120/1/4 123/1/4
f 120/1/4 121/1/4 123/1/4
f 117/6/4 122/6/4 124/6/4
f 122/1/4 123/1/4 124/1/4
f 123/1/4 121/1/4 125/1/4
f 124/1/4 123/1/4 125/1/4
f 116/3/4 117/3/4 126/3/4
f 103/3/4 116/3/4 126/3/4
f 117/6/4 124/6/4 127/6/4
f 126/3/4 117/3/4 127/3/4
f 124/6/4 125/6/4 127/6/4
f 127/6/4 125/6/4 128/6/4
f 125/1/4 121/1/4 129/1/4
f 128/6/4 125/6/4 129/6/4
f 129/1/4 121/1/4 130/1/4
f 130/1/4 121/1/4 131/1/4
f 121/8/4 115/8/4 132/8/4
f 131/1/4 121/1/4 132/1/4
f 127/6/4 128/6/4 133/6/4
f 126/6/4 127/6/4 133/6/4
f 128/8/4 129/8/4 134/8/4
f 133/6/4 128/6/4 134/6/4
f 129/8/4 130/8/4 134/8/4
f 130/1/4 131/1/4 135/1/4
f 134/8/4 130/8/4 135/8/4
f 131/8/4 132/8/4 136/8/4
f 135/1/4 131/1/4 136/1/4
f 132/8/4 115/8/4 137/8/4
f 136/8/4 132/8/4 137/8/4
f 115/5/4 111/5/4 138/5/4
f 137/8/4 115/8/4 138/8/4
f 86/2/4 103/2/4 139/2/4
f 103/3/4 126/3/4 139/3/4
f 139/3/4 126/3/4 140/3/4
f 136/8/4 137/8/4 141/8/4
f 133/8/4 134/8/4 141/8/4
f 135/8/4 136/8/4 141/8/4
f 134/8/4 135/8/4 141/8/4
f 141/8/4 137/8/4 142/8/4
f 137/5/4 138/5/4 143/5/4
f 142/8/4 137/8/4 143/8/4
f 138/5/4 111/5/4 144/5/4
f 143/5/4 138/5/4 144/5/4
f 111/4/4 91/4/4 145/4/4
f 144/5/4 111/5/4 145/5/4
f 139/7/4 140/7/4 146/7/4
f 86/2/4 139/2/4 146/2/4
f 140/3/4 126/3/4 147/3/4
f 146/7/4 140/7/4 147/7/4
f 126/6/4 133/6/4 148/6/4
f 133/8/4 141/8/4 148/8/4
f 148/8/4 141/8/4 149/8/4
f 141/7/4 142/7/4 150/7/4
f 149/8/4 141/8/4 150/8/4
f 143/5/4 144/5/4 151/5/4
f 150/7/4 142/7/4 151/7/4
f 142/5/4 143/5/4 151/5/4
f 144/4/4 145/4/4 152/4/4
f 151/5/4 144/5/4 152/5/4
f 148/6/4 149/6/4 153/6/4
f 149/4/4 150/4/4 154/4/4
f 153/6/4 149/6/4 154/6/4
f 150/7/4 151/7/4 155/7/4
f 154/4/4 150/4/4 155/4/4
f 151/4/4 152/4/4 156/4/4
f 155/7/4 151/7/4 156/7/4
f 86/2/4 146/2/4 157/2/4
f 146/3/4 147/3/4 157/3/4
f 148/6/4 153/6/4 158/6/4
f 157/3/4 147/3/4 158/3/4
f 126/6/4 148/6/4 158/6/4
f 147/3/4 126/3/4 158/3/4
f 154/4/4 155/4/4 159/4/4
f 158/6/4 153/6/4 159/6/4
f 153/4/4 154/4/4 159/4/4
f 155/4/4 156/4/4 159/4/4
f 156/4/4 152/4/4 160/4/4
f 159/4/4 156/4/4 160/4/4
f 91/2/4 87/2/4 160/2/4
f 152/4/4 145/4/4 160/4/4
f 145/4/4 91/4/4 160/4/4
f 158/2/4 159/2/4 161/2/4
f 86/2/4 157/2/4 161/2/4
f 159/2/4 160/2/4 161/2/4
f 157/2/4 158/2/4 161/2/4
f 160/2/4 87/2/4 162/2/4
f 161/2/4 160/2/4 162/2/4
f 165/2/5 164/2/5 163/2/5
f 166/2/5 164/2/5 165/2/5
f 167/2/6 168/2/6 169/2/6
f 169/2/6 168/2/6 170/2/6
