# MagicaVoxel @ Ephtracy

# group
g SaltyThots-3

# material
mtllib SaltyThots-3.mtl
usemtl palette

# normals
vn -1 0 0
vn 1 0 0
vn 0 0 1
vn 0 0 -1
vn 0 -1 0
vn 0 1 0

# texcoords
vt 0.412109 0.5
vt 0.427734 0.5
vt 0.748047 0.5
vt 0.986328 0.5
vt 0.990234 0.5
vt 0.994141 0.5

# verts
v -7.5 0 0.5
v -7.5 0 -0.5
v -7.5 20 0.5
v -7.5 20 -0.5
v 7.5 0 0.5
v 7.5 0 -0.5
v 7.5 20 0.5
v 7.5 20 -0.5
v -7.5 0 0.5
v -7.5 20 0.5
v -6.5 1 0.5
v -6.5 7 0.5
v -6.5 8 0.5
v -6.5 19 0.5
v -5.5 7 0.5
v -5.5 8 0.5
v -5.5 9 0.5
v -4.5 1 0.5
v -4.5 5 0.5
v -4.5 8 0.5
v -4.5 9 0.5
v -4.5 10 0.5
v -3.5 1 0.5
v -3.5 5 0.5
v -3.5 12 0.5
v -3.5 14 0.5
v -3.5 17 0.5
v -2.5 11 0.5
v -2.5 12 0.5
v -2.5 14 0.5
v -2.5 15 0.5
v -2.5 17 0.5
v -2.5 18 0.5
v -1.5 8 0.5
v -1.5 9 0.5
v -1.5 10 0.5
v -1.5 11 0.5
v -1.5 15 0.5
v -1.5 16 0.5
v -0.5 7 0.5
v -0.5 8 0.5
v -0.5 9 0.5
v 0.5 4 0.5
v 0.5 5 0.5
v 0.5 7 0.5
v 0.5 8 0.5
v 0.5 9 0.5
v 1.5 8 0.5
v 1.5 9 0.5
v 1.5 10 0.5
v 1.5 11 0.5
v 1.5 15 0.5
v 1.5 16 0.5
v 2.5 4 0.5
v 2.5 5 0.5
v 2.5 11 0.5
v 2.5 12 0.5
v 2.5 14 0.5
v 2.5 15 0.5
v 2.5 17 0.5
v 2.5 18 0.5
v 3.5 1 0.5
v 3.5 5 0.5
v 3.5 12 0.5
v 3.5 14 0.5
v 3.5 17 0.5
v 4.5 1 0.5
v 4.5 5 0.5
v 4.5 8 0.5
v 4.5 9 0.5
v 4.5 10 0.5
v 5.5 7 0.5
v 5.5 8 0.5
v 5.5 9 0.5
v 6.5 1 0.5
v 6.5 7 0.5
v 6.5 8 0.5
v 6.5 19 0.5
v 7.5 0 0.5
v 7.5 20 0.5
v -7.5 0 -0.5
v -7.5 20 -0.5
v -6.5 1 -0.5
v -6.5 7 -0.5
v -6.5 8 -0.5
v -6.5 19 -0.5
v -5.5 7 -0.5
v -5.5 8 -0.5
v -5.5 9 -0.5
v -4.5 1 -0.5
v -4.5 5 -0.5
v -4.5 8 -0.5
v -4.5 9 -0.5
v -4.5 10 -0.5
v -3.5 1 -0.5
v -3.5 5 -0.5
v -3.5 12 -0.5
v -3.5 14 -0.5
v -3.5 17 -0.5
v -2.5 11 -0.5
v -2.5 12 -0.5
v -2.5 14 -0.5
v -2.5 15 -0.5
v -2.5 17 -0.5
v -2.5 18 -0.5
v -1.5 8 -0.5
v -1.5 9 -0.5
v -1.5 10 -0.5
v -1.5 11 -0.5
v -1.5 15 -0.5
v -1.5 16 -0.5
v -0.5 7 -0.5
v -0.5 8 -0.5
v -0.5 9 -0.5
v 0.5 4 -0.5
v 0.5 5 -0.5
v 0.5 7 -0.5
v 0.5 8 -0.5
v 0.5 9 -0.5
v 1.5 8 -0.5
v 1.5 9 -0.5
v 1.5 10 -0.5
v 1.5 11 -0.5
v 1.5 15 -0.5
v 1.5 16 -0.5
v 2.5 4 -0.5
v 2.5 5 -0.5
v 2.5 11 -0.5
v 2.5 12 -0.5
v 2.5 14 -0.5
v 2.5 15 -0.5
v 2.5 17 -0.5
v 2.5 18 -0.5
v 3.5 1 -0.5
v 3.5 5 -0.5
v 3.5 12 -0.5
v 3.5 14 -0.5
v 3.5 17 -0.5
v 4.5 1 -0.5
v 4.5 5 -0.5
v 4.5 8 -0.5
v 4.5 9 -0.5
v 4.5 10 -0.5
v 5.5 7 -0.5
v 5.5 8 -0.5
v 5.5 9 -0.5
v 6.5 1 -0.5
v 6.5 7 -0.5
v 6.5 8 -0.5
v 6.5 19 -0.5
v 7.5 0 -0.5
v 7.5 20 -0.5
v -7.5 0 0.5
v 7.5 0 0.5
v -7.5 0 -0.5
v 7.5 0 -0.5
v -7.5 20 0.5
v 7.5 20 0.5
v -7.5 20 -0.5
v 7.5 20 -0.5

# faces
f 3/2/1 2/2/1 1/2/1
f 4/2/1 2/2/1 3/2/1
f 5/2/2 6/2/2 7/2/2
f 7/2/2 6/2/2 8/2/2
f 11/2/3 10/2/3 9/2/3
f 12/2/3 10/2/3 11/2/3
f 13/2/3 10/2/3 12/2/3
f 14/2/3 10/2/3 13/2/3
f 15/4/3 12/4/3 11/4/3
f 15/5/3 13/5/3 12/5/3
f 16/3/3 14/3/3 13/3/3
f 16/5/3 13/5/3 15/5/3
f 17/3/3 14/3/3 16/3/3
f 18/2/3 11/2/3 9/2/3
f 18/4/3 15/4/3 11/4/3
f 18/4/3 16/4/3 15/4/3
f 19/4/3 16/4/3 18/4/3
f 20/5/3 17/5/3 16/5/3
f 20/4/3 16/4/3 19/4/3
f 21/3/3 14/3/3 17/3/3
f 21/5/3 17/5/3 20/5/3
f 22/3/3 14/3/3 21/3/3
f 23/5/3 19/5/3 18/5/3
f 23/2/3 18/2/3 9/2/3
f 24/4/3 20/4/3 19/4/3
f 24/5/3 19/5/3 23/5/3
f 24/4/3 21/4/3 20/4/3
f 25/3/3 14/3/3 22/3/3
f 26/3/3 14/3/3 25/3/3
f 27/3/3 14/3/3 26/3/3
f 28/3/3 25/3/3 22/3/3
f 29/1/3 26/1/3 25/1/3
f 29/3/3 25/3/3 28/3/3
f 30/6/3 27/6/3 26/6/3
f 30/1/3 26/1/3 29/1/3
f 31/6/3 27/6/3 30/6/3
f 32/3/3 14/3/3 27/3/3
f 32/6/3 27/6/3 31/6/3
f 33/3/3 14/3/3 32/3/3
f 34/4/3 21/4/3 24/4/3
f 34/4/3 24/4/3 23/4/3
f 35/5/3 22/5/3 21/5/3
f 35/4/3 21/4/3 34/4/3
f 36/3/3 28/3/3 22/3/3
f 36/5/3 22/5/3 35/5/3
f 37/1/3 31/1/3 30/1/3
f 37/3/3 28/3/3 36/3/3
f 37/1/3 29/1/3 28/1/3
f 37/1/3 30/1/3 29/1/3
f 38/6/3 33/6/3 32/6/3
f 38/1/3 31/1/3 37/1/3
f 38/6/3 32/6/3 31/6/3
f 39/6/3 33/6/3 38/6/3
f 40/4/3 34/4/3 23/4/3
f 41/5/3 35/5/3 34/5/3
f 41/4/3 34/4/3 40/4/3
f 42/1/3 37/1/3 36/1/3
f 42/5/3 35/5/3 41/5/3
f 42/1/3 36/1/3 35/1/3
f 42/1/3 39/1/3 38/1/3
f 42/1/3 38/1/3 37/1/3
f 43/4/3 40/4/3 23/4/3
f 44/4/3 40/4/3 43/4/3
f 45/5/3 41/5/3 40/5/3
f 45/4/3 40/4/3 44/4/3
f 46/1/3 42/1/3 41/1/3
f 46/5/3 41/5/3 45/5/3
f 47/1/3 39/1/3 42/1/3
f 47/1/3 42/1/3 46/1/3
f 48/4/3 46/4/3 45/4/3
f 48/4/3 45/4/3 44/4/3
f 48/5/3 47/5/3 46/5/3
f 49/1/3 39/1/3 47/1/3
f 49/5/3 47/5/3 48/5/3
f 50/1/3 39/1/3 49/1/3
f 51/1/3 39/1/3 50/1/3
f 52/1/3 39/1/3 51/1/3
f 53/6/3 33/6/3 39/6/3
f 53/1/3 39/1/3 52/1/3
f 54/5/3 44/5/3 43/5/3
f 54/4/3 43/4/3 23/4/3
f 55/4/3 48/4/3 44/4/3
f 55/5/3 44/5/3 54/5/3
f 55/4/3 49/4/3 48/4/3
f 56/1/3 52/1/3 51/1/3
f 56/3/3 51/3/3 50/3/3
f 57/1/3 52/1/3 56/1/3
f 58/1/3 52/1/3 57/1/3
f 59/6/3 53/6/3 52/6/3
f 59/1/3 52/1/3 58/1/3
f 60/6/3 33/6/3 53/6/3
f 60/6/3 53/6/3 59/6/3
f 61/3/3 14/3/3 33/3/3
f 61/6/3 33/6/3 60/6/3
f 62/2/3 23/2/3 9/2/3
f 62/4/3 54/4/3 23/4/3
f 62/4/3 55/4/3 54/4/3
f 63/4/3 49/4/3 55/4/3
f 63/4/3 55/4/3 62/4/3
f 64/1/3 58/1/3 57/1/3
f 64/3/3 57/3/3 56/3/3
f 65/6/3 60/6/3 59/6/3
f 65/1/3 58/1/3 64/1/3
f 65/6/3 59/6/3 58/6/3
f 66/3/3 61/3/3 60/3/3
f 66/6/3 60/6/3 65/6/3
f 67/2/3 62/2/3 9/2/3
f 67/5/3 63/5/3 62/5/3
f 68/4/3 49/4/3 63/4/3
f 68/5/3 63/5/3 67/5/3
f 69/4/3 49/4/3 68/4/3
f 70/5/3 50/5/3 49/5/3
f 70/4/3 49/4/3 69/4/3
f 71/3/3 64/3/3 56/3/3
f 71/5/3 50/5/3 70/5/3
f 71/3/3 56/3/3 50/3/3
f 71/3/3 65/3/3 64/3/3
f 71/3/3 66/3/3 65/3/3
f 72/4/3 68/4/3 67/4/3
f 72/4/3 69/4/3 68/4/3
f 73/5/3 70/5/3 69/5/3
f 73/4/3 69/4/3 72/4/3
f 74/3/3 71/3/3 70/3/3
f 74/5/3 70/5/3 73/5/3
f 75/4/3 72/4/3 67/4/3
f 75/2/3 67/2/3 9/2/3
f 76/5/3 73/5/3 72/5/3
f 76/4/3 72/4/3 75/4/3
f 77/3/3 74/3/3 73/3/3
f 77/5/3 73/5/3 76/5/3
f 78/3/3 14/3/3 61/3/3
f 78/3/3 74/3/3 77/3/3
f 78/2/3 10/2/3 14/2/3
f 78/3/3 71/3/3 74/3/3
f 78/3/3 61/3/3 66/3/3
f 78/3/3 66/3/3 71/3/3
f 79/2/3 77/2/3 76/2/3
f 79/2/3 76/2/3 75/2/3
f 79/2/3 78/2/3 77/2/3
f 79/2/3 75/2/3 9/2/3
f 80/2/3 10/2/3 78/2/3
f 80/2/3 78/2/3 79/2/3
f 81/2/4 82/2/4 83/2/4
f 83/2/4 82/2/4 84/2/4
f 84/2/4 82/2/4 85/2/4
f 85/2/4 82/2/4 86/2/4
f 83/4/4 84/4/4 87/4/4
f 84/5/4 85/5/4 87/5/4
f 85/3/4 86/3/4 88/3/4
f 87/5/4 85/5/4 88/5/4
f 88/3/4 86/3/4 89/3/4
f 81/2/4 83/2/4 90/2/4
f 83/4/4 87/4/4 90/4/4
f 87/4/4 88/4/4 90/4/4
f 90/4/4 88/4/4 91/4/4
f 88/5/4 89/5/4 92/5/4
f 91/4/4 88/4/4 92/4/4
f 89/3/4 86/3/4 93/3/4
f 92/5/4 89/5/4 93/5/4
f 93/3/4 86/3/4 94/3/4
f 90/5/4 91/5/4 95/5/4
f 81/2/4 90/2/4 95/2/4
f 91/4/4 92/4/4 96/4/4
f 95/5/4 91/5/4 96/5/4
f 92/4/4 93/4/4 96/4/4
f 94/3/4 86/3/4 97/3/4
f 97/3/4 86/3/4 98/3/4
f 98/3/4 86/3/4 99/3/4
f 94/3/4 97/3/4 100/3/4
f 97/1/4 98/1/4 101/1/4
f 100/3/4 97/3/4 101/3/4
f 98/6/4 99/6/4 102/6/4
f 101/1/4 98/1/4 102/1/4
f 102/6/4 99/6/4 103/6/4
f 99/3/4 86/3/4 104/3/4
f 103/6/4 99/6/4 104/6/4
f 104/3/4 86/3/4 105/3/4
f 96/4/4 93/4/4 106/4/4
f 95/4/4 96/4/4 106/4/4
f 93/5/4 94/5/4 107/5/4
f 106/4/4 93/4/4 107/4/4
f 94/3/4 100/3/4 108/3/4
f 107/5/4 94/5/4 108/5/4
f 102/1/4 103/1/4 109/1/4
f 108/3/4 100/3/4 109/3/4
f 100/1/4 101/1/4 109/1/4
f 101/1/4 102/1/4 109/1/4
f 104/6/4 105/6/4 110/6/4
f 109/1/4 103/1/4 110/1/4
f 103/6/4 104/6/4 110/6/4
f 110/6/4 105/6/4 111/6/4
f 95/4/4 106/4/4 112/4/4
f 106/5/4 107/5/4 113/5/4
f 112/4/4 106/4/4 113/4/4
f 108/1/4 109/1/4 114/1/4
f 113/5/4 107/5/4 114/5/4
f 107/1/4 108/1/4 114/1/4
f 110/1/4 111/1/4 114/1/4
f 109/1/4 110/1/4 114/1/4
f 95/4/4 112/4/4 115/4/4
f 115/4/4 112/4/4 116/4/4
f 112/5/4 113/5/4 117/5/4
f 116/4/4 112/4/4 117/4/4
f 113/1/4 114/1/4 118/1/4
f 117/5/4 113/5/4 118/5/4
f 114/1/4 111/1/4 119/1/4
f 118/1/4 114/1/4 119/1/4
f 117/4/4 118/4/4 120/4/4
f 116/4/4 117/4/4 120/4/4
f 118/5/4 119/5/4 120/5/4
f 119/1/4 111/1/4 121/1/4
f 120/5/4 119/5/4 121/5/4
f 121/1/4 111/1/4 122/1/4
f 122/1/4 111/1/4 123/1/4
f 123/1/4 111/1/4 124/1/4
f 111/6/4 105/6/4 125/6/4
f 124/1/4 111/1/4 125/1/4
f 115/5/4 116/5/4 126/5/4
f 95/4/4 115/4/4 126/4/4
f 116/4/4 120/4/4 127/4/4
f 126/5/4 116/5/4 127/5/4
f 120/4/4 121/4/4 127/4/4
f 123/1/4 124/1/4 128/1/4
f 122/3/4 123/3/4 128/3/4
f 128/1/4 124/1/4 129/1/4
f 129/1/4 124/1/4 130/1/4
f 124/6/4 125/6/4 131/6/4
f 130/1/4 124/1/4 131/1/4
f 125/6/4 105/6/4 132/6/4
f 131/6/4 125/6/4 132/6/4
f 105/3/4 86/3/4 133/3/4
f 132/6/4 105/6/4 133/6/4
f 81/2/4 95/2/4 134/2/4
f 95/4/4 126/4/4 134/4/4
f 126/4/4 127/4/4 134/4/4
f 127/4/4 121/4/4 135/4/4
f 134/4/4 127/4/4 135/4/4
f 129/1/4 130/1/4 136/1/4
f 128/3/4 129/3/4 136/3/4
f 131/6/4 132/6/4 137/6/4
f 136/1/4 130/1/4 137/1/4
f 130/6/4 131/6/4 137/6/4
f 132/3/4 133/3/4 138/3/4
f 137/6/4 132/6/4 138/6/4
f 81/2/4 134/2/4 139/2/4
f 134/5/4 135/5/4 139/5/4
f 135/4/4 121/4/4 140/4/4
f 139/5/4 135/5/4 140/5/4
f 140/4/4 121/4/4 141/4/4
f 121/5/4 122/5/4 142/5/4
f 141/4/4 121/4/4 142/4/4
f 128/3/4 136/3/4 143/3/4
f 142/5/4 122/5/4 143/5/4
f 122/3/4 128/3/4 143/3/4
f 136/3/4 137/3/4 143/3/4
f 137/3/4 138/3/4 143/3/4
f 139/4/4 140/4/4 144/4/4
f 140/4/4 141/4/4 144/4/4
f 141/5/4 142/5/4 145/5/4
f 144/4/4 141/4/4 145/4/4
f 142/3/4 143/3/4 146/3/4
f 145/5/4 142/5/4 146/5/4
f 139/4/4 144/4/4 147/4/4
f 81/2/4 139/2/4 147/2/4
f 144/5/4 145/5/4 148/5/4
f 147/4/4 144/4/4 148/4/4
f 145/3/4 146/3/4 149/3/4
f 148/5/4 145/5/4 149/5/4
f 133/3/4 86/3/4 150/3/4
f 149/3/4 146/3/4 150/3/4
f 86/2/4 82/2/4 150/2/4
f 146/3/4 143/3/4 150/3/4
f 138/3/4 133/3/4 150/3/4
f 143/3/4 138/3/4 150/3/4
f 148/2/4 149/2/4 151/2/4
f 147/2/4 148/2/4 151/2/4
f 149/2/4 150/2/4 151/2/4
f 81/2/4 147/2/4 151/2/4
f 150/2/4 82/2/4 152/2/4
f 151/2/4 150/2/4 152/2/4
f 155/2/5 154/2/5 153/2/5
f 156/2/5 154/2/5 155/2/5
f 157/2/6 158/2/6 159/2/6
f 159/2/6 158/2/6 160/2/6
