# MagicaVoxel @ Ephtracy

# group
g SaltyThots-7

# material
mtllib SaltyThots-7.mtl
usemtl palette

# normals
vn -1 0 0
vn 1 0 0
vn 0 0 1
vn 0 0 -1
vn 0 -1 0
vn 0 1 0

# texcoords
vt 0.115234 0.5
vt 0.146484 0.5
vt 0.236328 0.5
vt 0.279297 0.5
vt 0.357422 0.5
vt 0.427734 0.5
vt 0.748047 0.5
vt 0.958984 0.5
vt 0.966797 0.5

# verts
v -7.5 0 0.5
v -7.5 0 -0.5
v -7.5 20 0.5
v -7.5 20 -0.5
v 7.5 0 0.5
v 7.5 0 -0.5
v 7.5 20 0.5
v 7.5 20 -0.5
v -7.5 0 0.5
v -7.5 20 0.5
v -6.5 1 0.5
v -6.5 7 0.5
v -6.5 8 0.5
v -6.5 19 0.5
v -5.5 7 0.5
v -5.5 8 0.5
v -5.5 9 0.5
v -4.5 1 0.5
v -4.5 5 0.5
v -4.5 8 0.5
v -4.5 9 0.5
v -4.5 10 0.5
v -3.5 1 0.5
v -3.5 5 0.5
v -3.5 12 0.5
v -3.5 14 0.5
v -3.5 15 0.5
v -3.5 16 0.5
v -3.5 17 0.5
v -2.5 11 0.5
v -2.5 12 0.5
v -2.5 17 0.5
v -2.5 18 0.5
v -1.5 8 0.5
v -1.5 9 0.5
v -1.5 10 0.5
v -1.5 11 0.5
v -1.5 14 0.5
v -1.5 15 0.5
v -1.5 16 0.5
v -1.5 17 0.5
v -0.5 8 0.5
v -0.5 9 0.5
v 0.5 5 0.5
v 0.5 6 0.5
v 0.5 8 0.5
v 0.5 9 0.5
v 1.5 8 0.5
v 1.5 9 0.5
v 1.5 10 0.5
v 1.5 11 0.5
v 1.5 14 0.5
v 1.5 15 0.5
v 1.5 16 0.5
v 1.5 17 0.5
v 2.5 5 0.5
v 2.5 6 0.5
v 2.5 11 0.5
v 2.5 12 0.5
v 2.5 17 0.5
v 2.5 18 0.5
v 3.5 1 0.5
v 3.5 5 0.5
v 3.5 12 0.5
v 3.5 14 0.5
v 3.5 15 0.5
v 3.5 16 0.5
v 3.5 17 0.5
v 4.5 1 0.5
v 4.5 5 0.5
v 4.5 8 0.5
v 4.5 9 0.5
v 4.5 10 0.5
v 5.5 7 0.5
v 5.5 8 0.5
v 5.5 9 0.5
v 6.5 1 0.5
v 6.5 7 0.5
v 6.5 8 0.5
v 6.5 19 0.5
v 7.5 0 0.5
v 7.5 20 0.5
v -7.5 0 -0.5
v -7.5 20 -0.5
v -6.5 1 -0.5
v -6.5 7 -0.5
v -6.5 8 -0.5
v -6.5 19 -0.5
v -5.5 7 -0.5
v -5.5 8 -0.5
v -5.5 9 -0.5
v -4.5 1 -0.5
v -4.5 5 -0.5
v -4.5 8 -0.5
v -4.5 9 -0.5
v -4.5 10 -0.5
v -3.5 1 -0.5
v -3.5 5 -0.5
v -3.5 12 -0.5
v -3.5 14 -0.5
v -3.5 15 -0.5
v -3.5 16 -0.5
v -3.5 17 -0.5
v -2.5 11 -0.5
v -2.5 12 -0.5
v -2.5 17 -0.5
v -2.5 18 -0.5
v -1.5 8 -0.5
v -1.5 9 -0.5
v -1.5 10 -0.5
v -1.5 11 -0.5
v -1.5 14 -0.5
v -1.5 15 -0.5
v -1.5 16 -0.5
v -1.5 17 -0.5
v -0.5 8 -0.5
v -0.5 9 -0.5
v 0.5 5 -0.5
v 0.5 6 -0.5
v 0.5 8 -0.5
v 0.5 9 -0.5
v 1.5 8 -0.5
v 1.5 9 -0.5
v 1.5 10 -0.5
v 1.5 11 -0.5
v 1.5 14 -0.5
v 1.5 15 -0.5
v 1.5 16 -0.5
v 1.5 17 -0.5
v 2.5 5 -0.5
v 2.5 6 -0.5
v 2.5 11 -0.5
v 2.5 12 -0.5
v 2.5 17 -0.5
v 2.5 18 -0.5
v 3.5 1 -0.5
v 3.5 5 -0.5
v 3.5 12 -0.5
v 3.5 14 -0.5
v 3.5 15 -0.5
v 3.5 16 -0.5
v 3.5 17 -0.5
v 4.5 1 -0.5
v 4.5 5 -0.5
v 4.5 8 -0.5
v 4.5 9 -0.5
v 4.5 10 -0.5
v 5.5 7 -0.5
v 5.5 8 -0.5
v 5.5 9 -0.5
v 6.5 1 -0.5
v 6.5 7 -0.5
v 6.5 8 -0.5
v 6.5 19 -0.5
v 7.5 0 -0.5
v 7.5 20 -0.5
v -7.5 0 0.5
v 7.5 0 0.5
v -7.5 0 -0.5
v 7.5 0 -0.5
v -7.5 20 0.5
v 7.5 20 0.5
v -7.5 20 -0.5
v 7.5 20 -0.5

# faces
f 3/6/1 2/6/1 1/6/1
f 4/6/1 2/6/1 3/6/1
f 5/6/2 6/6/2 7/6/2
f 7/6/2 6/6/2 8/6/2
f 11/6/3 10/6/3 9/6/3
f 12/6/3 10/6/3 11/6/3
f 13/6/3 10/6/3 12/6/3
f 14/6/3 10/6/3 13/6/3
f 15/8/3 12/8/3 11/8/3
f 15/9/3 13/9/3 12/9/3
f 16/7/3 14/7/3 13/7/3
f 16/9/3 13/9/3 15/9/3
f 17/7/3 14/7/3 16/7/3
f 18/6/3 11/6/3 9/6/3
f 18/8/3 15/8/3 11/8/3
f 18/8/3 16/8/3 15/8/3
f 19/8/3 16/8/3 18/8/3
f 20/9/3 17/9/3 16/9/3
f 20/8/3 16/8/3 19/8/3
f 21/7/3 14/7/3 17/7/3
f 21/9/3 17/9/3 20/9/3
f 22/7/3 14/7/3 21/7/3
f 23/9/3 19/9/3 18/9/3
f 23/6/3 18/6/3 9/6/3
f 24/8/3 20/8/3 19/8/3
f 24/9/3 19/9/3 23/9/3
f 24/8/3 21/8/3 20/8/3
f 25/7/3 14/7/3 22/7/3
f 26/7/3 14/7/3 25/7/3
f 27/7/3 14/7/3 26/7/3
f 28/7/3 14/7/3 27/7/3
f 29/7/3 14/7/3 28/7/3
f 30/7/3 25/7/3 22/7/3
f 31/5/3 26/5/3 25/5/3
f 31/7/3 25/7/3 30/7/3
f 32/7/3 14/7/3 29/7/3
f 32/1/3 29/1/3 28/1/3
f 33/7/3 14/7/3 32/7/3
f 34/8/3 21/8/3 24/8/3
f 34/8/3 24/8/3 23/8/3
f 35/9/3 22/9/3 21/9/3
f 35/8/3 21/8/3 34/8/3
f 36/7/3 30/7/3 22/7/3
f 36/9/3 22/9/3 35/9/3
f 37/5/3 31/5/3 30/5/3
f 37/7/3 30/7/3 36/7/3
f 38/5/3 26/5/3 31/5/3
f 38/5/3 31/5/3 37/5/3
f 38/4/3 27/4/3 26/4/3
f 39/2/3 28/2/3 27/2/3
f 39/4/3 27/4/3 38/4/3
f 40/1/3 33/1/3 32/1/3
f 40/2/3 28/2/3 39/2/3
f 40/1/3 32/1/3 28/1/3
f 41/1/3 33/1/3 40/1/3
f 42/8/3 34/8/3 23/8/3
f 42/9/3 35/9/3 34/9/3
f 43/5/3 39/5/3 38/5/3
f 43/9/3 35/9/3 42/9/3
f 43/5/3 37/5/3 36/5/3
f 43/5/3 36/5/3 35/5/3
f 43/5/3 38/5/3 37/5/3
f 44/8/3 42/8/3 23/8/3
f 45/8/3 42/8/3 44/8/3
f 46/5/3 43/5/3 42/5/3
f 46/8/3 42/8/3 45/8/3
f 47/5/3 39/5/3 43/5/3
f 47/5/3 43/5/3 46/5/3
f 48/8/3 46/8/3 45/8/3
f 48/9/3 47/9/3 46/9/3
f 49/5/3 39/5/3 47/5/3
f 49/9/3 47/9/3 48/9/3
f 50/5/3 39/5/3 49/5/3
f 51/5/3 39/5/3 50/5/3
f 52/5/3 39/5/3 51/5/3
f 53/2/3 40/2/3 39/2/3
f 53/5/3 39/5/3 52/5/3
f 54/3/3 41/3/3 40/3/3
f 54/2/3 40/2/3 53/2/3
f 55/1/3 33/1/3 41/1/3
f 55/3/3 41/3/3 54/3/3
f 56/9/3 45/9/3 44/9/3
f 56/8/3 44/8/3 23/8/3
f 57/8/3 48/8/3 45/8/3
f 57/9/3 45/9/3 56/9/3
f 57/8/3 49/8/3 48/8/3
f 58/5/3 52/5/3 51/5/3
f 58/7/3 51/7/3 50/7/3
f 59/5/3 52/5/3 58/5/3
f 60/1/3 33/1/3 55/1/3
f 60/1/3 55/1/3 54/1/3
f 61/7/3 14/7/3 33/7/3
f 61/1/3 33/1/3 60/1/3
f 62/6/3 23/6/3 9/6/3
f 62/8/3 56/8/3 23/8/3
f 62/8/3 57/8/3 56/8/3
f 63/8/3 57/8/3 62/8/3
f 64/5/3 52/5/3 59/5/3
f 64/7/3 59/7/3 58/7/3
f 65/4/3 53/4/3 52/4/3
f 65/5/3 52/5/3 64/5/3
f 66/2/3 54/2/3 53/2/3
f 66/4/3 53/4/3 65/4/3
f 67/1/3 60/1/3 54/1/3
f 67/2/3 54/2/3 66/2/3
f 68/7/3 61/7/3 60/7/3
f 68/1/3 60/1/3 67/1/3
f 69/9/3 63/9/3 62/9/3
f 69/6/3 62/6/3 9/6/3
f 70/8/3 57/8/3 63/8/3
f 70/9/3 63/9/3 69/9/3
f 71/8/3 49/8/3 57/8/3
f 71/8/3 57/8/3 70/8/3
f 72/9/3 50/9/3 49/9/3
f 72/8/3 49/8/3 71/8/3
f 73/7/3 66/7/3 65/7/3
f 73/9/3 50/9/3 72/9/3
f 73/7/3 65/7/3 64/7/3
f 73/7/3 68/7/3 67/7/3
f 73/7/3 67/7/3 66/7/3
f 73/7/3 58/7/3 50/7/3
f 73/7/3 64/7/3 58/7/3
f 74/8/3 71/8/3 70/8/3
f 74/8/3 70/8/3 69/8/3
f 75/9/3 72/9/3 71/9/3
f 75/8/3 71/8/3 74/8/3
f 76/7/3 73/7/3 72/7/3
f 76/9/3 72/9/3 75/9/3
f 77/8/3 74/8/3 69/8/3
f 77/6/3 69/6/3 9/6/3
f 78/9/3 75/9/3 74/9/3
f 78/8/3 74/8/3 77/8/3
f 79/7/3 76/7/3 75/7/3
f 79/9/3 75/9/3 78/9/3
f 80/7/3 14/7/3 61/7/3
f 80/7/3 76/7/3 79/7/3
f 80/6/3 10/6/3 14/6/3
f 80/7/3 73/7/3 76/7/3
f 80/7/3 68/7/3 73/7/3
f 80/7/3 61/7/3 68/7/3
f 81/6/3 79/6/3 78/6/3
f 81/6/3 78/6/3 77/6/3
f 81/6/3 80/6/3 79/6/3
f 81/6/3 77/6/3 9/6/3
f 82/6/3 10/6/3 80/6/3
f 82/6/3 80/6/3 81/6/3
f 83/6/4 84/6/4 85/6/4
f 85/6/4 84/6/4 86/6/4
f 86/6/4 84/6/4 87/6/4
f 87/6/4 84/6/4 88/6/4
f 85/8/4 86/8/4 89/8/4
f 86/9/4 87/9/4 89/9/4
f 87/7/4 88/7/4 90/7/4
f 89/9/4 87/9/4 90/9/4
f 90/7/4 88/7/4 91/7/4
f 83/6/4 85/6/4 92/6/4
f 85/8/4 89/8/4 92/8/4
f 89/8/4 90/8/4 92/8/4
f 92/8/4 90/8/4 93/8/4
f 90/9/4 91/9/4 94/9/4
f 93/8/4 90/8/4 94/8/4
f 91/7/4 88/7/4 95/7/4
f 94/9/4 91/9/4 95/9/4
f 95/7/4 88/7/4 96/7/4
f 92/9/4 93/9/4 97/9/4
f 83/6/4 92/6/4 97/6/4
f 93/8/4 94/8/4 98/8/4
f 97/9/4 93/9/4 98/9/4
f 94/8/4 95/8/4 98/8/4
f 96/7/4 88/7/4 99/7/4
f 99/7/4 88/7/4 100/7/4
f 100/7/4 88/7/4 101/7/4
f 101/7/4 88/7/4 102/7/4
f 102/7/4 88/7/4 103/7/4
f 96/7/4 99/7/4 104/7/4
f 99/5/4 100/5/4 105/5/4
f 104/7/4 99/7/4 105/7/4
f 103/7/4 88/7/4 106/7/4
f 102/1/4 103/1/4 106/1/4
f 106/7/4 88/7/4 107/7/4
f 98/8/4 95/8/4 108/8/4
f 97/8/4 98/8/4 108/8/4
f 95/9/4 96/9/4 109/9/4
f 108/8/4 95/8/4 109/8/4
f 96/7/4 104/7/4 110/7/4
f 109/9/4 96/9/4 110/9/4
f 104/5/4 105/5/4 111/5/4
f 110/7/4 104/7/4 111/7/4
f 105/5/4 100/5/4 112/5/4
f 111/5/4 105/5/4 112/5/4
f 100/4/4 101/4/4 112/4/4
f 101/2/4 102/2/4 113/2/4
f 112/4/4 101/4/4 113/4/4
f 106/1/4 107/1/4 114/1/4
f 113/2/4 102/2/4 114/2/4
f 102/1/4 106/1/4 114/1/4
f 114/1/4 107/1/4 115/1/4
f 97/8/4 108/8/4 116/8/4
f 108/9/4 109/9/4 116/9/4
f 112/5/4 113/5/4 117/5/4
f 116/9/4 109/9/4 117/9/4
f 110/5/4 111/5/4 117/5/4
f 109/5/4 110/5/4 117/5/4
f 111/5/4 112/5/4 117/5/4
f 97/8/4 116/8/4 118/8/4
f 118/8/4 116/8/4 119/8/4
f 116/5/4 117/5/4 120/5/4
f 119/8/4 116/8/4 120/8/4
f 117/5/4 113/5/4 121/5/4
f 120/5/4 117/5/4 121/5/4
f 119/8/4 120/8/4 122/8/4
f 120/9/4 121/9/4 122/9/4
f 121/5/4 113/5/4 123/5/4
f 122/9/4 121/9/4 123/9/4
f 123/5/4 113/5/4 124/5/4
f 124/5/4 113/5/4 125/5/4
f 125/5/4 113/5/4 126/5/4
f 113/2/4 114/2/4 127/2/4
f 126/5/4 113/5/4 127/5/4
f 114/3/4 115/3/4 128/3/4
f 127/2/4 114/2/4 128/2/4
f 115/1/4 107/1/4 129/1/4
f 128/3/4 115/3/4 129/3/4
f 118/9/4 119/9/4 130/9/4
f 97/8/4 118/8/4 130/8/4
f 119/8/4 122/8/4 131/8/4
f 130/9/4 119/9/4 131/9/4
f 122/8/4 123/8/4 131/8/4
f 125/5/4 126/5/4 132/5/4
f 124/7/4 125/7/4 132/7/4
f 132/5/4 126/5/4 133/5/4
f 129/1/4 107/1/4 134/1/4
f 128/1/4 129/1/4 134/1/4
f 107/7/4 88/7/4 135/7/4
f 134/1/4 107/1/4 135/1/4
f 83/6/4 97/6/4 136/6/4
f 97/8/4 130/8/4 136/8/4
f 130/8/4 131/8/4 136/8/4
f 136/8/4 131/8/4 137/8/4
f 133/5/4 126/5/4 138/5/4
f 132/7/4 133/7/4 138/7/4
f 126/4/4 127/4/4 139/4/4
f 138/5/4 126/5/4 139/5/4
f 127/2/4 128/2/4 140/2/4
f 139/4/4 127/4/4 140/4/4
f 128/1/4 134/1/4 141/1/4
f 140/2/4 128/2/4 141/2/4
f 134/7/4 135/7/4 142/7/4
f 141/1/4 134/1/4 142/1/4
f 136/9/4 137/9/4 143/9/4
f 83/6/4 136/6/4 143/6/4
f 137/8/4 131/8/4 144/8/4
f 143/9/4 137/9/4 144/9/4
f 131/8/4 123/8/4 145/8/4
f 144/8/4 131/8/4 145/8/4
f 123/9/4 124/9/4 146/9/4
f 145/8/4 123/8/4 146/8/4
f 139/7/4 140/7/4 147/7/4
f 146/9/4 124/9/4 147/9/4
f 138/7/4 139/7/4 147/7/4
f 141/7/4 142/7/4 147/7/4
f 140/7/4 141/7/4 147/7/4
f 124/7/4 132/7/4 147/7/4
f 132/7/4 138/7/4 147/7/4
f 144/8/4 145/8/4 148/8/4
f 143/8/4 144/8/4 148/8/4
f 145/9/4 146/9/4 149/9/4
f 148/8/4 145/8/4 149/8/4
f 146/7/4 147/7/4 150/7/4
f 149/9/4 146/9/4 150/9/4
f 143/8/4 148/8/4 151/8/4
f 83/6/4 143/6/4 151/6/4
f 148/9/4 149/9/4 152/9/4
f 151/8/4 148/8/4 152/8/4
f 149/7/4 150/7/4 153/7/4
f 152/9/4 149/9/4 153/9/4
f 135/7/4 88/7/4 154/7/4
f 153/7/4 150/7/4 154/7/4
f 88/6/4 84/6/4 154/6/4
f 150/7/4 147/7/4 154/7/4
f 147/7/4 142/7/4 154/7/4
f 142/7/4 135/7/4 154/7/4
f 152/6/4 153/6/4 155/6/4
f 151/6/4 152/6/4 155/6/4
f 153/6/4 154/6/4 155/6/4
f 83/6/4 151/6/4 155/6/4
f 154/6/4 84/6/4 156/6/4
f 155/6/4 154/6/4 156/6/4
f 159/6/5 158/6/5 157/6/5
f 160/6/5 158/6/5 159/6/5
f 161/6/6 162/6/6 163/6/6
f 163/6/6 162/6/6 164/6/6
