# MagicaVoxel @ Ephtracy

# group
g SaltyThots-4

# material
mtllib SaltyThots-4.mtl
usemtl palette

# normals
vn -1 0 0
vn 1 0 0
vn 0 0 1
vn 0 0 -1
vn 0 -1 0
vn 0 1 0

# texcoords
vt 0.310547 0.5
vt 0.376953 0.5
vt 0.427734 0.5
vt 0.748047 0.5
vt 0.978516 0.5
vt 0.982422 0.5
vt 0.994141 0.5

# verts
v -7.5 0 0.5
v -7.5 0 -0.5
v -7.5 20 0.5
v -7.5 20 -0.5
v 7.5 0 0.5
v 7.5 0 -0.5
v 7.5 20 0.5
v 7.5 20 -0.5
v -7.5 0 0.5
v -7.5 20 0.5
v -6.5 1 0.5
v -6.5 7 0.5
v -6.5 8 0.5
v -6.5 19 0.5
v -5.5 7 0.5
v -5.5 8 0.5
v -5.5 9 0.5
v -4.5 1 0.5
v -4.5 5 0.5
v -4.5 8 0.5
v -4.5 9 0.5
v -4.5 10 0.5
v -3.5 1 0.5
v -3.5 5 0.5
v -3.5 12 0.5
v -3.5 14 0.5
v -3.5 17 0.5
v -2.5 11 0.5
v -2.5 12 0.5
v -2.5 14 0.5
v -2.5 15 0.5
v -2.5 17 0.5
v -2.5 18 0.5
v -1.5 8 0.5
v -1.5 9 0.5
v -1.5 10 0.5
v -1.5 11 0.5
v -1.5 15 0.5
v -1.5 16 0.5
v -0.5 1 0.5
v -0.5 8 0.5
v -0.5 9 0.5
v 0.5 1 0.5
v 0.5 8 0.5
v 0.5 9 0.5
v 1.5 8 0.5
v 1.5 9 0.5
v 1.5 10 0.5
v 1.5 11 0.5
v 1.5 15 0.5
v 1.5 16 0.5
v 2.5 11 0.5
v 2.5 12 0.5
v 2.5 14 0.5
v 2.5 15 0.5
v 2.5 17 0.5
v 2.5 18 0.5
v 3.5 1 0.5
v 3.5 5 0.5
v 3.5 12 0.5
v 3.5 14 0.5
v 3.5 17 0.5
v 4.5 1 0.5
v 4.5 5 0.5
v 4.5 8 0.5
v 4.5 9 0.5
v 4.5 10 0.5
v 5.5 7 0.5
v 5.5 8 0.5
v 5.5 9 0.5
v 6.5 1 0.5
v 6.5 7 0.5
v 6.5 8 0.5
v 6.5 19 0.5
v 7.5 0 0.5
v 7.5 20 0.5
v -7.5 0 -0.5
v -7.5 20 -0.5
v -6.5 1 -0.5
v -6.5 7 -0.5
v -6.5 8 -0.5
v -6.5 19 -0.5
v -5.5 7 -0.5
v -5.5 8 -0.5
v -5.5 9 -0.5
v -4.5 1 -0.5
v -4.5 5 -0.5
v -4.5 8 -0.5
v -4.5 9 -0.5
v -4.5 10 -0.5
v -3.5 1 -0.5
v -3.5 5 -0.5
v -3.5 12 -0.5
v -3.5 14 -0.5
v -3.5 17 -0.5
v -2.5 11 -0.5
v -2.5 12 -0.5
v -2.5 14 -0.5
v -2.5 15 -0.5
v -2.5 17 -0.5
v -2.5 18 -0.5
v -1.5 8 -0.5
v -1.5 9 -0.5
v -1.5 10 -0.5
v -1.5 11 -0.5
v -1.5 15 -0.5
v -1.5 16 -0.5
v -0.5 1 -0.5
v -0.5 8 -0.5
v -0.5 9 -0.5
v 0.5 1 -0.5
v 0.5 8 -0.5
v 0.5 9 -0.5
v 1.5 8 -0.5
v 1.5 9 -0.5
v 1.5 10 -0.5
v 1.5 11 -0.5
v 1.5 15 -0.5
v 1.5 16 -0.5
v 2.5 11 -0.5
v 2.5 12 -0.5
v 2.5 14 -0.5
v 2.5 15 -0.5
v 2.5 17 -0.5
v 2.5 18 -0.5
v 3.5 1 -0.5
v 3.5 5 -0.5
v 3.5 12 -0.5
v 3.5 14 -0.5
v 3.5 17 -0.5
v 4.5 1 -0.5
v 4.5 5 -0.5
v 4.5 8 -0.5
v 4.5 9 -0.5
v 4.5 10 -0.5
v 5.5 7 -0.5
v 5.5 8 -0.5
v 5.5 9 -0.5
v 6.5 1 -0.5
v 6.5 7 -0.5
v 6.5 8 -0.5
v 6.5 19 -0.5
v 7.5 0 -0.5
v 7.5 20 -0.5
v -7.5 0 0.5
v 7.5 0 0.5
v -7.5 0 -0.5
v 7.5 0 -0.5
v -7.5 20 0.5
v 7.5 20 0.5
v -7.5 20 -0.5
v 7.5 20 -0.5

# faces
f 3/3/1 2/3/1 1/3/1
f 4/3/1 2/3/1 3/3/1
f 5/3/2 6/3/2 7/3/2
f 7/3/2 6/3/2 8/3/2
f 11/3/3 10/3/3 9/3/3
f 12/3/3 10/3/3 11/3/3
f 13/3/3 10/3/3 12/3/3
f 14/3/3 10/3/3 13/3/3
f 15/5/3 12/5/3 11/5/3
f 15/6/3 13/6/3 12/6/3
f 16/4/3 14/4/3 13/4/3
f 16/6/3 13/6/3 15/6/3
f 17/4/3 14/4/3 16/4/3
f 18/3/3 11/3/3 9/3/3
f 18/5/3 15/5/3 11/5/3
f 18/5/3 16/5/3 15/5/3
f 19/5/3 16/5/3 18/5/3
f 20/6/3 17/6/3 16/6/3
f 20/5/3 16/5/3 19/5/3
f 21/4/3 14/4/3 17/4/3
f 21/6/3 17/6/3 20/6/3
f 22/4/3 14/4/3 21/4/3
f 23/6/3 19/6/3 18/6/3
f 23/3/3 18/3/3 9/3/3
f 24/5/3 20/5/3 19/5/3
f 24/6/3 19/6/3 23/6/3
f 24/5/3 21/5/3 20/5/3
f 25/4/3 14/4/3 22/4/3
f 26/4/3 14/4/3 25/4/3
f 27/4/3 14/4/3 26/4/3
f 28/4/3 25/4/3 22/4/3
f 29/1/3 26/1/3 25/1/3
f 29/4/3 25/4/3 28/4/3
f 30/7/3 27/7/3 26/7/3
f 30/1/3 26/1/3 29/1/3
f 31/7/3 27/7/3 30/7/3
f 32/4/3 14/4/3 27/4/3
f 32/7/3 27/7/3 31/7/3
f 33/4/3 14/4/3 32/4/3
f 34/5/3 21/5/3 24/5/3
f 34/5/3 24/5/3 23/5/3
f 35/6/3 22/6/3 21/6/3
f 35/5/3 21/5/3 34/5/3
f 36/4/3 28/4/3 22/4/3
f 36/6/3 22/6/3 35/6/3
f 37/1/3 31/1/3 30/1/3
f 37/4/3 28/4/3 36/4/3
f 37/1/3 29/1/3 28/1/3
f 37/1/3 30/1/3 29/1/3
f 38/7/3 33/7/3 32/7/3
f 38/1/3 31/1/3 37/1/3
f 38/7/3 32/7/3 31/7/3
f 39/7/3 33/7/3 38/7/3
f 40/3/3 23/3/3 9/3/3
f 40/5/3 34/5/3 23/5/3
f 41/6/3 35/6/3 34/6/3
f 41/5/3 34/5/3 40/5/3
f 42/1/3 39/1/3 38/1/3
f 42/6/3 35/6/3 41/6/3
f 42/1/3 37/1/3 36/1/3
f 42/1/3 38/1/3 37/1/3
f 42/1/3 36/1/3 35/1/3
f 43/2/3 41/2/3 40/2/3
f 43/3/3 40/3/3 9/3/3
f 44/1/3 42/1/3 41/1/3
f 44/2/3 41/2/3 43/2/3
f 45/1/3 39/1/3 42/1/3
f 45/1/3 42/1/3 44/1/3
f 46/5/3 44/5/3 43/5/3
f 46/6/3 45/6/3 44/6/3
f 47/1/3 39/1/3 45/1/3
f 47/6/3 45/6/3 46/6/3
f 48/1/3 39/1/3 47/1/3
f 49/1/3 39/1/3 48/1/3
f 50/1/3 39/1/3 49/1/3
f 51/7/3 33/7/3 39/7/3
f 51/1/3 39/1/3 50/1/3
f 52/1/3 50/1/3 49/1/3
f 52/4/3 49/4/3 48/4/3
f 53/1/3 50/1/3 52/1/3
f 54/1/3 50/1/3 53/1/3
f 55/7/3 51/7/3 50/7/3
f 55/1/3 50/1/3 54/1/3
f 56/7/3 33/7/3 51/7/3
f 56/7/3 51/7/3 55/7/3
f 57/4/3 14/4/3 33/4/3
f 57/7/3 33/7/3 56/7/3
f 58/5/3 46/5/3 43/5/3
f 58/3/3 43/3/3 9/3/3
f 58/5/3 47/5/3 46/5/3
f 59/5/3 47/5/3 58/5/3
f 60/4/3 53/4/3 52/4/3
f 60/1/3 54/1/3 53/1/3
f 61/7/3 55/7/3 54/7/3
f 61/1/3 54/1/3 60/1/3
f 61/7/3 56/7/3 55/7/3
f 62/4/3 57/4/3 56/4/3
f 62/7/3 56/7/3 61/7/3
f 63/3/3 58/3/3 9/3/3
f 63/6/3 59/6/3 58/6/3
f 64/5/3 47/5/3 59/5/3
f 64/6/3 59/6/3 63/6/3
f 65/5/3 47/5/3 64/5/3
f 66/6/3 48/6/3 47/6/3
f 66/5/3 47/5/3 65/5/3
f 67/4/3 60/4/3 52/4/3
f 67/6/3 48/6/3 66/6/3
f 67/4/3 61/4/3 60/4/3
f 67/4/3 62/4/3 61/4/3
f 67/4/3 52/4/3 48/4/3
f 68/5/3 64/5/3 63/5/3
f 68/5/3 65/5/3 64/5/3
f 69/6/3 66/6/3 65/6/3
f 69/5/3 65/5/3 68/5/3
f 70/4/3 67/4/3 66/4/3
f 70/6/3 66/6/3 69/6/3
f 71/5/3 68/5/3 63/5/3
f 71/3/3 63/3/3 9/3/3
f 72/6/3 69/6/3 68/6/3
f 72/5/3 68/5/3 71/5/3
f 73/4/3 70/4/3 69/4/3
f 73/6/3 69/6/3 72/6/3
f 74/4/3 67/4/3 70/4/3
f 74/4/3 70/4/3 73/4/3
f 74/3/3 10/3/3 14/3/3
f 74/4/3 57/4/3 62/4/3
f 74/4/3 14/4/3 57/4/3
f 74/4/3 62/4/3 67/4/3
f 75/3/3 73/3/3 72/3/3
f 75/3/3 71/3/3 9/3/3
f 75/3/3 74/3/3 73/3/3
f 75/3/3 72/3/3 71/3/3
f 76/3/3 10/3/3 74/3/3
f 76/3/3 74/3/3 75/3/3
f 77/3/4 78/3/4 79/3/4
f 79/3/4 78/3/4 80/3/4
f 80/3/4 78/3/4 81/3/4
f 81/3/4 78/3/4 82/3/4
f 79/5/4 80/5/4 83/5/4
f 80/6/4 81/6/4 83/6/4
f 81/4/4 82/4/4 84/4/4
f 83/6/4 81/6/4 84/6/4
f 84/4/4 82/4/4 85/4/4
f 77/3/4 79/3/4 86/3/4
f 79/5/4 83/5/4 86/5/4
f 83/5/4 84/5/4 86/5/4
f 86/5/4 84/5/4 87/5/4
f 84/6/4 85/6/4 88/6/4
f 87/5/4 84/5/4 88/5/4
f 85/4/4 82/4/4 89/4/4
f 88/6/4 85/6/4 89/6/4
f 89/4/4 82/4/4 90/4/4
f 86/6/4 87/6/4 91/6/4
f 77/3/4 86/3/4 91/3/4
f 87/5/4 88/5/4 92/5/4
f 91/6/4 87/6/4 92/6/4
f 88/5/4 89/5/4 92/5/4
f 90/4/4 82/4/4 93/4/4
f 93/4/4 82/4/4 94/4/4
f 94/4/4 82/4/4 95/4/4
f 90/4/4 93/4/4 96/4/4
f 93/1/4 94/1/4 97/1/4
f 96/4/4 93/4/4 97/4/4
f 94/7/4 95/7/4 98/7/4
f 97/1/4 94/1/4 98/1/4
f 98/7/4 95/7/4 99/7/4
f 95/4/4 82/4/4 100/4/4
f 99/7/4 95/7/4 100/7/4
f 100/4/4 82/4/4 101/4/4
f 92/5/4 89/5/4 102/5/4
f 91/5/4 92/5/4 102/5/4
f 89/6/4 90/6/4 103/6/4
f 102/5/4 89/5/4 103/5/4
f 90/4/4 96/4/4 104/4/4
f 103/6/4 90/6/4 104/6/4
f 98/1/4 99/1/4 105/1/4
f 104/4/4 96/4/4 105/4/4
f 96/1/4 97/1/4 105/1/4
f 97/1/4 98/1/4 105/1/4
f 100/7/4 101/7/4 106/7/4
f 105/1/4 99/1/4 106/1/4
f 99/7/4 100/7/4 106/7/4
f 106/7/4 101/7/4 107/7/4
f 77/3/4 91/3/4 108/3/4
f 91/5/4 102/5/4 108/5/4
f 102/6/4 103/6/4 109/6/4
f 108/5/4 102/5/4 109/5/4
f 106/1/4 107/1/4 110/1/4
f 109/6/4 103/6/4 110/6/4
f 104/1/4 105/1/4 110/1/4
f 105/1/4 106/1/4 110/1/4
f 103/1/4 104/1/4 110/1/4
f 108/2/4 109/2/4 111/2/4
f 77/3/4 108/3/4 111/3/4
f 109/1/4 110/1/4 112/1/4
f 111/2/4 109/2/4 112/2/4
f 110/1/4 107/1/4 113/1/4
f 112/1/4 110/1/4 113/1/4
f 111/5/4 112/5/4 114/5/4
f 112/6/4 113/6/4 114/6/4
f 113/1/4 107/1/4 115/1/4
f 114/6/4 113/6/4 115/6/4
f 115/1/4 107/1/4 116/1/4
f 116/1/4 107/1/4 117/1/4
f 117/1/4 107/1/4 118/1/4
f 107/7/4 101/7/4 119/7/4
f 118/1/4 107/1/4 119/1/4
f 117/1/4 118/1/4 120/1/4
f 116/4/4 117/4/4 120/4/4
f 120/1/4 118/1/4 121/1/4
f 121/1/4 118/1/4 122/1/4
f 118/7/4 119/7/4 123/7/4
f 122/1/4 118/1/4 123/1/4
f 119/7/4 101/7/4 124/7/4
f 123/7/4 119/7/4 124/7/4
f 101/4/4 82/4/4 125/4/4
f 124/7/4 101/7/4 125/7/4
f 111/5/4 114/5/4 126/5/4
f 77/3/4 111/3/4 126/3/4
f 114/5/4 115/5/4 126/5/4
f 126/5/4 115/5/4 127/5/4
f 120/4/4 121/4/4 128/4/4
f 121/1/4 122/1/4 128/1/4
f 122/7/4 123/7/4 129/7/4
f 128/1/4 122/1/4 129/1/4
f 123/7/4 124/7/4 129/7/4
f 124/4/4 125/4/4 130/4/4
f 129/7/4 124/7/4 130/7/4
f 77/3/4 126/3/4 131/3/4
f 126/6/4 127/6/4 131/6/4
f 127/5/4 115/5/4 132/5/4
f 131/6/4 127/6/4 132/6/4
f 132/5/4 115/5/4 133/5/4
f 115/6/4 116/6/4 134/6/4
f 133/5/4 115/5/4 134/5/4
f 120/4/4 128/4/4 135/4/4
f 134/6/4 116/6/4 135/6/4
f 128/4/4 129/4/4 135/4/4
f 129/4/4 130/4/4 135/4/4
f 116/4/4 120/4/4 135/4/4
f 131/5/4 132/5/4 136/5/4
f 132/5/4 133/5/4 136/5/4
f 133/6/4 134/6/4 137/6/4
f 136/5/4 133/5/4 137/5/4
f 134/4/4 135/4/4 138/4/4
f 137/6/4 134/6/4 138/6/4
f 131/5/4 136/5/4 139/5/4
f 77/3/4 131/3/4 139/3/4
f 136/6/4 137/6/4 140/6/4
f 139/5/4 136/5/4 140/5/4
f 137/4/4 138/4/4 141/4/4
f 140/6/4 137/6/4 141/6/4
f 138/4/4 135/4/4 142/4/4
f 141/4/4 138/4/4 142/4/4
f 82/3/4 78/3/4 142/3/4
f 130/4/4 125/4/4 142/4/4
f 125/4/4 82/4/4 142/4/4
f 135/4/4 130/4/4 142/4/4
f 140/3/4 141/3/4 143/3/4
f 77/3/4 139/3/4 143/3/4
f 141/3/4 142/3/4 143/3/4
f 139/3/4 140/3/4 143/3/4
f 142/3/4 78/3/4 144/3/4
f 143/3/4 142/3/4 144/3/4
f 147/3/5 146/3/5 145/3/5
f 148/3/5 146/3/5 147/3/5
f 149/3/6 150/3/6 151/3/6
f 151/3/6 150/3/6 152/3/6
