# MagicaVoxel @ Ephtracy

# group
g Chair01

# material
mtllib Chair01.mtl
usemtl palette

# normals
vn -1 0 0
vn 1 0 0
vn 0 0 1
vn 0 0 -1
vn 0 -1 0
vn 0 1 0

# texcoords
vt 0.341797 0.5
vt 0.931641 0.5

# verts
v -4 0 3.5
v -4 0 -4.5
v -4 1 2.5
v -4 1 -3.5
v -4 7 4.5
v -4 7 3.5
v -4 7 2.5
v -4 7 -3.5
v -4 8 3.5
v -4 8 -4.5
v -4 9 4.5
v -4 9 -3.5
v -4 16 -3.5
v -4 16 -4.5
v -3 16 -3.5
v -3 16 -4.5
v -3 18 -3.5
v -3 18 -4.5
v 3 0 3.5
v 3 0 -4.5
v 3 1 2.5
v 3 1 -3.5
v 3 7 3.5
v 3 7 2.5
v 3 7 -3.5
v 3 7 -4.5
v 3 8 2.5
v 3 8 -3.5
v -3 0 3.5
v -3 0 -4.5
v -3 1 2.5
v -3 1 -3.5
v -3 7 3.5
v -3 7 2.5
v -3 7 -3.5
v -3 7 -4.5
v -3 8 2.5
v -3 8 -3.5
v 3 16 -3.5
v 3 16 -4.5
v 3 18 -3.5
v 3 18 -4.5
v 4 0 3.5
v 4 0 -4.5
v 4 1 2.5
v 4 1 -3.5
v 4 7 4.5
v 4 7 3.5
v 4 7 2.5
v 4 7 -3.5
v 4 8 3.5
v 4 8 -4.5
v 4 9 4.5
v 4 9 -3.5
v 4 16 -3.5
v 4 16 -4.5
v -4 7 4.5
v -4 9 4.5
v 4 7 4.5
v 4 9 4.5
v -4 0 3.5
v -4 7 3.5
v -3 0 3.5
v -3 7 3.5
v 3 0 3.5
v 3 7 3.5
v 4 0 3.5
v 4 7 3.5
v -4 1 -3.5
v -4 7 -3.5
v -4 9 -3.5
v -4 16 -3.5
v -3 1 -3.5
v -3 7 -3.5
v -3 8 -3.5
v -3 16 -3.5
v -3 18 -3.5
v 3 1 -3.5
v 3 7 -3.5
v 3 8 -3.5
v 3 16 -3.5
v 3 18 -3.5
v 4 1 -3.5
v 4 7 -3.5
v 4 9 -3.5
v 4 16 -3.5
v -4 1 2.5
v -4 7 2.5
v -3 1 2.5
v -3 7 2.5
v -3 8 2.5
v 3 1 2.5
v 3 7 2.5
v 3 8 2.5
v 4 1 2.5
v 4 7 2.5
v -4 0 -4.5
v -4 8 -4.5
v -4 16 -4.5
v -3 0 -4.5
v -3 7 -4.5
v -3 16 -4.5
v -3 18 -4.5
v 3 0 -4.5
v 3 7 -4.5
v 3 16 -4.5
v 3 18 -4.5
v 4 0 -4.5
v 4 8 -4.5
v 4 16 -4.5
v -4 0 3.5
v -3 0 3.5
v 3 0 3.5
v 4 0 3.5
v -4 0 -4.5
v -3 0 -4.5
v 3 0 -4.5
v 4 0 -4.5
v -4 7 4.5
v 4 7 4.5
v -4 7 3.5
v -3 7 3.5
v 3 7 3.5
v 4 7 3.5
v -4 7 2.5
v -3 7 2.5
v 3 7 2.5
v 4 7 2.5
v -4 7 -3.5
v -3 7 -3.5
v 3 7 -3.5
v 4 7 -3.5
v -3 7 -4.5
v 3 7 -4.5
v -3 8 2.5
v 3 8 2.5
v -3 8 -3.5
v 3 8 -3.5
v -4 1 2.5
v -3 1 2.5
v 3 1 2.5
v 4 1 2.5
v -4 1 -3.5
v -3 1 -3.5
v 3 1 -3.5
v 4 1 -3.5
v -4 9 4.5
v 4 9 4.5
v -4 9 -3.5
v 4 9 -3.5
v -4 16 -3.5
v -3 16 -3.5
v 3 16 -3.5
v 4 16 -3.5
v -4 16 -4.5
v -3 16 -4.5
v 3 16 -4.5
v 4 16 -4.5
v -3 18 -3.5
v 3 18 -3.5
v -3 18 -4.5
v 3 18 -4.5

# faces
f 3/1/1 2/1/1 1/1/1
f 4/1/1 2/1/1 3/1/1
f 6/1/1 3/1/1 1/1/1
f 7/1/1 3/1/1 6/1/1
f 8/1/1 2/1/1 4/1/1
f 9/1/1 7/1/1 6/1/1
f 9/1/1 8/1/1 7/1/1
f 9/2/1 6/2/1 5/2/1
f 10/1/1 2/1/1 8/1/1
f 10/1/1 8/1/1 9/1/1
f 11/2/1 9/2/1 5/2/1
f 11/2/1 10/2/1 9/2/1
f 12/2/1 10/2/1 11/2/1
f 13/2/1 10/2/1 12/2/1
f 14/2/1 10/2/1 13/2/1
f 17/2/1 16/2/1 15/2/1
f 18/2/1 16/2/1 17/2/1
f 21/1/1 20/1/1 19/1/1
f 22/1/1 20/1/1 21/1/1
f 23/1/1 21/1/1 19/1/1
f 24/1/1 21/1/1 23/1/1
f 25/1/1 20/1/1 22/1/1
f 26/1/1 20/1/1 25/1/1
f 27/1/1 25/1/1 24/1/1
f 28/1/1 25/1/1 27/1/1
f 29/1/2 30/1/2 31/1/2
f 31/1/2 30/1/2 32/1/2
f 29/1/2 31/1/2 33/1/2
f 33/1/2 31/1/2 34/1/2
f 32/1/2 30/1/2 35/1/2
f 35/1/2 30/1/2 36/1/2
f 34/1/2 35/1/2 37/1/2
f 37/1/2 35/1/2 38/1/2
f 39/2/2 40/2/2 41/2/2
f 41/2/2 40/2/2 42/2/2
f 43/1/2 44/1/2 45/1/2
f 45/1/2 44/1/2 46/1/2
f 43/1/2 45/1/2 48/1/2
f 48/1/2 45/1/2 49/1/2
f 46/1/2 44/1/2 50/1/2
f 48/1/2 49/1/2 51/1/2
f 49/1/2 50/1/2 51/1/2
f 47/2/2 48/2/2 51/2/2
f 50/1/2 44/1/2 52/1/2
f 51/1/2 50/1/2 52/1/2
f 47/2/2 51/2/2 53/2/2
f 51/2/2 52/2/2 53/2/2
f 53/2/2 52/2/2 54/2/2
f 54/2/2 52/2/2 55/2/2
f 55/2/2 52/2/2 56/2/2
f 59/2/3 58/2/3 57/2/3
f 60/2/3 58/2/3 59/2/3
f 63/1/3 62/1/3 61/1/3
f 64/1/3 62/1/3 63/1/3
f 67/1/3 66/1/3 65/1/3
f 68/1/3 66/1/3 67/1/3
f 73/1/3 70/1/3 69/1/3
f 74/1/3 70/1/3 73/1/3
f 76/2/3 72/2/3 71/2/3
f 79/1/3 75/1/3 74/1/3
f 80/1/3 75/1/3 79/1/3
f 81/2/3 76/2/3 71/2/3
f 81/2/3 77/2/3 76/2/3
f 82/2/3 77/2/3 81/2/3
f 83/1/3 79/1/3 78/1/3
f 84/1/3 79/1/3 83/1/3
f 85/2/3 81/2/3 71/2/3
f 86/2/3 81/2/3 85/2/3
f 87/1/4 88/1/4 89/1/4
f 89/1/4 88/1/4 90/1/4
f 90/1/4 91/1/4 93/1/4
f 93/1/4 91/1/4 94/1/4
f 92/1/4 93/1/4 95/1/4
f 95/1/4 93/1/4 96/1/4
f 97/1/4 98/1/4 100/1/4
f 100/1/4 98/1/4 101/1/4
f 98/2/4 99/2/4 102/2/4
f 101/1/4 98/1/4 105/1/4
f 98/2/4 102/2/4 106/2/4
f 102/2/4 103/2/4 106/2/4
f 106/2/4 103/2/4 107/2/4
f 104/1/4 105/1/4 108/1/4
f 105/1/4 98/1/4 109/1/4
f 108/1/4 105/1/4 109/1/4
f 98/2/4 106/2/4 109/2/4
f 109/2/4 106/2/4 110/2/4
f 115/1/5 112/1/5 111/1/5
f 116/1/5 112/1/5 115/1/5
f 117/1/5 114/1/5 113/1/5
f 118/1/5 114/1/5 117/1/5
f 121/2/5 120/2/5 119/2/5
f 122/2/5 120/2/5 121/2/5
f 123/2/5 120/2/5 122/2/5
f 124/2/5 120/2/5 123/2/5
f 126/1/5 123/1/5 122/1/5
f 127/1/5 123/1/5 126/1/5
f 129/1/5 126/1/5 125/1/5
f 130/1/5 126/1/5 129/1/5
f 131/1/5 128/1/5 127/1/5
f 132/1/5 128/1/5 131/1/5
f 133/1/5 131/1/5 130/1/5
f 134/1/5 131/1/5 133/1/5
f 137/2/5 136/2/5 135/2/5
f 138/2/5 136/2/5 137/2/5
f 139/1/6 140/1/6 143/1/6
f 143/1/6 140/1/6 144/1/6
f 141/1/6 142/1/6 145/1/6
f 145/1/6 142/1/6 146/1/6
f 147/2/6 148/2/6 149/2/6
f 149/2/6 148/2/6 150/2/6
f 151/2/6 152/2/6 155/2/6
f 155/2/6 152/2/6 156/2/6
f 153/2/6 154/2/6 157/2/6
f 157/2/6 154/2/6 158/2/6
f 159/2/6 160/2/6 161/2/6
f 161/2/6 160/2/6 162/2/6
