# MagicaVoxel @ Ephtracy

# group
g Chair02

# material
mtllib Chair02.mtl
usemtl palette

# normals
vn -1 0 0
vn 1 0 0
vn 0 0 1
vn 0 0 -1
vn 0 -1 0
vn 0 1 0

# texcoords
vt 0.0957031 0.5
vt 0.0996094 0.5
vt 0.111328 0.5
vt 0.115234 0.5
vt 0.130859 0.5
vt 0.279297 0.5

# verts
v -8 0 8
v -8 0 6
v -8 0 -3
v -8 0 -5
v -8 1 6
v -8 1 5
v -8 1 -2
v -8 1 -3
v -8 2 8
v -8 2 5
v -8 2 -2
v -8 2 -5
v -8 3 8
v -8 3 -5
v -8 10 8
v -8 10 -5
v -7 10 -2
v -7 10 -5
v -7 14 -2
v -7 14 -5
v 5 1 8
v 5 1 5
v 5 1 -2
v 5 1 -5
v 5 2 8
v 5 2 5
v 5 2 -2
v 5 2 -5
v 5 7 8
v 5 7 -2
v 5 10 8
v 5 10 -2
v 6 0 8
v 6 0 6
v 6 0 -3
v 6 0 -5
v 6 1 8
v 6 1 6
v 6 1 -3
v 6 1 -5
v -6 0 8
v -6 0 6
v -6 0 -3
v -6 0 -5
v -6 1 8
v -6 1 6
v -6 1 -3
v -6 1 -5
v -5 1 8
v -5 1 5
v -5 1 -2
v -5 1 -5
v -5 2 8
v -5 2 5
v -5 2 -2
v -5 2 -5
v -5 7 8
v -5 7 -2
v -5 10 8
v -5 10 -2
v 7 10 -2
v 7 10 -5
v 7 14 -2
v 7 14 -5
v 8 0 8
v 8 0 6
v 8 0 -3
v 8 0 -5
v 8 1 6
v 8 1 5
v 8 1 -2
v 8 1 -3
v 8 2 8
v 8 2 5
v 8 2 -2
v 8 2 -5
v 8 3 8
v 8 3 -5
v 8 10 8
v 8 10 -5
v -8 0 8
v -8 2 8
v -8 3 8
v -8 10 8
v -6 0 8
v -6 1 8
v -5 1 8
v -5 2 8
v -5 3 8
v -5 6 8
v -5 7 8
v -5 10 8
v 5 1 8
v 5 2 8
v 5 3 8
v 5 6 8
v 5 7 8
v 5 10 8
v 6 0 8
v 6 1 8
v 8 0 8
v 8 2 8
v 8 3 8
v 8 10 8
v -8 1 -2
v -8 2 -2
v -7 10 -2
v -7 14 -2
v -5 1 -2
v -5 2 -2
v -5 7 -2
v -5 10 -2
v 5 1 -2
v 5 2 -2
v 5 7 -2
v 5 10 -2
v 7 10 -2
v 7 14 -2
v 8 1 -2
v 8 2 -2
v -8 0 -3
v -8 1 -3
v -6 0 -3
v -6 1 -3
v 6 0 -3
v 6 1 -3
v 8 0 -3
v 8 1 -3
v -8 0 6
v -8 1 6
v -6 0 6
v -6 1 6
v 6 0 6
v 6 1 6
v 8 0 6
v 8 1 6
v -8 1 5
v -8 2 5
v -5 1 5
v -5 2 5
v 5 1 5
v 5 2 5
v 8 1 5
v 8 2 5
v -8 0 -5
v -8 2 -5
v -8 3 -5
v -8 10 -5
v -7 10 -5
v -7 14 -5
v -6 0 -5
v -6 1 -5
v -5 1 -5
v -5 2 -5
v -5 3 -5
v -5 10 -5
v 5 1 -5
v 5 2 -5
v 5 3 -5
v 5 10 -5
v 6 0 -5
v 6 1 -5
v 7 10 -5
v 7 14 -5
v 8 0 -5
v 8 2 -5
v 8 3 -5
v 8 10 -5
v -8 0 8
v -6 0 8
v 6 0 8
v 8 0 8
v -8 0 6
v -6 0 6
v 6 0 6
v 8 0 6
v -8 0 -3
v -6 0 -3
v 6 0 -3
v 8 0 -3
v -8 0 -5
v -6 0 -5
v 6 0 -5
v 8 0 -5
v -6 1 8
v -5 1 8
v 5 1 8
v 6 1 8
v -8 1 6
v -6 1 6
v 6 1 6
v 8 1 6
v -8 1 5
v -5 1 5
v 5 1 5
v 8 1 5
v -8 1 -2
v -5 1 -2
v 5 1 -2
v 8 1 -2
v -8 1 -3
v -6 1 -3
v 6 1 -3
v 8 1 -3
v -6 1 -5
v -5 1 -5
v 5 1 -5
v 6 1 -5
v -5 2 8
v 5 2 8
v -8 2 5
v -5 2 5
v 5 2 5
v 8 2 5
v -8 2 -2
v -5 2 -2
v 5 2 -2
v 8 2 -2
v -5 2 -5
v 5 2 -5
v -5 7 8
v 5 7 8
v -5 7 -2
v 5 7 -2
v -8 10 8
v -5 10 8
v 5 10 8
v 8 10 8
v -7 10 -2
v -5 10 -2
v 5 10 -2
v 7 10 -2
v -8 10 -5
v -7 10 -5
v 7 10 -5
v 8 10 -5
v -7 14 -2
v 7 14 -2
v -7 14 -5
v 7 14 -5

# faces
f 5/6/1 2/6/1 1/6/1
f 8/6/1 4/6/1 3/6/1
f 9/6/1 6/6/1 5/6/1
f 9/6/1 5/6/1 1/6/1
f 10/6/1 6/6/1 9/6/1
f 11/6/1 8/6/1 7/6/1
f 12/6/1 4/6/1 8/6/1
f 12/6/1 8/6/1 11/6/1
f 13/3/1 10/3/1 9/3/1
f 13/3/1 11/3/1 10/3/1
f 13/3/1 12/3/1 11/3/1
f 14/3/1 12/3/1 13/3/1
f 15/5/1 14/5/1 13/5/1
f 16/5/1 14/5/1 15/5/1
f 19/4/1 18/4/1 17/4/1
f 20/4/1 18/4/1 19/4/1
f 25/6/1 22/6/1 21/6/1
f 26/6/1 22/6/1 25/6/1
f 27/6/1 24/6/1 23/6/1
f 28/6/1 24/6/1 27/6/1
f 31/5/1 30/5/1 29/5/1
f 32/5/1 30/5/1 31/5/1
f 37/6/1 34/6/1 33/6/1
f 38/6/1 34/6/1 37/6/1
f 39/6/1 36/6/1 35/6/1
f 40/6/1 36/6/1 39/6/1
f 41/6/2 42/6/2 45/6/2
f 45/6/2 42/6/2 46/6/2
f 43/6/2 44/6/2 47/6/2
f 47/6/2 44/6/2 48/6/2
f 49/6/2 50/6/2 53/6/2
f 53/6/2 50/6/2 54/6/2
f 51/6/2 52/6/2 55/6/2
f 55/6/2 52/6/2 56/6/2
f 57/5/2 58/5/2 59/5/2
f 59/5/2 58/5/2 60/5/2
f 61/4/2 62/4/2 63/4/2
f 63/4/2 62/4/2 64/4/2
f 65/6/2 66/6/2 69/6/2
f 67/6/2 68/6/2 72/6/2
f 69/6/2 70/6/2 73/6/2
f 65/6/2 69/6/2 73/6/2
f 73/6/2 70/6/2 74/6/2
f 71/6/2 72/6/2 75/6/2
f 72/6/2 68/6/2 76/6/2
f 75/6/2 72/6/2 76/6/2
f 73/3/2 74/3/2 77/3/2
f 74/3/2 75/3/2 77/3/2
f 75/3/2 76/3/2 77/3/2
f 77/3/2 76/3/2 78/3/2
f 77/5/2 78/5/2 79/5/2
f 79/5/2 78/5/2 80/5/2
f 85/6/3 82/6/3 81/6/3
f 86/6/3 82/6/3 85/6/3
f 87/6/3 82/6/3 86/6/3
f 88/3/3 83/3/3 82/3/3
f 88/6/3 82/6/3 87/6/3
f 89/5/3 84/5/3 83/5/3
f 89/3/3 83/3/3 88/3/3
f 90/5/3 84/5/3 89/5/3
f 91/5/3 84/5/3 90/5/3
f 92/5/3 84/5/3 91/5/3
f 94/3/3 89/3/3 88/3/3
f 95/2/3 90/2/3 89/2/3
f 95/3/3 89/3/3 94/3/3
f 96/1/3 91/1/3 90/1/3
f 96/2/3 90/2/3 95/2/3
f 97/1/3 91/1/3 96/1/3
f 100/6/3 94/6/3 93/6/3
f 101/6/3 100/6/3 99/6/3
f 102/3/3 95/3/3 94/3/3
f 102/6/3 100/6/3 101/6/3
f 102/6/3 94/6/3 100/6/3
f 103/5/3 98/5/3 97/5/3
f 103/3/3 95/3/3 102/3/3
f 103/5/3 96/5/3 95/5/3
f 103/5/3 97/5/3 96/5/3
f 104/5/3 98/5/3 103/5/3
f 109/6/3 106/6/3 105/6/3
f 110/6/3 106/6/3 109/6/3
f 112/4/3 108/4/3 107/4/3
f 115/4/3 112/4/3 111/4/3
f 116/4/3 108/4/3 112/4/3
f 116/4/3 112/4/3 115/4/3
f 117/4/3 108/4/3 116/4/3
f 118/4/3 108/4/3 117/4/3
f 119/6/3 114/6/3 113/6/3
f 120/6/3 114/6/3 119/6/3
f 123/6/3 122/6/3 121/6/3
f 124/6/3 122/6/3 123/6/3
f 127/6/3 126/6/3 125/6/3
f 128/6/3 126/6/3 127/6/3
f 129/6/4 130/6/4 131/6/4
f 131/6/4 130/6/4 132/6/4
f 133/6/4 134/6/4 135/6/4
f 135/6/4 134/6/4 136/6/4
f 137/6/4 138/6/4 139/6/4
f 139/6/4 138/6/4 140/6/4
f 141/6/4 142/6/4 143/6/4
f 143/6/4 142/6/4 144/6/4
f 147/5/4 148/5/4 149/5/4
f 145/6/4 146/6/4 151/6/4
f 151/6/4 146/6/4 152/6/4
f 152/6/4 146/6/4 153/6/4
f 146/3/4 147/3/4 154/3/4
f 153/6/4 146/6/4 154/6/4
f 147/5/4 149/5/4 155/5/4
f 154/3/4 147/3/4 155/3/4
f 149/4/4 150/4/4 156/4/4
f 155/5/4 149/5/4 156/5/4
f 154/3/4 155/3/4 158/3/4
f 155/4/4 156/4/4 159/4/4
f 158/3/4 155/3/4 159/3/4
f 156/4/4 150/4/4 160/4/4
f 159/4/4 156/4/4 160/4/4
f 157/6/4 158/6/4 162/6/4
f 160/4/4 150/4/4 163/4/4
f 159/5/4 160/5/4 163/5/4
f 163/4/4 150/4/4 164/4/4
f 161/6/4 162/6/4 165/6/4
f 158/3/4 159/3/4 166/3/4
f 165/6/4 162/6/4 166/6/4
f 162/6/4 158/6/4 166/6/4
f 159/5/4 163/5/4 167/5/4
f 166/3/4 159/3/4 167/3/4
f 167/5/4 163/5/4 168/5/4
f 173/6/5 170/6/5 169/6/5
f 174/6/5 170/6/5 173/6/5
f 175/6/5 172/6/5 171/6/5
f 176/6/5 172/6/5 175/6/5
f 181/6/5 178/6/5 177/6/5
f 182/6/5 178/6/5 181/6/5
f 183/6/5 180/6/5 179/6/5
f 184/6/5 180/6/5 183/6/5
f 190/6/5 186/6/5 185/6/5
f 191/6/5 188/6/5 187/6/5
f 193/6/5 190/6/5 189/6/5
f 194/6/5 186/6/5 190/6/5
f 194/6/5 190/6/5 193/6/5
f 195/6/5 192/6/5 191/6/5
f 195/6/5 191/6/5 187/6/5
f 196/6/5 192/6/5 195/6/5
f 201/6/5 198/6/5 197/6/5
f 202/6/5 198/6/5 201/6/5
f 203/6/5 200/6/5 199/6/5
f 204/6/5 200/6/5 203/6/5
f 205/6/5 198/6/5 202/6/5
f 206/6/5 198/6/5 205/6/5
f 207/6/5 203/6/5 199/6/5
f 208/6/5 203/6/5 207/6/5
f 212/3/5 210/3/5 209/3/5
f 213/3/5 210/3/5 212/3/5
f 215/3/5 212/3/5 211/3/5
f 215/3/5 214/3/5 213/3/5
f 215/3/5 213/3/5 212/3/5
f 216/3/5 214/3/5 215/3/5
f 217/3/5 214/3/5 216/3/5
f 218/3/5 214/3/5 217/3/5
f 219/3/5 217/3/5 216/3/5
f 220/3/5 217/3/5 219/3/5
f 221/1/6 222/1/6 223/1/6
f 223/1/6 222/1/6 224/1/6
f 225/5/6 226/5/6 229/5/6
f 229/5/6 226/5/6 230/5/6
f 227/5/6 228/5/6 231/5/6
f 231/5/6 228/5/6 232/5/6
f 225/5/6 229/5/6 233/5/6
f 233/5/6 229/5/6 234/5/6
f 232/5/6 228/5/6 235/5/6
f 235/5/6 228/5/6 236/5/6
f 237/4/6 238/4/6 239/4/6
f 239/4/6 238/4/6 240/4/6
