# MagicaVoxel @ Ephtracy

# group
g Chair03

# material
mtllib Chair03.mtl
usemtl palette

# normals
vn -1 0 0
vn 1 0 0
vn 0 0 1
vn 0 0 -1
vn 0 -1 0
vn 0 1 0

# texcoords
vt 0.943359 0.5
vt 0.978516 0.5
vt 0.986328 0.5
vt 0.990234 0.5

# verts
v -4.5 0 0.5
v -4.5 0 -0.5
v -4.5 1 0.5
v -4.5 1 -0.5
v -4.5 2 0.5
v -4.5 2 -0.5
v -4.5 5 1.5
v -4.5 5 0.5
v -4.5 5 -0.5
v -4.5 5 -1.5
v -4.5 8 0.5
v -4.5 8 -0.5
v -4.5 9 1.5
v -4.5 9 -1.5
v -3.5 4 1.5
v -3.5 4 0.5
v -3.5 4 -0.5
v -3.5 4 -1.5
v -3.5 5 1.5
v -3.5 5 0.5
v -3.5 5 -0.5
v -3.5 5 -1.5
v -3.5 6 3.5
v -3.5 6 1.5
v -3.5 6 0.5
v -3.5 6 -0.5
v -3.5 6 -1.5
v -3.5 6 -3.5
v -3.5 8 0.5
v -3.5 8 -0.5
v -3.5 9 1.5
v -3.5 9 -1.5
v -3.5 13 3.5
v -3.5 13 2.5
v -3.5 13 -2.5
v -3.5 13 -3.5
v -3.5 14 2.5
v -3.5 14 -2.5
v -2.5 4 0.5
v -2.5 4 -0.5
v -2.5 5 3.5
v -2.5 5 1.5
v -2.5 5 0.5
v -2.5 5 -0.5
v -2.5 5 -1.5
v -2.5 5 -3.5
v -2.5 6 3.5
v -2.5 6 1.5
v -2.5 6 0.5
v -2.5 6 -0.5
v -2.5 6 -1.5
v -2.5 6 -3.5
v -1.5 4 2.5
v -1.5 4 1.5
v -1.5 4 -1.5
v -1.5 4 -2.5
v -1.5 5 2.5
v -1.5 5 1.5
v -1.5 5 -1.5
v -1.5 5 -2.5
v -1.5 8 5.5
v -1.5 8 3.5
v -1.5 8 -3.5
v -1.5 8 -5.5
v -1.5 9 5.5
v -1.5 9 3.5
v -1.5 9 -3.5
v -1.5 9 -5.5
v -0.5 0 4.5
v -0.5 0 3.5
v -0.5 0 -3.5
v -0.5 0 -4.5
v -0.5 1 4.5
v -0.5 1 3.5
v -0.5 1 0.5
v -0.5 1 -0.5
v -0.5 1 -3.5
v -0.5 1 -4.5
v -0.5 2 4.5
v -0.5 2 0.5
v -0.5 2 -0.5
v -0.5 2 -4.5
v -0.5 4 4.5
v -0.5 4 2.5
v -0.5 4 0.5
v -0.5 4 -0.5
v -0.5 4 -2.5
v -0.5 4 -4.5
v -0.5 5 3.5
v -0.5 5 2.5
v -0.5 5 -2.5
v -0.5 5 -3.5
v -0.5 6 3.5
v -0.5 6 -3.5
v -0.5 8 4.5
v -0.5 8 3.5
v -0.5 8 -3.5
v -0.5 8 -4.5
v 3.5 0 0.5
v 3.5 0 -0.5
v 3.5 1 0.5
v 3.5 1 -0.5
v -3.5 0 0.5
v -3.5 0 -0.5
v -3.5 1 0.5
v -3.5 1 -0.5
v -2.5 6 3.5
v -2.5 6 -3.5
v -2.5 13 3.5
v -2.5 13 2.5
v -2.5 13 -2.5
v -2.5 13 -3.5
v -2.5 14 2.5
v -2.5 14 -2.5
v 0.5 0 4.5
v 0.5 0 3.5
v 0.5 0 -3.5
v 0.5 0 -4.5
v 0.5 1 4.5
v 0.5 1 3.5
v 0.5 1 0.5
v 0.5 1 -0.5
v 0.5 1 -3.5
v 0.5 1 -4.5
v 0.5 2 4.5
v 0.5 2 0.5
v 0.5 2 -0.5
v 0.5 2 -4.5
v 0.5 4 4.5
v 0.5 4 2.5
v 0.5 4 0.5
v 0.5 4 -0.5
v 0.5 4 -2.5
v 0.5 4 -4.5
v 0.5 5 3.5
v 0.5 5 2.5
v 0.5 5 -2.5
v 0.5 5 -3.5
v 0.5 6 3.5
v 0.5 6 -3.5
v 0.5 8 4.5
v 0.5 8 3.5
v 0.5 8 -3.5
v 0.5 8 -4.5
v 1.5 4 2.5
v 1.5 4 1.5
v 1.5 4 -1.5
v 1.5 4 -2.5
v 1.5 5 2.5
v 1.5 5 1.5
v 1.5 5 -1.5
v 1.5 5 -2.5
v 1.5 8 5.5
v 1.5 8 4.5
v 1.5 8 -4.5
v 1.5 8 -5.5
v 1.5 9 5.5
v 1.5 9 4.5
v 1.5 9 -4.5
v 1.5 9 -5.5
v 2.5 4 1.5
v 2.5 4 -1.5
v 2.5 5 1.5
v 2.5 5 -1.5
v 2.5 8 4.5
v 2.5 8 3.5
v 2.5 8 -3.5
v 2.5 8 -4.5
v 2.5 9 4.5
v 2.5 9 3.5
v 2.5 9 -3.5
v 2.5 9 -4.5
v 3.5 5 3.5
v 3.5 5 2.5
v 3.5 5 -2.5
v 3.5 5 -3.5
v 3.5 6 3.5
v 3.5 6 2.5
v 3.5 6 -2.5
v 3.5 6 -3.5
v 4.5 0 0.5
v 4.5 0 -0.5
v 4.5 1 0.5
v 4.5 1 -0.5
v 4.5 2 0.5
v 4.5 2 -0.5
v 4.5 5 2.5
v 4.5 5 -2.5
v 4.5 6 2.5
v 4.5 6 -2.5
v -1.5 8 5.5
v -1.5 9 5.5
v 1.5 8 5.5
v 1.5 9 5.5
v -0.5 0 4.5
v -0.5 1 4.5
v -0.5 2 4.5
v -0.5 4 4.5
v -0.5 8 4.5
v 0.5 0 4.5
v 0.5 1 4.5
v 0.5 2 4.5
v 0.5 4 4.5
v 0.5 8 4.5
v 1.5 8 4.5
v 1.5 9 4.5
v 2.5 8 4.5
v 2.5 9 4.5
v -3.5 6 3.5
v -3.5 13 3.5
v -2.5 5 3.5
v -2.5 6 3.5
v -2.5 13 3.5
v -0.5 5 3.5
v -0.5 6 3.5
v 0.5 5 3.5
v 0.5 6 3.5
v 3.5 5 3.5
v 3.5 6 3.5
v -3.5 13 2.5
v -3.5 14 2.5
v -2.5 13 2.5
v -2.5 14 2.5
v -1.5 4 2.5
v -1.5 5 2.5
v -0.5 4 2.5
v -0.5 5 2.5
v 0.5 4 2.5
v 0.5 5 2.5
v 1.5 4 2.5
v 1.5 5 2.5
v 3.5 5 2.5
v 3.5 6 2.5
v 4.5 5 2.5
v 4.5 6 2.5
v -4.5 5 1.5
v -4.5 9 1.5
v -3.5 4 1.5
v -3.5 5 1.5
v -3.5 6 1.5
v -3.5 9 1.5
v -2.5 5 1.5
v -2.5 6 1.5
v -1.5 4 1.5
v -1.5 5 1.5
v 1.5 4 1.5
v 1.5 5 1.5
v 2.5 4 1.5
v 2.5 5 1.5
v -4.5 0 0.5
v -4.5 1 0.5
v -4.5 2 0.5
v -3.5 0 0.5
v -3.5 1 0.5
v -0.5 1 0.5
v -0.5 2 0.5
v -0.5 4 0.5
v 0.5 1 0.5
v 0.5 2 0.5
v 0.5 4 0.5
v 3.5 0 0.5
v 3.5 1 0.5
v 4.5 0 0.5
v 4.5 1 0.5
v 4.5 2 0.5
v -4.5 5 -0.5
v -4.5 8 -0.5
v -3.5 4 -0.5
v -3.5 5 -0.5
v -3.5 6 -0.5
v -3.5 8 -0.5
v -2.5 4 -0.5
v -2.5 5 -0.5
v -2.5 6 -0.5
v -1.5 8 -3.5
v -1.5 9 -3.5
v -0.5 0 -3.5
v -0.5 1 -3.5
v -0.5 6 -3.5
v -0.5 8 -3.5
v 0.5 0 -3.5
v 0.5 1 -3.5
v 0.5 6 -3.5
v 0.5 8 -3.5
v 2.5 8 -3.5
v 2.5 9 -3.5
v -1.5 8 3.5
v -1.5 9 3.5
v -0.5 0 3.5
v -0.5 1 3.5
v -0.5 6 3.5
v -0.5 8 3.5
v 0.5 0 3.5
v 0.5 1 3.5
v 0.5 6 3.5
v 0.5 8 3.5
v 2.5 8 3.5
v 2.5 9 3.5
v -4.5 5 0.5
v -4.5 8 0.5
v -3.5 4 0.5
v -3.5 5 0.5
v -3.5 6 0.5
v -3.5 8 0.5
v -2.5 4 0.5
v -2.5 5 0.5
v -2.5 6 0.5
v -4.5 0 -0.5
v -4.5 1 -0.5
v -4.5 2 -0.5
v -3.5 0 -0.5
v -3.5 1 -0.5
v -0.5 1 -0.5
v -0.5 2 -0.5
v -0.5 4 -0.5
v 0.5 1 -0.5
v 0.5 2 -0.5
v 0.5 4 -0.5
v 3.5 0 -0.5
v 3.5 1 -0.5
v 4.5 0 -0.5
v 4.5 1 -0.5
v 4.5 2 -0.5
v -4.5 5 -1.5
v -4.5 9 -1.5
v -3.5 4 -1.5
v -3.5 5 -1.5
v -3.5 6 -1.5
v -3.5 9 -1.5
v -2.5 5 -1.5
v -2.5 6 -1.5
v -1.5 4 -1.5
v -1.5 5 -1.5
v 1.5 4 -1.5
v 1.5 5 -1.5
v 2.5 4 -1.5
v 2.5 5 -1.5
v -3.5 13 -2.5
v -3.5 14 -2.5
v -2.5 13 -2.5
v -2.5 14 -2.5
v -1.5 4 -2.5
v -1.5 5 -2.5
v -0.5 4 -2.5
v -0.5 5 -2.5
v 0.5 4 -2.5
v 0.5 5 -2.5
v 1.5 4 -2.5
v 1.5 5 -2.5
v 3.5 5 -2.5
v 3.5 6 -2.5
v 4.5 5 -2.5
v 4.5 6 -2.5
v -3.5 6 -3.5
v -3.5 13 -3.5
v -2.5 5 -3.5
v -2.5 6 -3.5
v -2.5 13 -3.5
v -0.5 5 -3.5
v -0.5 6 -3.5
v 0.5 5 -3.5
v 0.5 6 -3.5
v 3.5 5 -3.5
v 3.5 6 -3.5
v -0.5 0 -4.5
v -0.5 1 -4.5
v -0.5 2 -4.5
v -0.5 4 -4.5
v -0.5 8 -4.5
v 0.5 0 -4.5
v 0.5 1 -4.5
v 0.5 2 -4.5
v 0.5 4 -4.5
v 0.5 8 -4.5
v 1.5 8 -4.5
v 1.5 9 -4.5
v 2.5 8 -4.5
v 2.5 9 -4.5
v -1.5 8 -5.5
v -1.5 9 -5.5
v 1.5 8 -5.5
v 1.5 9 -5.5
v -0.5 0 4.5
v 0.5 0 4.5
v -0.5 0 3.5
v 0.5 0 3.5
v -4.5 0 0.5
v -3.5 0 0.5
v 3.5 0 0.5
v 4.5 0 0.5
v -4.5 0 -0.5
v -3.5 0 -0.5
v 3.5 0 -0.5
v 4.5 0 -0.5
v -0.5 0 -3.5
v 0.5 0 -3.5
v -0.5 0 -4.5
v 0.5 0 -4.5
v -0.5 1 3.5
v 0.5 1 3.5
v -3.5 1 0.5
v -0.5 1 0.5
v 0.5 1 0.5
v 3.5 1 0.5
v -3.5 1 -0.5
v -0.5 1 -0.5
v 0.5 1 -0.5
v 3.5 1 -0.5
v -0.5 1 -3.5
v 0.5 1 -3.5
v -0.5 4 4.5
v 0.5 4 4.5
v -1.5 4 2.5
v -0.5 4 2.5
v 0.5 4 2.5
v 1.5 4 2.5
v -3.5 4 1.5
v -1.5 4 1.5
v 1.5 4 1.5
v 2.5 4 1.5
v -3.5 4 0.5
v -2.5 4 0.5
v -0.5 4 0.5
v 0.5 4 0.5
v -3.5 4 -0.5
v -2.5 4 -0.5
v -0.5 4 -0.5
v 0.5 4 -0.5
v -3.5 4 -1.5
v -1.5 4 -1.5
v 1.5 4 -1.5
v 2.5 4 -1.5
v -1.5 4 -2.5
v -0.5 4 -2.5
v 0.5 4 -2.5
v 1.5 4 -2.5
v -0.5 4 -4.5
v 0.5 4 -4.5
v -2.5 5 3.5
v -0.5 5 3.5
v 0.5 5 3.5
v 3.5 5 3.5
v -1.5 5 2.5
v -0.5 5 2.5
v 0.5 5 2.5
v 1.5 5 2.5
v 3.5 5 2.5
v 4.5 5 2.5
v -4.5 5 1.5
v -3.5 5 1.5
v -2.5 5 1.5
v -1.5 5 1.5
v 1.5 5 1.5
v 2.5 5 1.5
v -4.5 5 0.5
v -3.5 5 0.5
v -4.5 5 -0.5
v -3.5 5 -0.5
v -4.5 5 -1.5
v -3.5 5 -1.5
v -2.5 5 -1.5
v -1.5 5 -1.5
v 1.5 5 -1.5
v 2.5 5 -1.5
v -1.5 5 -2.5
v -0.5 5 -2.5
v 0.5 5 -2.5
v 1.5 5 -2.5
v 3.5 5 -2.5
v 4.5 5 -2.5
v -2.5 5 -3.5
v -0.5 5 -3.5
v 0.5 5 -3.5
v 3.5 5 -3.5
v -3.5 6 3.5
v -2.5 6 3.5
v -3.5 6 1.5
v -2.5 6 1.5
v -3.5 6 0.5
v -2.5 6 0.5
v -3.5 6 -0.5
v -2.5 6 -0.5
v -3.5 6 -1.5
v -2.5 6 -1.5
v -3.5 6 -3.5
v -2.5 6 -3.5
v -1.5 8 5.5
v 1.5 8 5.5
v -0.5 8 4.5
v 0.5 8 4.5
v 1.5 8 4.5
v 2.5 8 4.5
v -1.5 8 3.5
v -0.5 8 3.5
v 0.5 8 3.5
v 2.5 8 3.5
v -4.5 8 0.5
v -3.5 8 0.5
v -4.5 8 -0.5
v -3.5 8 -0.5
v -1.5 8 -3.5
v -0.5 8 -3.5
v 0.5 8 -3.5
v 2.5 8 -3.5
v -0.5 8 -4.5
v 0.5 8 -4.5
v 1.5 8 -4.5
v 2.5 8 -4.5
v -1.5 8 -5.5
v 1.5 8 -5.5
v -0.5 2 4.5
v 0.5 2 4.5
v -4.5 2 0.5
v -0.5 2 0.5
v 0.5 2 0.5
v 4.5 2 0.5
v -4.5 2 -0.5
v -0.5 2 -0.5
v 0.5 2 -0.5
v 4.5 2 -0.5
v -0.5 2 -4.5
v 0.5 2 -4.5
v -2.5 6 3.5
v -0.5 6 3.5
v 0.5 6 3.5
v 3.5 6 3.5
v 3.5 6 2.5
v 4.5 6 2.5
v 3.5 6 -2.5
v 4.5 6 -2.5
v -2.5 6 -3.5
v -0.5 6 -3.5
v 0.5 6 -3.5
v 3.5 6 -3.5
v -1.5 9 5.5
v 1.5 9 5.5
v 1.5 9 4.5
v 2.5 9 4.5
v -1.5 9 3.5
v 2.5 9 3.5
v -4.5 9 1.5
v -3.5 9 1.5
v -4.5 9 -1.5
v -3.5 9 -1.5
v -1.5 9 -3.5
v 2.5 9 -3.5
v 1.5 9 -4.5
v 2.5 9 -4.5
v -1.5 9 -5.5
v 1.5 9 -5.5
v -3.5 13 3.5
v -2.5 13 3.5
v -3.5 13 2.5
v -2.5 13 2.5
v -3.5 13 -2.5
v -2.5 13 -2.5
v -3.5 13 -3.5
v -2.5 13 -3.5
v -3.5 14 2.5
v -2.5 14 2.5
v -3.5 14 -2.5
v -2.5 14 -2.5

# faces
f 3/2/1 2/2/1 1/2/1
f 4/2/1 2/2/1 3/2/1
f 5/3/1 4/3/1 3/3/1
f 6/3/1 4/3/1 5/3/1
f 11/3/1 8/3/1 7/3/1
f 12/3/1 10/3/1 9/3/1
f 13/3/1 11/3/1 7/3/1
f 13/3/1 12/3/1 11/3/1
f 14/3/1 10/3/1 12/3/1
f 14/3/1 12/3/1 13/3/1
f 19/3/1 16/3/1 15/3/1
f 20/3/1 16/3/1 19/3/1
f 21/3/1 18/3/1 17/3/1
f 22/3/1 18/3/1 21/3/1
f 29/1/1 26/1/1 25/1/1
f 30/1/1 26/1/1 29/1/1
f 31/1/1 24/1/1 23/1/1
f 32/1/1 28/1/1 27/1/1
f 33/1/1 31/1/1 23/1/1
f 33/1/1 32/1/1 31/1/1
f 34/1/1 32/1/1 33/1/1
f 35/1/1 28/1/1 32/1/1
f 35/1/1 32/1/1 34/1/1
f 36/1/1 28/1/1 35/1/1
f 37/1/1 35/1/1 34/1/1
f 38/1/1 35/1/1 37/1/1
f 43/3/1 40/3/1 39/3/1
f 44/3/1 40/3/1 43/3/1
f 47/1/1 42/1/1 41/1/1
f 48/1/1 42/1/1 47/1/1
f 49/1/1 44/1/1 43/1/1
f 50/1/1 44/1/1 49/1/1
f 51/1/1 46/1/1 45/1/1
f 52/1/1 46/1/1 51/1/1
f 57/3/1 54/3/1 53/3/1
f 58/3/1 54/3/1 57/3/1
f 59/3/1 56/3/1 55/3/1
f 60/3/1 56/3/1 59/3/1
f 65/4/1 62/4/1 61/4/1
f 66/4/1 62/4/1 65/4/1
f 67/4/1 64/4/1 63/4/1
f 68/4/1 64/4/1 67/4/1
f 73/2/1 70/2/1 69/2/1
f 74/2/1 70/2/1 73/2/1
f 77/2/1 72/2/1 71/2/1
f 78/2/1 72/2/1 77/2/1
f 79/3/1 75/3/1 74/3/1
f 79/3/1 74/3/1 73/3/1
f 80/3/1 75/3/1 79/3/1
f 81/3/1 78/3/1 77/3/1
f 81/3/1 77/3/1 76/3/1
f 82/3/1 78/3/1 81/3/1
f 85/3/1 81/3/1 80/3/1
f 86/3/1 81/3/1 85/3/1
f 89/3/1 84/3/1 83/3/1
f 90/3/1 84/3/1 89/3/1
f 91/3/1 88/3/1 87/3/1
f 92/3/1 88/3/1 91/3/1
f 93/3/1 89/3/1 83/3/1
f 94/3/1 88/3/1 92/3/1
f 95/3/1 93/3/1 83/3/1
f 96/3/1 93/3/1 95/3/1
f 97/3/1 88/3/1 94/3/1
f 98/3/1 88/3/1 97/3/1
f 101/2/1 100/2/1 99/2/1
f 102/2/1 100/2/1 101/2/1
f 103/2/2 104/2/2 105/2/2
f 105/2/2 104/2/2 106/2/2
f 107/1/2 108/1/2 109/1/2
f 109/1/2 108/1/2 110/1/2
f 110/1/2 108/1/2 111/1/2
f 111/1/2 108/1/2 112/1/2
f 110/1/2 111/1/2 113/1/2
f 113/1/2 111/1/2 114/1/2
f 115/2/2 116/2/2 119/2/2
f 119/2/2 116/2/2 120/2/2
f 117/2/2 118/2/2 123/2/2
f 123/2/2 118/2/2 124/2/2
f 120/3/2 121/3/2 125/3/2
f 119/3/2 120/3/2 125/3/2
f 125/3/2 121/3/2 126/3/2
f 123/3/2 124/3/2 127/3/2
f 122/3/2 123/3/2 127/3/2
f 127/3/2 124/3/2 128/3/2
f 126/3/2 127/3/2 131/3/2
f 131/3/2 127/3/2 132/3/2
f 129/3/2 130/3/2 135/3/2
f 135/3/2 130/3/2 136/3/2
f 133/3/2 134/3/2 137/3/2
f 137/3/2 134/3/2 138/3/2
f 129/3/2 135/3/2 139/3/2
f 138/3/2 134/3/2 140/3/2
f 129/3/2 139/3/2 141/3/2
f 141/3/2 139/3/2 142/3/2
f 140/3/2 134/3/2 143/3/2
f 143/3/2 134/3/2 144/3/2
f 145/3/2 146/3/2 149/3/2
f 149/3/2 146/3/2 150/3/2
f 147/3/2 148/3/2 151/3/2
f 151/3/2 148/3/2 152/3/2
f 153/4/2 154/4/2 157/4/2
f 157/4/2 154/4/2 158/4/2
f 155/4/2 156/4/2 159/4/2
f 159/4/2 156/4/2 160/4/2
f 161/3/2 162/3/2 163/3/2
f 163/3/2 162/3/2 164/3/2
f 165/4/2 166/4/2 169/4/2
f 169/4/2 166/4/2 170/4/2
f 167/4/2 168/4/2 171/4/2
f 171/4/2 168/4/2 172/4/2
f 173/1/2 174/1/2 177/1/2
f 177/1/2 174/1/2 178/1/2
f 175/1/2 176/1/2 179/1/2
f 179/1/2 176/1/2 180/1/2
f 181/2/2 182/2/2 183/2/2
f 183/2/2 182/2/2 184/2/2
f 183/3/2 184/3/2 185/3/2
f 185/3/2 184/3/2 186/3/2
f 187/1/2 188/1/2 189/1/2
f 189/1/2 188/1/2 190/1/2
f 193/4/3 192/4/3 191/4/3
f 194/4/3 192/4/3 193/4/3
f 200/2/3 196/2/3 195/2/3
f 201/3/3 197/3/3 196/3/3
f 201/2/3 196/2/3 200/2/3
f 202/3/3 197/3/3 201/3/3
f 203/3/3 199/3/3 198/3/3
f 204/3/3 199/3/3 203/3/3
f 207/4/3 206/4/3 205/4/3
f 208/4/3 206/4/3 207/4/3
f 212/1/3 210/1/3 209/1/3
f 213/1/3 210/1/3 212/1/3
f 214/1/3 212/1/3 211/1/3
f 215/1/3 212/1/3 214/1/3
f 218/1/3 217/1/3 216/1/3
f 219/1/3 217/1/3 218/1/3
f 222/1/3 221/1/3 220/1/3
f 223/1/3 221/1/3 222/1/3
f 226/3/3 225/3/3 224/3/3
f 227/3/3 225/3/3 226/3/3
f 230/3/3 229/3/3 228/3/3
f 231/3/3 229/3/3 230/3/3
f 234/1/3 233/1/3 232/1/3
f 235/1/3 233/1/3 234/1/3
f 239/3/3 237/3/3 236/3/3
f 240/3/3 237/3/3 239/3/3
f 241/3/3 237/3/3 240/3/3
f 242/3/3 239/3/3 238/3/3
f 242/3/3 240/3/3 239/3/3
f 243/3/3 240/3/3 242/3/3
f 244/3/3 242/3/3 238/3/3
f 245/3/3 242/3/3 244/3/3
f 248/3/3 247/3/3 246/3/3
f 249/3/3 247/3/3 248/3/3
f 253/2/3 251/2/3 250/2/3
f 254/3/3 252/3/3 251/3/3
f 254/2/3 251/2/3 253/2/3
f 255/3/3 252/3/3 254/3/3
f 256/3/3 252/3/3 255/3/3
f 259/3/3 257/3/3 256/3/3
f 260/3/3 257/3/3 259/3/3
f 262/3/3 259/3/3 258/3/3
f 263/2/3 262/2/3 261/2/3
f 264/3/3 259/3/3 262/3/3
f 264/2/3 262/2/3 263/2/3
f 265/3/3 259/3/3 264/3/3
f 269/3/3 267/3/3 266/3/3
f 270/3/3 267/3/3 269/3/3
f 271/3/3 267/3/3 270/3/3
f 272/3/3 269/3/3 268/3/3
f 272/3/3 270/3/3 269/3/3
f 273/3/3 270/3/3 272/3/3
f 274/3/3 270/3/3 273/3/3
f 280/4/3 276/4/3 275/4/3
f 281/2/3 278/2/3 277/2/3
f 282/2/3 278/2/3 281/2/3
f 283/3/3 280/3/3 279/3/3
f 284/4/3 276/4/3 280/4/3
f 284/3/3 280/3/3 283/3/3
f 285/4/3 276/4/3 284/4/3
f 286/4/3 276/4/3 285/4/3
f 287/4/4 288/4/4 292/4/4
f 289/2/4 290/2/4 293/2/4
f 293/2/4 290/2/4 294/2/4
f 291/3/4 292/3/4 295/3/4
f 292/4/4 288/4/4 296/4/4
f 295/3/4 292/3/4 296/3/4
f 296/4/4 288/4/4 297/4/4
f 297/4/4 288/4/4 298/4/4
f 299/3/4 300/3/4 302/3/4
f 302/3/4 300/3/4 303/3/4
f 303/3/4 300/3/4 304/3/4
f 301/3/4 302/3/4 305/3/4
f 302/3/4 303/3/4 305/3/4
f 305/3/4 303/3/4 306/3/4
f 306/3/4 303/3/4 307/3/4
f 308/2/4 309/2/4 311/2/4
f 309/3/4 310/3/4 312/3/4
f 311/2/4 309/2/4 312/2/4
f 312/3/4 310/3/4 313/3/4
f 313/3/4 310/3/4 314/3/4
f 314/3/4 315/3/4 317/3/4
f 317/3/4 315/3/4 318/3/4
f 316/3/4 317/3/4 320/3/4
f 319/2/4 320/2/4 321/2/4
f 320/3/4 317/3/4 322/3/4
f 321/2/4 320/2/4 322/2/4
f 322/3/4 317/3/4 323/3/4
f 324/3/4 325/3/4 327/3/4
f 327/3/4 325/3/4 328/3/4
f 328/3/4 325/3/4 329/3/4
f 326/3/4 327/3/4 330/3/4
f 327/3/4 328/3/4 330/3/4
f 330/3/4 328/3/4 331/3/4
f 326/3/4 330/3/4 332/3/4
f 332/3/4 330/3/4 333/3/4
f 334/3/4 335/3/4 336/3/4
f 336/3/4 335/3/4 337/3/4
f 338/1/4 339/1/4 340/1/4
f 340/1/4 339/1/4 341/1/4
f 342/3/4 343/3/4 344/3/4
f 344/3/4 343/3/4 345/3/4
f 346/3/4 347/3/4 348/3/4
f 348/3/4 347/3/4 349/3/4
f 350/1/4 351/1/4 352/1/4
f 352/1/4 351/1/4 353/1/4
f 354/1/4 355/1/4 357/1/4
f 357/1/4 355/1/4 358/1/4
f 356/1/4 357/1/4 359/1/4
f 359/1/4 357/1/4 360/1/4
f 361/1/4 362/1/4 363/1/4
f 363/1/4 362/1/4 364/1/4
f 365/2/4 366/2/4 370/2/4
f 366/3/4 367/3/4 371/3/4
f 370/2/4 366/2/4 371/2/4
f 371/3/4 367/3/4 372/3/4
f 368/3/4 369/3/4 373/3/4
f 373/3/4 369/3/4 374/3/4
f 375/4/4 376/4/4 377/4/4
f 377/4/4 376/4/4 378/4/4
f 379/4/4 380/4/4 381/4/4
f 381/4/4 380/4/4 382/4/4
f 385/2/5 384/2/5 383/2/5
f 386/2/5 384/2/5 385/2/5
f 391/2/5 388/2/5 387/2/5
f 392/2/5 388/2/5 391/2/5
f 393/2/5 390/2/5 389/2/5
f 394/2/5 390/2/5 393/2/5
f 397/2/5 396/2/5 395/2/5
f 398/2/5 396/2/5 397/2/5
f 402/3/5 400/3/5 399/3/5
f 403/3/5 400/3/5 402/3/5
f 405/3/5 402/3/5 401/3/5
f 405/3/5 404/3/5 403/3/5
f 405/3/5 403/3/5 402/3/5
f 406/3/5 404/3/5 405/3/5
f 407/3/5 404/3/5 406/3/5
f 408/3/5 404/3/5 407/3/5
f 409/3/5 407/3/5 406/3/5
f 410/3/5 407/3/5 409/3/5
f 414/3/5 412/3/5 411/3/5
f 415/3/5 412/3/5 414/3/5
f 418/3/5 414/3/5 413/3/5
f 418/3/5 416/3/5 415/3/5
f 418/3/5 415/3/5 414/3/5
f 419/3/5 416/3/5 418/3/5
f 421/3/5 418/3/5 417/3/5
f 421/3/5 420/3/5 419/3/5
f 421/3/5 419/3/5 418/3/5
f 422/3/5 420/3/5 421/3/5
f 423/3/5 420/3/5 422/3/5
f 424/3/5 420/3/5 423/3/5
f 426/3/5 423/3/5 422/3/5
f 427/3/5 423/3/5 426/3/5
f 428/3/5 420/3/5 424/3/5
f 429/3/5 427/3/5 426/3/5
f 429/3/5 428/3/5 427/3/5
f 429/3/5 426/3/5 425/3/5
f 430/3/5 428/3/5 429/3/5
f 431/3/5 420/3/5 428/3/5
f 431/3/5 428/3/5 430/3/5
f 432/3/5 420/3/5 431/3/5
f 433/3/5 431/3/5 430/3/5
f 434/3/5 431/3/5 433/3/5
f 435/3/5 431/3/5 434/3/5
f 436/3/5 431/3/5 435/3/5
f 437/3/5 435/3/5 434/3/5
f 438/3/5 435/3/5 437/3/5
f 443/1/5 440/1/5 439/1/5
f 444/1/5 440/1/5 443/1/5
f 445/1/5 442/1/5 441/1/5
f 446/1/5 442/1/5 445/1/5
f 447/1/5 442/1/5 446/1/5
f 451/1/5 443/1/5 439/1/5
f 452/1/5 443/1/5 451/1/5
f 453/1/5 448/1/5 447/1/5
f 453/1/5 447/1/5 446/1/5
f 454/1/5 448/1/5 453/1/5
f 455/3/5 450/3/5 449/3/5
f 456/3/5 450/3/5 455/3/5
f 459/3/5 458/3/5 457/3/5
f 460/3/5 458/3/5 459/3/5
f 464/1/5 448/1/5 454/1/5
f 465/1/5 462/1/5 461/1/5
f 468/1/5 464/1/5 463/1/5
f 469/1/5 448/1/5 464/1/5
f 469/1/5 464/1/5 468/1/5
f 470/1/5 448/1/5 469/1/5
f 471/1/5 466/1/5 465/1/5
f 471/1/5 465/1/5 461/1/5
f 472/1/5 466/1/5 471/1/5
f 473/1/5 468/1/5 467/1/5
f 473/1/5 469/1/5 468/1/5
f 474/1/5 469/1/5 473/1/5
f 477/1/5 476/1/5 475/1/5
f 478/1/5 476/1/5 477/1/5
f 481/1/5 480/1/5 479/1/5
f 482/1/5 480/1/5 481/1/5
f 485/1/5 484/1/5 483/1/5
f 486/1/5 484/1/5 485/1/5
f 489/4/5 488/4/5 487/4/5
f 490/4/5 488/4/5 489/4/5
f 491/4/5 488/4/5 490/4/5
f 493/4/5 489/4/5 487/4/5
f 494/4/5 489/4/5 493/4/5
f 495/4/5 492/4/5 491/4/5
f 495/4/5 491/4/5 490/4/5
f 496/4/5 492/4/5 495/4/5
f 499/3/5 498/3/5 497/3/5
f 500/3/5 498/3/5 499/3/5
f 505/4/5 502/4/5 501/4/5
f 506/4/5 504/4/5 503/4/5
f 507/4/5 504/4/5 506/4/5
f 508/4/5 504/4/5 507/4/5
f 509/4/5 505/4/5 501/4/5
f 509/4/5 506/4/5 505/4/5
f 509/4/5 507/4/5 506/4/5
f 510/4/5 507/4/5 509/4/5
f 511/3/6 512/3/6 514/3/6
f 514/3/6 512/3/6 515/3/6
f 513/3/6 514/3/6 517/3/6
f 517/3/6 514/3/6 518/3/6
f 515/3/6 516/3/6 519/3/6
f 519/3/6 516/3/6 520/3/6
f 518/3/6 519/3/6 521/3/6
f 521/3/6 519/3/6 522/3/6
f 523/1/6 524/1/6 527/1/6
f 525/1/6 526/1/6 527/1/6
f 524/1/6 525/1/6 527/1/6
f 523/1/6 527/1/6 529/1/6
f 527/1/6 528/1/6 529/1/6
f 529/1/6 528/1/6 530/1/6
f 523/1/6 529/1/6 531/1/6
f 531/1/6 529/1/6 532/1/6
f 532/1/6 529/1/6 533/1/6
f 533/1/6 529/1/6 534/1/6
f 535/4/6 536/4/6 537/4/6
f 535/4/6 537/4/6 539/4/6
f 537/4/6 538/4/6 539/4/6
f 539/4/6 538/4/6 540/4/6
f 541/3/6 542/3/6 543/3/6
f 543/3/6 542/3/6 544/3/6
f 545/4/6 546/4/6 547/4/6
f 547/4/6 546/4/6 548/4/6
f 545/4/6 547/4/6 549/4/6
f 549/4/6 547/4/6 550/4/6
f 551/1/6 552/1/6 553/1/6
f 553/1/6 552/1/6 554/1/6
f 555/1/6 556/1/6 557/1/6
f 557/1/6 556/1/6 558/1/6
f 559/1/6 560/1/6 561/1/6
f 561/1/6 560/1/6 562/1/6
