# MagicaVoxel @ Ephtracy

# group
g Sink

# material
mtllib Sink.mtl
usemtl palette

# normals
vn -1 0 0
vn 1 0 0
vn 0 0 1
vn 0 0 -1
vn 0 -1 0
vn 0 1 0

# texcoords
vt 0.341797 0.5
vt 0.779297 0.5
vt 0.958984 0.5
vt 0.974609 0.5
vt 0.994141 0.5

# verts
v -5 0 5
v -5 0 -5
v -5 12 5
v -5 12 -5
v -5 13 5
v -5 13 -5
v -4 13 3
v -4 13 -3
v -4 14 3
v -4 14 1
v -4 14 -1
v -4 14 -3
v -4 15 3
v -4 15 1
v -4 15 -1
v -4 15 -3
v -1 12 1
v -1 12 -1
v -1 14 1
v -1 14 -1
v 3 12 3
v 3 12 -3
v 3 13 3
v 3 13 -3
v -3 13 3
v -3 13 1
v -3 13 -1
v -3 13 -3
v -3 14 3
v -3 14 1
v -3 14 -1
v -3 14 -3
v -3 15 3
v -3 15 1
v -3 15 -1
v -3 15 -3
v -2 12 3
v -2 12 -3
v -2 13 3
v -2 13 1
v -2 13 -1
v -2 13 -3
v -2 14 1
v -2 14 -1
v 0 12 1
v 0 12 -1
v 0 14 1
v 0 14 -1
v 0 15 1
v 0 15 -1
v 2 0 5
v 2 0 3
v 2 0 -3
v 2 0 -5
v 2 8 3
v 2 8 -3
v 2 9 5
v 2 9 -5
v 4 9 5
v 4 9 4
v 4 9 -4
v 4 9 -5
v 4 12 5
v 4 12 4
v 4 12 -4
v 4 12 -5
v 4 13 5
v 4 13 4
v 4 13 -4
v 4 13 -5
v 5 9 4
v 5 9 -4
v 5 12 4
v 5 12 -4
v 5 13 4
v 5 13 -4
v -5 0 5
v -5 12 5
v -5 13 5
v 2 0 5
v 2 9 5
v 4 9 5
v 4 12 5
v 4 13 5
v 4 9 4
v 4 12 4
v 4 13 4
v 5 9 4
v 5 12 4
v 5 13 4
v -4 13 3
v -4 14 3
v -4 15 3
v -3 13 3
v -3 14 3
v -3 15 3
v -3 13 1
v -3 14 1
v -3 15 1
v -2 13 1
v -2 14 1
v -1 12 1
v -1 14 1
v 0 12 1
v 0 14 1
v 0 15 1
v -2 12 -3
v -2 13 -3
v 3 12 -3
v 3 13 -3
v -2 12 3
v -2 13 3
v 3 12 3
v 3 13 3
v -3 13 -1
v -3 14 -1
v -3 15 -1
v -2 13 -1
v -2 14 -1
v -1 12 -1
v -1 14 -1
v 0 12 -1
v 0 14 -1
v 0 15 -1
v -4 13 -3
v -4 14 -3
v -4 15 -3
v -3 13 -3
v -3 14 -3
v -3 15 -3
v 4 9 -4
v 4 12 -4
v 4 13 -4
v 5 9 -4
v 5 12 -4
v 5 13 -4
v -5 0 -5
v -5 12 -5
v -5 13 -5
v 2 0 -5
v 2 9 -5
v 4 9 -5
v 4 12 -5
v 4 13 -5
v -5 0 5
v 2 0 5
v 1 0 3
v 2 0 3
v 1 0 -3
v 2 0 -3
v -5 0 -5
v 2 0 -5
v 2 9 5
v 4 9 5
v 4 9 4
v 5 9 4
v 4 9 -4
v 5 9 -4
v 2 9 -5
v 4 9 -5
v -2 14 1
v -1 14 1
v -2 14 -1
v -1 14 -1
v -2 12 3
v 3 12 3
v -1 12 1
v 0 12 1
v -1 12 -1
v 0 12 -1
v -2 12 -3
v 3 12 -3
v -5 13 5
v 4 13 5
v 4 13 4
v 5 13 4
v -4 13 3
v -3 13 3
v -2 13 3
v 3 13 3
v -3 13 1
v -2 13 1
v -3 13 -1
v -2 13 -1
v -4 13 -3
v -3 13 -3
v -2 13 -3
v 3 13 -3
v 4 13 -4
v 5 13 -4
v -5 13 -5
v 4 13 -5
v -4 15 3
v -3 15 3
v -4 15 1
v -3 15 1
v 0 15 1
v -4 15 -1
v -3 15 -1
v 0 15 -1
v -4 15 -3
v -3 15 -3

# faces
f 3/3/1 2/3/1 1/3/1
f 4/3/1 2/3/1 3/3/1
f 5/1/1 4/1/1 3/1/1
f 6/1/1 4/1/1 5/1/1
f 9/3/1 8/3/1 7/3/1
f 10/3/1 8/3/1 9/3/1
f 11/3/1 8/3/1 10/3/1
f 12/3/1 8/3/1 11/3/1
f 13/5/1 10/5/1 9/5/1
f 14/3/1 11/3/1 10/3/1
f 14/5/1 10/5/1 13/5/1
f 15/5/1 12/5/1 11/5/1
f 15/3/1 11/3/1 14/3/1
f 16/5/1 12/5/1 15/5/1
f 19/2/1 18/2/1 17/2/1
f 20/2/1 18/2/1 19/2/1
f 23/1/1 22/1/1 21/1/1
f 24/1/1 22/1/1 23/1/1
f 25/3/2 26/3/2 29/3/2
f 29/3/2 26/3/2 30/3/2
f 27/3/2 28/3/2 31/3/2
f 31/3/2 28/3/2 32/3/2
f 29/5/2 30/5/2 33/5/2
f 33/5/2 30/5/2 34/5/2
f 31/5/2 32/5/2 35/5/2
f 35/5/2 32/5/2 36/5/2
f 37/1/2 38/1/2 39/1/2
f 39/1/2 38/1/2 40/1/2
f 40/1/2 38/1/2 41/1/2
f 41/1/2 38/1/2 42/1/2
f 40/3/2 41/3/2 43/3/2
f 43/3/2 41/3/2 44/3/2
f 45/2/2 46/2/2 47/2/2
f 47/2/2 46/2/2 48/2/2
f 47/3/2 48/3/2 49/3/2
f 49/3/2 48/3/2 50/3/2
f 51/3/2 52/3/2 55/3/2
f 52/4/2 53/4/2 55/4/2
f 53/3/2 54/3/2 56/3/2
f 55/4/2 53/4/2 56/4/2
f 51/3/2 55/3/2 57/3/2
f 55/3/2 56/3/2 57/3/2
f 56/3/2 54/3/2 58/3/2
f 57/3/2 56/3/2 58/3/2
f 59/3/2 60/3/2 63/3/2
f 63/3/2 60/3/2 64/3/2
f 61/3/2 62/3/2 65/3/2
f 65/3/2 62/3/2 66/3/2
f 63/1/2 64/1/2 67/1/2
f 67/1/2 64/1/2 68/1/2
f 65/1/2 66/1/2 69/1/2
f 69/1/2 66/1/2 70/1/2
f 71/3/2 72/3/2 73/3/2
f 73/3/2 72/3/2 74/3/2
f 73/1/2 74/1/2 75/1/2
f 75/1/2 74/1/2 76/1/2
f 80/3/3 78/3/3 77/3/3
f 81/3/3 78/3/3 80/3/3
f 82/3/3 78/3/3 81/3/3
f 83/1/3 79/1/3 78/1/3
f 83/3/3 78/3/3 82/3/3
f 84/1/3 79/1/3 83/1/3
f 88/3/3 86/3/3 85/3/3
f 89/1/3 87/1/3 86/1/3
f 89/3/3 86/3/3 88/3/3
f 90/1/3 87/1/3 89/1/3
f 94/3/3 92/3/3 91/3/3
f 95/5/3 93/5/3 92/5/3
f 95/3/3 92/3/3 94/3/3
f 96/5/3 93/5/3 95/5/3
f 100/3/3 98/3/3 97/3/3
f 100/3/3 99/3/3 98/3/3
f 101/3/3 99/3/3 100/3/3
f 103/3/3 99/3/3 101/3/3
f 104/2/3 103/2/3 102/2/3
f 105/3/3 99/3/3 103/3/3
f 105/2/3 103/2/3 104/2/3
f 106/3/3 99/3/3 105/3/3
f 109/1/3 108/1/3 107/1/3
f 110/1/3 108/1/3 109/1/3
f 111/1/4 112/1/4 113/1/4
f 113/1/4 112/1/4 114/1/4
f 115/3/4 116/3/4 118/3/4
f 116/3/4 117/3/4 118/3/4
f 118/3/4 117/3/4 119/3/4
f 119/3/4 117/3/4 121/3/4
f 120/2/4 121/2/4 122/2/4
f 121/3/4 117/3/4 123/3/4
f 122/2/4 121/2/4 123/2/4
f 123/3/4 117/3/4 124/3/4
f 125/3/4 126/3/4 128/3/4
f 126/5/4 127/5/4 129/5/4
f 128/3/4 126/3/4 129/3/4
f 129/5/4 127/5/4 130/5/4
f 131/3/4 132/3/4 134/3/4
f 132/1/4 133/1/4 135/1/4
f 134/3/4 132/3/4 135/3/4
f 135/1/4 133/1/4 136/1/4
f 137/3/4 138/3/4 140/3/4
f 140/3/4 138/3/4 141/3/4
f 141/3/4 138/3/4 142/3/4
f 138/1/4 139/1/4 143/1/4
f 142/3/4 138/3/4 143/3/4
f 143/1/4 139/1/4 144/1/4
f 147/3/5 146/3/5 145/3/5
f 148/3/5 146/3/5 147/3/5
f 149/3/5 147/3/5 145/3/5
f 149/4/5 148/4/5 147/4/5
f 150/4/5 148/4/5 149/4/5
f 151/3/5 149/3/5 145/3/5
f 151/3/5 150/3/5 149/3/5
f 152/3/5 150/3/5 151/3/5
f 155/3/5 154/3/5 153/3/5
f 157/3/5 155/3/5 153/3/5
f 157/3/5 156/3/5 155/3/5
f 158/3/5 156/3/5 157/3/5
f 159/3/5 157/3/5 153/3/5
f 160/3/5 157/3/5 159/3/5
f 163/3/5 162/3/5 161/3/5
f 164/3/5 162/3/5 163/3/5
f 165/2/6 166/2/6 167/2/6
f 167/2/6 166/2/6 168/2/6
f 165/2/6 167/2/6 169/2/6
f 168/2/6 166/2/6 170/2/6
f 165/2/6 169/2/6 171/2/6
f 169/2/6 170/2/6 171/2/6
f 170/2/6 166/2/6 172/2/6
f 171/2/6 170/2/6 172/2/6
f 173/1/6 174/1/6 175/1/6
f 173/1/6 175/1/6 177/1/6
f 175/1/6 176/1/6 177/1/6
f 177/1/6 176/1/6 178/1/6
f 178/1/6 176/1/6 179/1/6
f 179/1/6 176/1/6 180/1/6
f 178/1/6 179/1/6 181/1/6
f 181/1/6 179/1/6 182/1/6
f 173/1/6 177/1/6 185/1/6
f 183/1/6 184/1/6 186/1/6
f 186/1/6 184/1/6 187/1/6
f 180/1/6 176/1/6 188/1/6
f 186/1/6 187/1/6 189/1/6
f 187/1/6 188/1/6 189/1/6
f 188/1/6 176/1/6 189/1/6
f 185/1/6 186/1/6 189/1/6
f 189/1/6 176/1/6 190/1/6
f 173/1/6 185/1/6 191/1/6
f 185/1/6 189/1/6 191/1/6
f 191/1/6 189/1/6 192/1/6
f 193/5/6 194/5/6 195/5/6
f 195/5/6 194/5/6 196/5/6
f 195/3/6 196/3/6 198/3/6
f 196/3/6 197/3/6 198/3/6
f 198/3/6 197/3/6 199/3/6
f 199/3/6 197/3/6 200/3/6
f 198/5/6 199/5/6 201/5/6
f 201/5/6 199/5/6 202/5/6
