# MagicaVoxel @ Ephtracy

# group
g gold cart-1

# material
mtllib gold cart-1.mtl
usemtl palette

# normals
vn -1 0 0
vn 1 0 0
vn 0 0 1
vn 0 0 -1
vn 0 -1 0
vn 0 1 0

# texcoords
vt 0.146484 0.5
vt 0.310547 0.5
vt 0.994141 0.5

# verts
v -12 0 5
v -12 0 3
v -12 0 -3
v -12 0 -5
v -12 2 6
v -12 2 5
v -12 2 3
v -12 2 -3
v -12 2 -5
v -12 2 -6
v -12 4 4
v -12 4 1
v -12 4 -1
v -12 4 -3
v -12 5 4
v -12 5 3
v -12 5 2
v -12 5 1
v -12 5 -0
v -12 5 -1
v -12 5 -3
v -12 5 -4
v -12 9 2
v -12 9 1
v -12 10 2
v -12 10 1
v -12 10 -0
v -12 10 -1
v -12 10 -3
v -12 10 -4
v -12 11 3
v -12 11 2
v -12 11 -1
v -12 11 -3
v -12 14 6
v -12 14 -6
v 10 0 5
v 10 0 3
v 10 0 -3
v 10 0 -5
v 10 2 5
v 10 2 3
v 10 2 -3
v 10 2 -5
v 11 3 6
v 11 3 -6
v 11 4 3
v 11 4 1
v 11 4 -1
v 11 4 -4
v 11 5 4
v 11 5 3
v 11 5 1
v 11 5 -0
v 11 5 -1
v 11 5 -2
v 11 5 -3
v 11 5 -4
v 11 9 6
v 11 9 4
v 11 9 3
v 11 9 1
v 11 9 -0
v 11 9 -2
v 11 9 -3
v 11 9 -6
v 11 10 6
v 11 10 3
v 11 10 1
v 11 10 -2
v 11 10 -3
v 11 10 -6
v 11 11 3
v 11 11 1
v 11 11 -2
v 11 11 -3
v 11 14 6
v 11 14 -6
v -11 3 6
v -11 3 -6
v -11 4 4
v -11 4 1
v -11 4 -1
v -11 4 -3
v -11 5 4
v -11 5 3
v -11 5 2
v -11 5 1
v -11 5 -0
v -11 5 -1
v -11 5 -3
v -11 5 -4
v -11 9 6
v -11 9 3
v -11 9 2
v -11 9 -0
v -11 9 -1
v -11 9 -3
v -11 9 -4
v -11 9 -6
v -11 10 6
v -11 10 3
v -11 10 2
v -11 10 -1
v -11 10 -3
v -11 10 -6
v -11 11 3
v -11 11 2
v -11 11 -1
v -11 11 -3
v -11 14 6
v -11 14 -6
v -10 0 5
v -10 0 3
v -10 0 -3
v -10 0 -5
v -10 2 5
v -10 2 3
v -10 2 -3
v -10 2 -5
v 12 0 5
v 12 0 3
v 12 0 -3
v 12 0 -5
v 12 2 6
v 12 2 5
v 12 2 3
v 12 2 -3
v 12 2 -5
v 12 2 -6
v 12 4 3
v 12 4 1
v 12 4 -1
v 12 4 -4
v 12 5 4
v 12 5 3
v 12 5 1
v 12 5 -0
v 12 5 -1
v 12 5 -2
v 12 5 -3
v 12 5 -4
v 12 9 -1
v 12 9 -2
v 12 10 4
v 12 10 3
v 12 10 1
v 12 10 -0
v 12 10 -1
v 12 10 -2
v 12 11 3
v 12 11 1
v 12 11 -2
v 12 11 -3
v 12 14 6
v 12 14 -6
v -12 2 6
v -12 14 6
v -11 3 6
v -11 9 6
v -11 10 6
v -11 14 6
v 11 3 6
v 11 9 6
v 11 10 6
v 11 14 6
v 12 2 6
v 12 14 6
v -12 0 5
v -12 2 5
v -10 0 5
v -10 2 5
v 10 0 5
v 10 2 5
v 12 0 5
v 12 2 5
v -12 0 -3
v -12 2 -3
v -10 0 -3
v -10 2 -3
v 10 0 -3
v 10 2 -3
v 12 0 -3
v 12 2 -3
v -12 0 3
v -12 2 3
v -10 0 3
v -10 2 3
v 10 0 3
v 10 2 3
v 12 0 3
v 12 2 3
v -12 0 -5
v -12 2 -5
v -10 0 -5
v -10 2 -5
v 10 0 -5
v 10 2 -5
v 12 0 -5
v 12 2 -5
v -12 2 -6
v -12 14 -6
v -11 3 -6
v -11 9 -6
v -11 10 -6
v -11 14 -6
v 11 3 -6
v 11 9 -6
v 11 10 -6
v 11 14 -6
v 12 2 -6
v 12 14 -6
v -12 0 5
v -10 0 5
v 10 0 5
v 12 0 5
v -12 0 3
v -10 0 3
v 10 0 3
v 12 0 3
v -12 0 -3
v -10 0 -3
v 10 0 -3
v 12 0 -3
v -12 0 -5
v -10 0 -5
v 10 0 -5
v 12 0 -5
v -12 2 6
v 12 2 6
v -12 2 5
v -10 2 5
v 10 2 5
v 12 2 5
v -12 2 3
v -10 2 3
v 10 2 3
v 12 2 3
v -12 2 -3
v -10 2 -3
v 10 2 -3
v 12 2 -3
v -12 2 -5
v -10 2 -5
v 10 2 -5
v 12 2 -5
v -12 2 -6
v 12 2 -6
v -11 9 6
v 11 9 6
v 11 9 4
v -11 9 3
v 11 9 3
v -11 9 2
v 11 9 1
v -11 9 -0
v 11 9 -0
v -11 9 -1
v 11 9 -2
v -11 9 -3
v 11 9 -3
v -11 9 -4
v -11 9 -6
v 11 9 -6
v -11 3 6
v 11 3 6
v -11 3 -6
v 11 3 -6
v -11 10 6
v 11 10 6
v -11 10 3
v 11 10 3
v -11 10 2
v 11 10 1
v -11 10 -1
v 11 10 -2
v -11 10 -3
v 11 10 -3
v -11 10 -6
v 11 10 -6
v -12 14 6
v -11 14 6
v 11 14 6
v 12 14 6
v -12 14 -6
v -11 14 -6
v 11 14 -6
v 12 14 -6

# faces
f 6/3/1 2/3/1 1/3/1
f 7/3/1 2/3/1 6/3/1
f 8/3/1 4/3/1 3/3/1
f 9/3/1 4/3/1 8/3/1
f 11/2/1 7/2/1 6/2/1
f 11/2/1 10/2/1 9/2/1
f 11/2/1 9/2/1 8/2/1
f 11/2/1 8/2/1 7/2/1
f 11/2/1 6/2/1 5/2/1
f 12/2/1 10/2/1 11/2/1
f 13/2/1 10/2/1 12/2/1
f 14/2/1 10/2/1 13/2/1
f 15/2/1 11/2/1 5/2/1
f 15/1/1 12/1/1 11/1/1
f 16/1/1 12/1/1 15/1/1
f 17/1/1 12/1/1 16/1/1
f 18/2/1 13/2/1 12/2/1
f 18/1/1 12/1/1 17/1/1
f 19/2/1 13/2/1 18/2/1
f 20/1/1 14/1/1 13/1/1
f 20/2/1 13/2/1 19/2/1
f 21/2/1 10/2/1 14/2/1
f 21/1/1 14/1/1 20/1/1
f 22/2/1 10/2/1 21/2/1
f 23/2/1 19/2/1 18/2/1
f 23/1/1 17/1/1 16/1/1
f 23/2/1 18/2/1 17/2/1
f 24/2/1 19/2/1 23/2/1
f 25/1/1 23/1/1 16/1/1
f 25/1/1 24/1/1 23/1/1
f 26/2/1 19/2/1 24/2/1
f 26/1/1 24/1/1 25/1/1
f 27/1/1 20/1/1 19/1/1
f 27/2/1 19/2/1 26/2/1
f 28/2/1 21/2/1 20/2/1
f 28/1/1 20/1/1 27/1/1
f 29/1/1 22/1/1 21/1/1
f 29/2/1 21/2/1 28/2/1
f 30/2/1 10/2/1 22/2/1
f 30/1/1 22/1/1 29/1/1
f 31/2/1 16/2/1 15/2/1
f 31/1/1 25/1/1 16/1/1
f 32/2/1 26/2/1 25/2/1
f 32/1/1 25/1/1 31/1/1
f 32/2/1 28/2/1 27/2/1
f 32/2/1 27/2/1 26/2/1
f 33/1/1 29/1/1 28/1/1
f 33/2/1 28/2/1 32/2/1
f 34/2/1 30/2/1 29/2/1
f 34/1/1 29/1/1 33/1/1
f 35/2/1 31/2/1 15/2/1
f 35/2/1 32/2/1 31/2/1
f 35/2/1 34/2/1 33/2/1
f 35/2/1 33/2/1 32/2/1
f 35/2/1 15/2/1 5/2/1
f 36/2/1 30/2/1 34/2/1
f 36/2/1 34/2/1 35/2/1
f 36/2/1 10/2/1 30/2/1
f 41/3/1 38/3/1 37/3/1
f 42/3/1 38/3/1 41/3/1
f 43/3/1 40/3/1 39/3/1
f 44/3/1 40/3/1 43/3/1
f 47/2/1 46/2/1 45/2/1
f 48/2/1 46/2/1 47/2/1
f 49/2/1 46/2/1 48/2/1
f 50/2/1 46/2/1 49/2/1
f 51/2/1 47/2/1 45/2/1
f 52/1/1 48/1/1 47/1/1
f 52/2/1 47/2/1 51/2/1
f 53/2/1 49/2/1 48/2/1
f 53/1/1 48/1/1 52/1/1
f 54/2/1 49/2/1 53/2/1
f 55/1/1 50/1/1 49/1/1
f 55/2/1 49/2/1 54/2/1
f 56/1/1 50/1/1 55/1/1
f 57/1/1 50/1/1 56/1/1
f 58/2/1 46/2/1 50/2/1
f 58/1/1 50/1/1 57/1/1
f 59/2/1 51/2/1 45/2/1
f 60/1/1 52/1/1 51/1/1
f 60/2/1 51/2/1 59/2/1
f 61/2/1 53/2/1 52/2/1
f 61/1/1 52/1/1 60/1/1
f 62/1/1 54/1/1 53/1/1
f 62/2/1 53/2/1 61/2/1
f 63/2/1 55/2/1 54/2/1
f 63/1/1 54/1/1 62/1/1
f 63/2/1 56/2/1 55/2/1
f 64/1/1 57/1/1 56/1/1
f 64/2/1 56/2/1 63/2/1
f 65/2/1 58/2/1 57/2/1
f 65/1/1 57/1/1 64/1/1
f 66/2/1 46/2/1 58/2/1
f 66/2/1 58/2/1 65/2/1
f 73/2/1 68/2/1 67/2/1
f 73/1/1 69/1/1 68/1/1
f 74/2/1 70/2/1 69/2/1
f 74/1/1 69/1/1 73/1/1
f 75/1/1 71/1/1 70/1/1
f 75/2/1 70/2/1 74/2/1
f 76/2/1 72/2/1 71/2/1
f 76/1/1 71/1/1 75/1/1
f 77/2/1 75/2/1 74/2/1
f 77/2/1 74/2/1 73/2/1
f 77/2/1 76/2/1 75/2/1
f 77/2/1 73/2/1 67/2/1
f 78/2/1 72/2/1 76/2/1
f 78/2/1 76/2/1 77/2/1
f 79/2/2 80/2/2 81/2/2
f 81/2/2 80/2/2 82/2/2
f 82/2/2 80/2/2 83/2/2
f 83/2/2 80/2/2 84/2/2
f 79/2/2 81/2/2 85/2/2
f 81/1/2 82/1/2 85/1/2
f 85/1/2 82/1/2 86/1/2
f 86/1/2 82/1/2 87/1/2
f 82/2/2 83/2/2 88/2/2
f 87/1/2 82/1/2 88/1/2
f 88/2/2 83/2/2 89/2/2
f 83/1/2 84/1/2 90/1/2
f 89/2/2 83/2/2 90/2/2
f 84/2/2 80/2/2 91/2/2
f 90/1/2 84/1/2 91/1/2
f 91/2/2 80/2/2 92/2/2
f 79/2/2 85/2/2 93/2/2
f 85/2/2 86/2/2 93/2/2
f 86/1/2 87/1/2 94/1/2
f 93/2/2 86/2/2 94/2/2
f 88/2/2 89/2/2 95/2/2
f 94/1/2 87/1/2 95/1/2
f 87/2/2 88/2/2 95/2/2
f 89/1/2 90/1/2 96/1/2
f 95/2/2 89/2/2 96/2/2
f 90/2/2 91/2/2 97/2/2
f 96/1/2 90/1/2 97/1/2
f 91/1/2 92/1/2 98/1/2
f 97/2/2 91/2/2 98/2/2
f 92/2/2 80/2/2 99/2/2
f 98/1/2 92/1/2 99/1/2
f 99/2/2 80/2/2 100/2/2
f 101/2/2 102/2/2 107/2/2
f 102/1/2 103/1/2 107/1/2
f 103/2/2 104/2/2 108/2/2
f 107/1/2 103/1/2 108/1/2
f 104/1/2 105/1/2 109/1/2
f 108/2/2 104/2/2 109/2/2
f 105/2/2 106/2/2 110/2/2
f 109/1/2 105/1/2 110/1/2
f 108/2/2 109/2/2 111/2/2
f 107/2/2 108/2/2 111/2/2
f 109/2/2 110/2/2 111/2/2
f 101/2/2 107/2/2 111/2/2
f 110/2/2 106/2/2 112/2/2
f 111/2/2 110/2/2 112/2/2
f 113/3/2 114/3/2 117/3/2
f 117/3/2 114/3/2 118/3/2
f 115/3/2 116/3/2 119/3/2
f 119/3/2 116/3/2 120/3/2
f 121/3/2 122/3/2 126/3/2
f 126/3/2 122/3/2 127/3/2
f 123/3/2 124/3/2 128/3/2
f 128/3/2 124/3/2 129/3/2
f 126/2/2 127/2/2 131/2/2
f 129/2/2 130/2/2 131/2/2
f 128/2/2 129/2/2 131/2/2
f 127/2/2 128/2/2 131/2/2
f 125/2/2 126/2/2 131/2/2
f 131/2/2 130/2/2 132/2/2
f 132/2/2 130/2/2 133/2/2
f 133/2/2 130/2/2 134/2/2
f 125/2/2 131/2/2 135/2/2
f 131/1/2 132/1/2 136/1/2
f 135/2/2 131/2/2 136/2/2
f 132/2/2 133/2/2 137/2/2
f 136/1/2 132/1/2 137/1/2
f 137/2/2 133/2/2 138/2/2
f 133/1/2 134/1/2 139/1/2
f 138/2/2 133/2/2 139/2/2
f 139/1/2 134/1/2 140/1/2
f 140/1/2 134/1/2 141/1/2
f 134/2/2 130/2/2 142/2/2
f 141/1/2 134/1/2 142/1/2
f 138/2/2 139/2/2 143/2/2
f 139/2/2 140/2/2 143/2/2
f 140/1/2 141/1/2 144/1/2
f 143/2/2 140/2/2 144/2/2
f 125/2/2 135/2/2 145/2/2
f 135/1/2 136/1/2 145/1/2
f 136/2/2 137/2/2 146/2/2
f 145/1/2 136/1/2 146/1/2
f 137/1/2 138/1/2 147/1/2
f 146/2/2 137/2/2 147/2/2
f 138/2/2 143/2/2 148/2/2
f 147/1/2 138/1/2 148/1/2
f 143/1/2 144/1/2 149/1/2
f 148/2/2 143/2/2 149/2/2
f 144/1/2 141/1/2 150/1/2
f 149/1/2 144/1/2 150/1/2
f 146/1/2 147/1/2 151/1/2
f 145/2/2 146/2/2 151/2/2
f 148/2/2 149/2/2 152/2/2
f 151/1/2 147/1/2 152/1/2
f 147/2/2 148/2/2 152/2/2
f 149/2/2 150/2/2 152/2/2
f 150/1/2 141/1/2 153/1/2
f 152/2/2 150/2/2 153/2/2
f 141/2/2 142/2/2 154/2/2
f 153/1/2 141/1/2 154/1/2
f 151/2/2 152/2/2 155/2/2
f 145/2/2 151/2/2 155/2/2
f 153/2/2 154/2/2 155/2/2
f 125/2/2 145/2/2 155/2/2
f 152/2/2 153/2/2 155/2/2
f 154/2/2 142/2/2 156/2/2
f 155/2/2 154/2/2 156/2/2
f 142/2/2 130/2/2 156/2/2
f 159/2/3 158/2/3 157/2/3
f 160/2/3 158/2/3 159/2/3
f 161/2/3 158/2/3 160/2/3
f 162/2/3 158/2/3 161/2/3
f 163/2/3 159/2/3 157/2/3
f 164/2/3 161/2/3 160/2/3
f 165/2/3 161/2/3 164/2/3
f 167/2/3 163/2/3 157/2/3
f 167/2/3 166/2/3 165/2/3
f 167/2/3 165/2/3 164/2/3
f 167/2/3 164/2/3 163/2/3
f 168/2/3 166/2/3 167/2/3
f 171/3/3 170/3/3 169/3/3
f 172/3/3 170/3/3 171/3/3
f 175/3/3 174/3/3 173/3/3
f 176/3/3 174/3/3 175/3/3
f 179/3/3 178/3/3 177/3/3
f 180/3/3 178/3/3 179/3/3
f 183/3/3 182/3/3 181/3/3
f 184/3/3 182/3/3 183/3/3
f 185/3/4 186/3/4 187/3/4
f 187/3/4 186/3/4 188/3/4
f 189/3/4 190/3/4 191/3/4
f 191/3/4 190/3/4 192/3/4
f 193/3/4 194/3/4 195/3/4
f 195/3/4 194/3/4 196/3/4
f 197/3/4 198/3/4 199/3/4
f 199/3/4 198/3/4 200/3/4
f 201/2/4 202/2/4 203/2/4
f 203/2/4 202/2/4 204/2/4
f 204/2/4 202/2/4 205/2/4
f 205/2/4 202/2/4 206/2/4
f 201/2/4 203/2/4 207/2/4
f 204/2/4 205/2/4 208/2/4
f 208/2/4 205/2/4 209/2/4
f 201/2/4 207/2/4 211/2/4
f 209/2/4 210/2/4 211/2/4
f 208/2/4 209/2/4 211/2/4
f 207/2/4 208/2/4 211/2/4
f 211/2/4 210/2/4 212/2/4
f 217/3/5 214/3/5 213/3/5
f 218/3/5 214/3/5 217/3/5
f 219/3/5 216/3/5 215/3/5
f 220/3/5 216/3/5 219/3/5
f 225/3/5 222/3/5 221/3/5
f 226/3/5 222/3/5 225/3/5
f 227/3/5 224/3/5 223/3/5
f 228/3/5 224/3/5 227/3/5
f 231/2/5 230/2/5 229/2/5
f 232/2/5 230/2/5 231/2/5
f 233/2/5 230/2/5 232/2/5
f 234/2/5 230/2/5 233/2/5
f 236/2/5 233/2/5 232/2/5
f 237/2/5 233/2/5 236/2/5
f 239/2/5 236/2/5 235/2/5
f 239/2/5 238/2/5 237/2/5
f 239/2/5 237/2/5 236/2/5
f 240/2/5 238/2/5 239/2/5
f 241/2/5 238/2/5 240/2/5
f 242/2/5 238/2/5 241/2/5
f 244/2/5 241/2/5 240/2/5
f 245/2/5 241/2/5 244/2/5
f 247/2/5 244/2/5 243/2/5
f 247/2/5 246/2/5 245/2/5
f 247/2/5 245/2/5 244/2/5
f 248/2/5 246/2/5 247/2/5
f 251/2/5 250/2/5 249/2/5
f 252/2/5 251/2/5 249/2/5
f 253/2/5 251/2/5 252/2/5
f 254/2/5 253/2/5 252/2/5
f 255/2/5 253/2/5 254/2/5
f 256/2/5 255/2/5 254/2/5
f 257/2/5 255/2/5 256/2/5
f 258/2/5 257/2/5 256/2/5
f 259/2/5 257/2/5 258/2/5
f 260/2/5 259/2/5 258/2/5
f 261/2/5 259/2/5 260/2/5
f 262/2/5 261/2/5 260/2/5
f 263/2/5 261/2/5 262/2/5
f 264/2/5 261/2/5 263/2/5
f 265/2/6 266/2/6 267/2/6
f 267/2/6 266/2/6 268/2/6
f 269/2/6 270/2/6 271/2/6
f 271/2/6 270/2/6 272/2/6
f 271/2/6 272/2/6 273/2/6
f 273/2/6 272/2/6 274/2/6
f 273/2/6 274/2/6 275/2/6
f 275/2/6 274/2/6 276/2/6
f 275/2/6 276/2/6 277/2/6
f 277/2/6 276/2/6 278/2/6
f 277/2/6 278/2/6 279/2/6
f 279/2/6 278/2/6 280/2/6
f 281/2/6 282/2/6 285/2/6
f 285/2/6 282/2/6 286/2/6
f 283/2/6 284/2/6 287/2/6
f 287/2/6 284/2/6 288/2/6
