# MagicaVoxel @ Ephtracy

# group
g gold cart-0

# material
mtllib gold cart-0.mtl
usemtl palette

# normals
vn -1 0 0
vn 1 0 0
vn 0 0 1
vn 0 0 -1
vn 0 -1 0
vn 0 1 0

# texcoords
vt 0.146484 0.5
vt 0.310547 0.5
vt 0.994141 0.5

# verts
v -12 0 5
v -12 0 3
v -12 0 -3
v -12 0 -5
v -12 2 6
v -12 2 5
v -12 2 3
v -12 2 -3
v -12 2 -5
v -12 2 -6
v -12 5 5
v -12 5 1
v -12 5 -2
v -12 5 -4
v -12 6 5
v -12 6 3
v -12 6 2
v -12 6 1
v -12 6 -1
v -12 6 -2
v -12 6 -4
v -12 6 -5
v -12 7 4
v -12 7 3
v -12 7 2
v -12 8 5
v -12 8 4
v -12 8 3
v -12 9 2
v -12 9 1
v -12 10 5
v -12 10 4
v -12 10 2
v -12 10 1
v -12 10 -1
v -12 10 -2
v -12 10 -4
v -12 10 -5
v -12 11 4
v -12 11 2
v -12 11 -2
v -12 11 -4
v -12 14 6
v -12 14 -6
v 10 0 5
v 10 0 3
v 10 0 -3
v 10 0 -5
v 10 2 5
v 10 2 3
v 10 2 -3
v 10 2 -5
v 11 3 6
v 11 3 -6
v 11 4 4
v 11 4 2
v 11 4 -1
v 11 4 -5
v 11 5 5
v 11 5 4
v 11 5 2
v 11 5 1
v 11 5 -1
v 11 5 -2
v 11 5 -3
v 11 5 -5
v 11 6 -2
v 11 6 -3
v 11 6 -4
v 11 7 -3
v 11 7 -4
v 11 7 -5
v 11 9 6
v 11 9 5
v 11 9 4
v 11 9 2
v 11 9 1
v 11 9 -4
v 11 9 -5
v 11 9 -6
v 11 10 6
v 11 10 4
v 11 10 2
v 11 10 -2
v 11 10 -4
v 11 10 -6
v 11 11 4
v 11 11 2
v 11 11 -2
v 11 11 -4
v 11 14 6
v 11 14 -6
v -11 3 6
v -11 3 -6
v -11 5 5
v -11 5 1
v -11 5 -2
v -11 5 -4
v -11 6 5
v -11 6 3
v -11 6 2
v -11 6 1
v -11 6 -1
v -11 6 -2
v -11 6 -4
v -11 6 -5
v -11 7 4
v -11 7 3
v -11 7 2
v -11 8 5
v -11 8 4
v -11 8 3
v -11 9 6
v -11 9 5
v -11 9 4
v -11 9 -1
v -11 9 -2
v -11 9 -4
v -11 9 -5
v -11 9 -6
v -11 10 6
v -11 10 4
v -11 10 2
v -11 10 -2
v -11 10 -4
v -11 10 -6
v -11 11 4
v -11 11 2
v -11 11 -2
v -11 11 -4
v -11 14 6
v -11 14 -6
v -10 0 5
v -10 0 3
v -10 0 -3
v -10 0 -5
v -10 2 5
v -10 2 3
v -10 2 -3
v -10 2 -5
v 12 0 5
v 12 0 3
v 12 0 -3
v 12 0 -5
v 12 2 6
v 12 2 5
v 12 2 3
v 12 2 -3
v 12 2 -5
v 12 2 -6
v 12 4 4
v 12 4 2
v 12 4 -1
v 12 4 -5
v 12 5 5
v 12 5 4
v 12 5 2
v 12 5 1
v 12 5 -1
v 12 5 -2
v 12 5 -3
v 12 5 -5
v 12 6 -2
v 12 6 -3
v 12 6 -4
v 12 7 -3
v 12 7 -4
v 12 7 -5
v 12 9 -1
v 12 9 -2
v 12 10 5
v 12 10 4
v 12 10 2
v 12 10 1
v 12 10 -1
v 12 10 -2
v 12 10 -4
v 12 10 -5
v 12 11 4
v 12 11 2
v 12 11 -2
v 12 11 -4
v 12 14 6
v 12 14 -6
v -12 2 6
v -12 14 6
v -11 3 6
v -11 9 6
v -11 10 6
v -11 14 6
v 11 3 6
v 11 9 6
v 11 10 6
v 11 14 6
v 12 2 6
v 12 14 6
v -12 0 5
v -12 2 5
v -10 0 5
v -10 2 5
v 10 0 5
v 10 2 5
v 12 0 5
v 12 2 5
v -12 0 -3
v -12 2 -3
v -10 0 -3
v -10 2 -3
v 10 0 -3
v 10 2 -3
v 12 0 -3
v 12 2 -3
v -12 0 3
v -12 2 3
v -10 0 3
v -10 2 3
v 10 0 3
v 10 2 3
v 12 0 3
v 12 2 3
v -12 0 -5
v -12 2 -5
v -10 0 -5
v -10 2 -5
v 10 0 -5
v 10 2 -5
v 12 0 -5
v 12 2 -5
v -12 2 -6
v -12 14 -6
v -11 3 -6
v -11 9 -6
v -11 10 -6
v -11 14 -6
v 11 3 -6
v 11 9 -6
v 11 10 -6
v 11 14 -6
v 12 2 -6
v 12 14 -6
v -12 0 5
v -10 0 5
v 10 0 5
v 12 0 5
v -12 0 3
v -10 0 3
v 10 0 3
v 12 0 3
v -12 0 -3
v -10 0 -3
v 10 0 -3
v 12 0 -3
v -12 0 -5
v -10 0 -5
v 10 0 -5
v 12 0 -5
v -12 2 6
v 12 2 6
v -12 2 5
v -10 2 5
v 10 2 5
v 12 2 5
v -12 2 3
v -10 2 3
v 10 2 3
v 12 2 3
v -12 2 -3
v -10 2 -3
v 10 2 -3
v 12 2 -3
v -12 2 -5
v -10 2 -5
v 10 2 -5
v 12 2 -5
v -12 2 -6
v 12 2 -6
v -11 9 6
v 11 9 6
v -11 9 5
v 11 9 5
v -11 9 4
v 11 9 4
v 11 9 2
v 11 9 1
v -11 9 -1
v -11 9 -2
v -11 9 -4
v 11 9 -4
v -11 9 -5
v 11 9 -5
v -11 9 -6
v 11 9 -6
v -11 3 6
v 11 3 6
v -11 3 -6
v 11 3 -6
v -11 10 6
v 11 10 6
v -11 10 4
v 11 10 4
v -11 10 2
v 11 10 2
v -11 10 -2
v 11 10 -2
v -11 10 -4
v 11 10 -4
v -11 10 -6
v 11 10 -6
v -12 14 6
v -11 14 6
v 11 14 6
v 12 14 6
v -12 14 -6
v -11 14 -6
v 11 14 -6
v 12 14 -6

# faces
f 6/3/1 2/3/1 1/3/1
f 7/3/1 2/3/1 6/3/1
f 8/3/1 4/3/1 3/3/1
f 9/3/1 4/3/1 8/3/1
f 11/2/1 7/2/1 6/2/1
f 11/2/1 10/2/1 9/2/1
f 11/2/1 9/2/1 8/2/1
f 11/2/1 8/2/1 7/2/1
f 11/2/1 6/2/1 5/2/1
f 12/2/1 10/2/1 11/2/1
f 13/2/1 10/2/1 12/2/1
f 14/2/1 10/2/1 13/2/1
f 15/2/1 11/2/1 5/2/1
f 15/1/1 12/1/1 11/1/1
f 16/1/1 12/1/1 15/1/1
f 17/1/1 12/1/1 16/1/1
f 18/2/1 13/2/1 12/2/1
f 18/1/1 12/1/1 17/1/1
f 19/2/1 13/2/1 18/2/1
f 20/1/1 14/1/1 13/1/1
f 20/2/1 13/2/1 19/2/1
f 21/2/1 10/2/1 14/2/1
f 21/1/1 14/1/1 20/1/1
f 22/2/1 10/2/1 21/2/1
f 23/2/1 16/2/1 15/2/1
f 24/1/1 17/1/1 16/1/1
f 24/2/1 16/2/1 23/2/1
f 25/2/1 19/2/1 18/2/1
f 25/1/1 17/1/1 24/1/1
f 25/2/1 18/2/1 17/2/1
f 26/2/1 23/2/1 15/2/1
f 26/2/1 15/2/1 5/2/1
f 27/1/1 24/1/1 23/1/1
f 27/2/1 23/2/1 26/2/1
f 28/2/1 25/2/1 24/2/1
f 28/1/1 24/1/1 27/1/1
f 29/2/1 19/2/1 25/2/1
f 29/2/1 25/2/1 28/2/1
f 29/2/1 28/2/1 27/2/1
f 30/2/1 19/2/1 29/2/1
f 31/2/1 26/2/1 5/2/1
f 31/1/1 27/1/1 26/1/1
f 32/2/1 29/2/1 27/2/1
f 32/1/1 27/1/1 31/1/1
f 33/1/1 30/1/1 29/1/1
f 33/2/1 29/2/1 32/2/1
f 34/2/1 19/2/1 30/2/1
f 34/1/1 30/1/1 33/1/1
f 35/1/1 20/1/1 19/1/1
f 35/2/1 19/2/1 34/2/1
f 36/2/1 21/2/1 20/2/1
f 36/1/1 20/1/1 35/1/1
f 37/1/1 22/1/1 21/1/1
f 37/2/1 21/2/1 36/2/1
f 38/2/1 10/2/1 22/2/1
f 38/1/1 22/1/1 37/1/1
f 39/1/1 33/1/1 32/1/1
f 39/2/1 32/2/1 31/2/1
f 40/2/1 34/2/1 33/2/1
f 40/1/1 33/1/1 39/1/1
f 40/2/1 35/2/1 34/2/1
f 40/2/1 36/2/1 35/2/1
f 41/1/1 37/1/1 36/1/1
f 41/2/1 36/2/1 40/2/1
f 42/2/1 38/2/1 37/2/1
f 42/1/1 37/1/1 41/1/1
f 43/2/1 39/2/1 31/2/1
f 43/2/1 31/2/1 5/2/1
f 43/2/1 42/2/1 41/2/1
f 43/2/1 40/2/1 39/2/1
f 43/2/1 41/2/1 40/2/1
f 44/2/1 38/2/1 42/2/1
f 44/2/1 42/2/1 43/2/1
f 44/2/1 10/2/1 38/2/1
f 49/3/1 46/3/1 45/3/1
f 50/3/1 46/3/1 49/3/1
f 51/3/1 48/3/1 47/3/1
f 52/3/1 48/3/1 51/3/1
f 55/2/1 54/2/1 53/2/1
f 56/2/1 54/2/1 55/2/1
f 57/2/1 54/2/1 56/2/1
f 58/2/1 54/2/1 57/2/1
f 59/2/1 55/2/1 53/2/1
f 60/1/1 56/1/1 55/1/1
f 60/2/1 55/2/1 59/2/1
f 61/2/1 57/2/1 56/2/1
f 61/1/1 56/1/1 60/1/1
f 62/2/1 57/2/1 61/2/1
f 63/1/1 58/1/1 57/1/1
f 63/2/1 57/2/1 62/2/1
f 64/1/1 58/1/1 63/1/1
f 65/1/1 58/1/1 64/1/1
f 66/2/1 54/2/1 58/2/1
f 66/1/1 58/1/1 65/1/1
f 67/1/1 65/1/1 64/1/1
f 67/2/1 63/2/1 62/2/1
f 67/2/1 64/2/1 63/2/1
f 68/2/1 66/2/1 65/2/1
f 68/1/1 65/1/1 67/1/1
f 69/2/1 66/2/1 68/2/1
f 70/2/1 68/2/1 67/2/1
f 70/1/1 69/1/1 68/1/1
f 71/2/1 66/2/1 69/2/1
f 71/1/1 69/1/1 70/1/1
f 72/2/1 54/2/1 66/2/1
f 72/2/1 66/2/1 71/2/1
f 73/2/1 59/2/1 53/2/1
f 74/1/1 60/1/1 59/1/1
f 74/2/1 59/2/1 73/2/1
f 75/2/1 61/2/1 60/2/1
f 75/1/1 60/1/1 74/1/1
f 76/1/1 62/1/1 61/1/1
f 76/2/1 61/2/1 75/2/1
f 77/2/1 71/2/1 70/2/1
f 77/1/1 62/1/1 76/1/1
f 77/2/1 67/2/1 62/2/1
f 77/2/1 70/2/1 67/2/1
f 78/1/1 72/1/1 71/1/1
f 78/2/1 71/2/1 77/2/1
f 79/2/1 54/2/1 72/2/1
f 79/1/1 72/1/1 78/1/1
f 80/2/1 54/2/1 79/2/1
f 87/2/1 82/2/1 81/2/1
f 87/1/1 83/1/1 82/1/1
f 88/2/1 84/2/1 83/2/1
f 88/1/1 83/1/1 87/1/1
f 89/1/1 85/1/1 84/1/1
f 89/2/1 84/2/1 88/2/1
f 90/2/1 86/2/1 85/2/1
f 90/1/1 85/1/1 89/1/1
f 91/2/1 89/2/1 88/2/1
f 91/2/1 88/2/1 87/2/1
f 91/2/1 90/2/1 89/2/1
f 91/2/1 87/2/1 81/2/1
f 92/2/1 86/2/1 90/2/1
f 92/2/1 90/2/1 91/2/1
f 93/2/2 94/2/2 95/2/2
f 95/2/2 94/2/2 96/2/2
f 96/2/2 94/2/2 97/2/2
f 97/2/2 94/2/2 98/2/2
f 93/2/2 95/2/2 99/2/2
f 95/1/2 96/1/2 99/1/2
f 99/1/2 96/1/2 100/1/2
f 100/1/2 96/1/2 101/1/2
f 96/2/2 97/2/2 102/2/2
f 101/1/2 96/1/2 102/1/2
f 102/2/2 97/2/2 103/2/2
f 97/1/2 98/1/2 104/1/2
f 103/2/2 97/2/2 104/2/2
f 98/2/2 94/2/2 105/2/2
f 104/1/2 98/1/2 105/1/2
f 105/2/2 94/2/2 106/2/2
f 99/2/2 100/2/2 107/2/2
f 100/1/2 101/1/2 108/1/2
f 107/2/2 100/2/2 108/2/2
f 102/2/2 103/2/2 109/2/2
f 108/1/2 101/1/2 109/1/2
f 101/2/2 102/2/2 109/2/2
f 99/2/2 107/2/2 110/2/2
f 93/2/2 99/2/2 110/2/2
f 107/1/2 108/1/2 111/1/2
f 110/2/2 107/2/2 111/2/2
f 108/2/2 109/2/2 112/2/2
f 111/1/2 108/1/2 112/1/2
f 93/2/2 110/2/2 113/2/2
f 110/1/2 111/1/2 114/1/2
f 113/2/2 110/2/2 114/2/2
f 111/2/2 112/2/2 115/2/2
f 114/1/2 111/1/2 115/1/2
f 103/1/2 104/1/2 116/1/2
f 115/2/2 112/2/2 116/2/2
f 112/2/2 109/2/2 116/2/2
f 109/2/2 103/2/2 116/2/2
f 104/2/2 105/2/2 117/2/2
f 116/1/2 104/1/2 117/1/2
f 105/1/2 106/1/2 118/1/2
f 117/2/2 105/2/2 118/2/2
f 106/2/2 94/2/2 119/2/2
f 118/1/2 106/1/2 119/1/2
f 119/2/2 94/2/2 120/2/2
f 121/2/2 122/2/2 127/2/2
f 122/1/2 123/1/2 127/1/2
f 123/2/2 124/2/2 128/2/2
f 127/1/2 123/1/2 128/1/2
f 124/1/2 125/1/2 129/1/2
f 128/2/2 124/2/2 129/2/2
f 125/2/2 126/2/2 130/2/2
f 129/1/2 125/1/2 130/1/2
f 128/2/2 129/2/2 131/2/2
f 127/2/2 128/2/2 131/2/2
f 129/2/2 130/2/2 131/2/2
f 121/2/2 127/2/2 131/2/2
f 130/2/2 126/2/2 132/2/2
f 131/2/2 130/2/2 132/2/2
f 133/3/2 134/3/2 137/3/2
f 137/3/2 134/3/2 138/3/2
f 135/3/2 136/3/2 139/3/2
f 139/3/2 136/3/2 140/3/2
f 141/3/2 142/3/2 146/3/2
f 146/3/2 142/3/2 147/3/2
f 143/3/2 144/3/2 148/3/2
f 148/3/2 144/3/2 149/3/2
f 146/2/2 147/2/2 151/2/2
f 149/2/2 150/2/2 151/2/2
f 148/2/2 149/2/2 151/2/2
f 147/2/2 148/2/2 151/2/2
f 145/2/2 146/2/2 151/2/2
f 151/2/2 150/2/2 152/2/2
f 152/2/2 150/2/2 153/2/2
f 153/2/2 150/2/2 154/2/2
f 145/2/2 151/2/2 155/2/2
f 151/1/2 152/1/2 156/1/2
f 155/2/2 151/2/2 156/2/2
f 152/2/2 153/2/2 157/2/2
f 156/1/2 152/1/2 157/1/2
f 157/2/2 153/2/2 158/2/2
f 153/1/2 154/1/2 159/1/2
f 158/2/2 153/2/2 159/2/2
f 159/1/2 154/1/2 160/1/2
f 160/1/2 154/1/2 161/1/2
f 154/2/2 150/2/2 162/2/2
f 161/1/2 154/1/2 162/1/2
f 160/1/2 161/1/2 163/1/2
f 158/2/2 159/2/2 163/2/2
f 159/2/2 160/2/2 163/2/2
f 161/2/2 162/2/2 164/2/2
f 163/1/2 161/1/2 164/1/2
f 164/2/2 162/2/2 165/2/2
f 163/2/2 164/2/2 166/2/2
f 164/1/2 165/1/2 166/1/2
f 165/2/2 162/2/2 167/2/2
f 166/1/2 165/1/2 167/1/2
f 162/2/2 150/2/2 168/2/2
f 167/2/2 162/2/2 168/2/2
f 166/2/2 167/2/2 169/2/2
f 158/2/2 163/2/2 169/2/2
f 163/2/2 166/2/2 169/2/2
f 169/2/2 167/2/2 170/2/2
f 145/2/2 155/2/2 171/2/2
f 155/1/2 156/1/2 171/1/2
f 156/2/2 157/2/2 172/2/2
f 171/1/2 156/1/2 172/1/2
f 157/1/2 158/1/2 173/1/2
f 172/2/2 157/2/2 173/2/2
f 158/2/2 169/2/2 174/2/2
f 173/1/2 158/1/2 174/1/2
f 169/1/2 170/1/2 175/1/2
f 174/2/2 169/2/2 175/2/2
f 170/2/2 167/2/2 176/2/2
f 175/1/2 170/1/2 176/1/2
f 167/1/2 168/1/2 177/1/2
f 176/2/2 167/2/2 177/2/2
f 168/2/2 150/2/2 178/2/2
f 177/1/2 168/1/2 178/1/2
f 171/2/2 172/2/2 179/2/2
f 172/1/2 173/1/2 179/1/2
f 174/2/2 175/2/2 180/2/2
f 179/1/2 173/1/2 180/1/2
f 173/2/2 174/2/2 180/2/2
f 175/2/2 176/2/2 180/2/2
f 176/1/2 177/1/2 181/1/2
f 180/2/2 176/2/2 181/2/2
f 177/2/2 178/2/2 182/2/2
f 181/1/2 177/1/2 182/1/2
f 179/2/2 180/2/2 183/2/2
f 171/2/2 179/2/2 183/2/2
f 181/2/2 182/2/2 183/2/2
f 145/2/2 171/2/2 183/2/2
f 180/2/2 181/2/2 183/2/2
f 182/2/2 178/2/2 184/2/2
f 183/2/2 182/2/2 184/2/2
f 178/2/2 150/2/2 184/2/2
f 187/2/3 186/2/3 185/2/3
f 188/2/3 186/2/3 187/2/3
f 189/2/3 186/2/3 188/2/3
f 190/2/3 186/2/3 189/2/3
f 191/2/3 187/2/3 185/2/3
f 192/2/3 189/2/3 188/2/3
f 193/2/3 189/2/3 192/2/3
f 195/2/3 191/2/3 185/2/3
f 195/2/3 194/2/3 193/2/3
f 195/2/3 193/2/3 192/2/3
f 195/2/3 192/2/3 191/2/3
f 196/2/3 194/2/3 195/2/3
f 199/3/3 198/3/3 197/3/3
f 200/3/3 198/3/3 199/3/3
f 203/3/3 202/3/3 201/3/3
f 204/3/3 202/3/3 203/3/3
f 207/3/3 206/3/3 205/3/3
f 208/3/3 206/3/3 207/3/3
f 211/3/3 210/3/3 209/3/3
f 212/3/3 210/3/3 211/3/3
f 213/3/4 214/3/4 215/3/4
f 215/3/4 214/3/4 216/3/4
f 217/3/4 218/3/4 219/3/4
f 219/3/4 218/3/4 220/3/4
f 221/3/4 222/3/4 223/3/4
f 223/3/4 222/3/4 224/3/4
f 225/3/4 226/3/4 227/3/4
f 227/3/4 226/3/4 228/3/4
f 229/2/4 230/2/4 231/2/4
f 231/2/4 230/2/4 232/2/4
f 232/2/4 230/2/4 233/2/4
f 233/2/4 230/2/4 234/2/4
f 229/2/4 231/2/4 235/2/4
f 232/2/4 233/2/4 236/2/4
f 236/2/4 233/2/4 237/2/4
f 229/2/4 235/2/4 239/2/4
f 237/2/4 238/2/4 239/2/4
f 236/2/4 237/2/4 239/2/4
f 235/2/4 236/2/4 239/2/4
f 239/2/4 238/2/4 240/2/4
f 245/3/5 242/3/5 241/3/5
f 246/3/5 242/3/5 245/3/5
f 247/3/5 244/3/5 243/3/5
f 248/3/5 244/3/5 247/3/5
f 253/3/5 250/3/5 249/3/5
f 254/3/5 250/3/5 253/3/5
f 255/3/5 252/3/5 251/3/5
f 256/3/5 252/3/5 255/3/5
f 259/2/5 258/2/5 257/2/5
f 260/2/5 258/2/5 259/2/5
f 261/2/5 258/2/5 260/2/5
f 262/2/5 258/2/5 261/2/5
f 264/2/5 261/2/5 260/2/5
f 265/2/5 261/2/5 264/2/5
f 267/2/5 264/2/5 263/2/5
f 267/2/5 266/2/5 265/2/5
f 267/2/5 265/2/5 264/2/5
f 268/2/5 266/2/5 267/2/5
f 269/2/5 266/2/5 268/2/5
f 270/2/5 266/2/5 269/2/5
f 272/2/5 269/2/5 268/2/5
f 273/2/5 269/2/5 272/2/5
f 275/2/5 272/2/5 271/2/5
f 275/2/5 274/2/5 273/2/5
f 275/2/5 273/2/5 272/2/5
f 276/2/5 274/2/5 275/2/5
f 279/2/5 278/2/5 277/2/5
f 280/2/5 278/2/5 279/2/5
f 281/2/5 280/2/5 279/2/5
f 282/2/5 280/2/5 281/2/5
f 283/2/5 282/2/5 281/2/5
f 284/2/5 283/2/5 281/2/5
f 285/2/5 284/2/5 281/2/5
f 286/2/5 284/2/5 285/2/5
f 287/2/5 284/2/5 286/2/5
f 288/2/5 284/2/5 287/2/5
f 289/2/5 288/2/5 287/2/5
f 290/2/5 288/2/5 289/2/5
f 291/2/5 290/2/5 289/2/5
f 292/2/5 290/2/5 291/2/5
f 293/2/6 294/2/6 295/2/6
f 295/2/6 294/2/6 296/2/6
f 297/2/6 298/2/6 299/2/6
f 299/2/6 298/2/6 300/2/6
f 299/2/6 300/2/6 301/2/6
f 301/2/6 300/2/6 302/2/6
f 301/2/6 302/2/6 303/2/6
f 303/2/6 302/2/6 304/2/6
f 303/2/6 304/2/6 305/2/6
f 305/2/6 304/2/6 306/2/6
f 305/2/6 306/2/6 307/2/6
f 307/2/6 306/2/6 308/2/6
f 309/2/6 310/2/6 313/2/6
f 313/2/6 310/2/6 314/2/6
f 311/2/6 312/2/6 315/2/6
f 315/2/6 312/2/6 316/2/6
