# MagicaVoxel @ Ephtracy

# group
o 

# material
mtllib Lockers.mtl
usemtl palette

# normals
vn -1 0 0
vn 1 0 0
vn 0 0 1
vn 0 0 -1
vn 0 -1 0
vn 0 1 0

# texcoords
vt 0.927734 0.5
vt 0.982422 0.5
vt 0.994141 0.5

# verts
v 0 2 3.9
v 0 2 -2.7
v 0 6.1 3.9
v 0 6.1 -2.7
v 1.4 2 3.9
v 1.4 2 -2.7
v 1.4 2.2 3.8
v 1.4 2.2 2.8
v 1.4 2.2 2.7
v 1.4 2.2 1.7
v 1.4 2.2 1.6
v 1.4 2.2 0.6
v 1.4 2.2 0.5
v 1.4 2.2 -0.5
v 1.4 2.2 -0.6
v 1.4 2.2 -1.6
v 1.4 2.2 -1.7
v 1.4 2.2 -2.7
v 1.4 4 1.6
v 1.4 4 0.6
v 1.4 4 0.5
v 1.4 4 -0.5
v 1.4 4.2 1.6
v 1.4 4.2 0.6
v 1.4 4.2 0.5
v 1.4 4.2 -0.5
v 1.4 6 3.8
v 1.4 6 2.8
v 1.4 6 2.7
v 1.4 6 1.7
v 1.4 6 1.6
v 1.4 6 0.6
v 1.4 6 0.5
v 1.4 6 -0.5
v 1.4 6 -0.6
v 1.4 6 -1.6
v 1.4 6 -1.7
v 1.4 6 -2.7
v 1.4 6.1 3.9
v 1.4 6.1 -2.7
v 1.5 2.2 3.8
v 1.5 2.2 2.8
v 1.5 2.2 2.7
v 1.5 2.2 1.7
v 1.5 2.2 1.6
v 1.5 2.2 0.6
v 1.5 2.2 0.5
v 1.5 2.2 -0.5
v 1.5 2.2 -0.6
v 1.5 2.2 -1.6
v 1.5 2.2 -1.7
v 1.5 2.2 -2.7
v 1.5 2.3 3.7
v 1.5 2.3 2.9
v 1.5 2.3 2.6
v 1.5 2.3 1.8
v 1.5 2.3 1.5
v 1.5 2.3 0.7
v 1.5 2.3 0.4
v 1.5 2.3 -0.4
v 1.5 2.3 -0.7
v 1.5 2.3 -1.5
v 1.5 2.3 -1.8
v 1.5 2.3 -2.6
v 1.5 2.4 3.6
v 1.5 2.4 3
v 1.5 2.4 2.5
v 1.5 2.4 1.9
v 1.5 2.4 1.4
v 1.5 2.4 0.8
v 1.5 2.4 0.3
v 1.5 2.4 -0.3
v 1.5 2.4 -0.8
v 1.5 2.4 -1.4
v 1.5 2.4 -1.9
v 1.5 2.4 -2.5
v 1.5 2.5 3.6
v 1.5 2.5 3
v 1.5 2.5 2.5
v 1.5 2.5 1.9
v 1.5 2.5 1.4
v 1.5 2.5 0.8
v 1.5 2.5 0.3
v 1.5 2.5 -0.3
v 1.5 2.5 -0.8
v 1.5 2.5 -1.4
v 1.5 2.5 -1.9
v 1.5 2.5 -2.5
v 1.5 2.6 3.6
v 1.5 2.6 3
v 1.5 2.6 2.5
v 1.5 2.6 1.9
v 1.5 2.6 -0.8
v 1.5 2.6 -1.4
v 1.5 2.6 -1.9
v 1.5 2.6 -2.5
v 1.5 2.7 3.6
v 1.5 2.7 3
v 1.5 2.7 2.5
v 1.5 2.7 1.9
v 1.5 2.7 1.4
v 1.5 2.7 1.2
v 1.5 2.7 0.3
v 1.5 2.7 0.0999999
v 1.5 2.7 -0.8
v 1.5 2.7 -1.4
v 1.5 2.7 -1.9
v 1.5 2.7 -2.5
v 1.5 2.9 1.3
v 1.5 2.9 1.2
v 1.5 2.9 0.2
v 1.5 2.9 0.0999999
v 1.5 3.3 1.3
v 1.5 3.3 1.2
v 1.5 3.3 0.2
v 1.5 3.3 0.0999999
v 1.5 3.4 3.6
v 1.5 3.4 3.4
v 1.5 3.4 2.5
v 1.5 3.4 2.3
v 1.5 3.4 -0.8
v 1.5 3.4 -1
v 1.5 3.4 -1.9
v 1.5 3.4 -2.1
v 1.5 3.5 1.4
v 1.5 3.5 1.2
v 1.5 3.5 0.3
v 1.5 3.5 0.0999999
v 1.5 3.6 3.5
v 1.5 3.6 3.4
v 1.5 3.6 2.4
v 1.5 3.6 2.3
v 1.5 3.6 -0.9
v 1.5 3.6 -1
v 1.5 3.6 -2
v 1.5 3.6 -2.1
v 1.5 3.7 1.4
v 1.5 3.7 0.8
v 1.5 3.7 0.3
v 1.5 3.7 -0.3
v 1.5 3.8 1.4
v 1.5 3.8 0.8
v 1.5 3.8 0.3
v 1.5 3.8 -0.3
v 1.5 3.9 1.5
v 1.5 3.9 0.7
v 1.5 3.9 0.4
v 1.5 3.9 -0.4
v 1.5 4 1.6
v 1.5 4 0.6
v 1.5 4 0.5
v 1.5 4 -0.5
v 1.5 4.2 1.6
v 1.5 4.2 0.6
v 1.5 4.2 0.5
v 1.5 4.2 -0.5
v 1.5 4.3 3.5
v 1.5 4.3 3.4
v 1.5 4.3 2.4
v 1.5 4.3 2.3
v 1.5 4.3 1.5
v 1.5 4.3 0.7
v 1.5 4.3 0.4
v 1.5 4.3 -0.4
v 1.5 4.3 -0.9
v 1.5 4.3 -1
v 1.5 4.3 -2
v 1.5 4.3 -2.1
v 1.5 4.4 1.4
v 1.5 4.4 0.8
v 1.5 4.4 0.3
v 1.5 4.4 -0.3
v 1.5 4.5 3.6
v 1.5 4.5 3.4
v 1.5 4.5 2.5
v 1.5 4.5 2.3
v 1.5 4.5 1.4
v 1.5 4.5 0.8
v 1.5 4.5 0.3
v 1.5 4.5 -0.3
v 1.5 4.5 -0.8
v 1.5 4.5 -1
v 1.5 4.5 -1.9
v 1.5 4.5 -2.1
v 1.5 4.7 1.4
v 1.5 4.7 1.2
v 1.5 4.7 0.3
v 1.5 4.7 0.0999999
v 1.5 4.9 1.3
v 1.5 4.9 1.2
v 1.5 4.9 0.2
v 1.5 4.9 0.0999999
v 1.5 5.3 3.6
v 1.5 5.3 3
v 1.5 5.3 2.5
v 1.5 5.3 1.9
v 1.5 5.3 1.3
v 1.5 5.3 1.2
v 1.5 5.3 0.2
v 1.5 5.3 0.0999999
v 1.5 5.3 -0.8
v 1.5 5.3 -1.4
v 1.5 5.3 -1.9
v 1.5 5.3 -2.5
v 1.5 5.4 3.6
v 1.5 5.4 3
v 1.5 5.4 2.5
v 1.5 5.4 1.9
v 1.5 5.4 -0.8
v 1.5 5.4 -1.4
v 1.5 5.4 -1.9
v 1.5 5.4 -2.5
v 1.5 5.5 3.6
v 1.5 5.5 3
v 1.5 5.5 2.5
v 1.5 5.5 1.9
v 1.5 5.5 1.4
v 1.5 5.5 1.2
v 1.5 5.5 0.3
v 1.5 5.5 0.0999999
v 1.5 5.5 -0.8
v 1.5 5.5 -1.4
v 1.5 5.5 -1.9
v 1.5 5.5 -2.5
v 1.5 5.6 3.6
v 1.5 5.6 3
v 1.5 5.6 2.5
v 1.5 5.6 1.9
v 1.5 5.6 -0.8
v 1.5 5.6 -1.4
v 1.5 5.6 -1.9
v 1.5 5.6 -2.5
v 1.5 5.7 3.6
v 1.5 5.7 3
v 1.5 5.7 2.5
v 1.5 5.7 1.9
v 1.5 5.7 1.4
v 1.5 5.7 0.8
v 1.5 5.7 0.3
v 1.5 5.7 -0.3
v 1.5 5.7 -0.8
v 1.5 5.7 -1.4
v 1.5 5.7 -1.9
v 1.5 5.7 -2.5
v 1.5 5.8 3.6
v 1.5 5.8 3
v 1.5 5.8 2.5
v 1.5 5.8 1.9
v 1.5 5.8 1.4
v 1.5 5.8 0.8
v 1.5 5.8 0.3
v 1.5 5.8 -0.3
v 1.5 5.8 -0.8
v 1.5 5.8 -1.4
v 1.5 5.8 -1.9
v 1.5 5.8 -2.5
v 1.5 5.9 3.7
v 1.5 5.9 2.9
v 1.5 5.9 2.6
v 1.5 5.9 1.8
v 1.5 5.9 1.5
v 1.5 5.9 0.7
v 1.5 5.9 0.4
v 1.5 5.9 -0.4
v 1.5 5.9 -0.7
v 1.5 5.9 -1.5
v 1.5 5.9 -1.8
v 1.5 5.9 -2.6
v 1.5 6 3.8
v 1.5 6 2.8
v 1.5 6 2.7
v 1.5 6 1.7
v 1.5 6 1.6
v 1.5 6 0.6
v 1.5 6 0.5
v 1.5 6 -0.5
v 1.5 6 -0.6
v 1.5 6 -1.6
v 1.5 6 -1.7
v 1.5 6 -2.7
v 0 2 3.9
v 0 6.1 3.9
v 1.4 2 3.9
v 1.4 6.1 3.9
v 1.4 2.2 3.8
v 1.4 6 3.8
v 1.5 2.2 3.8
v 1.5 6 3.8
v 1.4 2.2 2.7
v 1.4 6 2.7
v 1.5 2.2 2.7
v 1.5 6 2.7
v 1.4 2.2 1.6
v 1.4 4 1.6
v 1.4 4.2 1.6
v 1.4 6 1.6
v 1.5 2.2 1.6
v 1.5 4 1.6
v 1.5 4.2 1.6
v 1.5 6 1.6
v 1.4 2.2 0.5
v 1.4 4 0.5
v 1.4 4.2 0.5
v 1.4 6 0.5
v 1.5 2.2 0.5
v 1.5 4 0.5
v 1.5 4.2 0.5
v 1.5 6 0.5
v 1.4 2.2 -0.6
v 1.4 6 -0.6
v 1.5 2.2 -0.6
v 1.5 6 -0.6
v 1.4 2.2 -1.7
v 1.4 6 -1.7
v 1.5 2.2 -1.7
v 1.5 6 -1.7
v 1.4 2.2 2.8
v 1.4 6 2.8
v 1.5 2.2 2.8
v 1.5 6 2.8
v 1.4 2.2 1.7
v 1.4 6 1.7
v 1.5 2.2 1.7
v 1.5 6 1.7
v 1.4 2.2 0.6
v 1.4 4 0.6
v 1.4 4.2 0.6
v 1.4 6 0.6
v 1.5 2.2 0.6
v 1.5 4 0.6
v 1.5 4.2 0.6
v 1.5 6 0.6
v 1.4 2.2 -0.5
v 1.4 4 -0.5
v 1.4 4.2 -0.5
v 1.4 6 -0.5
v 1.5 2.2 -0.5
v 1.5 4 -0.5
v 1.5 4.2 -0.5
v 1.5 6 -0.5
v 1.4 2.2 -1.6
v 1.4 6 -1.6
v 1.5 2.2 -1.6
v 1.5 6 -1.6
v 0 2 -2.7
v 0 6.1 -2.7
v 1.4 2 -2.7
v 1.4 2.2 -2.7
v 1.4 6 -2.7
v 1.4 6.1 -2.7
v 1.5 2.2 -2.7
v 1.5 6 -2.7
v 0 2 3.9
v 1.4 2 3.9
v 0 2 -2.7
v 1.4 2 -2.7
v 1.4 2.2 3.8
v 1.5 2.2 3.8
v 1.4 2.2 2.8
v 1.5 2.2 2.8
v 1.4 2.2 2.7
v 1.5 2.2 2.7
v 1.4 2.2 1.7
v 1.5 2.2 1.7
v 1.4 2.2 1.6
v 1.5 2.2 1.6
v 1.4 2.2 0.6
v 1.5 2.2 0.6
v 1.4 2.2 0.5
v 1.5 2.2 0.5
v 1.4 2.2 -0.5
v 1.5 2.2 -0.5
v 1.4 2.2 -0.6
v 1.5 2.2 -0.6
v 1.4 2.2 -1.6
v 1.5 2.2 -1.6
v 1.4 2.2 -1.7
v 1.5 2.2 -1.7
v 1.4 2.2 -2.7
v 1.5 2.2 -2.7
v 1.4 4.2 1.6
v 1.5 4.2 1.6
v 1.4 4.2 0.6
v 1.5 4.2 0.6
v 1.4 4.2 0.5
v 1.5 4.2 0.5
v 1.4 4.2 -0.5
v 1.5 4.2 -0.5
v 1.4 4 1.6
v 1.5 4 1.6
v 1.4 4 0.6
v 1.5 4 0.6
v 1.4 4 0.5
v 1.5 4 0.5
v 1.4 4 -0.5
v 1.5 4 -0.5
v 1.4 6 3.8
v 1.5 6 3.8
v 1.4 6 2.8
v 1.5 6 2.8
v 1.4 6 2.7
v 1.5 6 2.7
v 1.4 6 1.7
v 1.5 6 1.7
v 1.4 6 1.6
v 1.5 6 1.6
v 1.4 6 0.6
v 1.5 6 0.6
v 1.4 6 0.5
v 1.5 6 0.5
v 1.4 6 -0.5
v 1.5 6 -0.5
v 1.4 6 -0.6
v 1.5 6 -0.6
v 1.4 6 -1.6
v 1.5 6 -1.6
v 1.4 6 -1.7
v 1.5 6 -1.7
v 1.4 6 -2.7
v 1.5 6 -2.7
v 0 6.1 3.9
v 1.4 6.1 3.9
v 0 6.1 -2.7
v 1.4 6.1 -2.7

# faces
f 3/1/1 2/1/1 1/1/1
f 4/1/1 2/1/1 3/1/1
f 5/1/2 6/1/2 7/1/2
f 7/1/2 6/1/2 8/1/2
f 8/1/2 6/1/2 9/1/2
f 9/1/2 6/1/2 10/1/2
f 10/1/2 6/1/2 11/1/2
f 11/1/2 6/1/2 12/1/2
f 12/1/2 6/1/2 13/1/2
f 13/1/2 6/1/2 14/1/2
f 14/1/2 6/1/2 15/1/2
f 15/1/2 6/1/2 16/1/2
f 16/1/2 6/1/2 17/1/2
f 17/1/2 6/1/2 18/1/2
f 10/1/2 11/1/2 19/1/2
f 12/1/2 13/1/2 20/1/2
f 20/1/2 13/1/2 21/1/2
f 14/1/2 15/1/2 22/1/2
f 20/1/2 21/1/2 23/1/2
f 21/1/2 22/1/2 23/1/2
f 10/1/2 19/1/2 23/1/2
f 19/1/2 20/1/2 23/1/2
f 23/1/2 22/1/2 24/1/2
f 24/1/2 22/1/2 25/1/2
f 22/1/2 15/1/2 26/1/2
f 25/1/2 22/1/2 26/1/2
f 5/1/2 7/1/2 27/1/2
f 8/1/2 9/1/2 28/1/2
f 28/1/2 9/1/2 29/1/2
f 10/1/2 23/1/2 30/1/2
f 30/1/2 23/1/2 31/1/2
f 24/1/2 25/1/2 32/1/2
f 32/1/2 25/1/2 33/1/2
f 26/1/2 15/1/2 34/1/2
f 34/1/2 15/1/2 35/1/2
f 16/1/2 17/1/2 36/1/2
f 36/1/2 17/1/2 37/1/2
f 32/1/2 33/1/2 39/1/2
f 37/1/2 38/1/2 39/1/2
f 36/1/2 37/1/2 39/1/2
f 35/1/2 36/1/2 39/1/2
f 5/1/2 27/1/2 39/1/2
f 33/1/2 34/1/2 39/1/2
f 34/1/2 35/1/2 39/1/2
f 31/1/2 32/1/2 39/1/2
f 30/1/2 31/1/2 39/1/2
f 29/1/2 30/1/2 39/1/2
f 28/1/2 29/1/2 39/1/2
f 27/1/2 28/1/2 39/1/2
f 39/1/2 38/1/2 40/1/2
f 41/2/2 42/2/2 53/2/2
f 53/2/2 42/2/2 54/2/2
f 43/2/2 44/2/2 55/2/2
f 55/2/2 44/2/2 56/2/2
f 45/2/2 46/2/2 57/2/2
f 57/2/2 46/2/2 58/2/2
f 47/2/2 48/2/2 59/2/2
f 59/2/2 48/2/2 60/2/2
f 49/2/2 50/2/2 61/2/2
f 61/2/2 50/2/2 62/2/2
f 51/2/2 52/2/2 63/2/2
f 63/2/2 52/2/2 64/2/2
f 53/1/2 54/1/2 65/1/2
f 65/1/2 54/1/2 66/1/2
f 55/1/2 56/1/2 67/1/2
f 67/1/2 56/1/2 68/1/2
f 57/1/2 58/1/2 69/1/2
f 69/1/2 58/1/2 70/1/2
f 59/1/2 60/1/2 71/1/2
f 71/1/2 60/1/2 72/1/2
f 61/1/2 62/1/2 73/1/2
f 73/1/2 62/1/2 74/1/2
f 63/1/2 64/1/2 75/1/2
f 75/1/2 64/1/2 76/1/2
f 53/1/2 65/1/2 77/1/2
f 65/3/2 66/3/2 77/3/2
f 66/1/2 54/1/2 78/1/2
f 77/3/2 66/3/2 78/3/2
f 55/1/2 67/1/2 79/1/2
f 67/3/2 68/3/2 79/3/2
f 68/1/2 56/1/2 80/1/2
f 79/3/2 68/3/2 80/3/2
f 57/1/2 69/1/2 81/1/2
f 69/3/2 70/3/2 81/3/2
f 70/1/2 58/1/2 82/1/2
f 81/3/2 70/3/2 82/3/2
f 59/1/2 71/1/2 83/1/2
f 71/3/2 72/3/2 83/3/2
f 72/1/2 60/1/2 84/1/2
f 83/3/2 72/3/2 84/3/2
f 61/1/2 73/1/2 85/1/2
f 73/3/2 74/3/2 85/3/2
f 74/1/2 62/1/2 86/1/2
f 85/3/2 74/3/2 86/3/2
f 75/3/2 76/3/2 87/3/2
f 63/1/2 75/1/2 87/1/2
f 76/1/2 64/1/2 88/1/2
f 87/3/2 76/3/2 88/3/2
f 53/1/2 77/1/2 89/1/2
f 77/1/2 78/1/2 89/1/2
f 78/1/2 54/1/2 90/1/2
f 89/1/2 78/1/2 90/1/2
f 55/1/2 79/1/2 91/1/2
f 79/1/2 80/1/2 91/1/2
f 80/1/2 56/1/2 92/1/2
f 91/1/2 80/1/2 92/1/2
f 61/1/2 85/1/2 93/1/2
f 85/1/2 86/1/2 93/1/2
f 86/1/2 62/1/2 94/1/2
f 93/1/2 86/1/2 94/1/2
f 63/1/2 87/1/2 95/1/2
f 87/1/2 88/1/2 95/1/2
f 88/1/2 64/1/2 96/1/2
f 95/1/2 88/1/2 96/1/2
f 53/1/2 89/1/2 97/1/2
f 89/3/2 90/3/2 97/3/2
f 90/1/2 54/1/2 98/1/2
f 97/3/2 90/3/2 98/3/2
f 55/1/2 91/1/2 99/1/2
f 91/3/2 92/3/2 99/3/2
f 92/1/2 56/1/2 100/1/2
f 99/3/2 92/3/2 100/3/2
f 57/1/2 81/1/2 101/1/2
f 81/1/2 82/1/2 101/1/2
f 101/1/2 82/1/2 102/1/2
f 59/1/2 83/1/2 103/1/2
f 83/1/2 84/1/2 103/1/2
f 103/1/2 84/1/2 104/1/2
f 61/1/2 93/1/2 105/1/2
f 93/3/2 94/3/2 105/3/2
f 94/1/2 62/1/2 106/1/2
f 105/3/2 94/3/2 106/3/2
f 63/1/2 95/1/2 107/1/2
f 95/3/2 96/3/2 107/3/2
f 96/1/2 64/1/2 108/1/2
f 107/3/2 96/3/2 108/3/2
f 101/3/2 102/3/2 109/3/2
f 102/1/2 82/1/2 110/1/2
f 109/3/2 102/3/2 110/3/2
f 103/3/2 104/3/2 111/3/2
f 104/1/2 84/1/2 112/1/2
f 111/3/2 104/3/2 112/3/2
f 101/3/2 109/3/2 113/3/2
f 109/2/2 110/2/2 113/2/2
f 110/1/2 82/1/2 114/1/2
f 113/2/2 110/2/2 114/2/2
f 103/3/2 111/3/2 115/3/2
f 111/2/2 112/2/2 115/2/2
f 112/1/2 84/1/2 116/1/2
f 115/2/2 112/2/2 116/2/2
f 53/1/2 97/1/2 117/1/2
f 97/1/2 98/1/2 117/1/2
f 117/1/2 98/1/2 118/1/2
f 55/1/2 99/1/2 119/1/2
f 99/1/2 100/1/2 119/1/2
f 119/1/2 100/1/2 120/1/2
f 61/1/2 105/1/2 121/1/2
f 105/1/2 106/1/2 121/1/2
f 121/1/2 106/1/2 122/1/2
f 63/1/2 107/1/2 123/1/2
f 107/1/2 108/1/2 123/1/2
f 123/1/2 108/1/2 124/1/2
f 101/3/2 113/3/2 125/3/2
f 57/1/2 101/1/2 125/1/2
f 113/3/2 114/3/2 125/3/2
f 114/1/2 82/1/2 126/1/2
f 125/3/2 114/3/2 126/3/2
f 103/3/2 115/3/2 127/3/2
f 115/3/2 116/3/2 127/3/2
f 59/1/2 103/1/2 127/1/2
f 116/1/2 84/1/2 128/1/2
f 127/3/2 116/3/2 128/3/2
f 117/3/2 118/3/2 129/3/2
f 118/1/2 98/1/2 130/1/2
f 129/3/2 118/3/2 130/3/2
f 119/3/2 120/3/2 131/3/2
f 120/1/2 100/1/2 132/1/2
f 131/3/2 120/3/2 132/3/2
f 121/3/2 122/3/2 133/3/2
f 122/1/2 106/1/2 134/1/2
f 133/3/2 122/3/2 134/3/2
f 123/3/2 124/3/2 135/3/2
f 124/1/2 108/1/2 136/1/2
f 135/3/2 124/3/2 136/3/2
f 57/1/2 125/1/2 137/1/2
f 125/1/2 126/1/2 137/1/2
f 126/1/2 82/1/2 138/1/2
f 137/1/2 126/1/2 138/1/2
f 82/1/2 58/1/2 138/1/2
f 59/1/2 127/1/2 139/1/2
f 127/1/2 128/1/2 139/1/2
f 128/1/2 84/1/2 140/1/2
f 139/1/2 128/1/2 140/1/2
f 84/1/2 60/1/2 140/1/2
f 57/1/2 137/1/2 141/1/2
f 137/3/2 138/3/2 141/3/2
f 138/1/2 58/1/2 142/1/2
f 141/3/2 138/3/2 142/3/2
f 59/1/2 139/1/2 143/1/2
f 139/3/2 140/3/2 143/3/2
f 140/1/2 60/1/2 144/1/2
f 143/3/2 140/3/2 144/3/2
f 45/2/2 57/2/2 145/2/2
f 57/1/2 141/1/2 145/1/2
f 141/1/2 142/1/2 145/1/2
f 58/2/2 46/2/2 146/2/2
f 145/1/2 142/1/2 146/1/2
f 142/1/2 58/1/2 146/1/2
f 143/1/2 144/1/2 147/1/2
f 47/2/2 59/2/2 147/2/2
f 59/1/2 143/1/2 147/1/2
f 60/2/2 48/2/2 148/2/2
f 147/1/2 144/1/2 148/1/2
f 144/1/2 60/1/2 148/1/2
f 45/2/2 145/2/2 149/2/2
f 145/2/2 146/2/2 149/2/2
f 146/2/2 46/2/2 150/2/2
f 149/2/2 146/2/2 150/2/2
f 47/2/2 147/2/2 151/2/2
f 147/2/2 148/2/2 151/2/2
f 148/2/2 48/2/2 152/2/2
f 151/2/2 148/2/2 152/2/2
f 117/3/2 129/3/2 157/3/2
f 129/2/2 130/2/2 157/2/2
f 130/1/2 98/1/2 158/1/2
f 157/2/2 130/2/2 158/2/2
f 119/3/2 131/3/2 159/3/2
f 131/2/2 132/2/2 159/2/2
f 132/1/2 100/1/2 160/1/2
f 159/2/2 132/2/2 160/2/2
f 153/2/2 154/2/2 161/2/2
f 161/2/2 154/2/2 162/2/2
f 155/2/2 156/2/2 163/2/2
f 163/2/2 156/2/2 164/2/2
f 121/3/2 133/3/2 165/3/2
f 133/2/2 134/2/2 165/2/2
f 134/1/2 106/1/2 166/1/2
f 165/2/2 134/2/2 166/2/2
f 123/3/2 135/3/2 167/3/2
f 135/2/2 136/2/2 167/2/2
f 136/1/2 108/1/2 168/1/2
f 167/2/2 136/2/2 168/2/2
f 161/1/2 162/1/2 169/1/2
f 169/1/2 162/1/2 170/1/2
f 163/1/2 164/1/2 171/1/2
f 171/1/2 164/1/2 172/1/2
f 53/1/2 117/1/2 173/1/2
f 117/3/2 157/3/2 173/3/2
f 157/3/2 158/3/2 173/3/2
f 158/1/2 98/1/2 174/1/2
f 173/3/2 158/3/2 174/3/2
f 55/1/2 119/1/2 175/1/2
f 119/3/2 159/3/2 175/3/2
f 159/3/2 160/3/2 175/3/2
f 160/1/2 100/1/2 176/1/2
f 175/3/2 160/3/2 176/3/2
f 169/3/2 170/3/2 177/3/2
f 161/1/2 169/1/2 177/1/2
f 170/1/2 162/1/2 178/1/2
f 177/3/2 170/3/2 178/3/2
f 171/3/2 172/3/2 179/3/2
f 163/1/2 171/1/2 179/1/2
f 172/1/2 164/1/2 180/1/2
f 179/3/2 172/3/2 180/3/2
f 165/3/2 166/3/2 181/3/2
f 121/3/2 165/3/2 181/3/2
f 61/1/2 121/1/2 181/1/2
f 166/1/2 106/1/2 182/1/2
f 181/3/2 166/3/2 182/3/2
f 63/1/2 123/1/2 183/1/2
f 123/3/2 167/3/2 183/3/2
f 167/3/2 168/3/2 183/3/2
f 168/1/2 108/1/2 184/1/2
f 183/3/2 168/3/2 184/3/2
f 161/1/2 177/1/2 185/1/2
f 177/1/2 178/1/2 185/1/2
f 185/1/2 178/1/2 186/1/2
f 163/1/2 179/1/2 187/1/2
f 179/1/2 180/1/2 187/1/2
f 187/1/2 180/1/2 188/1/2
f 185/3/2 186/3/2 189/3/2
f 186/1/2 178/1/2 190/1/2
f 189/3/2 186/3/2 190/3/2
f 187/3/2 188/3/2 191/3/2
f 188/1/2 180/1/2 192/1/2
f 191/3/2 188/3/2 192/3/2
f 53/1/2 173/1/2 193/1/2
f 173/1/2 174/1/2 193/1/2
f 174/1/2 98/1/2 194/1/2
f 193/1/2 174/1/2 194/1/2
f 98/1/2 54/1/2 194/1/2
f 55/1/2 175/1/2 195/1/2
f 175/1/2 176/1/2 195/1/2
f 100/1/2 56/1/2 196/1/2
f 195/1/2 176/1/2 196/1/2
f 176/1/2 100/1/2 196/1/2
f 185/3/2 189/3/2 197/3/2
f 189/2/2 190/2/2 197/2/2
f 190/1/2 178/1/2 198/1/2
f 197/2/2 190/2/2 198/2/2
f 187/3/2 191/3/2 199/3/2
f 191/2/2 192/2/2 199/2/2
f 192/1/2 180/1/2 200/1/2
f 199/2/2 192/2/2 200/2/2
f 181/1/2 182/1/2 201/1/2
f 61/1/2 181/1/2 201/1/2
f 106/1/2 62/1/2 202/1/2
f 201/1/2 182/1/2 202/1/2
f 182/1/2 106/1/2 202/1/2
f 183/1/2 184/1/2 203/1/2
f 63/1/2 183/1/2 203/1/2
f 184/1/2 108/1/2 204/1/2
f 203/1/2 184/1/2 204/1/2
f 108/1/2 64/1/2 204/1/2
f 53/1/2 193/1/2 205/1/2
f 193/3/2 194/3/2 205/3/2
f 194/1/2 54/1/2 206/1/2
f 205/3/2 194/3/2 206/3/2
f 55/1/2 195/1/2 207/1/2
f 195/3/2 196/3/2 207/3/2
f 196/1/2 56/1/2 208/1/2
f 207/3/2 196/3/2 208/3/2
f 61/1/2 201/1/2 209/1/2
f 201/3/2 202/3/2 209/3/2
f 202/1/2 62/1/2 210/1/2
f 209/3/2 202/3/2 210/3/2
f 63/1/2 203/1/2 211/1/2
f 203/3/2 204/3/2 211/3/2
f 204/1/2 64/1/2 212/1/2
f 211/3/2 204/3/2 212/3/2
f 205/1/2 206/1/2 213/1/2
f 53/1/2 205/1/2 213/1/2
f 206/1/2 54/1/2 214/1/2
f 213/1/2 206/1/2 214/1/2
f 55/1/2 207/1/2 215/1/2
f 207/1/2 208/1/2 215/1/2
f 208/1/2 56/1/2 216/1/2
f 215/1/2 208/1/2 216/1/2
f 161/1/2 185/1/2 217/1/2
f 197/3/2 198/3/2 217/3/2
f 185/3/2 197/3/2 217/3/2
f 198/1/2 178/1/2 218/1/2
f 217/3/2 198/3/2 218/3/2
f 163/1/2 187/1/2 219/1/2
f 187/3/2 199/3/2 219/3/2
f 199/3/2 200/3/2 219/3/2
f 200/1/2 180/1/2 220/1/2
f 219/3/2 200/3/2 220/3/2
f 61/1/2 209/1/2 221/1/2
f 209/1/2 210/1/2 221/1/2
f 210/1/2 62/1/2 222/1/2
f 221/1/2 210/1/2 222/1/2
f 63/1/2 211/1/2 223/1/2
f 211/1/2 212/1/2 223/1/2
f 212/1/2 64/1/2 224/1/2
f 223/1/2 212/1/2 224/1/2
f 53/1/2 213/1/2 225/1/2
f 213/3/2 214/3/2 225/3/2
f 214/1/2 54/1/2 226/1/2
f 225/3/2 214/3/2 226/3/2
f 55/1/2 215/1/2 227/1/2
f 215/3/2 216/3/2 227/3/2
f 216/1/2 56/1/2 228/1/2
f 227/3/2 216/3/2 228/3/2
f 61/1/2 221/1/2 229/1/2
f 221/3/2 222/3/2 229/3/2
f 222/1/2 62/1/2 230/1/2
f 229/3/2 222/3/2 230/3/2
f 63/1/2 223/1/2 231/1/2
f 223/3/2 224/3/2 231/3/2
f 224/1/2 64/1/2 232/1/2
f 231/3/2 224/3/2 232/3/2
f 53/1/2 225/1/2 233/1/2
f 225/1/2 226/1/2 233/1/2
f 226/1/2 54/1/2 234/1/2
f 233/1/2 226/1/2 234/1/2
f 227/1/2 228/1/2 235/1/2
f 55/1/2 227/1/2 235/1/2
f 228/1/2 56/1/2 236/1/2
f 235/1/2 228/1/2 236/1/2
f 217/1/2 218/1/2 237/1/2
f 161/1/2 217/1/2 237/1/2
f 218/1/2 178/1/2 238/1/2
f 237/1/2 218/1/2 238/1/2
f 178/1/2 162/1/2 238/1/2
f 163/1/2 219/1/2 239/1/2
f 219/1/2 220/1/2 239/1/2
f 220/1/2 180/1/2 240/1/2
f 239/1/2 220/1/2 240/1/2
f 180/1/2 164/1/2 240/1/2
f 61/1/2 229/1/2 241/1/2
f 229/1/2 230/1/2 241/1/2
f 230/1/2 62/1/2 242/1/2
f 241/1/2 230/1/2 242/1/2
f 63/1/2 231/1/2 243/1/2
f 231/1/2 232/1/2 243/1/2
f 232/1/2 64/1/2 244/1/2
f 243/1/2 232/1/2 244/1/2
f 53/1/2 233/1/2 245/1/2
f 233/3/2 234/3/2 245/3/2
f 234/1/2 54/1/2 246/1/2
f 245/3/2 234/3/2 246/3/2
f 55/1/2 235/1/2 247/1/2
f 235/3/2 236/3/2 247/3/2
f 236/1/2 56/1/2 248/1/2
f 247/3/2 236/3/2 248/3/2
f 161/1/2 237/1/2 249/1/2
f 237/3/2 238/3/2 249/3/2
f 238/1/2 162/1/2 250/1/2
f 249/3/2 238/3/2 250/3/2
f 239/3/2 240/3/2 251/3/2
f 163/1/2 239/1/2 251/1/2
f 240/1/2 164/1/2 252/1/2
f 251/3/2 240/3/2 252/3/2
f 61/1/2 241/1/2 253/1/2
f 241/3/2 242/3/2 253/3/2
f 242/1/2 62/1/2 254/1/2
f 253/3/2 242/3/2 254/3/2
f 63/1/2 243/1/2 255/1/2
f 243/3/2 244/3/2 255/3/2
f 244/1/2 64/1/2 256/1/2
f 255/3/2 244/3/2 256/3/2
f 41/2/2 53/2/2 257/2/2
f 53/1/2 245/1/2 257/1/2
f 245/1/2 246/1/2 257/1/2
f 54/2/2 42/2/2 258/2/2
f 257/1/2 246/1/2 258/1/2
f 246/1/2 54/1/2 258/1/2
f 43/2/2 55/2/2 259/2/2
f 55/1/2 247/1/2 259/1/2
f 247/1/2 248/1/2 259/1/2
f 56/2/2 44/2/2 260/2/2
f 259/1/2 248/1/2 260/1/2
f 248/1/2 56/1/2 260/1/2
f 161/1/2 249/1/2 261/1/2
f 153/2/2 161/2/2 261/2/2
f 249/1/2 250/1/2 261/1/2
f 162/2/2 154/2/2 262/2/2
f 261/1/2 250/1/2 262/1/2
f 250/1/2 162/1/2 262/1/2
f 163/1/2 251/1/2 263/1/2
f 251/1/2 252/1/2 263/1/2
f 155/2/2 163/2/2 263/2/2
f 164/2/2 156/2/2 264/2/2
f 263/1/2 252/1/2 264/1/2
f 252/1/2 164/1/2 264/1/2
f 253/1/2 254/1/2 265/1/2
f 61/1/2 253/1/2 265/1/2
f 49/2/2 61/2/2 265/2/2
f 62/2/2 50/2/2 266/2/2
f 265/1/2 254/1/2 266/1/2
f 254/1/2 62/1/2 266/1/2
f 63/1/2 255/1/2 267/1/2
f 255/1/2 256/1/2 267/1/2
f 51/2/2 63/2/2 267/2/2
f 256/1/2 64/1/2 268/1/2
f 267/1/2 256/1/2 268/1/2
f 64/2/2 52/2/2 268/2/2
f 41/2/2 257/2/2 269/2/2
f 257/2/2 258/2/2 269/2/2
f 258/2/2 42/2/2 270/2/2
f 269/2/2 258/2/2 270/2/2
f 43/2/2 259/2/2 271/2/2
f 259/2/2 260/2/2 271/2/2
f 260/2/2 44/2/2 272/2/2
f 271/2/2 260/2/2 272/2/2
f 261/2/2 262/2/2 273/2/2
f 153/2/2 261/2/2 273/2/2
f 262/2/2 154/2/2 274/2/2
f 273/2/2 262/2/2 274/2/2
f 155/2/2 263/2/2 275/2/2
f 263/2/2 264/2/2 275/2/2
f 264/2/2 156/2/2 276/2/2
f 275/2/2 264/2/2 276/2/2
f 49/2/2 265/2/2 277/2/2
f 265/2/2 266/2/2 277/2/2
f 266/2/2 50/2/2 278/2/2
f 277/2/2 266/2/2 278/2/2
f 51/2/2 267/2/2 279/2/2
f 267/2/2 268/2/2 279/2/2
f 268/2/2 52/2/2 280/2/2
f 279/2/2 268/2/2 280/2/2
f 283/1/3 282/1/3 281/1/3
f 284/1/3 282/1/3 283/1/3
f 287/2/3 286/2/3 285/2/3
f 288/2/3 286/2/3 287/2/3
f 291/2/3 290/2/3 289/2/3
f 292/2/3 290/2/3 291/2/3
f 297/2/3 294/2/3 293/2/3
f 298/2/3 294/2/3 297/2/3
f 299/2/3 296/2/3 295/2/3
f 300/2/3 296/2/3 299/2/3
f 305/2/3 302/2/3 301/2/3
f 306/2/3 302/2/3 305/2/3
f 307/2/3 304/2/3 303/2/3
f 308/2/3 304/2/3 307/2/3
f 311/2/3 310/2/3 309/2/3
f 312/2/3 310/2/3 311/2/3
f 315/2/3 314/2/3 313/2/3
f 316/2/3 314/2/3 315/2/3
f 317/2/4 318/2/4 319/2/4
f 319/2/4 318/2/4 320/2/4
f 321/2/4 322/2/4 323/2/4
f 323/2/4 322/2/4 324/2/4
f 325/2/4 326/2/4 329/2/4
f 329/2/4 326/2/4 330/2/4
f 327/2/4 328/2/4 331/2/4
f 331/2/4 328/2/4 332/2/4
f 333/2/4 334/2/4 337/2/4
f 337/2/4 334/2/4 338/2/4
f 335/2/4 336/2/4 339/2/4
f 339/2/4 336/2/4 340/2/4
f 341/2/4 342/2/4 343/2/4
f 343/2/4 342/2/4 344/2/4
f 345/1/4 346/1/4 347/1/4
f 347/1/4 346/1/4 348/1/4
f 348/1/4 346/1/4 349/1/4
f 349/1/4 346/1/4 350/1/4
f 348/2/4 349/2/4 351/2/4
f 351/2/4 349/2/4 352/2/4
f 355/1/5 354/1/5 353/1/5
f 356/1/5 354/1/5 355/1/5
f 359/2/5 358/2/5 357/2/5
f 360/2/5 358/2/5 359/2/5
f 363/2/5 362/2/5 361/2/5
f 364/2/5 362/2/5 363/2/5
f 367/2/5 366/2/5 365/2/5
f 368/2/5 366/2/5 367/2/5
f 371/2/5 370/2/5 369/2/5
f 372/2/5 370/2/5 371/2/5
f 375/2/5 374/2/5 373/2/5
f 376/2/5 374/2/5 375/2/5
f 379/2/5 378/2/5 377/2/5
f 380/2/5 378/2/5 379/2/5
f 383/2/5 382/2/5 381/2/5
f 384/2/5 382/2/5 383/2/5
f 387/2/5 386/2/5 385/2/5
f 388/2/5 386/2/5 387/2/5
f 389/2/6 390/2/6 391/2/6
f 391/2/6 390/2/6 392/2/6
f 393/2/6 394/2/6 395/2/6
f 395/2/6 394/2/6 396/2/6
f 397/2/6 398/2/6 399/2/6
f 399/2/6 398/2/6 400/2/6
f 401/2/6 402/2/6 403/2/6
f 403/2/6 402/2/6 404/2/6
f 405/2/6 406/2/6 407/2/6
f 407/2/6 406/2/6 408/2/6
f 409/2/6 410/2/6 411/2/6
f 411/2/6 410/2/6 412/2/6
f 413/2/6 414/2/6 415/2/6
f 415/2/6 414/2/6 416/2/6
f 417/2/6 418/2/6 419/2/6
f 419/2/6 418/2/6 420/2/6
f 421/1/6 422/1/6 423/1/6
f 423/1/6 422/1/6 424/1/6
