# MagicaVoxel @ Ephtracy

# group
g The Vault-26

# material
mtllib The Vault-26.mtl
usemtl palette

# normals
vn -1 0 0
vn 1 0 0
vn 0 0 1
vn 0 0 -1
vn 0 -1 0
vn 0 1 0

# texcoords
vt 0.0644531 0.5
vt 0.974609 0.5
vt 0.978516 0.5

# verts
v -25 5 32
v -25 5 31
v -25 5 -31
v -25 5 -32
v -25 7 32
v -25 7 31
v -25 7 -31
v -25 7 -32
v -24 4 32
v -24 4 31
v -24 4 -31
v -24 4 -32
v -24 5 32
v -24 5 31
v -24 5 -31
v -24 5 -32
v -24 7 32
v -24 7 31
v -24 7 -31
v -24 7 -32
v -24 8 32
v -24 8 31
v -24 8 -31
v -24 8 -32
v -17 0 32
v -17 0 29
v -17 0 -29
v -17 0 -32
v -17 1 31
v -17 1 29
v -17 1 -29
v -17 1 -31
v -17 4 32
v -17 4 31
v -17 4 -31
v -17 4 -32
v -9 0 32
v -9 0 29
v -9 0 -29
v -9 0 -32
v -9 1 31
v -9 1 29
v -9 1 -29
v -9 1 -31
v -9 4 32
v -9 4 31
v -9 4 -31
v -9 4 -32
v -1 0 32
v -1 0 29
v -1 0 -29
v -1 0 -32
v -1 1 31
v -1 1 29
v -1 1 -29
v -1 1 -31
v -1 4 32
v -1 4 31
v -1 4 -31
v -1 4 -32
v 7 0 32
v 7 0 29
v 7 0 -29
v 7 0 -32
v 7 1 31
v 7 1 29
v 7 1 -29
v 7 1 -31
v 7 4 32
v 7 4 31
v 7 4 -31
v 7 4 -32
v 15 0 32
v 15 0 29
v 15 0 -29
v 15 0 -32
v 15 1 31
v 15 1 29
v 15 1 -29
v 15 1 -31
v 15 4 32
v 15 4 31
v 15 4 -31
v 15 4 -32
v -15 0 32
v -15 0 29
v -15 0 -29
v -15 0 -32
v -15 1 31
v -15 1 29
v -15 1 -29
v -15 1 -31
v -15 4 32
v -15 4 31
v -15 4 -31
v -15 4 -32
v -7 0 32
v -7 0 29
v -7 0 -29
v -7 0 -32
v -7 1 31
v -7 1 29
v -7 1 -29
v -7 1 -31
v -7 4 32
v -7 4 31
v -7 4 -31
v -7 4 -32
v 1 0 32
v 1 0 29
v 1 0 -29
v 1 0 -32
v 1 1 31
v 1 1 29
v 1 1 -29
v 1 1 -31
v 1 4 32
v 1 4 31
v 1 4 -31
v 1 4 -32
v 9 0 32
v 9 0 29
v 9 0 -29
v 9 0 -32
v 9 1 31
v 9 1 29
v 9 1 -29
v 9 1 -31
v 9 4 32
v 9 4 31
v 9 4 -31
v 9 4 -32
v 17 0 32
v 17 0 29
v 17 0 -29
v 17 0 -32
v 17 1 31
v 17 1 29
v 17 1 -29
v 17 1 -31
v 17 4 32
v 17 4 31
v 17 4 -31
v 17 4 -32
v 24 4 32
v 24 4 31
v 24 4 -31
v 24 4 -32
v 24 5 32
v 24 5 31
v 24 5 -31
v 24 5 -32
v 24 7 32
v 24 7 31
v 24 7 -31
v 24 7 -32
v 24 8 32
v 24 8 31
v 24 8 -31
v 24 8 -32
v 25 5 32
v 25 5 31
v 25 5 -31
v 25 5 -32
v 25 7 32
v 25 7 31
v 25 7 -31
v 25 7 -32
v -25 5 32
v -25 7 32
v -24 4 32
v -24 5 32
v -24 7 32
v -24 8 32
v -17 0 32
v -17 4 32
v -17 5 32
v -17 7 32
v -15 0 32
v -15 4 32
v -15 5 32
v -15 7 32
v -9 0 32
v -9 4 32
v -9 5 32
v -9 7 32
v -7 0 32
v -7 4 32
v -7 5 32
v -7 7 32
v -1 0 32
v -1 4 32
v -1 5 32
v -1 7 32
v 1 0 32
v 1 4 32
v 1 5 32
v 1 7 32
v 7 0 32
v 7 4 32
v 7 5 32
v 7 7 32
v 9 0 32
v 9 4 32
v 9 5 32
v 9 7 32
v 15 0 32
v 15 4 32
v 15 5 32
v 15 7 32
v 17 0 32
v 17 4 32
v 17 5 32
v 17 7 32
v 24 4 32
v 24 5 32
v 24 7 32
v 24 8 32
v 25 5 32
v 25 7 32
v -17 0 -29
v -17 1 -29
v -15 0 -29
v -15 1 -29
v -9 0 -29
v -9 1 -29
v -7 0 -29
v -7 1 -29
v -1 0 -29
v -1 1 -29
v 1 0 -29
v 1 1 -29
v 7 0 -29
v 7 1 -29
v 9 0 -29
v 9 1 -29
v 15 0 -29
v 15 1 -29
v 17 0 -29
v 17 1 -29
v -25 5 -31
v -25 7 -31
v -24 4 -31
v -24 5 -31
v -24 7 -31
v -24 8 -31
v -17 1 -31
v -17 4 -31
v -17 5 -31
v -17 7 -31
v -15 1 -31
v -15 4 -31
v -15 5 -31
v -15 7 -31
v -9 1 -31
v -9 4 -31
v -9 5 -31
v -9 7 -31
v -7 1 -31
v -7 4 -31
v -7 5 -31
v -7 7 -31
v -1 1 -31
v -1 4 -31
v -1 5 -31
v -1 7 -31
v 1 1 -31
v 1 4 -31
v 1 5 -31
v 1 7 -31
v 7 1 -31
v 7 4 -31
v 7 5 -31
v 7 7 -31
v 9 1 -31
v 9 4 -31
v 9 5 -31
v 9 7 -31
v 15 1 -31
v 15 4 -31
v 15 5 -31
v 15 7 -31
v 17 1 -31
v 17 4 -31
v 17 5 -31
v 17 7 -31
v 24 4 -31
v 24 5 -31
v 24 7 -31
v 24 8 -31
v 25 5 -31
v 25 7 -31
v -25 5 31
v -25 7 31
v -24 4 31
v -24 5 31
v -24 7 31
v -24 8 31
v -17 1 31
v -17 4 31
v -17 5 31
v -17 7 31
v -15 1 31
v -15 4 31
v -15 5 31
v -15 7 31
v -9 1 31
v -9 4 31
v -9 5 31
v -9 7 31
v -7 1 31
v -7 4 31
v -7 5 31
v -7 7 31
v -1 1 31
v -1 4 31
v -1 5 31
v -1 7 31
v 1 1 31
v 1 4 31
v 1 5 31
v 1 7 31
v 7 1 31
v 7 4 31
v 7 5 31
v 7 7 31
v 9 1 31
v 9 4 31
v 9 5 31
v 9 7 31
v 15 1 31
v 15 4 31
v 15 5 31
v 15 7 31
v 17 1 31
v 17 4 31
v 17 5 31
v 17 7 31
v 24 4 31
v 24 5 31
v 24 7 31
v 24 8 31
v 25 5 31
v 25 7 31
v -17 0 29
v -17 1 29
v -15 0 29
v -15 1 29
v -9 0 29
v -9 1 29
v -7 0 29
v -7 1 29
v -1 0 29
v -1 1 29
v 1 0 29
v 1 1 29
v 7 0 29
v 7 1 29
v 9 0 29
v 9 1 29
v 15 0 29
v 15 1 29
v 17 0 29
v 17 1 29
v -25 5 -32
v -25 7 -32
v -24 4 -32
v -24 5 -32
v -24 7 -32
v -24 8 -32
v -17 0 -32
v -17 4 -32
v -17 5 -32
v -17 7 -32
v -15 0 -32
v -15 4 -32
v -15 5 -32
v -15 7 -32
v -9 0 -32
v -9 4 -32
v -9 5 -32
v -9 7 -32
v -7 0 -32
v -7 4 -32
v -7 5 -32
v -7 7 -32
v -1 0 -32
v -1 4 -32
v -1 5 -32
v -1 7 -32
v 1 0 -32
v 1 4 -32
v 1 5 -32
v 1 7 -32
v 7 0 -32
v 7 4 -32
v 7 5 -32
v 7 7 -32
v 9 0 -32
v 9 4 -32
v 9 5 -32
v 9 7 -32
v 15 0 -32
v 15 4 -32
v 15 5 -32
v 15 7 -32
v 17 0 -32
v 17 4 -32
v 17 5 -32
v 17 7 -32
v 24 4 -32
v 24 5 -32
v 24 7 -32
v 24 8 -32
v 25 5 -32
v 25 7 -32
v -17 0 32
v -15 0 32
v -9 0 32
v -7 0 32
v -1 0 32
v 1 0 32
v 7 0 32
v 9 0 32
v 15 0 32
v 17 0 32
v -17 0 29
v -15 0 29
v -9 0 29
v -7 0 29
v -1 0 29
v 1 0 29
v 7 0 29
v 9 0 29
v 15 0 29
v 17 0 29
v -17 0 -29
v -15 0 -29
v -9 0 -29
v -7 0 -29
v -1 0 -29
v 1 0 -29
v 7 0 -29
v 9 0 -29
v 15 0 -29
v 17 0 -29
v -17 0 -32
v -15 0 -32
v -9 0 -32
v -7 0 -32
v -1 0 -32
v 1 0 -32
v 7 0 -32
v 9 0 -32
v 15 0 -32
v 17 0 -32
v -24 4 32
v -17 4 32
v -15 4 32
v -9 4 32
v -7 4 32
v -1 4 32
v 1 4 32
v 7 4 32
v 9 4 32
v 15 4 32
v 17 4 32
v 24 4 32
v -24 4 31
v -17 4 31
v -15 4 31
v -9 4 31
v -7 4 31
v -1 4 31
v 1 4 31
v 7 4 31
v 9 4 31
v 15 4 31
v 17 4 31
v 24 4 31
v -24 4 -31
v -17 4 -31
v -15 4 -31
v -9 4 -31
v -7 4 -31
v -1 4 -31
v 1 4 -31
v 7 4 -31
v 9 4 -31
v 15 4 -31
v 17 4 -31
v 24 4 -31
v -24 4 -32
v -17 4 -32
v -15 4 -32
v -9 4 -32
v -7 4 -32
v -1 4 -32
v 1 4 -32
v 7 4 -32
v 9 4 -32
v 15 4 -32
v 17 4 -32
v 24 4 -32
v -25 5 32
v -24 5 32
v 24 5 32
v 25 5 32
v -25 5 31
v -24 5 31
v 24 5 31
v 25 5 31
v -25 5 -31
v -24 5 -31
v 24 5 -31
v 25 5 -31
v -25 5 -32
v -24 5 -32
v 24 5 -32
v 25 5 -32
v -17 1 31
v -15 1 31
v -9 1 31
v -7 1 31
v -1 1 31
v 1 1 31
v 7 1 31
v 9 1 31
v 15 1 31
v 17 1 31
v -17 1 29
v -15 1 29
v -9 1 29
v -7 1 29
v -1 1 29
v 1 1 29
v 7 1 29
v 9 1 29
v 15 1 29
v 17 1 29
v -17 1 -29
v -15 1 -29
v -9 1 -29
v -7 1 -29
v -1 1 -29
v 1 1 -29
v 7 1 -29
v 9 1 -29
v 15 1 -29
v 17 1 -29
v -17 1 -31
v -15 1 -31
v -9 1 -31
v -7 1 -31
v -1 1 -31
v 1 1 -31
v 7 1 -31
v 9 1 -31
v 15 1 -31
v 17 1 -31
v -25 7 32
v -24 7 32
v 24 7 32
v 25 7 32
v -25 7 31
v -24 7 31
v 24 7 31
v 25 7 31
v -25 7 -31
v -24 7 -31
v 24 7 -31
v 25 7 -31
v -25 7 -32
v -24 7 -32
v 24 7 -32
v 25 7 -32
v -24 8 32
v 24 8 32
v -24 8 31
v 24 8 31
v -24 8 -31
v 24 8 -31
v -24 8 -32
v 24 8 -32

# faces
f 5/2/1 2/2/1 1/2/1
f 6/2/1 2/2/1 5/2/1
f 7/2/1 4/2/1 3/2/1
f 8/2/1 4/2/1 7/2/1
f 13/3/1 10/3/1 9/3/1
f 14/3/1 10/3/1 13/3/1
f 15/3/1 12/3/1 11/3/1
f 16/3/1 12/3/1 15/3/1
f 21/3/1 18/3/1 17/3/1
f 22/3/1 18/3/1 21/3/1
f 23/3/1 20/3/1 19/3/1
f 24/3/1 20/3/1 23/3/1
f 29/2/1 26/2/1 25/2/1
f 30/2/1 26/2/1 29/2/1
f 31/2/1 28/2/1 27/2/1
f 32/2/1 28/2/1 31/2/1
f 33/2/1 29/2/1 25/2/1
f 34/2/1 29/2/1 33/2/1
f 35/2/1 28/2/1 32/2/1
f 36/2/1 28/2/1 35/2/1
f 41/2/1 38/2/1 37/2/1
f 42/2/1 38/2/1 41/2/1
f 43/2/1 40/2/1 39/2/1
f 44/2/1 40/2/1 43/2/1
f 45/2/1 41/2/1 37/2/1
f 46/2/1 41/2/1 45/2/1
f 47/2/1 40/2/1 44/2/1
f 48/2/1 40/2/1 47/2/1
f 53/2/1 50/2/1 49/2/1
f 54/2/1 50/2/1 53/2/1
f 55/2/1 52/2/1 51/2/1
f 56/2/1 52/2/1 55/2/1
f 57/2/1 53/2/1 49/2/1
f 58/2/1 53/2/1 57/2/1
f 59/2/1 52/2/1 56/2/1
f 60/2/1 52/2/1 59/2/1
f 65/2/1 62/2/1 61/2/1
f 66/2/1 62/2/1 65/2/1
f 67/2/1 64/2/1 63/2/1
f 68/2/1 64/2/1 67/2/1
f 69/2/1 65/2/1 61/2/1
f 70/2/1 65/2/1 69/2/1
f 71/2/1 64/2/1 68/2/1
f 72/2/1 64/2/1 71/2/1
f 77/2/1 74/2/1 73/2/1
f 78/2/1 74/2/1 77/2/1
f 79/2/1 76/2/1 75/2/1
f 80/2/1 76/2/1 79/2/1
f 81/2/1 77/2/1 73/2/1
f 82/2/1 77/2/1 81/2/1
f 83/2/1 76/2/1 80/2/1
f 84/2/1 76/2/1 83/2/1
f 85/2/2 86/2/2 89/2/2
f 89/2/2 86/2/2 90/2/2
f 87/2/2 88/2/2 91/2/2
f 91/2/2 88/2/2 92/2/2
f 85/2/2 89/2/2 93/2/2
f 93/2/2 89/2/2 94/2/2
f 92/2/2 88/2/2 95/2/2
f 95/2/2 88/2/2 96/2/2
f 97/2/2 98/2/2 101/2/2
f 101/2/2 98/2/2 102/2/2
f 99/2/2 100/2/2 103/2/2
f 103/2/2 100/2/2 104/2/2
f 97/2/2 101/2/2 105/2/2
f 105/2/2 101/2/2 106/2/2
f 104/2/2 100/2/2 107/2/2
f 107/2/2 100/2/2 108/2/2
f 109/2/2 110/2/2 113/2/2
f 113/2/2 110/2/2 114/2/2
f 111/2/2 112/2/2 115/2/2
f 115/2/2 112/2/2 116/2/2
f 109/2/2 113/2/2 117/2/2
f 117/2/2 113/2/2 118/2/2
f 116/2/2 112/2/2 119/2/2
f 119/2/2 112/2/2 120/2/2
f 121/2/2 122/2/2 125/2/2
f 125/2/2 122/2/2 126/2/2
f 123/2/2 124/2/2 127/2/2
f 127/2/2 124/2/2 128/2/2
f 121/2/2 125/2/2 129/2/2
f 129/2/2 125/2/2 130/2/2
f 128/2/2 124/2/2 131/2/2
f 131/2/2 124/2/2 132/2/2
f 133/2/2 134/2/2 137/2/2
f 137/2/2 134/2/2 138/2/2
f 135/2/2 136/2/2 139/2/2
f 139/2/2 136/2/2 140/2/2
f 133/2/2 137/2/2 141/2/2
f 141/2/2 137/2/2 142/2/2
f 140/2/2 136/2/2 143/2/2
f 143/2/2 136/2/2 144/2/2
f 145/3/2 146/3/2 149/3/2
f 149/3/2 146/3/2 150/3/2
f 147/3/2 148/3/2 151/3/2
f 151/3/2 148/3/2 152/3/2
f 153/3/2 154/3/2 157/3/2
f 157/3/2 154/3/2 158/3/2
f 155/3/2 156/3/2 159/3/2
f 159/3/2 156/3/2 160/3/2
f 161/2/2 162/2/2 165/2/2
f 165/2/2 162/2/2 166/2/2
f 163/2/2 164/2/2 167/2/2
f 167/2/2 164/2/2 168/2/2
f 172/2/3 170/2/3 169/2/3
f 173/2/3 170/2/3 172/2/3
f 176/3/3 172/3/3 171/3/3
f 177/2/3 173/2/3 172/2/3
f 177/3/3 172/3/3 176/3/3
f 178/3/3 174/3/3 173/3/3
f 178/2/3 173/2/3 177/2/3
f 179/2/3 177/2/3 176/2/3
f 179/2/3 176/2/3 175/2/3
f 180/2/3 177/2/3 179/2/3
f 181/1/3 178/1/3 177/1/3
f 181/2/3 177/2/3 180/2/3
f 182/3/3 174/3/3 178/3/3
f 182/1/3 178/1/3 181/1/3
f 184/3/3 181/3/3 180/3/3
f 185/2/3 182/2/3 181/2/3
f 185/3/3 181/3/3 184/3/3
f 186/3/3 174/3/3 182/3/3
f 186/2/3 182/2/3 185/2/3
f 187/2/3 184/2/3 183/2/3
f 187/2/3 185/2/3 184/2/3
f 188/2/3 185/2/3 187/2/3
f 189/1/3 186/1/3 185/1/3
f 189/2/3 185/2/3 188/2/3
f 190/3/3 174/3/3 186/3/3
f 190/1/3 186/1/3 189/1/3
f 192/3/3 189/3/3 188/3/3
f 193/2/3 190/2/3 189/2/3
f 193/3/3 189/3/3 192/3/3
f 194/3/3 174/3/3 190/3/3
f 194/2/3 190/2/3 193/2/3
f 195/2/3 192/2/3 191/2/3
f 195/2/3 193/2/3 192/2/3
f 196/2/3 193/2/3 195/2/3
f 197/1/3 194/1/3 193/1/3
f 197/2/3 193/2/3 196/2/3
f 198/3/3 174/3/3 194/3/3
f 198/1/3 194/1/3 197/1/3
f 200/3/3 197/3/3 196/3/3
f 201/2/3 198/2/3 197/2/3
f 201/3/3 197/3/3 200/3/3
f 202/3/3 174/3/3 198/3/3
f 202/2/3 198/2/3 201/2/3
f 203/2/3 200/2/3 199/2/3
f 203/2/3 201/2/3 200/2/3
f 204/2/3 201/2/3 203/2/3
f 205/1/3 202/1/3 201/1/3
f 205/2/3 201/2/3 204/2/3
f 206/3/3 174/3/3 202/3/3
f 206/1/3 202/1/3 205/1/3
f 208/3/3 205/3/3 204/3/3
f 209/2/3 206/2/3 205/2/3
f 209/3/3 205/3/3 208/3/3
f 210/3/3 174/3/3 206/3/3
f 210/2/3 206/2/3 209/2/3
f 211/2/3 208/2/3 207/2/3
f 211/2/3 209/2/3 208/2/3
f 212/2/3 209/2/3 211/2/3
f 213/1/3 210/1/3 209/1/3
f 213/2/3 209/2/3 212/2/3
f 214/3/3 174/3/3 210/3/3
f 214/1/3 210/1/3 213/1/3
f 215/3/3 213/3/3 212/3/3
f 216/2/3 214/2/3 213/2/3
f 216/3/3 213/3/3 215/3/3
f 217/3/3 174/3/3 214/3/3
f 217/2/3 214/2/3 216/2/3
f 218/3/3 174/3/3 217/3/3
f 219/2/3 217/2/3 216/2/3
f 220/2/3 217/2/3 219/2/3
f 223/2/3 222/2/3 221/2/3
f 224/2/3 222/2/3 223/2/3
f 227/2/3 226/2/3 225/2/3
f 228/2/3 226/2/3 227/2/3
f 231/2/3 230/2/3 229/2/3
f 232/2/3 230/2/3 231/2/3
f 235/2/3 234/2/3 233/2/3
f 236/2/3 234/2/3 235/2/3
f 239/2/3 238/2/3 237/2/3
f 240/2/3 238/2/3 239/2/3
f 244/2/3 242/2/3 241/2/3
f 245/2/3 242/2/3 244/2/3
f 248/3/3 244/3/3 243/3/3
f 249/2/3 245/2/3 244/2/3
f 249/3/3 244/3/3 248/3/3
f 250/3/3 246/3/3 245/3/3
f 250/2/3 245/2/3 249/2/3
f 251/2/3 249/2/3 248/2/3
f 251/2/3 248/2/3 247/2/3
f 252/2/3 249/2/3 251/2/3
f 253/1/3 250/1/3 249/1/3
f 253/2/3 249/2/3 252/2/3
f 254/3/3 246/3/3 250/3/3
f 254/1/3 250/1/3 253/1/3
f 256/3/3 253/3/3 252/3/3
f 257/2/3 254/2/3 253/2/3
f 257/3/3 253/3/3 256/3/3
f 258/3/3 246/3/3 254/3/3
f 258/2/3 254/2/3 257/2/3
f 259/2/3 256/2/3 255/2/3
f 259/2/3 257/2/3 256/2/3
f 260/2/3 257/2/3 259/2/3
f 261/1/3 258/1/3 257/1/3
f 261/2/3 257/2/3 260/2/3
f 262/3/3 246/3/3 258/3/3
f 262/1/3 258/1/3 261/1/3
f 264/3/3 261/3/3 260/3/3
f 265/2/3 262/2/3 261/2/3
f 265/3/3 261/3/3 264/3/3
f 266/3/3 246/3/3 262/3/3
f 266/2/3 262/2/3 265/2/3
f 267/2/3 264/2/3 263/2/3
f 267/2/3 265/2/3 264/2/3
f 268/2/3 265/2/3 267/2/3
f 269/1/3 266/1/3 265/1/3
f 269/2/3 265/2/3 268/2/3
f 270/3/3 246/3/3 266/3/3
f 270/1/3 266/1/3 269/1/3
f 272/3/3 269/3/3 268/3/3
f 273/2/3 270/2/3 269/2/3
f 273/3/3 269/3/3 272/3/3
f 274/3/3 246/3/3 270/3/3
f 274/2/3 270/2/3 273/2/3
f 275/2/3 272/2/3 271/2/3
f 275/2/3 273/2/3 272/2/3
f 276/2/3 273/2/3 275/2/3
f 277/1/3 274/1/3 273/1/3
f 277/2/3 273/2/3 276/2/3
f 278/3/3 246/3/3 274/3/3
f 278/1/3 274/1/3 277/1/3
f 280/3/3 277/3/3 276/3/3
f 281/2/3 278/2/3 277/2/3
f 281/3/3 277/3/3 280/3/3
f 282/3/3 246/3/3 278/3/3
f 282/2/3 278/2/3 281/2/3
f 283/2/3 280/2/3 279/2/3
f 283/2/3 281/2/3 280/2/3
f 284/2/3 281/2/3 283/2/3
f 285/1/3 282/1/3 281/1/3
f 285/2/3 281/2/3 284/2/3
f 286/3/3 246/3/3 282/3/3
f 286/1/3 282/1/3 285/1/3
f 287/3/3 285/3/3 284/3/3
f 288/2/3 286/2/3 285/2/3
f 288/3/3 285/3/3 287/3/3
f 289/3/3 246/3/3 286/3/3
f 289/2/3 286/2/3 288/2/3
f 290/3/3 246/3/3 289/3/3
f 291/2/3 289/2/3 288/2/3
f 292/2/3 289/2/3 291/2/3
f 293/2/4 294/2/4 296/2/4
f 296/2/4 294/2/4 297/2/4
f 295/3/4 296/3/4 300/3/4
f 296/2/4 297/2/4 301/2/4
f 300/3/4 296/3/4 301/3/4
f 297/3/4 298/3/4 302/3/4
f 301/2/4 297/2/4 302/2/4
f 300/2/4 301/2/4 303/2/4
f 299/2/4 300/2/4 303/2/4
f 303/2/4 301/2/4 304/2/4
f 301/1/4 302/1/4 305/1/4
f 304/2/4 301/2/4 305/2/4
f 302/3/4 298/3/4 306/3/4
f 305/1/4 302/1/4 306/1/4
f 304/3/4 305/3/4 308/3/4
f 305/2/4 306/2/4 309/2/4
f 308/3/4 305/3/4 309/3/4
f 306/3/4 298/3/4 310/3/4
f 309/2/4 306/2/4 310/2/4
f 307/2/4 308/2/4 311/2/4
f 308/2/4 309/2/4 311/2/4
f 311/2/4 309/2/4 312/2/4
f 309/1/4 310/1/4 313/1/4
f 312/2/4 309/2/4 313/2/4
f 310/3/4 298/3/4 314/3/4
f 313/1/4 310/1/4 314/1/4
f 312/3/4 313/3/4 316/3/4
f 313/2/4 314/2/4 317/2/4
f 316/3/4 313/3/4 317/3/4
f 314/3/4 298/3/4 318/3/4
f 317/2/4 314/2/4 318/2/4
f 315/2/4 316/2/4 319/2/4
f 316/2/4 317/2/4 319/2/4
f 319/2/4 317/2/4 320/2/4
f 317/1/4 318/1/4 321/1/4
f 320/2/4 317/2/4 321/2/4
f 318/3/4 298/3/4 322/3/4
f 321/1/4 318/1/4 322/1/4
f 320/3/4 321/3/4 324/3/4
f 321/2/4 322/2/4 325/2/4
f 324/3/4 321/3/4 325/3/4
f 322/3/4 298/3/4 326/3/4
f 325/2/4 322/2/4 326/2/4
f 323/2/4 324/2/4 327/2/4
f 324/2/4 325/2/4 327/2/4
f 327/2/4 325/2/4 328/2/4
f 325/1/4 326/1/4 329/1/4
f 328/2/4 325/2/4 329/2/4
f 326/3/4 298/3/4 330/3/4
f 329/1/4 326/1/4 330/1/4
f 328/3/4 329/3/4 332/3/4
f 329/2/4 330/2/4 333/2/4
f 332/3/4 329/3/4 333/3/4
f 330/3/4 298/3/4 334/3/4
f 333/2/4 330/2/4 334/2/4
f 331/2/4 332/2/4 335/2/4
f 332/2/4 333/2/4 335/2/4
f 335/2/4 333/2/4 336/2/4
f 333/1/4 334/1/4 337/1/4
f 336/2/4 333/2/4 337/2/4
f 334/3/4 298/3/4 338/3/4
f 337/1/4 334/1/4 338/1/4
f 336/3/4 337/3/4 339/3/4
f 337/2/4 338/2/4 340/2/4
f 339/3/4 337/3/4 340/3/4
f 338/3/4 298/3/4 341/3/4
f 340/2/4 338/2/4 341/2/4
f 341/3/4 298/3/4 342/3/4
f 340/2/4 341/2/4 343/2/4
f 343/2/4 341/2/4 344/2/4
f 345/2/4 346/2/4 347/2/4
f 347/2/4 346/2/4 348/2/4
f 349/2/4 350/2/4 351/2/4
f 351/2/4 350/2/4 352/2/4
f 353/2/4 354/2/4 355/2/4
f 355/2/4 354/2/4 356/2/4
f 357/2/4 358/2/4 359/2/4
f 359/2/4 358/2/4 360/2/4
f 361/2/4 362/2/4 363/2/4
f 363/2/4 362/2/4 364/2/4
f 365/2/4 366/2/4 368/2/4
f 368/2/4 366/2/4 369/2/4
f 367/3/4 368/3/4 372/3/4
f 368/2/4 369/2/4 373/2/4
f 372/3/4 368/3/4 373/3/4
f 369/3/4 370/3/4 374/3/4
f 373/2/4 369/2/4 374/2/4
f 372/2/4 373/2/4 375/2/4
f 371/2/4 372/2/4 375/2/4
f 375/2/4 373/2/4 376/2/4
f 373/1/4 374/1/4 377/1/4
f 376/2/4 373/2/4 377/2/4
f 374/3/4 370/3/4 378/3/4
f 377/1/4 374/1/4 378/1/4
f 376/3/4 377/3/4 380/3/4
f 377/2/4 378/2/4 381/2/4
f 380/3/4 377/3/4 381/3/4
f 378/3/4 370/3/4 382/3/4
f 381/2/4 378/2/4 382/2/4
f 379/2/4 380/2/4 383/2/4
f 380/2/4 381/2/4 383/2/4
f 383/2/4 381/2/4 384/2/4
f 381/1/4 382/1/4 385/1/4
f 384/2/4 381/2/4 385/2/4
f 382/3/4 370/3/4 386/3/4
f 385/1/4 382/1/4 386/1/4
f 384/3/4 385/3/4 388/3/4
f 385/2/4 386/2/4 389/2/4
f 388/3/4 385/3/4 389/3/4
f 386/3/4 370/3/4 390/3/4
f 389/2/4 386/2/4 390/2/4
f 387/2/4 388/2/4 391/2/4
f 388/2/4 389/2/4 391/2/4
f 391/2/4 389/2/4 392/2/4
f 389/1/4 390/1/4 393/1/4
f 392/2/4 389/2/4 393/2/4
f 390/3/4 370/3/4 394/3/4
f 393/1/4 390/1/4 394/1/4
f 392/3/4 393/3/4 396/3/4
f 393/2/4 394/2/4 397/2/4
f 396/3/4 393/3/4 397/3/4
f 394/3/4 370/3/4 398/3/4
f 397/2/4 394/2/4 398/2/4
f 395/2/4 396/2/4 399/2/4
f 396/2/4 397/2/4 399/2/4
f 399/2/4 397/2/4 400/2/4
f 397/1/4 398/1/4 401/1/4
f 400/2/4 397/2/4 401/2/4
f 398/3/4 370/3/4 402/3/4
f 401/1/4 398/1/4 402/1/4
f 400/3/4 401/3/4 404/3/4
f 401/2/4 402/2/4 405/2/4
f 404/3/4 401/3/4 405/3/4
f 402/3/4 370/3/4 406/3/4
f 405/2/4 402/2/4 406/2/4
f 403/2/4 404/2/4 407/2/4
f 404/2/4 405/2/4 407/2/4
f 407/2/4 405/2/4 408/2/4
f 405/1/4 406/1/4 409/1/4
f 408/2/4 405/2/4 409/2/4
f 406/3/4 370/3/4 410/3/4
f 409/1/4 406/1/4 410/1/4
f 408/3/4 409/3/4 411/3/4
f 409/2/4 410/2/4 412/2/4
f 411/3/4 409/3/4 412/3/4
f 410/3/4 370/3/4 413/3/4
f 412/2/4 410/2/4 413/2/4
f 413/3/4 370/3/4 414/3/4
f 412/2/4 413/2/4 415/2/4
f 415/2/4 413/2/4 416/2/4
f 427/2/5 418/2/5 417/2/5
f 428/2/5 418/2/5 427/2/5
f 429/2/5 420/2/5 419/2/5
f 430/2/5 420/2/5 429/2/5
f 431/2/5 422/2/5 421/2/5
f 432/2/5 422/2/5 431/2/5
f 433/2/5 424/2/5 423/2/5
f 434/2/5 424/2/5 433/2/5
f 435/2/5 426/2/5 425/2/5
f 436/2/5 426/2/5 435/2/5
f 447/2/5 438/2/5 437/2/5
f 448/2/5 438/2/5 447/2/5
f 449/2/5 440/2/5 439/2/5
f 450/2/5 440/2/5 449/2/5
f 451/2/5 442/2/5 441/2/5
f 452/2/5 442/2/5 451/2/5
f 453/2/5 444/2/5 443/2/5
f 454/2/5 444/2/5 453/2/5
f 455/2/5 446/2/5 445/2/5
f 456/2/5 446/2/5 455/2/5
f 469/3/5 458/3/5 457/3/5
f 470/3/5 458/3/5 469/3/5
f 471/3/5 460/3/5 459/3/5
f 472/3/5 460/3/5 471/3/5
f 473/3/5 462/3/5 461/3/5
f 474/3/5 462/3/5 473/3/5
f 475/3/5 464/3/5 463/3/5
f 476/3/5 464/3/5 475/3/5
f 477/3/5 466/3/5 465/3/5
f 478/3/5 466/3/5 477/3/5
f 479/3/5 468/3/5 467/3/5
f 480/3/5 468/3/5 479/3/5
f 493/3/5 482/3/5 481/3/5
f 494/3/5 482/3/5 493/3/5
f 495/3/5 484/3/5 483/3/5
f 496/3/5 484/3/5 495/3/5
f 497/3/5 486/3/5 485/3/5
f 498/3/5 486/3/5 497/3/5
f 499/3/5 488/3/5 487/3/5
f 500/3/5 488/3/5 499/3/5
f 501/3/5 490/3/5 489/3/5
f 502/3/5 490/3/5 501/3/5
f 503/3/5 492/3/5 491/3/5
f 504/3/5 492/3/5 503/3/5
f 509/2/5 506/2/5 505/2/5
f 510/2/5 506/2/5 509/2/5
f 511/2/5 508/2/5 507/2/5
f 512/2/5 508/2/5 511/2/5
f 517/2/5 514/2/5 513/2/5
f 518/2/5 514/2/5 517/2/5
f 519/2/5 516/2/5 515/2/5
f 520/2/5 516/2/5 519/2/5
f 521/2/6 522/2/6 531/2/6
f 531/2/6 522/2/6 532/2/6
f 523/2/6 524/2/6 533/2/6
f 533/2/6 524/2/6 534/2/6
f 525/2/6 526/2/6 535/2/6
f 535/2/6 526/2/6 536/2/6
f 527/2/6 528/2/6 537/2/6
f 537/2/6 528/2/6 538/2/6
f 529/2/6 530/2/6 539/2/6
f 539/2/6 530/2/6 540/2/6
f 541/2/6 542/2/6 551/2/6
f 551/2/6 542/2/6 552/2/6
f 543/2/6 544/2/6 553/2/6
f 553/2/6 544/2/6 554/2/6
f 545/2/6 546/2/6 555/2/6
f 555/2/6 546/2/6 556/2/6
f 547/2/6 548/2/6 557/2/6
f 557/2/6 548/2/6 558/2/6
f 549/2/6 550/2/6 559/2/6
f 559/2/6 550/2/6 560/2/6
f 561/2/6 562/2/6 565/2/6
f 565/2/6 562/2/6 566/2/6
f 563/2/6 564/2/6 567/2/6
f 567/2/6 564/2/6 568/2/6
f 569/2/6 570/2/6 573/2/6
f 573/2/6 570/2/6 574/2/6
f 571/2/6 572/2/6 575/2/6
f 575/2/6 572/2/6 576/2/6
f 577/3/6 578/3/6 579/3/6
f 579/3/6 578/3/6 580/3/6
f 581/3/6 582/3/6 583/3/6
f 583/3/6 582/3/6 584/3/6
