# MagicaVoxel @ Ephtracy

# group
g Floor Tiles-4

# material
mtllib Floor Tiles-4.mtl
usemtl palette

# normals
vn -1 0 0
vn 1 0 0
vn 0 0 1
vn 0 0 -1
vn 0 -1 0
vn 0 1 0

# texcoords
vt 0.466797 0.5
vt 0.748047 0.5
vt 0.970703 0.5
vt 0.982422 0.5
vt 0.990234 0.5

# verts
v -30 0 30
v -30 0 21
v -30 0 19
v -30 0 -30
v -30 1 30
v -30 1 28
v -30 1 26
v -30 1 24
v -30 1 22
v -30 1 21
v -30 1 20
v -30 1 19
v -30 1 18
v -30 1 16
v -30 1 14
v -30 1 12
v -30 1 10
v -30 1 8
v -30 1 6
v -30 1 4
v -30 1 2
v -30 1 -0
v -30 1 -2
v -30 1 -4
v -30 1 -6
v -30 1 -8
v -30 1 -10
v -30 1 -12
v -30 1 -14
v -30 1 -16
v -30 1 -18
v -30 1 -20
v -30 1 -22
v -30 1 -24
v -30 1 -26
v -30 1 -28
v -30 1 -30
v -30 2 30
v -30 2 28
v -30 2 26
v -30 2 24
v -30 2 22
v -30 2 20
v -30 2 18
v -30 2 16
v -30 2 14
v -30 2 12
v -30 2 10
v -30 2 8
v -30 2 6
v -30 2 4
v -30 2 2
v -30 2 -0
v -30 2 -2
v -30 2 -4
v -30 2 -6
v -30 2 -8
v -30 2 -10
v -30 2 -12
v -30 2 -14
v -30 2 -16
v -30 2 -18
v -30 2 -20
v -30 2 -22
v -30 2 -24
v -30 2 -26
v -30 2 -28
v -30 2 -30
v -30 3 30
v -30 3 -30
v 30 0 30
v 30 0 -30
v 30 1 30
v 30 1 29
v 30 1 27
v 30 1 25
v 30 1 23
v 30 1 21
v 30 1 19
v 30 1 17
v 30 1 15
v 30 1 13
v 30 1 11
v 30 1 9
v 30 1 7
v 30 1 5
v 30 1 3
v 30 1 1
v 30 1 -1
v 30 1 -3
v 30 1 -5
v 30 1 -7
v 30 1 -9
v 30 1 -11
v 30 1 -13
v 30 1 -15
v 30 1 -17
v 30 1 -19
v 30 1 -21
v 30 1 -23
v 30 1 -25
v 30 1 -27
v 30 1 -29
v 30 1 -30
v 30 2 30
v 30 2 29
v 30 2 27
v 30 2 25
v 30 2 23
v 30 2 21
v 30 2 19
v 30 2 17
v 30 2 15
v 30 2 13
v 30 2 11
v 30 2 9
v 30 2 7
v 30 2 5
v 30 2 3
v 30 2 1
v 30 2 -1
v 30 2 -3
v 30 2 -5
v 30 2 -7
v 30 2 -9
v 30 2 -11
v 30 2 -13
v 30 2 -15
v 30 2 -17
v 30 2 -19
v 30 2 -21
v 30 2 -23
v 30 2 -25
v 30 2 -27
v 30 2 -29
v 30 2 -30
v 30 3 30
v 30 3 -30
v -30 0 30
v -30 1 30
v -30 2 30
v -30 3 30
v -29 1 30
v -29 2 30
v -27 1 30
v -27 2 30
v -25 1 30
v -25 2 30
v -23 1 30
v -23 2 30
v -21 1 30
v -21 2 30
v -19 1 30
v -19 2 30
v -17 1 30
v -17 2 30
v -15 1 30
v -15 2 30
v -13 1 30
v -13 2 30
v -11 1 30
v -11 2 30
v -9 1 30
v -9 2 30
v -7 1 30
v -7 2 30
v -5 1 30
v -5 2 30
v -3 1 30
v -3 2 30
v -1 1 30
v -1 2 30
v 1 1 30
v 1 2 30
v 3 1 30
v 3 2 30
v 5 1 30
v 5 2 30
v 7 1 30
v 7 2 30
v 9 1 30
v 9 2 30
v 11 1 30
v 11 2 30
v 13 1 30
v 13 2 30
v 15 1 30
v 15 2 30
v 17 1 30
v 17 2 30
v 19 1 30
v 19 2 30
v 22 1 30
v 22 2 30
v 23 1 30
v 23 2 30
v 26 1 30
v 26 2 30
v 27 1 30
v 27 2 30
v 29 1 30
v 29 2 30
v 30 0 30
v 30 1 30
v 30 2 30
v 30 3 30
v -30 0 -30
v -30 1 -30
v -30 2 -30
v -30 3 -30
v -28 1 -30
v -28 2 -30
v -26 1 -30
v -26 2 -30
v -24 1 -30
v -24 2 -30
v -22 1 -30
v -22 2 -30
v -20 1 -30
v -20 2 -30
v -18 1 -30
v -18 2 -30
v -16 1 -30
v -16 2 -30
v -14 1 -30
v -14 2 -30
v -12 1 -30
v -12 2 -30
v -10 1 -30
v -10 2 -30
v -8 1 -30
v -8 2 -30
v -6 1 -30
v -6 2 -30
v -4 1 -30
v -4 2 -30
v -2 1 -30
v -2 2 -30
v 0 1 -30
v 0 2 -30
v 2 1 -30
v 2 2 -30
v 4 1 -30
v 4 2 -30
v 6 1 -30
v 6 2 -30
v 8 1 -30
v 8 2 -30
v 10 1 -30
v 10 2 -30
v 12 1 -30
v 12 2 -30
v 14 1 -30
v 14 2 -30
v 16 1 -30
v 16 2 -30
v 18 1 -30
v 18 2 -30
v 20 1 -30
v 20 2 -30
v 22 1 -30
v 22 2 -30
v 24 1 -30
v 24 2 -30
v 26 1 -30
v 26 2 -30
v 28 1 -30
v 28 2 -30
v 30 0 -30
v 30 1 -30
v 30 2 -30
v 30 3 -30
v -30 0 30
v 30 0 30
v -30 0 21
v 19 0 21
v -30 0 19
v 19 0 19
v -30 0 -30
v 30 0 -30
v -30 3 30
v 30 3 30
v -30 3 -30
v 30 3 -30

# faces
f 5/1/1 2/1/1 1/1/1
f 6/1/1 2/1/1 5/1/1
f 7/1/1 2/1/1 6/1/1
f 8/1/1 2/1/1 7/1/1
f 9/1/1 2/1/1 8/1/1
f 10/5/1 3/5/1 2/5/1
f 10/1/1 2/1/1 9/1/1
f 11/5/1 3/5/1 10/5/1
f 12/1/1 4/1/1 3/1/1
f 12/5/1 3/5/1 11/5/1
f 13/1/1 4/1/1 12/1/1
f 14/1/1 4/1/1 13/1/1
f 15/1/1 4/1/1 14/1/1
f 16/1/1 4/1/1 15/1/1
f 17/1/1 4/1/1 16/1/1
f 18/1/1 4/1/1 17/1/1
f 19/1/1 4/1/1 18/1/1
f 20/1/1 4/1/1 19/1/1
f 21/1/1 4/1/1 20/1/1
f 22/1/1 4/1/1 21/1/1
f 23/1/1 4/1/1 22/1/1
f 24/1/1 4/1/1 23/1/1
f 25/1/1 4/1/1 24/1/1
f 26/1/1 4/1/1 25/1/1
f 27/1/1 4/1/1 26/1/1
f 28/1/1 4/1/1 27/1/1
f 29/1/1 4/1/1 28/1/1
f 30/1/1 4/1/1 29/1/1
f 31/1/1 4/1/1 30/1/1
f 32/1/1 4/1/1 31/1/1
f 33/1/1 4/1/1 32/1/1
f 34/1/1 4/1/1 33/1/1
f 35/1/1 4/1/1 34/1/1
f 36/1/1 4/1/1 35/1/1
f 37/1/1 4/1/1 36/1/1
f 38/4/1 6/4/1 5/4/1
f 39/3/1 7/3/1 6/3/1
f 39/4/1 6/4/1 38/4/1
f 40/4/1 8/4/1 7/4/1
f 40/3/1 7/3/1 39/3/1
f 41/3/1 9/3/1 8/3/1
f 41/4/1 8/4/1 40/4/1
f 42/4/1 11/4/1 10/4/1
f 42/3/1 9/3/1 41/3/1
f 42/4/1 10/4/1 9/4/1
f 43/3/1 12/3/1 11/3/1
f 43/4/1 11/4/1 42/4/1
f 43/3/1 13/3/1 12/3/1
f 44/4/1 14/4/1 13/4/1
f 44/3/1 13/3/1 43/3/1
f 45/3/1 15/3/1 14/3/1
f 45/4/1 14/4/1 44/4/1
f 46/4/1 16/4/1 15/4/1
f 46/3/1 15/3/1 45/3/1
f 47/3/1 17/3/1 16/3/1
f 47/4/1 16/4/1 46/4/1
f 48/4/1 18/4/1 17/4/1
f 48/3/1 17/3/1 47/3/1
f 49/3/1 19/3/1 18/3/1
f 49/4/1 18/4/1 48/4/1
f 50/4/1 20/4/1 19/4/1
f 50/3/1 19/3/1 49/3/1
f 51/3/1 21/3/1 20/3/1
f 51/4/1 20/4/1 50/4/1
f 52/4/1 22/4/1 21/4/1
f 52/3/1 21/3/1 51/3/1
f 53/3/1 23/3/1 22/3/1
f 53/4/1 22/4/1 52/4/1
f 54/4/1 24/4/1 23/4/1
f 54/3/1 23/3/1 53/3/1
f 55/3/1 25/3/1 24/3/1
f 55/4/1 24/4/1 54/4/1
f 56/4/1 26/4/1 25/4/1
f 56/3/1 25/3/1 55/3/1
f 57/3/1 27/3/1 26/3/1
f 57/4/1 26/4/1 56/4/1
f 58/4/1 28/4/1 27/4/1
f 58/3/1 27/3/1 57/3/1
f 59/3/1 29/3/1 28/3/1
f 59/4/1 28/4/1 58/4/1
f 60/4/1 30/4/1 29/4/1
f 60/3/1 29/3/1 59/3/1
f 61/3/1 31/3/1 30/3/1
f 61/4/1 30/4/1 60/4/1
f 62/4/1 32/4/1 31/4/1
f 62/3/1 31/3/1 61/3/1
f 63/3/1 33/3/1 32/3/1
f 63/4/1 32/4/1 62/4/1
f 64/4/1 34/4/1 33/4/1
f 64/3/1 33/3/1 63/3/1
f 65/3/1 35/3/1 34/3/1
f 65/4/1 34/4/1 64/4/1
f 66/4/1 36/4/1 35/4/1
f 66/3/1 35/3/1 65/3/1
f 67/3/1 37/3/1 36/3/1
f 67/4/1 36/4/1 66/4/1
f 68/3/1 37/3/1 67/3/1
f 69/2/1 41/2/1 40/2/1
f 69/2/1 40/2/1 39/2/1
f 69/2/1 68/2/1 67/2/1
f 69/2/1 67/2/1 66/2/1
f 69/2/1 64/2/1 63/2/1
f 69/2/1 63/2/1 62/2/1
f 69/2/1 62/2/1 61/2/1
f 69/2/1 61/2/1 60/2/1
f 69/2/1 60/2/1 59/2/1
f 69/2/1 59/2/1 58/2/1
f 69/2/1 58/2/1 57/2/1
f 69/2/1 57/2/1 56/2/1
f 69/2/1 56/2/1 55/2/1
f 69/2/1 55/2/1 54/2/1
f 69/2/1 54/2/1 53/2/1
f 69/2/1 53/2/1 52/2/1
f 69/2/1 52/2/1 51/2/1
f 69/2/1 51/2/1 50/2/1
f 69/2/1 50/2/1 49/2/1
f 69/2/1 49/2/1 48/2/1
f 69/2/1 48/2/1 47/2/1
f 69/2/1 47/2/1 46/2/1
f 69/2/1 46/2/1 45/2/1
f 69/2/1 45/2/1 44/2/1
f 69/2/1 44/2/1 43/2/1
f 69/2/1 43/2/1 42/2/1
f 69/2/1 65/2/1 64/2/1
f 69/2/1 42/2/1 41/2/1
f 69/2/1 66/2/1 65/2/1
f 69/2/1 39/2/1 38/2/1
f 70/2/1 68/2/1 69/2/1
f 71/1/2 72/1/2 73/1/2
f 73/1/2 72/1/2 74/1/2
f 74/1/2 72/1/2 75/1/2
f 75/1/2 72/1/2 76/1/2
f 76/1/2 72/1/2 77/1/2
f 77/1/2 72/1/2 78/1/2
f 78/1/2 72/1/2 79/1/2
f 79/1/2 72/1/2 80/1/2
f 80/1/2 72/1/2 81/1/2
f 81/1/2 72/1/2 82/1/2
f 82/1/2 72/1/2 83/1/2
f 83/1/2 72/1/2 84/1/2
f 84/1/2 72/1/2 85/1/2
f 85/1/2 72/1/2 86/1/2
f 86/1/2 72/1/2 87/1/2
f 87/1/2 72/1/2 88/1/2
f 88/1/2 72/1/2 89/1/2
f 89/1/2 72/1/2 90/1/2
f 90/1/2 72/1/2 91/1/2
f 91/1/2 72/1/2 92/1/2
f 92/1/2 72/1/2 93/1/2
f 93/1/2 72/1/2 94/1/2
f 94/1/2 72/1/2 95/1/2
f 95/1/2 72/1/2 96/1/2
f 96/1/2 72/1/2 97/1/2
f 97/1/2 72/1/2 98/1/2
f 98/1/2 72/1/2 99/1/2
f 99/1/2 72/1/2 100/1/2
f 100/1/2 72/1/2 101/1/2
f 101/1/2 72/1/2 102/1/2
f 102/1/2 72/1/2 103/1/2
f 103/1/2 72/1/2 104/1/2
f 73/4/2 74/4/2 105/4/2
f 74/3/2 75/3/2 106/3/2
f 105/4/2 74/4/2 106/4/2
f 75/4/2 76/4/2 107/4/2
f 106/3/2 75/3/2 107/3/2
f 76/3/2 77/3/2 108/3/2
f 107/4/2 76/4/2 108/4/2
f 77/4/2 78/4/2 109/4/2
f 108/3/2 77/3/2 109/3/2
f 78/3/2 79/3/2 110/3/2
f 109/4/2 78/4/2 110/4/2
f 79/4/2 80/4/2 111/4/2
f 110/3/2 79/3/2 111/3/2
f 80/3/2 81/3/2 112/3/2
f 111/4/2 80/4/2 112/4/2
f 81/4/2 82/4/2 113/4/2
f 112/3/2 81/3/2 113/3/2
f 82/3/2 83/3/2 114/3/2
f 113/4/2 82/4/2 114/4/2
f 83/4/2 84/4/2 115/4/2
f 114/3/2 83/3/2 115/3/2
f 84/3/2 85/3/2 116/3/2
f 115/4/2 84/4/2 116/4/2
f 85/4/2 86/4/2 117/4/2
f 116/3/2 85/3/2 117/3/2
f 86/3/2 87/3/2 118/3/2
f 117/4/2 86/4/2 118/4/2
f 87/4/2 88/4/2 119/4/2
f 118/3/2 87/3/2 119/3/2
f 88/3/2 89/3/2 120/3/2
f 119/4/2 88/4/2 120/4/2
f 89/4/2 90/4/2 121/4/2
f 120/3/2 89/3/2 121/3/2
f 90/3/2 91/3/2 122/3/2
f 121/4/2 90/4/2 122/4/2
f 91/4/2 92/4/2 123/4/2
f 122/3/2 91/3/2 123/3/2
f 92/3/2 93/3/2 124/3/2
f 123/4/2 92/4/2 124/4/2
f 93/4/2 94/4/2 125/4/2
f 124/3/2 93/3/2 125/3/2
f 94/3/2 95/3/2 126/3/2
f 125/4/2 94/4/2 126/4/2
f 95/4/2 96/4/2 127/4/2
f 126/3/2 95/3/2 127/3/2
f 96/3/2 97/3/2 128/3/2
f 127/4/2 96/4/2 128/4/2
f 97/4/2 98/4/2 129/4/2
f 128/3/2 97/3/2 129/3/2
f 98/3/2 99/3/2 130/3/2
f 129/4/2 98/4/2 130/4/2
f 99/4/2 100/4/2 131/4/2
f 130/3/2 99/3/2 131/3/2
f 100/3/2 101/3/2 132/3/2
f 131/4/2 100/4/2 132/4/2
f 101/4/2 102/4/2 133/4/2
f 132/3/2 101/3/2 133/3/2
f 102/3/2 103/3/2 134/3/2
f 133/4/2 102/4/2 134/4/2
f 103/4/2 104/4/2 135/4/2
f 134/3/2 103/3/2 135/3/2
f 135/4/2 104/4/2 136/4/2
f 105/2/2 106/2/2 137/2/2
f 106/2/2 107/2/2 137/2/2
f 135/2/2 136/2/2 137/2/2
f 134/2/2 135/2/2 137/2/2
f 133/2/2 134/2/2 137/2/2
f 132/2/2 133/2/2 137/2/2
f 131/2/2 132/2/2 137/2/2
f 130/2/2 131/2/2 137/2/2
f 129/2/2 130/2/2 137/2/2
f 128/2/2 129/2/2 137/2/2
f 127/2/2 128/2/2 137/2/2
f 126/2/2 127/2/2 137/2/2
f 125/2/2 126/2/2 137/2/2
f 124/2/2 125/2/2 137/2/2
f 123/2/2 124/2/2 137/2/2
f 122/2/2 123/2/2 137/2/2
f 121/2/2 122/2/2 137/2/2
f 120/2/2 121/2/2 137/2/2
f 119/2/2 120/2/2 137/2/2
f 118/2/2 119/2/2 137/2/2
f 117/2/2 118/2/2 137/2/2
f 116/2/2 117/2/2 137/2/2
f 115/2/2 116/2/2 137/2/2
f 114/2/2 115/2/2 137/2/2
f 113/2/2 114/2/2 137/2/2
f 112/2/2 113/2/2 137/2/2
f 111/2/2 112/2/2 137/2/2
f 110/2/2 111/2/2 137/2/2
f 109/2/2 110/2/2 137/2/2
f 108/2/2 109/2/2 137/2/2
f 107/2/2 108/2/2 137/2/2
f 137/2/2 136/2/2 138/2/2
f 143/1/3 140/1/3 139/1/3
f 143/4/3 141/4/3 140/4/3
f 144/2/3 142/2/3 141/2/3
f 144/4/3 141/4/3 143/4/3
f 145/1/3 143/1/3 139/1/3
f 145/3/3 144/3/3 143/3/3
f 146/2/3 142/2/3 144/2/3
f 146/3/3 144/3/3 145/3/3
f 147/1/3 145/1/3 139/1/3
f 147/4/3 146/4/3 145/4/3
f 148/2/3 142/2/3 146/2/3
f 148/4/3 146/4/3 147/4/3
f 149/1/3 147/1/3 139/1/3
f 149/3/3 148/3/3 147/3/3
f 150/2/3 142/2/3 148/2/3
f 150/3/3 148/3/3 149/3/3
f 151/1/3 149/1/3 139/1/3
f 151/4/3 150/4/3 149/4/3
f 152/2/3 142/2/3 150/2/3
f 152/4/3 150/4/3 151/4/3
f 153/1/3 151/1/3 139/1/3
f 153/3/3 152/3/3 151/3/3
f 154/2/3 142/2/3 152/2/3
f 154/3/3 152/3/3 153/3/3
f 155/1/3 153/1/3 139/1/3
f 155/4/3 154/4/3 153/4/3
f 156/2/3 142/2/3 154/2/3
f 156/4/3 154/4/3 155/4/3
f 157/1/3 155/1/3 139/1/3
f 157/3/3 156/3/3 155/3/3
f 158/2/3 142/2/3 156/2/3
f 158/3/3 156/3/3 157/3/3
f 159/1/3 157/1/3 139/1/3
f 159/4/3 158/4/3 157/4/3
f 160/2/3 142/2/3 158/2/3
f 160/4/3 158/4/3 159/4/3
f 161/1/3 159/1/3 139/1/3
f 161/3/3 160/3/3 159/3/3
f 162/2/3 142/2/3 160/2/3
f 162/3/3 160/3/3 161/3/3
f 163/1/3 161/1/3 139/1/3
f 163/4/3 162/4/3 161/4/3
f 164/2/3 142/2/3 162/2/3
f 164/4/3 162/4/3 163/4/3
f 165/1/3 163/1/3 139/1/3
f 165/3/3 164/3/3 163/3/3
f 166/2/3 142/2/3 164/2/3
f 166/3/3 164/3/3 165/3/3
f 167/1/3 165/1/3 139/1/3
f 167/4/3 166/4/3 165/4/3
f 168/2/3 142/2/3 166/2/3
f 168/4/3 166/4/3 167/4/3
f 169/1/3 167/1/3 139/1/3
f 169/3/3 168/3/3 167/3/3
f 170/2/3 142/2/3 168/2/3
f 170/3/3 168/3/3 169/3/3
f 171/1/3 169/1/3 139/1/3
f 171/4/3 170/4/3 169/4/3
f 172/2/3 142/2/3 170/2/3
f 172/4/3 170/4/3 171/4/3
f 173/1/3 171/1/3 139/1/3
f 173/3/3 172/3/3 171/3/3
f 174/2/3 142/2/3 172/2/3
f 174/3/3 172/3/3 173/3/3
f 175/1/3 173/1/3 139/1/3
f 175/4/3 174/4/3 173/4/3
f 176/2/3 142/2/3 174/2/3
f 176/4/3 174/4/3 175/4/3
f 177/1/3 175/1/3 139/1/3
f 177/3/3 176/3/3 175/3/3
f 178/2/3 142/2/3 176/2/3
f 178/3/3 176/3/3 177/3/3
f 179/1/3 177/1/3 139/1/3
f 179/4/3 178/4/3 177/4/3
f 180/2/3 142/2/3 178/2/3
f 180/4/3 178/4/3 179/4/3
f 181/1/3 179/1/3 139/1/3
f 181/3/3 180/3/3 179/3/3
f 182/2/3 142/2/3 180/2/3
f 182/3/3 180/3/3 181/3/3
f 183/1/3 181/1/3 139/1/3
f 183/4/3 182/4/3 181/4/3
f 184/2/3 142/2/3 182/2/3
f 184/4/3 182/4/3 183/4/3
f 185/1/3 183/1/3 139/1/3
f 185/3/3 184/3/3 183/3/3
f 186/2/3 142/2/3 184/2/3
f 186/3/3 184/3/3 185/3/3
f 187/1/3 185/1/3 139/1/3
f 187/4/3 186/4/3 185/4/3
f 188/2/3 142/2/3 186/2/3
f 188/4/3 186/4/3 187/4/3
f 189/1/3 187/1/3 139/1/3
f 189/3/3 188/3/3 187/3/3
f 190/2/3 142/2/3 188/2/3
f 190/3/3 188/3/3 189/3/3
f 191/1/3 189/1/3 139/1/3
f 191/4/3 190/4/3 189/4/3
f 192/2/3 142/2/3 190/2/3
f 192/4/3 190/4/3 191/4/3
f 193/1/3 191/1/3 139/1/3
f 193/3/3 192/3/3 191/3/3
f 194/2/3 142/2/3 192/2/3
f 194/3/3 192/3/3 193/3/3
f 195/1/3 193/1/3 139/1/3
f 195/4/3 194/4/3 193/4/3
f 196/2/3 142/2/3 194/2/3
f 196/4/3 194/4/3 195/4/3
f 197/1/3 195/1/3 139/1/3
f 197/3/3 196/3/3 195/3/3
f 198/2/3 142/2/3 196/2/3
f 198/3/3 196/3/3 197/3/3
f 199/1/3 197/1/3 139/1/3
f 199/4/3 198/4/3 197/4/3
f 200/2/3 142/2/3 198/2/3
f 200/4/3 198/4/3 199/4/3
f 201/1/3 199/1/3 139/1/3
f 201/3/3 200/3/3 199/3/3
f 202/2/3 142/2/3 200/2/3
f 202/3/3 200/3/3 201/3/3
f 203/1/3 201/1/3 139/1/3
f 204/4/3 202/4/3 201/4/3
f 204/1/3 201/1/3 203/1/3
f 205/2/3 142/2/3 202/2/3
f 205/4/3 202/4/3 204/4/3
f 206/2/3 142/2/3 205/2/3
f 207/1/4 208/1/4 211/1/4
f 208/3/4 209/3/4 211/3/4
f 209/2/4 210/2/4 212/2/4
f 211/3/4 209/3/4 212/3/4
f 207/1/4 211/1/4 213/1/4
f 211/4/4 212/4/4 213/4/4
f 212/2/4 210/2/4 214/2/4
f 213/4/4 212/4/4 214/4/4
f 207/1/4 213/1/4 215/1/4
f 213/3/4 214/3/4 215/3/4
f 214/2/4 210/2/4 216/2/4
f 215/3/4 214/3/4 216/3/4
f 207/1/4 215/1/4 217/1/4
f 215/4/4 216/4/4 217/4/4
f 216/2/4 210/2/4 218/2/4
f 217/4/4 216/4/4 218/4/4
f 207/1/4 217/1/4 219/1/4
f 217/3/4 218/3/4 219/3/4
f 218/2/4 210/2/4 220/2/4
f 219/3/4 218/3/4 220/3/4
f 207/1/4 219/1/4 221/1/4
f 219/4/4 220/4/4 221/4/4
f 220/2/4 210/2/4 222/2/4
f 221/4/4 220/4/4 222/4/4
f 207/1/4 221/1/4 223/1/4
f 221/3/4 222/3/4 223/3/4
f 222/2/4 210/2/4 224/2/4
f 223/3/4 222/3/4 224/3/4
f 207/1/4 223/1/4 225/1/4
f 223/4/4 224/4/4 225/4/4
f 224/2/4 210/2/4 226/2/4
f 225/4/4 224/4/4 226/4/4
f 207/1/4 225/1/4 227/1/4
f 225/3/4 226/3/4 227/3/4
f 226/2/4 210/2/4 228/2/4
f 227/3/4 226/3/4 228/3/4
f 207/1/4 227/1/4 229/1/4
f 227/4/4 228/4/4 229/4/4
f 228/2/4 210/2/4 230/2/4
f 229/4/4 228/4/4 230/4/4
f 207/1/4 229/1/4 231/1/4
f 229/3/4 230/3/4 231/3/4
f 230/2/4 210/2/4 232/2/4
f 231/3/4 230/3/4 232/3/4
f 207/1/4 231/1/4 233/1/4
f 231/4/4 232/4/4 233/4/4
f 232/2/4 210/2/4 234/2/4
f 233/4/4 232/4/4 234/4/4
f 207/1/4 233/1/4 235/1/4
f 233/3/4 234/3/4 235/3/4
f 234/2/4 210/2/4 236/2/4
f 235/3/4 234/3/4 236/3/4
f 207/1/4 235/1/4 237/1/4
f 235/4/4 236/4/4 237/4/4
f 236/2/4 210/2/4 238/2/4
f 237/4/4 236/4/4 238/4/4
f 207/1/4 237/1/4 239/1/4
f 237/3/4 238/3/4 239/3/4
f 238/2/4 210/2/4 240/2/4
f 239/3/4 238/3/4 240/3/4
f 207/1/4 239/1/4 241/1/4
f 239/4/4 240/4/4 241/4/4
f 240/2/4 210/2/4 242/2/4
f 241/4/4 240/4/4 242/4/4
f 207/1/4 241/1/4 243/1/4
f 241/3/4 242/3/4 243/3/4
f 242/2/4 210/2/4 244/2/4
f 243/3/4 242/3/4 244/3/4
f 207/1/4 243/1/4 245/1/4
f 243/4/4 244/4/4 245/4/4
f 244/2/4 210/2/4 246/2/4
f 245/4/4 244/4/4 246/4/4
f 207/1/4 245/1/4 247/1/4
f 245/3/4 246/3/4 247/3/4
f 246/2/4 210/2/4 248/2/4
f 247/3/4 246/3/4 248/3/4
f 207/1/4 247/1/4 249/1/4
f 247/4/4 248/4/4 249/4/4
f 248/2/4 210/2/4 250/2/4
f 249/4/4 248/4/4 250/4/4
f 207/1/4 249/1/4 251/1/4
f 249/3/4 250/3/4 251/3/4
f 250/2/4 210/2/4 252/2/4
f 251/3/4 250/3/4 252/3/4
f 207/1/4 251/1/4 253/1/4
f 251/4/4 252/4/4 253/4/4
f 252/2/4 210/2/4 254/2/4
f 253/4/4 252/4/4 254/4/4
f 207/1/4 253/1/4 255/1/4
f 253/3/4 254/3/4 255/3/4
f 254/2/4 210/2/4 256/2/4
f 255/3/4 254/3/4 256/3/4
f 207/1/4 255/1/4 257/1/4
f 255/4/4 256/4/4 257/4/4
f 256/2/4 210/2/4 258/2/4
f 257/4/4 256/4/4 258/4/4
f 207/1/4 257/1/4 259/1/4
f 257/3/4 258/3/4 259/3/4
f 258/2/4 210/2/4 260/2/4
f 259/3/4 258/3/4 260/3/4
f 207/1/4 259/1/4 261/1/4
f 259/4/4 260/4/4 261/4/4
f 260/2/4 210/2/4 262/2/4
f 261/4/4 260/4/4 262/4/4
f 207/1/4 261/1/4 263/1/4
f 261/3/4 262/3/4 263/3/4
f 262/2/4 210/2/4 264/2/4
f 263/3/4 262/3/4 264/3/4
f 207/1/4 263/1/4 265/1/4
f 263/4/4 264/4/4 265/4/4
f 264/2/4 210/2/4 266/2/4
f 265/4/4 264/4/4 266/4/4
f 207/1/4 265/1/4 267/1/4
f 265/3/4 266/3/4 267/3/4
f 266/2/4 210/2/4 268/2/4
f 267/3/4 266/3/4 268/3/4
f 207/1/4 267/1/4 269/1/4
f 267/4/4 268/4/4 270/4/4
f 269/1/4 267/1/4 270/1/4
f 268/2/4 210/2/4 271/2/4
f 270/4/4 268/4/4 271/4/4
f 271/2/4 210/2/4 272/2/4
f 275/1/5 274/1/5 273/1/5
f 276/1/5 274/1/5 275/1/5
f 277/5/5 276/5/5 275/5/5
f 278/1/5 274/1/5 276/1/5
f 278/5/5 276/5/5 277/5/5
f 279/1/5 278/1/5 277/1/5
f 280/1/5 274/1/5 278/1/5
f 280/1/5 278/1/5 279/1/5
f 281/2/6 282/2/6 283/2/6
f 283/2/6 282/2/6 284/2/6
