# MagicaVoxel @ Ephtracy

# group
g FloorTileCement

# material
mtllib FloorTileCement.mtl
usemtl palette

# normals
vn -1 0 0
vn 1 0 0
vn 0 0 1
vn 0 0 -1
vn 0 -1 0
vn 0 1 0

# texcoords
vt 0.974609 0.5
vt 0.982422 0.5

# verts
v -30 0 30
v -30 0 -30
v -30 2 2
v -30 2 -2
v -30 3 30
v -30 3 2
v -30 3 -2
v -30 3 -30
v 30 0 30
v 30 0 -30
v 30 3 30
v 30 3 -30
v -30 0 30
v -30 3 30
v 30 0 30
v 30 3 30
v -30 0 -30
v -30 3 -30
v 30 0 -30
v 30 3 -30
v -30 0 30
v 30 0 30
v -30 0 -30
v 30 0 -30
v -30 3 30
v 30 3 30
v -11 3 25
v -9 3 25
v -11 3 24
v -9 3 24
v 18 3 24
v 19 3 24
v -21 3 22
v -20 3 22
v 18 3 22
v 19 3 22
v -21 3 21
v -20 3 21
v -2 3 19
v 0 3 19
v -3 3 18
v -2 3 18
v -1 3 18
v 0 3 18
v -3 3 17
v -1 3 17
v -18 3 13
v -17 3 13
v -18 3 12
v -17 3 12
v 11 3 12
v 12 3 12
v 11 3 10
v 12 3 10
v 13 3 10
v 12 3 8
v 13 3 8
v 14 3 8
v 13 3 6
v 14 3 6
v -30 3 2
v -28 3 2
v -7 3 1
v -6 3 1
v -7 3 -0
v -6 3 -0
v -30 3 -2
v -28 3 -2
v 22 3 -6
v 23 3 -6
v -19 3 -7
v -18 3 -7
v 22 3 -7
v 23 3 -7
v 25 3 -10
v 26 3 -10
v 6 3 -13
v 7 3 -13
v -20 3 -14
v -19 3 -14
v -18 3 -14
v 25 3 -14
v 26 3 -14
v 6 3 -16
v 7 3 -16
v 8 3 -16
v -20 3 -20
v -19 3 -20
v 7 3 -20
v 8 3 -20
v -8 3 -23
v -7 3 -23
v -8 3 -24
v -7 3 -24
v -5 3 -24
v -6 3 -25
v -5 3 -25
v -6 3 -26
v -5 3 -26
v -8 3 -27
v -7 3 -27
v -6 3 -27
v -8 3 -28
v -7 3 -28
v -6 3 -28
v -5 3 -28
v -30 3 -30
v 30 3 -30

# faces
f 3/2/1 2/2/1 1/2/1
f 4/2/1 2/2/1 3/2/1
f 5/2/1 3/2/1 1/2/1
f 6/1/1 4/1/1 3/1/1
f 6/2/1 3/2/1 5/2/1
f 7/2/1 2/2/1 4/2/1
f 7/1/1 4/1/1 6/1/1
f 8/2/1 2/2/1 7/2/1
f 9/2/2 10/2/2 11/2/2
f 11/2/2 10/2/2 12/2/2
f 15/2/3 14/2/3 13/2/3
f 16/2/3 14/2/3 15/2/3
f 17/2/4 18/2/4 19/2/4
f 19/2/4 18/2/4 20/2/4
f 23/2/5 22/2/5 21/2/5
f 24/2/5 22/2/5 23/2/5
f 25/2/6 26/2/6 27/2/6
f 27/2/6 26/2/6 28/2/6
f 25/2/6 27/2/6 29/2/6
f 27/1/6 28/1/6 29/1/6
f 28/2/6 26/2/6 30/2/6
f 29/1/6 28/1/6 30/1/6
f 30/2/6 26/2/6 31/2/6
f 31/2/6 26/2/6 32/2/6
f 25/2/6 29/2/6 33/2/6
f 29/2/6 30/2/6 33/2/6
f 30/2/6 31/2/6 33/2/6
f 33/2/6 31/2/6 34/2/6
f 31/1/6 32/1/6 35/1/6
f 34/2/6 31/2/6 35/2/6
f 32/2/6 26/2/6 36/2/6
f 35/1/6 32/1/6 36/1/6
f 33/1/6 34/1/6 37/1/6
f 25/2/6 33/2/6 37/2/6
f 34/2/6 35/2/6 38/2/6
f 37/1/6 34/1/6 38/1/6
f 35/2/6 36/2/6 38/2/6
f 37/2/6 38/2/6 39/2/6
f 38/2/6 36/2/6 39/2/6
f 39/2/6 36/2/6 40/2/6
f 37/2/6 39/2/6 41/2/6
f 39/1/6 40/1/6 42/1/6
f 41/2/6 39/2/6 42/2/6
f 42/1/6 40/1/6 43/1/6
f 40/2/6 36/2/6 44/2/6
f 43/1/6 40/1/6 44/1/6
f 42/1/6 43/1/6 45/1/6
f 37/2/6 41/2/6 45/2/6
f 41/1/6 42/1/6 45/1/6
f 43/2/6 44/2/6 46/2/6
f 45/1/6 43/1/6 46/1/6
f 37/2/6 45/2/6 47/2/6
f 45/2/6 46/2/6 47/2/6
f 47/2/6 46/2/6 48/2/6
f 37/2/6 47/2/6 49/2/6
f 47/1/6 48/1/6 49/1/6
f 48/2/6 46/2/6 50/2/6
f 49/1/6 48/1/6 50/1/6
f 44/2/6 36/2/6 51/2/6
f 50/2/6 46/2/6 51/2/6
f 46/2/6 44/2/6 51/2/6
f 51/2/6 36/2/6 52/2/6
f 49/2/6 50/2/6 53/2/6
f 50/2/6 51/2/6 53/2/6
f 51/1/6 52/1/6 53/1/6
f 52/2/6 36/2/6 54/2/6
f 53/1/6 52/1/6 54/1/6
f 54/2/6 36/2/6 55/2/6
f 53/2/6 54/2/6 56/2/6
f 54/1/6 55/1/6 56/1/6
f 55/2/6 36/2/6 57/2/6
f 56/1/6 55/1/6 57/1/6
f 57/2/6 36/2/6 58/2/6
f 56/2/6 57/2/6 59/2/6
f 57/1/6 58/1/6 59/1/6
f 58/2/6 36/2/6 60/2/6
f 59/1/6 58/1/6 60/1/6
f 25/2/6 37/2/6 61/2/6
f 49/2/6 53/2/6 61/2/6
f 59/2/6 60/2/6 61/2/6
f 56/2/6 59/2/6 61/2/6
f 53/2/6 56/2/6 61/2/6
f 37/2/6 49/2/6 61/2/6
f 61/2/6 60/2/6 62/2/6
f 62/2/6 60/2/6 63/2/6
f 63/2/6 60/2/6 64/2/6
f 62/2/6 63/2/6 65/2/6
f 63/1/6 64/1/6 65/1/6
f 64/2/6 60/2/6 66/2/6
f 65/1/6 64/1/6 66/1/6
f 61/1/6 62/1/6 67/1/6
f 62/2/6 65/2/6 68/2/6
f 67/1/6 62/1/6 68/1/6
f 65/2/6 66/2/6 68/2/6
f 60/2/6 36/2/6 69/2/6
f 68/2/6 66/2/6 69/2/6
f 67/2/6 68/2/6 69/2/6
f 36/2/6 26/2/6 69/2/6
f 66/2/6 60/2/6 69/2/6
f 69/2/6 26/2/6 70/2/6
f 67/2/6 69/2/6 71/2/6
f 71/2/6 69/2/6 72/2/6
f 69/1/6 70/1/6 73/1/6
f 72/2/6 69/2/6 73/2/6
f 70/2/6 26/2/6 74/2/6
f 73/1/6 70/1/6 74/1/6
f 72/2/6 73/2/6 75/2/6
f 74/2/6 26/2/6 75/2/6
f 73/2/6 74/2/6 75/2/6
f 75/2/6 26/2/6 76/2/6
f 72/2/6 75/2/6 77/2/6
f 77/2/6 75/2/6 78/2/6
f 67/2/6 71/2/6 79/2/6
f 71/1/6 72/1/6 80/1/6
f 79/2/6 71/2/6 80/2/6
f 72/2/6 77/2/6 81/2/6
f 80/1/6 72/1/6 81/1/6
f 78/2/6 75/2/6 82/2/6
f 75/1/6 76/1/6 82/1/6
f 76/2/6 26/2/6 83/2/6
f 82/1/6 76/1/6 83/1/6
f 81/2/6 77/2/6 84/2/6
f 80/2/6 81/2/6 84/2/6
f 77/1/6 78/1/6 84/1/6
f 78/2/6 82/2/6 85/2/6
f 84/1/6 78/1/6 85/1/6
f 82/2/6 83/2/6 85/2/6
f 85/2/6 83/2/6 86/2/6
f 67/2/6 79/2/6 87/2/6
f 79/1/6 80/1/6 87/1/6
f 80/2/6 84/2/6 88/2/6
f 87/1/6 80/1/6 88/1/6
f 84/2/6 85/2/6 88/2/6
f 85/1/6 86/1/6 89/1/6
f 88/2/6 85/2/6 89/2/6
f 86/2/6 83/2/6 90/2/6
f 89/1/6 86/1/6 90/1/6
f 88/2/6 89/2/6 91/2/6
f 87/2/6 88/2/6 91/2/6
f 89/2/6 90/2/6 91/2/6
f 91/2/6 90/2/6 92/2/6
f 87/2/6 91/2/6 93/2/6
f 91/1/6 92/1/6 93/1/6
f 92/2/6 90/2/6 94/2/6
f 93/1/6 92/1/6 94/1/6
f 94/2/6 90/2/6 95/2/6
f 94/1/6 95/1/6 96/1/6
f 95/2/6 90/2/6 97/2/6
f 96/1/6 95/1/6 97/1/6
f 94/1/6 96/1/6 98/1/6
f 96/2/6 97/2/6 98/2/6
f 97/2/6 90/2/6 99/2/6
f 98/2/6 97/2/6 99/2/6
f 87/2/6 93/2/6 100/2/6
f 93/2/6 94/2/6 100/2/6
f 98/1/6 99/1/6 101/1/6
f 100/2/6 94/2/6 101/2/6
f 94/1/6 98/1/6 101/1/6
f 101/1/6 99/1/6 102/1/6
f 87/2/6 100/2/6 103/2/6
f 100/1/6 101/1/6 103/1/6
f 101/2/6 102/2/6 104/2/6
f 103/1/6 101/1/6 104/1/6
f 102/1/6 99/1/6 105/1/6
f 104/2/6 102/2/6 105/2/6
f 99/2/6 90/2/6 106/2/6
f 105/1/6 99/1/6 106/1/6
f 67/2/6 87/2/6 107/2/6
f 104/2/6 105/2/6 107/2/6
f 105/2/6 106/2/6 107/2/6
f 87/2/6 103/2/6 107/2/6
f 103/2/6 104/2/6 107/2/6
f 83/2/6 26/2/6 108/2/6
f 107/2/6 106/2/6 108/2/6
f 90/2/6 83/2/6 108/2/6
f 106/2/6 90/2/6 108/2/6
