# MagicaVoxel @ Ephtracy

# group
g FloorTileCement2

# material
mtllib FloorTileCement2.mtl
usemtl palette

# normals
vn -1 0 0
vn 1 0 0
vn 0 0 1
vn 0 0 -1
vn 0 -1 0
vn 0 1 0

# texcoords
vt 0.974609 0.5
vt 0.982422 0.5

# verts
v -30 0 30
v -30 0 -30
v -30 2 2
v -30 2 -2
v -30 2 -23
v -30 2 -30
v -30 3 30
v -30 3 2
v -30 3 -2
v -30 3 -23
v -30 3 -30
v 30 0 30
v 30 0 -30
v 30 3 30
v 30 3 -30
v -30 0 30
v -30 3 30
v 30 0 30
v 30 3 30
v -30 0 -30
v -30 2 -30
v -30 3 -30
v -23 2 -30
v -23 3 -30
v 30 0 -30
v 30 3 -30
v -30 0 30
v 30 0 30
v -30 0 -30
v 30 0 -30
v -30 3 30
v 30 3 30
v -11 3 25
v -9 3 25
v -11 3 24
v -9 3 24
v 18 3 24
v 19 3 24
v -21 3 22
v -20 3 22
v 18 3 22
v 19 3 22
v -21 3 21
v -20 3 21
v -2 3 19
v 0 3 19
v -3 3 18
v -2 3 18
v -1 3 18
v 0 3 18
v -3 3 17
v -1 3 17
v -18 3 13
v -17 3 13
v -18 3 12
v -17 3 12
v 11 3 12
v 12 3 12
v 11 3 10
v 12 3 10
v 13 3 10
v 12 3 8
v 13 3 8
v 14 3 8
v 13 3 6
v 14 3 6
v -30 3 2
v -28 3 2
v -7 3 1
v -6 3 1
v -7 3 -0
v -6 3 -0
v -30 3 -2
v -28 3 -2
v 22 3 -6
v 23 3 -6
v -19 3 -7
v -18 3 -7
v 22 3 -7
v 23 3 -7
v -19 3 -10
v -18 3 -10
v 25 3 -10
v 26 3 -10
v 6 3 -13
v 7 3 -13
v 25 3 -14
v 26 3 -14
v -20 3 -15
v -19 3 -15
v 6 3 -16
v 7 3 -16
v 8 3 -16
v -20 3 -20
v -19 3 -20
v 7 3 -20
v 8 3 -20
v -30 3 -23
v -23 3 -23
v -8 3 -23
v -7 3 -23
v -8 3 -24
v -7 3 -24
v -8 3 -27
v -7 3 -27
v -6 3 -27
v -5 3 -27
v -8 3 -28
v -7 3 -28
v -6 3 -28
v -5 3 -28
v -30 3 -30
v -23 3 -30
v 30 3 -30

# faces
f 3/2/1 2/2/1 1/2/1
f 4/2/1 2/2/1 3/2/1
f 5/2/1 2/2/1 4/2/1
f 6/2/1 2/2/1 5/2/1
f 7/2/1 3/2/1 1/2/1
f 8/1/1 4/1/1 3/1/1
f 8/2/1 3/2/1 7/2/1
f 9/2/1 5/2/1 4/2/1
f 9/1/1 4/1/1 8/1/1
f 10/1/1 6/1/1 5/1/1
f 10/2/1 5/2/1 9/2/1
f 11/1/1 6/1/1 10/1/1
f 12/2/2 13/2/2 14/2/2
f 14/2/2 13/2/2 15/2/2
f 18/2/3 17/2/3 16/2/3
f 19/2/3 17/2/3 18/2/3
f 20/2/4 21/2/4 23/2/4
f 21/1/4 22/1/4 23/1/4
f 23/1/4 22/1/4 24/1/4
f 20/2/4 23/2/4 25/2/4
f 23/2/4 24/2/4 25/2/4
f 25/2/4 24/2/4 26/2/4
f 29/2/5 28/2/5 27/2/5
f 30/2/5 28/2/5 29/2/5
f 31/2/6 32/2/6 33/2/6
f 33/2/6 32/2/6 34/2/6
f 31/2/6 33/2/6 35/2/6
f 33/1/6 34/1/6 35/1/6
f 34/2/6 32/2/6 36/2/6
f 35/1/6 34/1/6 36/1/6
f 36/2/6 32/2/6 37/2/6
f 37/2/6 32/2/6 38/2/6
f 31/2/6 35/2/6 39/2/6
f 35/2/6 36/2/6 39/2/6
f 36/2/6 37/2/6 39/2/6
f 39/2/6 37/2/6 40/2/6
f 37/1/6 38/1/6 41/1/6
f 40/2/6 37/2/6 41/2/6
f 38/2/6 32/2/6 42/2/6
f 41/1/6 38/1/6 42/1/6
f 39/1/6 40/1/6 43/1/6
f 31/2/6 39/2/6 43/2/6
f 40/2/6 41/2/6 44/2/6
f 43/1/6 40/1/6 44/1/6
f 41/2/6 42/2/6 44/2/6
f 43/2/6 44/2/6 45/2/6
f 44/2/6 42/2/6 45/2/6
f 45/2/6 42/2/6 46/2/6
f 43/2/6 45/2/6 47/2/6
f 45/1/6 46/1/6 48/1/6
f 47/2/6 45/2/6 48/2/6
f 48/1/6 46/1/6 49/1/6
f 46/2/6 42/2/6 50/2/6
f 49/1/6 46/1/6 50/1/6
f 48/1/6 49/1/6 51/1/6
f 43/2/6 47/2/6 51/2/6
f 47/1/6 48/1/6 51/1/6
f 49/2/6 50/2/6 52/2/6
f 51/1/6 49/1/6 52/1/6
f 43/2/6 51/2/6 53/2/6
f 51/2/6 52/2/6 53/2/6
f 53/2/6 52/2/6 54/2/6
f 43/2/6 53/2/6 55/2/6
f 53/1/6 54/1/6 55/1/6
f 54/2/6 52/2/6 56/2/6
f 55/1/6 54/1/6 56/1/6
f 50/2/6 42/2/6 57/2/6
f 56/2/6 52/2/6 57/2/6
f 52/2/6 50/2/6 57/2/6
f 57/2/6 42/2/6 58/2/6
f 55/2/6 56/2/6 59/2/6
f 56/2/6 57/2/6 59/2/6
f 57/1/6 58/1/6 59/1/6
f 58/2/6 42/2/6 60/2/6
f 59/1/6 58/1/6 60/1/6
f 60/2/6 42/2/6 61/2/6
f 59/2/6 60/2/6 62/2/6
f 60/1/6 61/1/6 62/1/6
f 61/2/6 42/2/6 63/2/6
f 62/1/6 61/1/6 63/1/6
f 63/2/6 42/2/6 64/2/6
f 62/2/6 63/2/6 65/2/6
f 63/1/6 64/1/6 65/1/6
f 64/2/6 42/2/6 66/2/6
f 65/1/6 64/1/6 66/1/6
f 31/2/6 43/2/6 67/2/6
f 55/2/6 59/2/6 67/2/6
f 65/2/6 66/2/6 67/2/6
f 62/2/6 65/2/6 67/2/6
f 59/2/6 62/2/6 67/2/6
f 43/2/6 55/2/6 67/2/6
f 67/2/6 66/2/6 68/2/6
f 68/2/6 66/2/6 69/2/6
f 69/2/6 66/2/6 70/2/6
f 68/2/6 69/2/6 71/2/6
f 69/1/6 70/1/6 71/1/6
f 70/2/6 66/2/6 72/2/6
f 71/1/6 70/1/6 72/1/6
f 67/1/6 68/1/6 73/1/6
f 68/2/6 71/2/6 74/2/6
f 73/1/6 68/1/6 74/1/6
f 71/2/6 72/2/6 74/2/6
f 66/2/6 42/2/6 75/2/6
f 74/2/6 72/2/6 75/2/6
f 73/2/6 74/2/6 75/2/6
f 42/2/6 32/2/6 75/2/6
f 72/2/6 66/2/6 75/2/6
f 75/2/6 32/2/6 76/2/6
f 73/2/6 75/2/6 77/2/6
f 77/2/6 75/2/6 78/2/6
f 75/1/6 76/1/6 79/1/6
f 78/2/6 75/2/6 79/2/6
f 76/2/6 32/2/6 80/2/6
f 79/1/6 76/1/6 80/1/6
f 77/1/6 78/1/6 81/1/6
f 73/2/6 77/2/6 81/2/6
f 78/2/6 79/2/6 82/2/6
f 81/1/6 78/1/6 82/1/6
f 79/2/6 80/2/6 82/2/6
f 80/2/6 32/2/6 83/2/6
f 82/2/6 80/2/6 83/2/6
f 83/2/6 32/2/6 84/2/6
f 81/2/6 82/2/6 85/2/6
f 82/2/6 83/2/6 85/2/6
f 85/2/6 83/2/6 86/2/6
f 83/1/6 84/1/6 87/1/6
f 86/2/6 83/2/6 87/2/6
f 84/2/6 32/2/6 88/2/6
f 87/1/6 84/1/6 88/1/6
f 73/2/6 81/2/6 89/2/6
f 81/2/6 85/2/6 89/2/6
f 89/2/6 85/2/6 90/2/6
f 85/1/6 86/1/6 91/1/6
f 90/2/6 85/2/6 91/2/6
f 86/2/6 87/2/6 92/2/6
f 91/1/6 86/1/6 92/1/6
f 87/2/6 88/2/6 92/2/6
f 92/2/6 88/2/6 93/2/6
f 89/1/6 90/1/6 94/1/6
f 73/2/6 89/2/6 94/2/6
f 90/2/6 91/2/6 95/2/6
f 94/1/6 90/1/6 95/1/6
f 91/2/6 92/2/6 95/2/6
f 92/1/6 93/1/6 96/1/6
f 95/2/6 92/2/6 96/2/6
f 93/2/6 88/2/6 97/2/6
f 96/1/6 93/1/6 97/1/6
f 73/2/6 94/2/6 98/2/6
f 95/2/6 96/2/6 98/2/6
f 96/2/6 97/2/6 98/2/6
f 94/2/6 95/2/6 98/2/6
f 98/2/6 97/2/6 99/2/6
f 99/2/6 97/2/6 100/2/6
f 100/2/6 97/2/6 101/2/6
f 99/2/6 100/2/6 102/2/6
f 100/1/6 101/1/6 102/1/6
f 101/2/6 97/2/6 103/2/6
f 102/1/6 101/1/6 103/1/6
f 99/2/6 102/2/6 104/2/6
f 102/2/6 103/2/6 104/2/6
f 103/2/6 97/2/6 105/2/6
f 104/2/6 103/2/6 105/2/6
f 105/2/6 97/2/6 106/2/6
f 106/2/6 97/2/6 107/2/6
f 99/2/6 104/2/6 108/2/6
f 104/1/6 105/1/6 108/1/6
f 105/2/6 106/2/6 109/2/6
f 108/1/6 105/1/6 109/1/6
f 106/1/6 107/1/6 110/1/6
f 109/2/6 106/2/6 110/2/6
f 107/2/6 97/2/6 111/2/6
f 110/1/6 107/1/6 111/1/6
f 98/1/6 99/1/6 112/1/6
f 109/2/6 110/2/6 113/2/6
f 112/1/6 99/1/6 113/1/6
f 108/2/6 109/2/6 113/2/6
f 110/2/6 111/2/6 113/2/6
f 99/2/6 108/2/6 113/2/6
f 88/2/6 32/2/6 114/2/6
f 113/2/6 111/2/6 114/2/6
f 97/2/6 88/2/6 114/2/6
f 111/2/6 97/2/6 114/2/6
