# MagicaVoxel @ Ephtracy

# group
o 

# material
mtllib lobbyFloorCap2.mtl
usemtl palette

# normals
vn -1 0 0
vn 1 0 0
vn 0 0 1
vn 0 0 -1
vn 0 -1 0
vn 0 1 0

# texcoords
vt 0.408203 0.5
vt 0.412109 0.5
vt 0.416016 0.5
vt 0.533203 0.5
vt 0.537109 0.5

# verts
v 0 2 0
v 0 2 -0.8
v 0 2.1 0
v 0 2.1 -0.8
v 0.8 2 0
v 0.8 2 -0.1
v 0.8 2 -0.2
v 0.8 2 -0.5
v 0.8 2 -0.6
v 0.8 2 -0.7
v 0.8 2 -0.8
v 0.8 2.1 0
v 0.8 2.1 -0.1
v 0.8 2.1 -0.2
v 0.8 2.1 -0.5
v 0.8 2.1 -0.6
v 0.8 2.1 -0.7
v 0.8 2.1 -0.8
v 0 2 0
v 0 2.1 0
v 0.1 2 0
v 0.1 2.1 0
v 0.2 2 0
v 0.2 2.1 0
v 0.3 2 0
v 0.3 2.1 0
v 0.6 2 0
v 0.6 2.1 0
v 0.7 2 0
v 0.7 2.1 0
v 0.8 2 0
v 0.8 2.1 0
v 0 2 -0.8
v 0 2.1 -0.8
v 0.8 2 -0.8
v 0.8 2.1 -0.8
v 0 2 0
v 0.1 2 0
v 0.2 2 0
v 0.3 2 0
v 0.6 2 0
v 0.7 2 0
v 0.8 2 0
v 0.7 2 -0.1
v 0.8 2 -0.1
v 0.6 2 -0.2
v 0.8 2 -0.2
v 0.3 2 -0.5
v 0.8 2 -0.5
v 0.2 2 -0.6
v 0.8 2 -0.6
v 0.1 2 -0.7
v 0.8 2 -0.7
v 0 2 -0.8
v 0.8 2 -0.8
v 0 2.1 0
v 0.1 2.1 0
v 0.2 2.1 0
v 0.3 2.1 0
v 0.6 2.1 0
v 0.7 2.1 0
v 0.8 2.1 0
v 0.7 2.1 -0.1
v 0.8 2.1 -0.1
v 0.6 2.1 -0.2
v 0.8 2.1 -0.2
v 0.3 2.1 -0.5
v 0.8 2.1 -0.5
v 0.2 2.1 -0.6
v 0.8 2.1 -0.6
v 0.1 2.1 -0.7
v 0.8 2.1 -0.7
v 0 2.1 -0.8
v 0.8 2.1 -0.8

# faces
f 3/4/1 2/4/1 1/4/1
f 4/4/1 2/4/1 3/4/1
f 5/2/2 6/2/2 12/2/2
f 6/3/2 7/3/2 13/3/2
f 12/2/2 6/2/2 13/2/2
f 7/1/2 8/1/2 14/1/2
f 13/3/2 7/3/2 14/3/2
f 8/3/2 9/3/2 15/3/2
f 14/1/2 8/1/2 15/1/2
f 9/5/2 10/5/2 16/5/2
f 15/3/2 9/3/2 16/3/2
f 10/4/2 11/4/2 17/4/2
f 16/5/2 10/5/2 17/5/2
f 17/4/2 11/4/2 18/4/2
f 21/4/3 20/4/3 19/4/3
f 22/4/3 20/4/3 21/4/3
f 23/5/3 22/5/3 21/5/3
f 24/5/3 22/5/3 23/5/3
f 25/3/3 24/3/3 23/3/3
f 26/3/3 24/3/3 25/3/3
f 27/1/3 26/1/3 25/1/3
f 28/1/3 26/1/3 27/1/3
f 29/3/3 28/3/3 27/3/3
f 30/3/3 28/3/3 29/3/3
f 31/2/3 30/2/3 29/2/3
f 32/2/3 30/2/3 31/2/3
f 33/4/4 34/4/4 35/4/4
f 35/4/4 34/4/4 36/4/4
f 44/3/5 42/3/5 41/3/5
f 44/2/5 43/2/5 42/2/5
f 45/2/5 43/2/5 44/2/5
f 46/1/5 41/1/5 40/1/5
f 46/3/5 44/3/5 41/3/5
f 46/3/5 45/3/5 44/3/5
f 47/3/5 45/3/5 46/3/5
f 48/3/5 40/3/5 39/3/5
f 48/1/5 46/1/5 40/1/5
f 48/1/5 47/1/5 46/1/5
f 49/1/5 47/1/5 48/1/5
f 50/5/5 39/5/5 38/5/5
f 50/3/5 48/3/5 39/3/5
f 50/3/5 49/3/5 48/3/5
f 51/3/5 49/3/5 50/3/5
f 52/4/5 38/4/5 37/4/5
f 52/5/5 50/5/5 38/5/5
f 52/5/5 51/5/5 50/5/5
f 53/5/5 51/5/5 52/5/5
f 54/4/5 52/4/5 37/4/5
f 54/4/5 53/4/5 52/4/5
f 55/4/5 53/4/5 54/4/5
f 60/3/6 61/3/6 63/3/6
f 61/2/6 62/2/6 63/2/6
f 63/2/6 62/2/6 64/2/6
f 59/1/6 60/1/6 65/1/6
f 60/3/6 63/3/6 65/3/6
f 63/3/6 64/3/6 65/3/6
f 65/3/6 64/3/6 66/3/6
f 58/3/6 59/3/6 67/3/6
f 59/1/6 65/1/6 67/1/6
f 65/1/6 66/1/6 67/1/6
f 67/1/6 66/1/6 68/1/6
f 57/5/6 58/5/6 69/5/6
f 58/3/6 67/3/6 69/3/6
f 67/3/6 68/3/6 69/3/6
f 69/3/6 68/3/6 70/3/6
f 56/4/6 57/4/6 71/4/6
f 57/5/6 69/5/6 71/5/6
f 69/5/6 70/5/6 71/5/6
f 71/5/6 70/5/6 72/5/6
f 56/4/6 71/4/6 73/4/6
f 71/4/6 72/4/6 73/4/6
f 73/4/6 72/4/6 74/4/6
