# MagicaVoxel @ Ephtracy

# group
g WoodFloor

# material
mtllib WoodFloor.mtl
usemtl palette

# normals
vn -1 0 0
vn 1 0 0
vn 0 0 1
vn 0 0 -1
vn 0 -1 0
vn 0 1 0

# texcoords
vt 0.279297 0.5
vt 0.345703 0.5
vt 0.361328 0.5
vt 0.466797 0.5
vt 0.939453 0.5
vt 0.970703 0.5
vt 0.982422 0.5

# verts
v -30 0 30
v -30 0 -30
v -30 1 30
v -30 1 29
v -30 2 30
v -30 2 29
v -30 2 -30
v -30 3 30
v -30 3 -30
v 30 0 30
v 30 0 -30
v 30 1 29
v 30 1 -29
v 30 2 30
v 30 2 29
v 30 2 -29
v 30 2 -30
v 30 3 30
v 30 3 -30
v -30 0 30
v -30 1 30
v -30 2 30
v -30 3 30
v 29 1 30
v 29 2 30
v 30 0 30
v 30 2 30
v 30 3 30
v -30 0 -30
v -30 2 -30
v -30 3 -30
v 18 0 -30
v 18 2 -30
v 20 0 -30
v 20 2 -30
v 30 0 -30
v 30 2 -30
v 30 3 -30
v -30 0 30
v 30 0 30
v 18 0 -20
v 20 0 -20
v -30 0 -30
v 18 0 -30
v 20 0 -30
v 30 0 -30
v -30 3 30
v 30 3 30
v -12 3 26
v -7 3 26
v -23 3 23
v -22 3 23
v -12 3 23
v -7 3 23
v -23 3 20
v -22 3 20
v 9 3 20
v 13 3 20
v 9 3 19
v 13 3 19
v 23 3 18
v 25 3 18
v 23 3 15
v 25 3 15
v -27 3 14
v -25 3 14
v -27 3 12
v -25 3 12
v -13 3 12
v -10 3 12
v -13 3 10
v -10 3 10
v 8 3 9
v 13 3 9
v 8 3 7
v 13 3 7
v 15 3 -0
v 19 3 -0
v 15 3 -2
v 19 3 -2
v -26 3 -3
v -24 3 -3
v -26 3 -4
v -24 3 -4
v -1 3 -5
v 1 3 -5
v 26 3 -5
v 29 3 -5
v -1 3 -6
v 1 3 -6
v -26 3 -8
v -24 3 -8
v 26 3 -8
v 29 3 -8
v -11 3 -10
v -10 3 -10
v -11 3 -11
v -10 3 -11
v -22 3 -14
v -21 3 -14
v 17 3 -14
v 19 3 -14
v -22 3 -15
v -21 3 -15
v 17 3 -18
v 19 3 -18
v -11 3 -19
v -10 3 -19
v -2 3 -20
v 0 3 -20
v -11 3 -22
v -10 3 -22
v 7 3 -22
v 13 3 -22
v -25 3 -23
v -21 3 -23
v -2 3 -23
v 0 3 -23
v 7 3 -24
v 13 3 -24
v -11 3 -27
v -10 3 -27
v -25 3 -28
v -21 3 -28
v -30 3 -30
v 30 3 -30

# faces
f 3/4/1 2/4/1 1/4/1
f 4/4/1 2/4/1 3/4/1
f 5/7/1 4/7/1 3/7/1
f 6/4/1 2/4/1 4/4/1
f 6/7/1 4/7/1 5/7/1
f 7/4/1 2/4/1 6/4/1
f 8/1/1 6/1/1 5/1/1
f 8/1/1 7/1/1 6/1/1
f 9/1/1 7/1/1 8/1/1
f 10/4/2 11/4/2 12/4/2
f 12/4/2 11/4/2 13/4/2
f 10/4/2 12/4/2 14/4/2
f 12/5/2 13/5/2 15/5/2
f 14/4/2 12/4/2 15/4/2
f 13/4/2 11/4/2 16/4/2
f 15/5/2 13/5/2 16/5/2
f 16/4/2 11/4/2 17/4/2
f 14/1/2 15/1/2 18/1/2
f 15/1/2 16/1/2 18/1/2
f 16/1/2 17/1/2 18/1/2
f 18/1/2 17/1/2 19/1/2
f 24/4/3 21/4/3 20/4/3
f 24/7/3 22/7/3 21/7/3
f 25/1/3 23/1/3 22/1/3
f 25/7/3 22/7/3 24/7/3
f 26/4/3 24/4/3 20/4/3
f 26/4/3 25/4/3 24/4/3
f 27/1/3 23/1/3 25/1/3
f 27/4/3 25/4/3 26/4/3
f 28/1/3 23/1/3 27/1/3
f 29/4/4 30/4/4 32/4/4
f 30/1/4 31/1/4 33/1/4
f 32/4/4 30/4/4 33/4/4
f 32/1/4 33/1/4 34/1/4
f 33/1/4 31/1/4 35/1/4
f 34/1/4 33/1/4 35/1/4
f 34/4/4 35/4/4 36/4/4
f 35/1/4 31/1/4 37/1/4
f 36/4/4 35/4/4 37/4/4
f 37/1/4 31/1/4 38/1/4
f 41/4/5 40/4/5 39/4/5
f 42/4/5 40/4/5 41/4/5
f 43/4/5 41/4/5 39/4/5
f 44/1/5 42/1/5 41/1/5
f 44/4/5 41/4/5 43/4/5
f 45/4/5 40/4/5 42/4/5
f 45/1/5 42/1/5 44/1/5
f 46/4/5 40/4/5 45/4/5
f 47/1/6 48/1/6 49/1/6
f 49/1/6 48/1/6 50/1/6
f 47/1/6 49/1/6 51/1/6
f 51/1/6 49/1/6 52/1/6
f 49/2/6 50/2/6 53/2/6
f 52/1/6 49/1/6 53/1/6
f 50/1/6 48/1/6 54/1/6
f 53/2/6 50/2/6 54/2/6
f 51/2/6 52/2/6 55/2/6
f 47/1/6 51/1/6 55/1/6
f 52/1/6 53/1/6 56/1/6
f 55/2/6 52/2/6 56/2/6
f 53/1/6 54/1/6 56/1/6
f 54/1/6 48/1/6 57/1/6
f 56/1/6 54/1/6 57/1/6
f 57/1/6 48/1/6 58/1/6
f 55/1/6 56/1/6 59/1/6
f 56/1/6 57/1/6 59/1/6
f 57/2/6 58/2/6 59/2/6
f 58/1/6 48/1/6 60/1/6
f 59/2/6 58/2/6 60/2/6
f 59/1/6 60/1/6 61/1/6
f 60/1/6 48/1/6 61/1/6
f 61/1/6 48/1/6 62/1/6
f 59/1/6 61/1/6 63/1/6
f 61/2/6 62/2/6 63/2/6
f 62/1/6 48/1/6 64/1/6
f 63/2/6 62/2/6 64/2/6
f 47/1/6 55/1/6 65/1/6
f 55/1/6 59/1/6 65/1/6
f 63/1/6 64/1/6 65/1/6
f 59/1/6 63/1/6 65/1/6
f 65/1/6 64/1/6 66/1/6
f 47/1/6 65/1/6 67/1/6
f 65/3/6 66/3/6 67/3/6
f 66/1/6 64/1/6 68/1/6
f 67/3/6 66/3/6 68/3/6
f 68/1/6 64/1/6 69/1/6
f 69/1/6 64/1/6 70/1/6
f 67/1/6 68/1/6 71/1/6
f 68/1/6 69/1/6 71/1/6
f 69/3/6 70/3/6 71/3/6
f 70/1/6 64/1/6 72/1/6
f 71/3/6 70/3/6 72/3/6
f 71/1/6 72/1/6 73/1/6
f 72/1/6 64/1/6 73/1/6
f 73/1/6 64/1/6 74/1/6
f 71/1/6 73/1/6 75/1/6
f 73/3/6 74/3/6 75/3/6
f 74/1/6 64/1/6 76/1/6
f 75/3/6 74/3/6 76/3/6
f 75/1/6 76/1/6 77/1/6
f 76/1/6 64/1/6 77/1/6
f 77/1/6 64/1/6 78/1/6
f 75/1/6 77/1/6 79/1/6
f 77/2/6 78/2/6 79/2/6
f 78/1/6 64/1/6 80/1/6
f 79/2/6 78/2/6 80/2/6
f 67/1/6 71/1/6 81/1/6
f 71/1/6 75/1/6 81/1/6
f 79/1/6 80/1/6 81/1/6
f 75/1/6 79/1/6 81/1/6
f 81/1/6 80/1/6 82/1/6
f 67/1/6 81/1/6 83/1/6
f 81/2/6 82/2/6 83/2/6
f 82/1/6 80/1/6 84/1/6
f 83/2/6 82/2/6 84/2/6
f 84/1/6 80/1/6 85/1/6
f 85/1/6 80/1/6 86/1/6
f 64/1/6 48/1/6 87/1/6
f 86/1/6 80/1/6 87/1/6
f 80/1/6 64/1/6 87/1/6
f 87/1/6 48/1/6 88/1/6
f 85/2/6 86/2/6 89/2/6
f 84/1/6 85/1/6 89/1/6
f 86/1/6 87/1/6 90/1/6
f 89/2/6 86/2/6 90/2/6
f 67/1/6 83/1/6 91/1/6
f 83/3/6 84/3/6 91/3/6
f 89/1/6 90/1/6 92/1/6
f 91/3/6 84/3/6 92/3/6
f 84/1/6 89/1/6 92/1/6
f 87/2/6 88/2/6 93/2/6
f 92/1/6 90/1/6 93/1/6
f 90/1/6 87/1/6 93/1/6
f 88/1/6 48/1/6 94/1/6
f 93/2/6 88/2/6 94/2/6
f 92/1/6 93/1/6 95/1/6
f 91/1/6 92/1/6 95/1/6
f 93/1/6 94/1/6 95/1/6
f 95/1/6 94/1/6 96/1/6
f 91/1/6 95/1/6 97/1/6
f 95/2/6 96/2/6 97/2/6
f 96/1/6 94/1/6 98/1/6
f 97/2/6 96/2/6 98/2/6
f 91/1/6 97/1/6 99/1/6
f 97/1/6 98/1/6 99/1/6
f 99/1/6 98/1/6 100/1/6
f 98/1/6 94/1/6 101/1/6
f 100/1/6 98/1/6 101/1/6
f 101/1/6 94/1/6 102/1/6
f 99/2/6 100/2/6 103/2/6
f 91/1/6 99/1/6 103/1/6
f 100/1/6 101/1/6 104/1/6
f 103/2/6 100/2/6 104/2/6
f 101/3/6 102/3/6 105/3/6
f 104/1/6 101/1/6 105/1/6
f 103/1/6 104/1/6 105/1/6
f 102/1/6 94/1/6 106/1/6
f 105/3/6 102/3/6 106/3/6
f 103/1/6 105/1/6 107/1/6
f 105/1/6 106/1/6 107/1/6
f 107/1/6 106/1/6 108/1/6
f 108/1/6 106/1/6 109/1/6
f 109/1/6 106/1/6 110/1/6
f 103/1/6 107/1/6 111/1/6
f 107/3/6 108/3/6 111/3/6
f 108/1/6 109/1/6 112/1/6
f 111/3/6 108/3/6 112/3/6
f 110/1/6 106/1/6 113/1/6
f 113/1/6 106/1/6 114/1/6
f 91/1/6 103/1/6 115/1/6
f 103/1/6 111/1/6 115/1/6
f 115/1/6 111/1/6 116/1/6
f 112/1/6 109/1/6 117/1/6
f 109/3/6 110/3/6 117/3/6
f 110/1/6 113/1/6 118/1/6
f 117/3/6 110/3/6 118/3/6
f 113/2/6 114/2/6 119/2/6
f 118/1/6 113/1/6 119/1/6
f 117/1/6 118/1/6 119/1/6
f 114/1/6 106/1/6 120/1/6
f 119/2/6 114/2/6 120/2/6
f 116/1/6 111/1/6 121/1/6
f 111/2/6 112/2/6 121/2/6
f 117/1/6 119/1/6 122/1/6
f 121/2/6 112/2/6 122/2/6
f 119/1/6 120/1/6 122/1/6
f 112/1/6 117/1/6 122/1/6
f 115/2/6 116/2/6 123/2/6
f 91/1/6 115/1/6 123/1/6
f 116/1/6 121/1/6 124/1/6
f 123/2/6 116/2/6 124/2/6
f 121/1/6 122/1/6 124/1/6
f 47/1/6 67/1/6 125/1/6
f 67/1/6 91/1/6 125/1/6
f 123/1/6 124/1/6 125/1/6
f 91/1/6 123/1/6 125/1/6
f 94/1/6 48/1/6 126/1/6
f 125/1/6 124/1/6 126/1/6
f 124/1/6 122/1/6 126/1/6
f 120/1/6 106/1/6 126/1/6
f 106/1/6 94/1/6 126/1/6
f 122/1/6 120/1/6 126/1/6
