# MagicaVoxel @ Ephtracy

# group
g woodfloorPlank

# material
mtllib woodfloorPlank.mtl
usemtl palette

# normals
vn -1 0 0
vn 1 0 0
vn 0 0 1
vn 0 0 -1
vn 0 -1 0
vn 0 1 0

# texcoords
vt 0.224609 0.5
vt 0.228516 0.5
vt 0.232422 0.5

# verts
v -8 0 2
v -8 0 -0
v -8 0 -1
v -8 0 -2
v -8 1 2
v -8 1 -0
v -8 1 -1
v -8 1 -2
v 8 0 2
v 8 0 1
v 8 0 -2
v 8 1 2
v 8 1 1
v 8 1 -2
v -8 0 2
v -8 1 2
v -3 0 2
v -3 1 2
v 8 0 2
v 8 1 2
v -8 0 -2
v -8 1 -2
v 8 0 -2
v 8 1 -2
v -8 0 2
v -3 0 2
v 8 0 2
v -3 0 1
v 8 0 1
v -8 0 -0
v 7 0 -0
v -8 0 -1
v 7 0 -1
v -8 0 -2
v 8 0 -2
v -8 1 2
v -3 1 2
v 8 1 2
v -3 1 1
v 8 1 1
v -8 1 -0
v 7 1 -0
v -8 1 -1
v 7 1 -1
v -8 1 -2
v 8 1 -2

# faces
f 5/1/1 2/1/1 1/1/1
f 6/2/1 3/2/1 2/2/1
f 6/1/1 2/1/1 5/1/1
f 7/1/1 4/1/1 3/1/1
f 7/2/1 3/2/1 6/2/1
f 8/1/1 4/1/1 7/1/1
f 9/3/2 10/3/2 12/3/2
f 10/1/2 11/1/2 13/1/2
f 12/3/2 10/3/2 13/3/2
f 13/1/2 11/1/2 14/1/2
f 17/1/3 16/1/3 15/1/3
f 18/1/3 16/1/3 17/1/3
f 19/3/3 18/3/3 17/3/3
f 20/3/3 18/3/3 19/3/3
f 21/1/4 22/1/4 23/1/4
f 23/1/4 22/1/4 24/1/4
f 28/1/5 26/1/5 25/1/5
f 28/3/5 27/3/5 26/3/5
f 29/3/5 27/3/5 28/3/5
f 30/1/5 28/1/5 25/1/5
f 30/1/5 29/1/5 28/1/5
f 31/1/5 29/1/5 30/1/5
f 32/2/5 31/2/5 30/2/5
f 33/1/5 29/1/5 31/1/5
f 33/2/5 31/2/5 32/2/5
f 34/1/5 33/1/5 32/1/5
f 35/1/5 29/1/5 33/1/5
f 35/1/5 33/1/5 34/1/5
f 36/1/6 37/1/6 39/1/6
f 37/3/6 38/3/6 39/3/6
f 39/3/6 38/3/6 40/3/6
f 36/1/6 39/1/6 41/1/6
f 39/1/6 40/1/6 41/1/6
f 41/1/6 40/1/6 42/1/6
f 41/2/6 42/2/6 43/2/6
f 42/1/6 40/1/6 44/1/6
f 43/2/6 42/2/6 44/2/6
f 43/1/6 44/1/6 45/1/6
f 44/1/6 40/1/6 46/1/6
f 45/1/6 44/1/6 46/1/6
