# MagicaVoxel @ Ephtracy

# group
g front Desk

# material
mtllib front Desk.mtl
usemtl palette

# normals
vn -1 0 0
vn 1 0 0
vn 0 0 1
vn 0 0 -1
vn 0 -1 0
vn 0 1 0

# texcoords
vt 0.224609 0.5
vt 0.228516 0.5
vt 0.232422 0.5

# verts
v -31 19 13
v -31 19 -13
v -31 20 13
v -31 20 -13
v -31 21 13
v -31 21 -13
v -28 0 10
v -28 0 -13
v -28 1 10
v -28 1 -13
v -28 2 10
v -28 2 -13
v -28 8 10
v -28 8 -13
v -28 9 10
v -28 9 -13
v -28 10 10
v -28 10 -13
v -28 16 10
v -28 16 -13
v -28 17 10
v -28 17 -13
v -28 19 10
v -28 19 -13
v 16 16 -2
v 16 16 -21
v 16 17 -2
v 16 17 -21
v 20 20 2
v 20 20 -21
v 20 21 2
v 20 21 -21
v 23 17 5
v 23 17 -21
v 23 20 5
v 23 20 -21
v 26 0 8
v 26 0 -21
v 26 1 8
v 26 1 -21
v 26 2 8
v 26 2 -21
v 26 8 8
v 26 8 -21
v 26 9 8
v 26 9 -21
v 26 10 8
v 26 10 -21
v 26 16 8
v 26 16 -21
v -26 0 8
v -26 0 -13
v -26 1 8
v -26 1 -13
v -26 2 8
v -26 2 -13
v -26 8 8
v -26 8 -13
v -26 9 8
v -26 9 -13
v -26 10 8
v -26 10 -13
v -26 16 8
v -26 16 -13
v -23 17 5
v -23 17 -13
v -23 20 5
v -23 20 -13
v -20 20 2
v -20 20 -13
v -20 21 2
v -20 21 -13
v -16 16 -2
v -16 16 -13
v -16 17 -2
v -16 17 -13
v 28 0 10
v 28 0 -21
v 28 1 10
v 28 1 -21
v 28 2 10
v 28 2 -21
v 28 8 10
v 28 8 -21
v 28 9 10
v 28 9 -21
v 28 10 10
v 28 10 -21
v 28 16 10
v 28 16 -21
v 28 17 10
v 28 17 -21
v 28 19 10
v 28 19 -21
v 31 19 13
v 31 19 -21
v 31 20 13
v 31 20 -21
v 31 21 13
v 31 21 -21
v -31 19 13
v -31 20 13
v -31 21 13
v 31 19 13
v 31 20 13
v 31 21 13
v -28 0 10
v -28 1 10
v -28 2 10
v -28 8 10
v -28 9 10
v -28 10 10
v -28 16 10
v -28 17 10
v -28 19 10
v 28 0 10
v 28 1 10
v 28 2 10
v 28 8 10
v 28 9 10
v 28 10 10
v 28 16 10
v 28 17 10
v 28 19 10
v -26 0 8
v -26 1 8
v -26 2 8
v -26 8 8
v -26 9 8
v -26 10 8
v -26 16 8
v 26 0 8
v 26 1 8
v 26 2 8
v 26 8 8
v 26 9 8
v 26 10 8
v 26 16 8
v -23 17 5
v -23 20 5
v 23 17 5
v 23 20 5
v -20 20 2
v -20 21 2
v 20 20 2
v 20 21 2
v -16 16 -2
v -16 17 -2
v 16 16 -2
v 16 17 -2
v -31 19 -13
v -31 20 -13
v -31 21 -13
v -28 0 -13
v -28 1 -13
v -28 2 -13
v -28 8 -13
v -28 9 -13
v -28 10 -13
v -28 16 -13
v -28 17 -13
v -28 19 -13
v -28 20 -13
v -27 16 -13
v -27 17 -13
v -27 19 -13
v -26 0 -13
v -26 1 -13
v -26 2 -13
v -26 8 -13
v -26 9 -13
v -26 10 -13
v -26 16 -13
v -26 17 -13
v -24 17 -13
v -24 20 -13
v -23 17 -13
v -23 20 -13
v -20 20 -13
v -20 21 -13
v -16 16 -13
v -16 17 -13
v 16 16 -21
v 16 17 -21
v 20 20 -21
v 20 21 -21
v 23 17 -21
v 23 20 -21
v 24 17 -21
v 24 20 -21
v 26 0 -21
v 26 1 -21
v 26 2 -21
v 26 8 -21
v 26 9 -21
v 26 10 -21
v 26 16 -21
v 26 17 -21
v 27 16 -21
v 27 17 -21
v 27 19 -21
v 28 0 -21
v 28 1 -21
v 28 2 -21
v 28 8 -21
v 28 9 -21
v 28 10 -21
v 28 16 -21
v 28 17 -21
v 28 19 -21
v 28 20 -21
v 31 19 -21
v 31 20 -21
v 31 21 -21
v -28 0 10
v 28 0 10
v -26 0 8
v 26 0 8
v -28 0 -13
v -26 0 -13
v 26 0 -21
v 28 0 -21
v -26 16 8
v 26 16 8
v -16 16 -2
v 16 16 -2
v -26 16 -13
v -16 16 -13
v 16 16 -21
v 26 16 -21
v -31 19 13
v 31 19 13
v -28 19 10
v 28 19 10
v -31 19 -13
v -28 19 -13
v 28 19 -21
v 31 19 -21
v -23 20 5
v 23 20 5
v -20 20 2
v 20 20 2
v -23 20 -13
v -20 20 -13
v 20 20 -21
v 23 20 -21
v -23 17 5
v 23 17 5
v -16 17 -2
v 16 17 -2
v -23 17 -13
v -16 17 -13
v 16 17 -21
v 23 17 -21
v -31 21 13
v 31 21 13
v -20 21 2
v 20 21 2
v -31 21 -13
v -20 21 -13
v 20 21 -21
v 31 21 -21

# faces
f 3/3/1 2/3/1 1/3/1
f 4/3/1 2/3/1 3/3/1
f 5/2/1 4/2/1 3/2/1
f 6/2/1 4/2/1 5/2/1
f 9/2/1 8/2/1 7/2/1
f 10/2/1 8/2/1 9/2/1
f 11/3/1 10/3/1 9/3/1
f 12/3/1 10/3/1 11/3/1
f 13/1/1 12/1/1 11/1/1
f 14/1/1 12/1/1 13/1/1
f 15/2/1 14/2/1 13/2/1
f 16/2/1 14/2/1 15/2/1
f 17/3/1 16/3/1 15/3/1
f 18/3/1 16/3/1 17/3/1
f 19/1/1 18/1/1 17/1/1
f 20/1/1 18/1/1 19/1/1
f 21/2/1 20/2/1 19/2/1
f 22/2/1 20/2/1 21/2/1
f 23/3/1 22/3/1 21/3/1
f 24/3/1 22/3/1 23/3/1
f 27/2/1 26/2/1 25/2/1
f 28/2/1 26/2/1 27/2/1
f 31/2/1 30/2/1 29/2/1
f 32/2/1 30/2/1 31/2/1
f 35/3/1 34/3/1 33/3/1
f 36/3/1 34/3/1 35/3/1
f 39/2/1 38/2/1 37/2/1
f 40/2/1 38/2/1 39/2/1
f 41/3/1 40/3/1 39/3/1
f 42/3/1 40/3/1 41/3/1
f 43/1/1 42/1/1 41/1/1
f 44/1/1 42/1/1 43/1/1
f 45/2/1 44/2/1 43/2/1
f 46/2/1 44/2/1 45/2/1
f 47/3/1 46/3/1 45/3/1
f 48/3/1 46/3/1 47/3/1
f 49/1/1 48/1/1 47/1/1
f 50/1/1 48/1/1 49/1/1
f 51/2/2 52/2/2 53/2/2
f 53/2/2 52/2/2 54/2/2
f 53/3/2 54/3/2 55/3/2
f 55/3/2 54/3/2 56/3/2
f 55/1/2 56/1/2 57/1/2
f 57/1/2 56/1/2 58/1/2
f 57/2/2 58/2/2 59/2/2
f 59/2/2 58/2/2 60/2/2
f 59/3/2 60/3/2 61/3/2
f 61/3/2 60/3/2 62/3/2
f 61/1/2 62/1/2 63/1/2
f 63/1/2 62/1/2 64/1/2
f 65/3/2 66/3/2 67/3/2
f 67/3/2 66/3/2 68/3/2
f 69/2/2 70/2/2 71/2/2
f 71/2/2 70/2/2 72/2/2
f 73/2/2 74/2/2 75/2/2
f 75/2/2 74/2/2 76/2/2
f 77/2/2 78/2/2 79/2/2
f 79/2/2 78/2/2 80/2/2
f 79/3/2 80/3/2 81/3/2
f 81/3/2 80/3/2 82/3/2
f 81/1/2 82/1/2 83/1/2
f 83/1/2 82/1/2 84/1/2
f 83/2/2 84/2/2 85/2/2
f 85/2/2 84/2/2 86/2/2
f 85/3/2 86/3/2 87/3/2
f 87/3/2 86/3/2 88/3/2
f 87/1/2 88/1/2 89/1/2
f 89/1/2 88/1/2 90/1/2
f 89/2/2 90/2/2 91/2/2
f 91/2/2 90/2/2 92/2/2
f 91/3/2 92/3/2 93/3/2
f 93/3/2 92/3/2 94/3/2
f 95/3/2 96/3/2 97/3/2
f 97/3/2 96/3/2 98/3/2
f 97/2/2 98/2/2 99/2/2
f 99/2/2 98/2/2 100/2/2
f 104/3/3 102/3/3 101/3/3
f 105/2/3 103/2/3 102/2/3
f 105/3/3 102/3/3 104/3/3
f 106/2/3 103/2/3 105/2/3
f 116/2/3 108/2/3 107/2/3
f 117/3/3 109/3/3 108/3/3
f 117/2/3 108/2/3 116/2/3
f 118/1/3 110/1/3 109/1/3
f 118/3/3 109/3/3 117/3/3
f 119/2/3 111/2/3 110/2/3
f 119/1/3 110/1/3 118/1/3
f 120/3/3 112/3/3 111/3/3
f 120/2/3 111/2/3 119/2/3
f 121/1/3 113/1/3 112/1/3
f 121/3/3 112/3/3 120/3/3
f 122/2/3 114/2/3 113/2/3
f 122/1/3 113/1/3 121/1/3
f 123/3/3 115/3/3 114/3/3
f 123/2/3 114/2/3 122/2/3
f 124/3/3 115/3/3 123/3/3
f 125/2/4 126/2/4 132/2/4
f 126/3/4 127/3/4 133/3/4
f 132/2/4 126/2/4 133/2/4
f 127/1/4 128/1/4 134/1/4
f 133/3/4 127/3/4 134/3/4
f 128/2/4 129/2/4 135/2/4
f 134/1/4 128/1/4 135/1/4
f 129/3/4 130/3/4 136/3/4
f 135/2/4 129/2/4 136/2/4
f 130/1/4 131/1/4 137/1/4
f 136/3/4 130/3/4 137/3/4
f 137/1/4 131/1/4 138/1/4
f 139/3/4 140/3/4 141/3/4
f 141/3/4 140/3/4 142/3/4
f 143/2/4 144/2/4 145/2/4
f 145/2/4 144/2/4 146/2/4
f 147/2/4 148/2/4 149/2/4
f 149/2/4 148/2/4 150/2/4
f 151/3/4 152/3/4 162/3/4
f 152/2/4 153/2/4 163/2/4
f 162/3/4 152/3/4 163/3/4
f 160/2/4 161/2/4 164/2/4
f 159/1/4 160/1/4 164/1/4
f 161/3/4 162/3/4 165/3/4
f 164/2/4 161/2/4 165/2/4
f 162/1/4 163/1/4 166/1/4
f 165/3/4 162/3/4 166/3/4
f 154/2/4 155/2/4 167/2/4
f 155/3/4 156/3/4 168/3/4
f 167/2/4 155/2/4 168/2/4
f 156/1/4 157/1/4 169/1/4
f 168/3/4 156/3/4 169/3/4
f 157/2/4 158/2/4 170/2/4
f 169/1/4 157/1/4 170/1/4
f 158/3/4 159/3/4 171/3/4
f 170/2/4 158/2/4 171/2/4
f 159/1/4 164/1/4 172/1/4
f 171/3/4 159/3/4 172/3/4
f 164/1/4 165/1/4 172/1/4
f 165/1/4 166/1/4 172/1/4
f 172/1/4 166/1/4 173/1/4
f 173/1/4 166/1/4 174/1/4
f 174/1/4 166/1/4 175/1/4
f 173/2/4 174/2/4 175/2/4
f 163/2/4 153/2/4 176/2/4
f 175/1/4 166/1/4 176/1/4
f 166/1/4 163/1/4 176/1/4
f 173/2/4 175/2/4 177/2/4
f 175/3/4 176/3/4 177/3/4
f 176/2/4 153/2/4 178/2/4
f 177/3/4 176/3/4 178/3/4
f 178/2/4 153/2/4 179/2/4
f 179/2/4 153/2/4 180/2/4
f 173/2/4 177/2/4 181/2/4
f 181/2/4 177/2/4 182/2/4
f 183/2/4 184/2/4 187/2/4
f 185/2/4 186/2/4 188/2/4
f 183/2/4 187/2/4 189/2/4
f 187/3/4 188/3/4 189/3/4
f 188/2/4 186/2/4 190/2/4
f 189/3/4 188/3/4 190/3/4
f 183/2/4 189/2/4 197/2/4
f 189/1/4 190/1/4 198/1/4
f 197/2/4 189/2/4 198/2/4
f 196/1/4 197/1/4 199/1/4
f 197/1/4 198/1/4 199/1/4
f 198/1/4 190/1/4 200/1/4
f 199/1/4 198/1/4 200/1/4
f 200/1/4 190/1/4 201/1/4
f 191/2/4 192/2/4 202/2/4
f 192/3/4 193/3/4 203/3/4
f 202/2/4 192/2/4 203/2/4
f 193/1/4 194/1/4 204/1/4
f 203/3/4 193/3/4 204/3/4
f 194/2/4 195/2/4 205/2/4
f 204/1/4 194/1/4 205/1/4
f 195/3/4 196/3/4 206/3/4
f 205/2/4 195/2/4 206/2/4
f 196/1/4 199/1/4 207/1/4
f 206/3/4 196/3/4 207/3/4
f 199/2/4 200/2/4 208/2/4
f 207/1/4 199/1/4 208/1/4
f 200/3/4 201/3/4 209/3/4
f 208/2/4 200/2/4 209/2/4
f 201/1/4 190/1/4 210/1/4
f 209/3/4 201/3/4 210/3/4
f 190/2/4 186/2/4 211/2/4
f 210/1/4 190/1/4 211/1/4
f 210/3/4 211/3/4 212/3/4
f 211/2/4 186/2/4 213/2/4
f 212/3/4 211/3/4 213/3/4
f 213/2/4 186/2/4 214/2/4
f 217/2/5 216/2/5 215/2/5
f 218/2/5 216/2/5 217/2/5
f 219/2/5 217/2/5 215/2/5
f 220/2/5 217/2/5 219/2/5
f 221/2/5 216/2/5 218/2/5
f 222/2/5 216/2/5 221/2/5
f 225/2/5 224/2/5 223/2/5
f 226/2/5 224/2/5 225/2/5
f 227/2/5 225/2/5 223/2/5
f 228/2/5 225/2/5 227/2/5
f 229/2/5 224/2/5 226/2/5
f 230/2/5 224/2/5 229/2/5
f 233/3/5 232/3/5 231/3/5
f 234/3/5 232/3/5 233/3/5
f 235/3/5 233/3/5 231/3/5
f 236/3/5 233/3/5 235/3/5
f 237/3/5 232/3/5 234/3/5
f 238/3/5 232/3/5 237/3/5
f 241/2/5 240/2/5 239/2/5
f 242/2/5 240/2/5 241/2/5
f 243/2/5 241/2/5 239/2/5
f 244/2/5 241/2/5 243/2/5
f 245/2/5 240/2/5 242/2/5
f 246/2/5 240/2/5 245/2/5
f 247/2/6 248/2/6 249/2/6
f 249/2/6 248/2/6 250/2/6
f 247/2/6 249/2/6 251/2/6
f 251/2/6 249/2/6 252/2/6
f 250/2/6 248/2/6 253/2/6
f 253/2/6 248/2/6 254/2/6
f 255/2/6 256/2/6 257/2/6
f 257/2/6 256/2/6 258/2/6
f 255/2/6 257/2/6 259/2/6
f 259/2/6 257/2/6 260/2/6
f 258/2/6 256/2/6 261/2/6
f 261/2/6 256/2/6 262/2/6
