# MagicaVoxel @ Ephtracy

# group
g Table02

# material
mtllib Table02.mtl
usemtl palette

# normals
vn -1 0 0
vn 1 0 0
vn 0 0 1
vn 0 0 -1
vn 0 -1 0
vn 0 1 0

# texcoords
vt 0.412109 0.5
vt 0.583984 0.5
vt 0.775391 0.5
vt 0.958984 0.5
vt 0.970703 0.5
vt 0.974609 0.5

# verts
v -11 14 25
v -11 14 -25
v -11 16 25
v -11 16 -25
v -6 0 20
v -6 0 12
v -6 0 -12
v -6 0 -20
v -6 14 20
v -6 14 12
v -6 14 -12
v -6 14 -20
v 6 0 20
v 6 0 12
v 6 0 -12
v 6 0 -20
v 6 14 20
v 6 14 12
v 6 14 -12
v 6 14 -20
v 11 14 25
v 11 14 -25
v 11 16 25
v 11 16 -25
v -11 14 25
v -11 16 25
v 11 14 25
v 11 16 25
v -6 0 20
v -6 14 20
v 6 0 20
v 6 14 20
v -6 0 -12
v -6 14 -12
v 1 14 -12
v 4 14 -12
v 6 0 -12
v 6 14 -12
v -6 0 12
v -6 14 12
v 6 0 12
v 6 14 12
v -6 0 -20
v -6 14 -20
v 6 0 -20
v 6 14 -20
v -11 14 -25
v -11 16 -25
v 11 14 -25
v 11 16 -25
v -6 0 20
v 6 0 20
v -6 0 12
v 6 0 12
v -6 0 -12
v 6 0 -12
v -6 0 -20
v 6 0 -20
v -11 14 25
v 11 14 25
v -6 14 20
v 6 14 20
v -6 14 12
v 6 14 12
v 3 14 -1
v 4 14 -1
v 3 14 -5
v 4 14 -5
v 1 14 -10
v 4 14 -10
v -6 14 -12
v 1 14 -12
v 4 14 -12
v 6 14 -12
v -6 14 -20
v 6 14 -20
v -11 14 -25
v 11 14 -25
v -11 16 25
v 11 16 25
v -11 16 -25
v 11 16 -25

# faces
f 3/5/1 2/5/1 1/5/1
f 4/5/1 2/5/1 3/5/1
f 9/6/1 6/6/1 5/6/1
f 10/6/1 6/6/1 9/6/1
f 11/6/1 8/6/1 7/6/1
f 12/6/1 8/6/1 11/6/1
f 13/6/2 14/6/2 17/6/2
f 17/6/2 14/6/2 18/6/2
f 15/6/2 16/6/2 19/6/2
f 19/6/2 16/6/2 20/6/2
f 21/5/2 22/5/2 23/5/2
f 23/5/2 22/5/2 24/5/2
f 27/5/3 26/5/3 25/5/3
f 28/5/3 26/5/3 27/5/3
f 31/6/3 30/6/3 29/6/3
f 32/6/3 30/6/3 31/6/3
f 35/6/3 34/6/3 33/6/3
f 36/6/3 35/6/3 33/6/3
f 37/6/3 36/6/3 33/6/3
f 38/6/3 36/6/3 37/6/3
f 39/6/4 40/6/4 41/6/4
f 41/6/4 40/6/4 42/6/4
f 43/6/4 44/6/4 45/6/4
f 45/6/4 44/6/4 46/6/4
f 47/5/4 48/5/4 49/5/4
f 49/5/4 48/5/4 50/5/4
f 53/6/5 52/6/5 51/6/5
f 54/6/5 52/6/5 53/6/5
f 57/6/5 56/6/5 55/6/5
f 58/6/5 56/6/5 57/6/5
f 61/5/5 60/5/5 59/5/5
f 62/5/5 60/5/5 61/5/5
f 63/5/5 61/5/5 59/5/5
f 64/5/5 60/5/5 62/5/5
f 65/5/5 64/5/5 63/5/5
f 66/5/5 64/5/5 65/5/5
f 67/5/5 65/5/5 63/5/5
f 67/1/5 66/1/5 65/1/5
f 68/5/5 64/5/5 66/5/5
f 68/1/5 66/1/5 67/1/5
f 69/5/5 67/5/5 63/5/5
f 69/5/5 68/5/5 67/5/5
f 70/5/5 64/5/5 68/5/5
f 70/5/5 68/5/5 69/5/5
f 71/5/5 63/5/5 59/5/5
f 71/5/5 69/5/5 63/5/5
f 72/4/5 70/4/5 69/4/5
f 72/5/5 69/5/5 71/5/5
f 73/5/5 64/5/5 70/5/5
f 73/4/5 70/4/5 72/4/5
f 74/5/5 60/5/5 64/5/5
f 74/5/5 64/5/5 73/5/5
f 75/5/5 71/5/5 59/5/5
f 76/5/5 60/5/5 74/5/5
f 77/5/5 75/5/5 59/5/5
f 77/5/5 76/5/5 75/5/5
f 78/5/5 60/5/5 76/5/5
f 78/5/5 76/5/5 77/5/5
f 79/5/6 80/5/6 81/5/6
f 81/5/6 80/5/6 82/5/6
