# MagicaVoxel @ Ephtracy

# group
g Box01

# material
mtllib Box01.mtl
usemtl palette

# normals
vn -1 0 0
vn 1 0 0
vn 0 0 1
vn 0 0 -1
vn 0 -1 0
vn 0 1 0

# texcoords
vt 0.267578 0.5
vt 0.271484 0.5
vt 0.310547 0.5

# verts
v -8 0 8
v -8 0 -3
v -8 0 -4
v -8 0 -8
v -8 1 8
v -8 1 -3
v -8 1 -4
v -8 1 -8
v -8 3 8
v -8 3 -3
v -8 3 -4
v -8 3 -8
v -8 4 3
v -8 4 2
v -8 4 1
v -8 4 -2
v -8 5 6
v -8 5 5
v -8 5 3
v -8 5 2
v -8 5 1
v -8 5 -0
v -8 6 3
v -8 6 2
v -8 6 1
v -8 6 -0
v -8 6 -1
v -8 7 3
v -8 7 2
v -8 7 1
v -8 7 -0
v -8 7 -1
v -8 7 -2
v -8 8 7
v -8 8 6
v -8 8 5
v -8 8 4
v -8 9 7
v -8 9 6
v -8 9 5
v -8 9 4
v -8 10 6
v -8 10 5
v -8 11 8
v -8 11 -3
v -8 11 -4
v -8 11 -8
v 3 0 8
v 3 0 4
v 3 0 3
v 3 0 -8
v 3 1 8
v 3 1 4
v 3 1 3
v 3 1 -8
v 3 3 8
v 3 3 4
v 3 3 3
v 3 3 -8
v 3 4 2
v 3 4 -1
v 3 4 -2
v 3 4 -3
v 3 5 -0
v 3 5 -1
v 3 5 -2
v 3 5 -3
v 3 6 1
v 3 6 -0
v 3 6 -1
v 3 6 -2
v 3 6 -3
v 3 7 2
v 3 7 1
v 3 7 -0
v 3 7 -1
v 3 7 -2
v 3 7 -3
v 3 11 8
v 3 11 4
v 3 11 3
v 3 11 -8
v -8 0 8
v -8 1 8
v -8 3 8
v -8 11 8
v -3 8 8
v -3 11 8
v -2 8 8
v -2 11 8
v 3 0 8
v 3 1 8
v 3 3 8
v 3 11 8
v -8 0 -8
v -8 1 -8
v -8 3 -8
v -8 11 -8
v -3 8 -8
v -3 11 -8
v -2 8 -8
v -2 11 -8
v 3 0 -8
v 3 1 -8
v 3 3 -8
v 3 11 -8
v -8 0 8
v 3 0 8
v -3 0 4
v 3 0 4
v -2 0 3
v 3 0 3
v -8 0 -3
v -3 0 -3
v -8 0 -4
v -2 0 -4
v -8 0 -8
v 3 0 -8
v -8 11 8
v -3 11 8
v -2 11 8
v 3 11 8
v -2 11 4
v 3 11 4
v -2 11 3
v 3 11 3
v -8 11 -3
v -3 11 -3
v -8 11 -4
v -3 11 -4
v -8 11 -8
v -3 11 -8
v -2 11 -8
v 3 11 -8

# faces
f 5/1/1 2/1/1 1/1/1
f 6/3/1 3/3/1 2/3/1
f 6/1/1 2/1/1 5/1/1
f 7/1/1 4/1/1 3/1/1
f 7/3/1 3/3/1 6/3/1
f 8/1/1 4/1/1 7/1/1
f 9/3/1 6/3/1 5/3/1
f 9/3/1 7/3/1 6/3/1
f 9/3/1 8/3/1 7/3/1
f 10/3/1 8/3/1 9/3/1
f 11/3/1 8/3/1 10/3/1
f 12/3/1 8/3/1 11/3/1
f 13/1/1 10/1/1 9/1/1
f 14/1/1 10/1/1 13/1/1
f 15/1/1 10/1/1 14/1/1
f 16/1/1 10/1/1 15/1/1
f 17/1/1 13/1/1 9/1/1
f 18/1/1 13/1/1 17/1/1
f 19/3/1 14/3/1 13/3/1
f 19/1/1 13/1/1 18/1/1
f 20/1/1 15/1/1 14/1/1
f 20/3/1 14/3/1 19/3/1
f 21/3/1 16/3/1 15/3/1
f 21/1/1 15/1/1 20/1/1
f 22/3/1 16/3/1 21/3/1
f 23/1/1 19/1/1 18/1/1
f 23/1/1 20/1/1 19/1/1
f 24/3/1 21/3/1 20/3/1
f 24/1/1 20/1/1 23/1/1
f 25/1/1 22/1/1 21/1/1
f 25/3/1 21/3/1 24/3/1
f 26/3/1 16/3/1 22/3/1
f 26/1/1 22/1/1 25/1/1
f 27/3/1 16/3/1 26/3/1
f 28/3/1 24/3/1 23/3/1
f 28/1/1 23/1/1 18/1/1
f 29/1/1 25/1/1 24/1/1
f 29/3/1 24/3/1 28/3/1
f 30/3/1 26/3/1 25/3/1
f 30/1/1 25/1/1 29/1/1
f 31/1/1 27/1/1 26/1/1
f 31/3/1 26/3/1 30/3/1
f 32/3/1 16/3/1 27/3/1
f 32/1/1 27/1/1 31/1/1
f 33/1/1 10/1/1 16/1/1
f 33/3/1 16/3/1 32/3/1
f 34/1/1 17/1/1 9/1/1
f 35/3/1 18/3/1 17/3/1
f 35/1/1 17/1/1 34/1/1
f 36/1/1 32/1/1 31/1/1
f 36/3/1 18/3/1 35/3/1
f 36/1/1 28/1/1 18/1/1
f 36/1/1 33/1/1 32/1/1
f 36/1/1 29/1/1 28/1/1
f 36/1/1 30/1/1 29/1/1
f 36/1/1 31/1/1 30/1/1
f 37/1/1 33/1/1 36/1/1
f 38/3/1 35/3/1 34/3/1
f 38/1/1 34/1/1 9/1/1
f 38/3/1 37/3/1 36/3/1
f 38/3/1 36/3/1 35/3/1
f 39/3/1 37/3/1 38/3/1
f 40/3/1 37/3/1 39/3/1
f 41/1/1 33/1/1 37/1/1
f 41/3/1 37/3/1 40/3/1
f 42/3/1 40/3/1 39/3/1
f 42/1/1 39/1/1 38/1/1
f 43/1/1 41/1/1 40/1/1
f 43/3/1 40/3/1 42/3/1
f 44/1/1 38/1/1 9/1/1
f 44/1/1 42/1/1 38/1/1
f 44/1/1 43/1/1 42/1/1
f 45/3/1 11/3/1 10/3/1
f 45/1/1 43/1/1 44/1/1
f 45/1/1 33/1/1 41/1/1
f 45/1/1 41/1/1 43/1/1
f 45/1/1 10/1/1 33/1/1
f 46/1/1 12/1/1 11/1/1
f 46/3/1 11/3/1 45/3/1
f 47/1/1 12/1/1 46/1/1
f 48/1/2 49/1/2 52/1/2
f 49/3/2 50/3/2 53/3/2
f 52/1/2 49/1/2 53/1/2
f 50/1/2 51/1/2 54/1/2
f 53/3/2 50/3/2 54/3/2
f 54/1/2 51/1/2 55/1/2
f 52/3/2 53/3/2 56/3/2
f 53/3/2 54/3/2 56/3/2
f 54/3/2 55/3/2 56/3/2
f 56/3/2 55/3/2 57/3/2
f 57/3/2 55/3/2 58/3/2
f 58/3/2 55/3/2 59/3/2
f 58/1/2 59/1/2 60/1/2
f 60/1/2 59/1/2 61/1/2
f 61/1/2 59/1/2 62/1/2
f 62/1/2 59/1/2 63/1/2
f 60/3/2 61/3/2 64/3/2
f 61/1/2 62/1/2 65/1/2
f 64/3/2 61/3/2 65/3/2
f 62/3/2 63/3/2 66/3/2
f 65/1/2 62/1/2 66/1/2
f 63/1/2 59/1/2 67/1/2
f 66/3/2 63/3/2 67/3/2
f 60/3/2 64/3/2 68/3/2
f 64/1/2 65/1/2 69/1/2
f 68/3/2 64/3/2 69/3/2
f 65/3/2 66/3/2 70/3/2
f 69/1/2 65/1/2 70/1/2
f 66/1/2 67/1/2 71/1/2
f 70/3/2 66/3/2 71/3/2
f 67/1/2 59/1/2 72/1/2
f 71/1/2 67/1/2 72/1/2
f 58/1/2 60/1/2 73/1/2
f 60/3/2 68/3/2 73/3/2
f 68/1/2 69/1/2 74/1/2
f 73/3/2 68/3/2 74/3/2
f 69/3/2 70/3/2 75/3/2
f 74/1/2 69/1/2 75/1/2
f 70/1/2 71/1/2 76/1/2
f 75/3/2 70/3/2 76/3/2
f 71/3/2 72/3/2 77/3/2
f 76/1/2 71/1/2 77/1/2
f 72/1/2 59/1/2 78/1/2
f 77/3/2 72/3/2 78/3/2
f 56/1/2 57/1/2 79/1/2
f 57/3/2 58/3/2 80/3/2
f 79/1/2 57/1/2 80/1/2
f 76/1/2 77/1/2 81/1/2
f 80/3/2 58/3/2 81/3/2
f 58/1/2 73/1/2 81/1/2
f 77/1/2 78/1/2 81/1/2
f 73/1/2 74/1/2 81/1/2
f 75/1/2 76/1/2 81/1/2
f 74/1/2 75/1/2 81/1/2
f 78/1/2 59/1/2 82/1/2
f 81/1/2 78/1/2 82/1/2
f 87/1/3 86/1/3 85/1/3
f 88/1/3 86/1/3 87/1/3
f 89/1/3 87/1/3 85/1/3
f 89/2/3 88/2/3 87/2/3
f 90/2/3 88/2/3 89/2/3
f 91/1/3 84/1/3 83/1/3
f 92/3/3 85/3/3 84/3/3
f 92/1/3 84/1/3 91/1/3
f 93/1/3 89/1/3 85/1/3
f 93/3/3 85/3/3 92/3/3
f 93/1/3 90/1/3 89/1/3
f 94/1/3 90/1/3 93/1/3
f 97/1/4 98/1/4 99/1/4
f 99/1/4 98/1/4 100/1/4
f 97/1/4 99/1/4 101/1/4
f 99/2/4 100/2/4 101/2/4
f 101/2/4 100/2/4 102/2/4
f 95/1/4 96/1/4 103/1/4
f 96/3/4 97/3/4 104/3/4
f 103/1/4 96/1/4 104/1/4
f 97/1/4 101/1/4 105/1/4
f 104/3/4 97/3/4 105/3/4
f 101/1/4 102/1/4 105/1/4
f 105/1/4 102/1/4 106/1/4
f 109/1/5 108/1/5 107/1/5
f 110/1/5 108/1/5 109/1/5
f 111/3/5 110/3/5 109/3/5
f 112/3/5 110/3/5 111/3/5
f 113/1/5 109/1/5 107/1/5
f 114/3/5 111/3/5 109/3/5
f 114/1/5 109/1/5 113/1/5
f 115/3/5 114/3/5 113/3/5
f 116/1/5 112/1/5 111/1/5
f 116/3/5 114/3/5 115/3/5
f 116/3/5 111/3/5 114/3/5
f 117/1/5 116/1/5 115/1/5
f 118/1/5 112/1/5 116/1/5
f 118/1/5 116/1/5 117/1/5
f 120/2/6 121/2/6 123/2/6
f 121/1/6 122/1/6 123/1/6
f 123/1/6 122/1/6 124/1/6
f 120/2/6 123/2/6 125/2/6
f 123/3/6 124/3/6 125/3/6
f 125/3/6 124/3/6 126/3/6
f 119/1/6 120/1/6 127/1/6
f 120/2/6 125/2/6 128/2/6
f 127/1/6 120/1/6 128/1/6
f 127/3/6 128/3/6 129/3/6
f 128/2/6 125/2/6 130/2/6
f 129/3/6 128/3/6 130/3/6
f 129/1/6 130/1/6 131/1/6
f 130/2/6 125/2/6 132/2/6
f 131/1/6 130/1/6 132/1/6
f 125/1/6 126/1/6 133/1/6
f 132/2/6 125/2/6 133/2/6
f 133/1/6 126/1/6 134/1/6
