# MagicaVoxel @ Ephtracy

# group
g basementWallSingleBrickHalf

# material
mtllib basementWallSingleBrickHalf.mtl
usemtl palette

# normals
vn -1 0 0
vn 1 0 0
vn 0 0 1
vn 0 0 -1
vn 0 -1 0
vn 0 1 0

# texcoords
vt 0.376953 0.5
vt 0.380859 0.5
vt 0.384766 0.5
vt 0.388672 0.5

# verts
v -8 0 2
v -8 0 -2
v -8 1 2
v -8 1 1
v -8 2 2
v -8 2 1
v -8 7 2
v -8 7 1
v -8 8 2
v -8 8 1
v -8 17 2
v -8 17 1
v -8 18 2
v -8 18 1
v -8 23 2
v -8 23 1
v -8 24 2
v -8 24 1
v -8 33 2
v -8 33 1
v -8 34 2
v -8 34 1
v -8 39 2
v -8 39 1
v -8 40 2
v -8 40 1
v -8 49 2
v -8 49 1
v -8 50 2
v -8 50 1
v -8 55 2
v -8 55 1
v -8 56 2
v -8 56 1
v -8 64 2
v -8 64 -2
v 8 0 2
v 8 0 -2
v 8 1 2
v 8 1 1
v 8 7 2
v 8 7 1
v 8 8 2
v 8 8 1
v 8 9 2
v 8 9 1
v 8 13 2
v 8 13 1
v 8 16 2
v 8 16 1
v 8 17 2
v 8 17 1
v 8 23 2
v 8 23 1
v 8 24 2
v 8 24 1
v 8 25 2
v 8 25 1
v 8 29 2
v 8 29 1
v 8 32 2
v 8 32 1
v 8 33 2
v 8 33 1
v 8 39 2
v 8 39 1
v 8 40 2
v 8 40 1
v 8 41 2
v 8 41 1
v 8 45 2
v 8 45 1
v 8 48 2
v 8 48 1
v 8 49 2
v 8 49 1
v 8 55 2
v 8 55 1
v 8 56 2
v 8 56 1
v 8 57 2
v 8 57 1
v 8 61 2
v 8 61 1
v 8 64 2
v 8 64 1
v 8 64 -2
v -8 0 2
v -8 1 2
v -8 2 2
v -8 7 2
v -8 8 2
v -8 17 2
v -8 18 2
v -8 23 2
v -8 24 2
v -8 33 2
v -8 34 2
v -8 39 2
v -8 40 2
v -8 49 2
v -8 50 2
v -8 55 2
v -8 56 2
v -8 64 2
v -7 7 2
v -7 8 2
v -7 9 2
v -7 12 2
v -7 16 2
v -7 23 2
v -7 24 2
v -7 25 2
v -7 28 2
v -7 32 2
v -7 39 2
v -7 40 2
v -7 41 2
v -7 44 2
v -7 48 2
v -7 55 2
v -7 56 2
v -7 57 2
v -7 60 2
v -7 64 2
v -6 12 2
v -6 15 2
v -6 28 2
v -6 31 2
v -6 44 2
v -6 47 2
v -6 60 2
v -6 63 2
v -1 2 2
v -1 5 2
v -1 18 2
v -1 21 2
v -1 34 2
v -1 37 2
v -1 50 2
v -1 53 2
v 0 1 2
v 0 5 2
v 0 8 2
v 0 9 2
v 0 10 2
v 0 17 2
v 0 21 2
v 0 24 2
v 0 25 2
v 0 26 2
v 0 33 2
v 0 37 2
v 0 40 2
v 0 41 2
v 0 42 2
v 0 49 2
v 0 53 2
v 0 56 2
v 0 57 2
v 0 58 2
v 1 1 2
v 1 4 2
v 1 8 2
v 1 15 2
v 1 16 2
v 1 17 2
v 1 20 2
v 1 24 2
v 1 31 2
v 1 32 2
v 1 33 2
v 1 36 2
v 1 40 2
v 1 47 2
v 1 48 2
v 1 49 2
v 1 52 2
v 1 56 2
v 1 63 2
v 1 64 2
v 2 4 2
v 2 7 2
v 2 20 2
v 2 23 2
v 2 36 2
v 2 39 2
v 2 52 2
v 2 55 2
v 7 10 2
v 7 13 2
v 7 26 2
v 7 29 2
v 7 42 2
v 7 45 2
v 7 58 2
v 7 61 2
v 8 0 2
v 8 1 2
v 8 7 2
v 8 8 2
v 8 9 2
v 8 13 2
v 8 16 2
v 8 17 2
v 8 23 2
v 8 24 2
v 8 25 2
v 8 29 2
v 8 32 2
v 8 33 2
v 8 39 2
v 8 40 2
v 8 41 2
v 8 45 2
v 8 48 2
v 8 49 2
v 8 55 2
v 8 56 2
v 8 57 2
v 8 61 2
v 8 64 2
v -8 0 -2
v -8 64 -2
v 8 0 -2
v 8 64 -2
v -8 0 2
v 8 0 2
v -8 0 -2
v 8 0 -2
v -8 64 2
v -7 64 2
v 1 64 2
v 8 64 2
v -7 64 1
v 1 64 1
v 8 64 1
v -8 64 -2
v 8 64 -2

# faces
f 3/2/1 2/2/1 1/2/1
f 4/2/1 2/2/1 3/2/1
f 5/4/1 4/4/1 3/4/1
f 6/2/1 2/2/1 4/2/1
f 6/4/1 4/4/1 5/4/1
f 7/3/1 6/3/1 5/3/1
f 8/2/1 2/2/1 6/2/1
f 8/3/1 6/3/1 7/3/1
f 9/1/1 8/1/1 7/1/1
f 10/2/1 2/2/1 8/2/1
f 10/1/1 8/1/1 9/1/1
f 11/2/1 10/2/1 9/2/1
f 12/2/1 2/2/1 10/2/1
f 12/2/1 10/2/1 11/2/1
f 13/4/1 12/4/1 11/4/1
f 14/2/1 2/2/1 12/2/1
f 14/4/1 12/4/1 13/4/1
f 15/3/1 14/3/1 13/3/1
f 16/2/1 2/2/1 14/2/1
f 16/3/1 14/3/1 15/3/1
f 17/1/1 16/1/1 15/1/1
f 18/2/1 2/2/1 16/2/1
f 18/1/1 16/1/1 17/1/1
f 19/2/1 18/2/1 17/2/1
f 20/2/1 2/2/1 18/2/1
f 20/2/1 18/2/1 19/2/1
f 21/4/1 20/4/1 19/4/1
f 22/2/1 2/2/1 20/2/1
f 22/4/1 20/4/1 21/4/1
f 23/3/1 22/3/1 21/3/1
f 24/2/1 2/2/1 22/2/1
f 24/3/1 22/3/1 23/3/1
f 25/1/1 24/1/1 23/1/1
f 26/2/1 2/2/1 24/2/1
f 26/1/1 24/1/1 25/1/1
f 27/2/1 26/2/1 25/2/1
f 28/2/1 2/2/1 26/2/1
f 28/2/1 26/2/1 27/2/1
f 29/4/1 28/4/1 27/4/1
f 30/2/1 2/2/1 28/2/1
f 30/4/1 28/4/1 29/4/1
f 31/3/1 30/3/1 29/3/1
f 32/2/1 2/2/1 30/2/1
f 32/3/1 30/3/1 31/3/1
f 33/1/1 32/1/1 31/1/1
f 34/2/1 2/2/1 32/2/1
f 34/1/1 32/1/1 33/1/1
f 35/2/1 34/2/1 33/2/1
f 36/2/1 2/2/1 34/2/1
f 36/2/1 34/2/1 35/2/1
f 37/2/2 38/2/2 39/2/2
f 39/2/2 38/2/2 40/2/2
f 39/3/2 40/3/2 41/3/2
f 40/2/2 38/2/2 42/2/2
f 41/3/2 40/3/2 42/3/2
f 41/1/2 42/1/2 43/1/2
f 42/2/2 38/2/2 44/2/2
f 43/1/2 42/1/2 44/1/2
f 43/2/2 44/2/2 45/2/2
f 44/2/2 38/2/2 46/2/2
f 45/2/2 44/2/2 46/2/2
f 45/4/2 46/4/2 47/4/2
f 46/2/2 38/2/2 48/2/2
f 47/4/2 46/4/2 48/4/2
f 47/3/2 48/3/2 49/3/2
f 48/2/2 38/2/2 50/2/2
f 49/3/2 48/3/2 50/3/2
f 49/2/2 50/2/2 51/2/2
f 50/2/2 38/2/2 52/2/2
f 51/2/2 50/2/2 52/2/2
f 51/3/2 52/3/2 53/3/2
f 52/2/2 38/2/2 54/2/2
f 53/3/2 52/3/2 54/3/2
f 53/1/2 54/1/2 55/1/2
f 54/2/2 38/2/2 56/2/2
f 55/1/2 54/1/2 56/1/2
f 55/2/2 56/2/2 57/2/2
f 56/2/2 38/2/2 58/2/2
f 57/2/2 56/2/2 58/2/2
f 57/4/2 58/4/2 59/4/2
f 58/2/2 38/2/2 60/2/2
f 59/4/2 58/4/2 60/4/2
f 59/3/2 60/3/2 61/3/2
f 60/2/2 38/2/2 62/2/2
f 61/3/2 60/3/2 62/3/2
f 61/2/2 62/2/2 63/2/2
f 62/2/2 38/2/2 64/2/2
f 63/2/2 62/2/2 64/2/2
f 63/3/2 64/3/2 65/3/2
f 64/2/2 38/2/2 66/2/2
f 65/3/2 64/3/2 66/3/2
f 65/1/2 66/1/2 67/1/2
f 66/2/2 38/2/2 68/2/2
f 67/1/2 66/1/2 68/1/2
f 67/2/2 68/2/2 69/2/2
f 68/2/2 38/2/2 70/2/2
f 69/2/2 68/2/2 70/2/2
f 69/4/2 70/4/2 71/4/2
f 70/2/2 38/2/2 72/2/2
f 71/4/2 70/4/2 72/4/2
f 71/3/2 72/3/2 73/3/2
f 72/2/2 38/2/2 74/2/2
f 73/3/2 72/3/2 74/3/2
f 73/2/2 74/2/2 75/2/2
f 74/2/2 38/2/2 76/2/2
f 75/2/2 74/2/2 76/2/2
f 75/3/2 76/3/2 77/3/2
f 76/2/2 38/2/2 78/2/2
f 77/3/2 76/3/2 78/3/2
f 77/1/2 78/1/2 79/1/2
f 78/2/2 38/2/2 80/2/2
f 79/1/2 78/1/2 80/1/2
f 79/2/2 80/2/2 81/2/2
f 80/2/2 38/2/2 82/2/2
f 81/2/2 80/2/2 82/2/2
f 81/4/2 82/4/2 83/4/2
f 82/2/2 38/2/2 84/2/2
f 83/4/2 82/4/2 84/4/2
f 83/3/2 84/3/2 85/3/2
f 84/2/2 38/2/2 86/2/2
f 85/3/2 84/3/2 86/3/2
f 86/2/2 38/2/2 87/2/2
f 106/3/3 91/3/3 90/3/3
f 106/1/3 92/1/3 91/1/3
f 107/2/3 93/2/3 92/2/3
f 107/1/3 92/1/3 106/1/3
f 108/2/3 93/2/3 107/2/3
f 109/2/3 93/2/3 108/2/3
f 110/2/3 93/2/3 109/2/3
f 111/3/3 95/3/3 94/3/3
f 111/1/3 96/1/3 95/1/3
f 112/2/3 97/2/3 96/2/3
f 112/1/3 96/1/3 111/1/3
f 113/2/3 97/2/3 112/2/3
f 114/2/3 97/2/3 113/2/3
f 115/2/3 97/2/3 114/2/3
f 116/3/3 99/3/3 98/3/3
f 116/1/3 100/1/3 99/1/3
f 117/2/3 101/2/3 100/2/3
f 117/1/3 100/1/3 116/1/3
f 118/2/3 101/2/3 117/2/3
f 119/2/3 101/2/3 118/2/3
f 120/2/3 101/2/3 119/2/3
f 121/1/3 104/1/3 103/1/3
f 121/3/3 103/3/3 102/3/3
f 122/2/3 105/2/3 104/2/3
f 122/1/3 104/1/3 121/1/3
f 123/2/3 105/2/3 122/2/3
f 124/2/3 105/2/3 123/2/3
f 125/2/3 105/2/3 124/2/3
f 126/1/3 110/1/3 109/1/3
f 126/3/3 109/3/3 108/3/3
f 127/1/3 110/1/3 126/1/3
f 128/1/3 115/1/3 114/1/3
f 128/3/3 114/3/3 113/3/3
f 129/1/3 115/1/3 128/1/3
f 130/1/3 120/1/3 119/1/3
f 130/3/3 119/3/3 118/3/3
f 131/1/3 120/1/3 130/1/3
f 132/1/3 125/1/3 124/1/3
f 132/3/3 124/3/3 123/3/3
f 133/1/3 125/1/3 132/1/3
f 134/4/3 90/4/3 89/4/3
f 134/3/3 106/3/3 90/3/3
f 134/3/3 107/3/3 106/3/3
f 135/3/3 107/3/3 134/3/3
f 136/4/3 94/4/3 93/4/3
f 136/3/3 111/3/3 94/3/3
f 136/3/3 112/3/3 111/3/3
f 137/3/3 112/3/3 136/3/3
f 138/4/3 98/4/3 97/4/3
f 138/3/3 116/3/3 98/3/3
f 138/3/3 117/3/3 116/3/3
f 139/3/3 117/3/3 138/3/3
f 140/3/3 121/3/3 102/3/3
f 140/4/3 102/4/3 101/4/3
f 140/3/3 122/3/3 121/3/3
f 141/3/3 122/3/3 140/3/3
f 142/2/3 89/2/3 88/2/3
f 142/4/3 135/4/3 134/4/3
f 142/4/3 134/4/3 89/4/3
f 143/3/3 107/3/3 135/3/3
f 143/4/3 135/4/3 142/4/3
f 144/2/3 108/2/3 107/2/3
f 144/3/3 107/3/3 143/3/3
f 145/3/3 127/3/3 126/3/3
f 145/2/3 108/2/3 144/2/3
f 145/3/3 126/3/3 108/3/3
f 146/3/3 127/3/3 145/3/3
f 147/2/3 93/2/3 110/2/3
f 147/4/3 137/4/3 136/4/3
f 147/4/3 136/4/3 93/4/3
f 148/3/3 112/3/3 137/3/3
f 148/4/3 137/4/3 147/4/3
f 149/2/3 113/2/3 112/2/3
f 149/3/3 112/3/3 148/3/3
f 150/3/3 129/3/3 128/3/3
f 150/2/3 113/2/3 149/2/3
f 150/3/3 128/3/3 113/3/3
f 151/3/3 129/3/3 150/3/3
f 152/2/3 97/2/3 115/2/3
f 152/4/3 139/4/3 138/4/3
f 152/4/3 138/4/3 97/4/3
f 153/3/3 117/3/3 139/3/3
f 153/4/3 139/4/3 152/4/3
f 154/2/3 118/2/3 117/2/3
f 154/3/3 117/3/3 153/3/3
f 155/3/3 131/3/3 130/3/3
f 155/2/3 118/2/3 154/2/3
f 155/3/3 130/3/3 118/3/3
f 156/3/3 131/3/3 155/3/3
f 157/2/3 101/2/3 120/2/3
f 157/4/3 141/4/3 140/4/3
f 157/4/3 140/4/3 101/4/3
f 158/3/3 122/3/3 141/3/3
f 158/4/3 141/4/3 157/4/3
f 159/2/3 123/2/3 122/2/3
f 159/3/3 122/3/3 158/3/3
f 160/3/3 133/3/3 132/3/3
f 160/2/3 123/2/3 159/2/3
f 160/3/3 132/3/3 123/3/3
f 161/3/3 133/3/3 160/3/3
f 162/2/3 142/2/3 88/2/3
f 162/2/3 143/2/3 142/2/3
f 162/2/3 144/2/3 143/2/3
f 162/2/3 145/2/3 144/2/3
f 163/2/3 145/2/3 162/2/3
f 164/2/3 145/2/3 163/2/3
f 165/3/3 127/3/3 146/3/3
f 165/1/3 110/1/3 127/1/3
f 166/2/3 147/2/3 110/2/3
f 166/1/3 110/1/3 165/1/3
f 166/2/3 148/2/3 147/2/3
f 166/2/3 149/2/3 148/2/3
f 166/2/3 150/2/3 149/2/3
f 167/2/3 150/2/3 166/2/3
f 168/2/3 150/2/3 167/2/3
f 169/2/3 150/2/3 168/2/3
f 170/3/3 129/3/3 151/3/3
f 170/1/3 115/1/3 129/1/3
f 171/2/3 152/2/3 115/2/3
f 171/1/3 115/1/3 170/1/3
f 171/2/3 154/2/3 153/2/3
f 171/2/3 155/2/3 154/2/3
f 171/2/3 153/2/3 152/2/3
f 172/2/3 155/2/3 171/2/3
f 173/2/3 155/2/3 172/2/3
f 174/2/3 155/2/3 173/2/3
f 175/3/3 131/3/3 156/3/3
f 175/1/3 120/1/3 131/1/3
f 176/2/3 157/2/3 120/2/3
f 176/1/3 120/1/3 175/1/3
f 176/2/3 159/2/3 158/2/3
f 176/2/3 160/2/3 159/2/3
f 176/2/3 158/2/3 157/2/3
f 177/2/3 160/2/3 176/2/3
f 178/2/3 160/2/3 177/2/3
f 179/2/3 160/2/3 178/2/3
f 180/1/3 125/1/3 133/1/3
f 180/3/3 133/3/3 161/3/3
f 181/1/3 125/1/3 180/1/3
f 182/1/3 164/1/3 163/1/3
f 182/3/3 163/3/3 162/3/3
f 183/1/3 164/1/3 182/1/3
f 184/1/3 169/1/3 168/1/3
f 184/3/3 168/3/3 167/3/3
f 185/1/3 169/1/3 184/1/3
f 186/3/3 173/3/3 172/3/3
f 186/1/3 174/1/3 173/1/3
f 187/1/3 174/1/3 186/1/3
f 188/1/3 179/1/3 178/1/3
f 188/3/3 178/3/3 177/3/3
f 189/1/3 179/1/3 188/1/3
f 190/3/3 165/3/3 146/3/3
f 190/4/3 146/4/3 145/4/3
f 190/3/3 166/3/3 165/3/3
f 191/3/3 166/3/3 190/3/3
f 192/3/3 170/3/3 151/3/3
f 192/4/3 151/4/3 150/4/3
f 192/3/3 171/3/3 170/3/3
f 193/3/3 171/3/3 192/3/3
f 194/3/3 175/3/3 156/3/3
f 194/4/3 156/4/3 155/4/3
f 194/3/3 176/3/3 175/3/3
f 195/3/3 176/3/3 194/3/3
f 196/4/3 161/4/3 160/4/3
f 196/3/3 181/3/3 180/3/3
f 196/3/3 180/3/3 161/3/3
f 197/3/3 181/3/3 196/3/3
f 198/2/3 162/2/3 88/2/3
f 199/3/3 183/3/3 182/3/3
f 199/2/3 162/2/3 198/2/3
f 199/3/3 182/3/3 162/3/3
f 200/1/3 164/1/3 183/1/3
f 200/3/3 183/3/3 199/3/3
f 201/2/3 145/2/3 164/2/3
f 201/1/3 164/1/3 200/1/3
f 202/4/3 191/4/3 190/4/3
f 202/2/3 145/2/3 201/2/3
f 202/4/3 190/4/3 145/4/3
f 203/3/3 166/3/3 191/3/3
f 203/4/3 191/4/3 202/4/3
f 204/2/3 167/2/3 166/2/3
f 204/3/3 166/3/3 203/3/3
f 205/3/3 185/3/3 184/3/3
f 205/2/3 167/2/3 204/2/3
f 205/3/3 184/3/3 167/3/3
f 206/1/3 169/1/3 185/1/3
f 206/3/3 185/3/3 205/3/3
f 207/2/3 150/2/3 169/2/3
f 207/1/3 169/1/3 206/1/3
f 208/4/3 193/4/3 192/4/3
f 208/2/3 150/2/3 207/2/3
f 208/4/3 192/4/3 150/4/3
f 209/3/3 171/3/3 193/3/3
f 209/4/3 193/4/3 208/4/3
f 210/2/3 172/2/3 171/2/3
f 210/3/3 171/3/3 209/3/3
f 211/3/3 186/3/3 172/3/3
f 211/2/3 172/2/3 210/2/3
f 211/3/3 187/3/3 186/3/3
f 212/1/3 174/1/3 187/1/3
f 212/3/3 187/3/3 211/3/3
f 213/2/3 155/2/3 174/2/3
f 213/1/3 174/1/3 212/1/3
f 214/4/3 195/4/3 194/4/3
f 214/2/3 155/2/3 213/2/3
f 214/4/3 194/4/3 155/4/3
f 215/3/3 176/3/3 195/3/3
f 215/4/3 195/4/3 214/4/3
f 216/2/3 177/2/3 176/2/3
f 216/3/3 176/3/3 215/3/3
f 217/3/3 189/3/3 188/3/3
f 217/2/3 177/2/3 216/2/3
f 217/3/3 188/3/3 177/3/3
f 218/1/3 179/1/3 189/1/3
f 218/3/3 189/3/3 217/3/3
f 219/2/3 160/2/3 179/2/3
f 219/1/3 179/1/3 218/1/3
f 220/4/3 196/4/3 160/4/3
f 220/2/3 160/2/3 219/2/3
f 220/4/3 197/4/3 196/4/3
f 221/3/3 181/3/3 197/3/3
f 221/4/3 197/4/3 220/4/3
f 222/3/3 181/3/3 221/3/3
f 223/2/4 224/2/4 225/2/4
f 225/2/4 224/2/4 226/2/4
f 229/2/5 228/2/5 227/2/5
f 230/2/5 228/2/5 229/2/5
f 231/2/6 232/2/6 235/2/6
f 232/1/6 233/1/6 235/1/6
f 233/3/6 234/3/6 236/3/6
f 235/1/6 233/1/6 236/1/6
f 236/3/6 234/3/6 237/3/6
f 231/2/6 235/2/6 238/2/6
f 235/2/6 236/2/6 238/2/6
f 236/2/6 237/2/6 238/2/6
f 238/2/6 237/2/6 239/2/6
