# MagicaVoxel @ Ephtracy

# group
g box1

# material
mtllib box1.mtl
usemtl palette

# normals
vn -1 0 0
vn 1 0 0
vn 0 0 1
vn 0 0 -1
vn 0 -1 0
vn 0 1 0

# texcoords
vt 0.357422 0.5
vt 0.365234 0.5
vt 0.392578 0.5

# verts
v -16 0 12
v -16 0 -11
v -16 1 12
v -16 1 -11
v -16 8 9
v -16 8 8
v -16 11 11
v -16 11 10
v -16 11 7
v -16 11 6
v -16 12 11
v -16 12 10
v -16 12 9
v -16 12 8
v -16 12 7
v -16 12 6
v -16 13 10
v -16 13 9
v -16 13 8
v -16 13 7
v -16 14 9
v -16 14 8
v -16 15 12
v -16 15 -11
v -16 16 12
v -16 16 -11
v 15 0 12
v 15 0 -11
v 15 1 12
v 15 1 -11
v 15 8 -7
v 15 8 -8
v 15 11 -5
v 15 11 -6
v 15 11 -9
v 15 11 -10
v 15 12 -5
v 15 12 -6
v 15 12 -7
v 15 12 -8
v 15 12 -9
v 15 12 -10
v 15 13 -6
v 15 13 -7
v 15 13 -8
v 15 13 -9
v 15 14 -7
v 15 14 -8
v 15 15 12
v 15 15 -11
v 15 16 12
v 15 16 -11
v -16 0 12
v -16 1 12
v -16 15 12
v -16 16 12
v 15 0 12
v 15 1 12
v 15 15 12
v 15 16 12
v -16 0 -11
v -16 1 -11
v -16 15 -11
v -16 16 -11
v 15 0 -11
v 15 1 -11
v 15 15 -11
v 15 16 -11
v -16 0 12
v 15 0 12
v -15 0 11
v 14 0 11
v -15 0 2
v 14 0 2
v -15 0 -1
v 14 0 -1
v -15 0 -10
v 14 0 -10
v -16 0 -11
v 15 0 -11
v -16 16 12
v 15 16 12
v -15 16 11
v 14 16 11
v -15 16 2
v 14 16 2
v -15 16 -1
v 14 16 -1
v -15 16 -10
v 14 16 -10
v -16 16 -11
v 15 16 -11

# faces
f 3/1/1 2/1/1 1/1/1
f 4/1/1 2/1/1 3/1/1
f 5/3/1 4/3/1 3/3/1
f 6/3/1 4/3/1 5/3/1
f 7/3/1 5/3/1 3/3/1
f 8/3/1 5/3/1 7/3/1
f 9/3/1 4/3/1 6/3/1
f 10/3/1 4/3/1 9/3/1
f 11/3/1 7/3/1 3/3/1
f 11/2/1 8/2/1 7/2/1
f 12/3/1 5/3/1 8/3/1
f 12/2/1 8/2/1 11/2/1
f 13/2/1 6/2/1 5/2/1
f 13/3/1 5/3/1 12/3/1
f 14/3/1 9/3/1 6/3/1
f 14/2/1 6/2/1 13/2/1
f 15/2/1 10/2/1 9/2/1
f 15/3/1 9/3/1 14/3/1
f 16/3/1 4/3/1 10/3/1
f 16/2/1 10/2/1 15/2/1
f 17/3/1 12/3/1 11/3/1
f 17/2/1 15/2/1 14/2/1
f 17/2/1 14/2/1 13/2/1
f 17/2/1 13/2/1 12/2/1
f 18/2/1 15/2/1 17/2/1
f 19/2/1 15/2/1 18/2/1
f 20/3/1 16/3/1 15/3/1
f 20/2/1 15/2/1 19/2/1
f 21/2/1 19/2/1 18/2/1
f 21/3/1 18/3/1 17/3/1
f 22/3/1 20/3/1 19/3/1
f 22/2/1 19/2/1 21/2/1
f 23/3/1 11/3/1 3/3/1
f 23/3/1 17/3/1 11/3/1
f 23/3/1 22/3/1 21/3/1
f 23/3/1 21/3/1 17/3/1
f 24/3/1 20/3/1 22/3/1
f 24/3/1 22/3/1 23/3/1
f 24/3/1 4/3/1 16/3/1
f 24/3/1 16/3/1 20/3/1
f 25/1/1 24/1/1 23/1/1
f 26/1/1 24/1/1 25/1/1
f 27/1/2 28/1/2 29/1/2
f 29/1/2 28/1/2 30/1/2
f 29/3/2 30/3/2 31/3/2
f 31/3/2 30/3/2 32/3/2
f 29/3/2 31/3/2 33/3/2
f 33/3/2 31/3/2 34/3/2
f 32/3/2 30/3/2 35/3/2
f 35/3/2 30/3/2 36/3/2
f 29/3/2 33/3/2 37/3/2
f 33/2/2 34/2/2 37/2/2
f 34/3/2 31/3/2 38/3/2
f 37/2/2 34/2/2 38/2/2
f 31/2/2 32/2/2 39/2/2
f 38/3/2 31/3/2 39/3/2
f 32/3/2 35/3/2 40/3/2
f 39/2/2 32/2/2 40/2/2
f 35/2/2 36/2/2 41/2/2
f 40/3/2 35/3/2 41/3/2
f 36/3/2 30/3/2 42/3/2
f 41/2/2 36/2/2 42/2/2
f 37/3/2 38/3/2 43/3/2
f 40/2/2 41/2/2 43/2/2
f 39/2/2 40/2/2 43/2/2
f 38/2/2 39/2/2 43/2/2
f 43/2/2 41/2/2 44/2/2
f 44/2/2 41/2/2 45/2/2
f 41/3/2 42/3/2 46/3/2
f 45/2/2 41/2/2 46/2/2
f 44/2/2 45/2/2 47/2/2
f 43/3/2 44/3/2 47/3/2
f 45/3/2 46/3/2 48/3/2
f 47/2/2 45/2/2 48/2/2
f 29/3/2 37/3/2 49/3/2
f 37/3/2 43/3/2 49/3/2
f 47/3/2 48/3/2 49/3/2
f 43/3/2 47/3/2 49/3/2
f 48/3/2 46/3/2 50/3/2
f 49/3/2 48/3/2 50/3/2
f 42/3/2 30/3/2 50/3/2
f 46/3/2 42/3/2 50/3/2
f 49/1/2 50/1/2 51/1/2
f 51/1/2 50/1/2 52/1/2
f 57/1/3 54/1/3 53/1/3
f 58/3/3 55/3/3 54/3/3
f 58/1/3 54/1/3 57/1/3
f 59/1/3 56/1/3 55/1/3
f 59/3/3 55/3/3 58/3/3
f 60/1/3 56/1/3 59/1/3
f 61/1/4 62/1/4 65/1/4
f 62/3/4 63/3/4 66/3/4
f 65/1/4 62/1/4 66/1/4
f 63/1/4 64/1/4 67/1/4
f 66/3/4 63/3/4 67/3/4
f 67/1/4 64/1/4 68/1/4
f 71/1/5 70/1/5 69/1/5
f 72/1/5 70/1/5 71/1/5
f 73/1/5 71/1/5 69/1/5
f 73/3/5 72/3/5 71/3/5
f 74/1/5 70/1/5 72/1/5
f 74/3/5 72/3/5 73/3/5
f 75/1/5 73/1/5 69/1/5
f 75/1/5 74/1/5 73/1/5
f 76/1/5 70/1/5 74/1/5
f 76/1/5 74/1/5 75/1/5
f 77/1/5 75/1/5 69/1/5
f 77/3/5 76/3/5 75/3/5
f 78/1/5 70/1/5 76/1/5
f 78/3/5 76/3/5 77/3/5
f 79/1/5 77/1/5 69/1/5
f 79/1/5 78/1/5 77/1/5
f 80/1/5 70/1/5 78/1/5
f 80/1/5 78/1/5 79/1/5
f 81/1/6 82/1/6 83/1/6
f 83/1/6 82/1/6 84/1/6
f 81/1/6 83/1/6 85/1/6
f 83/3/6 84/3/6 85/3/6
f 84/1/6 82/1/6 86/1/6
f 85/3/6 84/3/6 86/3/6
f 81/1/6 85/1/6 87/1/6
f 85/1/6 86/1/6 87/1/6
f 86/1/6 82/1/6 88/1/6
f 87/1/6 86/1/6 88/1/6
f 81/1/6 87/1/6 89/1/6
f 87/3/6 88/3/6 89/3/6
f 88/1/6 82/1/6 90/1/6
f 89/3/6 88/3/6 90/3/6
f 81/1/6 89/1/6 91/1/6
f 89/1/6 90/1/6 91/1/6
f 90/1/6 82/1/6 92/1/6
f 91/1/6 90/1/6 92/1/6
