# MagicaVoxel @ Ephtracy

# group
g fluorescentLight

# material
mtllib fluorescentLight.mtl
usemtl palette

# normals
vn -1 0 0
vn 1 0 0
vn 0 0 1
vn 0 0 -1
vn 0 -1 0
vn 0 1 0

# texcoords
vt 0.970703 0.5
vt 0.974609 0.5
vt 0.978516 0.5
vt 0.982422 0.5

# verts
v -4.5 0 16.5
v -4.5 0 -15.5
v -4.5 3 16.5
v -4.5 3 -15.5
v -2.5 3 16.5
v -2.5 3 -15.5
v -2.5 4 16.5
v -2.5 4 -15.5
v -1.5 4 14.5
v -1.5 4 10.5
v -1.5 4 -9.5
v -1.5 4 -13.5
v -1.5 5 14.5
v -1.5 5 10.5
v -1.5 5 -9.5
v -1.5 5 -13.5
v -0.5 5 13.5
v -0.5 5 11.5
v -0.5 5 -10.5
v -0.5 5 -12.5
v -0.5 12 13.5
v -0.5 12 11.5
v -0.5 12 -10.5
v -0.5 12 -12.5
v 3.5 0 15.5
v 3.5 0 -14.5
v 3.5 1 15.5
v 3.5 1 -14.5
v -3.5 0 15.5
v -3.5 0 -14.5
v -3.5 1 15.5
v -3.5 1 -14.5
v 0.5 5 13.5
v 0.5 5 11.5
v 0.5 5 -10.5
v 0.5 5 -12.5
v 0.5 12 13.5
v 0.5 12 11.5
v 0.5 12 -10.5
v 0.5 12 -12.5
v 1.5 4 14.5
v 1.5 4 10.5
v 1.5 4 -9.5
v 1.5 4 -13.5
v 1.5 5 14.5
v 1.5 5 10.5
v 1.5 5 -9.5
v 1.5 5 -13.5
v 2.5 3 16.5
v 2.5 3 -15.5
v 2.5 4 16.5
v 2.5 4 -15.5
v 4.5 0 16.5
v 4.5 0 -15.5
v 4.5 3 16.5
v 4.5 3 -15.5
v -4.5 0 16.5
v -4.5 3 16.5
v -2.5 3 16.5
v -2.5 4 16.5
v 2.5 3 16.5
v 2.5 4 16.5
v 4.5 0 16.5
v 4.5 3 16.5
v -1.5 4 14.5
v -1.5 5 14.5
v 1.5 4 14.5
v 1.5 5 14.5
v -0.5 5 13.5
v -0.5 12 13.5
v 0.5 5 13.5
v 0.5 12 13.5
v -1.5 4 -9.5
v -1.5 5 -9.5
v 1.5 4 -9.5
v 1.5 5 -9.5
v -0.5 5 -10.5
v -0.5 12 -10.5
v 0.5 5 -10.5
v 0.5 12 -10.5
v -3.5 0 -14.5
v -3.5 1 -14.5
v 3.5 0 -14.5
v 3.5 1 -14.5
v -3.5 0 15.5
v -3.5 1 15.5
v 3.5 0 15.5
v 3.5 1 15.5
v -0.5 5 11.5
v -0.5 12 11.5
v 0.5 5 11.5
v 0.5 12 11.5
v -1.5 4 10.5
v -1.5 5 10.5
v 1.5 4 10.5
v 1.5 5 10.5
v -0.5 5 -12.5
v -0.5 12 -12.5
v 0.5 5 -12.5
v 0.5 12 -12.5
v -1.5 4 -13.5
v -1.5 5 -13.5
v 1.5 4 -13.5
v 1.5 5 -13.5
v -4.5 0 -15.5
v -4.5 3 -15.5
v -2.5 3 -15.5
v -2.5 4 -15.5
v 2.5 3 -15.5
v 2.5 4 -15.5
v 4.5 0 -15.5
v 4.5 3 -15.5
v -4.5 0 16.5
v 4.5 0 16.5
v -3.5 0 15.5
v 3.5 0 15.5
v -3.5 0 -14.5
v 3.5 0 -14.5
v -4.5 0 -15.5
v 4.5 0 -15.5
v -3.5 1 15.5
v 3.5 1 15.5
v -3.5 1 -14.5
v 3.5 1 -14.5
v -4.5 3 16.5
v -2.5 3 16.5
v 2.5 3 16.5
v 4.5 3 16.5
v -4.5 3 -15.5
v -2.5 3 -15.5
v 2.5 3 -15.5
v 4.5 3 -15.5
v -2.5 4 16.5
v 2.5 4 16.5
v -1.5 4 14.5
v 1.5 4 14.5
v -1.5 4 10.5
v 1.5 4 10.5
v -1.5 4 -9.5
v 1.5 4 -9.5
v -1.5 4 -13.5
v 1.5 4 -13.5
v -2.5 4 -15.5
v 2.5 4 -15.5
v -1.5 5 14.5
v 1.5 5 14.5
v -0.5 5 13.5
v 0.5 5 13.5
v -0.5 5 11.5
v 0.5 5 11.5
v -1.5 5 10.5
v 1.5 5 10.5
v -1.5 5 -9.5
v 1.5 5 -9.5
v -0.5 5 -10.5
v 0.5 5 -10.5
v -0.5 5 -12.5
v 0.5 5 -12.5
v -1.5 5 -13.5
v 1.5 5 -13.5
v -0.5 12 13.5
v 0.5 12 13.5
v -0.5 12 11.5
v 0.5 12 11.5
v -0.5 12 -10.5
v 0.5 12 -10.5
v -0.5 12 -12.5
v 0.5 12 -12.5

# faces
f 3/2/1 2/2/1 1/2/1
f 4/2/1 2/2/1 3/2/1
f 7/2/1 6/2/1 5/2/1
f 8/2/1 6/2/1 7/2/1
f 13/3/1 10/3/1 9/3/1
f 14/3/1 10/3/1 13/3/1
f 15/3/1 12/3/1 11/3/1
f 16/3/1 12/3/1 15/3/1
f 21/4/1 18/4/1 17/4/1
f 22/4/1 18/4/1 21/4/1
f 23/4/1 20/4/1 19/4/1
f 24/4/1 20/4/1 23/4/1
f 27/2/1 26/2/1 25/2/1
f 28/2/1 26/2/1 27/2/1
f 29/2/2 30/2/2 31/2/2
f 31/2/2 30/2/2 32/2/2
f 33/4/2 34/4/2 37/4/2
f 37/4/2 34/4/2 38/4/2
f 35/4/2 36/4/2 39/4/2
f 39/4/2 36/4/2 40/4/2
f 41/3/2 42/3/2 45/3/2
f 45/3/2 42/3/2 46/3/2
f 43/3/2 44/3/2 47/3/2
f 47/3/2 44/3/2 48/3/2
f 49/2/2 50/2/2 51/2/2
f 51/2/2 50/2/2 52/2/2
f 53/2/2 54/2/2 55/2/2
f 55/2/2 54/2/2 56/2/2
f 59/2/3 58/2/3 57/2/3
f 61/2/3 59/2/3 57/2/3
f 61/2/3 60/2/3 59/2/3
f 62/2/3 60/2/3 61/2/3
f 63/2/3 61/2/3 57/2/3
f 64/2/3 61/2/3 63/2/3
f 67/3/3 66/3/3 65/3/3
f 68/3/3 66/3/3 67/3/3
f 71/4/3 70/4/3 69/4/3
f 72/4/3 70/4/3 71/4/3
f 75/3/3 74/3/3 73/3/3
f 76/3/3 74/3/3 75/3/3
f 79/4/3 78/4/3 77/4/3
f 80/4/3 78/4/3 79/4/3
f 83/2/3 82/2/3 81/2/3
f 84/2/3 82/2/3 83/2/3
f 85/2/4 86/2/4 87/2/4
f 87/2/4 86/2/4 88/2/4
f 89/4/4 90/4/4 91/4/4
f 91/4/4 90/4/4 92/4/4
f 93/3/4 94/3/4 95/3/4
f 95/3/4 94/3/4 96/3/4
f 97/4/4 98/4/4 99/4/4
f 99/4/4 98/4/4 100/4/4
f 101/3/4 102/3/4 103/3/4
f 103/3/4 102/3/4 104/3/4
f 105/2/4 106/2/4 107/2/4
f 105/2/4 107/2/4 109/2/4
f 107/2/4 108/2/4 109/2/4
f 109/2/4 108/2/4 110/2/4
f 105/2/4 109/2/4 111/2/4
f 111/2/4 109/2/4 112/2/4
f 115/2/5 114/2/5 113/2/5
f 116/2/5 114/2/5 115/2/5
f 117/2/5 115/2/5 113/2/5
f 118/2/5 114/2/5 116/2/5
f 119/2/5 117/2/5 113/2/5
f 119/2/5 118/2/5 117/2/5
f 120/2/5 114/2/5 118/2/5
f 120/2/5 118/2/5 119/2/5
f 123/1/5 122/1/5 121/1/5
f 124/1/5 122/1/5 123/1/5
f 125/2/6 126/2/6 129/2/6
f 129/2/6 126/2/6 130/2/6
f 127/2/6 128/2/6 131/2/6
f 131/2/6 128/2/6 132/2/6
f 133/2/6 134/2/6 135/2/6
f 135/2/6 134/2/6 136/2/6
f 133/2/6 135/2/6 137/2/6
f 136/2/6 134/2/6 138/2/6
f 133/2/6 137/2/6 139/2/6
f 137/2/6 138/2/6 139/2/6
f 138/2/6 134/2/6 140/2/6
f 139/2/6 138/2/6 140/2/6
f 133/2/6 139/2/6 141/2/6
f 140/2/6 134/2/6 142/2/6
f 133/2/6 141/2/6 143/2/6
f 141/2/6 142/2/6 143/2/6
f 142/2/6 134/2/6 144/2/6
f 143/2/6 142/2/6 144/2/6
f 145/3/6 146/3/6 147/3/6
f 147/3/6 146/3/6 148/3/6
f 145/3/6 147/3/6 149/3/6
f 148/3/6 146/3/6 150/3/6
f 145/3/6 149/3/6 151/3/6
f 149/3/6 150/3/6 151/3/6
f 150/3/6 146/3/6 152/3/6
f 151/3/6 150/3/6 152/3/6
f 153/3/6 154/3/6 155/3/6
f 155/3/6 154/3/6 156/3/6
f 153/3/6 155/3/6 157/3/6
f 156/3/6 154/3/6 158/3/6
f 153/3/6 157/3/6 159/3/6
f 157/3/6 158/3/6 159/3/6
f 158/3/6 154/3/6 160/3/6
f 159/3/6 158/3/6 160/3/6
f 161/4/6 162/4/6 163/4/6
f 163/4/6 162/4/6 164/4/6
f 165/4/6 166/4/6 167/4/6
f 167/4/6 166/4/6 168/4/6
