# MagicaVoxel @ Ephtracy

# group
g HarrisL_TheVault_Heist-24

# material
mtllib HarrisL_TheVault_Heist-24.mtl
usemtl palette

# normals
vn -1 0 0
vn 1 0 0
vn 0 0 1
vn 0 0 -1
vn 0 -1 0
vn 0 1 0

# texcoords
vt 0.158203 0.5
vt 0.162109 0.5
vt 0.373047 0.5

# verts
v -4 0 4
v -4 0 -4
v -4 1 3
v -4 1 -3
v -4 7 3
v -4 7 -3
v -4 8 4
v -4 8 -4
v -2 3 3
v -2 3 1
v -2 3 -0
v -2 3 -2
v -2 4 3
v -2 4 2
v -2 4 1
v -2 4 -0
v -2 4 -2
v 0 3 2
v 0 3 1
v 0 3 -2
v 0 3 -3
v 0 4 -2
v 0 4 -3
v 0 5 2
v 0 5 1
v 1 3 3
v 1 3 2
v 1 3 1
v 1 3 -2
v 1 4 3
v 1 4 2
v 1 4 1
v 1 4 -1
v 1 4 -2
v 1 5 -1
v 1 5 -2
v 3 3 3
v 3 3 -0
v 3 4 -0
v 3 4 -3
v 3 7 3
v 3 7 -3
v 3 8 3
v 3 8 -3
v -3 3 3
v -3 3 -2
v -3 4 2
v -3 4 1
v -3 4 -2
v -3 4 -3
v -3 5 2
v -3 5 1
v -3 7 3
v -3 7 -3
v -3 8 3
v -3 8 -3
v -2 3 -2
v -2 3 -3
v -2 4 2
v -2 4 1
v -2 4 -2
v -2 4 -3
v -2 5 2
v -2 5 1
v -1 3 3
v -1 3 1
v -1 4 3
v -1 4 1
v 0 3 -0
v 0 3 -2
v 0 4 -0
v 0 4 -2
v 1 4 2
v 1 4 1
v 1 5 2
v 1 5 1
v 2 3 3
v 2 3 -0
v 2 4 3
v 2 4 -0
v 2 4 -1
v 2 4 -2
v 2 5 -1
v 2 5 -2
v 4 0 4
v 4 0 -4
v 4 1 3
v 4 1 -3
v 4 7 3
v 4 7 -3
v 4 8 4
v 4 8 -4
v -4 0 4
v -4 8 4
v -3 1 4
v -3 7 4
v 3 1 4
v 3 7 4
v 4 0 4
v 4 8 4
v -3 4 2
v -3 5 2
v -2 4 2
v -2 5 2
v 0 3 2
v 0 5 2
v 1 3 2
v 1 4 2
v 1 5 2
v -2 3 -0
v -2 4 -0
v 0 3 -0
v 0 4 -0
v 2 3 -0
v 2 4 -0
v 3 3 -0
v 3 4 -0
v 1 4 -1
v 1 5 -1
v 2 4 -1
v 2 5 -1
v -3 3 -2
v -3 4 -2
v -2 3 -2
v -2 4 -2
v 0 3 -2
v 0 4 -2
v 1 3 -2
v 1 4 -2
v -3 4 -3
v -3 7 -3
v -3 8 -3
v -2 3 -3
v -2 4 -3
v 0 3 -3
v 0 4 -3
v 3 4 -3
v 3 7 -3
v 3 8 -3
v -3 3 3
v -3 7 3
v -3 8 3
v -2 3 3
v -2 4 3
v -1 3 3
v -1 4 3
v 1 3 3
v 1 4 3
v 2 3 3
v 2 4 3
v 3 3 3
v 3 7 3
v 3 8 3
v -3 4 1
v -3 5 1
v -2 3 1
v -2 4 1
v -2 5 1
v -1 3 1
v -1 4 1
v 0 3 1
v 0 5 1
v 1 3 1
v 1 4 1
v 1 5 1
v -2 3 -2
v -2 4 -2
v 0 3 -2
v 0 4 -2
v 1 4 -2
v 1 5 -2
v 2 4 -2
v 2 5 -2
v -4 0 -4
v -4 8 -4
v -3 1 -4
v -3 7 -4
v 3 1 -4
v 3 7 -4
v 4 0 -4
v 4 8 -4
v -4 0 4
v 4 0 4
v -3 0 3
v 3 0 3
v -3 0 -3
v 3 0 -3
v -4 0 -4
v 4 0 -4
v -3 4 2
v -2 4 2
v -3 4 1
v -2 4 1
v -3 3 3
v -2 3 3
v -1 3 3
v 1 3 3
v 2 3 3
v 3 3 3
v 0 3 2
v 1 3 2
v -2 3 1
v -1 3 1
v 0 3 1
v 1 3 1
v -2 3 -0
v 0 3 -0
v 2 3 -0
v 3 3 -0
v -3 3 -2
v -2 3 -2
v 0 3 -2
v 1 3 -2
v -2 3 -3
v 0 3 -3
v -2 4 3
v -1 4 3
v 1 4 3
v 2 4 3
v -2 4 2
v 1 4 2
v -2 4 1
v -1 4 1
v 1 4 1
v -2 4 -0
v 0 4 -0
v 2 4 -0
v 3 4 -0
v 1 4 -1
v 2 4 -1
v -3 4 -2
v -2 4 -2
v 0 4 -2
v 1 4 -2
v 2 4 -2
v -3 4 -3
v -2 4 -3
v 0 4 -3
v 3 4 -3
v -3 5 2
v -2 5 2
v 0 5 2
v 1 5 2
v -3 5 1
v -2 5 1
v 0 5 1
v 1 5 1
v 1 5 -1
v 2 5 -1
v 1 5 -2
v 2 5 -2
v -4 8 4
v 4 8 4
v -3 8 3
v 3 8 3
v -3 8 -3
v 3 8 -3
v -4 8 -4
v 4 8 -4

# faces
f 3/2/1 2/2/1 1/2/1
f 4/2/1 2/2/1 3/2/1
f 5/2/1 3/2/1 1/2/1
f 5/1/1 4/1/1 3/1/1
f 6/2/1 2/2/1 4/2/1
f 6/1/1 4/1/1 5/1/1
f 7/2/1 5/2/1 1/2/1
f 7/2/1 6/2/1 5/2/1
f 8/2/1 2/2/1 6/2/1
f 8/2/1 6/2/1 7/2/1
f 13/3/1 10/3/1 9/3/1
f 14/3/1 10/3/1 13/3/1
f 15/3/1 10/3/1 14/3/1
f 16/3/1 12/3/1 11/3/1
f 17/3/1 12/3/1 16/3/1
f 22/3/1 21/3/1 20/3/1
f 23/3/1 21/3/1 22/3/1
f 24/3/1 19/3/1 18/3/1
f 25/3/1 19/3/1 24/3/1
f 30/3/1 27/3/1 26/3/1
f 31/3/1 27/3/1 30/3/1
f 32/3/1 29/3/1 28/3/1
f 33/3/1 29/3/1 32/3/1
f 34/3/1 29/3/1 33/3/1
f 35/3/1 34/3/1 33/3/1
f 36/3/1 34/3/1 35/3/1
f 39/1/1 38/1/1 37/1/1
f 41/1/1 39/1/1 37/1/1
f 41/1/1 40/1/1 39/1/1
f 42/1/1 40/1/1 41/1/1
f 43/2/1 42/2/1 41/2/1
f 44/2/1 42/2/1 43/2/1
f 45/1/2 46/1/2 47/1/2
f 47/1/2 46/1/2 48/1/2
f 48/1/2 46/1/2 49/1/2
f 45/1/2 47/1/2 51/1/2
f 49/1/2 50/1/2 52/1/2
f 48/1/2 49/1/2 52/1/2
f 45/1/2 51/1/2 53/1/2
f 51/1/2 52/1/2 53/1/2
f 52/1/2 50/1/2 54/1/2
f 53/1/2 52/1/2 54/1/2
f 53/2/2 54/2/2 55/2/2
f 55/2/2 54/2/2 56/2/2
f 57/3/2 58/3/2 61/3/2
f 61/3/2 58/3/2 62/3/2
f 59/3/2 60/3/2 63/3/2
f 63/3/2 60/3/2 64/3/2
f 65/3/2 66/3/2 67/3/2
f 67/3/2 66/3/2 68/3/2
f 69/3/2 70/3/2 71/3/2
f 71/3/2 70/3/2 72/3/2
f 73/3/2 74/3/2 75/3/2
f 75/3/2 74/3/2 76/3/2
f 77/3/2 78/3/2 79/3/2
f 79/3/2 78/3/2 80/3/2
f 81/3/2 82/3/2 83/3/2
f 83/3/2 82/3/2 84/3/2
f 85/2/2 86/2/2 87/2/2
f 87/2/2 86/2/2 88/2/2
f 85/2/2 87/2/2 89/2/2
f 87/1/2 88/1/2 89/1/2
f 88/2/2 86/2/2 90/2/2
f 89/1/2 88/1/2 90/1/2
f 85/2/2 89/2/2 91/2/2
f 89/2/2 90/2/2 91/2/2
f 90/2/2 86/2/2 92/2/2
f 91/2/2 90/2/2 92/2/2
f 95/2/3 94/2/3 93/2/3
f 96/2/3 94/2/3 95/2/3
f 97/2/3 95/2/3 93/2/3
f 97/1/3 96/1/3 95/1/3
f 98/2/3 94/2/3 96/2/3
f 98/1/3 96/1/3 97/1/3
f 99/2/3 97/2/3 93/2/3
f 99/2/3 98/2/3 97/2/3
f 100/2/3 94/2/3 98/2/3
f 100/2/3 98/2/3 99/2/3
f 103/3/3 102/3/3 101/3/3
f 104/3/3 102/3/3 103/3/3
f 107/3/3 106/3/3 105/3/3
f 108/3/3 106/3/3 107/3/3
f 109/3/3 106/3/3 108/3/3
f 112/3/3 111/3/3 110/3/3
f 113/3/3 111/3/3 112/3/3
f 116/3/3 115/3/3 114/3/3
f 117/3/3 115/3/3 116/3/3
f 120/3/3 119/3/3 118/3/3
f 121/3/3 119/3/3 120/3/3
f 124/3/3 123/3/3 122/3/3
f 125/3/3 123/3/3 124/3/3
f 128/3/3 127/3/3 126/3/3
f 129/3/3 127/3/3 128/3/3
f 134/1/3 131/1/3 130/1/3
f 135/1/3 134/1/3 133/1/3
f 136/1/3 131/1/3 134/1/3
f 136/1/3 134/1/3 135/1/3
f 137/1/3 131/1/3 136/1/3
f 138/2/3 132/2/3 131/2/3
f 138/1/3 131/1/3 137/1/3
f 139/2/3 132/2/3 138/2/3
f 140/1/4 141/1/4 143/1/4
f 143/1/4 141/1/4 144/1/4
f 144/1/4 141/1/4 146/1/4
f 145/1/4 146/1/4 147/1/4
f 146/1/4 141/1/4 148/1/4
f 147/1/4 146/1/4 148/1/4
f 148/1/4 141/1/4 150/1/4
f 149/1/4 150/1/4 151/1/4
f 141/2/4 142/2/4 152/2/4
f 151/1/4 150/1/4 152/1/4
f 150/1/4 141/1/4 152/1/4
f 152/2/4 142/2/4 153/2/4
f 154/3/4 155/3/4 157/3/4
f 157/3/4 155/3/4 158/3/4
f 156/3/4 157/3/4 159/3/4
f 159/3/4 157/3/4 160/3/4
f 161/3/4 162/3/4 163/3/4
f 163/3/4 162/3/4 164/3/4
f 164/3/4 162/3/4 165/3/4
f 166/3/4 167/3/4 168/3/4
f 168/3/4 167/3/4 169/3/4
f 170/3/4 171/3/4 172/3/4
f 172/3/4 171/3/4 173/3/4
f 174/2/4 175/2/4 176/2/4
f 176/2/4 175/2/4 177/2/4
f 174/2/4 176/2/4 178/2/4
f 176/1/4 177/1/4 178/1/4
f 177/2/4 175/2/4 179/2/4
f 178/1/4 177/1/4 179/1/4
f 174/2/4 178/2/4 180/2/4
f 178/2/4 179/2/4 180/2/4
f 179/2/4 175/2/4 181/2/4
f 180/2/4 179/2/4 181/2/4
f 184/2/5 183/2/5 182/2/5
f 185/2/5 183/2/5 184/2/5
f 186/2/5 184/2/5 182/2/5
f 186/1/5 185/1/5 184/1/5
f 187/2/5 183/2/5 185/2/5
f 187/1/5 185/1/5 186/1/5
f 188/2/5 186/2/5 182/2/5
f 188/2/5 187/2/5 186/2/5
f 189/2/5 183/2/5 187/2/5
f 189/2/5 187/2/5 188/2/5
f 192/3/5 191/3/5 190/3/5
f 193/3/5 191/3/5 192/3/5
f 196/3/6 197/3/6 200/3/6
f 200/3/6 197/3/6 201/3/6
f 194/3/6 195/3/6 202/3/6
f 196/3/6 200/3/6 203/3/6
f 203/3/6 200/3/6 204/3/6
f 194/3/6 202/3/6 206/3/6
f 204/3/6 205/3/6 206/3/6
f 203/3/6 204/3/6 206/3/6
f 202/3/6 203/3/6 206/3/6
f 206/3/6 205/3/6 207/3/6
f 198/3/6 199/3/6 208/3/6
f 208/3/6 199/3/6 209/3/6
f 194/3/6 206/3/6 210/3/6
f 210/3/6 206/3/6 211/3/6
f 207/3/6 205/3/6 212/3/6
f 212/3/6 205/3/6 213/3/6
f 211/3/6 212/3/6 214/3/6
f 214/3/6 212/3/6 215/3/6
f 216/3/6 217/3/6 220/3/6
f 218/3/6 219/3/6 221/3/6
f 220/3/6 217/3/6 222/3/6
f 222/3/6 217/3/6 223/3/6
f 221/3/6 219/3/6 224/3/6
f 224/3/6 219/3/6 227/3/6
f 224/3/6 227/3/6 229/3/6
f 227/3/6 228/3/6 229/3/6
f 229/3/6 228/3/6 230/3/6
f 225/3/6 226/3/6 232/3/6
f 232/3/6 226/3/6 233/3/6
f 230/3/6 228/3/6 235/3/6
f 231/3/6 232/3/6 236/3/6
f 236/3/6 232/3/6 237/3/6
f 233/3/6 234/3/6 238/3/6
f 234/3/6 235/3/6 238/3/6
f 235/3/6 228/3/6 239/3/6
f 238/3/6 235/3/6 239/3/6
f 240/3/6 241/3/6 244/3/6
f 244/3/6 241/3/6 245/3/6
f 242/3/6 243/3/6 246/3/6
f 246/3/6 243/3/6 247/3/6
f 248/3/6 249/3/6 250/3/6
f 250/3/6 249/3/6 251/3/6
f 252/2/6 253/2/6 254/2/6
f 254/2/6 253/2/6 255/2/6
f 252/2/6 254/2/6 256/2/6
f 255/2/6 253/2/6 257/2/6
f 252/2/6 256/2/6 258/2/6
f 256/2/6 257/2/6 258/2/6
f 257/2/6 253/2/6 259/2/6
f 258/2/6 257/2/6 259/2/6
