# MagicaVoxel @ Ephtracy

# group
g HarrisL_TheVault_Heist-44

# material
mtllib HarrisL_TheVault_Heist-44.mtl
usemtl palette

# normals
vn -1 0 0
vn 1 0 0
vn 0 0 1
vn 0 0 -1
vn 0 -1 0
vn 0 1 0

# texcoords
vt 0.974609 0.5
vt 0.978516 0.5

# verts
v -4 3 1
v -4 3 -0
v -4 5 1
v -4 5 -0
v -2 3 -0
v -2 3 -1
v -2 5 -0
v -2 5 -1
v 2 3 1
v 2 3 -0
v 2 5 1
v 2 5 -0
v 4 3 -0
v 4 3 -1
v 4 5 -0
v 4 5 -1
v -4 3 1
v -4 5 1
v -3 3 1
v -3 5 1
v 2 3 1
v 2 5 1
v 2 3 -0
v 2 5 -0
v 4 3 -0
v 4 5 -0
v -4 3 -0
v -4 5 -0
v -3 3 -0
v -3 5 -0
v -2 3 -0
v -2 5 -0
v -2 3 -1
v -2 5 -1
v 2 3 -1
v 2 5 -1
v 4 3 -1
v 4 5 -1
v -4 3 1
v -3 3 1
v 2 3 1
v -4 3 -0
v -3 3 -0
v -2 3 -0
v 2 3 -0
v 4 3 -0
v -2 3 -1
v 2 3 -1
v 4 3 -1
v -4 5 1
v -3 5 1
v 2 5 1
v -4 5 -0
v -3 5 -0
v -2 5 -0
v 2 5 -0
v 4 5 -0
v -2 5 -1
v 2 5 -1
v 4 5 -1

# faces
f 3/2/1 2/2/1 1/2/1
f 4/2/1 2/2/1 3/2/1
f 7/1/1 6/1/1 5/1/1
f 8/1/1 6/1/1 7/1/1
f 9/1/2 10/1/2 11/1/2
f 11/1/2 10/1/2 12/1/2
f 13/2/2 14/2/2 15/2/2
f 15/2/2 14/2/2 16/2/2
f 19/2/3 18/2/3 17/2/3
f 20/2/3 18/2/3 19/2/3
f 21/1/3 20/1/3 19/1/3
f 22/1/3 20/1/3 21/1/3
f 25/2/3 24/2/3 23/2/3
f 26/2/3 24/2/3 25/2/3
f 27/2/4 28/2/4 29/2/4
f 29/2/4 28/2/4 30/2/4
f 29/1/4 30/1/4 31/1/4
f 31/1/4 30/1/4 32/1/4
f 33/1/4 34/1/4 35/1/4
f 35/1/4 34/1/4 36/1/4
f 35/2/4 36/2/4 37/2/4
f 37/2/4 36/2/4 38/2/4
f 42/2/5 40/2/5 39/2/5
f 43/1/5 41/1/5 40/1/5
f 43/2/5 40/2/5 42/2/5
f 44/1/5 41/1/5 43/1/5
f 45/1/5 41/1/5 44/1/5
f 47/1/5 45/1/5 44/1/5
f 48/2/5 46/2/5 45/2/5
f 48/1/5 45/1/5 47/1/5
f 49/2/5 46/2/5 48/2/5
f 50/2/6 51/2/6 53/2/6
f 51/1/6 52/1/6 54/1/6
f 53/2/6 51/2/6 54/2/6
f 54/1/6 52/1/6 55/1/6
f 55/1/6 52/1/6 56/1/6
f 55/1/6 56/1/6 58/1/6
f 56/2/6 57/2/6 59/2/6
f 58/1/6 56/1/6 59/1/6
f 59/2/6 57/2/6 60/2/6
