# This file uses centimeters as units for non-parametric coordinates.

mtllib MetalDoor.mtl
g default
v -0.000058 37.000168 0.503827
v -0.000058 0.000167 -0.496173
v -0.000058 0.000167 0.503827
v -0.000058 37.000168 -0.496173
v 19.999943 0.000167 0.503827
v 19.999943 0.000167 -0.496173
v 19.999943 37.000168 0.503827
v 19.999943 37.000168 -0.496173
v 13.999942 13.000166 0.503827
v 13.999942 20.000166 0.503827
v 17.999943 13.000166 0.503827
v 17.999943 20.000166 0.503827
v 13.999942 13.000166 -0.496173
v 13.999942 20.000166 -0.496173
v 17.999943 13.000166 -0.496173
v 17.999943 20.000166 -0.496173
vt 0.966800 0.500000
vt 0.970700 0.500000
vt 0.966800 0.500000
vt 0.966800 0.500000
vt 0.966800 0.500000
vt 0.966800 0.500000
vt 0.966800 0.500000
vt 0.966800 0.500000
vt 0.966800 0.500000
vt 0.966800 0.500000
vt 0.966800 0.500000
vt 0.966800 0.500000
vt 0.966800 0.500000
vt 0.966800 0.500000
vt 0.966800 0.500000
vt 0.966800 0.500000
vt 0.966800 0.500000
vt 0.966800 0.500000
vt 0.966800 0.500000
vt 0.970700 0.500000
vt 0.970700 0.500000
vt 0.966800 0.500000
vt 0.966800 0.500000
vt 0.970700 0.500000
vt 0.970700 0.500000
vt 0.966800 0.500000
vt 0.966800 0.500000
vt 0.966800 0.500000
vt 0.966800 0.500000
vt 0.966800 0.500000
vt 0.966800 0.500000
vt 0.966800 0.500000
vt 0.966800 0.500000
vt 0.966800 0.500000
vt 0.966800 0.500000
vt 0.966800 0.500000
vt 0.966800 0.500000
vt 0.966800 0.500000
vt 0.966800 0.500000
vt 0.966800 0.500000
vt 0.966800 0.500000
vt 0.966800 0.500000
vt 0.966800 0.500000
vt 0.966800 0.500000
vt 0.966800 0.500000
vt 0.970700 0.500000
vt 0.970700 0.500000
vt 0.970700 0.500000
vt 0.966800 0.500000
vt 0.966800 0.500000
vt 0.966800 0.500000
vt 0.970700 0.500000
vt 0.970700 0.500000
vt 0.970700 0.500000
vt 0.966800 0.500000
vt 0.966800 0.500000
vt 0.966800 0.500000
vt 0.966800 0.500000
vt 0.966800 0.500000
vt 0.966800 0.500000
vt 0.966800 0.500000
vt 0.966800 0.500000
vt 0.966800 0.500000
vt 0.966800 0.500000
vt 0.966800 0.500000
vt 0.966800 0.500000
vt 0.966800 0.500000
vt 0.966800 0.500000
vt 0.966800 0.500000
vt 0.966800 0.500000
vt 0.966800 0.500000
vt 0.966800 0.500000
vt 0.966800 0.500000
vt 0.966800 0.500000
vt 0.966800 0.500000
vt 0.966800 0.500000
vt 0.966800 0.500000
vn -1.000000 0.000000 -0.000000
vn -1.000000 0.000000 -0.000000
vn -1.000000 0.000000 -0.000000
vn -1.000000 0.000000 -0.000000
vn -1.000000 0.000000 -0.000000
vn -1.000000 0.000000 -0.000000
vn 1.000000 0.000000 0.000000
vn 1.000000 0.000000 0.000000
vn 1.000000 0.000000 0.000000
vn 1.000000 0.000000 0.000000
vn 1.000000 0.000000 0.000000
vn 1.000000 0.000000 0.000000
vn 0.000000 0.000000 1.000000
vn 0.000000 0.000000 1.000000
vn 0.000000 0.000000 1.000000
vn 0.000000 0.000000 1.000000
vn 0.000000 0.000000 1.000000
vn 0.000000 0.000000 1.000000
vn 0.000000 0.000000 1.000000
vn 0.000000 0.000000 1.000000
vn 0.000000 0.000000 1.000000
vn 0.000000 0.000000 1.000000
vn 0.000000 0.000000 1.000000
vn 0.000000 0.000000 1.000000
vn 0.000000 0.000000 1.000000
vn 0.000000 0.000000 1.000000
vn 0.000000 0.000000 1.000000
vn 0.000000 0.000000 1.000000
vn 0.000000 0.000000 1.000000
vn 0.000000 0.000000 1.000000
vn 0.000000 0.000000 1.000000
vn 0.000000 0.000000 1.000000
vn 0.000000 0.000000 1.000000
vn 0.000000 0.000000 1.000000
vn 0.000000 0.000000 1.000000
vn 0.000000 0.000000 1.000000
vn 0.000000 0.000000 1.000000
vn 0.000000 0.000000 1.000000
vn 0.000000 0.000000 1.000000
vn 0.000000 0.000000 1.000000
vn 0.000000 0.000000 1.000000
vn 0.000000 0.000000 1.000000
vn 0.000000 0.000000 -1.000000
vn 0.000000 0.000000 -1.000000
vn 0.000000 0.000000 -1.000000
vn 0.000000 0.000000 -1.000000
vn 0.000000 0.000000 -1.000000
vn 0.000000 0.000000 -1.000000
vn 0.000000 0.000000 -1.000000
vn 0.000000 0.000000 -1.000000
vn 0.000000 0.000000 -1.000000
vn 0.000000 0.000000 -1.000000
vn 0.000000 0.000000 -1.000000
vn 0.000000 0.000000 -1.000000
vn 0.000000 0.000000 -1.000000
vn 0.000000 0.000000 -1.000000
vn 0.000000 0.000000 -1.000000
vn 0.000000 0.000000 -1.000000
vn 0.000000 0.000000 -1.000000
vn 0.000000 0.000000 -1.000000
vn 0.000000 0.000000 -1.000000
vn 0.000000 0.000000 -1.000000
vn 0.000000 0.000000 -1.000000
vn 0.000000 0.000000 -1.000000
vn 0.000000 0.000000 -1.000000
vn 0.000000 0.000000 -1.000000
vn 0.000000 0.000000 -1.000000
vn 0.000000 0.000000 -1.000000
vn 0.000000 0.000000 -1.000000
vn 0.000000 0.000000 -1.000000
vn 0.000000 0.000000 -1.000000
vn 0.000000 0.000000 -1.000000
vn 0.000000 -1.000000 0.000000
vn 0.000000 -1.000000 0.000000
vn 0.000000 -1.000000 0.000000
vn 0.000000 -1.000000 0.000000
vn 0.000000 -1.000000 0.000000
vn 0.000000 -1.000000 0.000000
vn 0.000000 1.000000 0.000000
vn 0.000000 1.000000 0.000000
vn 0.000000 1.000000 0.000000
vn 0.000000 1.000000 0.000000
vn 0.000000 1.000000 0.000000
vn 0.000000 1.000000 0.000000
s off
g MetalDoor
usemtl MetalDoor_palette
f 1/1/1 2/3/2 3/4/3
f 4/5/4 2/6/5 1/1/6
f 5/7/7 6/8/8 7/9/9
f 7/10/10 6/11/11 8/12/12
f 9/13/13 1/1/14 3/14/15
f 10/15/16 1/1/17 9/16/18
f 11/17/19 9/18/20 3/19/21
f 11/2/22 10/20/23 9/21/24
f 12/22/25 1/1/26 10/23/27
f 12/24/28 10/25/29 11/2/30
f 5/26/31 11/27/32 3/28/33
f 5/29/34 12/30/35 11/31/36
f 7/32/37 1/1/38 12/33/39
f 7/34/40 12/35/41 5/36/42
f 2/37/43 4/38/44 13/39/45
f 13/40/46 4/41/47 14/42/48
f 2/43/49 13/44/50 15/45/51
f 13/46/52 14/47/53 15/48/54
f 14/49/55 4/50/56 16/51/57
f 15/52/58 14/53/59 16/54/60
f 2/55/61 15/56/62 6/57/63
f 15/58/64 16/59/65 6/60/66
f 16/61/67 4/62/68 8/63/69
f 6/64/70 16/65/71 8/66/72
f 2/67/73 5/68/74 3/69/75
f 6/70/76 5/71/77 2/72/78
f 1/1/79 7/73/80 4/74/81
f 4/75/82 7/76/83 8/77/84
