# MagicaVoxel @ Ephtracy

# group
g stairs

# material
mtllib stairs.mtl
usemtl palette

# normals
vn -1 0 0
vn 1 0 0
vn 0 0 1
vn 0 0 -1
vn 0 -1 0
vn 0 1 0

# texcoords
vt 0.427734 0.5
vt 0.431641 0.5

# verts
v -16 0 32
v -16 0 -32
v -16 2 32
v -16 2 28
v -16 3 32
v -16 3 28
v -16 5 28
v -16 5 24
v -16 6 28
v -16 6 24
v -16 8 24
v -16 8 20
v -16 9 24
v -16 9 20
v -16 11 20
v -16 11 16
v -16 12 20
v -16 12 16
v -16 14 16
v -16 14 12
v -16 15 16
v -16 15 12
v -16 17 12
v -16 17 8
v -16 18 12
v -16 18 8
v -16 20 8
v -16 20 4
v -16 21 8
v -16 21 4
v -16 23 4
v -16 23 -0
v -16 24 4
v -16 24 -0
v -16 26 -0
v -16 26 -4
v -16 27 -0
v -16 27 -4
v -16 29 -4
v -16 29 -8
v -16 30 -4
v -16 30 -8
v -16 32 -8
v -16 32 -12
v -16 33 -8
v -16 33 -12
v -16 35 -12
v -16 35 -16
v -16 36 -12
v -16 36 -16
v -16 38 -16
v -16 38 -20
v -16 39 -16
v -16 39 -20
v -16 41 -20
v -16 41 -24
v -16 42 -20
v -16 42 -24
v -16 44 -24
v -16 44 -28
v -16 45 -24
v -16 45 -28
v -16 47 -28
v -16 47 -32
v -16 48 -28
v -16 48 -32
v 16 0 32
v 16 0 -32
v 16 2 32
v 16 2 28
v 16 3 32
v 16 3 28
v 16 5 28
v 16 5 24
v 16 6 28
v 16 6 24
v 16 8 24
v 16 8 20
v 16 9 24
v 16 9 20
v 16 11 20
v 16 11 16
v 16 12 20
v 16 12 16
v 16 14 16
v 16 14 12
v 16 15 16
v 16 15 12
v 16 17 12
v 16 17 8
v 16 18 12
v 16 18 8
v 16 20 8
v 16 20 4
v 16 21 8
v 16 21 4
v 16 23 4
v 16 23 -0
v 16 24 4
v 16 24 -0
v 16 26 -0
v 16 26 -4
v 16 27 -0
v 16 27 -4
v 16 29 -4
v 16 29 -8
v 16 30 -4
v 16 30 -8
v 16 32 -8
v 16 32 -12
v 16 33 -8
v 16 33 -12
v 16 35 -12
v 16 35 -16
v 16 36 -12
v 16 36 -16
v 16 38 -16
v 16 38 -20
v 16 39 -16
v 16 39 -20
v 16 41 -20
v 16 41 -24
v 16 42 -20
v 16 42 -24
v 16 44 -24
v 16 44 -28
v 16 45 -24
v 16 45 -28
v 16 47 -28
v 16 47 -32
v 16 48 -28
v 16 48 -32
v -16 0 32
v -16 2 32
v -16 3 32
v 16 0 32
v 16 2 32
v 16 3 32
v -16 3 28
v -16 5 28
v -16 6 28
v 16 3 28
v 16 5 28
v 16 6 28
v -16 6 24
v -16 8 24
v -16 9 24
v 16 6 24
v 16 8 24
v 16 9 24
v -16 9 20
v -16 11 20
v -16 12 20
v 16 9 20
v 16 11 20
v 16 12 20
v -16 12 16
v -16 14 16
v -16 15 16
v 16 12 16
v 16 14 16
v 16 15 16
v -16 15 12
v -16 17 12
v -16 18 12
v 16 15 12
v 16 17 12
v 16 18 12
v -16 18 8
v -16 20 8
v -16 21 8
v 16 18 8
v 16 20 8
v 16 21 8
v -16 21 4
v -16 23 4
v -16 24 4
v 16 21 4
v 16 23 4
v 16 24 4
v -16 24 -0
v -16 26 -0
v -16 27 -0
v 16 24 -0
v 16 26 -0
v 16 27 -0
v -16 27 -4
v -16 29 -4
v -16 30 -4
v 16 27 -4
v 16 29 -4
v 16 30 -4
v -16 30 -8
v -16 32 -8
v -16 33 -8
v 16 30 -8
v 16 32 -8
v 16 33 -8
v -16 33 -12
v -16 35 -12
v -16 36 -12
v 16 33 -12
v 16 35 -12
v 16 36 -12
v -16 36 -16
v -16 38 -16
v -16 39 -16
v 16 36 -16
v 16 38 -16
v 16 39 -16
v -16 39 -20
v -16 41 -20
v -16 42 -20
v 16 39 -20
v 16 41 -20
v 16 42 -20
v -16 42 -24
v -16 44 -24
v -16 45 -24
v 16 42 -24
v 16 44 -24
v 16 45 -24
v -16 45 -28
v -16 47 -28
v -16 48 -28
v 16 45 -28
v 16 47 -28
v 16 48 -28
v -16 0 -32
v -16 47 -32
v -16 48 -32
v 16 0 -32
v 16 47 -32
v 16 48 -32
v -16 0 32
v 16 0 32
v -16 0 -32
v 16 0 -32
v -16 3 32
v 16 3 32
v -16 3 28
v 16 3 28
v -16 6 28
v 16 6 28
v -16 6 24
v 16 6 24
v -16 9 24
v 16 9 24
v -16 9 20
v 16 9 20
v -16 12 20
v 16 12 20
v -16 12 16
v 16 12 16
v -16 15 16
v 16 15 16
v -16 15 12
v 16 15 12
v -16 18 12
v 16 18 12
v -16 18 8
v 16 18 8
v -16 21 8
v 16 21 8
v -16 21 4
v 16 21 4
v -16 24 4
v 16 24 4
v -16 24 -0
v 16 24 -0
v -16 27 -0
v 16 27 -0
v -16 27 -4
v 16 27 -4
v -16 30 -4
v 16 30 -4
v -16 30 -8
v 16 30 -8
v -16 33 -8
v 16 33 -8
v -16 33 -12
v 16 33 -12
v -16 36 -12
v 16 36 -12
v -16 36 -16
v 16 36 -16
v -16 39 -16
v 16 39 -16
v -16 39 -20
v 16 39 -20
v -16 42 -20
v 16 42 -20
v -16 42 -24
v 16 42 -24
v -16 45 -24
v 16 45 -24
v -16 45 -28
v 16 45 -28
v -16 48 -28
v 16 48 -28
v -16 48 -32
v 16 48 -32

# faces
f 3/1/1 2/1/1 1/1/1
f 4/1/1 2/1/1 3/1/1
f 5/2/1 4/2/1 3/2/1
f 6/1/1 2/1/1 4/1/1
f 6/2/1 4/2/1 5/2/1
f 7/1/1 2/1/1 6/1/1
f 8/1/1 2/1/1 7/1/1
f 9/2/1 8/2/1 7/2/1
f 10/1/1 2/1/1 8/1/1
f 10/2/1 8/2/1 9/2/1
f 11/1/1 2/1/1 10/1/1
f 12/1/1 2/1/1 11/1/1
f 13/2/1 12/2/1 11/2/1
f 14/1/1 2/1/1 12/1/1
f 14/2/1 12/2/1 13/2/1
f 15/1/1 2/1/1 14/1/1
f 16/1/1 2/1/1 15/1/1
f 17/2/1 16/2/1 15/2/1
f 18/1/1 2/1/1 16/1/1
f 18/2/1 16/2/1 17/2/1
f 19/1/1 2/1/1 18/1/1
f 20/1/1 2/1/1 19/1/1
f 21/2/1 20/2/1 19/2/1
f 22/1/1 2/1/1 20/1/1
f 22/2/1 20/2/1 21/2/1
f 23/1/1 2/1/1 22/1/1
f 24/1/1 2/1/1 23/1/1
f 25/2/1 24/2/1 23/2/1
f 26/1/1 2/1/1 24/1/1
f 26/2/1 24/2/1 25/2/1
f 27/1/1 2/1/1 26/1/1
f 28/1/1 2/1/1 27/1/1
f 29/2/1 28/2/1 27/2/1
f 30/1/1 2/1/1 28/1/1
f 30/2/1 28/2/1 29/2/1
f 31/1/1 2/1/1 30/1/1
f 32/1/1 2/1/1 31/1/1
f 33/2/1 32/2/1 31/2/1
f 34/1/1 2/1/1 32/1/1
f 34/2/1 32/2/1 33/2/1
f 35/1/1 2/1/1 34/1/1
f 36/1/1 2/1/1 35/1/1
f 37/2/1 36/2/1 35/2/1
f 38/1/1 2/1/1 36/1/1
f 38/2/1 36/2/1 37/2/1
f 39/1/1 2/1/1 38/1/1
f 40/1/1 2/1/1 39/1/1
f 41/2/1 40/2/1 39/2/1
f 42/1/1 2/1/1 40/1/1
f 42/2/1 40/2/1 41/2/1
f 43/1/1 2/1/1 42/1/1
f 44/1/1 2/1/1 43/1/1
f 45/2/1 44/2/1 43/2/1
f 46/1/1 2/1/1 44/1/1
f 46/2/1 44/2/1 45/2/1
f 47/1/1 2/1/1 46/1/1
f 48/1/1 2/1/1 47/1/1
f 49/2/1 48/2/1 47/2/1
f 50/1/1 2/1/1 48/1/1
f 50/2/1 48/2/1 49/2/1
f 51/1/1 2/1/1 50/1/1
f 52/1/1 2/1/1 51/1/1
f 53/2/1 52/2/1 51/2/1
f 54/1/1 2/1/1 52/1/1
f 54/2/1 52/2/1 53/2/1
f 55/1/1 2/1/1 54/1/1
f 56/1/1 2/1/1 55/1/1
f 57/2/1 56/2/1 55/2/1
f 58/1/1 2/1/1 56/1/1
f 58/2/1 56/2/1 57/2/1
f 59/1/1 2/1/1 58/1/1
f 60/1/1 2/1/1 59/1/1
f 61/2/1 60/2/1 59/2/1
f 62/1/1 2/1/1 60/1/1
f 62/2/1 60/2/1 61/2/1
f 63/1/1 2/1/1 62/1/1
f 64/1/1 2/1/1 63/1/1
f 65/2/1 64/2/1 63/2/1
f 66/2/1 64/2/1 65/2/1
f 67/1/2 68/1/2 69/1/2
f 69/1/2 68/1/2 70/1/2
f 69/2/2 70/2/2 71/2/2
f 70/1/2 68/1/2 72/1/2
f 71/2/2 70/2/2 72/2/2
f 72/1/2 68/1/2 73/1/2
f 73/1/2 68/1/2 74/1/2
f 73/2/2 74/2/2 75/2/2
f 74/1/2 68/1/2 76/1/2
f 75/2/2 74/2/2 76/2/2
f 76/1/2 68/1/2 77/1/2
f 77/1/2 68/1/2 78/1/2
f 77/2/2 78/2/2 79/2/2
f 78/1/2 68/1/2 80/1/2
f 79/2/2 78/2/2 80/2/2
f 80/1/2 68/1/2 81/1/2
f 81/1/2 68/1/2 82/1/2
f 81/2/2 82/2/2 83/2/2
f 82/1/2 68/1/2 84/1/2
f 83/2/2 82/2/2 84/2/2
f 84/1/2 68/1/2 85/1/2
f 85/1/2 68/1/2 86/1/2
f 85/2/2 86/2/2 87/2/2
f 86/1/2 68/1/2 88/1/2
f 87/2/2 86/2/2 88/2/2
f 88/1/2 68/1/2 89/1/2
f 89/1/2 68/1/2 90/1/2
f 89/2/2 90/2/2 91/2/2
f 90/1/2 68/1/2 92/1/2
f 91/2/2 90/2/2 92/2/2
f 92/1/2 68/1/2 93/1/2
f 93/1/2 68/1/2 94/1/2
f 93/2/2 94/2/2 95/2/2
f 94/1/2 68/1/2 96/1/2
f 95/2/2 94/2/2 96/2/2
f 96/1/2 68/1/2 97/1/2
f 97/1/2 68/1/2 98/1/2
f 97/2/2 98/2/2 99/2/2
f 98/1/2 68/1/2 100/1/2
f 99/2/2 98/2/2 100/2/2
f 100/1/2 68/1/2 101/1/2
f 101/1/2 68/1/2 102/1/2
f 101/2/2 102/2/2 103/2/2
f 102/1/2 68/1/2 104/1/2
f 103/2/2 102/2/2 104/2/2
f 104/1/2 68/1/2 105/1/2
f 105/1/2 68/1/2 106/1/2
f 105/2/2 106/2/2 107/2/2
f 106/1/2 68/1/2 108/1/2
f 107/2/2 106/2/2 108/2/2
f 108/1/2 68/1/2 109/1/2
f 109/1/2 68/1/2 110/1/2
f 109/2/2 110/2/2 111/2/2
f 110/1/2 68/1/2 112/1/2
f 111/2/2 110/2/2 112/2/2
f 112/1/2 68/1/2 113/1/2
f 113/1/2 68/1/2 114/1/2
f 113/2/2 114/2/2 115/2/2
f 114/1/2 68/1/2 116/1/2
f 115/2/2 114/2/2 116/2/2
f 116/1/2 68/1/2 117/1/2
f 117/1/2 68/1/2 118/1/2
f 117/2/2 118/2/2 119/2/2
f 118/1/2 68/1/2 120/1/2
f 119/2/2 118/2/2 120/2/2
f 120/1/2 68/1/2 121/1/2
f 121/1/2 68/1/2 122/1/2
f 121/2/2 122/2/2 123/2/2
f 122/1/2 68/1/2 124/1/2
f 123/2/2 122/2/2 124/2/2
f 124/1/2 68/1/2 125/1/2
f 125/1/2 68/1/2 126/1/2
f 125/2/2 126/2/2 127/2/2
f 126/1/2 68/1/2 128/1/2
f 127/2/2 126/2/2 128/2/2
f 128/1/2 68/1/2 129/1/2
f 129/1/2 68/1/2 130/1/2
f 129/2/2 130/2/2 131/2/2
f 131/2/2 130/2/2 132/2/2
f 136/1/3 134/1/3 133/1/3
f 137/2/3 135/2/3 134/2/3
f 137/1/3 134/1/3 136/1/3
f 138/2/3 135/2/3 137/2/3
f 142/1/3 140/1/3 139/1/3
f 143/2/3 141/2/3 140/2/3
f 143/1/3 140/1/3 142/1/3
f 144/2/3 141/2/3 143/2/3
f 148/1/3 146/1/3 145/1/3
f 149/2/3 147/2/3 146/2/3
f 149/1/3 146/1/3 148/1/3
f 150/2/3 147/2/3 149/2/3
f 154/1/3 152/1/3 151/1/3
f 155/2/3 153/2/3 152/2/3
f 155/1/3 152/1/3 154/1/3
f 156/2/3 153/2/3 155/2/3
f 160/1/3 158/1/3 157/1/3
f 161/2/3 159/2/3 158/2/3
f 161/1/3 158/1/3 160/1/3
f 162/2/3 159/2/3 161/2/3
f 166/1/3 164/1/3 163/1/3
f 167/2/3 165/2/3 164/2/3
f 167/1/3 164/1/3 166/1/3
f 168/2/3 165/2/3 167/2/3
f 172/1/3 170/1/3 169/1/3
f 173/2/3 171/2/3 170/2/3
f 173/1/3 170/1/3 172/1/3
f 174/2/3 171/2/3 173/2/3
f 178/1/3 176/1/3 175/1/3
f 179/2/3 177/2/3 176/2/3
f 179/1/3 176/1/3 178/1/3
f 180/2/3 177/2/3 179/2/3
f 184/1/3 182/1/3 181/1/3
f 185/2/3 183/2/3 182/2/3
f 185/1/3 182/1/3 184/1/3
f 186/2/3 183/2/3 185/2/3
f 190/1/3 188/1/3 187/1/3
f 191/2/3 189/2/3 188/2/3
f 191/1/3 188/1/3 190/1/3
f 192/2/3 189/2/3 191/2/3
f 196/1/3 194/1/3 193/1/3
f 197/2/3 195/2/3 194/2/3
f 197/1/3 194/1/3 196/1/3
f 198/2/3 195/2/3 197/2/3
f 202/1/3 200/1/3 199/1/3
f 203/2/3 201/2/3 200/2/3
f 203/1/3 200/1/3 202/1/3
f 204/2/3 201/2/3 203/2/3
f 208/1/3 206/1/3 205/1/3
f 209/2/3 207/2/3 206/2/3
f 209/1/3 206/1/3 208/1/3
f 210/2/3 207/2/3 209/2/3
f 214/1/3 212/1/3 211/1/3
f 215/2/3 213/2/3 212/2/3
f 215/1/3 212/1/3 214/1/3
f 216/2/3 213/2/3 215/2/3
f 220/1/3 218/1/3 217/1/3
f 221/2/3 219/2/3 218/2/3
f 221/1/3 218/1/3 220/1/3
f 222/2/3 219/2/3 221/2/3
f 226/1/3 224/1/3 223/1/3
f 227/2/3 225/2/3 224/2/3
f 227/1/3 224/1/3 226/1/3
f 228/2/3 225/2/3 227/2/3
f 229/1/4 230/1/4 232/1/4
f 230/2/4 231/2/4 233/2/4
f 232/1/4 230/1/4 233/1/4
f 233/2/4 231/2/4 234/2/4
f 237/1/5 236/1/5 235/1/5
f 238/1/5 236/1/5 237/1/5
f 239/2/6 240/2/6 241/2/6
f 241/2/6 240/2/6 242/2/6
f 243/2/6 244/2/6 245/2/6
f 245/2/6 244/2/6 246/2/6
f 247/2/6 248/2/6 249/2/6
f 249/2/6 248/2/6 250/2/6
f 251/2/6 252/2/6 253/2/6
f 253/2/6 252/2/6 254/2/6
f 255/2/6 256/2/6 257/2/6
f 257/2/6 256/2/6 258/2/6
f 259/2/6 260/2/6 261/2/6
f 261/2/6 260/2/6 262/2/6
f 263/2/6 264/2/6 265/2/6
f 265/2/6 264/2/6 266/2/6
f 267/2/6 268/2/6 269/2/6
f 269/2/6 268/2/6 270/2/6
f 271/2/6 272/2/6 273/2/6
f 273/2/6 272/2/6 274/2/6
f 275/2/6 276/2/6 277/2/6
f 277/2/6 276/2/6 278/2/6
f 279/2/6 280/2/6 281/2/6
f 281/2/6 280/2/6 282/2/6
f 283/2/6 284/2/6 285/2/6
f 285/2/6 284/2/6 286/2/6
f 287/2/6 288/2/6 289/2/6
f 289/2/6 288/2/6 290/2/6
f 291/2/6 292/2/6 293/2/6
f 293/2/6 292/2/6 294/2/6
f 295/2/6 296/2/6 297/2/6
f 297/2/6 296/2/6 298/2/6
f 299/2/6 300/2/6 301/2/6
f 301/2/6 300/2/6 302/2/6
