# MagicaVoxel @ Ephtracy

# group
g The Vault-10

# material
mtllib The Vault-10.mtl
usemtl palette

# normals
vn -1 0 0
vn 1 0 0
vn 0 0 1
vn 0 0 -1
vn 0 -1 0
vn 0 1 0

# texcoords
vt 0.369141 0.5
vt 0.802734 0.5
vt 0.900391 0.5
vt 0.935547 0.5
vt 0.974609 0.5
vt 0.982422 0.5

# verts
v -6 4 1.5
v -6 4 0.5
v -6 5 1.5
v -6 5 0.5
v -6 6 1.5
v -6 6 0.5
v -6 8 1.5
v -6 8 0.5
v -5 2 1.5
v -5 2 0.5
v -5 4 1.5
v -5 4 0.5
v -5 8 1.5
v -5 8 0.5
v -5 10 1.5
v -5 10 0.5
v -4 1 1.5
v -4 1 0.5
v -4 2 1.5
v -4 2 0.5
v -4 10 1.5
v -4 10 0.5
v -4 11 1.5
v -4 11 0.5
v -3 3 1.5
v -3 3 0.5
v -3 4 1.5
v -3 4 0.5
v -3 8 1.5
v -3 8 0.5
v -3 9 1.5
v -3 9 0.5
v -2 0 1.5
v -2 0 0.5
v -2 1 1.5
v -2 1 0.5
v -2 4 1.5
v -2 4 0.5
v -2 5 1.5
v -2 5 0.5
v -2 7 1.5
v -2 7 0.5
v -2 8 1.5
v -2 8 0.5
v -2 11 1.5
v -2 11 0.5
v -2 12 1.5
v -2 12 0.5
v -1 5 2.5
v -1 5 1.5
v -1 5 0.5
v -1 5 -1.5
v -1 5 -2.5
v -1 6 2.5
v -1 6 -1.5
v -1 7 2.5
v -1 7 1.5
v -1 7 0.5
v -1 7 -1.5
v -1 7 -2.5
v 1 4 1.5
v 1 4 0.5
v 1 5 1.5
v 1 5 0.5
v 1 7 1.5
v 1 7 0.5
v 1 8 1.5
v 1 8 0.5
v 2 1 1.5
v 2 1 0.5
v 2 2 1.5
v 2 2 0.5
v 2 3 1.5
v 2 3 0.5
v 2 4 1.5
v 2 4 0.5
v 2 8 1.5
v 2 8 0.5
v 2 9 1.5
v 2 9 0.5
v 2 10 1.5
v 2 10 0.5
v 2 11 1.5
v 2 11 0.5
v 3 2 1.5
v 3 2 0.5
v 3 3 1.5
v 3 3 0.5
v 3 9 1.5
v 3 9 0.5
v 3 10 1.5
v 3 10 0.5
v 4 3 1.5
v 4 3 0.5
v 4 4 1.5
v 4 4 0.5
v 4 8 1.5
v 4 8 0.5
v 4 9 1.5
v 4 9 0.5
v 5 4 1.5
v 5 4 0.5
v 5 5 1.5
v 5 5 0.5
v 5 6 1.5
v 5 6 0.5
v 5 8 1.5
v 5 8 0.5
v -5 4 1.5
v -5 4 0.5
v -5 5 1.5
v -5 5 0.5
v -5 6 1.5
v -5 6 0.5
v -5 8 1.5
v -5 8 0.5
v -4 3 1.5
v -4 3 0.5
v -4 4 1.5
v -4 4 0.5
v -4 8 1.5
v -4 8 0.5
v -4 9 1.5
v -4 9 0.5
v -3 2 1.5
v -3 2 0.5
v -3 3 1.5
v -3 3 0.5
v -3 9 1.5
v -3 9 0.5
v -3 10 1.5
v -3 10 0.5
v -2 1 1.5
v -2 1 0.5
v -2 2 1.5
v -2 2 0.5
v -2 3 1.5
v -2 3 0.5
v -2 4 1.5
v -2 4 0.5
v -2 8 1.5
v -2 8 0.5
v -2 9 1.5
v -2 9 0.5
v -2 10 1.5
v -2 10 0.5
v -2 11 1.5
v -2 11 0.5
v -1 4 1.5
v -1 4 0.5
v -1 5 1.5
v -1 5 0.5
v -1 7 1.5
v -1 7 0.5
v -1 8 1.5
v -1 8 0.5
v 1 5 2.5
v 1 5 1.5
v 1 5 0.5
v 1 5 -1.5
v 1 5 -2.5
v 1 6 2.5
v 1 6 -1.5
v 1 7 2.5
v 1 7 1.5
v 1 7 0.5
v 1 7 -1.5
v 1 7 -2.5
v 2 0 1.5
v 2 0 0.5
v 2 1 1.5
v 2 1 0.5
v 2 4 1.5
v 2 4 0.5
v 2 5 1.5
v 2 5 0.5
v 2 7 1.5
v 2 7 0.5
v 2 8 1.5
v 2 8 0.5
v 2 11 1.5
v 2 11 0.5
v 2 12 1.5
v 2 12 0.5
v 3 3 1.5
v 3 3 0.5
v 3 4 1.5
v 3 4 0.5
v 3 8 1.5
v 3 8 0.5
v 3 9 1.5
v 3 9 0.5
v 4 1 1.5
v 4 1 0.5
v 4 2 1.5
v 4 2 0.5
v 4 10 1.5
v 4 10 0.5
v 4 11 1.5
v 4 11 0.5
v 5 2 1.5
v 5 2 0.5
v 5 3 1.5
v 5 3 0.5
v 5 4 1.5
v 5 4 0.5
v 5 8 1.5
v 5 8 0.5
v 5 9 1.5
v 5 9 0.5
v 5 10 1.5
v 5 10 0.5
v 6 4 1.5
v 6 4 0.5
v 6 5 1.5
v 6 5 0.5
v 6 6 1.5
v 6 6 0.5
v 6 8 1.5
v 6 8 0.5
v -1 5 2.5
v -1 6 2.5
v -1 7 2.5
v 0 5 2.5
v 0 6 2.5
v 0 7 2.5
v 1 5 2.5
v 1 6 2.5
v 1 7 2.5
v -6 4 1.5
v -6 5 1.5
v -6 6 1.5
v -6 8 1.5
v -5 2 1.5
v -5 4 1.5
v -5 5 1.5
v -5 6 1.5
v -5 8 1.5
v -5 10 1.5
v -4 1 1.5
v -4 2 1.5
v -4 3 1.5
v -4 4 1.5
v -4 8 1.5
v -4 9 1.5
v -4 10 1.5
v -4 11 1.5
v -3 1 1.5
v -3 2 1.5
v -3 3 1.5
v -3 4 1.5
v -3 8 1.5
v -3 9 1.5
v -3 10 1.5
v -3 11 1.5
v -2 0 1.5
v -2 1 1.5
v -2 2 1.5
v -2 3 1.5
v -2 4 1.5
v -2 5 1.5
v -2 7 1.5
v -2 8 1.5
v -2 9 1.5
v -2 10 1.5
v -2 11 1.5
v -2 12 1.5
v -1 0 1.5
v -1 1 1.5
v -1 4 1.5
v -1 5 1.5
v -1 7 1.5
v -1 8 1.5
v -1 11 1.5
v -1 12 1.5
v 0 11 1.5
v 0 12 1.5
v 1 0 1.5
v 1 1 1.5
v 1 4 1.5
v 1 5 1.5
v 1 7 1.5
v 1 8 1.5
v 1 11 1.5
v 1 12 1.5
v 2 0 1.5
v 2 1 1.5
v 2 2 1.5
v 2 3 1.5
v 2 4 1.5
v 2 5 1.5
v 2 7 1.5
v 2 8 1.5
v 2 9 1.5
v 2 10 1.5
v 2 11 1.5
v 2 12 1.5
v 3 2 1.5
v 3 3 1.5
v 3 4 1.5
v 3 8 1.5
v 3 9 1.5
v 3 10 1.5
v 4 1 1.5
v 4 2 1.5
v 4 3 1.5
v 4 4 1.5
v 4 8 1.5
v 4 9 1.5
v 4 10 1.5
v 4 11 1.5
v 5 2 1.5
v 5 3 1.5
v 5 4 1.5
v 5 5 1.5
v 5 6 1.5
v 5 8 1.5
v 5 9 1.5
v 5 10 1.5
v 6 4 1.5
v 6 5 1.5
v 6 6 1.5
v 6 8 1.5
v -6 4 0.5
v -6 5 0.5
v -6 6 0.5
v -6 8 0.5
v -5 2 0.5
v -5 4 0.5
v -5 5 0.5
v -5 6 0.5
v -5 8 0.5
v -5 10 0.5
v -4 1 0.5
v -4 2 0.5
v -4 3 0.5
v -4 4 0.5
v -4 8 0.5
v -4 9 0.5
v -4 10 0.5
v -4 11 0.5
v -3 1 0.5
v -3 2 0.5
v -3 3 0.5
v -3 4 0.5
v -3 8 0.5
v -3 9 0.5
v -3 10 0.5
v -3 11 0.5
v -2 0 0.5
v -2 1 0.5
v -2 2 0.5
v -2 3 0.5
v -2 4 0.5
v -2 5 0.5
v -2 7 0.5
v -2 8 0.5
v -2 9 0.5
v -2 10 0.5
v -2 11 0.5
v -2 12 0.5
v -1 0 0.5
v -1 1 0.5
v -1 4 0.5
v -1 5 0.5
v -1 7 0.5
v -1 8 0.5
v -1 11 0.5
v -1 12 0.5
v 0 11 0.5
v 0 12 0.5
v 1 0 0.5
v 1 1 0.5
v 1 4 0.5
v 1 5 0.5
v 1 7 0.5
v 1 8 0.5
v 1 11 0.5
v 1 12 0.5
v 2 0 0.5
v 2 1 0.5
v 2 2 0.5
v 2 3 0.5
v 2 4 0.5
v 2 5 0.5
v 2 7 0.5
v 2 8 0.5
v 2 9 0.5
v 2 10 0.5
v 2 11 0.5
v 2 12 0.5
v 3 2 0.5
v 3 3 0.5
v 3 4 0.5
v 3 8 0.5
v 3 9 0.5
v 3 10 0.5
v 4 1 0.5
v 4 2 0.5
v 4 3 0.5
v 4 4 0.5
v 4 8 0.5
v 4 9 0.5
v 4 10 0.5
v 4 11 0.5
v 5 2 0.5
v 5 3 0.5
v 5 4 0.5
v 5 5 0.5
v 5 6 0.5
v 5 8 0.5
v 5 9 0.5
v 5 10 0.5
v 6 4 0.5
v 6 5 0.5
v 6 6 0.5
v 6 8 0.5
v -1 5 -2.5
v -1 7 -2.5
v 1 5 -2.5
v 1 7 -2.5
v -2 0 1.5
v -1 0 1.5
v 1 0 1.5
v 2 0 1.5
v -2 0 0.5
v -1 0 0.5
v 1 0 0.5
v 2 0 0.5
v -4 1 1.5
v -3 1 1.5
v -2 1 1.5
v 2 1 1.5
v 4 1 1.5
v -4 1 0.5
v -3 1 0.5
v -2 1 0.5
v 2 1 0.5
v 4 1 0.5
v -5 2 1.5
v -4 2 1.5
v 4 2 1.5
v 5 2 1.5
v -5 2 0.5
v -4 2 0.5
v 4 2 0.5
v 5 2 0.5
v -3 3 1.5
v -2 3 1.5
v 2 3 1.5
v 3 3 1.5
v -3 3 0.5
v -2 3 0.5
v 2 3 0.5
v 3 3 0.5
v -6 4 1.5
v -5 4 1.5
v -2 4 1.5
v -1 4 1.5
v 1 4 1.5
v 2 4 1.5
v 5 4 1.5
v 6 4 1.5
v -6 4 0.5
v -5 4 0.5
v -2 4 0.5
v -1 4 0.5
v 1 4 0.5
v 2 4 0.5
v 5 4 0.5
v 6 4 0.5
v -1 5 2.5
v 0 5 2.5
v 1 5 2.5
v -1 5 1.5
v 1 5 1.5
v -1 5 0.5
v 1 5 0.5
v -1 5 -1.5
v 0 5 -1.5
v 1 5 -1.5
v -1 5 -2.5
v 1 5 -2.5
v -2 7 1.5
v -1 7 1.5
v 1 7 1.5
v 2 7 1.5
v -2 7 0.5
v -1 7 0.5
v 1 7 0.5
v 2 7 0.5
v -5 8 1.5
v -4 8 1.5
v -3 8 1.5
v -2 8 1.5
v 2 8 1.5
v 3 8 1.5
v 4 8 1.5
v 5 8 1.5
v -5 8 0.5
v -4 8 0.5
v -3 8 0.5
v -2 8 0.5
v 2 8 0.5
v 3 8 0.5
v 4 8 0.5
v 5 8 0.5
v -4 9 1.5
v -3 9 1.5
v 3 9 1.5
v 4 9 1.5
v -4 9 0.5
v -3 9 0.5
v 3 9 0.5
v 4 9 0.5
v -3 10 1.5
v -2 10 1.5
v 2 10 1.5
v 3 10 1.5
v -3 10 0.5
v -2 10 0.5
v 2 10 0.5
v 3 10 0.5
v -2 11 1.5
v -1 11 1.5
v 0 11 1.5
v 1 11 1.5
v 2 11 1.5
v -2 11 0.5
v -1 11 0.5
v 0 11 0.5
v 1 11 0.5
v 2 11 0.5
v -2 1 1.5
v -1 1 1.5
v 1 1 1.5
v 2 1 1.5
v -2 1 0.5
v -1 1 0.5
v 1 1 0.5
v 2 1 0.5
v -3 2 1.5
v -2 2 1.5
v 2 2 1.5
v 3 2 1.5
v -3 2 0.5
v -2 2 0.5
v 2 2 0.5
v 3 2 0.5
v -4 3 1.5
v -3 3 1.5
v 3 3 1.5
v 4 3 1.5
v -4 3 0.5
v -3 3 0.5
v 3 3 0.5
v 4 3 0.5
v -5 4 1.5
v -4 4 1.5
v -3 4 1.5
v -2 4 1.5
v 2 4 1.5
v 3 4 1.5
v 4 4 1.5
v 5 4 1.5
v -5 4 0.5
v -4 4 0.5
v -3 4 0.5
v -2 4 0.5
v 2 4 0.5
v 3 4 0.5
v 4 4 0.5
v 5 4 0.5
v -2 5 1.5
v -1 5 1.5
v 1 5 1.5
v 2 5 1.5
v -2 5 0.5
v -1 5 0.5
v 1 5 0.5
v 2 5 0.5
v -1 7 2.5
v 0 7 2.5
v 1 7 2.5
v -1 7 1.5
v 1 7 1.5
v -1 7 0.5
v 1 7 0.5
v -1 7 -1.5
v 0 7 -1.5
v 1 7 -1.5
v -1 7 -2.5
v 1 7 -2.5
v -6 8 1.5
v -5 8 1.5
v -2 8 1.5
v -1 8 1.5
v 1 8 1.5
v 2 8 1.5
v 5 8 1.5
v 6 8 1.5
v -6 8 0.5
v -5 8 0.5
v -2 8 0.5
v -1 8 0.5
v 1 8 0.5
v 2 8 0.5
v 5 8 0.5
v 6 8 0.5
v -3 9 1.5
v -2 9 1.5
v 2 9 1.5
v 3 9 1.5
v -3 9 0.5
v -2 9 0.5
v 2 9 0.5
v 3 9 0.5
v -5 10 1.5
v -4 10 1.5
v 4 10 1.5
v 5 10 1.5
v -5 10 0.5
v -4 10 0.5
v 4 10 0.5
v 5 10 0.5
v -4 11 1.5
v -3 11 1.5
v -2 11 1.5
v 2 11 1.5
v 4 11 1.5
v -4 11 0.5
v -3 11 0.5
v -2 11 0.5
v 2 11 0.5
v 4 11 0.5
v -2 12 1.5
v -1 12 1.5
v 0 12 1.5
v 1 12 1.5
v 2 12 1.5
v -2 12 0.5
v -1 12 0.5
v 0 12 0.5
v 1 12 0.5
v 2 12 0.5

# faces
f 3/6/1 2/6/1 1/6/1
f 4/6/1 2/6/1 3/6/1
f 5/3/1 4/3/1 3/3/1
f 6/3/1 4/3/1 5/3/1
f 7/6/1 6/6/1 5/6/1
f 8/6/1 6/6/1 7/6/1
f 11/6/1 10/6/1 9/6/1
f 12/6/1 10/6/1 11/6/1
f 15/6/1 14/6/1 13/6/1
f 16/6/1 14/6/1 15/6/1
f 19/4/1 18/4/1 17/4/1
f 20/4/1 18/4/1 19/4/1
f 23/3/1 22/3/1 21/3/1
f 24/3/1 22/3/1 23/3/1
f 27/5/1 26/5/1 25/5/1
f 28/5/1 26/5/1 27/5/1
f 31/1/1 30/1/1 29/1/1
f 32/1/1 30/1/1 31/1/1
f 35/4/1 34/4/1 33/4/1
f 36/4/1 34/4/1 35/4/1
f 39/1/1 38/1/1 37/1/1
f 40/1/1 38/1/1 39/1/1
f 43/5/1 42/5/1 41/5/1
f 44/5/1 42/5/1 43/5/1
f 47/6/1 46/6/1 45/6/1
f 48/6/1 46/6/1 47/6/1
f 54/3/1 50/3/1 49/3/1
f 54/3/1 51/3/1 50/3/1
f 54/3/1 52/3/1 51/3/1
f 55/6/1 53/6/1 52/6/1
f 55/3/1 52/3/1 54/3/1
f 56/2/1 55/2/1 54/2/1
f 57/2/1 55/2/1 56/2/1
f 58/2/1 55/2/1 57/2/1
f 59/6/1 53/6/1 55/6/1
f 59/2/1 55/2/1 58/2/1
f 60/6/1 53/6/1 59/6/1
f 63/5/1 62/5/1 61/5/1
f 64/5/1 62/5/1 63/5/1
f 67/1/1 66/1/1 65/1/1
f 68/1/1 66/1/1 67/1/1
f 71/6/1 70/6/1 69/6/1
f 72/6/1 70/6/1 71/6/1
f 75/5/1 74/5/1 73/5/1
f 76/5/1 74/5/1 75/5/1
f 79/1/1 78/1/1 77/1/1
f 80/1/1 78/1/1 79/1/1
f 83/6/1 82/6/1 81/6/1
f 84/6/1 82/6/1 83/6/1
f 87/1/1 86/1/1 85/1/1
f 88/1/1 86/1/1 87/1/1
f 91/5/1 90/5/1 89/5/1
f 92/5/1 90/5/1 91/5/1
f 95/4/1 94/4/1 93/4/1
f 96/4/1 94/4/1 95/4/1
f 99/6/1 98/6/1 97/6/1
f 100/6/1 98/6/1 99/6/1
f 103/6/1 102/6/1 101/6/1
f 104/6/1 102/6/1 103/6/1
f 105/3/1 104/3/1 103/3/1
f 106/3/1 104/3/1 105/3/1
f 107/6/1 106/6/1 105/6/1
f 108/6/1 106/6/1 107/6/1
f 109/6/2 110/6/2 111/6/2
f 111/6/2 110/6/2 112/6/2
f 111/3/2 112/3/2 113/3/2
f 113/3/2 112/3/2 114/3/2
f 113/6/2 114/6/2 115/6/2
f 115/6/2 114/6/2 116/6/2
f 117/6/2 118/6/2 119/6/2
f 119/6/2 118/6/2 120/6/2
f 121/6/2 122/6/2 123/6/2
f 123/6/2 122/6/2 124/6/2
f 125/5/2 126/5/2 127/5/2
f 127/5/2 126/5/2 128/5/2
f 129/5/2 130/5/2 131/5/2
f 131/5/2 130/5/2 132/5/2
f 133/6/2 134/6/2 135/6/2
f 135/6/2 134/6/2 136/6/2
f 137/5/2 138/5/2 139/5/2
f 139/5/2 138/5/2 140/5/2
f 141/1/2 142/1/2 143/1/2
f 143/1/2 142/1/2 144/1/2
f 145/4/2 146/4/2 147/4/2
f 147/4/2 146/4/2 148/4/2
f 149/1/2 150/1/2 151/1/2
f 151/1/2 150/1/2 152/1/2
f 153/5/2 154/5/2 155/5/2
f 155/5/2 154/5/2 156/5/2
f 157/2/2 158/2/2 162/2/2
f 158/2/2 159/2/2 162/2/2
f 159/2/2 160/2/2 162/2/2
f 160/6/2 161/6/2 163/6/2
f 162/2/2 160/2/2 163/2/2
f 162/4/2 163/4/2 164/4/2
f 164/4/2 163/4/2 165/4/2
f 165/4/2 163/4/2 166/4/2
f 163/6/2 161/6/2 167/6/2
f 166/4/2 163/4/2 167/4/2
f 167/6/2 161/6/2 168/6/2
f 169/3/2 170/3/2 171/3/2
f 171/3/2 170/3/2 172/3/2
f 173/5/2 174/5/2 175/5/2
f 175/5/2 174/5/2 176/5/2
f 177/1/2 178/1/2 179/1/2
f 179/1/2 178/1/2 180/1/2
f 181/4/2 182/4/2 183/4/2
f 183/4/2 182/4/2 184/4/2
f 185/5/2 186/5/2 187/5/2
f 187/5/2 186/5/2 188/5/2
f 189/1/2 190/1/2 191/1/2
f 191/1/2 190/1/2 192/1/2
f 193/6/2 194/6/2 195/6/2
f 195/6/2 194/6/2 196/6/2
f 197/6/2 198/6/2 199/6/2
f 199/6/2 198/6/2 200/6/2
f 201/6/2 202/6/2 203/6/2
f 203/6/2 202/6/2 204/6/2
f 203/4/2 204/4/2 205/4/2
f 205/4/2 204/4/2 206/4/2
f 207/6/2 208/6/2 209/6/2
f 209/6/2 208/6/2 210/6/2
f 209/4/2 210/4/2 211/4/2
f 211/4/2 210/4/2 212/4/2
f 213/6/2 214/6/2 215/6/2
f 215/6/2 214/6/2 216/6/2
f 215/3/2 216/3/2 217/3/2
f 217/3/2 216/3/2 218/3/2
f 217/6/2 218/6/2 219/6/2
f 219/6/2 218/6/2 220/6/2
f 224/3/3 222/3/3 221/3/3
f 225/2/3 223/2/3 222/2/3
f 225/3/3 222/3/3 224/3/3
f 226/2/3 223/2/3 225/2/3
f 227/2/3 225/2/3 224/2/3
f 228/4/3 226/4/3 225/4/3
f 228/2/3 225/2/3 227/2/3
f 229/4/3 226/4/3 228/4/3
f 235/6/3 231/6/3 230/6/3
f 236/3/3 232/3/3 231/3/3
f 236/6/3 231/6/3 235/6/3
f 237/6/3 233/6/3 232/6/3
f 237/3/3 232/3/3 236/3/3
f 238/6/3 233/6/3 237/6/3
f 241/6/3 235/6/3 234/6/3
f 242/6/3 235/6/3 241/6/3
f 243/6/3 235/6/3 242/6/3
f 244/6/3 239/6/3 238/6/3
f 245/6/3 239/6/3 244/6/3
f 246/6/3 239/6/3 245/6/3
f 248/4/3 241/4/3 240/4/3
f 249/5/3 242/5/3 241/5/3
f 249/4/3 241/4/3 248/4/3
f 250/5/3 242/5/3 249/5/3
f 253/5/3 246/5/3 245/5/3
f 254/3/3 247/3/3 246/3/3
f 254/5/3 246/5/3 253/5/3
f 255/3/3 247/3/3 254/3/3
f 257/6/3 249/6/3 248/6/3
f 258/6/3 249/6/3 257/6/3
f 259/5/3 251/5/3 250/5/3
f 260/5/3 251/5/3 259/5/3
f 263/1/3 253/1/3 252/1/3
f 264/1/3 253/1/3 263/1/3
f 265/4/3 255/4/3 254/4/3
f 266/4/3 255/4/3 265/4/3
f 268/4/3 257/4/3 256/4/3
f 269/4/3 257/4/3 268/4/3
f 270/1/3 261/1/3 260/1/3
f 271/1/3 261/1/3 270/1/3
f 272/5/3 263/5/3 262/5/3
f 273/5/3 263/5/3 272/5/3
f 274/6/3 267/6/3 266/6/3
f 275/6/3 267/6/3 274/6/3
f 276/4/3 275/4/3 274/4/3
f 277/4/3 275/4/3 276/4/3
f 278/6/3 269/6/3 268/6/3
f 279/6/3 269/6/3 278/6/3
f 284/6/3 277/6/3 276/6/3
f 285/6/3 277/6/3 284/6/3
f 286/3/3 279/3/3 278/3/3
f 287/3/3 279/3/3 286/3/3
f 290/5/3 281/5/3 280/5/3
f 291/5/3 281/5/3 290/5/3
f 292/1/3 283/1/3 282/1/3
f 293/1/3 283/1/3 292/1/3
f 296/4/3 285/4/3 284/4/3
f 297/4/3 285/4/3 296/4/3
f 298/6/3 288/6/3 287/6/3
f 299/5/3 290/5/3 289/5/3
f 300/5/3 290/5/3 299/5/3
f 301/1/3 294/1/3 293/1/3
f 302/1/3 294/1/3 301/1/3
f 303/6/3 296/6/3 295/6/3
f 304/6/3 298/6/3 287/6/3
f 305/1/3 299/1/3 298/1/3
f 305/6/3 298/6/3 304/6/3
f 306/1/3 299/1/3 305/1/3
f 309/5/3 303/5/3 302/5/3
f 310/6/3 296/6/3 303/6/3
f 310/5/3 303/5/3 309/5/3
f 311/6/3 296/6/3 310/6/3
f 312/6/3 306/6/3 305/6/3
f 313/4/3 307/4/3 306/4/3
f 313/6/3 306/6/3 312/6/3
f 314/4/3 307/4/3 313/4/3
f 317/6/3 309/6/3 308/6/3
f 318/4/3 310/4/3 309/4/3
f 318/6/3 309/6/3 317/6/3
f 319/4/3 310/4/3 318/4/3
f 320/6/3 315/6/3 314/6/3
f 321/3/3 316/3/3 315/3/3
f 321/6/3 315/6/3 320/6/3
f 322/6/3 317/6/3 316/6/3
f 322/3/3 316/3/3 321/3/3
f 323/6/3 317/6/3 322/6/3
f 324/6/4 325/6/4 329/6/4
f 325/3/4 326/3/4 330/3/4
f 329/6/4 325/6/4 330/6/4
f 326/6/4 327/6/4 331/6/4
f 330/3/4 326/3/4 331/3/4
f 331/6/4 327/6/4 332/6/4
f 328/6/4 329/6/4 335/6/4
f 335/6/4 329/6/4 336/6/4
f 336/6/4 329/6/4 337/6/4
f 332/6/4 333/6/4 338/6/4
f 338/6/4 333/6/4 339/6/4
f 339/6/4 333/6/4 340/6/4
f 334/4/4 335/4/4 342/4/4
f 335/5/4 336/5/4 343/5/4
f 342/4/4 335/4/4 343/4/4
f 343/5/4 336/5/4 344/5/4
f 339/5/4 340/5/4 347/5/4
f 340/3/4 341/3/4 348/3/4
f 347/5/4 340/5/4 348/5/4
f 348/3/4 341/3/4 349/3/4
f 342/6/4 343/6/4 351/6/4
f 351/6/4 343/6/4 352/6/4
f 344/5/4 345/5/4 353/5/4
f 353/5/4 345/5/4 354/5/4
f 346/1/4 347/1/4 357/1/4
f 357/1/4 347/1/4 358/1/4
f 348/4/4 349/4/4 359/4/4
f 359/4/4 349/4/4 360/4/4
f 350/4/4 351/4/4 362/4/4
f 362/4/4 351/4/4 363/4/4
f 354/1/4 355/1/4 364/1/4
f 364/1/4 355/1/4 365/1/4
f 356/5/4 357/5/4 366/5/4
f 366/5/4 357/5/4 367/5/4
f 360/6/4 361/6/4 368/6/4
f 368/6/4 361/6/4 369/6/4
f 368/4/4 369/4/4 370/4/4
f 370/4/4 369/4/4 371/4/4
f 362/6/4 363/6/4 372/6/4
f 372/6/4 363/6/4 373/6/4
f 370/6/4 371/6/4 378/6/4
f 378/6/4 371/6/4 379/6/4
f 372/3/4 373/3/4 380/3/4
f 380/3/4 373/3/4 381/3/4
f 374/5/4 375/5/4 384/5/4
f 384/5/4 375/5/4 385/5/4
f 376/1/4 377/1/4 386/1/4
f 386/1/4 377/1/4 387/1/4
f 378/4/4 379/4/4 390/4/4
f 390/4/4 379/4/4 391/4/4
f 381/6/4 382/6/4 392/6/4
f 383/5/4 384/5/4 393/5/4
f 393/5/4 384/5/4 394/5/4
f 387/1/4 388/1/4 395/1/4
f 395/1/4 388/1/4 396/1/4
f 389/6/4 390/6/4 397/6/4
f 381/6/4 392/6/4 398/6/4
f 392/1/4 393/1/4 399/1/4
f 398/6/4 392/6/4 399/6/4
f 399/1/4 393/1/4 400/1/4
f 396/5/4 397/5/4 403/5/4
f 397/6/4 390/6/4 404/6/4
f 403/5/4 397/5/4 404/5/4
f 404/6/4 390/6/4 405/6/4
f 399/6/4 400/6/4 406/6/4
f 400/4/4 401/4/4 407/4/4
f 406/6/4 400/6/4 407/6/4
f 407/4/4 401/4/4 408/4/4
f 402/6/4 403/6/4 411/6/4
f 403/4/4 404/4/4 412/4/4
f 411/6/4 403/6/4 412/6/4
f 412/4/4 404/4/4 413/4/4
f 408/6/4 409/6/4 414/6/4
f 409/3/4 410/3/4 415/3/4
f 414/6/4 409/6/4 415/6/4
f 410/6/4 411/6/4 416/6/4
f 415/3/4 410/3/4 416/3/4
f 416/6/4 411/6/4 417/6/4
f 418/6/4 419/6/4 420/6/4
f 420/6/4 419/6/4 421/6/4
f 426/4/5 423/4/5 422/4/5
f 427/6/5 424/6/5 423/6/5
f 427/4/5 423/4/5 426/4/5
f 428/3/5 425/3/5 424/3/5
f 428/6/5 424/6/5 427/6/5
f 429/3/5 425/3/5 428/3/5
f 435/4/5 431/4/5 430/4/5
f 436/6/5 432/6/5 431/6/5
f 436/4/5 431/4/5 435/4/5
f 437/6/5 432/6/5 436/6/5
f 438/6/5 434/6/5 433/6/5
f 439/6/5 434/6/5 438/6/5
f 444/6/5 441/6/5 440/6/5
f 445/6/5 441/6/5 444/6/5
f 446/6/5 443/6/5 442/6/5
f 447/6/5 443/6/5 446/6/5
f 452/5/5 449/5/5 448/5/5
f 453/5/5 449/5/5 452/5/5
f 454/5/5 451/5/5 450/5/5
f 455/5/5 451/5/5 454/5/5
f 464/6/5 457/6/5 456/6/5
f 465/6/5 457/6/5 464/6/5
f 466/1/5 459/1/5 458/1/5
f 467/1/5 459/1/5 466/1/5
f 468/5/5 461/5/5 460/5/5
f 469/5/5 461/5/5 468/5/5
f 470/6/5 463/6/5 462/6/5
f 471/6/5 463/6/5 470/6/5
f 475/3/5 473/3/5 472/3/5
f 476/2/5 474/2/5 473/2/5
f 477/3/5 473/3/5 475/3/5
f 478/2/5 476/2/5 473/2/5
f 479/3/5 473/3/5 477/3/5
f 480/2/5 478/2/5 473/2/5
f 480/3/5 473/3/5 479/3/5
f 481/2/5 478/2/5 480/2/5
f 482/6/5 480/6/5 479/6/5
f 482/6/5 481/6/5 480/6/5
f 483/6/5 481/6/5 482/6/5
f 488/5/5 485/5/5 484/5/5
f 489/5/5 485/5/5 488/5/5
f 490/1/5 487/1/5 486/1/5
f 491/1/5 487/1/5 490/1/5
f 500/6/5 493/6/5 492/6/5
f 501/6/5 493/6/5 500/6/5
f 502/1/5 495/1/5 494/1/5
f 503/1/5 495/1/5 502/1/5
f 504/1/5 497/1/5 496/1/5
f 505/1/5 497/1/5 504/1/5
f 506/6/5 499/6/5 498/6/5
f 507/6/5 499/6/5 506/6/5
f 512/5/5 509/5/5 508/5/5
f 513/5/5 509/5/5 512/5/5
f 514/5/5 511/5/5 510/5/5
f 515/5/5 511/5/5 514/5/5
f 520/4/5 517/4/5 516/4/5
f 521/4/5 517/4/5 520/4/5
f 522/6/5 519/6/5 518/6/5
f 523/6/5 519/6/5 522/6/5
f 529/6/5 525/6/5 524/6/5
f 530/4/5 526/4/5 525/4/5
f 530/6/5 525/6/5 529/6/5
f 531/6/5 527/6/5 526/6/5
f 531/4/5 526/4/5 530/4/5
f 532/4/5 528/4/5 527/4/5
f 532/6/5 527/6/5 531/6/5
f 533/4/5 528/4/5 532/4/5
f 534/4/6 535/4/6 538/4/6
f 535/6/6 536/6/6 539/6/6
f 538/4/6 535/4/6 539/4/6
f 536/3/6 537/3/6 540/3/6
f 539/6/6 536/6/6 540/6/6
f 540/3/6 537/3/6 541/3/6
f 542/6/6 543/6/6 546/6/6
f 546/6/6 543/6/6 547/6/6
f 544/6/6 545/6/6 548/6/6
f 548/6/6 545/6/6 549/6/6
f 550/5/6 551/5/6 554/5/6
f 554/5/6 551/5/6 555/5/6
f 552/1/6 553/1/6 556/1/6
f 556/1/6 553/1/6 557/1/6
f 558/6/6 559/6/6 566/6/6
f 566/6/6 559/6/6 567/6/6
f 560/5/6 561/5/6 568/5/6
f 568/5/6 561/5/6 569/5/6
f 562/5/6 563/5/6 570/5/6
f 570/5/6 563/5/6 571/5/6
f 564/4/6 565/4/6 572/4/6
f 572/4/6 565/4/6 573/4/6
f 574/1/6 575/1/6 578/1/6
f 578/1/6 575/1/6 579/1/6
f 576/5/6 577/5/6 580/5/6
f 580/5/6 577/5/6 581/5/6
f 582/2/6 583/2/6 585/2/6
f 583/4/6 584/4/6 586/4/6
f 585/2/6 583/2/6 587/2/6
f 583/4/6 586/4/6 588/4/6
f 587/2/6 583/2/6 589/2/6
f 583/4/6 588/4/6 590/4/6
f 589/2/6 583/2/6 590/2/6
f 590/4/6 588/4/6 591/4/6
f 589/6/6 590/6/6 592/6/6
f 590/6/6 591/6/6 592/6/6
f 592/6/6 591/6/6 593/6/6
f 594/6/6 595/6/6 602/6/6
f 602/6/6 595/6/6 603/6/6
f 596/5/6 597/5/6 604/5/6
f 604/5/6 597/5/6 605/5/6
f 598/1/6 599/1/6 606/1/6
f 606/1/6 599/1/6 607/1/6
f 600/6/6 601/6/6 608/6/6
f 608/6/6 601/6/6 609/6/6
f 610/1/6 611/1/6 614/1/6
f 614/1/6 611/1/6 615/1/6
f 612/1/6 613/1/6 616/1/6
f 616/1/6 613/1/6 617/1/6
f 618/6/6 619/6/6 622/6/6
f 622/6/6 619/6/6 623/6/6
f 620/4/6 621/4/6 624/4/6
f 624/4/6 621/4/6 625/4/6
f 626/3/6 627/3/6 631/3/6
f 627/4/6 628/4/6 632/4/6
f 631/3/6 627/3/6 632/3/6
f 632/4/6 628/4/6 633/4/6
f 629/6/6 630/6/6 634/6/6
f 634/6/6 630/6/6 635/6/6
f 636/6/6 637/6/6 641/6/6
f 637/4/6 638/4/6 642/4/6
f 641/6/6 637/6/6 642/6/6
f 638/6/6 639/6/6 643/6/6
f 642/4/6 638/4/6 643/4/6
f 639/4/6 640/4/6 644/4/6
f 643/6/6 639/6/6 644/6/6
f 644/4/6 640/4/6 645/4/6
