# MagicaVoxel @ Ephtracy

# group
g ToolBoc

# material
mtllib ToolBoc.mtl
usemtl palette

# normals
vn -1 0 0
vn 1 0 0
vn 0 0 1
vn 0 0 -1
vn 0 -1 0
vn 0 1 0

# texcoords
vt 0.107422 0.5
vt 0.111328 0.5
vt 0.130859 0.5
vt 0.935547 0.5

# verts
v -2.5 0 4.5
v -2.5 0 -4.5
v -2.5 1 4.5
v -2.5 1 -4.5
v -2.5 4 4.5
v -2.5 4 -4.5
v -0.5 4 4.5
v -0.5 4 3.5
v -0.5 4 -3.5
v -0.5 4 -4.5
v -0.5 5 3.5
v -0.5 5 -3.5
v -0.5 6 4.5
v -0.5 6 -4.5
v 0.5 4 4.5
v 0.5 4 3.5
v 0.5 4 -3.5
v 0.5 4 -4.5
v 0.5 5 3.5
v 0.5 5 -3.5
v 0.5 6 4.5
v 0.5 6 -4.5
v 2.5 0 4.5
v 2.5 0 -4.5
v 2.5 1 4.5
v 2.5 1 -4.5
v 2.5 4 4.5
v 2.5 4 -4.5
v -2.5 0 4.5
v -2.5 1 4.5
v -2.5 4 4.5
v -1.5 2 4.5
v -1.5 3 4.5
v -0.5 3 4.5
v -0.5 4 4.5
v -0.5 6 4.5
v 0.5 2 4.5
v 0.5 4 4.5
v 0.5 6 4.5
v 2.5 0 4.5
v 2.5 1 4.5
v 2.5 4 4.5
v -0.5 4 -3.5
v -0.5 5 -3.5
v 0.5 4 -3.5
v 0.5 5 -3.5
v -0.5 4 3.5
v -0.5 5 3.5
v 0.5 4 3.5
v 0.5 5 3.5
v -2.5 0 -4.5
v -2.5 1 -4.5
v -2.5 4 -4.5
v -1.5 2 -4.5
v -1.5 3 -4.5
v -0.5 3 -4.5
v -0.5 4 -4.5
v -0.5 6 -4.5
v 0.5 2 -4.5
v 0.5 4 -4.5
v 0.5 6 -4.5
v 2.5 0 -4.5
v 2.5 1 -4.5
v 2.5 4 -4.5
v -2.5 0 4.5
v 2.5 0 4.5
v -2.5 0 -4.5
v 2.5 0 -4.5
v -0.5 5 3.5
v 0.5 5 3.5
v -0.5 5 -3.5
v 0.5 5 -3.5
v -2.5 4 4.5
v -0.5 4 4.5
v 0.5 4 4.5
v 2.5 4 4.5
v -0.5 4 3.5
v 0.5 4 3.5
v -0.5 4 -3.5
v 0.5 4 -3.5
v -2.5 4 -4.5
v -0.5 4 -4.5
v 0.5 4 -4.5
v 2.5 4 -4.5
v -0.5 6 4.5
v 0.5 6 4.5
v -0.5 6 -4.5
v 0.5 6 -4.5

# faces
f 3/1/1 2/1/1 1/1/1
f 4/1/1 2/1/1 3/1/1
f 5/3/1 4/3/1 3/3/1
f 6/3/1 4/3/1 5/3/1
f 11/4/1 8/4/1 7/4/1
f 12/4/1 10/4/1 9/4/1
f 13/4/1 11/4/1 7/4/1
f 13/4/1 12/4/1 11/4/1
f 14/4/1 10/4/1 12/4/1
f 14/4/1 12/4/1 13/4/1
f 15/4/2 16/4/2 19/4/2
f 17/4/2 18/4/2 20/4/2
f 15/4/2 19/4/2 21/4/2
f 19/4/2 20/4/2 21/4/2
f 20/4/2 18/4/2 22/4/2
f 21/4/2 20/4/2 22/4/2
f 23/1/2 24/1/2 25/1/2
f 25/1/2 24/1/2 26/1/2
f 25/3/2 26/3/2 27/3/2
f 27/3/2 26/3/2 28/3/2
f 32/3/3 31/3/3 30/3/3
f 33/3/3 31/3/3 32/3/3
f 34/4/3 33/4/3 32/4/3
f 34/3/3 31/3/3 33/3/3
f 35/3/3 31/3/3 34/3/3
f 37/3/3 32/3/3 30/3/3
f 37/4/3 36/4/3 35/4/3
f 37/4/3 35/4/3 34/4/3
f 37/4/3 34/4/3 32/4/3
f 38/4/3 36/4/3 37/4/3
f 39/4/3 36/4/3 38/4/3
f 40/1/3 30/1/3 29/1/3
f 41/3/3 37/3/3 30/3/3
f 41/1/3 30/1/3 40/1/3
f 41/3/3 38/3/3 37/3/3
f 42/3/3 38/3/3 41/3/3
f 45/4/3 44/4/3 43/4/3
f 46/4/3 44/4/3 45/4/3
f 47/4/4 48/4/4 49/4/4
f 49/4/4 48/4/4 50/4/4
f 52/3/4 53/3/4 54/3/4
f 54/3/4 53/3/4 55/3/4
f 54/4/4 55/4/4 56/4/4
f 55/3/4 53/3/4 56/3/4
f 56/3/4 53/3/4 57/3/4
f 52/3/4 54/3/4 59/3/4
f 57/4/4 58/4/4 59/4/4
f 56/4/4 57/4/4 59/4/4
f 54/4/4 56/4/4 59/4/4
f 59/4/4 58/4/4 60/4/4
f 60/4/4 58/4/4 61/4/4
f 51/1/4 52/1/4 62/1/4
f 52/3/4 59/3/4 63/3/4
f 62/1/4 52/1/4 63/1/4
f 59/3/4 60/3/4 63/3/4
f 63/3/4 60/3/4 64/3/4
f 67/1/5 66/1/5 65/1/5
f 68/1/5 66/1/5 67/1/5
f 71/4/5 70/4/5 69/4/5
f 72/4/5 70/4/5 71/4/5
f 73/3/6 74/3/6 77/3/6
f 75/3/6 76/3/6 78/3/6
f 73/3/6 77/3/6 79/3/6
f 77/2/6 78/2/6 79/2/6
f 78/3/6 76/3/6 80/3/6
f 79/2/6 78/2/6 80/2/6
f 73/3/6 79/3/6 81/3/6
f 81/3/6 79/3/6 82/3/6
f 80/3/6 76/3/6 83/3/6
f 83/3/6 76/3/6 84/3/6
f 85/4/6 86/4/6 87/4/6
f 87/4/6 86/4/6 88/4/6
